<svg width="61" height="30" viewBox="0 0 61 30" fill="none" xmlns="http://www.w3.org/2000/svg">
<mask id="path-1-inside-1" fill="white">
<path d="M12.4065 21.3638C11.7823 21.3703 11.1742 21.5478 10.6586 21.874C10.143 22.2002 9.74309 22.6605 9.50909 23.1969C9.27509 23.7333 9.21751 24.3219 9.34359 24.8886C9.46967 25.4553 9.77378 25.9748 10.2176 26.3816C10.6615 26.7885 11.2253 27.0645 11.838 27.175C12.4507 27.2855 13.085 27.2255 13.661 27.0025C14.237 26.7796 14.729 26.4037 15.0751 25.9221C15.4211 25.4406 15.6058 24.8749 15.6058 24.2962C15.6 23.5144 15.26 22.7666 14.6602 22.2168C14.0604 21.6671 13.2499 21.3603 12.4065 21.3638ZM12.4065 25.9003C12.0658 25.8938 11.7347 25.7942 11.4547 25.614C11.1748 25.4338 10.9585 25.181 10.8329 24.8874C10.7074 24.5937 10.6781 24.2721 10.7489 23.9631C10.8197 23.6541 10.9873 23.3713 11.2307 23.1502C11.4742 22.9291 11.7826 22.7796 12.1173 22.7203C12.4521 22.6611 12.7983 22.6948 13.1125 22.8172C13.4266 22.9395 13.6949 23.1452 13.8835 23.4083C14.0721 23.6714 14.1727 23.9803 14.1727 24.2962C14.1674 24.7259 13.9784 25.136 13.6473 25.4367C13.3162 25.7374 12.87 25.9041 12.4065 25.9003Z"/>
</mask>
<path d="M12.4065 21.3638L12.3982 19.3638L12.3856 19.3639L12.4065 21.3638ZM15.6058 24.2962L17.6058 24.2962V24.2889L17.6057 24.2815L15.6058 24.2962ZM14.1727 24.2962L16.1726 24.321L16.1727 24.3086V24.2962L14.1727 24.2962ZM12.3856 19.3639C11.399 19.3742 10.4264 19.6543 9.5893 20.1839L11.7279 23.5642C11.922 23.4414 12.1656 23.3664 12.4273 23.3637L12.3856 19.3639ZM9.5893 20.1839C8.75101 20.7142 8.07683 21.4782 7.67591 22.3972L11.3423 23.9966C11.4093 23.8428 11.5351 23.6862 11.7279 23.5642L9.5893 20.1839ZM7.67591 22.3972C7.27399 23.3186 7.17244 24.3391 7.39132 25.323L11.2959 24.4543C11.2626 24.3047 11.2762 24.148 11.3423 23.9966L7.67591 22.3972ZM7.39132 25.323C7.60986 26.3052 8.1322 27.1832 8.86624 27.856L11.569 24.9073C11.4154 24.7664 11.3295 24.6054 11.2959 24.4543L7.39132 25.323ZM8.86624 27.856C9.59872 28.5274 10.5115 28.968 11.4831 29.1432L12.1929 25.2067C11.939 25.1609 11.7243 25.0495 11.569 24.9073L8.86624 27.856ZM11.4831 29.1432C12.4543 29.3184 13.4613 29.2244 14.3829 28.8677L12.9391 25.1373C12.7086 25.2265 12.4471 25.2525 12.1929 25.2067L11.4831 29.1432ZM14.3829 28.8677C15.3052 28.5107 16.1168 27.8997 16.6992 27.0892L13.4509 24.755C13.3412 24.9077 13.1689 25.0484 12.9391 25.1373L14.3829 28.8677ZM16.6992 27.0892C17.2831 26.2766 17.6058 25.3046 17.6058 24.2962L13.6058 24.2963C13.6058 24.4451 13.5591 24.6045 13.4509 24.755L16.6992 27.0892ZM17.6057 24.2815C17.5957 22.9192 17.0021 21.6504 16.0116 20.7425L13.3088 23.6912C13.5178 23.8828 13.6043 24.1095 13.6058 24.3109L17.6057 24.2815ZM16.0116 20.7425C15.0261 19.8392 13.7245 19.3583 12.3982 19.3638L12.4147 23.3638C12.7754 23.3623 13.0947 23.495 13.3088 23.6912L16.0116 20.7425ZM12.4445 23.9006C12.4654 23.901 12.4976 23.9068 12.5373 23.9323L10.3722 27.2957C10.9718 27.6817 11.6661 27.8866 12.3685 27.8999L12.4445 23.9006ZM12.5373 23.9323C12.5782 23.9587 12.6335 24.0114 12.6719 24.1011L8.99397 25.6736C9.28347 26.3507 9.77138 26.909 10.3722 27.2957L12.5373 23.9323ZM12.6719 24.1011C12.7113 24.1931 12.7228 24.303 12.6985 24.4095L8.79937 23.5167C8.63345 24.2413 8.70349 24.9942 8.99397 25.6736L12.6719 24.1011ZM12.6985 24.4095C12.6744 24.5144 12.6225 24.588 12.5753 24.6308L9.88612 21.6697C9.35209 22.1547 8.96491 22.7937 8.79937 23.5167L12.6985 24.4095ZM12.5753 24.6308C12.5297 24.6722 12.4894 24.6856 12.4659 24.6897L11.7688 20.7509C11.0758 20.8736 10.4186 21.1861 9.88612 21.6697L12.5753 24.6308ZM12.4659 24.6897C12.4531 24.692 12.4409 24.6924 12.4289 24.6912C12.417 24.6901 12.4028 24.6871 12.3865 24.6808L13.8384 20.9536C13.1796 20.6969 12.4615 20.6283 11.7688 20.7509L12.4659 24.6897ZM12.3865 24.6808C12.3553 24.6686 12.3049 24.639 12.258 24.5735L15.509 22.2431C15.0848 21.6514 14.498 21.2105 13.8384 20.9536L12.3865 24.6808ZM12.258 24.5735C12.2095 24.5059 12.1727 24.4093 12.1727 24.2962L16.1727 24.2962C16.1727 23.5514 15.9347 22.8369 15.509 22.2431L12.258 24.5735ZM12.1729 24.2715C12.1747 24.1208 12.2418 24.0115 12.3027 23.9562L14.9919 26.9173C15.7151 26.2606 16.16 25.331 16.1726 24.321L12.1729 24.2715ZM12.3027 23.9562C12.3319 23.9297 12.3583 23.916 12.3767 23.9092C12.395 23.9023 12.4105 23.9002 12.4232 23.9003L12.3898 27.9002C13.3361 27.9081 14.2739 27.5694 14.9919 26.9173L12.3027 23.9562Z" fill="url(#paint0_linear)" mask="url(#path-1-inside-1)"/>
<mask id="path-3-inside-2" fill="white">
<path d="M47.1057 21.4268C46.4816 21.4334 45.8736 21.611 45.3582 21.9372C44.8428 22.2634 44.443 22.7237 44.2092 23.2601C43.9754 23.7964 43.9179 24.3849 44.0441 24.9515C44.1702 25.5181 44.4744 26.0374 44.9183 26.444C45.3621 26.8507 45.9258 27.1266 46.5385 27.237C47.1511 27.3473 47.7852 27.2872 48.3611 27.0642C48.937 26.8412 49.4288 26.4653 49.7747 25.9838C50.1206 25.5023 50.3051 24.9366 50.3049 24.3581C50.299 23.5764 49.9589 22.8288 49.3591 22.2793C48.7594 21.7297 47.949 21.4232 47.1057 21.4268ZM47.1057 25.9622C46.7651 25.9556 46.4342 25.856 46.1545 25.6758C45.8748 25.4956 45.6586 25.2429 45.5332 24.9493C45.4077 24.6558 45.3785 24.3344 45.4493 24.0255C45.5201 23.7167 45.6876 23.434 45.9309 23.2131C46.1742 22.9921 46.4825 22.8426 46.8171 22.7834C47.1517 22.7241 47.4977 22.7577 47.8117 22.88C48.1258 23.0023 48.3939 23.2078 48.5825 23.4707C48.7711 23.7337 48.8718 24.0424 48.8719 24.3581C48.8666 24.7878 48.6776 25.1979 48.3465 25.4986C48.0154 25.7993 47.5692 25.966 47.1057 25.9622Z"/>
</mask>
<path d="M50.3049 24.3581L52.3049 24.3577L52.3049 24.3504L52.3049 24.343L50.3049 24.3581ZM48.8719 24.3581L50.8717 24.3829L50.8719 24.3701L50.8719 24.3574L48.8719 24.3581ZM47.0845 19.4269C46.098 19.4374 45.1255 19.7176 44.2886 20.2473L46.4279 23.6272C46.6218 23.5044 46.8652 23.4295 47.1269 23.4267L47.0845 19.4269ZM44.2886 20.2473C43.4505 20.7777 42.7766 21.5417 42.3759 22.4608L46.0425 24.0593C46.1095 23.9057 46.2351 23.7491 46.4279 23.6272L44.2886 20.2473ZM42.3759 22.4608C41.9742 23.3821 41.8728 24.4025 42.0919 25.3862L45.9963 24.5167C45.963 24.3673 45.9765 24.2107 46.0425 24.0593L42.3759 22.4608ZM42.0919 25.3862C42.3106 26.3683 42.8331 27.2461 43.5671 27.9187L46.2694 24.9694C46.1157 24.8287 46.0299 24.6678 45.9963 24.5167L42.0919 25.3862ZM43.5671 27.9187C44.2997 28.5898 45.2124 29.0303 46.1839 29.2053L46.893 25.2686C46.6392 25.2229 46.4246 25.1116 46.2694 24.9694L43.5671 27.9187ZM46.1839 29.2053C47.1551 29.3802 48.1619 29.2861 49.0833 28.9293L47.6389 25.1992C47.4085 25.2884 47.1471 25.3144 46.893 25.2686L46.1839 29.2053ZM49.0833 28.9293C50.0054 28.5722 50.8169 27.9611 51.399 27.1506L48.1503 24.817C48.0407 24.9696 47.8685 25.1103 47.6389 25.1992L49.0833 28.9293ZM51.399 27.1506C51.9828 26.338 52.3052 25.366 52.3049 24.3577L48.3049 24.3585C48.305 24.5072 48.2584 24.6665 48.1503 24.817L51.399 27.1506ZM52.3049 24.343C52.2946 22.9809 51.7008 21.7123 50.7102 20.8047L48.008 23.7539C48.217 23.9453 48.3035 24.172 48.305 24.3732L52.3049 24.343ZM50.7102 20.8047C49.7247 19.9017 48.4232 19.4211 47.0971 19.4268L47.1143 23.4268C47.4747 23.4252 47.794 23.5578 48.008 23.7539L50.7102 20.8047ZM47.1443 23.9625C47.1654 23.9629 47.1976 23.9687 47.2375 23.9944L45.0715 27.3572C45.6708 27.7432 46.3648 27.9482 47.067 27.9618L47.1443 23.9625ZM47.2375 23.9944C47.2785 24.0208 47.3339 24.0736 47.3723 24.1634L43.694 25.7352C43.9833 26.4122 44.471 26.9704 45.0715 27.3572L47.2375 23.9944ZM47.3723 24.1634C47.4117 24.2556 47.4232 24.3655 47.3988 24.4721L43.4998 23.5789C43.3339 24.3033 43.4038 25.056 43.694 25.7352L47.3723 24.1634ZM47.3988 24.4721C47.3748 24.5771 47.3227 24.6507 47.2755 24.6936L44.5863 21.7325C44.0525 22.2173 43.6654 22.8562 43.4998 23.5789L47.3988 24.4721ZM47.2755 24.6936C47.2298 24.7351 47.1894 24.7485 47.1658 24.7527L46.4684 20.814C45.7756 20.9367 45.1186 21.2491 44.5863 21.7325L47.2755 24.6936ZM47.1658 24.7527C47.1529 24.755 47.1407 24.7554 47.1287 24.7542C47.1167 24.7531 47.1024 24.7501 47.0861 24.7437L48.5374 21.0163C47.8787 20.7598 47.1608 20.6914 46.4684 20.814L47.1658 24.7527ZM47.0861 24.7437C47.0548 24.7315 47.0043 24.7019 46.9573 24.6364L50.2077 22.3051C49.7835 21.7137 49.1968 21.273 48.5374 21.0163L47.0861 24.7437ZM46.9573 24.6364C46.9088 24.5687 46.8719 24.472 46.8719 24.3589L50.8719 24.3574C50.8716 23.6127 50.6334 22.8986 50.2077 22.3051L46.9573 24.6364ZM46.872 24.3333C46.8739 24.1827 46.941 24.0734 47.0019 24.0181L49.6911 26.9792C50.4143 26.3225 50.8592 25.3929 50.8717 24.3829L46.872 24.3333ZM47.0019 24.0181C47.0311 23.9916 47.0575 23.9779 47.0759 23.9711C47.0942 23.9642 47.1097 23.9621 47.1224 23.9622L47.089 27.9621C48.0353 27.97 48.973 27.6313 49.6911 26.9792L47.0019 24.0181Z" fill="url(#paint1_linear)" mask="url(#path-3-inside-2)"/>
<mask id="path-5-inside-3" fill="white">
<path d="M58.9336 7.85016L53.0403 1.95108C52.6168 1.52447 52.1058 1.18033 51.5373 0.938735C50.9688 0.697145 50.354 0.562949 49.7289 0.543979L33.329 0C33.3204 0 33.3119 0 33.3033 0C33.0238 0 32.7428 0.00464945 32.4682 0.0137268C30.5597 0.0826017 28.6653 0.347087 26.8196 0.802352C25.4507 1.13915 24.1086 1.56326 22.8028 2.07164C16.6572 4.45312 12.4432 8.07643 11.6542 8.78458L5.55505 10.5244C4.20192 10.801 2.99132 11.4977 2.12383 12.4993C1.25634 13.5009 0.784028 14.7471 0.785158 16.0315V23.6123C0.785379 23.9203 0.917395 24.2156 1.15224 24.4335C1.38709 24.6515 1.70559 24.7741 2.03788 24.7746H6.34489C6.47364 26.1827 7.16803 27.4947 8.2906 28.4508C9.41316 29.4069 10.8821 29.9375 12.4066 29.9375C13.931 29.9375 15.3999 29.4069 16.5225 28.4508C17.6451 27.4947 18.3395 26.1827 18.4682 24.7746H41.0397C41.1546 26.2234 41.8682 27.5753 43.0319 28.5483C44.1956 29.5213 45.7195 30.0405 47.286 29.9975C48.8525 29.9546 50.3406 29.3528 51.4402 28.3177C52.5398 27.2826 53.1659 25.894 53.1881 24.4414H58.9442C59.2763 24.4411 59.5948 24.3187 59.8297 24.101C60.0645 23.8832 60.1966 23.588 60.1969 23.2802V10.8375C60.1965 9.72983 59.7454 8.66304 58.9337 7.85016H58.9336ZM45.5284 1.734L49.6778 1.87149C50.114 1.88474 50.5431 1.9784 50.9399 2.147C51.3366 2.31561 51.6932 2.55578 51.9888 2.85351L57.8827 8.75314C57.9104 8.78082 57.9345 8.81082 57.961 8.83938H45.5284V1.734ZM33.2102 1.32906C33.237 1.32906 33.2639 1.3284 33.2908 1.3284L44.0954 1.68651V8.83938H33.2102V1.32906ZM4.61079 12.2633H5.48256V13.1987C5.48221 13.5002 5.3528 13.7893 5.12275 14.0025C4.89269 14.2156 4.58079 14.3354 4.25551 14.3356H2.59259C2.99658 13.4552 3.70713 12.7256 4.61079 12.2633ZM2.2182 17.6965H5.07951V20.764H2.2182V17.6965ZM12.406 28.6092C11.1726 28.6078 9.99023 28.1529 9.11823 27.3444C8.24622 26.5358 7.7558 25.4397 7.75453 24.2964C7.75453 24.2437 7.75561 24.1909 7.75764 24.1385C7.80183 23.0233 8.31065 21.9675 9.17716 21.1928C10.0437 20.4181 11.2004 19.985 12.4043 19.9844C13.6081 19.9838 14.7653 20.4159 15.6327 21.1897C16.5 21.9636 17.01 23.019 17.0555 24.1341C17.0575 24.1882 17.0585 24.2423 17.0586 24.2964C17.0573 25.4399 16.5667 26.5362 15.6945 27.3447C14.8222 28.1533 13.6395 28.6081 12.406 28.6092ZM47.1059 28.6712C45.8726 28.6698 44.6902 28.2149 43.8182 27.4063C42.9462 26.5978 42.4558 25.5017 42.4545 24.3584C42.4545 24.2873 42.4565 24.2163 42.4608 24.1427C42.5192 23.0626 43.0132 22.0423 43.8451 21.284C44.6769 20.5258 45.7857 20.0849 46.9517 20.049C48.1177 20.013 49.2557 20.3845 50.1401 21.0898C51.0245 21.7952 51.5906 22.7828 51.7263 23.8569V23.8577C51.8018 24.462 51.7386 25.0743 51.5409 25.6544C51.3432 26.2345 51.0155 26.7693 50.5792 27.2238C50.143 27.6783 49.608 28.0422 49.0095 28.2916C48.4109 28.5411 47.7622 28.6704 47.1059 28.6712ZM58.7638 23.113H55.3304V20.5082C55.3309 20.2316 55.4497 19.9665 55.6609 19.771C55.872 19.5755 56.1581 19.4656 56.4566 19.4654H58.7638V23.113ZM58.7638 14.3356H57.4871C57.162 14.3353 56.8502 14.2154 56.6203 14.0023C56.3904 13.7891 56.2611 13.5002 56.2607 13.1987V12.2633H58.7638V14.3356ZM58.7638 10.9349H55.5442C55.3541 10.9349 55.1719 11.0049 55.0375 11.1295C54.9031 11.254 54.8277 11.423 54.8277 11.5991V13.1987C54.8286 13.8523 55.1091 14.4788 55.6077 14.941C56.1062 15.4031 56.7821 15.6631 57.4871 15.664H58.7638V18.137H56.4566C55.7782 18.1376 55.1278 18.3876 54.6481 18.8321C54.1683 19.2767 53.8983 19.8794 53.8974 20.5082V23.113H53.0404C52.7287 21.8367 51.948 20.7007 50.832 19.8994C49.716 19.0981 48.3341 18.6814 46.9231 18.7208C45.5121 18.7602 44.1598 19.2531 43.0978 20.1152C42.0358 20.9773 41.3302 22.1549 41.102 23.4462H33.2102V20.4795C33.2102 20.3033 33.1347 20.1344 33.0003 20.0098C32.8659 19.8852 32.6837 19.8153 32.4937 19.8153C32.3036 19.8153 32.1214 19.8852 31.987 20.0098C31.8526 20.1344 31.7771 20.3033 31.7771 20.4795V23.4462H18.422C18.2026 22.113 17.4752 20.8968 16.3717 20.018C15.2681 19.1392 13.8614 18.656 12.4065 18.656C10.9516 18.656 9.5449 19.1392 8.44132 20.018C7.33774 20.8968 6.61035 22.113 6.39099 23.4462H2.2182V22.0924H5.31836C5.63497 22.092 5.93852 21.9753 6.1624 21.7678C6.38628 21.5602 6.51221 21.2788 6.51256 20.9854V17.4751C6.51221 17.1816 6.38628 16.9002 6.1624 16.6927C5.93852 16.4851 5.63497 16.3684 5.31836 16.3681H2.2182V16.0315C2.2182 15.9086 2.22525 15.786 2.23635 15.664H4.25551C4.96056 15.6631 5.63647 15.4031 6.13501 14.941C6.63356 14.4788 6.91406 13.8523 6.91501 13.1987V11.5991C6.91496 11.5752 6.91353 11.5514 6.91071 11.5276L11.6781 10.1678H17.5936C17.7836 10.1678 17.9659 10.0978 18.1002 9.97323C18.2346 9.84867 18.3101 9.67973 18.3101 9.50358C18.3101 9.32742 18.2346 9.15848 18.1002 9.03392C17.9659 8.90935 17.7836 8.83938 17.5936 8.83938H13.7318C15.446 7.48087 18.8986 5.02455 23.3563 3.29719C24.6009 2.81248 25.8802 2.40812 27.1849 2.08702C28.6883 1.71763 30.2258 1.48042 31.7771 1.37854V8.83971H20.3402C20.1502 8.83971 19.968 8.90969 19.8336 9.03425C19.6992 9.15881 19.6237 9.32775 19.6237 9.50391C19.6237 9.68006 19.6992 9.849 19.8336 9.97357C19.968 10.0981 20.1502 10.1681 20.3402 10.1681H31.7771V18.0441C31.7771 18.2202 31.8526 18.3892 31.987 18.5137C32.1214 18.6383 32.3036 18.7083 32.4937 18.7083C32.6837 18.7083 32.8659 18.6383 33.0003 18.5137C33.1347 18.3892 33.2102 18.2202 33.2102 18.0441V10.1678H58.6835C58.7368 10.3876 58.7637 10.6122 58.7638 10.8375V10.9349Z"/>
</mask>
<path d="M58.9336 7.85016L53.0403 1.95108C52.6168 1.52447 52.1058 1.18033 51.5373 0.938735C50.9688 0.697145 50.354 0.562949 49.7289 0.543979L33.329 0C33.3204 0 33.3119 0 33.3033 0C33.0238 0 32.7428 0.00464945 32.4682 0.0137268C30.5597 0.0826017 28.6653 0.347087 26.8196 0.802352C25.4507 1.13915 24.1086 1.56326 22.8028 2.07164C16.6572 4.45312 12.4432 8.07643 11.6542 8.78458L5.55505 10.5244C4.20192 10.801 2.99132 11.4977 2.12383 12.4993C1.25634 13.5009 0.784028 14.7471 0.785158 16.0315V23.6123C0.785379 23.9203 0.917395 24.2156 1.15224 24.4335C1.38709 24.6515 1.70559 24.7741 2.03788 24.7746H6.34489C6.47364 26.1827 7.16803 27.4947 8.2906 28.4508C9.41316 29.4069 10.8821 29.9375 12.4066 29.9375C13.931 29.9375 15.3999 29.4069 16.5225 28.4508C17.6451 27.4947 18.3395 26.1827 18.4682 24.7746H41.0397C41.1546 26.2234 41.8682 27.5753 43.0319 28.5483C44.1956 29.5213 45.7195 30.0405 47.286 29.9975C48.8525 29.9546 50.3406 29.3528 51.4402 28.3177C52.5398 27.2826 53.1659 25.894 53.1881 24.4414H58.9442C59.2763 24.4411 59.5948 24.3187 59.8297 24.101C60.0645 23.8832 60.1966 23.588 60.1969 23.2802V10.8375C60.1965 9.72983 59.7454 8.66304 58.9337 7.85016H58.9336ZM45.5284 1.734L49.6778 1.87149C50.114 1.88474 50.5431 1.9784 50.9399 2.147C51.3366 2.31561 51.6932 2.55578 51.9888 2.85351L57.8827 8.75314C57.9104 8.78082 57.9345 8.81082 57.961 8.83938H45.5284V1.734ZM33.2102 1.32906C33.237 1.32906 33.2639 1.3284 33.2908 1.3284L44.0954 1.68651V8.83938H33.2102V1.32906ZM4.61079 12.2633H5.48256V13.1987C5.48221 13.5002 5.3528 13.7893 5.12275 14.0025C4.89269 14.2156 4.58079 14.3354 4.25551 14.3356H2.59259C2.99658 13.4552 3.70713 12.7256 4.61079 12.2633ZM2.2182 17.6965H5.07951V20.764H2.2182V17.6965ZM12.406 28.6092C11.1726 28.6078 9.99023 28.1529 9.11823 27.3444C8.24622 26.5358 7.7558 25.4397 7.75453 24.2964C7.75453 24.2437 7.75561 24.1909 7.75764 24.1385C7.80183 23.0233 8.31065 21.9675 9.17716 21.1928C10.0437 20.4181 11.2004 19.985 12.4043 19.9844C13.6081 19.9838 14.7653 20.4159 15.6327 21.1897C16.5 21.9636 17.01 23.019 17.0555 24.1341C17.0575 24.1882 17.0585 24.2423 17.0586 24.2964C17.0573 25.4399 16.5667 26.5362 15.6945 27.3447C14.8222 28.1533 13.6395 28.6081 12.406 28.6092ZM47.1059 28.6712C45.8726 28.6698 44.6902 28.2149 43.8182 27.4063C42.9462 26.5978 42.4558 25.5017 42.4545 24.3584C42.4545 24.2873 42.4565 24.2163 42.4608 24.1427C42.5192 23.0626 43.0132 22.0423 43.8451 21.284C44.6769 20.5258 45.7857 20.0849 46.9517 20.049C48.1177 20.013 49.2557 20.3845 50.1401 21.0898C51.0245 21.7952 51.5906 22.7828 51.7263 23.8569V23.8577C51.8018 24.462 51.7386 25.0743 51.5409 25.6544C51.3432 26.2345 51.0155 26.7693 50.5792 27.2238C50.143 27.6783 49.608 28.0422 49.0095 28.2916C48.4109 28.5411 47.7622 28.6704 47.1059 28.6712ZM58.7638 23.113H55.3304V20.5082C55.3309 20.2316 55.4497 19.9665 55.6609 19.771C55.872 19.5755 56.1581 19.4656 56.4566 19.4654H58.7638V23.113ZM58.7638 14.3356H57.4871C57.162 14.3353 56.8502 14.2154 56.6203 14.0023C56.3904 13.7891 56.2611 13.5002 56.2607 13.1987V12.2633H58.7638V14.3356ZM58.7638 10.9349H55.5442C55.3541 10.9349 55.1719 11.0049 55.0375 11.1295C54.9031 11.254 54.8277 11.423 54.8277 11.5991V13.1987C54.8286 13.8523 55.1091 14.4788 55.6077 14.941C56.1062 15.4031 56.7821 15.6631 57.4871 15.664H58.7638V18.137H56.4566C55.7782 18.1376 55.1278 18.3876 54.6481 18.8321C54.1683 19.2767 53.8983 19.8794 53.8974 20.5082V23.113H53.0404C52.7287 21.8367 51.948 20.7007 50.832 19.8994C49.716 19.0981 48.3341 18.6814 46.9231 18.7208C45.5121 18.7602 44.1598 19.2531 43.0978 20.1152C42.0358 20.9773 41.3302 22.1549 41.102 23.4462H33.2102V20.4795C33.2102 20.3033 33.1347 20.1344 33.0003 20.0098C32.8659 19.8852 32.6837 19.8153 32.4937 19.8153C32.3036 19.8153 32.1214 19.8852 31.987 20.0098C31.8526 20.1344 31.7771 20.3033 31.7771 20.4795V23.4462H18.422C18.2026 22.113 17.4752 20.8968 16.3717 20.018C15.2681 19.1392 13.8614 18.656 12.4065 18.656C10.9516 18.656 9.5449 19.1392 8.44132 20.018C7.33774 20.8968 6.61035 22.113 6.39099 23.4462H2.2182V22.0924H5.31836C5.63497 22.092 5.93852 21.9753 6.1624 21.7678C6.38628 21.5602 6.51221 21.2788 6.51256 20.9854V17.4751C6.51221 17.1816 6.38628 16.9002 6.1624 16.6927C5.93852 16.4851 5.63497 16.3684 5.31836 16.3681H2.2182V16.0315C2.2182 15.9086 2.22525 15.786 2.23635 15.664H4.25551C4.96056 15.6631 5.63647 15.4031 6.13501 14.941C6.63356 14.4788 6.91406 13.8523 6.91501 13.1987V11.5991C6.91496 11.5752 6.91353 11.5514 6.91071 11.5276L11.6781 10.1678H17.5936C17.7836 10.1678 17.9659 10.0978 18.1002 9.97323C18.2346 9.84867 18.3101 9.67973 18.3101 9.50358C18.3101 9.32742 18.2346 9.15848 18.1002 9.03392C17.9659 8.90935 17.7836 8.83938 17.5936 8.83938H13.7318C15.446 7.48087 18.8986 5.02455 23.3563 3.29719C24.6009 2.81248 25.8802 2.40812 27.1849 2.08702C28.6883 1.71763 30.2258 1.48042 31.7771 1.37854V8.83971H20.3402C20.1502 8.83971 19.968 8.90969 19.8336 9.03425C19.6992 9.15881 19.6237 9.32775 19.6237 9.50391C19.6237 9.68006 19.6992 9.849 19.8336 9.97357C19.968 10.0981 20.1502 10.1681 20.3402 10.1681H31.7771V18.0441C31.7771 18.2202 31.8526 18.3892 31.987 18.5137C32.1214 18.6383 32.3036 18.7083 32.4937 18.7083C32.6837 18.7083 32.8659 18.6383 33.0003 18.5137C33.1347 18.3892 33.2102 18.2202 33.2102 18.0441V10.1678H58.6835C58.7368 10.3876 58.7637 10.6122 58.7638 10.8375V10.9349Z" stroke="url(#paint2_linear)" stroke-width="4" mask="url(#path-5-inside-3)"/>
<mask id="path-6-inside-4" fill="white">
<path d="M24.7948 13.0281H28.1111C28.3012 13.0281 28.4834 12.9581 28.6178 12.8336C28.7522 12.709 28.8277 12.5401 28.8277 12.3639C28.8277 12.1877 28.7522 12.0188 28.6178 11.8942C28.4834 11.7697 28.3012 11.6997 28.1111 11.6997H24.7948C24.6048 11.6997 24.4225 11.7697 24.2882 11.8942C24.1538 12.0188 24.0783 12.1877 24.0783 12.3639C24.0783 12.5401 24.1538 12.709 24.2882 12.8336C24.4225 12.9581 24.6048 13.0281 24.7948 13.0281Z"/>
</mask>
<path d="M24.7948 15.0281H28.1111V11.0281H24.7948V15.0281ZM28.1111 15.0281C28.7847 15.0281 29.4584 14.7815 29.9774 14.3003L27.2581 11.3668C27.5085 11.1348 27.8176 11.0281 28.1111 11.0281V15.0281ZM29.9774 14.3003C30.5016 13.8144 30.8277 13.1215 30.8277 12.3639H26.8277C26.8277 11.9586 27.0027 11.6036 27.2581 11.3668L29.9774 14.3003ZM30.8277 12.3639C30.8277 11.6063 30.5016 10.9134 29.9774 10.4275L27.2581 13.361C27.0027 13.1242 26.8277 12.7692 26.8277 12.3639H30.8277ZM29.9774 10.4275C29.4584 9.94634 28.7847 9.69971 28.1111 9.69971V13.6997C27.8176 13.6997 27.5085 13.593 27.2581 13.361L29.9774 10.4275ZM28.1111 9.69971H24.7948V13.6997H28.1111V9.69971ZM24.7948 9.69971C24.1212 9.69971 23.4476 9.94634 22.9285 10.4275L25.6478 13.361C25.3975 13.593 25.0883 13.6997 24.7948 13.6997V9.69971ZM22.9285 10.4275C22.4044 10.9134 22.0783 11.6063 22.0783 12.3639H26.0783C26.0783 12.7692 25.9032 13.1242 25.6478 13.361L22.9285 10.4275ZM22.0783 12.3639C22.0783 13.1215 22.4044 13.8144 22.9285 14.3003L25.6478 11.3668C25.9032 11.6036 26.0783 11.9586 26.0783 12.3639H22.0783ZM22.9285 14.3003C23.4476 14.7815 24.1212 15.0281 24.7948 15.0281V11.0281C25.0883 11.0281 25.3975 11.1348 25.6478 11.3668L22.9285 14.3003Z" fill="url(#paint3_linear)" mask="url(#path-6-inside-4)"/>
<path d="M39.1223 12.9775L38.8962 12.3889L39.1223 12.9775Z" stroke="url(#paint4_linear)" stroke-width="2"/>
<mask id="path-9-inside-5" fill="white">
<path d="M51.6368 15.811H49.5171C49.3271 15.811 49.1448 15.881 49.0105 16.0056C48.8761 16.1301 48.8006 16.2991 48.8006 16.4752C48.8006 16.6514 48.8761 16.8203 49.0105 16.9449C49.1448 17.0695 49.3271 17.1394 49.5171 17.1394H51.6368C51.8269 17.1394 52.0091 17.0695 52.1435 16.9449C52.2779 16.8203 52.3534 16.6514 52.3534 16.4752C52.3534 16.2991 52.2779 16.1301 52.1435 16.0056C52.0091 15.881 51.8269 15.811 51.6368 15.811Z"/>
</mask>
<path d="M51.6368 13.811H49.5171V17.811H51.6368V13.811ZM49.5171 13.811C48.8435 13.811 48.1699 14.0577 47.6508 14.5388L50.3701 17.4723C50.1198 17.7043 49.8107 17.811 49.5171 17.811V13.811ZM47.6508 14.5388C47.1267 15.0247 46.8006 15.7176 46.8006 16.4752H50.8006C50.8006 16.8806 50.6255 17.2356 50.3701 17.4723L47.6508 14.5388ZM46.8006 16.4752C46.8006 17.2329 47.1267 17.9258 47.6508 18.4116L50.3701 15.4781C50.6255 15.7149 50.8006 16.0699 50.8006 16.4752H46.8006ZM47.6508 18.4116C48.1699 18.8928 48.8435 19.1394 49.5171 19.1394V15.1394C49.8106 15.1394 50.1198 15.2461 50.3701 15.4781L47.6508 18.4116ZM49.5171 19.1394H51.6368V15.1394H49.5171V19.1394ZM51.6368 19.1394C52.3104 19.1394 52.9841 18.8928 53.5031 18.4116L50.7838 15.4781C51.0342 15.2461 51.3433 15.1394 51.6368 15.1394V19.1394ZM53.5031 18.4116C54.0273 17.9258 54.3534 17.2329 54.3534 16.4752H50.3534C50.3534 16.0699 50.5284 15.7149 50.7838 15.4781L53.5031 18.4116ZM54.3534 16.4752C54.3534 15.7176 54.0273 15.0247 53.5031 14.5388L50.7838 17.4723C50.5284 17.2356 50.3534 16.8806 50.3534 16.4752H54.3534ZM53.5031 14.5388C52.9841 14.0577 52.3104 13.811 51.6368 13.811V17.811C51.3433 17.811 51.0341 17.7043 50.7838 17.4723L53.5031 14.5388Z" fill="url(#paint5_linear)" mask="url(#path-9-inside-5)"/>
<mask id="path-11-inside-6" fill="white">
<path d="M45.7364 15.811H36.9781C36.788 15.811 36.6058 15.881 36.4714 16.0056C36.337 16.1301 36.2615 16.2991 36.2615 16.4752C36.2615 16.6514 36.337 16.8203 36.4714 16.9449C36.6058 17.0695 36.788 17.1394 36.9781 17.1394H45.7364C45.9264 17.1394 46.1086 17.0695 46.243 16.9449C46.3774 16.8203 46.4529 16.6514 46.4529 16.4752C46.4529 16.2991 46.3774 16.1301 46.243 16.0056C46.1086 15.881 45.9264 15.811 45.7364 15.811Z"/>
</mask>
<path d="M45.7364 13.811H36.9781V17.811H45.7364V13.811ZM36.9781 13.811C36.3044 13.811 35.6308 14.0577 35.1118 14.5388L37.831 17.4723C37.5808 17.7043 37.2716 17.811 36.9781 17.811V13.811ZM35.1118 14.5388C34.5876 15.0247 34.2615 15.7176 34.2615 16.4752H38.2615C38.2615 16.8806 38.0864 17.2356 37.831 17.4723L35.1118 14.5388ZM34.2615 16.4752C34.2615 17.2329 34.5876 17.9258 35.1118 18.4116L37.831 15.4781C38.0864 15.7149 38.2615 16.0699 38.2615 16.4752H34.2615ZM35.1118 18.4116C35.6308 18.8928 36.3045 19.1394 36.9781 19.1394V15.1394C37.2716 15.1394 37.5807 15.2461 37.831 15.4781L35.1118 18.4116ZM36.9781 19.1394H45.7364V15.1394H36.9781V19.1394ZM45.7364 19.1394C46.4099 19.1394 47.0836 18.8928 47.6027 18.4116L44.8834 15.4781C45.1337 15.2461 45.4428 15.1394 45.7364 15.1394V19.1394ZM47.6027 18.4116C48.1268 17.9258 48.4529 17.2329 48.4529 16.4752H44.4529C44.4529 16.0699 44.628 15.7149 44.8834 15.4781L47.6027 18.4116ZM48.4529 16.4752C48.4529 15.7176 48.1268 15.0247 47.6027 14.5388L44.8834 17.4723C44.628 17.2356 44.4529 16.8806 44.4529 16.4752H48.4529ZM47.6027 14.5388C47.0836 14.0577 46.41 13.811 45.7364 13.811V17.811C45.4428 17.811 45.1336 17.7043 44.8834 17.4723L47.6027 14.5388Z" fill="url(#paint6_linear)" mask="url(#path-11-inside-6)"/>
<mask id="path-13-inside-7" fill="white">
<path d="M29.0582 15.811H18.2709C18.0809 15.811 17.8987 15.881 17.7643 16.0056C17.6299 16.1301 17.5544 16.2991 17.5544 16.4752C17.5544 16.6514 17.6299 16.8203 17.7643 16.9449C17.8987 17.0695 18.0809 17.1394 18.2709 17.1394H29.0582C29.2482 17.1394 29.4305 17.0695 29.5648 16.9449C29.6992 16.8203 29.7747 16.6514 29.7747 16.4752C29.7747 16.2991 29.6992 16.1301 29.5648 16.0056C29.4305 15.881 29.2482 15.811 29.0582 15.811Z"/>
</mask>
<path d="M29.0582 13.811H18.2709V17.811H29.0582V13.811ZM18.2709 13.811C17.5973 13.811 16.9237 14.0577 16.4046 14.5388L19.1239 17.4723C18.8736 17.7043 18.5645 17.811 18.2709 17.811V13.811ZM16.4046 14.5388C15.8805 15.0247 15.5544 15.7176 15.5544 16.4752H19.5544C19.5544 16.8806 19.3793 17.2356 19.1239 17.4723L16.4046 14.5388ZM15.5544 16.4752C15.5544 17.2329 15.8805 17.9258 16.4046 18.4116L19.1239 15.4781C19.3793 15.7149 19.5544 16.0699 19.5544 16.4752H15.5544ZM16.4046 18.4116C16.9237 18.8928 17.5974 19.1394 18.2709 19.1394V15.1394C18.5645 15.1394 18.8736 15.2461 19.1239 15.4781L16.4046 18.4116ZM18.2709 19.1394H29.0582V15.1394H18.2709V19.1394ZM29.0582 19.1394C29.7318 19.1394 30.4054 18.8928 30.9245 18.4116L28.2052 15.4781C28.4555 15.2461 28.7647 15.1394 29.0582 15.1394V19.1394ZM30.9245 18.4116C31.4486 17.9258 31.7747 17.2329 31.7747 16.4752H27.7747C27.7747 16.0699 27.9498 15.7149 28.2052 15.4781L30.9245 18.4116ZM31.7747 16.4752C31.7747 15.7176 31.4486 15.0247 30.9245 14.5388L28.2052 17.4723C27.9498 17.2356 27.7747 16.8806 27.7747 16.4752H31.7747ZM30.9245 14.5388C30.4054 14.0577 29.7318 13.811 29.0582 13.811V17.811C28.7646 17.811 28.4555 17.7043 28.2052 17.4723L30.9245 14.5388Z" fill="url(#paint7_linear)" mask="url(#path-13-inside-7)"/>
<mask id="path-15-inside-8" fill="white">
<path d="M16.12 15.811H15.204C15.014 15.811 14.8318 15.881 14.6974 16.0056C14.563 16.1301 14.4875 16.2991 14.4875 16.4752C14.4875 16.6514 14.563 16.8203 14.6974 16.9449C14.8318 17.0695 15.014 17.1394 15.204 17.1394H16.12C16.31 17.1394 16.4923 17.0695 16.6267 16.9449C16.761 16.8203 16.8365 16.6514 16.8365 16.4752C16.8365 16.2991 16.761 16.1301 16.6267 16.0056C16.4923 15.881 16.31 15.811 16.12 15.811Z"/>
</mask>
<path d="M16.12 13.811H15.204V17.811H16.12V13.811ZM15.204 13.811C14.5304 13.811 13.8568 14.0577 13.3377 14.5388L16.057 17.4723C15.8067 17.7043 15.4976 17.811 15.204 17.811V13.811ZM13.3377 14.5388C12.8136 15.0247 12.4875 15.7176 12.4875 16.4752H16.4875C16.4875 16.8806 16.3124 17.2356 16.057 17.4723L13.3377 14.5388ZM12.4875 16.4752C12.4875 17.2329 12.8136 17.9258 13.3377 18.4116L16.057 15.4781C16.3124 15.7149 16.4875 16.0699 16.4875 16.4752H12.4875ZM13.3377 18.4116C13.8568 18.8928 14.5305 19.1394 15.204 19.1394V15.1394C15.4976 15.1394 15.8067 15.2461 16.057 15.4781L13.3377 18.4116ZM15.204 19.1394H16.12V15.1394H15.204V19.1394ZM16.12 19.1394C16.7936 19.1394 17.4672 18.8928 17.9863 18.4116L15.267 15.4781C15.5173 15.2461 15.8265 15.1394 16.12 15.1394V19.1394ZM17.9863 18.4116C18.5105 17.9258 18.8365 17.2329 18.8365 16.4752H14.8365C14.8365 16.0699 15.0116 15.7149 15.267 15.4781L17.9863 18.4116ZM18.8365 16.4752C18.8365 15.7176 18.5105 15.0247 17.9863 14.5388L15.267 17.4723C15.0116 17.2356 14.8365 16.8806 14.8365 16.4752H18.8365ZM17.9863 14.5388C17.4673 14.0577 16.7936 13.811 16.12 13.811V17.811C15.8265 17.811 15.5173 17.7043 15.267 17.4723L17.9863 14.5388Z" fill="url(#paint8_linear)" mask="url(#path-15-inside-8)"/>
<defs>
<linearGradient id="paint0_linear" x1="10.3206" y1="22.2708" x2="12.9346" y2="27.3983" gradientUnits="userSpaceOnUse">
<stop stop-color="#FF2D2D"/>
<stop offset="1" stop-color="#0085FA"/>
</linearGradient>
<linearGradient id="paint1_linear" x1="45.0208" y1="22.3337" x2="47.6343" y2="27.4601" gradientUnits="userSpaceOnUse">
<stop stop-color="#FF2D2D"/>
<stop offset="1" stop-color="#0085FA"/>
</linearGradient>
<linearGradient id="paint2_linear" x1="10.5714" y1="4.6396" x2="19.0906" y2="35.3165" gradientUnits="userSpaceOnUse">
<stop stop-color="#FF2D2D"/>
<stop offset="1" stop-color="#0085FA"/>
</linearGradient>
<linearGradient id="paint3_linear" x1="24.8606" y1="11.9051" x2="25.0805" y2="13.3345" gradientUnits="userSpaceOnUse">
<stop stop-color="#FF2D2D"/>
<stop offset="1" stop-color="#0085FA"/>
</linearGradient>
<linearGradient id="paint4_linear" x1="35.5976" y1="11.9051" x2="35.8174" y2="13.3345" gradientUnits="userSpaceOnUse">
<stop stop-color="#FF2D2D"/>
<stop offset="1" stop-color="#0085FA"/>
</linearGradient>
<linearGradient id="paint5_linear" x1="49.3858" y1="16.0165" x2="49.6745" y2="17.4202" gradientUnits="userSpaceOnUse">
<stop stop-color="#FF2D2D"/>
<stop offset="1" stop-color="#0085FA"/>
</linearGradient>
<linearGradient id="paint6_linear" x1="37.9402" y1="16.0165" x2="38.0446" y2="17.4721" gradientUnits="userSpaceOnUse">
<stop stop-color="#FF2D2D"/>
<stop offset="1" stop-color="#0085FA"/>
</linearGradient>
<linearGradient id="paint7_linear" x1="19.5673" y1="16.0165" x2="19.6545" y2="17.4744" gradientUnits="userSpaceOnUse">
<stop stop-color="#FF2D2D"/>
<stop offset="1" stop-color="#0085FA"/>
</linearGradient>
<linearGradient id="paint8_linear" x1="14.8744" y1="16.0165" x2="15.2894" y2="17.3506" gradientUnits="userSpaceOnUse">
<stop stop-color="#FF2D2D"/>
<stop offset="1" stop-color="#0085FA"/>
</linearGradient>
</defs>
</svg>
