<svg width="50" height="47" viewBox="0 0 50 47" fill="none" xmlns="http://www.w3.org/2000/svg">
<path d="M22.0908 31.5174L22.0905 31.5174C21.6077 31.5901 21.1055 31.59 20.6238 31.5175L20.6235 31.5175C18.5565 31.2048 16.94 29.5707 16.8426 27.5714C16.8426 27.5712 16.8426 27.571 16.8426 27.5708L17.342 27.5466L22.0908 31.5174ZM22.0908 31.5174C24.157 31.2049 25.7736 29.5709 25.8711 27.5733C25.8746 27.5068 25.8759 27.4427 25.8759 27.3801C25.8759 27.0454 25.8334 26.7125 25.7492 26.3907C25.251 24.4795 23.4245 23.188 21.357 23.188C19.2895 23.188 17.463 24.4794 16.9649 26.3899L22.0908 31.5174ZM26.3698 27.5858L26.3697 27.587C26.2672 29.6978 24.5339 31.532 22.1844 31.8874C21.9119 31.9284 21.6335 31.9492 21.357 31.9492C21.0802 31.9492 20.8018 31.9283 20.5298 31.8874C18.18 31.5317 16.4468 29.6977 16.3441 27.5853L16.3441 27.5842C16.3407 27.5185 16.3391 27.4499 16.3391 27.3801C16.3391 27.0218 16.3849 26.6656 16.4748 26.3214L16.4749 26.3211C17.0071 24.2797 18.9944 22.811 21.357 22.811C23.7195 22.811 25.7068 24.2797 26.2391 26.3216L26.2392 26.3221C26.329 26.6654 26.3748 27.0216 26.3748 27.3801C26.3748 27.4499 26.3732 27.5185 26.3698 27.5858Z" stroke="url(#paint0_linear)"/>
<path d="M46.8831 5.11391L46.8831 5.11394C47.9797 6.6478 48.5621 8.43753 48.5621 10.2877C48.5621 15.5167 43.9463 19.6993 38.3624 19.6993C32.7786 19.6993 28.1627 15.5167 28.1627 10.2877C28.1627 5.05911 32.7786 0.876953 38.3624 0.876953C40.7696 0.876953 43.1075 1.66337 44.9456 3.10003L44.9456 3.10006C45.0604 3.18982 45.2395 3.17075 45.3272 3.076L45.3272 3.07595C45.3655 3.0346 45.3752 2.99283 45.3722 2.95797C45.3691 2.92267 45.3512 2.87842 45.301 2.83915L45.3009 2.83913C43.375 1.33377 40.9109 0.5 38.3624 0.5C33.0518 0.5 28.6761 4.04875 27.8181 8.63008L27.7188 9.16033L27.1976 9.02109C25.3096 8.5167 23.3491 8.26078 21.3568 8.26078C15.7717 8.26078 10.5307 10.2583 6.59345 13.8754C2.6576 17.4912 0.5 22.2867 0.5 27.3804C0.5 32.4742 2.6575 37.2698 6.59345 40.8855C10.5308 44.5025 15.7717 46.5 21.3568 46.5C26.942 46.5 32.1829 44.5025 36.1202 40.8854C40.056 37.2696 42.2136 32.4741 42.2136 27.3803C42.2136 24.9732 41.7341 22.6385 40.7895 20.4252L40.5583 19.8836L41.1302 19.7433C45.7194 18.6175 49.061 14.7818 49.061 10.2877C49.061 8.38193 48.4617 6.53319 47.3225 4.93965C47.2553 4.84566 47.0844 4.79829 46.9498 4.87942L46.8831 5.11391ZM46.8831 5.11391C46.8536 5.07266 46.8487 5.03268 46.8567 4.99715M46.8831 5.11391L46.8567 4.99715M27.6856 9.55809L27.6709 9.95153C27.6666 10.0655 27.6638 10.1771 27.6638 10.2877C27.6638 11.3834 27.8616 12.437 28.2263 13.4212L28.6138 14.4674L27.575 14.0605C25.621 13.2951 23.5054 12.8954 21.3568 12.8954C17.7194 12.8954 14.3058 13.9949 11.4789 16.0697C8.73632 18.0827 6.78619 20.9032 5.97819 24.0029L5.97808 24.0033C5.69089 25.1008 5.5451 26.237 5.5451 27.3803C5.5451 27.6065 5.55061 27.8271 5.56114 28.0343L5.5612 28.0355C5.7218 31.342 7.13466 34.5321 9.54976 37.0145C11.947 39.4785 15.2185 41.1356 18.7631 41.6719L27.6856 9.55809ZM27.6856 9.55809L27.3066 9.45154M27.6856 9.55809L27.3066 9.45154M27.3066 9.45154C25.3863 8.91169 23.3878 8.63774 21.3568 8.63774C10.1718 8.63774 0.998971 17.006 0.998971 27.3803C0.998971 37.7547 10.1718 46.123 21.3568 46.123C32.5418 46.123 41.7148 37.7547 41.7148 27.3803C41.7148 24.9235 41.2081 22.5414 40.2099 20.294L40.0609 19.9585L39.6962 20.0002C39.2591 20.0501 38.814 20.0762 38.3625 20.0762C37.4926 20.0762 36.6472 19.9799 35.8374 19.7999L34.7168 19.5509L35.2976 20.541C35.9368 21.6307 36.419 22.7889 36.7359 24.0033L36.736 24.0037C37.023 25.101 37.1688 26.2372 37.1688 27.3803C37.1688 27.6059 37.1634 27.8265 37.1527 28.0357L37.1526 28.037M27.3066 9.45154L37.1526 28.037M37.1526 28.037C36.992 31.342 35.5792 34.5321 33.1642 37.0145C30.7668 39.4785 27.4953 41.1356 23.9513 41.6718C23.0983 41.8002 22.2255 41.8653 21.3569 41.8653C20.4884 41.8653 19.6157 41.8002 18.7635 41.672L37.1526 28.037ZM46.8567 4.99715C46.865 4.96064 46.8906 4.91517 46.9497 4.87947L46.8567 4.99715ZM33.857 19.2319L33.7804 19.1323L33.6657 19.0808C31.8072 18.2461 30.2544 16.9346 29.195 15.3278L29.1249 15.2216L29.0127 15.1618C26.6921 13.9252 24.0498 13.2724 21.3569 13.2724C17.858 13.2724 14.559 14.331 11.8228 16.3393C9.67582 17.9152 8.02085 20.008 7.04616 22.3557L6.53271 23.5925L7.73108 22.9949C8.71907 22.5022 9.7373 22.0631 10.7748 21.684L10.7749 21.6839C10.9361 21.625 11.0804 21.712 11.1177 21.7982L11.1177 21.7983C11.1348 21.8378 11.1335 21.8765 11.1158 21.9142C11.0975 21.9533 11.0573 21.998 10.9856 22.0242C9.48296 22.5733 8.0227 23.2506 6.63819 24.0365L6.44887 24.1439L6.39856 24.3557C6.16408 25.3427 6.04397 26.3582 6.04397 27.3803C6.04397 27.3977 6.04425 27.4139 6.04446 27.426L6.04487 27.4562L6.04654 27.8691L6.45237 27.9455C9.76706 28.5695 12.8085 30.1759 15.0708 32.5013C17.3514 34.8456 18.7378 37.8212 19.0203 40.9298L19.0571 41.3358L19.4622 41.3814C20.715 41.5227 21.9983 41.5228 23.2518 41.3814L23.6568 41.3358L23.6937 40.9298C23.9762 37.8212 25.3626 34.8456 27.6432 32.5014C29.9056 30.176 32.9469 28.5696 36.2615 27.9455L36.6673 27.8691L36.669 27.4562L36.6694 27.426C36.6695 27.4213 36.6695 27.416 36.6696 27.4103C36.6698 27.4012 36.6699 27.391 36.6699 27.3803C36.6699 26.3579 36.5495 25.3419 36.315 24.3548L36.2646 24.143L36.0754 24.0356C31.6584 21.5277 26.5766 20.2048 21.3573 20.2048C18.7902 20.2048 16.2467 20.5232 13.7973 21.1517L13.7972 21.1517C13.6262 21.1956 13.501 21.093 13.4766 21.0127L13.4766 21.0127C13.4649 20.9743 13.4695 20.9352 13.4933 20.8963C13.518 20.8561 13.5662 20.8137 13.6427 20.7941L13.6427 20.7941C16.1408 20.1531 18.7364 19.8278 21.3573 19.8278C26.1487 19.8278 30.8215 20.9199 34.9856 22.9963L36.1801 23.592L35.6709 22.3581C35.214 21.2512 34.6067 20.2052 33.857 19.2319ZM36.5761 28.9413L36.6601 28.2455L35.9748 28.3925C32.9369 29.0445 30.1493 30.5577 28.044 32.7217C25.9187 34.9062 24.5822 37.6646 24.231 40.5748L24.147 41.2707L24.8323 41.1236C27.87 40.4716 30.6577 38.9584 32.7632 36.7943C34.8884 34.6098 36.2249 31.8515 36.5761 28.9413ZM17.8815 41.1236L18.5668 41.2707L18.4829 40.5748C18.1317 37.6646 16.7952 34.9062 14.6698 32.7217C12.5644 30.5576 9.77678 29.0445 6.73884 28.3925L6.05346 28.2453L6.13751 28.9413C6.48908 31.8522 7.82552 34.6101 9.95045 36.7943C12.0559 38.9584 14.8436 40.4716 17.8815 41.1236Z" stroke="url(#paint1_linear)"/>
<path d="M36.01 13.8721H36.3439H40.3859H40.721L40.8484 14.1821L41.4035 15.5333L41.4035 15.5333C41.691 16.2333 42.5839 16.6353 43.4162 16.3468C43.8121 16.2095 44.111 15.9452 44.2744 15.6132C44.4367 15.2834 44.4489 14.9217 44.3105 14.5848C44.3105 14.5848 44.3105 14.5848 44.3105 14.5848L40.0749 4.27416C40.0749 4.27409 40.0748 4.27403 40.0748 4.27396C40.0691 4.26008 40.0637 4.24737 40.0578 4.23428L40.5144 4.0305L40.0581 4.23492C39.7891 3.63437 39.1423 3.21835 38.38 3.21826C37.6219 3.219 36.9767 3.63315 36.7061 4.23407L32.4158 14.581C32.1362 15.2554 32.4886 16.0598 33.3041 16.3453L36.01 13.8721ZM36.01 13.8721L35.8821 14.1806M36.01 13.8721L35.8821 14.1806M35.8821 14.1806L35.3197 15.5371C35.3197 15.5371 35.3197 15.5371 35.3197 15.5372C35.1038 16.0577 34.5294 16.4407 33.8675 16.4407C33.6745 16.4407 33.4854 16.4086 33.3043 16.3454L35.8821 14.1806ZM43.8331 14.6911L43.8332 14.6911C43.9397 14.9505 43.9291 15.2369 43.806 15.4874L43.8059 15.4875C43.6836 15.7363 43.4678 15.9157 43.2146 16.0034M43.8331 14.6911L43.0509 15.531M43.8331 14.6911L39.5903 4.36328L39.5874 4.35605L39.5842 4.34891C39.3716 3.87433 38.8883 3.59521 38.3821 3.59521L38.3817 3.59521C37.8737 3.59564 37.3906 3.87606 37.1783 4.35236L37.1783 4.35235L37.1757 4.35829L37.1704 4.37059L37.1704 4.37057L37.1678 4.37676L32.8928 14.6882L32.8928 14.6882C32.6628 15.243 32.9845 15.8195 33.5073 16.0025L33.5078 16.0026C33.6229 16.0428 33.7443 16.0639 33.8676 16.0639C34.2764 16.0639 34.6775 15.829 34.8428 15.4301C34.8428 15.4301 34.8428 15.4301 34.8428 15.4301L35.589 13.6302C35.615 13.5676 35.6988 13.4952 35.8275 13.4952H40.9042C41.0334 13.4952 41.1172 13.568 41.1429 13.6306L41.6054 13.4406L41.1429 13.6306M43.8331 14.6911L41.1429 13.6306M43.2146 16.0034L43.0509 15.531M43.2146 16.0034C43.2146 16.0034 43.2146 16.0034 43.2147 16.0034L43.0509 15.531M43.2146 16.0034C42.7076 16.1792 42.0989 15.958 41.8809 15.4272M43.0509 15.531C42.7678 15.6291 42.4502 15.4974 42.3434 15.2372M41.8809 15.4272L41.8809 15.4272L42.3434 15.2372M41.8809 15.4272L41.1429 13.6306M41.8809 15.4272L42.3434 15.2372M42.3434 15.2372L41.1429 13.6306" stroke="url(#paint2_linear)"/>
<path d="M36.5781 11.2443L36.5781 11.2442L38.139 7.47921C38.139 7.4792 38.139 7.4792 38.139 7.4792C38.1649 7.41668 38.2488 7.34424 38.3775 7.34424H38.3775H38.3775H38.3775H38.3775H38.3775H38.3775H38.3775H38.3775H38.3775H38.3775H38.3775H38.3775H38.3775H38.3775H38.3775H38.3776H38.3776H38.3776H38.3776H38.3776H38.3776H38.3776H38.3776H38.3776H38.3776H38.3776H38.3776H38.3776H38.3776H38.3776H38.3776H38.3776H38.3776H38.3776H38.3776H38.3776H38.3776H38.3776H38.3776H38.3776H38.3776H38.3776H38.3776H38.3776H38.3776H38.3776H38.3776H38.3776H38.3776H38.3776H38.3776H38.3776H38.3776H38.3776H38.3776H38.3776H38.3776H38.3776H38.3776H38.3777H38.3777H38.3777H38.3777H38.3777H38.3777H38.3777H38.3777H38.3777H38.3777H38.3777H38.3777H38.3777H38.3777H38.3777H38.3777H38.3777H38.3777H38.3777H38.3777H38.3777H38.3777H38.3777H38.3777H38.3777H38.3777H38.3777H38.3777H38.3777H38.3777H38.3777H38.3777H38.3777H38.3777H38.3777H38.3777H38.3777H38.3777H38.3777H38.3777H38.3777H38.3777H38.3777H38.3777H38.3777H38.3777H38.3778H38.3778H38.3778H38.3778H38.3778H38.3778H38.3778H38.3778H38.3778H38.3778H38.3778H38.3778H38.3778H38.3778H38.3778H38.3778H38.3778H38.3778H38.3778H38.3778H38.3778H38.3778H38.3778H38.3778H38.3778H38.3778H38.3778H38.3778H38.3778H38.3778H38.3778H38.3778H38.3778H38.3778H38.3778H38.3778H38.3778H38.3778H38.3778H38.3778H38.3778H38.3778H38.3778H38.3778H38.3778H38.3778H38.3778H38.3779H38.3779H38.3779H38.3779H38.3779H38.3779H38.3779H38.3779H38.3779H38.3779H38.3779H38.3779H38.3779H38.3779H38.3779H38.3779H38.3779H38.3779H38.3779H38.3779H38.3779H38.3779H38.3779H38.3779H38.3779H38.3779H38.3779H38.3779H38.3779H38.3779H38.3779H38.3779H38.3779H38.3779H38.3779H38.3779H38.3779H38.3779H38.3779H38.3779H38.3779H38.3779H38.3779H38.3779H38.3779H38.3779H38.3779H38.3779H38.378H38.378H38.378H38.378H38.378H38.378H38.378H38.378H38.378H38.378H38.378H38.378H38.378H38.378H38.378H38.378H38.378H38.378H38.378H38.378H38.378H38.378H38.378H38.378H38.378H38.378H38.378H38.378H38.378H38.378H38.378H38.378H38.378H38.378H38.378H38.378H38.378H38.378H38.378H38.378H38.378H38.378H38.378H38.378H38.378H38.378H38.378H38.378H38.3781H38.3781H38.3781H38.3781H38.3781H38.3781H38.3781H38.3781H38.3781H38.3781H38.3781H38.3781H38.3781H38.3781H38.3781H38.3781H38.3781H38.3781H38.3781H38.3781H38.3781H38.3781H38.3781H38.3781H38.3781H38.3781H38.3781H38.3781H38.3781H38.3781H38.3781H38.3781H38.3781H38.3781H38.3781H38.3781H38.3781H38.3781H38.3781H38.3781H38.3781H38.3781H38.3781H38.3781H38.3781H38.3781H38.3781H38.3781H38.3781H38.3782H38.3782H38.3782H38.3782H38.3782H38.3782C38.507 7.34453 38.5904 7.41722 38.616 7.4796L38.6161 7.47972L40.1627 11.2447C40.1627 11.2447 40.1627 11.2447 40.1627 11.2448C40.1811 11.2896 40.1771 11.3409 40.141 11.3888C40.1015 11.4411 40.0234 11.4863 39.9241 11.4863H36.8165C36.7168 11.4863 36.6387 11.4409 36.5994 11.3885C36.5634 11.3403 36.5595 11.289 36.5781 11.2443ZM37.442 10.4178L37.1553 11.1093H37.9039H38.8403H39.5862L39.3028 10.4193L38.8367 9.28486L38.3763 8.16425L37.9123 9.28336L37.442 10.4178Z" stroke="url(#paint3_linear)"/>
<defs>
<linearGradient id="paint0_linear" x1="17.6569" y1="23.8789" x2="22.1513" y2="32.7746" gradientUnits="userSpaceOnUse">
<stop stop-color="#FF2D2D"/>
<stop offset="1" stop-color="#0085FA"/>
</linearGradient>
<linearGradient id="paint1_linear" x1="8.1636" y1="7.26871" x2="29.3891" y2="47.9656" gradientUnits="userSpaceOnUse">
<stop stop-color="#FF2D2D"/>
<stop offset="1" stop-color="#0085FA"/>
</linearGradient>
<linearGradient id="paint2_linear" x1="33.9753" y1="4.91781" x2="40.8739" y2="16.4593" gradientUnits="userSpaceOnUse">
<stop stop-color="#FF2D2D"/>
<stop offset="1" stop-color="#0085FA"/>
</linearGradient>
<linearGradient id="paint3_linear" x1="36.8259" y1="7.63948" x2="39.3512" y2="11.7527" gradientUnits="userSpaceOnUse">
<stop stop-color="#FF2D2D"/>
<stop offset="1" stop-color="#0085FA"/>
</linearGradient>
</defs>
</svg>
