<svg width="61" height="72" viewBox="0 0 61 72" fill="none" xmlns="http://www.w3.org/2000/svg">
<path d="M35.2456 61.5395C35.2456 63.8169 33.1267 65.824 30.302 65.824C27.4773 65.824 25.3585 63.8169 25.3585 61.5395C25.3585 59.2622 27.4773 57.2551 30.302 57.2551C33.1267 57.2551 35.2456 59.2622 35.2456 61.5395Z" stroke="white" stroke-width="1.6"/>
<path d="M35.6714 38.2617C35.6714 40.5391 33.5525 42.5461 30.7278 42.5461C27.9031 42.5461 25.7843 40.5391 25.7843 38.2617C25.7843 35.9843 27.9031 33.9772 30.7278 33.9772C33.5525 33.9772 35.6714 35.9843 35.6714 38.2617Z" stroke="white" stroke-width="1.6"/>
<path d="M35.2456 11.0454C35.2456 13.3228 33.1267 15.3298 30.302 15.3298C27.4773 15.3298 25.3585 13.3228 25.3585 11.0454C25.3585 8.76802 27.4773 6.76094 30.302 6.76094C33.1267 6.76094 35.2456 8.76802 35.2456 11.0454Z" stroke="white" stroke-width="1.6"/>
<rect x="0.8" y="0.8" width="14.2443" height="21.1924" rx="7.12214" stroke="white" stroke-width="1.6"/>
<rect x="0.8" y="49.8913" width="14.2443" height="21.1924" rx="7.12214" stroke="white" stroke-width="1.6"/>
<rect x="45.9555" y="0.8" width="14.2443" height="21.1924" rx="7.12214" stroke="white" stroke-width="1.6"/>
<rect x="45.9555" y="49.8913" width="14.2443" height="21.1924" rx="7.12214" stroke="white" stroke-width="1.6"/>
<rect x="13.0803" y="59.7097" width="36.4263" height="2.60782" stroke="white" stroke-width="1.6"/>
<rect x="13.0803" y="9.91719" width="36.4263" height="2.60782" stroke="white" stroke-width="1.6"/>
<rect x="28.5267" y="9.91719" width="3.9455" height="52.4004" stroke="white" stroke-width="1.6"/>
</svg>
