<svg width="55" height="55" viewBox="0 0 55 55" fill="none" xmlns="http://www.w3.org/2000/svg">
<path d="M4.54216 13.829L3.79688 13.4094V14.2647V48.5547C3.79688 50.0155 4.98452 51.2031 6.44531 51.2031H48.5547C50.0155 51.2031 51.2031 50.0155 51.2031 48.5547V14.2647V13.4094L50.4578 13.829C49.2932 14.4846 47.948 14.8613 46.5137 14.8613C44.1426 14.8613 42.0116 13.8359 40.5471 12.2114L40.1758 11.7995L39.8044 12.2114C38.3399 13.8359 36.2089 14.8613 33.8379 14.8613C31.4669 14.8613 29.3358 13.8359 27.8714 12.2114L27.5 11.7995L27.1286 12.2114C25.6642 13.8359 23.5331 14.8613 21.1621 14.8613C18.7911 14.8613 16.6601 13.8359 15.1956 12.2114L14.8242 11.7995L14.4529 12.2114C12.9884 13.8359 10.8574 14.8613 8.48633 14.8613C7.05196 14.8613 5.70677 14.4846 4.54216 13.829ZM25.8516 38.2534V19.8359H29.1484V38.3848V39.592L30.002 38.7384L35.5414 33.199L37.8726 35.5302L27.5657 45.8371L17.2588 35.5302L19.59 33.199L24.998 38.6069L25.8516 39.4605V38.2534ZM51.2031 6.98242V0.5H54.5V48.5547C54.5 51.8325 51.8325 54.5 48.5547 54.5H6.44531C3.16751 54.5 0.5 51.8325 0.5 48.5547V0.5H3.79688V6.98242C3.79688 9.52153 5.9124 11.5645 8.48633 11.5645C10.8889 11.5645 12.8921 9.78446 13.1481 7.48242H16.5003C16.7563 9.78446 18.7595 11.5645 21.1621 11.5645C23.5647 11.5645 25.5679 9.78446 25.8239 7.48242H29.1761C29.4321 9.78446 31.4353 11.5645 33.8379 11.5645C36.2405 11.5645 38.2437 9.78446 38.4997 7.48242H41.8519C42.1079 9.78446 44.1111 11.5645 46.5137 11.5645C49.0876 11.5645 51.2031 9.52153 51.2031 6.98242Z" fill="white" stroke="black"/>
</svg>
