<svg width="58" height="59" viewBox="0 0 58 59" fill="none" xmlns="http://www.w3.org/2000/svg">
<path d="M40.1238 36.3749C40.0756 36.1538 39.9417 35.9607 39.7515 35.8381C39.5613 35.7155 39.3303 35.6732 39.109 35.7206L37.5507 36.0568C37.4399 36.0792 37.3346 36.1233 37.241 36.1868C37.1474 36.2502 37.0673 36.3315 37.0054 36.4261C36.9434 36.5207 36.9009 36.6267 36.8803 36.7379C36.8597 36.849 36.8613 36.9632 36.8852 37.0737C36.909 37.1842 36.9546 37.2889 37.0192 37.3817C37.0838 37.4745 37.1662 37.5535 37.2616 37.6141C37.3571 37.6748 37.4636 37.7159 37.575 37.7351C37.6864 37.7543 37.8005 37.7511 37.9107 37.7258L39.4695 37.3897C39.6908 37.3419 39.8841 37.2081 40.0068 37.0178C40.1295 36.8275 40.1716 36.5962 40.1238 36.3749Z" fill="white"/>
<path d="M34.5807 36.6971L30.2606 37.6289C30.1498 37.6513 30.0445 37.6955 29.9509 37.7589C29.8573 37.8223 29.7772 37.9037 29.7153 37.9983C29.6533 38.0929 29.6108 38.1988 29.5902 38.31C29.5696 38.4212 29.5712 38.5353 29.5951 38.6458C29.6189 38.7564 29.6645 38.8611 29.7291 38.9538C29.7937 39.0466 29.8761 39.1256 29.9715 39.1863C30.067 39.2469 30.1735 39.2881 30.2849 39.3072C30.3963 39.3264 30.5104 39.3232 30.6206 39.298L34.9408 38.3661C35.1596 38.3159 35.3498 38.1815 35.4703 37.9921C35.5907 37.8026 35.6317 37.5734 35.5844 37.3539C35.537 37.1345 35.4052 36.9425 35.2173 36.8196C35.0295 36.6966 34.8008 36.6526 34.5807 36.6971Z" fill="white"/>
<path d="M21.0688 42.5474C20.0287 42.7714 19.0784 43.2989 18.338 44.0631C17.5977 44.8273 17.1006 45.7939 16.9096 46.8406C16.7187 47.8873 16.8424 48.9671 17.2651 49.9435C17.6879 50.9199 18.3907 51.749 19.2847 52.3259C20.1787 52.9029 21.2237 53.2017 22.2876 53.1847C23.3515 53.1677 24.3864 52.8356 25.2615 52.2304C26.1366 51.6252 26.8125 50.774 27.2039 49.7846C27.5952 48.7952 27.6844 47.712 27.46 46.6719C27.158 45.2782 26.3154 44.0613 25.1173 43.2881C23.9191 42.5149 22.4631 42.2485 21.0688 42.5474ZM22.9769 51.3941C22.267 51.5473 21.5277 51.4865 20.8523 51.2195C20.177 50.9525 19.596 50.4912 19.1828 49.894C18.7696 49.2968 18.5428 48.5905 18.531 47.8644C18.5193 47.1383 18.7231 46.425 19.1167 45.8147C19.5104 45.2044 20.0761 44.7246 20.7425 44.4358C21.4088 44.1471 22.1458 44.0625 22.8603 44.1926C23.5748 44.3227 24.2346 44.6618 24.7563 45.167C25.2781 45.6721 25.6383 46.3206 25.7915 47.0305C25.9955 47.9822 25.8138 48.9761 25.2862 49.7941C24.7586 50.6121 23.9281 51.1874 22.9769 51.3941Z" fill="white"/>
<path d="M57.9809 40.0899L57.2525 36.7118C57.2289 36.6022 57.1839 36.4983 57.1201 36.4061C57.0563 36.3138 56.975 36.235 56.8807 36.1742C56.7865 36.1134 56.6812 36.0718 56.5709 36.0517C56.4605 36.0316 56.3473 36.0334 56.2377 36.0571L53.0211 36.7509L47.2685 10.0713C47.2206 9.85011 47.0869 9.65701 46.8967 9.53435C46.7065 9.41169 46.4755 9.36949 46.2542 9.41702L29.1473 13.1054L19.5742 15.1701L16.4478 0.673759C16.4066 0.482993 16.3013 0.3121 16.1494 0.189517C15.9975 0.0669333 15.8082 5.15991e-05 15.6131 1.39566e-07H0.853786C0.741648 -6.39948e-05 0.630596 0.0219761 0.526981 0.0648602C0.423366 0.107744 0.32922 0.170631 0.249925 0.249925C0.170631 0.329219 0.107744 0.423365 0.0648602 0.526981C0.0219761 0.630596 -6.39948e-05 0.741648 1.39566e-07 0.853786V4.30943C1.39566e-07 4.53586 0.0899522 4.75303 0.250068 4.91314C0.410184 5.07326 0.627348 5.16321 0.853786 5.16321H12.134L19.2292 38.0637C17.3704 38.63 15.7122 39.7159 14.4501 41.1935C13.1881 42.6711 12.3749 44.4787 12.1063 46.4032C11.8377 48.3277 12.1249 50.289 12.9342 52.0556C13.7434 53.8223 15.0409 55.3207 16.6737 56.3743C18.3065 57.4278 20.2064 57.9926 22.1496 58.002C24.0928 58.0113 25.9981 57.4649 27.641 56.4272C29.2838 55.3894 30.5957 53.9035 31.422 52.1448C32.2482 50.386 32.5544 48.4276 32.3043 46.5006L57.3261 41.1042C57.5475 41.0565 57.7408 40.9228 57.8635 40.7326C57.9863 40.5424 58.0285 40.3112 57.9809 40.0899ZM24.472 37.8803L21.4388 23.8226L30.1777 21.9379L31.4603 27.8788C31.4954 28.0423 31.5778 28.1919 31.6972 28.3089C31.8167 28.426 31.9679 28.5053 32.1321 28.537C32.1856 28.5474 32.2401 28.5526 32.2946 28.5526C32.4342 28.5525 32.5717 28.5183 32.6951 28.4528C32.8184 28.3873 32.9238 28.2926 33.002 28.1769L35.298 24.7813L38.5145 26.9592C38.6556 27.0546 38.822 27.1057 38.9923 27.1058C39.1626 27.1059 39.329 27.0551 39.4702 26.9599C39.6115 26.8647 39.721 26.7294 39.7847 26.5715C39.8484 26.4136 39.8635 26.2402 39.8279 26.0737L38.5467 20.1328L47.2856 18.2481L51.354 37.1109L30.3133 41.6482C28.8648 39.7499 26.7987 38.4172 24.472 37.8803ZM35.3716 13.5098L36.6977 19.6571L37.71 24.3505L35.5478 22.8868C35.3601 22.7599 35.1298 22.7128 34.9074 22.7557C34.685 22.7986 34.4887 22.9281 34.3617 23.1157L32.7088 25.5624L30.3421 14.5944L35.3716 13.5098ZM46.9256 16.5791L38.1867 18.4628L37.0407 13.1498L45.7795 11.2651L46.9256 16.5791ZM28.6731 14.9544L29.8191 20.2679L21.0802 22.1536L19.9342 16.8391L28.6731 14.9544ZM12.8229 3.45564H1.70757V1.70757H14.9237L18.0847 16.3649L22.6707 37.6325C22.0785 37.6038 21.4849 37.6271 20.8968 37.7022L13.6577 4.1294C13.6165 3.93859 13.5112 3.76765 13.3593 3.64505C13.2074 3.52245 13.0181 3.4556 12.8229 3.45564ZM23.9953 56.1021C22.354 56.457 20.6442 56.3172 19.0824 55.7003C17.5205 55.0834 16.1767 54.0171 15.221 52.6363C14.2652 51.2556 13.7404 49.6224 13.713 47.9433C13.6856 46.2643 14.1568 44.6148 15.067 43.2036C15.9772 41.7924 17.2854 40.6828 18.8263 40.0153C20.3672 39.3477 22.0715 39.1522 23.7235 39.4534C25.3755 39.7545 26.9011 40.5389 28.1073 41.7073C29.3135 42.8757 30.1461 44.3755 30.4997 46.0171C30.9712 48.2171 30.551 50.5142 29.3312 52.4048C28.1114 54.2953 26.1916 55.625 23.9929 56.1021H23.9953ZM31.9477 44.8321C31.7737 44.2654 31.5502 43.715 31.2798 43.1874L55.7659 37.9066L56.1347 39.6142L31.9477 44.8321Z" fill="white"/>
</svg>
