<svg width="55" height="52" viewBox="0 0 55 52" fill="none" xmlns="http://www.w3.org/2000/svg">
<mask id="path-1-inside-1" fill="white">
<path d="M42.9536 16.7865C45.9954 16.7865 48.4713 14.3118 48.4713 11.2688C48.4713 8.22573 45.9954 5.75098 42.9536 5.75098C39.9111 5.75098 37.4358 8.22573 37.4358 11.2688C37.4358 14.3118 39.9111 16.7865 42.9536 16.7865ZM42.9536 7.79427C44.8694 7.79427 46.428 9.35291 46.428 11.2688C46.428 13.1846 44.8694 14.7432 42.9536 14.7432C41.0377 14.7432 39.4791 13.1846 39.4791 11.2688C39.4791 9.35291 41.0377 7.79427 42.9536 7.79427Z"/>
</mask>
<path d="M42.9536 24.7865C50.4126 24.7865 56.4713 18.7312 56.4713 11.2688H40.4713C40.4713 9.89239 41.5782 8.78653 42.9536 8.78653V24.7865ZM56.4713 11.2688C56.4713 3.80635 50.4126 -2.24902 42.9536 -2.24902V13.751C41.5782 13.751 40.4713 12.6451 40.4713 11.2688H56.4713ZM42.9536 -2.24902C35.4934 -2.24902 29.4358 3.8069 29.4358 11.2688H45.4358C45.4358 12.6446 44.3289 13.751 42.9536 13.751V-2.24902ZM29.4358 11.2688C29.4358 18.7306 35.4934 24.7865 42.9536 24.7865V8.78653C44.3289 8.78653 45.4358 9.89294 45.4358 11.2688H29.4358ZM42.9536 15.7943C40.4511 15.7943 38.428 13.7712 38.428 11.2688H54.428C54.428 4.93463 49.2877 -0.205728 42.9536 -0.205728V15.7943ZM38.428 11.2688C38.428 8.76632 40.4511 6.74323 42.9536 6.74323V22.7432C49.2877 22.7432 54.428 17.6029 54.428 11.2688H38.428ZM42.9536 6.74323C45.456 6.74323 47.4791 8.76632 47.4791 11.2688H31.4791C31.4791 17.6029 36.6194 22.7432 42.9536 22.7432V6.74323ZM47.4791 11.2688C47.4791 13.7712 45.456 15.7943 42.9536 15.7943V-0.205728C36.6194 -0.205728 31.4791 4.93463 31.4791 11.2688H47.4791Z" fill="url(#paint0_linear)" mask="url(#path-1-inside-1)"/>
<mask id="path-3-inside-2" fill="white">
<path d="M40.7344 16.9186C38.328 16.317 35.7837 17.4015 34.5525 19.557L29.534 28.3382L29.1902 27.3923C29.1902 27.3923 29.1902 27.3917 29.1902 27.3911C28.8365 26.423 27.9069 25.7717 26.8762 25.7717C26.0735 25.7717 25.3193 26.164 24.8592 26.8217C24.3985 27.4782 24.2881 28.3207 24.5622 29.0749L25.4094 31.4058C25.3065 31.383 25.2024 31.3701 25.1013 31.3356L17.8875 28.9316C15.2888 28.0658 12.4422 28.9562 10.8023 31.1456L0.839551 44.4285C-0.415659 46.1012 -0.246115 48.4771 1.23242 49.9568C2.02987 50.7543 3.10325 51.1957 4.22107 51.1957C4.33742 51.1957 4.45434 51.191 4.57185 51.181C5.81303 51.0787 6.94079 50.4386 7.66515 49.4242L15.8459 37.9724C16.2797 37.3609 17.0953 37.1305 17.7904 37.4281L27.341 41.5217C27.9572 41.786 28.6056 41.9304 29.2656 42.0087L30.9698 46.6975C31.3235 47.6656 32.2531 48.3169 33.2838 48.3169C34.0865 48.3169 34.8407 47.9246 35.3008 47.2669C35.7615 46.6104 35.8726 45.7679 35.5978 45.0137L34.0696 40.8114C34.8606 40.2548 35.5417 39.5416 36.041 38.7096L44.1574 25.1818C45.0747 23.6541 45.208 21.8342 44.5269 20.1878C43.8446 18.5421 42.4626 17.3506 40.7344 16.9186ZM28.1466 39.6439L18.5949 35.5497C17.0292 34.8814 15.1713 35.3977 14.1827 36.785L6.00304 48.2362C5.62887 48.7607 5.04541 49.0916 4.40348 49.1448C3.76623 49.1985 3.13307 48.9676 2.67706 48.5116C1.91294 47.7469 1.82524 46.5186 2.4736 45.6545L12.4364 32.371C13.5489 30.8855 15.4805 30.2821 17.2409 30.8703L24.4541 33.2743C25.0118 33.4602 25.5871 33.5239 26.1741 33.5076L28.4401 39.7398C28.3431 39.7047 28.2419 39.6848 28.1466 39.6439ZM33.6276 46.0947C33.5802 46.1614 33.4738 46.273 33.2838 46.273C33.1084 46.273 32.9494 46.1625 32.8898 45.9977L26.4822 28.3768C26.4185 28.1991 26.4863 28.0605 26.533 27.9939C26.5798 27.9272 26.6868 27.8156 26.8762 27.8156C27.0522 27.8156 27.2106 27.9266 27.2703 28.0921L33.6784 45.7118C33.7422 45.8895 33.6744 46.0281 33.6276 46.0947ZM42.4059 24.1306L34.2888 37.6585C34.0327 38.0847 33.7065 38.4641 33.3364 38.7938L30.4495 30.8551L36.3263 20.5708C37.1056 19.2068 38.7162 18.521 40.2398 18.9011C41.3331 19.1747 42.2071 19.9283 42.6397 20.9701C43.0706 22.0119 42.9858 23.1636 42.4059 24.1306Z"/>
</mask>
<path d="M34.5525 19.557L41.4982 23.5265L41.4991 23.5249L34.5525 19.557ZM29.534 28.3382L22.0151 31.0707L27.9124 47.2984L36.4797 32.3077L29.534 28.3382ZM29.1902 27.3923H21.1902V28.8009L21.6713 30.1247L29.1902 27.3923ZM29.1902 27.3911H37.1902V25.9755L36.7044 24.6459L29.1902 27.3911ZM24.8592 26.8217L31.4079 31.4168L31.4145 31.4074L24.8592 26.8217ZM24.5622 29.0749L32.0811 26.3423L32.0808 26.3414L24.5622 29.0749ZM25.4094 31.4058L23.6786 39.2163L37.9057 42.3689L32.9282 28.6732L25.4094 31.4058ZM25.1013 31.3356L27.6836 23.7639L27.6571 23.7548L27.6305 23.746L25.1013 31.3356ZM17.8875 28.9316L20.4167 21.342L20.4163 21.3418L17.8875 28.9316ZM10.8023 31.1456L17.2022 35.9458L17.2054 35.9415L10.8023 31.1456ZM0.839551 44.4285L7.23821 49.2303L7.23942 49.2287L0.839551 44.4285ZM1.23242 49.9568L-4.42667 55.6114L-4.42443 55.6137L1.23242 49.9568ZM4.57185 51.181L3.91464 43.2081L3.90614 43.2088L3.89765 43.2095L4.57185 51.181ZM7.66515 49.4242L1.15553 44.774L1.15478 44.775L7.66515 49.4242ZM15.8459 37.9724L22.3556 42.6227L22.3633 42.6119L22.3709 42.601L15.8459 37.9724ZM17.7904 37.4281L20.9421 30.0751L20.9388 30.0737L17.7904 37.4281ZM27.341 41.5217L30.494 34.1693L30.4927 34.1687L27.341 41.5217ZM29.2656 42.0087L36.7844 39.2759L35.1013 34.6452L30.2085 34.0645L29.2656 42.0087ZM30.9698 46.6975L23.4511 49.4303L23.4556 49.4427L30.9698 46.6975ZM35.3008 47.2669L28.7521 42.6718L28.7456 42.6812L35.3008 47.2669ZM35.5978 45.0137L28.0795 47.7478L28.0812 47.7524L35.5978 45.0137ZM34.0696 40.8114L29.466 34.2687L24.4589 37.7918L26.5513 43.5455L34.0696 40.8114ZM36.041 38.7096L42.9005 42.8263L42.9009 42.8255L36.041 38.7096ZM44.1574 25.1818L37.2989 21.0635L37.2974 21.0659L44.1574 25.1818ZM44.5269 20.1878L51.9193 17.1296L51.917 17.1242L44.5269 20.1878ZM28.1466 39.6439L31.3034 32.293L31.2984 32.2909L28.1466 39.6439ZM18.5949 35.5497L21.7466 28.1967L21.7353 28.1918L18.5949 35.5497ZM14.1827 36.785L20.6925 41.435L20.6977 41.4276L14.1827 36.785ZM6.00304 48.2362L-0.506786 43.5863L-0.509281 43.5898L6.00304 48.2362ZM4.40348 49.1448L3.74272 41.1721L3.73064 41.1731L4.40348 49.1448ZM2.67706 48.5116L-2.98196 54.1663L-2.9798 54.1685L2.67706 48.5116ZM2.4736 45.6545L8.87256 50.4559L8.87357 50.4545L2.4736 45.6545ZM12.4364 32.371L18.8363 37.1711L18.8397 37.1666L12.4364 32.371ZM17.2409 30.8703L14.7058 38.458L14.7114 38.4599L17.2409 30.8703ZM24.4541 33.2743L26.9839 25.6848L26.9835 25.6847L24.4541 33.2743ZM26.1741 33.5076L33.6925 30.7738L31.7203 25.3498L25.9511 25.5107L26.1741 33.5076ZM28.4401 39.7398L25.7207 47.2634L41.8015 53.0757L35.9586 37.006L28.4401 39.7398ZM32.8898 45.9977L40.4128 43.2766L40.4081 43.2637L32.8898 45.9977ZM26.4822 28.3768L18.9516 31.0769L18.9577 31.0938L18.9638 31.1108L26.4822 28.3768ZM26.533 27.9939L19.9846 23.3985L19.9846 23.3985L26.533 27.9939ZM27.2703 28.0921L19.7442 30.8047L19.7481 30.8155L19.7521 30.8264L27.2703 28.0921ZM33.6784 45.7118L41.209 43.0117L41.2029 42.9946L41.1967 42.9775L33.6784 45.7118ZM42.4059 24.1306L49.2657 28.2467L49.2665 28.2454L42.4059 24.1306ZM34.2888 37.6585L41.1463 41.7786L41.1487 41.7746L34.2888 37.6585ZM33.3364 38.7938L25.8181 41.5278L29.85 52.6151L38.6584 44.7668L33.3364 38.7938ZM30.4495 30.8551L23.5036 26.886L21.6642 30.1049L22.9312 33.5891L30.4495 30.8551ZM36.3263 20.5708L43.2722 24.5399L43.2724 24.5396L36.3263 20.5708ZM40.2398 18.9011L42.182 11.1404L42.1759 11.1389L40.2398 18.9011ZM42.6397 20.9701L50.0324 17.9126L50.028 17.902L42.6397 20.9701ZM42.6747 9.15742C36.7929 7.68698 30.6161 10.319 27.6058 15.5891L41.4991 23.5249C40.9513 24.4839 39.8632 24.947 38.7941 24.6797L42.6747 9.15742ZM27.6068 15.5875L22.5883 24.3687L36.4797 32.3077L41.4982 23.5265L27.6068 15.5875ZM37.0529 25.6058L36.7091 24.6598L21.6713 30.1247L22.0151 31.0707L37.0529 25.6058ZM29.1902 27.3923C37.1902 27.3923 37.1902 27.3923 37.1902 27.3923C37.1902 27.3923 37.1902 27.3923 37.1902 27.3923C37.1902 27.3923 37.1902 27.3923 37.1902 27.3923C37.1902 27.3923 37.1902 27.3923 37.1902 27.3923C37.1902 27.3923 37.1902 27.3923 37.1902 27.3923C37.1902 27.3923 37.1902 27.3923 37.1902 27.3923V27.3923C37.1902 27.3923 37.1902 27.3923 37.1902 27.3923C37.1902 27.3923 37.1902 27.3923 37.1902 27.3923V27.3923V27.3923V27.3923C37.1902 27.3923 37.1902 27.3923 37.1902 27.3923C37.1902 27.3923 37.1902 27.3923 37.1902 27.3923V27.3923C37.1902 27.3923 37.1902 27.3923 37.1902 27.3923C37.1902 27.3923 37.1902 27.3923 37.1902 27.3923V27.3923C37.1902 27.3923 37.1902 27.3923 37.1902 27.3923V27.3923C37.1902 27.3923 37.1902 27.3923 37.1902 27.3923C37.1902 27.3923 37.1902 27.3923 37.1902 27.3923V27.3923C37.1902 27.3923 37.1902 27.3923 37.1902 27.3923C37.1902 27.3923 37.1902 27.3923 37.1902 27.3923V27.3923V27.3923C37.1902 27.3923 37.1902 27.3923 37.1902 27.3923C37.1902 27.3923 37.1902 27.3923 37.1902 27.3923C37.1902 27.3923 37.1902 27.3923 37.1902 27.3923V27.3923V27.3923V27.3923C37.1902 27.3923 37.1902 27.3923 37.1902 27.3923C37.1902 27.3923 37.1902 27.3923 37.1902 27.3923C37.1902 27.3923 37.1902 27.3923 37.1902 27.3922C37.1902 27.3922 37.1902 27.3922 37.1902 27.3922C37.1902 27.3922 37.1902 27.3922 37.1902 27.3922C37.1902 27.3922 37.1902 27.3922 37.1902 27.3922C37.1902 27.3922 37.1902 27.3922 37.1902 27.3922C37.1902 27.3922 37.1902 27.3922 37.1902 27.3922C37.1902 27.3922 37.1902 27.3922 37.1902 27.3922C37.1902 27.3922 37.1902 27.3922 37.1902 27.3922C37.1902 27.3922 37.1902 27.3922 37.1902 27.3922C37.1902 27.3922 37.1902 27.3922 37.1902 27.3922C37.1902 27.3922 37.1902 27.3922 37.1902 27.3922C37.1902 27.3922 37.1902 27.3922 37.1902 27.3922C37.1902 27.3922 37.1902 27.3922 37.1902 27.3922V27.3922V27.3922V27.3922V27.3922C37.1902 27.3922 37.1902 27.3922 37.1902 27.3922C37.1902 27.3922 37.1902 27.3922 37.1902 27.3922C37.1902 27.3922 37.1902 27.3922 37.1902 27.3922V27.3922V27.3922V27.3922C37.1902 27.3922 37.1902 27.3922 37.1902 27.3922C37.1902 27.3922 37.1902 27.3922 37.1902 27.3922V27.3922V27.3922C37.1902 27.3922 37.1902 27.3922 37.1902 27.3922C37.1902 27.3922 37.1902 27.3922 37.1902 27.3922V27.3922V27.3922C37.1902 27.3922 37.1902 27.3922 37.1902 27.3922V27.3922V27.3922C37.1902 27.3922 37.1902 27.3922 37.1902 27.3922V27.3922V27.3922C37.1902 27.3922 37.1902 27.3922 37.1902 27.3922V27.3922C37.1902 27.3922 37.1902 27.3922 37.1902 27.3922C37.1902 27.3922 37.1902 27.3922 37.1902 27.3922V27.3922C37.1902 27.3922 37.1902 27.3922 37.1902 27.3922V27.3922C37.1902 27.3922 37.1902 27.3922 37.1902 27.3922V27.3922C37.1902 27.3922 37.1902 27.3922 37.1902 27.3922V27.3922C37.1902 27.3922 37.1902 27.3922 37.1902 27.3922V27.3922C37.1902 27.3922 37.1902 27.3922 37.1902 27.3922V27.3922C37.1902 27.3922 37.1902 27.3922 37.1902 27.3922V27.3922C37.1902 27.3922 37.1902 27.3922 37.1902 27.3922V27.3922C37.1902 27.3922 37.1902 27.3922 37.1902 27.3922V27.3922C37.1902 27.3922 37.1902 27.3922 37.1902 27.3922C37.1902 27.3922 37.1902 27.3922 37.1902 27.3922V27.3922C37.1902 27.3922 37.1902 27.3922 37.1902 27.3922C37.1902 27.3922 37.1902 27.3922 37.1902 27.3922V27.3922C37.1902 27.3922 37.1902 27.3922 37.1902 27.3922V27.3922C37.1902 27.3922 37.1902 27.3922 37.1902 27.3922C37.1902 27.3922 37.1902 27.3922 37.1902 27.3922C37.1902 27.3922 37.1902 27.3922 37.1902 27.3922V27.3922C37.1902 27.3922 37.1902 27.3922 37.1902 27.3922C37.1902 27.3922 37.1902 27.3922 37.1902 27.3922V27.3922C37.1902 27.3922 37.1902 27.3922 37.1902 27.3922C37.1902 27.3922 37.1902 27.3922 37.1902 27.3922C37.1902 27.3922 37.1902 27.3922 37.1902 27.3921C37.1902 27.3921 37.1902 27.3921 37.1902 27.3921V27.3921C37.1902 27.3921 37.1902 27.3921 37.1902 27.3921C37.1902 27.3921 37.1902 27.3921 37.1902 27.3921C37.1902 27.3921 37.1902 27.3921 37.1902 27.3921C37.1902 27.3921 37.1902 27.3921 37.1902 27.3921V27.3921C37.1902 27.3921 37.1902 27.3921 37.1902 27.3921C37.1902 27.3921 37.1902 27.3921 37.1902 27.3921C37.1902 27.3921 37.1902 27.3921 37.1902 27.3921C37.1902 27.3921 37.1902 27.3921 37.1902 27.3921C37.1902 27.3921 37.1902 27.3921 37.1902 27.3921C37.1902 27.3921 37.1902 27.3921 37.1902 27.3921C37.1902 27.3921 37.1902 27.3921 37.1902 27.3921C37.1902 27.3921 37.1902 27.3921 37.1902 27.3921V27.3921C37.1902 27.3921 37.1902 27.3921 37.1902 27.3921C37.1902 27.3921 37.1902 27.3921 37.1902 27.3921C37.1902 27.3921 37.1902 27.3921 37.1902 27.3921C37.1902 27.3921 37.1902 27.3921 37.1902 27.3921C37.1902 27.3921 37.1902 27.3921 37.1902 27.3921C37.1902 27.3921 37.1902 27.3921 37.1902 27.3921C37.1902 27.3921 37.1902 27.3921 37.1902 27.3921C37.1902 27.3921 37.1902 27.3921 37.1902 27.3921C37.1902 27.3921 37.1902 27.3921 37.1902 27.3921C37.1902 27.3921 37.1902 27.3921 37.1902 27.3921C37.1902 27.3921 37.1902 27.3921 37.1902 27.3921C37.1902 27.3921 37.1902 27.3921 37.1902 27.3921C37.1902 27.3921 37.1902 27.3921 37.1902 27.3921C37.1902 27.3921 37.1902 27.3921 37.1902 27.3921C37.1902 27.3921 37.1902 27.3921 37.1902 27.3921C37.1902 27.3921 37.1902 27.3921 37.1902 27.3921C37.1902 27.3921 37.1902 27.3921 37.1902 27.3921C37.1902 27.3921 37.1902 27.3921 37.1902 27.3921C37.1902 27.3921 37.1902 27.3921 37.1902 27.3921C37.1902 27.3921 37.1902 27.3921 37.1902 27.3921C37.1902 27.3921 37.1902 27.3921 37.1902 27.3921C37.1902 27.3921 37.1902 27.3921 37.1902 27.3921C37.1902 27.3921 37.1902 27.3921 37.1902 27.3921C37.1902 27.3921 37.1902 27.3921 37.1902 27.3921C37.1902 27.3921 37.1902 27.3921 37.1902 27.3921C37.1902 27.3921 37.1902 27.3921 37.1902 27.3921C37.1902 27.3921 37.1902 27.3921 37.1902 27.3921C37.1902 27.3921 37.1902 27.3921 37.1902 27.3921C37.1902 27.3921 37.1902 27.3921 37.1902 27.3921C37.1902 27.3921 37.1902 27.3921 37.1902 27.3921C37.1902 27.3921 37.1902 27.3921 37.1902 27.3921C37.1902 27.3921 37.1902 27.3921 37.1902 27.3921C37.1902 27.3921 37.1902 27.3921 37.1902 27.3921C37.1902 27.3921 37.1902 27.3921 37.1902 27.3921C37.1902 27.3921 37.1902 27.3921 37.1902 27.3921C37.1902 27.3921 37.1902 27.3921 37.1902 27.392C37.1902 27.392 37.1902 27.392 37.1902 27.392C37.1902 27.392 37.1902 27.392 37.1902 27.392C37.1902 27.392 37.1902 27.392 37.1902 27.392C37.1902 27.392 37.1902 27.392 37.1902 27.392C37.1902 27.392 37.1902 27.392 37.1902 27.392C37.1902 27.392 37.1902 27.392 37.1902 27.392C37.1902 27.392 37.1902 27.392 37.1902 27.392C37.1902 27.392 37.1902 27.392 37.1902 27.392C37.1902 27.392 37.1902 27.392 37.1902 27.392C37.1902 27.392 37.1902 27.392 37.1902 27.392C37.1902 27.392 37.1902 27.392 37.1902 27.392C37.1902 27.392 37.1902 27.392 37.1902 27.392C37.1902 27.392 37.1902 27.392 37.1902 27.392C37.1902 27.392 37.1902 27.392 37.1902 27.392C37.1902 27.392 37.1902 27.392 37.1902 27.392C37.1902 27.392 37.1902 27.392 37.1902 27.392C37.1902 27.392 37.1902 27.392 37.1902 27.392C37.1902 27.392 37.1902 27.392 37.1902 27.392C37.1902 27.392 37.1902 27.392 37.1902 27.392C37.1902 27.392 37.1902 27.392 37.1902 27.392C37.1902 27.392 37.1902 27.392 37.1902 27.392C37.1902 27.392 37.1902 27.392 37.1902 27.392C37.1902 27.392 37.1902 27.392 37.1902 27.392C37.1902 27.392 37.1902 27.392 37.1902 27.392C37.1902 27.392 37.1902 27.392 37.1902 27.392C37.1902 27.392 37.1902 27.392 37.1902 27.392C37.1902 27.392 37.1902 27.392 37.1902 27.392C37.1902 27.392 37.1902 27.392 37.1902 27.392C37.1902 27.392 37.1902 27.392 37.1902 27.392C37.1902 27.392 37.1902 27.392 37.1902 27.392C37.1902 27.392 37.1902 27.392 37.1902 27.392C37.1902 27.392 37.1902 27.392 37.1902 27.392C37.1902 27.392 37.1902 27.392 37.1902 27.392C37.1902 27.392 37.1902 27.392 37.1902 27.392C37.1902 27.392 37.1902 27.392 37.1902 27.392C37.1902 27.392 37.1902 27.392 37.1902 27.392C37.1902 27.392 37.1902 27.392 37.1902 27.392C37.1902 27.392 37.1902 27.392 37.1902 27.392C37.1902 27.392 37.1902 27.392 37.1902 27.392C37.1902 27.392 37.1902 27.392 37.1902 27.392C37.1902 27.392 37.1902 27.392 37.1902 27.392C37.1902 27.392 37.1902 27.392 37.1902 27.392C37.1902 27.392 37.1902 27.392 37.1902 27.3919C37.1902 27.3919 37.1902 27.3919 37.1902 27.3919C37.1902 27.3919 37.1902 27.3919 37.1902 27.3919C37.1902 27.3919 37.1902 27.3919 37.1902 27.3919C37.1902 27.3919 37.1902 27.3919 37.1902 27.3919C37.1902 27.3919 37.1902 27.3919 37.1902 27.3919C37.1902 27.3919 37.1902 27.3919 37.1902 27.3919C37.1902 27.3919 37.1902 27.3919 37.1902 27.3919C37.1902 27.3919 37.1902 27.3919 37.1902 27.3919C37.1902 27.3919 37.1902 27.3919 37.1902 27.3919C37.1902 27.3919 37.1902 27.3919 37.1902 27.3919C37.1902 27.3919 37.1902 27.3919 37.1902 27.3919C37.1902 27.3919 37.1902 27.3919 37.1902 27.3919C37.1902 27.3919 37.1902 27.3919 37.1902 27.3919C37.1902 27.3919 37.1902 27.3919 37.1902 27.3919C37.1902 27.3919 37.1902 27.3919 37.1902 27.3919C37.1902 27.3919 37.1902 27.3919 37.1902 27.3919C37.1902 27.3919 37.1902 27.3919 37.1902 27.3919C37.1902 27.3919 37.1902 27.3919 37.1902 27.3919C37.1902 27.3919 37.1902 27.3919 37.1902 27.3919C37.1902 27.3919 37.1902 27.3919 37.1902 27.3919C37.1902 27.3919 37.1902 27.3919 37.1902 27.3919C37.1902 27.3919 37.1902 27.3919 37.1902 27.3919C37.1902 27.3919 37.1902 27.3919 37.1902 27.3919C37.1902 27.3919 37.1902 27.3919 37.1902 27.3919C37.1902 27.3919 37.1902 27.3919 37.1902 27.3919C37.1902 27.3919 37.1902 27.3919 37.1902 27.3919C37.1902 27.3919 37.1902 27.3919 37.1902 27.3919C37.1902 27.3919 37.1902 27.3919 37.1902 27.3919C37.1902 27.3919 37.1902 27.3919 37.1902 27.3919C37.1902 27.3919 37.1902 27.3919 37.1902 27.3919C37.1902 27.3919 37.1902 27.3919 37.1902 27.3919C37.1902 27.3919 37.1902 27.3919 37.1902 27.3919C37.1902 27.3919 37.1902 27.3919 37.1902 27.3919C37.1902 27.3919 37.1902 27.3919 37.1902 27.3919C37.1902 27.3919 37.1902 27.3919 37.1902 27.3919C37.1902 27.3919 37.1902 27.3919 37.1902 27.3919C37.1902 27.3919 37.1902 27.3919 37.1902 27.3919C37.1902 27.3919 37.1902 27.3919 37.1902 27.3919C37.1902 27.3919 37.1902 27.3918 37.1902 27.3918C37.1902 27.3918 37.1902 27.3918 37.1902 27.3918C37.1902 27.3918 37.1902 27.3918 37.1902 27.3918C37.1902 27.3918 37.1902 27.3918 37.1902 27.3918C37.1902 27.3918 37.1902 27.3918 37.1902 27.3918C37.1902 27.3918 37.1902 27.3918 37.1902 27.3918C37.1902 27.3918 37.1902 27.3918 37.1902 27.3918C37.1902 27.3918 37.1902 27.3918 37.1902 27.3918C37.1902 27.3918 37.1902 27.3918 37.1902 27.3918C37.1902 27.3918 37.1902 27.3918 37.1902 27.3918C37.1902 27.3918 37.1902 27.3918 37.1902 27.3918C37.1902 27.3918 37.1902 27.3918 37.1902 27.3918C37.1902 27.3918 37.1902 27.3918 37.1902 27.3918C37.1902 27.3918 37.1902 27.3918 37.1902 27.3918C37.1902 27.3918 37.1902 27.3918 37.1902 27.3918C37.1902 27.3918 37.1902 27.3918 37.1902 27.3918C37.1902 27.3918 37.1902 27.3918 37.1902 27.3918C37.1902 27.3918 37.1902 27.3918 37.1902 27.3918C37.1902 27.3918 37.1902 27.3918 37.1902 27.3918C37.1902 27.3918 37.1902 27.3918 37.1902 27.3918C37.1902 27.3918 37.1902 27.3918 37.1902 27.3918C37.1902 27.3918 37.1902 27.3918 37.1902 27.3918C37.1902 27.3918 37.1902 27.3918 37.1902 27.3918C37.1902 27.3918 37.1902 27.3918 37.1902 27.3918C37.1902 27.3918 37.1902 27.3918 37.1902 27.3918C37.1902 27.3918 37.1902 27.3918 37.1902 27.3918C37.1902 27.3918 37.1902 27.3918 37.1902 27.3918C37.1902 27.3918 37.1902 27.3918 37.1902 27.3918C37.1902 27.3918 37.1902 27.3918 37.1902 27.3918C37.1902 27.3918 37.1902 27.3918 37.1902 27.3918C37.1902 27.3918 37.1902 27.3918 37.1902 27.3918C37.1902 27.3918 37.1902 27.3918 37.1902 27.3918C37.1902 27.3918 37.1902 27.3918 37.1902 27.3918C37.1902 27.3918 37.1902 27.3918 37.1902 27.3918C37.1902 27.3918 37.1902 27.3918 37.1902 27.3918C37.1902 27.3918 37.1902 27.3918 37.1902 27.3917C37.1902 27.3917 37.1902 27.3917 37.1902 27.3917C37.1902 27.3917 37.1902 27.3917 37.1902 27.3917C37.1902 27.3917 37.1902 27.3917 37.1902 27.3917C37.1902 27.3917 37.1902 27.3917 37.1902 27.3917C37.1902 27.3917 37.1902 27.3917 37.1902 27.3917C37.1902 27.3917 37.1902 27.3917 37.1902 27.3917C37.1902 27.3917 37.1902 27.3917 37.1902 27.3917C37.1902 27.3917 37.1902 27.3917 37.1902 27.3917C37.1902 27.3917 37.1902 27.3917 37.1902 27.3917C37.1902 27.3917 37.1902 27.3917 37.1902 27.3917C37.1902 27.3917 37.1902 27.3917 37.1902 27.3917C37.1902 27.3917 37.1902 27.3917 37.1902 27.3917C37.1902 27.3917 37.1902 27.3917 37.1902 27.3917C37.1902 27.3917 37.1902 27.3917 37.1902 27.3917C37.1902 27.3917 37.1902 27.3917 37.1902 27.3917C37.1902 27.3917 37.1902 27.3917 37.1902 27.3917C37.1902 27.3917 37.1902 27.3917 37.1902 27.3917C37.1902 27.3917 37.1902 27.3917 37.1902 27.3917C37.1902 27.3917 37.1902 27.3917 37.1902 27.3917C37.1902 27.3917 37.1902 27.3917 37.1902 27.3917C37.1902 27.3917 37.1902 27.3917 37.1902 27.3917C37.1902 27.3917 37.1902 27.3917 37.1902 27.3917C37.1902 27.3917 37.1902 27.3917 37.1902 27.3917C37.1902 27.3917 37.1902 27.3917 37.1902 27.3917C37.1902 27.3917 37.1902 27.3917 37.1902 27.3917C37.1902 27.3917 37.1902 27.3917 37.1902 27.3917C37.1902 27.3917 37.1902 27.3917 37.1902 27.3917C37.1902 27.3917 37.1902 27.3917 37.1902 27.3917C37.1902 27.3917 37.1902 27.3917 37.1902 27.3917C37.1902 27.3917 37.1902 27.3917 37.1902 27.3917C37.1902 27.3917 37.1902 27.3917 37.1902 27.3917C37.1902 27.3917 37.1902 27.3917 37.1902 27.3917C37.1902 27.3917 37.1902 27.3917 37.1902 27.3917C37.1902 27.3916 37.1902 27.3916 37.1902 27.3916C37.1902 27.3916 37.1902 27.3916 37.1902 27.3916C37.1902 27.3916 37.1902 27.3916 37.1902 27.3916C37.1902 27.3916 37.1902 27.3916 37.1902 27.3916C37.1902 27.3916 37.1902 27.3916 37.1902 27.3916C37.1902 27.3916 37.1902 27.3916 37.1902 27.3916C37.1902 27.3916 37.1902 27.3916 37.1902 27.3916C37.1902 27.3916 37.1902 27.3916 37.1902 27.3916C37.1902 27.3916 37.1902 27.3916 37.1902 27.3916C37.1902 27.3916 37.1902 27.3916 37.1902 27.3916C37.1902 27.3916 37.1902 27.3916 37.1902 27.3916C37.1902 27.3916 37.1902 27.3916 37.1902 27.3916C37.1902 27.3916 37.1902 27.3916 37.1902 27.3916C37.1902 27.3916 37.1902 27.3916 37.1902 27.3916C37.1902 27.3916 37.1902 27.3916 37.1902 27.3916C37.1902 27.3916 37.1902 27.3916 37.1902 27.3916C37.1902 27.3916 37.1902 27.3916 37.1902 27.3916C37.1902 27.3916 37.1902 27.3916 37.1902 27.3916C37.1902 27.3916 37.1902 27.3916 37.1902 27.3916C37.1902 27.3916 37.1902 27.3916 37.1902 27.3916C37.1902 27.3916 37.1902 27.3916 37.1902 27.3916C37.1902 27.3916 37.1902 27.3916 37.1902 27.3916C37.1902 27.3916 37.1902 27.3916 37.1902 27.3916C37.1902 27.3916 37.1902 27.3916 37.1902 27.3916C37.1902 27.3916 37.1902 27.3916 37.1902 27.3916C37.1902 27.3916 37.1902 27.3916 37.1902 27.3916C37.1902 27.3916 37.1902 27.3916 37.1902 27.3916C37.1902 27.3916 37.1902 27.3916 37.1902 27.3916C37.1902 27.3916 37.1902 27.3916 37.1902 27.3916C37.1902 27.3916 37.1902 27.3916 37.1902 27.3916C37.1902 27.3916 37.1902 27.3916 37.1902 27.3916C37.1902 27.3916 37.1902 27.3916 37.1902 27.3915C37.1902 27.3915 37.1902 27.3915 37.1902 27.3915C37.1902 27.3915 37.1902 27.3915 37.1902 27.3915C37.1902 27.3915 37.1902 27.3915 37.1902 27.3915C37.1902 27.3915 37.1902 27.3915 37.1902 27.3915C37.1902 27.3915 37.1902 27.3915 37.1902 27.3915C37.1902 27.3915 37.1902 27.3915 37.1902 27.3915C37.1902 27.3915 37.1902 27.3915 37.1902 27.3915C37.1902 27.3915 37.1902 27.3915 37.1902 27.3915C37.1902 27.3915 37.1902 27.3915 37.1902 27.3915C37.1902 27.3915 37.1902 27.3915 37.1902 27.3915C37.1902 27.3915 37.1902 27.3915 37.1902 27.3915C37.1902 27.3915 37.1902 27.3915 37.1902 27.3915C37.1902 27.3915 37.1902 27.3915 37.1902 27.3915C37.1902 27.3915 37.1902 27.3915 37.1902 27.3915C37.1902 27.3915 37.1902 27.3915 37.1902 27.3915C37.1902 27.3915 37.1902 27.3915 37.1902 27.3915C37.1902 27.3915 37.1902 27.3915 37.1902 27.3915C37.1902 27.3915 37.1902 27.3915 37.1902 27.3915C37.1902 27.3915 37.1902 27.3915 37.1902 27.3915C37.1902 27.3915 37.1902 27.3915 37.1902 27.3915C37.1902 27.3915 37.1902 27.3915 37.1902 27.3915C37.1902 27.3915 37.1902 27.3915 37.1902 27.3915C37.1902 27.3915 37.1902 27.3915 37.1902 27.3915C37.1902 27.3915 37.1902 27.3915 37.1902 27.3915C37.1902 27.3915 37.1902 27.3915 37.1902 27.3915C37.1902 27.3915 37.1902 27.3915 37.1902 27.3915C37.1902 27.3915 37.1902 27.3915 37.1902 27.3915C37.1902 27.3915 37.1902 27.3915 37.1902 27.3915C37.1902 27.3915 37.1902 27.3915 37.1902 27.3915C37.1902 27.3915 37.1902 27.3915 37.1902 27.3915C37.1902 27.3915 37.1902 27.3914 37.1902 27.3914C37.1902 27.3914 37.1902 27.3914 37.1902 27.3914C37.1902 27.3914 37.1902 27.3914 37.1902 27.3914C37.1902 27.3914 37.1902 27.3914 37.1902 27.3914C37.1902 27.3914 37.1902 27.3914 37.1902 27.3914C37.1902 27.3914 37.1902 27.3914 37.1902 27.3914C37.1902 27.3914 37.1902 27.3914 37.1902 27.3914C37.1902 27.3914 37.1902 27.3914 37.1902 27.3914C37.1902 27.3914 37.1902 27.3914 37.1902 27.3914C37.1902 27.3914 37.1902 27.3914 37.1902 27.3914C37.1902 27.3914 37.1902 27.3914 37.1902 27.3914C37.1902 27.3914 37.1902 27.3914 37.1902 27.3914C37.1902 27.3914 37.1902 27.3914 37.1902 27.3914C37.1902 27.3914 37.1902 27.3914 37.1902 27.3914C37.1902 27.3914 37.1902 27.3914 37.1902 27.3914C37.1902 27.3914 37.1902 27.3914 37.1902 27.3914C37.1902 27.3914 37.1902 27.3914 37.1902 27.3914C37.1902 27.3914 37.1902 27.3914 37.1902 27.3914C37.1902 27.3914 37.1902 27.3914 37.1902 27.3914C37.1902 27.3914 37.1902 27.3914 37.1902 27.3914C37.1902 27.3914 37.1902 27.3914 37.1902 27.3914C37.1902 27.3914 37.1902 27.3914 37.1902 27.3914C37.1902 27.3914 37.1902 27.3914 37.1902 27.3914C37.1902 27.3914 37.1902 27.3914 37.1902 27.3914C37.1902 27.3914 37.1902 27.3914 37.1902 27.3914C37.1902 27.3914 37.1902 27.3914 37.1902 27.3914C37.1902 27.3914 37.1902 27.3914 37.1902 27.3914C37.1902 27.3914 37.1902 27.3914 37.1902 27.3914C37.1902 27.3914 37.1902 27.3914 37.1902 27.3914C37.1902 27.3914 37.1902 27.3914 37.1902 27.3914C37.1902 27.3914 37.1902 27.3913 37.1902 27.3913C37.1902 27.3913 37.1902 27.3913 37.1902 27.3913C37.1902 27.3913 37.1902 27.3913 37.1902 27.3913C37.1902 27.3913 37.1902 27.3913 37.1902 27.3913C37.1902 27.3913 37.1902 27.3913 37.1902 27.3913C37.1902 27.3913 37.1902 27.3913 37.1902 27.3913C37.1902 27.3913 37.1902 27.3913 37.1902 27.3913C37.1902 27.3913 37.1902 27.3913 37.1902 27.3913C37.1902 27.3913 37.1902 27.3913 37.1902 27.3913C37.1902 27.3913 37.1902 27.3913 37.1902 27.3913C37.1902 27.3913 37.1902 27.3913 37.1902 27.3913C37.1902 27.3913 37.1902 27.3913 37.1902 27.3913C37.1902 27.3913 37.1902 27.3913 37.1902 27.3913C37.1902 27.3913 37.1902 27.3913 37.1902 27.3913C37.1902 27.3913 37.1902 27.3913 37.1902 27.3913C37.1902 27.3913 37.1902 27.3913 37.1902 27.3913C37.1902 27.3913 37.1902 27.3913 37.1902 27.3913C37.1902 27.3913 37.1902 27.3913 37.1902 27.3913C37.1902 27.3913 37.1902 27.3913 37.1902 27.3913C37.1902 27.3913 37.1902 27.3913 37.1902 27.3913C37.1902 27.3913 37.1902 27.3913 37.1902 27.3913C37.1902 27.3913 37.1902 27.3913 37.1902 27.3913C37.1902 27.3913 37.1902 27.3913 37.1902 27.3913C37.1902 27.3913 37.1902 27.3913 37.1902 27.3913C37.1902 27.3913 37.1902 27.3913 37.1902 27.3913C37.1902 27.3913 37.1902 27.3913 37.1902 27.3913C37.1902 27.3913 37.1902 27.3913 37.1902 27.3913C37.1902 27.3913 37.1902 27.3913 37.1902 27.3913C37.1902 27.3913 37.1902 27.3913 37.1902 27.3913C37.1902 27.3913 37.1902 27.3913 37.1902 27.3912C37.1902 27.3912 37.1902 27.3912 37.1902 27.3912C37.1902 27.3912 37.1902 27.3912 37.1902 27.3912C37.1902 27.3912 37.1902 27.3912 37.1902 27.3912C37.1902 27.3912 37.1902 27.3912 37.1902 27.3912C37.1902 27.3912 37.1902 27.3912 37.1902 27.3912C37.1902 27.3912 37.1902 27.3912 37.1902 27.3912C37.1902 27.3912 37.1902 27.3912 37.1902 27.3912C37.1902 27.3912 37.1902 27.3912 37.1902 27.3912C37.1902 27.3912 37.1902 27.3912 37.1902 27.3912C37.1902 27.3912 37.1902 27.3912 37.1902 27.3912C37.1902 27.3912 37.1902 27.3912 37.1902 27.3912C37.1902 27.3912 37.1902 27.3912 37.1902 27.3912C37.1902 27.3912 37.1902 27.3912 37.1902 27.3912C37.1902 27.3912 37.1902 27.3912 37.1902 27.3912C37.1902 27.3912 37.1902 27.3912 37.1902 27.3912C37.1902 27.3912 37.1902 27.3912 37.1902 27.3912C37.1902 27.3912 37.1902 27.3912 37.1902 27.3912C37.1902 27.3912 37.1902 27.3912 37.1902 27.3912C37.1902 27.3912 37.1902 27.3912 37.1902 27.3912C37.1902 27.3912 37.1902 27.3912 37.1902 27.3912C37.1902 27.3912 37.1902 27.3912 37.1902 27.3912C37.1902 27.3912 37.1902 27.3912 37.1902 27.3912C37.1902 27.3912 37.1902 27.3912 37.1902 27.3912C37.1902 27.3912 37.1902 27.3912 37.1902 27.3912C37.1902 27.3912 37.1902 27.3912 37.1902 27.3912C37.1902 27.3912 37.1902 27.3912 37.1902 27.3912C37.1902 27.3912 37.1902 27.3912 37.1902 27.3912C37.1902 27.3912 37.1902 27.3912 37.1902 27.3912C37.1902 27.3912 37.1902 27.3912 37.1902 27.3912C37.1902 27.3911 37.1902 27.3911 37.1902 27.3911C37.1902 27.3911 37.1902 27.3911 37.1902 27.3911C37.1902 27.3911 37.1902 27.3911 37.1902 27.3911C37.1902 27.3911 37.1902 27.3911 37.1902 27.3911C37.1902 27.3911 37.1902 27.3911 37.1902 27.3911C37.1902 27.3911 37.1902 27.3911 37.1902 27.3911C37.1902 27.3911 37.1902 27.3911 37.1902 27.3911C37.1902 27.3911 37.1902 27.3911 37.1902 27.3911C37.1902 27.3911 37.1902 27.3911 37.1902 27.3911C37.1902 27.3911 37.1902 27.3911 37.1902 27.3911C37.1902 27.3911 37.1902 27.3911 37.1902 27.3911H21.1902C21.1902 27.3911 21.1902 27.3911 21.1902 27.3911C21.1902 27.3911 21.1902 27.3911 21.1902 27.3911C21.1902 27.3911 21.1902 27.3911 21.1902 27.3911C21.1902 27.3911 21.1902 27.3911 21.1902 27.3911C21.1902 27.3911 21.1902 27.3911 21.1902 27.3911C21.1902 27.3911 21.1902 27.3911 21.1902 27.3911C21.1902 27.3911 21.1902 27.3911 21.1902 27.3911C21.1902 27.3911 21.1902 27.3911 21.1902 27.3911C21.1902 27.3911 21.1902 27.3911 21.1902 27.3911C21.1902 27.3911 21.1902 27.3911 21.1902 27.3911C21.1902 27.3911 21.1902 27.3911 21.1902 27.3912C21.1902 27.3912 21.1902 27.3912 21.1902 27.3912C21.1902 27.3912 21.1902 27.3912 21.1902 27.3912C21.1902 27.3912 21.1902 27.3912 21.1902 27.3912C21.1902 27.3912 21.1902 27.3912 21.1902 27.3912C21.1902 27.3912 21.1902 27.3912 21.1902 27.3912C21.1902 27.3912 21.1902 27.3912 21.1902 27.3912C21.1902 27.3912 21.1902 27.3912 21.1902 27.3912C21.1902 27.3912 21.1902 27.3912 21.1902 27.3912C21.1902 27.3912 21.1902 27.3912 21.1902 27.3912C21.1902 27.3912 21.1902 27.3912 21.1902 27.3912C21.1902 27.3912 21.1902 27.3912 21.1902 27.3912C21.1902 27.3912 21.1902 27.3912 21.1902 27.3912C21.1902 27.3912 21.1902 27.3912 21.1902 27.3912C21.1902 27.3912 21.1902 27.3912 21.1902 27.3912C21.1902 27.3912 21.1902 27.3912 21.1902 27.3912C21.1902 27.3912 21.1902 27.3912 21.1902 27.3912C21.1902 27.3912 21.1902 27.3912 21.1902 27.3912C21.1902 27.3912 21.1902 27.3912 21.1902 27.3912C21.1902 27.3912 21.1902 27.3912 21.1902 27.3912C21.1902 27.3912 21.1902 27.3912 21.1902 27.3912C21.1902 27.3912 21.1902 27.3912 21.1902 27.3912C21.1902 27.3912 21.1902 27.3912 21.1902 27.3912C21.1902 27.3912 21.1902 27.3912 21.1902 27.3912C21.1902 27.3912 21.1902 27.3912 21.1902 27.3912C21.1902 27.3912 21.1902 27.3912 21.1902 27.3912C21.1902 27.3912 21.1902 27.3912 21.1902 27.3912C21.1902 27.3912 21.1902 27.3912 21.1902 27.3912C21.1902 27.3912 21.1902 27.3912 21.1902 27.3912C21.1902 27.3912 21.1902 27.3912 21.1902 27.3912C21.1902 27.3913 21.1902 27.3913 21.1902 27.3913C21.1902 27.3913 21.1902 27.3913 21.1902 27.3913C21.1902 27.3913 21.1902 27.3913 21.1902 27.3913C21.1902 27.3913 21.1902 27.3913 21.1902 27.3913C21.1902 27.3913 21.1902 27.3913 21.1902 27.3913C21.1902 27.3913 21.1902 27.3913 21.1902 27.3913C21.1902 27.3913 21.1902 27.3913 21.1902 27.3913C21.1902 27.3913 21.1902 27.3913 21.1902 27.3913C21.1902 27.3913 21.1902 27.3913 21.1902 27.3913C21.1902 27.3913 21.1902 27.3913 21.1902 27.3913C21.1902 27.3913 21.1902 27.3913 21.1902 27.3913C21.1902 27.3913 21.1902 27.3913 21.1902 27.3913C21.1902 27.3913 21.1902 27.3913 21.1902 27.3913C21.1902 27.3913 21.1902 27.3913 21.1902 27.3913C21.1902 27.3913 21.1902 27.3913 21.1902 27.3913C21.1902 27.3913 21.1902 27.3913 21.1902 27.3913C21.1902 27.3913 21.1902 27.3913 21.1902 27.3913C21.1902 27.3913 21.1902 27.3913 21.1902 27.3913C21.1902 27.3913 21.1902 27.3913 21.1902 27.3913C21.1902 27.3913 21.1902 27.3913 21.1902 27.3913C21.1902 27.3913 21.1902 27.3913 21.1902 27.3913C21.1902 27.3913 21.1902 27.3913 21.1902 27.3913C21.1902 27.3913 21.1902 27.3913 21.1902 27.3913C21.1902 27.3913 21.1902 27.3913 21.1902 27.3913C21.1902 27.3913 21.1902 27.3913 21.1902 27.3913C21.1902 27.3913 21.1902 27.3913 21.1902 27.3913C21.1902 27.3913 21.1902 27.3913 21.1902 27.3913C21.1902 27.3913 21.1902 27.3913 21.1902 27.3913C21.1902 27.3913 21.1902 27.3913 21.1902 27.3913C21.1902 27.3913 21.1902 27.3914 21.1902 27.3914C21.1902 27.3914 21.1902 27.3914 21.1902 27.3914C21.1902 27.3914 21.1902 27.3914 21.1902 27.3914C21.1902 27.3914 21.1902 27.3914 21.1902 27.3914C21.1902 27.3914 21.1902 27.3914 21.1902 27.3914C21.1902 27.3914 21.1902 27.3914 21.1902 27.3914C21.1902 27.3914 21.1902 27.3914 21.1902 27.3914C21.1902 27.3914 21.1902 27.3914 21.1902 27.3914C21.1902 27.3914 21.1902 27.3914 21.1902 27.3914C21.1902 27.3914 21.1902 27.3914 21.1902 27.3914C21.1902 27.3914 21.1902 27.3914 21.1902 27.3914C21.1902 27.3914 21.1902 27.3914 21.1902 27.3914C21.1902 27.3914 21.1902 27.3914 21.1902 27.3914C21.1902 27.3914 21.1902 27.3914 21.1902 27.3914C21.1902 27.3914 21.1902 27.3914 21.1902 27.3914C21.1902 27.3914 21.1902 27.3914 21.1902 27.3914C21.1902 27.3914 21.1902 27.3914 21.1902 27.3914C21.1902 27.3914 21.1902 27.3914 21.1902 27.3914C21.1902 27.3914 21.1902 27.3914 21.1902 27.3914C21.1902 27.3914 21.1902 27.3914 21.1902 27.3914C21.1902 27.3914 21.1902 27.3914 21.1902 27.3914C21.1902 27.3914 21.1902 27.3914 21.1902 27.3914C21.1902 27.3914 21.1902 27.3914 21.1902 27.3914C21.1902 27.3914 21.1902 27.3914 21.1902 27.3914C21.1902 27.3914 21.1902 27.3914 21.1902 27.3914C21.1902 27.3914 21.1902 27.3914 21.1902 27.3914C21.1902 27.3914 21.1902 27.3914 21.1902 27.3914C21.1902 27.3914 21.1902 27.3914 21.1902 27.3914C21.1902 27.3914 21.1902 27.3914 21.1902 27.3914C21.1902 27.3914 21.1902 27.3914 21.1902 27.3914C21.1902 27.3914 21.1902 27.3915 21.1902 27.3915C21.1902 27.3915 21.1902 27.3915 21.1902 27.3915C21.1902 27.3915 21.1902 27.3915 21.1902 27.3915C21.1902 27.3915 21.1902 27.3915 21.1902 27.3915C21.1902 27.3915 21.1902 27.3915 21.1902 27.3915C21.1902 27.3915 21.1902 27.3915 21.1902 27.3915C21.1902 27.3915 21.1902 27.3915 21.1902 27.3915C21.1902 27.3915 21.1902 27.3915 21.1902 27.3915C21.1902 27.3915 21.1902 27.3915 21.1902 27.3915C21.1902 27.3915 21.1902 27.3915 21.1902 27.3915C21.1902 27.3915 21.1902 27.3915 21.1902 27.3915C21.1902 27.3915 21.1902 27.3915 21.1902 27.3915C21.1902 27.3915 21.1902 27.3915 21.1902 27.3915C21.1902 27.3915 21.1902 27.3915 21.1902 27.3915C21.1902 27.3915 21.1902 27.3915 21.1902 27.3915C21.1902 27.3915 21.1902 27.3915 21.1902 27.3915C21.1902 27.3915 21.1902 27.3915 21.1902 27.3915C21.1902 27.3915 21.1902 27.3915 21.1902 27.3915C21.1902 27.3915 21.1902 27.3915 21.1902 27.3915C21.1902 27.3915 21.1902 27.3915 21.1902 27.3915C21.1902 27.3915 21.1902 27.3915 21.1902 27.3915C21.1902 27.3915 21.1902 27.3915 21.1902 27.3915C21.1902 27.3915 21.1902 27.3915 21.1902 27.3915C21.1902 27.3915 21.1902 27.3915 21.1902 27.3915C21.1902 27.3915 21.1902 27.3915 21.1902 27.3915C21.1902 27.3915 21.1902 27.3915 21.1902 27.3915C21.1902 27.3915 21.1902 27.3915 21.1902 27.3915C21.1902 27.3915 21.1902 27.3915 21.1902 27.3915C21.1902 27.3915 21.1902 27.3915 21.1902 27.3915C21.1902 27.3915 21.1902 27.3915 21.1902 27.3915C21.1902 27.3915 21.1902 27.3915 21.1902 27.3915C21.1902 27.3916 21.1902 27.3916 21.1902 27.3916C21.1902 27.3916 21.1902 27.3916 21.1902 27.3916C21.1902 27.3916 21.1902 27.3916 21.1902 27.3916C21.1902 27.3916 21.1902 27.3916 21.1902 27.3916C21.1902 27.3916 21.1902 27.3916 21.1902 27.3916C21.1902 27.3916 21.1902 27.3916 21.1902 27.3916C21.1902 27.3916 21.1902 27.3916 21.1902 27.3916C21.1902 27.3916 21.1902 27.3916 21.1902 27.3916C21.1902 27.3916 21.1902 27.3916 21.1902 27.3916C21.1902 27.3916 21.1902 27.3916 21.1902 27.3916C21.1902 27.3916 21.1902 27.3916 21.1902 27.3916C21.1902 27.3916 21.1902 27.3916 21.1902 27.3916C21.1902 27.3916 21.1902 27.3916 21.1902 27.3916C21.1902 27.3916 21.1902 27.3916 21.1902 27.3916C21.1902 27.3916 21.1902 27.3916 21.1902 27.3916C21.1902 27.3916 21.1902 27.3916 21.1902 27.3916C21.1902 27.3916 21.1902 27.3916 21.1902 27.3916C21.1902 27.3916 21.1902 27.3916 21.1902 27.3916C21.1902 27.3916 21.1902 27.3916 21.1902 27.3916C21.1902 27.3916 21.1902 27.3916 21.1902 27.3916C21.1902 27.3916 21.1902 27.3916 21.1902 27.3916C21.1902 27.3916 21.1902 27.3916 21.1902 27.3916C21.1902 27.3916 21.1902 27.3916 21.1902 27.3916C21.1902 27.3916 21.1902 27.3916 21.1902 27.3916C21.1902 27.3916 21.1902 27.3916 21.1902 27.3916C21.1902 27.3916 21.1902 27.3916 21.1902 27.3916C21.1902 27.3916 21.1902 27.3916 21.1902 27.3916C21.1902 27.3916 21.1902 27.3916 21.1902 27.3916C21.1902 27.3916 21.1902 27.3916 21.1902 27.3916C21.1902 27.3916 21.1902 27.3916 21.1902 27.3916C21.1902 27.3916 21.1902 27.3916 21.1902 27.3916C21.1902 27.3916 21.1902 27.3916 21.1902 27.3917C21.1902 27.3917 21.1902 27.3917 21.1902 27.3917C21.1902 27.3917 21.1902 27.3917 21.1902 27.3917C21.1902 27.3917 21.1902 27.3917 21.1902 27.3917C21.1902 27.3917 21.1902 27.3917 21.1902 27.3917C21.1902 27.3917 21.1902 27.3917 21.1902 27.3917C21.1902 27.3917 21.1902 27.3917 21.1902 27.3917C21.1902 27.3917 21.1902 27.3917 21.1902 27.3917C21.1902 27.3917 21.1902 27.3917 21.1902 27.3917C21.1902 27.3917 21.1902 27.3917 21.1902 27.3917C21.1902 27.3917 21.1902 27.3917 21.1902 27.3917C21.1902 27.3917 21.1902 27.3917 21.1902 27.3917C21.1902 27.3917 21.1902 27.3917 21.1902 27.3917C21.1902 27.3917 21.1902 27.3917 21.1902 27.3917C21.1902 27.3917 21.1902 27.3917 21.1902 27.3917C21.1902 27.3917 21.1902 27.3917 21.1902 27.3917C21.1902 27.3917 21.1902 27.3917 21.1902 27.3917C21.1902 27.3917 21.1902 27.3917 21.1902 27.3917C21.1902 27.3917 21.1902 27.3917 21.1902 27.3917C21.1902 27.3917 21.1902 27.3917 21.1902 27.3917C21.1902 27.3917 21.1902 27.3917 21.1902 27.3917C21.1902 27.3917 21.1902 27.3917 21.1902 27.3917C21.1902 27.3917 21.1902 27.3917 21.1902 27.3917C21.1902 27.3917 21.1902 27.3917 21.1902 27.3917C21.1902 27.3917 21.1902 27.3917 21.1902 27.3917C21.1902 27.3917 21.1902 27.3917 21.1902 27.3917C21.1902 27.3917 21.1902 27.3917 21.1902 27.3917C21.1902 27.3917 21.1902 27.3917 21.1902 27.3917C21.1902 27.3917 21.1902 27.3917 21.1902 27.3917C21.1902 27.3917 21.1902 27.3917 21.1902 27.3917C21.1902 27.3917 21.1902 27.3917 21.1902 27.3917C21.1902 27.3917 21.1902 27.3917 21.1902 27.3917C21.1902 27.3917 21.1902 27.3917 21.1902 27.3917C21.1902 27.3917 21.1902 27.3917 21.1902 27.3917C21.1902 27.3918 21.1902 27.3918 21.1902 27.3918C21.1902 27.3918 21.1902 27.3918 21.1902 27.3918C21.1902 27.3918 21.1902 27.3918 21.1902 27.3918C21.1902 27.3918 21.1902 27.3918 21.1902 27.3918C21.1902 27.3918 21.1902 27.3918 21.1902 27.3918C21.1902 27.3918 21.1902 27.3918 21.1902 27.3918C21.1902 27.3918 21.1902 27.3918 21.1902 27.3918C21.1902 27.3918 21.1902 27.3918 21.1902 27.3918C21.1902 27.3918 21.1902 27.3918 21.1902 27.3918C21.1902 27.3918 21.1902 27.3918 21.1902 27.3918C21.1902 27.3918 21.1902 27.3918 21.1902 27.3918C21.1902 27.3918 21.1902 27.3918 21.1902 27.3918C21.1902 27.3918 21.1902 27.3918 21.1902 27.3918C21.1902 27.3918 21.1902 27.3918 21.1902 27.3918C21.1902 27.3918 21.1902 27.3918 21.1902 27.3918C21.1902 27.3918 21.1902 27.3918 21.1902 27.3918C21.1902 27.3918 21.1902 27.3918 21.1902 27.3918C21.1902 27.3918 21.1902 27.3918 21.1902 27.3918C21.1902 27.3918 21.1902 27.3918 21.1902 27.3918C21.1902 27.3918 21.1902 27.3918 21.1902 27.3918C21.1902 27.3918 21.1902 27.3918 21.1902 27.3918C21.1902 27.3918 21.1902 27.3918 21.1902 27.3918C21.1902 27.3918 21.1902 27.3918 21.1902 27.3918C21.1902 27.3918 21.1902 27.3918 21.1902 27.3918C21.1902 27.3918 21.1902 27.3918 21.1902 27.3918C21.1902 27.3918 21.1902 27.3918 21.1902 27.3918C21.1902 27.3918 21.1902 27.3918 21.1902 27.3918C21.1902 27.3918 21.1902 27.3918 21.1902 27.3918C21.1902 27.3918 21.1902 27.3918 21.1902 27.3918C21.1902 27.3918 21.1902 27.3918 21.1902 27.3918C21.1902 27.3918 21.1902 27.3918 21.1902 27.3918C21.1902 27.3918 21.1902 27.3918 21.1902 27.3918C21.1902 27.3918 21.1902 27.3918 21.1902 27.3918C21.1902 27.3918 21.1902 27.3918 21.1902 27.3918C21.1902 27.3918 21.1902 27.3918 21.1902 27.3918C21.1902 27.3918 21.1902 27.3919 21.1902 27.3919C21.1902 27.3919 21.1902 27.3919 21.1902 27.3919C21.1902 27.3919 21.1902 27.3919 21.1902 27.3919C21.1902 27.3919 21.1902 27.3919 21.1902 27.3919C21.1902 27.3919 21.1902 27.3919 21.1902 27.3919C21.1902 27.3919 21.1902 27.3919 21.1902 27.3919C21.1902 27.3919 21.1902 27.3919 21.1902 27.3919C21.1902 27.3919 21.1902 27.3919 21.1902 27.3919C21.1902 27.3919 21.1902 27.3919 21.1902 27.3919C21.1902 27.3919 21.1902 27.3919 21.1902 27.3919C21.1902 27.3919 21.1902 27.3919 21.1902 27.3919C21.1902 27.3919 21.1902 27.3919 21.1902 27.3919C21.1902 27.3919 21.1902 27.3919 21.1902 27.3919C21.1902 27.3919 21.1902 27.3919 21.1902 27.3919C21.1902 27.3919 21.1902 27.3919 21.1902 27.3919C21.1902 27.3919 21.1902 27.3919 21.1902 27.3919C21.1902 27.3919 21.1902 27.3919 21.1902 27.3919C21.1902 27.3919 21.1902 27.3919 21.1902 27.3919C21.1902 27.3919 21.1902 27.3919 21.1902 27.3919C21.1902 27.3919 21.1902 27.3919 21.1902 27.3919C21.1902 27.3919 21.1902 27.3919 21.1902 27.3919C21.1902 27.3919 21.1902 27.3919 21.1902 27.3919C21.1902 27.3919 21.1902 27.3919 21.1902 27.3919C21.1902 27.3919 21.1902 27.3919 21.1902 27.3919C21.1902 27.3919 21.1902 27.3919 21.1902 27.3919C21.1902 27.3919 21.1902 27.3919 21.1902 27.3919C21.1902 27.3919 21.1902 27.3919 21.1902 27.3919C21.1902 27.3919 21.1902 27.3919 21.1902 27.3919C21.1902 27.3919 21.1902 27.3919 21.1902 27.3919C21.1902 27.3919 21.1902 27.3919 21.1902 27.3919C21.1902 27.3919 21.1902 27.3919 21.1902 27.3919C21.1902 27.3919 21.1902 27.3919 21.1902 27.3919C21.1902 27.3919 21.1902 27.3919 21.1902 27.3919C21.1902 27.3919 21.1902 27.3919 21.1902 27.3919C21.1902 27.3919 21.1902 27.3919 21.1902 27.3919C21.1902 27.3919 21.1902 27.3919 21.1902 27.3919C21.1902 27.3919 21.1902 27.3919 21.1902 27.3919C21.1902 27.3919 21.1902 27.3919 21.1902 27.3919C21.1902 27.3919 21.1902 27.3919 21.1902 27.3919C21.1902 27.392 21.1902 27.392 21.1902 27.392C21.1902 27.392 21.1902 27.392 21.1902 27.392C21.1902 27.392 21.1902 27.392 21.1902 27.392C21.1902 27.392 21.1902 27.392 21.1902 27.392C21.1902 27.392 21.1902 27.392 21.1902 27.392C21.1902 27.392 21.1902 27.392 21.1902 27.392C21.1902 27.392 21.1902 27.392 21.1902 27.392C21.1902 27.392 21.1902 27.392 21.1902 27.392C21.1902 27.392 21.1902 27.392 21.1902 27.392C21.1902 27.392 21.1902 27.392 21.1902 27.392C21.1902 27.392 21.1902 27.392 21.1902 27.392C21.1902 27.392 21.1902 27.392 21.1902 27.392C21.1902 27.392 21.1902 27.392 21.1902 27.392C21.1902 27.392 21.1902 27.392 21.1902 27.392C21.1902 27.392 21.1902 27.392 21.1902 27.392C21.1902 27.392 21.1902 27.392 21.1902 27.392C21.1902 27.392 21.1902 27.392 21.1902 27.392C21.1902 27.392 21.1902 27.392 21.1902 27.392C21.1902 27.392 21.1902 27.392 21.1902 27.392C21.1902 27.392 21.1902 27.392 21.1902 27.392C21.1902 27.392 21.1902 27.392 21.1902 27.392C21.1902 27.392 21.1902 27.392 21.1902 27.392C21.1902 27.392 21.1902 27.392 21.1902 27.392C21.1902 27.392 21.1902 27.392 21.1902 27.392C21.1902 27.392 21.1902 27.392 21.1902 27.392C21.1902 27.392 21.1902 27.392 21.1902 27.392C21.1902 27.392 21.1902 27.392 21.1902 27.392C21.1902 27.392 21.1902 27.392 21.1902 27.392C21.1902 27.392 21.1902 27.392 21.1902 27.392C21.1902 27.392 21.1902 27.392 21.1902 27.392C21.1902 27.392 21.1902 27.392 21.1902 27.392C21.1902 27.392 21.1902 27.392 21.1902 27.392C21.1902 27.392 21.1902 27.392 21.1902 27.392C21.1902 27.392 21.1902 27.392 21.1902 27.392C21.1902 27.392 21.1902 27.392 21.1902 27.392C21.1902 27.392 21.1902 27.392 21.1902 27.392C21.1902 27.392 21.1902 27.392 21.1902 27.392C21.1902 27.392 21.1902 27.392 21.1902 27.392C21.1902 27.392 21.1902 27.392 21.1902 27.392C21.1902 27.392 21.1902 27.392 21.1902 27.392C21.1902 27.392 21.1902 27.392 21.1902 27.392C21.1902 27.392 21.1902 27.392 21.1902 27.392C21.1902 27.392 21.1902 27.392 21.1902 27.392C21.1902 27.3921 21.1902 27.3921 21.1902 27.3921C21.1902 27.3921 21.1902 27.3921 21.1902 27.3921C21.1902 27.3921 21.1902 27.3921 21.1902 27.3921C21.1902 27.3921 21.1902 27.3921 21.1902 27.3921C21.1902 27.3921 21.1902 27.3921 21.1902 27.3921C21.1902 27.3921 21.1902 27.3921 21.1902 27.3921C21.1902 27.3921 21.1902 27.3921 21.1902 27.3921C21.1902 27.3921 21.1902 27.3921 21.1902 27.3921C21.1902 27.3921 21.1902 27.3921 21.1902 27.3921C21.1902 27.3921 21.1902 27.3921 21.1902 27.3921C21.1902 27.3921 21.1902 27.3921 21.1902 27.3921C21.1902 27.3921 21.1902 27.3921 21.1902 27.3921C21.1902 27.3921 21.1902 27.3921 21.1902 27.3921C21.1902 27.3921 21.1902 27.3921 21.1902 27.3921C21.1902 27.3921 21.1902 27.3921 21.1902 27.3921C21.1902 27.3921 21.1902 27.3921 21.1902 27.3921C21.1902 27.3921 21.1902 27.3921 21.1902 27.3921C21.1902 27.3921 21.1902 27.3921 21.1902 27.3921C21.1902 27.3921 21.1902 27.3921 21.1902 27.3921C21.1902 27.3921 21.1902 27.3921 21.1902 27.3921C21.1902 27.3921 21.1902 27.3921 21.1902 27.3921C21.1902 27.3921 21.1902 27.3921 21.1902 27.3921C21.1902 27.3921 21.1902 27.3921 21.1902 27.3921C21.1902 27.3921 21.1902 27.3921 21.1902 27.3921C21.1902 27.3921 21.1902 27.3921 21.1902 27.3921C21.1902 27.3921 21.1902 27.3921 21.1902 27.3921C21.1902 27.3921 21.1902 27.3921 21.1902 27.3921C21.1902 27.3921 21.1902 27.3921 21.1902 27.3921C21.1902 27.3921 21.1902 27.3921 21.1902 27.3921C21.1902 27.3921 21.1902 27.3921 21.1902 27.3921C21.1902 27.3921 21.1902 27.3921 21.1902 27.3921C21.1902 27.3921 21.1902 27.3921 21.1902 27.3921C21.1902 27.3921 21.1902 27.3921 21.1902 27.3921C21.1902 27.3921 21.1902 27.3921 21.1902 27.3921C21.1902 27.3921 21.1902 27.3921 21.1902 27.3921C21.1902 27.3921 21.1902 27.3921 21.1902 27.3921V27.3921C21.1902 27.3921 21.1902 27.3921 21.1902 27.3921C21.1902 27.3921 21.1902 27.3921 21.1902 27.3921C21.1902 27.3921 21.1902 27.3921 21.1902 27.3921C21.1902 27.3921 21.1902 27.3921 21.1902 27.3921C21.1902 27.3921 21.1902 27.3921 21.1902 27.3921C21.1902 27.3921 21.1902 27.3921 21.1902 27.3921C21.1902 27.3921 21.1902 27.3921 21.1902 27.3921C21.1902 27.3921 21.1902 27.3921 21.1902 27.3921V27.3921C21.1902 27.3921 21.1902 27.3921 21.1902 27.3921C21.1902 27.3921 21.1902 27.3921 21.1902 27.3921C21.1902 27.3921 21.1902 27.3921 21.1902 27.3921C21.1902 27.3921 21.1902 27.3921 21.1902 27.3921V27.3921C21.1902 27.3921 21.1902 27.3921 21.1902 27.3921C21.1902 27.3922 21.1902 27.3922 21.1902 27.3922C21.1902 27.3922 21.1902 27.3922 21.1902 27.3922C21.1902 27.3922 21.1902 27.3922 21.1902 27.3922V27.3922C21.1902 27.3922 21.1902 27.3922 21.1902 27.3922C21.1902 27.3922 21.1902 27.3922 21.1902 27.3922V27.3922C21.1902 27.3922 21.1902 27.3922 21.1902 27.3922C21.1902 27.3922 21.1902 27.3922 21.1902 27.3922C21.1902 27.3922 21.1902 27.3922 21.1902 27.3922V27.3922C21.1902 27.3922 21.1902 27.3922 21.1902 27.3922V27.3922C21.1902 27.3922 21.1902 27.3922 21.1902 27.3922C21.1902 27.3922 21.1902 27.3922 21.1902 27.3922V27.3922C21.1902 27.3922 21.1902 27.3922 21.1902 27.3922C21.1902 27.3922 21.1902 27.3922 21.1902 27.3922V27.3922C21.1902 27.3922 21.1902 27.3922 21.1902 27.3922V27.3922C21.1902 27.3922 21.1902 27.3922 21.1902 27.3922V27.3922C21.1902 27.3922 21.1902 27.3922 21.1902 27.3922V27.3922C21.1902 27.3922 21.1902 27.3922 21.1902 27.3922V27.3922C21.1902 27.3922 21.1902 27.3922 21.1902 27.3922V27.3922C21.1902 27.3922 21.1902 27.3922 21.1902 27.3922V27.3922C21.1902 27.3922 21.1902 27.3922 21.1902 27.3922V27.3922C21.1902 27.3922 21.1902 27.3922 21.1902 27.3922V27.3922C21.1902 27.3922 21.1902 27.3922 21.1902 27.3922C21.1902 27.3922 21.1902 27.3922 21.1902 27.3922V27.3922C21.1902 27.3922 21.1902 27.3922 21.1902 27.3922V27.3922V27.3922C21.1902 27.3922 21.1902 27.3922 21.1902 27.3922V27.3922V27.3922C21.1902 27.3922 21.1902 27.3922 21.1902 27.3922V27.3922V27.3922C21.1902 27.3922 21.1902 27.3922 21.1902 27.3922C21.1902 27.3922 21.1902 27.3922 21.1902 27.3922V27.3922V27.3922C21.1902 27.3922 21.1902 27.3922 21.1902 27.3922C21.1902 27.3922 21.1902 27.3922 21.1902 27.3922V27.3922V27.3922V27.3922C21.1902 27.3922 21.1902 27.3922 21.1902 27.3922C21.1902 27.3922 21.1902 27.3922 21.1902 27.3922C21.1902 27.3922 21.1902 27.3922 21.1902 27.3922V27.3922V27.3922V27.3922V27.3922C21.1902 27.3922 21.1902 27.3922 21.1902 27.3922C21.1902 27.3922 21.1902 27.3922 21.1902 27.3922C21.1902 27.3922 21.1902 27.3922 21.1902 27.3922C21.1902 27.3922 21.1902 27.3922 21.1902 27.3922C21.1902 27.3922 21.1902 27.3922 21.1902 27.3922C21.1902 27.3922 21.1902 27.3922 21.1902 27.3922C21.1902 27.3922 21.1902 27.3922 21.1902 27.3922C21.1902 27.3922 21.1902 27.3922 21.1902 27.3922C21.1902 27.3922 21.1902 27.3922 21.1902 27.3922C21.1902 27.3922 21.1902 27.3922 21.1902 27.3922C21.1902 27.3922 21.1902 27.3922 21.1902 27.3922C21.1902 27.3922 21.1902 27.3922 21.1902 27.3922C21.1902 27.3923 21.1902 27.3923 21.1902 27.3923C21.1902 27.3923 21.1902 27.3923 21.1902 27.3923C21.1902 27.3923 21.1902 27.3923 21.1902 27.3923V27.3923V27.3923V27.3923C21.1902 27.3923 21.1902 27.3923 21.1902 27.3923C21.1902 27.3923 21.1902 27.3923 21.1902 27.3923C21.1902 27.3923 21.1902 27.3923 21.1902 27.3923V27.3923V27.3923C21.1902 27.3923 21.1902 27.3923 21.1902 27.3923C21.1902 27.3923 21.1902 27.3923 21.1902 27.3923V27.3923C21.1902 27.3923 21.1902 27.3923 21.1902 27.3923C21.1902 27.3923 21.1902 27.3923 21.1902 27.3923V27.3923C21.1902 27.3923 21.1902 27.3923 21.1902 27.3923V27.3923C21.1902 27.3923 21.1902 27.3923 21.1902 27.3923C21.1902 27.3923 21.1902 27.3923 21.1902 27.3923V27.3923C21.1902 27.3923 21.1902 27.3923 21.1902 27.3923C21.1902 27.3923 21.1902 27.3923 21.1902 27.3923V27.3923V27.3923V27.3923C21.1902 27.3923 21.1902 27.3923 21.1902 27.3923C21.1902 27.3923 21.1902 27.3923 21.1902 27.3923V27.3923C21.1902 27.3923 21.1902 27.3923 21.1902 27.3923C21.1902 27.3923 21.1902 27.3923 21.1902 27.3923C21.1902 27.3923 21.1902 27.3923 21.1902 27.3923C21.1902 27.3923 21.1902 27.3923 21.1902 27.3923C21.1902 27.3923 21.1902 27.3923 21.1902 27.3923C21.1902 27.3923 21.1902 27.3923 29.1902 27.3923ZM36.7044 24.6459C35.2001 20.5283 31.2733 17.7717 26.8762 17.7717V33.7717C24.5406 33.7717 22.4729 32.3176 21.676 30.1363L36.7044 24.6459ZM26.8762 17.7717C23.4658 17.7717 20.2631 19.4355 18.304 22.2359L31.4145 31.4074C30.3756 32.8924 28.6813 33.7717 26.8762 33.7717V17.7717ZM18.3106 22.2265C16.3448 25.028 15.8799 28.6073 17.0437 31.8083L32.0808 26.3414C32.6962 28.0341 32.4523 29.9285 31.4079 31.4168L18.3106 22.2265ZM17.0434 31.8074L17.8905 34.1384L32.9282 28.6732L32.0811 26.3423L17.0434 31.8074ZM27.1401 23.5953C26.9993 23.5641 26.8826 23.5416 26.8394 23.5334C26.8274 23.531 26.8162 23.5289 26.8103 23.5278C26.8029 23.5264 26.801 23.526 26.7998 23.5258C26.7974 23.5253 26.812 23.5281 26.8343 23.5326C26.8773 23.5413 26.9835 23.5631 27.1225 23.5979C27.2643 23.6335 27.4572 23.6867 27.6836 23.7639L22.519 38.9074C23.0555 39.0904 23.5005 39.1824 23.675 39.2176C23.7231 39.2273 23.7635 39.2351 23.7869 39.2396C23.7986 39.2418 23.8096 39.2439 23.8151 39.2449C23.8221 39.2463 23.8238 39.2466 23.8247 39.2468C23.8331 39.2484 23.768 39.2361 23.6786 39.2163L27.1401 23.5953ZM27.6305 23.746L20.4167 21.342L15.3582 36.5213L22.572 38.9253L27.6305 23.746ZM20.4163 21.3418C14.5519 19.3879 8.10596 21.4008 4.39922 26.3497L17.2054 35.9415C16.7784 36.5115 16.0257 36.7437 15.3587 36.5214L20.4163 21.3418ZM4.40243 26.3455L-5.56031 39.6283L7.23942 49.2287L17.2022 35.9458L4.40243 26.3455ZM-5.55911 39.6267C-9.2073 44.4882 -8.71476 51.32 -4.42667 55.6114L6.89151 44.3022C8.22253 45.6343 8.37598 47.7142 7.23821 49.2303L-5.55911 39.6267ZM-4.42443 55.6137C-2.12273 57.9154 0.987136 59.1957 4.22107 59.1957V43.1957C5.21937 43.1957 6.18246 43.5931 6.88928 44.3L-4.42443 55.6137ZM4.22107 59.1957C4.55207 59.1957 4.8942 59.1823 5.24606 59.1526L3.89765 43.2095C4.01448 43.1996 4.12276 43.1957 4.22107 43.1957V59.1957ZM5.22907 59.154C8.81522 58.8584 12.0839 57.0024 14.1755 54.0734L1.15478 44.775C1.79772 43.8747 2.81084 43.2991 3.91464 43.2081L5.22907 59.154ZM14.1748 54.0745L22.3556 42.6227L9.33632 33.3222L1.15553 44.774L14.1748 54.0745ZM22.3709 42.601C20.6164 45.0745 17.3978 45.9623 14.6421 44.7825L20.9388 30.0737C16.7928 28.2988 11.9431 29.6473 9.32093 33.3438L22.3709 42.601ZM14.6387 44.7811L24.1893 48.8747L30.4927 34.1687L20.9421 30.0751L14.6387 44.7811ZM24.188 48.8742C25.7015 49.5232 27.1423 49.8129 28.3227 49.953L30.2085 34.0645C30.0688 34.0479 30.2129 34.0487 30.494 34.1693L24.188 48.8742ZM21.7469 44.7415L23.4511 49.4303L38.4886 43.9647L36.7844 39.2759L21.7469 44.7415ZM23.4556 49.4427C24.9599 53.5602 28.8868 56.3169 33.2838 56.3169V40.3169C35.6194 40.3169 37.6872 41.771 38.4841 43.9522L23.4556 49.4427ZM33.2838 56.3169C36.6943 56.3169 39.897 54.6531 41.856 51.8527L28.7456 42.6812C29.7844 41.1962 31.4788 40.3169 33.2838 40.3169V56.3169ZM41.8494 51.862C43.8127 49.0642 44.2833 45.4833 43.1144 42.2751L28.0812 47.7524C27.4618 46.0525 27.7103 44.1565 28.7522 42.6718L41.8494 51.862ZM43.1161 42.2796L41.5878 38.0773L26.5513 43.5455L28.0795 47.7478L43.1161 42.2796ZM38.6732 47.3541C40.3174 46.1971 41.7903 44.6762 42.9005 42.8263L29.1814 34.593C29.2931 34.4069 29.4037 34.3125 29.466 34.2687L38.6732 47.3541ZM42.9009 42.8255L51.0174 29.2977L37.2974 21.0659L29.181 34.5937L42.9009 42.8255ZM51.016 29.3001C53.2415 25.5938 53.5665 21.1111 51.9193 17.1296L37.1346 23.2461C36.8496 22.5573 36.908 21.7145 37.2989 21.0635L51.016 29.3001ZM51.917 17.1242C50.2648 13.1386 46.8615 10.2041 42.6747 9.15742L38.7941 24.6797C38.0636 24.4971 37.4245 23.9456 37.1368 23.2515L51.917 17.1242ZM31.2984 32.2909L21.7466 28.1967L15.4432 42.9027L24.9949 46.9969L31.2984 32.2909ZM21.7353 28.1918C16.7347 26.0575 10.851 27.675 7.66759 32.1424L20.6977 41.4276C19.4915 43.1203 17.3238 43.7054 15.4545 42.9075L21.7353 28.1918ZM7.67283 32.135L-0.506785 43.5863L12.5129 52.8862L20.6925 41.435L7.67283 32.135ZM-0.509281 43.5898C0.486536 42.1941 2.04588 41.3127 3.74272 41.1721L5.06424 57.1174C8.04494 56.8704 10.7712 55.3272 12.5154 52.8827L-0.509281 43.5898ZM3.73064 41.1731C5.44637 41.0283 7.12752 41.6484 8.33391 42.8547L-2.9798 54.1685C-0.861377 56.2869 2.08608 57.3688 5.07632 57.1164L3.73064 41.1731ZM8.33607 42.8569C10.3807 44.9031 10.6175 48.1303 8.87256 50.4559L-3.92536 40.8531C-6.96703 44.9068 -6.55483 50.5907 -2.98196 54.1663L8.33607 42.8569ZM8.87357 50.4545L18.8363 37.1711L6.03639 27.571L-3.92636 40.8544L8.87357 50.4545ZM18.8397 37.1666C17.8855 38.4406 16.2151 38.9623 14.7058 38.458L19.776 23.2826C14.746 21.602 9.2123 23.3303 6.03303 27.5755L18.8397 37.1666ZM14.7114 38.4599L21.9246 40.8639L26.9835 25.6847L19.7703 23.2807L14.7114 38.4599ZM21.9243 40.8638C23.5467 41.4046 25.0836 41.5411 26.3971 41.5044L25.9511 25.5107C26.0906 25.5068 26.477 25.5158 26.9839 25.6848L21.9243 40.8638ZM18.6557 36.2413L20.9217 42.4735L35.9586 37.006L33.6925 30.7738L18.6557 36.2413ZM31.1595 32.2161C30.9503 32.1405 30.7772 32.0868 30.6798 32.0574C30.6303 32.0425 30.5888 32.0304 30.5684 32.0244C30.5594 32.0218 30.5472 32.0182 30.5455 32.0177C30.5409 32.0164 30.5418 32.0166 30.5445 32.0175C30.5496 32.0189 30.574 32.0261 30.6082 32.0366C30.6431 32.0474 30.6949 32.0636 30.7582 32.0848C30.8834 32.1267 31.0743 32.1946 31.3034 32.293L24.9898 46.9947C25.2666 47.1136 25.5059 47.1993 25.6799 47.2575C25.8484 47.3139 25.9871 47.3548 26.0409 47.3706C26.056 47.375 26.0692 47.3788 26.077 47.3811C26.0876 47.3842 26.0878 47.3842 26.0911 47.3852C26.0953 47.3864 26.0785 47.3815 26.0536 47.374C26.0055 47.3595 25.8814 47.3215 25.7207 47.2634L31.1595 32.2161ZM27.1061 41.4611C27.833 40.438 29.8422 38.273 33.2838 38.273V54.273C37.1054 54.273 39.3274 51.8847 40.149 50.7284L27.1061 41.4611ZM33.2838 38.273C36.4422 38.273 39.3145 40.2402 40.4128 43.2766L25.3668 48.7188C26.5843 52.0849 29.7747 54.273 33.2838 54.273V38.273ZM40.4081 43.2637L34.0005 25.6429L18.9638 31.1108L25.3714 48.7316L40.4081 43.2637ZM34.0127 25.6767C35.159 28.8736 33.8542 31.4882 33.0815 32.5893L19.9846 23.3985C19.1184 24.6328 17.6779 27.5246 18.9516 31.0769L34.0127 25.6767ZM33.0815 32.5893C32.3278 33.6633 30.3086 35.8156 26.8762 35.8156V19.8156C23.065 19.8156 20.8318 22.1912 19.9846 23.3985L33.0815 32.5893ZM26.8762 35.8156C23.6882 35.8156 20.8309 33.8197 19.7442 30.8047L34.7964 25.3795C33.5904 22.0336 30.4162 19.8156 26.8762 19.8156V35.8156ZM19.7521 30.8264L26.1602 48.4461L41.1967 42.9775L34.7885 25.3578L19.7521 30.8264ZM26.1479 48.4119C25.0016 45.215 26.3064 42.6004 27.0791 41.4993L40.176 50.6901C41.0423 49.4558 42.4827 46.564 41.209 43.0117L26.1479 48.4119ZM35.546 20.0145L27.4289 33.5424L41.1487 41.7746L49.2657 28.2467L35.546 20.0145ZM27.4313 33.5383C27.6395 33.1919 27.8572 32.9609 28.0145 32.8208L38.6584 44.7668C39.5558 43.9673 40.4259 42.9774 41.1463 41.7786L27.4313 33.5383ZM40.8547 36.0598L37.9678 28.121L22.9312 33.5891L25.8181 41.5278L40.8547 36.0598ZM37.3955 34.8242L43.2722 24.5399L29.3803 16.6017L23.5036 26.886L37.3955 34.8242ZM43.2724 24.5396C42.2705 26.293 40.2488 27.1484 38.3037 26.6632L42.1759 11.1389C37.1837 9.8937 31.9406 12.1206 29.3801 16.602L43.2724 24.5396ZM38.2976 26.6617C36.932 26.32 35.7882 25.3309 35.2514 24.0382L50.028 17.902C48.6259 14.5256 45.7341 12.0294 42.182 11.1404L38.2976 26.6617ZM35.247 24.0275C34.7114 22.7324 34.8208 21.2236 35.5452 20.0159L49.2665 28.2454C51.1508 25.1037 51.4298 21.2914 50.0324 17.9126L35.247 24.0275Z" fill="url(#paint1_linear)" mask="url(#path-3-inside-2)"/>
<mask id="path-5-inside-3" fill="white">
<path d="M53.8741 12.4299C52.7024 11.5494 51.0275 11.7213 50.0581 12.821L46.2212 17.1806C45.7032 17.7693 45.453 18.5539 45.5325 19.3332C45.6126 20.1126 46.0177 20.8299 46.6445 21.3011C47.1473 21.6788 47.743 21.863 48.3358 21.863C49.1239 21.863 49.9067 21.5373 50.4598 20.91L54.2973 16.5504C54.8147 15.9617 55.0655 15.1765 54.9854 14.3972C54.9053 13.6179 54.5008 12.9005 53.8741 12.4299ZM52.7627 15.2005L48.9251 19.5595C48.6579 19.8641 48.1961 19.9114 47.8728 19.6676C47.6968 19.5355 47.5887 19.3432 47.5653 19.1245C47.5436 18.9065 47.6115 18.6948 47.7559 18.53L51.5934 14.1709C51.746 13.9973 51.9611 13.9073 52.1792 13.9073C52.3429 13.9073 52.5072 13.9581 52.6457 14.0633C52.8217 14.1949 52.9305 14.3872 52.9533 14.6059C52.9755 14.8245 52.9071 15.0362 52.7627 15.2005Z"/>
</mask>
<path d="M50.0581 12.821L44.0567 7.53109L44.0528 7.5356L50.0581 12.821ZM46.2212 17.1806L40.2158 11.8952L40.215 11.8961L46.2212 17.1806ZM45.5325 19.3332L37.5738 20.1452L37.5744 20.1511L45.5325 19.3332ZM46.6445 21.3011L41.8368 27.6954L41.8397 27.6975L46.6445 21.3011ZM50.4598 20.91L56.4606 26.2006L56.4648 26.1959L50.4598 20.91ZM54.2973 16.5504L60.3023 21.8362L60.3065 21.8315L54.2973 16.5504ZM54.9854 14.3972L62.9435 13.5793V13.5793L54.9854 14.3972ZM52.7627 15.2005L58.7673 20.4867L58.7713 20.4821L52.7627 15.2005ZM48.9251 19.5595L42.9205 14.2732L42.9157 14.2787L42.911 14.2841L48.9251 19.5595ZM47.8728 19.6676L52.6894 13.2801L52.6828 13.2752L52.6762 13.2702L47.8728 19.6676ZM47.5653 19.1245L39.6043 19.9142L39.6074 19.9448L39.6106 19.9753L47.5653 19.1245ZM47.7559 18.53L41.7512 13.2437L41.7446 13.2513L41.7379 13.2589L47.7559 18.53ZM51.5934 14.1709L57.598 19.4572L57.6027 19.4518L51.5934 14.1709ZM52.6457 14.0633L47.8071 20.4342L47.8315 20.4527L47.856 20.471L52.6457 14.0633ZM52.9533 14.6059L60.9123 13.7972L60.9112 13.7867L60.9101 13.7762L52.9533 14.6059ZM58.6802 6.03448C54.167 2.64282 47.7854 3.30095 44.0567 7.53109L56.0595 18.1109C54.2696 20.1417 51.2379 20.456 49.0679 18.8253L58.6802 6.03448ZM44.0528 7.5356L40.2158 11.8952L52.2266 22.466L56.0635 18.1064L44.0528 7.5356ZM40.215 11.8961C38.2219 14.1615 37.2689 17.1569 37.5738 20.1452L53.4912 18.5212C53.637 19.9509 53.1845 21.3772 52.2274 22.4651L40.215 11.8961ZM37.5744 20.1511C37.8823 23.1471 39.4294 25.8853 41.8368 27.6954L51.4521 14.9068C52.6061 15.7745 53.3429 17.078 53.4906 18.5153L37.5744 20.1511ZM41.8397 27.6975C43.7889 29.1617 46.0876 29.8629 48.3358 29.8629V13.863C49.3984 13.863 50.5056 14.1959 51.4492 14.9047L41.8397 27.6975ZM48.3358 29.8629C51.3054 29.8629 54.3145 28.6348 56.4606 26.2006L44.459 15.6194C45.499 14.4398 46.9424 13.863 48.3358 13.863V29.8629ZM56.4648 26.1959L60.3023 21.8362L48.2924 11.2645L44.4548 15.6241L56.4648 26.1959ZM60.3065 21.8315C62.2943 19.5696 63.2513 16.5741 62.9435 13.5793L47.0274 15.2151C46.8798 13.7788 47.3352 12.3537 48.2882 11.2693L60.3065 21.8315ZM62.9435 13.5793C62.6361 10.5879 61.0924 7.84588 58.6779 6.03275L49.0702 18.827C47.9092 17.9551 47.1746 16.6478 47.0274 15.2151L62.9435 13.5793ZM46.758 9.9142L42.9205 14.2732L54.9297 24.8457L58.7673 20.4867L46.758 9.9142ZM42.911 14.2841C45.4059 11.4398 49.6678 11.0017 52.6894 13.2801L43.0562 26.0552C46.7244 28.8212 51.91 28.2884 54.9393 24.8349L42.911 14.2841ZM52.6762 13.2702C54.2949 14.4856 55.3101 16.3124 55.5199 18.2738L39.6106 19.9753C39.8672 22.3739 41.0987 24.5854 43.0694 26.0651L52.6762 13.2702ZM55.5262 18.3348C55.7229 20.3182 55.0878 22.3008 53.7738 23.801L41.7379 13.2589C40.1351 15.0888 39.3643 17.4947 39.6043 19.9142L55.5262 18.3348ZM53.7605 23.8162L57.598 19.4572L45.5888 8.88466L41.7512 13.2437L53.7605 23.8162ZM57.6027 19.4518C56.1671 21.0855 54.1549 21.9073 52.1792 21.9073V5.90725C49.7673 5.90725 47.3249 6.90911 45.5841 8.89L57.6027 19.4518ZM52.1792 21.9073C50.6837 21.9073 49.1289 21.4381 47.8071 20.4342L57.4844 7.6925C55.8854 6.47811 54.0021 5.90725 52.1792 5.90725V21.9073ZM47.856 20.471C46.2349 19.2592 45.2038 17.4247 44.9964 15.4356L60.9101 13.7762C60.6571 11.3498 59.4086 9.13057 57.4355 7.65569L47.856 20.471ZM44.9942 15.4146C44.7905 13.4097 45.4369 11.4172 46.754 9.91881L58.7713 20.4821C60.3772 18.6552 61.1604 16.2394 60.9123 13.7972L44.9942 15.4146Z" fill="url(#paint2_linear)" mask="url(#path-5-inside-3)"/>
<mask id="path-7-inside-4" fill="white">
<path d="M18.6439 21.5273C20.2124 22.154 21.6927 22.7457 22.983 23.3882C23.836 23.8132 24.7328 24.0243 25.639 24.0243C26.8135 24.0243 28.0038 23.67 29.1398 22.9673C32.4354 20.9263 34.9224 16.2165 34.9224 12.0118C34.9224 7.80711 32.436 3.09789 29.1398 1.05693C27.1275 -0.188343 24.9421 -0.339178 22.983 0.635992C21.6927 1.2785 20.2118 1.87015 18.6439 2.49688C13.4681 4.56473 7.60187 6.90795 7.60187 12.0118C7.60187 17.1157 13.4681 19.4595 18.6439 21.5273ZM19.4015 4.39402C21.0104 3.75209 22.5287 3.14524 23.895 2.46473C24.4686 2.17884 25.0544 2.03619 25.6489 2.03619C26.4399 2.03619 27.2485 2.28934 28.0646 2.79446C30.7633 4.46593 32.8785 8.5151 32.8785 12.0124C32.8785 15.5091 30.7633 19.5583 28.0646 21.2297C26.6346 22.1154 25.2315 22.2259 23.895 21.5595C22.5287 20.8789 21.0104 20.2721 19.4015 19.6302C14.6058 17.7132 9.64575 15.7318 9.64575 12.0124C9.64575 8.29236 14.6058 6.31103 19.4015 4.39402Z"/>
</mask>
<path d="M18.6439 21.5273L21.6121 14.0983L21.6119 14.0983L18.6439 21.5273ZM22.983 23.3882L26.5509 16.2279L26.549 16.2269L22.983 23.3882ZM29.1398 22.9673L33.3486 29.7706L33.3519 29.7686L29.1398 22.9673ZM29.1398 1.05693L33.3513 -5.74476L33.3495 -5.74587L29.1398 1.05693ZM22.983 0.635992L19.4181 -6.52583L19.417 -6.52526L22.983 0.635992ZM18.6439 2.49688L21.6119 9.92591L21.6131 9.92546L18.6439 2.49688ZM19.4015 4.39402L16.4369 -3.0364L16.4321 -3.03448L19.4015 4.39402ZM23.895 2.46473L27.4617 9.62565L27.464 9.62452L23.895 2.46473ZM28.0646 2.79446L32.2771 -4.00669L32.2748 -4.00808L28.0646 2.79446ZM28.0646 21.2297L23.8522 14.4286L23.8522 14.4286L28.0646 21.2297ZM23.895 21.5595L27.4652 14.4003L27.4617 14.3985L23.895 21.5595ZM19.4015 19.6302L16.4321 27.0587L16.4369 27.0606L19.4015 19.6302ZM15.6756 28.9563C17.3213 29.6138 18.4769 30.0813 19.417 30.5494L26.549 16.2269C24.9085 15.41 23.1036 14.6943 21.6121 14.0983L15.6756 28.9563ZM19.4151 30.5485C21.3475 31.5114 23.4626 32.0243 25.639 32.0243V16.0243C26.003 16.0243 26.3245 16.1151 26.5509 16.2279L19.4151 30.5485ZM25.639 32.0243C28.4648 32.0243 31.0956 31.1644 33.3486 29.7706L24.931 16.1639C24.9153 16.1736 24.9701 16.1373 25.0991 16.0985C25.2308 16.0589 25.4153 16.0243 25.639 16.0243V32.0243ZM33.3519 29.7686C36.4845 27.8286 38.8127 24.932 40.3417 22.0357C41.8852 19.1117 42.9224 15.6103 42.9224 12.0118H26.9224C26.9224 12.618 26.7161 13.5739 26.1922 14.5662C25.6538 15.5862 25.0907 16.065 24.9277 16.1659L33.3519 29.7686ZM42.9224 12.0118C42.9224 8.41359 41.8855 4.91237 40.3419 1.98823C38.8128 -0.908293 36.4844 -3.80479 33.3513 -5.74476L24.9282 7.85861C25.0913 7.95961 25.6542 8.4382 26.1924 9.45771C26.716 10.4496 26.9224 11.4053 26.9224 12.0118H42.9224ZM33.3495 -5.74587C29.2185 -8.30228 24.0949 -8.85377 19.4181 -6.52583L26.5479 7.79781C26.2827 7.9298 25.9024 8.02303 25.4944 7.99507C25.1046 7.96835 24.9106 7.84771 24.93 7.85972L33.3495 -5.74587ZM19.417 -6.52526C18.477 -6.05717 17.3217 -5.59003 15.6746 -4.9317L21.6131 9.92546C23.102 9.33034 24.9085 8.61418 26.549 7.79724L19.417 -6.52526ZM15.6758 -4.93215C13.3142 -3.98864 9.6121 -2.55452 6.58843 -0.433938C3.3838 1.81355 -0.398132 5.79461 -0.398132 12.0118H15.6019C15.6019 12.3823 15.4641 12.781 15.3053 13.0251C15.2081 13.1744 15.2559 13.03 15.7755 12.6656C16.2897 12.305 17.0363 11.8875 18.0896 11.4009C19.1439 10.9139 20.2835 10.4567 21.6119 9.92591L15.6758 -4.93215ZM-0.398132 12.0118C-0.398132 18.2288 3.3836 22.21 6.58813 24.4576C9.61186 26.5784 13.3139 28.0127 15.6758 28.9563L21.6119 14.0983C20.2836 13.5676 19.1441 13.1103 18.0899 12.6233C17.0366 12.1367 16.29 11.7192 15.7758 11.3585C15.2562 10.9941 15.2083 10.8496 15.3054 10.9988C15.4641 11.2427 15.6019 11.6414 15.6019 12.0118H-0.398132ZM22.3661 11.8244C23.9083 11.2092 25.7459 10.4803 27.4617 9.62565L20.3284 -4.6962C19.3116 -4.18978 18.1126 -3.70497 16.4369 -3.0364L22.3661 11.8244ZM27.464 9.62452C27.0111 9.85027 26.3817 10.0362 25.6489 10.0362V-5.96381C23.7271 -5.96381 21.926 -5.49259 20.3261 -4.69506L27.464 9.62452ZM25.6489 10.0362C24.6687 10.0362 24.0379 9.71049 23.8545 9.597L32.2748 -4.00808C30.4591 -5.13182 28.2112 -5.96381 25.6489 -5.96381V10.0362ZM23.8522 9.59561C23.7145 9.51033 23.7505 9.50301 23.8997 9.67585C24.0415 9.84016 24.2201 10.0923 24.3925 10.4223C24.5637 10.75 24.6948 11.0899 24.7784 11.4021C24.8634 11.7194 24.8785 11.9291 24.8785 12.0124H40.8785C40.8785 8.75208 39.9259 5.60238 38.5747 3.01523C37.2442 0.467768 35.1677 -2.2163 32.2771 -4.00669L23.8522 9.59561ZM24.8785 12.0124C24.8785 12.0954 24.8634 12.3049 24.7784 12.6222C24.6948 12.9343 24.5637 13.2741 24.3925 13.6019C24.2202 13.9318 24.0416 14.184 23.8997 14.3483C23.7505 14.5212 23.7145 14.5139 23.8522 14.4286L32.2771 28.0309C35.1677 26.2405 37.2442 23.5565 38.5746 21.0092C39.9258 18.4222 40.8785 15.2726 40.8785 12.0124H24.8785ZM23.8522 14.4286C24.007 14.3327 24.5118 14.0649 25.3147 14.0015C26.1616 13.9346 26.9217 14.1293 27.4652 14.4003L20.3248 28.7186C24.4908 30.7961 28.8413 30.1589 32.2771 28.0308L23.8522 14.4286ZM27.4617 14.3985C25.7459 13.5439 23.9083 12.815 22.3661 12.1997L16.4369 27.0606C18.1126 27.7292 19.3116 28.214 20.3284 28.7204L27.4617 14.3985ZM22.3709 12.2017C21.1403 11.7097 20.0951 11.2906 19.1407 10.8605C18.1827 10.4288 17.5284 10.0788 17.096 9.79668C16.6384 9.49821 16.7215 9.46289 16.9545 9.78162C17.2698 10.213 17.6457 11.013 17.6457 12.0124H1.64575C1.64575 18.002 5.7859 21.5222 8.35451 23.1977C10.9956 24.9205 14.2549 26.1884 16.4321 27.0587L22.3709 12.2017ZM17.6457 12.0124C17.6457 13.0113 17.27 13.8111 16.9547 14.2425C16.7218 14.5612 16.6387 14.5259 17.0961 14.2275C17.5285 13.9454 18.1828 13.5953 19.1407 13.1636C20.0951 12.7336 21.1402 12.3145 22.3709 11.8225L16.4321 -3.03448C14.2549 -2.16419 10.9955 -0.896251 8.35432 0.826691C5.78529 2.50257 1.64575 6.02295 1.64575 12.0124H17.6457Z" fill="url(#paint3_linear)" mask="url(#path-7-inside-4)"/>
<defs>
<linearGradient id="paint0_linear" x1="39.2535" y1="7.45766" x2="44.386" y2="16.7898" gradientUnits="userSpaceOnUse">
<stop stop-color="#FF2D2D"/>
<stop offset="1" stop-color="#0085FA"/>
</linearGradient>
<linearGradient id="paint1_linear" x1="7.40513" y1="22.0804" x2="20.979" y2="54.2963" gradientUnits="userSpaceOnUse">
<stop stop-color="#FF2D2D"/>
<stop offset="1" stop-color="#0085FA"/>
</linearGradient>
<linearGradient id="paint2_linear" x1="47.0799" y1="13.4137" x2="51.8566" y2="21.6533" gradientUnits="userSpaceOnUse">
<stop stop-color="#FF2D2D"/>
<stop offset="1" stop-color="#0085FA"/>
</linearGradient>
<linearGradient id="paint3_linear" x1="12.1021" y1="3.71544" x2="22.4733" y2="25.1607" gradientUnits="userSpaceOnUse">
<stop stop-color="#FF2D2D"/>
<stop offset="1" stop-color="#0085FA"/>
</linearGradient>
</defs>
</svg>
