<svg width="58" height="58" viewBox="0 0 58 58" fill="none" xmlns="http://www.w3.org/2000/svg">
<mask id="path-1-inside-1" fill="white">
<path d="M13.6815 17.8304L16.571 22.1648L19.4606 17.8304L16.571 7.71777L13.6815 17.8304ZM16.571 18.791L15.7187 17.5125L16.571 14.5284L17.4234 17.5125L16.571 18.791Z"/>
</mask>
<path d="M13.6815 17.8304L2.14325 14.5335L0.618567 19.8694L3.69685 24.4868L13.6815 17.8304ZM16.571 22.1648L6.58644 28.8212L16.571 43.7981L26.5556 28.8212L16.571 22.1648ZM19.4606 17.8304L29.4452 24.4868L32.5235 19.8694L30.9988 14.5335L19.4606 17.8304ZM16.571 7.71777L28.1093 4.42084L16.571 -35.9592L5.03283 4.42084L16.571 7.71777ZM16.571 18.791L6.58644 25.4474L16.571 40.4243L26.5556 25.4474L16.571 18.791ZM15.7187 17.5125L4.18014 14.2168L2.65623 19.5521L5.73409 24.1689L15.7187 17.5125ZM16.571 14.5284L28.1096 11.2326L16.571 -29.1647L5.03249 11.2326L16.571 14.5284ZM17.4234 17.5125L27.408 24.1689L30.4859 19.5521L28.9619 14.2168L17.4234 17.5125ZM3.69685 24.4868L6.58644 28.8212L26.5556 15.5084L23.6661 11.174L3.69685 24.4868ZM26.5556 28.8212L29.4452 24.4868L9.47603 11.174L6.58644 15.5084L26.5556 28.8212ZM30.9988 14.5335L28.1093 4.42084L5.03283 11.0147L7.92242 21.1273L30.9988 14.5335ZM5.03283 4.42084L2.14325 14.5335L25.2197 21.1273L28.1093 11.0147L5.03283 4.42084ZM26.5556 12.1346L25.7033 10.8561L5.73409 24.1689L6.58644 25.4474L26.5556 12.1346ZM27.2572 20.8082L28.1096 17.8241L5.03249 11.2326L4.18014 14.2168L27.2572 20.8082ZM5.03249 17.8241L5.88484 20.8082L28.9619 14.2168L28.1096 11.2326L5.03249 17.8241ZM7.43879 10.8561L6.58644 12.1346L26.5556 25.4474L27.408 24.1689L7.43879 10.8561Z" fill="url(#paint0_linear)" mask="url(#path-1-inside-1)"/>
<mask id="path-3-inside-2" fill="white">
<path d="M58 31.8065V30.871C58 29.8391 57.1609 29 56.129 29H52.2861L51.072 22.5247C50.6573 20.3139 48.7246 18.7097 46.4759 18.7097H31.5548C31.7183 17.7874 31.8065 16.8478 31.8065 15.9032C31.8065 7.13398 24.6725 0 15.9032 0C7.13398 0 0 7.13398 0 15.9032C0 24.3564 6.63426 31.2702 14.9677 31.7589V31.8065C14.9677 33.7496 16.461 35.3323 18.358 35.5128L16.7254 37.1453C16.1951 37.6747 15.9032 38.38 15.9032 39.1295V46.7089C15.9032 47.6489 16.3701 48.5218 17.153 49.0435L17.7742 49.4573V55.1936C17.7742 56.7407 19.0335 58 20.5806 58H25.2581C26.8052 58 28.0645 56.7407 28.0645 55.1936V52.3871H44.9032V55.1936C44.9032 56.7407 46.1626 58 47.7097 58H52.3871C53.9342 58 55.1936 56.7407 55.1936 55.1936V49.4573L55.8148 49.0426C56.5977 48.5218 57.0645 47.6489 57.0645 46.7089V39.1295C57.0645 38.38 56.7726 37.6747 56.2423 37.1453L54.6098 35.5128C56.5068 35.3323 58 33.7496 58 31.8065ZM55.1936 42.5513L49.4057 46.6851C49.1065 46.8975 48.6452 46.6591 48.6452 46.2923V44.7191C49.2047 44.5638 49.7387 44.3167 50.2037 43.9677L55.1936 40.2258V42.5513ZM49.0809 42.4709C48.5995 42.8331 48.0016 43.0323 47.3982 43.0323H43.6206C42.9806 42.1013 42.163 41.3148 41.2239 40.7009C42.2448 40.5095 43.257 40.2724 44.2514 39.9572L43.6855 38.1744C41.3522 38.9153 38.9304 39.2903 36.4839 39.2903C31.9339 39.2903 27.5296 37.9899 23.7023 35.5484H49.2764C48.0961 36.3016 46.8509 36.9571 45.5601 37.4897L46.2745 39.22C47.823 38.5805 49.3166 37.7843 50.7135 36.8534L52.2683 35.817L54.7052 38.2539L49.0809 42.4709ZM29.1686 50.5161L29.782 46.8377C30.1374 44.705 31.4511 42.9555 33.2375 41.9862C31.7653 44.5794 30.9504 47.5187 30.887 50.5161H29.1686ZM23.0176 50.5161C22.8326 50.5161 22.6526 50.4618 22.4982 50.359L18.1903 47.4872C17.9295 47.3132 17.7742 47.0222 17.7742 46.7089V44.8498L22.474 48.2076C22.8755 48.4935 23.3478 48.6452 23.8407 48.6452C25.1384 48.6452 26.1935 47.59 26.1935 46.2923V44.9032H28.376C28.1815 45.4226 28.0307 45.9648 27.9362 46.5312L27.272 50.5161H23.0176ZM11.6186 24.3226L14.7937 29.8793C13.8244 29.8026 12.8825 29.6304 11.9781 29.3668L9.09585 24.3226H11.6186ZM13.7733 24.3226H16.2961L18.9687 29H16.8387C16.7113 29 16.5879 29.0132 16.4673 29.0375L13.7733 24.3226ZM20.9735 24.3226L21.4143 25.0945L20.7912 28.4181L18.4507 24.3226H20.9735ZM22.2543 36.8534C25.1466 38.7824 28.3678 40.0714 31.7393 40.705C30.8015 41.3175 29.9853 42.1041 29.3462 43.0332H25.5687C24.9653 43.0332 24.3673 42.834 23.885 42.4718L18.2616 38.2548L20.6985 35.8179L22.2543 36.8534ZM36.9607 41.1828C37.407 41.7738 37.8186 42.3887 38.1772 43.0323H34.7906C35.1492 42.3887 35.5616 41.7738 36.007 41.1828C36.165 41.1718 36.3231 41.1613 36.4839 41.1613C36.6447 41.1613 36.8027 41.1718 36.9607 41.1828ZM33.914 44.9032H39.0546C39.2985 45.5149 39.5169 46.137 39.685 46.7742H33.2837C33.4518 46.137 33.6692 45.5149 33.914 44.9032ZM22.7631 43.9677C23.2291 44.3176 23.763 44.5638 24.3226 44.7191V46.2923C24.3226 46.6591 23.8603 46.8966 23.562 46.6842L17.7742 42.5513V40.2258L22.7631 43.9677ZM32.9141 48.6452H40.0536C40.1418 49.2646 40.1947 49.8885 40.2098 50.5161H32.7588C32.773 49.8885 32.826 49.2646 32.9141 48.6452ZM39.7302 41.9871C41.5167 42.9564 42.8304 44.7059 43.1857 46.8386L43.7992 50.5161H42.0808C42.0173 47.5187 41.2024 44.5794 39.7302 41.9871ZM49.2335 22.8696L51.2598 33.6774H49.4377L47.8275 24.0138C47.675 23.1085 46.8993 22.4516 45.9817 22.4516H43.9677V24.3226H45.9817L47.5402 33.6774H25.4266L26.9851 24.3226H42.0968V22.4516H26.9861C26.0693 22.4516 25.2928 23.1085 25.1402 24.0156L23.5301 33.6774H21.708L23.3711 24.8091L23.3976 24.794L23.3798 24.7634L23.7342 22.8709C23.9841 21.5431 25.143 20.5806 26.4918 20.5806H46.475C47.8248 20.5806 48.9836 21.5431 49.2335 22.8696ZM26.4918 18.7097C24.2682 18.7097 22.3598 20.2805 21.9167 22.4516H3.50167C3.44366 22.3429 3.3957 22.2292 3.34043 22.1186L5.02457 21.4207L4.30789 19.6918L2.61917 20.3915C2.23867 19.2642 2.00024 18.0734 1.91847 16.8387H5.6129V14.9677H1.91847C2.00115 13.7331 2.23868 12.5422 2.621 11.414L4.30971 12.1138L5.0264 10.3849L3.34271 9.68692C3.88491 8.59521 4.5614 7.58573 5.35665 6.67766L7.96669 9.28769L9.28952 7.96486L6.67948 5.35482C7.58756 4.55957 8.59704 3.88308 9.68874 3.34043L10.3867 5.02457L12.1156 4.30789L11.4158 2.61917C12.5422 2.23867 13.7331 2.00024 14.9677 1.91847V5.6129H16.8387V1.91847C18.0734 2.00115 19.2642 2.23868 20.3925 2.621L19.6927 4.30971L21.4216 5.0264L22.1195 3.34271C23.2112 3.88491 24.2207 4.5614 25.1288 5.35665L22.5188 7.96669L23.8416 9.28952L26.4516 6.67948C27.2469 7.58756 27.9234 8.59704 28.466 9.68874L26.7819 10.3867L27.4986 12.1156L29.1873 11.4158C29.5696 12.5441 29.8071 13.7349 29.8898 14.9696H26.1935V16.8405H29.9035C29.8624 17.4709 29.7756 18.0962 29.6509 18.7115H26.4918V18.7097ZM4.70346 24.3226H6.94122L9.15751 28.202C7.40987 27.2387 5.89839 25.9071 4.70346 24.3226ZM16.8387 31.8065V30.871H20.3308L19.8041 33.6774H18.7097C17.6778 33.6774 16.8387 32.8383 16.8387 31.8065ZM26.1935 55.1936C26.1935 55.7097 25.7742 56.129 25.2581 56.129H20.5806C20.0645 56.129 19.6452 55.7097 19.6452 55.1936V50.7052L21.4609 51.9157C21.9231 52.2245 22.4621 52.3871 23.0176 52.3871H26.1935V55.1936ZM53.3226 55.1936C53.3226 55.7097 52.9033 56.129 52.3871 56.129H47.7097C47.1935 56.129 46.7742 55.7097 46.7742 55.1936V52.3871H49.9502C50.5056 52.3871 51.0446 52.2245 51.5069 51.9157L53.3226 50.7052V55.1936ZM54.7774 47.4872L50.4695 50.359C50.3142 50.4618 50.1352 50.5161 49.9502 50.5161H45.6957L45.0316 46.5312C44.937 45.9648 44.7863 45.4226 44.5917 44.9032H46.7742V46.2923C46.7742 47.59 47.8294 48.6452 49.1271 48.6452C49.6199 48.6452 50.0922 48.4935 50.4937 48.2062L55.1936 44.8498V46.7089C55.1936 47.0222 55.0382 47.3132 54.7774 47.4872ZM56.129 31.8065C56.129 32.8383 55.2899 33.6774 54.2581 33.6774H53.1636L52.637 30.871H56.129V31.8065Z"/>
</mask>
<path d="M58 31.8065V30.871C58 29.8391 57.1609 29 56.129 29H52.2861L51.072 22.5247C50.6573 20.3139 48.7246 18.7097 46.4759 18.7097H31.5548C31.7183 17.7874 31.8065 16.8478 31.8065 15.9032C31.8065 7.13398 24.6725 0 15.9032 0C7.13398 0 0 7.13398 0 15.9032C0 24.3564 6.63426 31.2702 14.9677 31.7589V31.8065C14.9677 33.7496 16.461 35.3323 18.358 35.5128L16.7254 37.1453C16.1951 37.6747 15.9032 38.38 15.9032 39.1295V46.7089C15.9032 47.6489 16.3701 48.5218 17.153 49.0435L17.7742 49.4573V55.1936C17.7742 56.7407 19.0335 58 20.5806 58H25.2581C26.8052 58 28.0645 56.7407 28.0645 55.1936V52.3871H44.9032V55.1936C44.9032 56.7407 46.1626 58 47.7097 58H52.3871C53.9342 58 55.1936 56.7407 55.1936 55.1936V49.4573L55.8148 49.0426C56.5977 48.5218 57.0645 47.6489 57.0645 46.7089V39.1295C57.0645 38.38 56.7726 37.6747 56.2423 37.1453L54.6098 35.5128C56.5068 35.3323 58 33.7496 58 31.8065ZM55.1936 42.5513L49.4057 46.6851C49.1065 46.8975 48.6452 46.6591 48.6452 46.2923V44.7191C49.2047 44.5638 49.7387 44.3167 50.2037 43.9677L55.1936 40.2258V42.5513ZM49.0809 42.4709C48.5995 42.8331 48.0016 43.0323 47.3982 43.0323H43.6206C42.9806 42.1013 42.163 41.3148 41.2239 40.7009C42.2448 40.5095 43.257 40.2724 44.2514 39.9572L43.6855 38.1744C41.3522 38.9153 38.9304 39.2903 36.4839 39.2903C31.9339 39.2903 27.5296 37.9899 23.7023 35.5484H49.2764C48.0961 36.3016 46.8509 36.9571 45.5601 37.4897L46.2745 39.22C47.823 38.5805 49.3166 37.7843 50.7135 36.8534L52.2683 35.817L54.7052 38.2539L49.0809 42.4709ZM29.1686 50.5161L29.782 46.8377C30.1374 44.705 31.4511 42.9555 33.2375 41.9862C31.7653 44.5794 30.9504 47.5187 30.887 50.5161H29.1686ZM23.0176 50.5161C22.8326 50.5161 22.6526 50.4618 22.4982 50.359L18.1903 47.4872C17.9295 47.3132 17.7742 47.0222 17.7742 46.7089V44.8498L22.474 48.2076C22.8755 48.4935 23.3478 48.6452 23.8407 48.6452C25.1384 48.6452 26.1935 47.59 26.1935 46.2923V44.9032H28.376C28.1815 45.4226 28.0307 45.9648 27.9362 46.5312L27.272 50.5161H23.0176ZM11.6186 24.3226L14.7937 29.8793C13.8244 29.8026 12.8825 29.6304 11.9781 29.3668L9.09585 24.3226H11.6186ZM13.7733 24.3226H16.2961L18.9687 29H16.8387C16.7113 29 16.5879 29.0132 16.4673 29.0375L13.7733 24.3226ZM20.9735 24.3226L21.4143 25.0945L20.7912 28.4181L18.4507 24.3226H20.9735ZM22.2543 36.8534C25.1466 38.7824 28.3678 40.0714 31.7393 40.705C30.8015 41.3175 29.9853 42.1041 29.3462 43.0332H25.5687C24.9653 43.0332 24.3673 42.834 23.885 42.4718L18.2616 38.2548L20.6985 35.8179L22.2543 36.8534ZM36.9607 41.1828C37.407 41.7738 37.8186 42.3887 38.1772 43.0323H34.7906C35.1492 42.3887 35.5616 41.7738 36.007 41.1828C36.165 41.1718 36.3231 41.1613 36.4839 41.1613C36.6447 41.1613 36.8027 41.1718 36.9607 41.1828ZM33.914 44.9032H39.0546C39.2985 45.5149 39.5169 46.137 39.685 46.7742H33.2837C33.4518 46.137 33.6692 45.5149 33.914 44.9032ZM22.7631 43.9677C23.2291 44.3176 23.763 44.5638 24.3226 44.7191V46.2923C24.3226 46.6591 23.8603 46.8966 23.562 46.6842L17.7742 42.5513V40.2258L22.7631 43.9677ZM32.9141 48.6452H40.0536C40.1418 49.2646 40.1947 49.8885 40.2098 50.5161H32.7588C32.773 49.8885 32.826 49.2646 32.9141 48.6452ZM39.7302 41.9871C41.5167 42.9564 42.8304 44.7059 43.1857 46.8386L43.7992 50.5161H42.0808C42.0173 47.5187 41.2024 44.5794 39.7302 41.9871ZM49.2335 22.8696L51.2598 33.6774H49.4377L47.8275 24.0138C47.675 23.1085 46.8993 22.4516 45.9817 22.4516H43.9677V24.3226H45.9817L47.5402 33.6774H25.4266L26.9851 24.3226H42.0968V22.4516H26.9861C26.0693 22.4516 25.2928 23.1085 25.1402 24.0156L23.5301 33.6774H21.708L23.3711 24.8091L23.3976 24.794L23.3798 24.7634L23.7342 22.8709C23.9841 21.5431 25.143 20.5806 26.4918 20.5806H46.475C47.8248 20.5806 48.9836 21.5431 49.2335 22.8696ZM26.4918 18.7097C24.2682 18.7097 22.3598 20.2805 21.9167 22.4516H3.50167C3.44366 22.3429 3.3957 22.2292 3.34043 22.1186L5.02457 21.4207L4.30789 19.6918L2.61917 20.3915C2.23867 19.2642 2.00024 18.0734 1.91847 16.8387H5.6129V14.9677H1.91847C2.00115 13.7331 2.23868 12.5422 2.621 11.414L4.30971 12.1138L5.0264 10.3849L3.34271 9.68692C3.88491 8.59521 4.5614 7.58573 5.35665 6.67766L7.96669 9.28769L9.28952 7.96486L6.67948 5.35482C7.58756 4.55957 8.59704 3.88308 9.68874 3.34043L10.3867 5.02457L12.1156 4.30789L11.4158 2.61917C12.5422 2.23867 13.7331 2.00024 14.9677 1.91847V5.6129H16.8387V1.91847C18.0734 2.00115 19.2642 2.23868 20.3925 2.621L19.6927 4.30971L21.4216 5.0264L22.1195 3.34271C23.2112 3.88491 24.2207 4.5614 25.1288 5.35665L22.5188 7.96669L23.8416 9.28952L26.4516 6.67948C27.2469 7.58756 27.9234 8.59704 28.466 9.68874L26.7819 10.3867L27.4986 12.1156L29.1873 11.4158C29.5696 12.5441 29.8071 13.7349 29.8898 14.9696H26.1935V16.8405H29.9035C29.8624 17.4709 29.7756 18.0962 29.6509 18.7115H26.4918V18.7097ZM4.70346 24.3226H6.94122L9.15751 28.202C7.40987 27.2387 5.89839 25.9071 4.70346 24.3226ZM16.8387 31.8065V30.871H20.3308L19.8041 33.6774H18.7097C17.6778 33.6774 16.8387 32.8383 16.8387 31.8065ZM26.1935 55.1936C26.1935 55.7097 25.7742 56.129 25.2581 56.129H20.5806C20.0645 56.129 19.6452 55.7097 19.6452 55.1936V50.7052L21.4609 51.9157C21.9231 52.2245 22.4621 52.3871 23.0176 52.3871H26.1935V55.1936ZM53.3226 55.1936C53.3226 55.7097 52.9033 56.129 52.3871 56.129H47.7097C47.1935 56.129 46.7742 55.7097 46.7742 55.1936V52.3871H49.9502C50.5056 52.3871 51.0446 52.2245 51.5069 51.9157L53.3226 50.7052V55.1936ZM54.7774 47.4872L50.4695 50.359C50.3142 50.4618 50.1352 50.5161 49.9502 50.5161H45.6957L45.0316 46.5312C44.937 45.9648 44.7863 45.4226 44.5917 44.9032H46.7742V46.2923C46.7742 47.59 47.8294 48.6452 49.1271 48.6452C49.6199 48.6452 50.0922 48.4935 50.4937 48.2062L55.1936 44.8498V46.7089C55.1936 47.0222 55.0382 47.3132 54.7774 47.4872ZM56.129 31.8065C56.129 32.8383 55.2899 33.6774 54.2581 33.6774H53.1636L52.637 30.871H56.129V31.8065Z" stroke="url(#paint1_linear)" stroke-width="24" mask="url(#path-3-inside-2)"/>
<defs>
<linearGradient id="paint0_linear" x1="14.6334" y1="9.95205" x2="22.2028" y2="15.4577" gradientUnits="userSpaceOnUse">
<stop stop-color="#FF2D2D"/>
<stop offset="1" stop-color="#0085FA"/>
</linearGradient>
<linearGradient id="paint1_linear" x1="9.55366" y1="8.9699" x2="36.5283" y2="58.0174" gradientUnits="userSpaceOnUse">
<stop stop-color="#FF2D2D"/>
<stop offset="1" stop-color="#0085FA"/>
</linearGradient>
</defs>
</svg>
