<svg width="61" height="72" viewBox="0 0 61 72" fill="none" xmlns="http://www.w3.org/2000/svg">
<path d="M35.2456 61.5393C35.2456 63.8167 33.1267 65.8237 30.302 65.8237C27.4773 65.8237 25.3585 63.8167 25.3585 61.5393C25.3585 59.2619 27.4773 57.2548 30.302 57.2548C33.1267 57.2548 35.2456 59.2619 35.2456 61.5393Z" stroke="white" stroke-width="1.6"/>
<path d="M35.6714 38.2616C35.6714 40.5389 33.5525 42.546 30.7278 42.546C27.9031 42.546 25.7843 40.5389 25.7843 38.2616C25.7843 35.9842 27.9031 33.9771 30.7278 33.9771C33.5525 33.9771 35.6714 35.9842 35.6714 38.2616Z" stroke="white" stroke-width="1.6"/>
<path d="M35.2456 11.0456C35.2456 13.323 33.1267 15.3301 30.302 15.3301C27.4773 15.3301 25.3585 13.323 25.3585 11.0456C25.3585 8.76826 27.4773 6.76118 30.302 6.76118C33.1267 6.76118 35.2456 8.76826 35.2456 11.0456Z" stroke="white" stroke-width="1.6"/>
<rect x="0.8" y="0.8" width="14.2443" height="21.1924" rx="7.12214" stroke="white" stroke-width="1.6"/>
<rect x="0.8" y="49.8912" width="14.2443" height="21.1924" rx="7.12214" stroke="white" stroke-width="1.6"/>
<rect x="45.9555" y="0.8" width="14.2443" height="21.1924" rx="7.12214" stroke="white" stroke-width="1.6"/>
<rect x="45.9555" y="49.8912" width="14.2443" height="21.1924" rx="7.12214" stroke="white" stroke-width="1.6"/>
<rect x="13.0803" y="59.7095" width="36.4263" height="2.60782" stroke="white" stroke-width="1.6"/>
<rect x="13.0803" y="9.91707" width="36.4263" height="2.60782" stroke="white" stroke-width="1.6"/>
<rect x="28.5267" y="9.91707" width="3.9455" height="52.4004" stroke="white" stroke-width="1.6"/>
</svg>
