<svg width="79" height="74" viewBox="0 0 79 74" fill="none" xmlns="http://www.w3.org/2000/svg">
<path d="M32.7709 50.9843C33.238 51.0545 33.7155 51.0902 34.1904 51.0902C34.6652 51.0902 35.1428 51.0545 35.6109 50.9841C39.6347 50.3755 42.6873 47.2155 42.8691 43.473C42.8752 43.3526 42.878 43.2312 42.878 43.1091C42.878 42.4779 42.7975 41.8501 42.6389 41.244C41.7001 37.643 38.226 35.1281 34.1904 35.1281C30.1547 35.1281 26.6806 37.643 25.742 41.2432C25.5832 41.8503 25.5027 42.478 25.5027 43.1091C25.5027 43.231 25.5055 43.3525 25.5115 43.4704C25.6935 47.2155 28.7462 50.3754 32.7709 50.9843ZM28.0369 41.7489C28.7204 39.1271 31.2508 37.296 34.1904 37.296C37.1299 37.296 39.6603 39.1271 40.3441 41.7499C40.4596 42.1911 40.5181 42.6484 40.5181 43.1091C40.5181 43.1969 40.5162 43.2844 40.5115 43.3737C40.379 46.1009 38.1566 48.4018 35.2281 48.8448C34.5456 48.9475 33.834 48.9474 33.1532 48.8449C30.2238 48.4018 28.0015 46.1009 27.8689 43.3712C27.8645 43.2845 27.8625 43.1969 27.8625 43.1092C27.8626 42.6484 27.9211 42.1912 28.0369 41.7489Z" fill="white"/>
<path d="M78.5966 16.1976C78.5966 13.0288 77.5993 9.95864 75.7126 7.3195C75.3549 6.81913 74.6233 6.67995 74.0786 7.00846C73.534 7.33713 73.3823 8.0092 73.7401 8.50957C75.3734 10.7943 76.2367 13.4528 76.2367 16.1976C76.2367 23.9344 69.3858 30.2287 60.9648 30.2287C52.544 30.2287 45.693 23.9344 45.693 16.1976C45.693 8.46173 52.5438 2.16797 60.9648 2.16797C64.5862 2.16797 68.095 3.35168 70.8451 5.50115C71.3413 5.88907 72.0861 5.834 72.5083 5.37786C72.9306 4.92187 72.8705 4.2378 72.3741 3.84988C69.198 1.36727 65.146 0 60.9648 0C52.2647 0 45.0173 5.81912 43.5893 13.4429C40.5494 12.6307 37.3944 12.2191 34.1901 12.2191C25.2082 12.2191 16.7639 15.4322 10.413 21.2666C4.06218 27.1011 0.564453 34.8583 0.564453 43.1096C0.564453 51.3609 4.06202 59.1183 10.413 64.9526C16.7641 70.7869 25.2082 74 34.1901 74C43.172 74 51.6162 70.7869 57.9671 64.9525C64.318 59.118 67.8157 51.3608 67.8157 43.1095C67.8157 39.2128 67.039 35.4318 65.5102 31.8498C73.0365 30.0034 78.5966 23.6864 78.5966 16.1976ZM53.2476 30.7603C54.3866 32.2393 55.3075 33.826 55.9994 35.5025C49.3317 32.1776 41.8539 30.4311 34.1909 30.4311C29.9993 30.4311 25.847 30.9512 21.8488 31.9771C21.2212 32.1381 20.8545 32.7362 21.0297 33.3127C21.205 33.8894 21.8555 34.2264 22.4836 34.0651C26.275 33.0923 30.2139 32.599 34.1909 32.599C42.2761 32.599 50.1427 34.6485 56.9753 38.5278C57.3306 40.0227 57.5127 41.5614 57.5127 43.1095C57.5127 43.1486 57.5115 43.1867 57.5113 43.2257C52.1403 44.237 47.2035 46.841 43.5236 50.6234C39.812 54.4384 37.5471 59.2902 37.0854 64.3715C35.1705 64.5874 33.2091 64.5873 31.2952 64.3715C30.8335 59.2902 28.5687 54.4384 24.8572 50.6234C21.1773 46.8408 16.2403 44.2368 10.8691 43.2257C10.869 43.1867 10.8677 43.1488 10.8677 43.1095C10.8677 41.5618 11.0496 40.0239 11.4047 38.5293C13.547 37.3132 15.8066 36.2652 18.1311 35.4158C18.7367 35.1945 19.0323 34.5642 18.7914 34.0079C18.5507 33.4516 17.8644 33.1799 17.2589 33.4013C15.5973 34.0085 13.9671 34.7115 12.3855 35.5002C13.8629 31.9414 16.3759 28.7597 19.6449 26.3603C23.813 23.301 28.8426 21.6842 34.1902 21.6842C38.3041 21.6842 42.3367 22.6817 45.8738 24.5666C47.6276 27.2265 50.191 29.3875 53.2476 30.7603ZM57.3708 45.4729C56.8392 49.8772 54.8152 54.0621 51.5848 57.3825C48.3828 60.6736 44.1345 62.9827 39.4969 63.9781C40.0285 59.5738 42.0526 55.3887 45.2831 52.0683C48.4848 48.7773 52.733 46.4682 57.3708 45.4729ZM28.8836 63.9781C24.2455 62.9827 19.9973 60.6736 16.7954 57.3825C13.5654 54.0625 11.5414 49.8782 11.0093 45.4727C15.6474 46.4682 19.8955 48.7771 23.0973 52.0683C26.3281 55.3887 28.3521 59.5738 28.8836 63.9781ZM65.4558 43.1095C65.4558 58.9472 51.43 71.832 34.1901 71.832C16.9502 71.832 2.92454 58.9472 2.92454 43.1095C2.92454 27.2717 16.9502 14.3871 34.1901 14.3871C37.3168 14.3871 40.3916 14.8088 43.3447 15.639C43.3378 15.8244 43.3331 16.0106 43.3331 16.1976C43.3331 18.0184 43.6619 19.7699 44.2676 21.4048C41.0985 20.1634 37.67 19.5162 34.1901 19.5162C28.3016 19.5162 22.7625 21.2971 18.1719 24.6666C13.7166 27.9366 10.5356 32.5276 9.21515 37.5932C8.74584 39.3866 8.5078 41.2426 8.5078 43.1095C8.5078 43.478 8.51677 43.8388 8.53408 44.1792C8.79666 49.5853 11.1058 54.7873 15.036 58.8271C18.9352 62.835 24.2454 65.5206 29.9893 66.3896C31.3703 66.5974 32.7837 66.7028 34.1902 66.7028C35.5968 66.7028 37.01 66.5974 38.3922 66.3894C44.1351 65.5206 49.4453 62.835 53.3446 58.8271C57.2747 54.7873 59.5838 49.5853 59.8464 44.1816C59.864 43.8378 59.8728 43.477 59.8728 43.1093C59.8728 41.2429 59.6348 39.3869 59.1656 37.5937C58.6482 35.6106 57.8609 33.72 56.8185 31.9429C58.1488 32.2386 59.5372 32.3965 60.965 32.3965C61.7062 32.3965 62.4368 32.3538 63.1542 32.2718C64.6813 35.7101 65.4558 39.3517 65.4558 43.1095Z" fill="white"/>
<path d="M64.3526 6.34586C63.7903 5.09075 62.4724 4.27979 60.9917 4.27979C59.5129 4.28109 58.1952 5.09436 57.6336 6.35468L50.8744 22.6558C50.2416 24.182 51.0785 25.8967 52.7405 26.4783C53.1094 26.6073 53.4952 26.6726 53.8873 26.6726C55.2165 26.6726 56.4275 25.9057 56.9009 24.7642L57.7863 22.6283H64.1503L65.0242 24.7558C65.6518 26.2838 67.5158 27.0579 69.1793 26.4812C69.9851 26.2018 70.6242 25.651 70.9789 24.9301C71.3337 24.2092 71.3616 23.4043 71.0576 22.6642L64.3881 6.42882C64.377 6.40179 64.3655 6.37477 64.3526 6.34586ZM68.8497 23.4297C68.9312 23.6282 68.9236 23.8438 68.8286 24.0372C68.7336 24.2304 68.5622 24.3782 68.3462 24.453C67.9005 24.6075 67.4005 24.4001 67.2323 23.9905L66.0703 21.1618C65.8969 20.7397 65.4573 20.4605 64.9663 20.4605H56.9733C56.4837 20.4605 56.0449 20.7383 55.8705 21.1587L54.6956 23.9927C54.5686 24.299 54.2438 24.5048 53.8874 24.5048C53.7831 24.5048 53.6796 24.487 53.5802 24.4523C53.1346 24.2964 52.9103 23.8367 53.0799 23.4276L59.8107 7.19252L59.819 7.17316C60.0152 6.73306 60.4763 6.44819 60.9954 6.44775C61.5123 6.44775 61.9736 6.73161 62.1695 7.16896L68.8497 23.4297Z" fill="white"/>
<path d="M60.9904 10.7761C60.9897 10.7761 60.9893 10.7761 60.9886 10.7761C60.499 10.7761 60.0602 11.0539 59.8859 11.4744L57.4283 17.4023C57.2902 17.7354 57.3392 18.1098 57.5593 18.4033C57.7796 18.6969 58.1427 18.8722 58.5308 18.8722H63.4236C63.8109 18.8722 64.1737 18.6974 64.3942 18.4048C64.6144 18.1121 64.6643 17.7385 64.5276 17.4055L62.0924 11.4775C61.9194 11.0559 61.4806 10.7768 60.9904 10.7761ZM60.2429 16.7041L60.9834 14.918L61.7172 16.7041H60.2429Z" fill="white"/>
</svg>
