<svg width="67" height="74" viewBox="0 0 67 74" fill="none" xmlns="http://www.w3.org/2000/svg">
<path d="M33.0054 54.9672C32.7876 54.9672 32.5734 54.933 32.3593 54.8614C31.5506 54.5815 31.0596 53.8237 31.174 53.0387L34.3235 31.0745H21.659C20.9612 31.0745 20.3224 30.7093 20.0086 30.1324C19.6948 29.5556 19.7612 28.8627 20.1821 28.3439L42.3358 1.03795C42.849 0.40309 43.761 0.177816 44.5401 0.491835C45.3228 0.80244 45.777 1.56359 45.6367 2.34181L42.2988 20.8348H54.8895C55.5689 20.8348 56.1929 21.1795 56.5141 21.7324C56.8353 22.2854 56.8021 22.9544 56.4329 23.4834L34.5488 54.2026C34.198 54.6907 33.6109 54.9672 33.0054 54.9672ZM25.3513 27.6612H36.4281C36.9635 27.6612 37.4657 27.8763 37.8164 28.2449C38.1672 28.6101 38.3297 29.105 38.2595 29.5931L35.8928 46.1064L51.4631 24.248H40.1204C39.5776 24.248 39.0644 24.0295 38.71 23.6439C38.3592 23.2616 38.2078 22.753 38.3001 22.2615L40.7481 8.68361L25.3513 27.6612Z" fill="white"/>
<path d="M66.1554 49.2548C65.8701 48.8922 65.4213 48.6693 64.9359 48.6492L47.8631 47.5245C46.827 47.4528 45.924 48.1695 45.8462 49.125C45.7685 50.0807 46.5454 50.9135 47.5816 50.9852L59.6648 51.7419L37.4506 67.7696L20.4717 55.4842C19.7467 54.9546 18.7116 54.9913 18.0327 55.5706L0.584831 70.9705C-0.156895 71.6195 -0.198551 72.6968 0.491105 73.393C0.825788 73.7936 1.35044 74.0195 1.89825 73.9986C2.39309 73.9922 2.86513 73.8055 3.21148 73.4795L19.44 59.1176L36.2313 71.3164C36.9166 71.8225 37.891 71.8225 38.5764 71.3164L62.5912 54.0812L61.6527 64.8279C61.648 65.7675 62.421 66.5553 63.4351 66.6447H63.5288C64.4958 66.6492 65.3081 65.9748 65.4049 65.0874L66.6244 50.466C66.6932 50.0157 66.518 49.563 66.1554 49.2548Z" fill="white"/>
</svg>
