<?xml version="1.0" standalone="no"?>
<!DOCTYPE svg PUBLIC "-//W3C//DTD SVG 1.1//EN" "http://www.w3.org/Graphics/SVG/1.1/DTD/svg11.dtd" >
<svg xmlns="http://www.w3.org/2000/svg" xmlns:xlink="http://www.w3.org/1999/xlink" version="1.1">
<metadata>
Created by FontForge 20170924 at Thu Mar  8 13:02:48 2018
 By www-data
Copyright 2018 Mitsubishi Motors Corporation
</metadata>
<defs>
<font id="MMCOFFICE-Regular" horiz-adv-x="597" >
  <font-face 
    font-family="MMC OFFICE"
    font-weight="400"
    font-stretch="normal"
    units-per-em="1000"
    panose-1="0 0 5 0 0 0 0 0 0 0"
    ascent="800"
    descent="-200"
    x-height="530"
    cap-height="680"
    bbox="-697 -210 1090 1163"
    underline-thickness="50"
    underline-position="-100"
    unicode-range="U+000D-F8FF"
  />
<missing-glyph horiz-adv-x="577" 
 />
    <glyph glyph-name=".notdef" horiz-adv-x="577" 
 />
    <glyph glyph-name=".null" horiz-adv-x="9" 
 />
    <glyph glyph-name="nonmarkingreturn" unicode="&#xd;" horiz-adv-x="225" 
 />
    <glyph glyph-name="space" unicode=" " horiz-adv-x="276" 
 />
    <glyph glyph-name="A" unicode="A" horiz-adv-x="649" 
d="M480 181h-312l-69 -181h-86l263 680h96l264 -680h-87zM453 253l-129 340l-129 -340h258z" />
    <glyph glyph-name="B" unicode="B" horiz-adv-x="644" 
d="M559.5 305q31.5 -39 31.5 -120q0 -72 -26.5 -112.5t-77 -56.5t-129.5 -16h-268v680h250q82 0 132.5 -15.5t76 -52.5t25.5 -102q0 -70 -25.5 -105t-73.5 -48q53 -13 84.5 -52zM172 607v-218h197q62 0 92 24.5t30 90.5q0 39 -15 61.5t-49.5 32t-95.5 9.5h-159zM441.5 82
q33.5 9 49.5 34t16 75q0 70 -30.5 98.5t-105.5 28.5h-199v-245h176q60 0 93.5 9z" />
    <glyph glyph-name="C" unicode="C" horiz-adv-x="577" 
d="M172 24q-62 34 -90.5 109.5t-28.5 206.5q0 126 27.5 202t90 112t169.5 36q47 0 97.5 -6.5t91.5 -19.5v-79q-79 27 -173 27q-89 0 -135.5 -24.5t-65 -82t-18.5 -165.5q0 -109 18.5 -166.5t65 -81.5t135.5 -24q94 0 173 27v-79q-41 -13 -91.5 -19.5t-97.5 -6.5
q-106 0 -168 34z" />
    <glyph glyph-name="D" unicode="D" horiz-adv-x="660" 
d="M481.5 649q63.5 -31 94.5 -104.5t31 -202.5q0 -127 -32 -202t-96.5 -107.5t-168.5 -32.5h-220v680h222q106 0 169.5 -31zM434 102q48 26 68.5 83t20.5 157q0 105 -19 161t-63.5 78.5t-127.5 22.5h-141v-528h128q86 0 134 26z" />
    <glyph glyph-name="E" unicode="E" horiz-adv-x="592" 
d="M537 76l-19 -76h-428v680h434v-76h-352v-221h337v-74h-337v-233h365z" />
    <glyph glyph-name="F" unicode="F" horiz-adv-x="564" 
d="M172 604v-235h314l-18 -76h-296v-293h-82v680h434v-76h-352z" />
    <glyph glyph-name="G" unicode="G" horiz-adv-x="650" 
d="M185 17.5q-67 27.5 -99.5 103t-32.5 218.5t32 218.5t99 104t184 28.5q96 0 188 -24v-79q-46 12 -88.5 18.5t-93.5 6.5q-93 0 -141.5 -18.5t-72 -76.5t-23.5 -178q0 -121 22 -178t68.5 -75t138.5 -18q47 0 79.5 4t63.5 14v259l80 23v-343q-53 -18 -104 -26.5t-117 -8.5
q-116 0 -183 27.5z" />
    <glyph glyph-name="H" unicode="H" horiz-adv-x="701" 
d="M611 680v-680h-82v309h-357v-309h-82v680h82v-295h357v295h82z" />
    <glyph glyph-name="I" unicode="I" horiz-adv-x="262" 
d="M90 680h82v-680h-82v680z" />
    <glyph glyph-name="J" unicode="J" horiz-adv-x="509" 
d="M433 175q0 -105 -60 -145t-169 -40q-55 0 -95 7t-63 16v80q24 -9 63.5 -17t88.5 -8q72 0 112.5 21.5t40.5 88.5v426h-292l22 76h352v-505z" />
    <glyph glyph-name="K" unicode="K" horiz-adv-x="603" 
d="M493 0l-321 339v-339h-82v680h82v-327l307 327h106l-320 -333l338 -347h-110z" />
    <glyph glyph-name="L" unicode="L" horiz-adv-x="537" 
d="M90 680h82v-603h344l-17 -77h-409v680z" />
    <glyph glyph-name="M" unicode="M" horiz-adv-x="871" 
d="M90 680h97l249 -350l247 350h99v-680h-82v572l-264 -369l-264 369v-572h-82v680z" />
    <glyph glyph-name="N" unicode="N" horiz-adv-x="708" 
d="M90 680h67l379 -535v535h82v-680h-69l-377 531v-531h-82v680z" />
    <glyph glyph-name="O" unicode="O" horiz-adv-x="666" 
d="M167.5 23.5q-60.5 33.5 -87.5 109t-27 206.5q0 132 27 208t87 109.5t166 33.5q105 0 165.5 -33.5t87 -109.5t26.5 -208t-26.5 -207t-87 -108.5t-165.5 -33.5t-165.5 33.5zM450.5 92q41.5 24 59.5 82t18 165q0 108 -17 166t-58.5 82.5t-119.5 24.5t-119.5 -24.5t-59 -82.5
t-17.5 -166q0 -106 18 -164.5t60 -82.5t118 -24t117.5 24z" />
    <glyph glyph-name="P" unicode="P" horiz-adv-x="611" 
d="M468.5 660q52.5 -20 79 -69t26.5 -133t-26.5 -133t-79 -69t-135.5 -20h-161v-236h-82v680h243q83 0 135.5 -20zM419.5 323.5q36.5 11.5 53.5 43t17 91.5t-17 91.5t-53.5 43t-101.5 11.5h-146v-292h146q65 0 101.5 11.5z" />
    <glyph glyph-name="Q" unicode="Q" horiz-adv-x="666" 
d="M591.5 151.5q-20.5 -71.5 -66 -109.5t-122.5 -48l80 -152h-88l-78 148q-99 3 -156 37.5t-82.5 109t-25.5 202.5q0 132 27 208t87 109.5t166 33.5q105 0 165.5 -33.5t87 -109.5t26.5 -208q0 -116 -20.5 -187.5zM450.5 92q41.5 24 59.5 82t18 165q0 108 -17 166t-58.5 82.5
t-119.5 24.5t-119.5 -24.5t-59 -82.5t-17.5 -166q0 -106 18 -164.5t60 -82.5t118 -24t117.5 24z" />
    <glyph glyph-name="R" unicode="R" horiz-adv-x="640" 
d="M607 0h-95l-179 267h-161v-267h-82v680h231q87 0 141 -18.5t82 -63t28 -123.5q0 -91 -38 -136.5t-115 -60.5zM415 352q37 10 56 38t19 83t-19 83t-56 38t-103 10h-140v-262h140q66 0 103 10z" />
    <glyph glyph-name="S" unicode="S" horiz-adv-x="563" 
d="M55 20v81q98 -35 214 -35q87 0 124 27.5t37 79.5q0 48 -18.5 72t-72.5 45l-143 56q-51 20 -82 40.5t-48 52t-17 80.5q0 64 25 101t78.5 53.5t142.5 16.5q114 0 191 -27v-78q-34 13 -83 21t-107 8q-64 0 -98.5 -8.5t-49.5 -29t-15 -59.5q0 -29 12 -46.5t34 -29.5t65 -29
l132 -52q53 -20 82.5 -43.5t42.5 -56.5t13 -83q0 -91 -55.5 -139t-189.5 -48q-132 0 -214 30z" />
    <glyph glyph-name="T" unicode="T" horiz-adv-x="567" 
d="M242 603h-222v77h534l-21 -77h-209v-603h-82v603z" />
    <glyph glyph-name="U" unicode="U" horiz-adv-x="661" 
d="M183 10.5q-56 20.5 -83 68t-27 130.5v471h82v-468q0 -57 17.5 -88t55.5 -43.5t103 -12.5t102.5 12.5t55 43.5t17.5 88v468h82v-471q0 -83 -27 -130.5t-83 -68t-147 -20.5q-92 0 -148 20.5z" />
    <glyph glyph-name="V" unicode="V" horiz-adv-x="622" 
d="M13 680h89l210 -596l209 596h89l-249 -680h-100z" />
    <glyph glyph-name="W" unicode="W" horiz-adv-x="950" 
d="M26 680h84l151 -582l175 582h78l175 -582l152 582h83l-184 -680h-96l-169 554l-169 -554h-96z" />
    <glyph glyph-name="X" unicode="X" horiz-adv-x="584" 
d="M242 335l-223 345h94l179 -281l179 281h94l-224 -345l220 -335h-93l-176 271l-176 -271h-94z" />
    <glyph glyph-name="Y" unicode="Y" horiz-adv-x="603" 
d="M260 251l-249 429h91l199 -348l200 348h91l-250 -429v-251h-82v251z" />
    <glyph glyph-name="Z" unicode="Z" horiz-adv-x="564" 
d="M46 57l369 547h-359v76h461v-61l-369 -543h365v-76h-467v57z" />
    <glyph glyph-name="Aacute" unicode="&#xc1;" horiz-adv-x="649" 
d="M480 181h-312l-69 -181h-86l263 680h96l264 -680h-87zM453 253l-129 340l-129 -340h258zM371 913h90l-104 -154h-73z" />
    <glyph glyph-name="Abreve" unicode="&#x102;" horiz-adv-x="649" 
d="M480 181h-312l-69 -181h-86l263 680h96l264 -680h-87zM453 253l-129 340l-129 -340h258zM210.5 793.5q-37.5 29.5 -39.5 100.5h66q2 -42 24 -58.5t64 -16.5t64 16.5t24 58.5h65q-1 -71 -38.5 -100.5t-114.5 -29.5t-114.5 29.5z" />
    <glyph glyph-name="uni1EAE" unicode="&#x1eae;" horiz-adv-x="649" 
d="M480 181h-312l-69 -181h-86l263 680h96l264 -680h-87zM453 253l-129 340l-129 -340h258zM207 789q-38 28 -39 98h64q1 -41 24 -56t69 -15t68.5 15t24.5 56h64q-1 -70 -39 -98t-118 -28t-118 28zM355 1027h90l-95 -122h-71z" />
    <glyph glyph-name="uni1EB6" unicode="&#x1eb6;" horiz-adv-x="649" 
d="M480 181h-312l-69 -181h-86l263 680h96l264 -680h-87zM453 253l-129 340l-129 -340h258zM277 -85h94v-88h-94v88zM210.5 793.5q-37.5 29.5 -39.5 100.5h66q2 -42 24 -58.5t64 -16.5t64 16.5t24 58.5h65q-1 -71 -38.5 -100.5t-114.5 -29.5t-114.5 29.5z" />
    <glyph glyph-name="uni1EB0" unicode="&#x1eb0;" horiz-adv-x="649" 
d="M169 181h312l69 -181h86l-263 680h-96l-264 -680h87zM196 253l129 340l129 -340h-258zM442 789q38 28 39 98h-64q-1 -41 -24 -56t-69 -15t-68.5 15t-24.5 56h-64q1 -70 39 -98t118 -28t118 28zM294 1027h-90l95 -122h71z" />
    <glyph glyph-name="uni1EB2" unicode="&#x1eb2;" horiz-adv-x="649" 
d="M480 181h-312l-69 -181h-86l263 680h96l264 -680h-87zM453 253l-129 340l-129 -340h258zM280 909q78 21 78 59q0 15 -13.5 24.5t-42.5 9.5q-27 0 -46.5 -5t-23.5 -6v56q23 5 40 7t44 2q48 0 78 -21.5t30 -62.5q0 -37 -32 -66.5t-88 -42.5zM207 789q-38 28 -39 98h64
q1 -41 24 -56t69 -15t68.5 15t24.5 56h64q-1 -70 -39 -98t-118 -28t-118 28z" />
    <glyph glyph-name="uni1EB4" unicode="&#x1eb4;" horiz-adv-x="649" 
d="M480 181h-312l-69 -181h-86l263 680h96l264 -680h-87zM453 253l-129 340l-129 -340h258zM479 1021q0 -52 -22.5 -78t-70.5 -26q-24 0 -40 7t-37 22q-14 10 -24 15t-21 5q-20 0 -28 -11t-10 -34h-58q0 52 22 78t71 26q24 0 40.5 -7.5t35.5 -21.5q14 -10 23.5 -15t21.5 -5
q19 0 28 11t10 34h59zM207 789q-38 28 -39 98h64q1 -41 24 -56t69 -15t68.5 15t24.5 56h64q-1 -70 -39 -98t-118 -28t-118 28z" />
    <glyph glyph-name="Acircumflex" unicode="&#xc2;" horiz-adv-x="649" 
d="M480 181h-312l-69 -181h-86l263 680h96l264 -680h-87zM453 253l-129 340l-129 -340h258zM286 913h78l133 -154h-87l-85 103l-86 -103h-87z" />
    <glyph glyph-name="uni1EA4" unicode="&#x1ea4;" horiz-adv-x="660" 
d="M480 181h-312l-69 -181h-86l263 680h96l264 -680h-87zM453 253l-129 340l-129 -340h258zM284 895h78l126 -130h-90l-75 82l-77 -82h-89zM484 1017h90l-95 -122h-71z" />
    <glyph glyph-name="uni1EAC" unicode="&#x1eac;" horiz-adv-x="649" 
d="M480 181h-312l-69 -181h-86l263 680h96l264 -680h-87zM453 253l-129 340l-129 -340h258zM277 -85h94v-88h-94v88zM286 913h78l133 -154h-87l-85 103l-86 -103h-87z" />
    <glyph glyph-name="uni1EA6" unicode="&#x1ea6;" horiz-adv-x="649" 
d="M480 181h-312l-69 -181h-86l263 680h96l264 -680h-87zM453 253l-129 340l-129 -340h258zM364 895h-78l-126 -130h90l75 82l77 -82h89zM427 1017h-90l95 -122h71z" />
    <glyph glyph-name="uni1EA8" unicode="&#x1ea8;" horiz-adv-x="649" 
d="M480 181h-312l-69 -181h-86l263 680h96l264 -680h-87zM453 253l-129 340l-129 -340h258zM286 895h78l126 -130h-90l-75 82l-77 -82h-89zM418 905q64 17 64 47t-47 30q-21 0 -37.5 -4t-21.5 -5v57q3 1 23.5 5t50.5 4q42 0 71.5 -20.5t29.5 -57.5q0 -35 -29 -61t-80 -39z
" />
    <glyph glyph-name="uni1EAA" unicode="&#x1eaa;" horiz-adv-x="649" 
d="M480 181h-312l-69 -181h-86l263 680h96l264 -680h-87zM453 253l-129 340l-129 -340h258zM285 871.695h78l126 -114.939h-90l-75 72.5l-77 -72.5h-89zM483 1010q0 -52 -22.5 -78t-70.5 -26q-24 0 -40 7t-37 22q-14 10 -24 15t-21 5q-20 0 -28 -11t-10 -34h-58q0 52 22 78
t71 26q24 0 40.5 -7.5t35.5 -21.5q14 -10 23.5 -15t21.5 -5q19 0 28 11t10 34h59z" />
    <glyph glyph-name="Adieresis" unicode="&#xc4;" horiz-adv-x="649" 
d="M480 181h-312l-69 -181h-86l263 680h96l264 -680h-87zM453 253l-129 340l-129 -340h258zM182 862h87v-86h-87v86zM380 862h87v-86h-87v86z" />
    <glyph glyph-name="uni1EA0" unicode="&#x1ea0;" horiz-adv-x="649" 
d="M480 181h-312l-69 -181h-86l263 680h96l264 -680h-87zM453 253l-129 340l-129 -340h258zM277 -85h94v-88h-94v88z" />
    <glyph glyph-name="Agrave" unicode="&#xc0;" horiz-adv-x="649" 
d="M169 181h312l69 -181h86l-263 680h-96l-264 -680h87zM196 253l129 340l129 -340h-258zM278 913h-90l104 -154h73z" />
    <glyph glyph-name="uni1EA2" unicode="&#x1ea2;" horiz-adv-x="649" 
d="M480 181h-312l-69 -181h-86l263 680h96l264 -680h-87zM453 253l-129 340l-129 -340h258zM276 798q78 21 78 59q0 15 -13.5 24.5t-42.5 9.5q-27 0 -46.5 -5t-23.5 -6v56q23 5 40 7t44 2q48 0 78 -21.5t30 -62.5q0 -37 -32 -66.5t-88 -42.5z" />
    <glyph glyph-name="Amacron" unicode="&#x100;" horiz-adv-x="649" 
d="M480 181h-312l-69 -181h-86l263 680h96l264 -680h-87zM453 253l-129 340l-129 -340h258zM185 855h279v-65h-279v65z" />
    <glyph glyph-name="Aogonek" unicode="&#x104;" horiz-adv-x="649" 
d="M554 -139.5q9 -6.5 29 -6.5q25 0 53 6v-62q-32 -8 -65 -8q-54 0 -75.5 22t-21.5 54q0 33 20 62t71 72h-16l-69 181h-312l-69 -181h-86l263 680h96l264 -680q-54 -48 -72.5 -72.5t-18.5 -45.5q0 -15 9 -21.5zM454 253l-130 340l-129 -340h259z" />
    <glyph glyph-name="Aring" unicode="&#xc5;" horiz-adv-x="649" 
d="M480 181h-312l-69 -181h-86l263 680h96l264 -680h-87zM453 253l-129 340l-129 -340h258zM417.5 924q28.5 -26 28.5 -77t-28.5 -76.5t-92.5 -25.5q-65 0 -93.5 25.5t-28.5 76.5t28.5 77t93.5 26q64 0 92.5 -26zM376.5 807.5q14.5 13.5 14.5 40.5t-14.5 41t-51.5 14
q-38 0 -52.5 -13.5t-14.5 -41.5q0 -27 14.5 -40.5t52.5 -13.5q37 0 51.5 13.5z" />
    <glyph glyph-name="Aringacute" unicode="&#x1fa;" horiz-adv-x="649" 
d="M384 1163h90l-104 -154h-73zM480 181h-312l-69 -181h-86l263 680h96l264 -680h-87zM453 253l-129 340l-129 -340h258zM417.5 924q28.5 -26 28.5 -77t-28.5 -76.5t-92.5 -25.5q-65 0 -93.5 25.5t-28.5 76.5t28.5 77t93.5 26q64 0 92.5 -26zM376.5 807.5
q14.5 13.5 14.5 40.5t-14.5 41t-51.5 14q-38 0 -52.5 -13.5t-14.5 -41.5q0 -27 14.5 -40.5t52.5 -13.5q37 0 51.5 13.5z" />
    <glyph glyph-name="Atilde" unicode="&#xc3;" horiz-adv-x="649" 
d="M480 181h-312l-69 -181h-86l263 680h96l264 -680h-87zM453 253l-129 340l-129 -340h258zM491 867q0 -55 -23 -83.5t-74 -28.5q-25 0 -44 8.5t-41 24.5q-19 12 -28.5 17t-21.5 5q-21 0 -30.5 -12.5t-10.5 -39.5h-60q0 112 97 112q26 0 45.5 -9t39.5 -24q18 -12 28.5 -17
t22.5 -5q21 0 30 12t11 40h59z" />
    <glyph glyph-name="AE" unicode="&#xc6;" horiz-adv-x="909" 
d="M855 76l-20 -76h-398v181h-269l-68 -181h-87l261 680h567v-76h-322v-221h307v-74h-307v-233h336zM437 257v347h-110l-130 -347h240z" />
    <glyph glyph-name="AEacute" unicode="&#x1fc;" horiz-adv-x="909" 
d="M855 76l-20 -76h-398v181h-269l-68 -181h-87l261 680h567v-76h-322v-221h307v-74h-307v-233h336zM437 257v347h-110l-130 -347h240zM592 913h90l-104 -154h-73z" />
    <glyph glyph-name="Cacute" unicode="&#x106;" horiz-adv-x="577" 
d="M172 24q-62 34 -90.5 109.5t-28.5 206.5q0 126 27.5 202t90 112t169.5 36q47 0 97.5 -6.5t91.5 -19.5v-79q-79 27 -173 27q-89 0 -135.5 -24.5t-65 -82t-18.5 -165.5q0 -109 18.5 -166.5t65 -81.5t135.5 -24q94 0 173 27v-79q-41 -13 -91.5 -19.5t-97.5 -6.5
q-106 0 -168 34zM370 913h90l-104 -154h-73z" />
    <glyph glyph-name="Ccaron" unicode="&#x10c;" horiz-adv-x="577" 
d="M172 24q-62 34 -90.5 109.5t-28.5 206.5q0 126 27.5 202t90 112t169.5 36q47 0 97.5 -6.5t91.5 -19.5v-79q-79 27 -173 27q-89 0 -135.5 -24.5t-65 -82t-18.5 -165.5q0 -109 18.5 -166.5t65 -81.5t135.5 -24q94 0 173 27v-79q-41 -13 -91.5 -19.5t-97.5 -6.5
q-106 0 -168 34zM258 913l86 -103l85 103h87l-133 -154h-78l-134 154h87z" />
    <glyph glyph-name="Ccedilla" unicode="&#xc7;" horiz-adv-x="577" 
d="M172 24q-62 34 -90.5 109.5t-28.5 206.5q0 126 27.5 202t90 112t169.5 36q47 0 97.5 -6.5t91.5 -19.5v-79q-79 27 -173 27q-89 0 -135.5 -24.5t-65 -82t-18.5 -165.5q0 -109 18.5 -166.5t65 -81.5t135.5 -24q94 0 173 27v-79q-41 -13 -91.5 -19.5t-97.5 -6.5
q-106 0 -168 34zM260 -151q22 -4 58 -4q35 0 49 6.5t14 24.5q0 13 -8.5 20t-30 9.5t-65.5 2.5l25 92h59l-14 -50q53 -2 76 -21t23 -56q0 -42 -29 -62.5t-89 -20.5q-42 0 -68 4v55z" />
    <glyph glyph-name="Ccircumflex" unicode="&#x108;" horiz-adv-x="577" 
d="M172 24q-62 34 -90.5 109.5t-28.5 206.5q0 126 27.5 202t90 112t169.5 36q47 0 97.5 -6.5t91.5 -19.5v-79q-79 27 -173 27q-89 0 -135.5 -24.5t-65 -82t-18.5 -165.5q0 -109 18.5 -166.5t65 -81.5t135.5 -24q94 0 173 27v-79q-41 -13 -91.5 -19.5t-97.5 -6.5
q-106 0 -168 34zM288 913h78l133 -154h-87l-85 103l-86 -103h-87z" />
    <glyph glyph-name="Cdotaccent" unicode="&#x10a;" horiz-adv-x="577" 
d="M172 24q-62 34 -90.5 109.5t-28.5 206.5q0 126 27.5 202t90 112t169.5 36q47 0 97.5 -6.5t91.5 -19.5v-79q-79 27 -173 27q-89 0 -135.5 -24.5t-65 -82t-18.5 -165.5q0 -109 18.5 -166.5t65 -81.5t135.5 -24q94 0 173 27v-79q-41 -13 -91.5 -19.5t-97.5 -6.5
q-106 0 -168 34zM290 862h94v-86h-94v86z" />
    <glyph glyph-name="Eth" unicode="&#xd0;" horiz-adv-x="660" 
d="M481.5 649q63.5 -31 94.5 -104.5t31 -202.5q0 -127 -32 -202t-96.5 -107.5t-168.5 -32.5h-220v680h222q106 0 169.5 -31zM434 102q48 26 68.5 83t20.5 157q0 105 -19 161t-63.5 78.5t-127.5 22.5h-141v-528h128q86 0 134 26zM25 368h332v-57h-332v57z" />
    <glyph glyph-name="Dcaron" unicode="&#x10e;" horiz-adv-x="660" 
d="M481.5 649q63.5 -31 94.5 -104.5t31 -202.5q0 -127 -32 -202t-96.5 -107.5t-168.5 -32.5h-220v680h222q106 0 169.5 -31zM434 102q48 26 68.5 83t20.5 157q0 105 -19 161t-63.5 78.5t-127.5 22.5h-141v-528h128q86 0 134 26zM231 913l86 -103l85 103h87l-133 -154h-78
l-134 154h87z" />
    <glyph glyph-name="Dcroat" unicode="&#x110;" horiz-adv-x="660" 
d="M481.5 649q63.5 -31 94.5 -104.5t31 -202.5q0 -127 -32 -202t-96.5 -107.5t-168.5 -32.5h-220v680h222q106 0 169.5 -31zM434 102q48 26 68.5 83t20.5 157q0 105 -19 161t-63.5 78.5t-127.5 22.5h-141v-528h128q86 0 134 26zM25 368h332v-57h-332v57z" />
    <glyph glyph-name="Eacute" unicode="&#xc9;" horiz-adv-x="592" 
d="M537 76l-19 -76h-428v680h434v-76h-352v-221h337v-74h-337v-233h365zM338 913h90l-104 -154h-73z" />
    <glyph glyph-name="Ebreve" unicode="&#x114;" horiz-adv-x="592" 
d="M537 76l-19 -76h-428v680h434v-76h-352v-221h337v-74h-337v-233h365zM199.5 793.5q-37.5 29.5 -39.5 100.5h66q2 -42 24 -58.5t64 -16.5t64 16.5t24 58.5h65q-1 -71 -38.5 -100.5t-114.5 -29.5t-114.5 29.5z" />
    <glyph glyph-name="Ecaron" unicode="&#x11a;" horiz-adv-x="592" 
d="M537 76l-19 -76h-428v680h434v-76h-352v-221h337v-74h-337v-233h365zM229 913l86 -103l85 103h87l-133 -154h-78l-134 154h87z" />
    <glyph glyph-name="Ecircumflex" unicode="&#xca;" horiz-adv-x="592" 
d="M537 76l-19 -76h-428v680h434v-76h-352v-221h337v-74h-337v-233h365zM276 913h78l133 -154h-87l-85 103l-86 -103h-87z" />
    <glyph glyph-name="uni1EBE" unicode="&#x1ebe;" horiz-adv-x="592" 
d="M537 76l-19 -76h-428v680h434v-76h-352v-221h337v-74h-337v-233h365zM288 895h78l126 -130h-90l-75 82l-77 -82h-89zM488 1017h90l-95 -122h-71z" />
    <glyph glyph-name="uni1EC6" unicode="&#x1ec6;" horiz-adv-x="592" 
d="M537 76l-19 -76h-428v680h434v-76h-352v-221h337v-74h-337v-233h365zM267 -85h94v-88h-94v88zM276 913h78l133 -154h-87l-85 103l-86 -103h-87z" />
    <glyph glyph-name="uni1EC0" unicode="&#x1ec0;" horiz-adv-x="592" 
d="M537 76l-19 -76h-428v680h434v-76h-352v-221h337v-74h-337v-233h365zM350 895h-78l-126 -130h90l75 82l77 -82h89zM413 1017h-90l95 -122h71z" />
    <glyph glyph-name="uni1EC2" unicode="&#x1ec2;" horiz-adv-x="592" 
d="M537 76l-19 -76h-428v680h434v-76h-352v-221h337v-74h-337v-233h365zM271 895h78l126 -130h-90l-75 82l-77 -82h-89zM403 905q64 17 64 47t-47 30q-21 0 -37.5 -4t-21.5 -5v57q3 1 23.5 5t50.5 4q42 0 71.5 -20.5t29.5 -57.5q0 -35 -29 -61t-80 -39z" />
    <glyph glyph-name="uni1EC4" unicode="&#x1ec4;" horiz-adv-x="592" 
d="M537 76l-19 -76h-428v680h434v-76h-352v-221h337v-74h-337v-233h365zM273 871.695h78l126 -114.939h-90l-75 72.5l-77 -72.5h-89zM471 1010q0 -52 -22.5 -78t-70.5 -26q-24 0 -40 7t-37 22q-14 10 -24 15t-21 5q-20 0 -28 -11t-10 -34h-58q0 52 22 78t71 26
q24 0 40.5 -7.5t35.5 -21.5q14 -10 23.5 -15t21.5 -5q19 0 28 11t10 34h59z" />
    <glyph glyph-name="Edieresis" unicode="&#xcb;" horiz-adv-x="592" 
d="M537 76l-19 -76h-428v680h434v-76h-352v-221h337v-74h-337v-233h365zM171 862h87v-86h-87v86zM369 862h87v-86h-87v86z" />
    <glyph glyph-name="Edotaccent" unicode="&#x116;" horiz-adv-x="592" 
d="M537 76l-19 -76h-428v680h434v-76h-352v-221h337v-74h-337v-233h365zM267 862h94v-86h-94v86z" />
    <glyph glyph-name="uni1EB8" unicode="&#x1eb8;" horiz-adv-x="592" 
d="M537 76l-19 -76h-428v680h434v-76h-352v-221h337v-74h-337v-233h365zM265 -85h94v-88h-94v88z" />
    <glyph glyph-name="Egrave" unicode="&#xc8;" horiz-adv-x="592" 
d="M537 76l-19 -76h-428v680h434v-76h-352v-221h337v-74h-337v-233h365zM300 759l-104 154h90l87 -154h-73z" />
    <glyph glyph-name="uni1EBA" unicode="&#x1eba;" horiz-adv-x="592" 
d="M537 76l-19 -76h-428v680h434v-76h-352v-221h337v-74h-337v-233h365zM271 798q78 21 78 59q0 15 -13.5 24.5t-42.5 9.5q-27 0 -46.5 -5t-23.5 -6v56q23 5 40 7t44 2q48 0 78 -21.5t30 -62.5q0 -37 -32 -66.5t-88 -42.5z" />
    <glyph glyph-name="Emacron" unicode="&#x112;" horiz-adv-x="592" 
d="M537 76l-19 -76h-428v680h434v-76h-352v-221h337v-74h-337v-233h365zM173 855h279v-65h-279v65z" />
    <glyph glyph-name="Eogonek" unicode="&#x118;" horiz-adv-x="592" 
d="M444.5 -72.5q-18.5 -24.5 -18.5 -45.5q0 -15 9.5 -21.5t29.5 -6.5q25 0 53 6v-62q-34 -8 -66 -8q-54 0 -75.5 22t-21.5 54q0 33 20 61.5t71 72.5h-356v680h434v-76h-352v-221h337v-74h-337v-233h365l-19 -76q-55 -48 -73.5 -72.5z" />
    <glyph glyph-name="uni1EBC" unicode="&#x1ebc;" horiz-adv-x="592" 
d="M537 76l-19 -76h-428v680h434v-76h-352v-221h337v-74h-337v-233h365zM480 867q0 -55 -23 -83.5t-74 -28.5q-25 0 -44 8.5t-41 24.5q-19 12 -28.5 17t-21.5 5q-21 0 -30.5 -12.5t-10.5 -39.5h-60q0 112 97 112q26 0 45.5 -9t39.5 -24q18 -12 28.5 -17t22.5 -5q21 0 30 12
t11 40h59z" />
    <glyph glyph-name="Gbreve" unicode="&#x11e;" horiz-adv-x="650" 
d="M185 17.5q-67 27.5 -99.5 103t-32.5 218.5t32 218.5t99 104t184 28.5q96 0 188 -24v-79q-46 12 -88.5 18.5t-93.5 6.5q-93 0 -141.5 -18.5t-72 -76.5t-23.5 -178q0 -121 22 -178t68.5 -75t138.5 -18q47 0 79.5 4t63.5 14v259l80 23v-343q-53 -18 -104 -26.5t-117 -8.5
q-116 0 -183 27.5zM244.5 793.5q-37.5 29.5 -39.5 100.5h66q2 -42 24 -58.5t64 -16.5t64 16.5t24 58.5h65q-1 -71 -38.5 -100.5t-114.5 -29.5t-114.5 29.5z" />
    <glyph glyph-name="Gcaron" unicode="&#x1e6;" horiz-adv-x="650" 
d="M185 17.5q-67 27.5 -99.5 103t-32.5 218.5t32 218.5t99 104t184 28.5q96 0 188 -24v-79q-46 12 -88.5 18.5t-93.5 6.5q-93 0 -141.5 -18.5t-72 -76.5t-23.5 -178q0 -121 22 -178t68.5 -75t138.5 -18q47 0 79.5 4t63.5 14v259l80 23v-343q-53 -18 -104 -26.5t-117 -8.5
q-116 0 -183 27.5zM275 913l86 -103l85 103h87l-133 -154h-78l-134 154h87z" />
    <glyph glyph-name="Gcircumflex" unicode="&#x11c;" horiz-adv-x="650" 
d="M185 17.5q-67 27.5 -99.5 103t-32.5 218.5t32 218.5t99 104t184 28.5q96 0 188 -24v-79q-46 12 -88.5 18.5t-93.5 6.5q-93 0 -141.5 -18.5t-72 -76.5t-23.5 -178q0 -121 22 -178t68.5 -75t138.5 -18q47 0 79.5 4t63.5 14v259l80 23v-343q-53 -18 -104 -26.5t-117 -8.5
q-116 0 -183 27.5zM314 913h78l133 -154h-87l-85 103l-86 -103h-87z" />
    <glyph glyph-name="Gcommaaccent" unicode="&#x122;" horiz-adv-x="650" 
d="M185 17.5q-67 27.5 -99.5 103t-32.5 218.5t32 218.5t99 104t184 28.5q96 0 188 -24v-79q-46 12 -88.5 18.5t-93.5 6.5q-93 0 -141.5 -18.5t-72 -76.5t-23.5 -178q0 -121 22 -178t68.5 -75t138.5 -18q47 0 79.5 4t63.5 14v259l80 23v-343q-53 -18 -104 -26.5t-117 -8.5
q-116 0 -183 27.5zM324 -50h87l-61 -150h-74z" />
    <glyph glyph-name="Gdotaccent" unicode="&#x120;" horiz-adv-x="650" 
d="M185 17.5q-67 27.5 -99.5 103t-32.5 218.5t32 218.5t99 104t184 28.5q96 0 188 -24v-79q-46 12 -88.5 18.5t-93.5 6.5q-93 0 -141.5 -18.5t-72 -76.5t-23.5 -178q0 -121 22 -178t68.5 -75t138.5 -18q47 0 79.5 4t63.5 14v259l80 23v-343q-53 -18 -104 -26.5t-117 -8.5
q-116 0 -183 27.5zM300 862h94v-86h-94v86z" />
    <glyph glyph-name="Hbar" unicode="&#x126;" horiz-adv-x="701" 
d="M611 680v-680h-82v309h-357v-309h-82v680h82v-295h357v295h82zM33 572h635v-59h-635v59z" />
    <glyph glyph-name="Hcircumflex" unicode="&#x124;" horiz-adv-x="701" 
d="M611 680v-680h-82v309h-357v-309h-82v680h82v-295h357v295h82zM312 913h78l133 -154h-87l-85 103l-86 -103h-87z" />
    <glyph glyph-name="Iacute" unicode="&#xcd;" horiz-adv-x="262" 
d="M90 680h82v-680h-82v680zM177 913h90l-104 -154h-73z" />
    <glyph glyph-name="Ibreve" unicode="&#x12c;" horiz-adv-x="262" 
d="M90 680h82v-680h-82v680zM16.5 793.5q-37.5 29.5 -39.5 100.5h66q2 -42 24 -58.5t64 -16.5t64 16.5t24 58.5h65q-1 -71 -38.5 -100.5t-114.5 -29.5t-114.5 29.5z" />
    <glyph glyph-name="Icircumflex" unicode="&#xce;" horiz-adv-x="262" 
d="M90 680h82v-680h-82v680zM93 913h78l133 -154h-87l-85 103l-86 -103h-87z" />
    <glyph glyph-name="Idieresis" unicode="&#xcf;" horiz-adv-x="262" 
d="M90 680h82v-680h-82v680zM-12 862h87v-86h-87v86zM186 862h87v-86h-87v86z" />
    <glyph glyph-name="Idotaccent" unicode="&#x130;" horiz-adv-x="262" 
d="M90 680h82v-680h-82v680zM84 862h94v-86h-94v86z" />
    <glyph glyph-name="uni1ECA" unicode="&#x1eca;" horiz-adv-x="262" 
d="M90 680h82v-680h-82v680zM83 -85h94v-88h-94v88z" />
    <glyph glyph-name="Igrave" unicode="&#xcc;" horiz-adv-x="262" 
d="M172 680h-82v-680h82v680zM85 913h-90l104 -154h73z" />
    <glyph glyph-name="uni1EC8" unicode="&#x1ec8;" horiz-adv-x="262" 
d="M89 680h82v-680h-82v680zM88 798q78 21 78 59q0 15 -13.5 24.5t-42.5 9.5q-27 0 -46.5 -5t-23.5 -6v56q23 5 40 7t44 2q48 0 78 -21.5t30 -62.5q0 -37 -32 -66.5t-88 -42.5z" />
    <glyph glyph-name="Imacron" unicode="&#x12a;" horiz-adv-x="262" 
d="M90 680h82v-680h-82v680zM-9 855h279v-65h-279v65z" />
    <glyph glyph-name="Iogonek" unicode="&#x12e;" horiz-adv-x="262" 
d="M98.5 -72.5q-18.5 -24.5 -18.5 -45.5q0 -15 9.5 -21.5t29.5 -6.5q25 0 53 6v-62q-34 -8 -66 -8q-96 0 -96 76q0 33 20 61.5t70 72.5h-10v680h82v-680q-55 -48 -73.5 -72.5z" />
    <glyph glyph-name="Itilde" unicode="&#x128;" horiz-adv-x="262" 
d="M90 680h82v-680h-82v680zM297 865q0 -55 -23 -83.5t-74 -28.5q-25 0 -44 8.5t-41 24.5q-19 12 -28.5 17t-21.5 5q-21 0 -30.5 -12.5t-10.5 -39.5h-60q0 112 97 112q26 0 45.5 -9t39.5 -24q18 -12 28.5 -17t22.5 -5q21 0 30 12t11 40h59z" />
    <glyph glyph-name="Jcircumflex" unicode="&#x134;" horiz-adv-x="509" 
d="M433 175q0 -105 -60 -145t-169 -40q-55 0 -95 7t-63 16v80q24 -9 63.5 -17t88.5 -8q72 0 112.5 21.5t40.5 88.5v426h-292l22 76h352v-505zM208 913h78l133 -154h-87l-85 103l-86 -103h-87z" />
    <glyph glyph-name="Kcommaaccent" unicode="&#x136;" horiz-adv-x="603" 
d="M493 0l-321 339v-339h-82v680h82v-327l307 327h106l-320 -333l338 -347h-110zM275 -50h87l-61 -150h-74z" />
    <glyph glyph-name="Lacute" unicode="&#x139;" horiz-adv-x="537" 
d="M90 680h82v-603h344l-17 -77h-409v680zM180 913h90l-104 -154h-73z" />
    <glyph glyph-name="Lcaron" unicode="&#x13d;" horiz-adv-x="537" 
d="M90 680h82v-603h344l-17 -77h-409v680zM307 680h85l-62 -210h-69z" />
    <glyph glyph-name="Lcommaaccent" unicode="&#x13b;" horiz-adv-x="537" 
d="M90 680h82v-603h344l-17 -77h-409v680zM269 -50h87l-61 -150h-74z" />
    <glyph glyph-name="Ldot" unicode="&#x13f;" horiz-adv-x="537" 
d="M90 680h82v-603h344l-17 -77h-409v680zM300 350h93v-97h-93v97z" />
    <glyph glyph-name="Lslash" unicode="&#x141;" horiz-adv-x="537" 
d="M516 77l-17 -77h-409v294l-57 -19v67l57 19v319h82v-293l230 75v-67l-230 -75v-243h344z" />
    <glyph glyph-name="Nacute" unicode="&#x143;" horiz-adv-x="708" 
d="M90 680h67l379 -535v535h82v-680h-69l-377 531v-531h-82v680zM389 913h90l-104 -154h-73z" />
    <glyph glyph-name="Ncaron" unicode="&#x147;" horiz-adv-x="708" 
d="M90 680h67l379 -535v535h82v-680h-69l-377 531v-531h-82v680zM270 913l86 -103l85 103h87l-133 -154h-78l-134 154h87z" />
    <glyph glyph-name="Ncommaaccent" unicode="&#x145;" horiz-adv-x="708" 
d="M90 680h67l379 -535v535h82v-680h-69l-377 531v-531h-82v680zM316 -50h87l-61 -150h-74z" />
    <glyph glyph-name="Eng" unicode="&#x14a;" horiz-adv-x="708" 
d="M618 680v-704q0 -88 -60.5 -128.5t-173.5 -57.5v77q48 11 78.5 22t52 32.5t21.5 57.5v41l-364 511v-531h-82v680h67l379 -535v535h82z" />
    <glyph glyph-name="uni019D" unicode="&#x19d;" horiz-adv-x="708" 
d="M618 680v-680h-69l-377 531v-568q0 -88 -50 -125t-134 -48v78q35 8 54 15t33.5 26.5t14.5 56.5v714h67l379 -535v535h82z" />
    <glyph glyph-name="Ntilde" unicode="&#xd1;" horiz-adv-x="708" 
d="M90 680h67l379 -535v535h82v-680h-69l-377 531v-531h-82v680zM520 867q0 -55 -23 -83.5t-74 -28.5q-25 0 -44 8.5t-41 24.5q-19 12 -28.5 17t-21.5 5q-21 0 -30.5 -12.5t-10.5 -39.5h-60q0 112 97 112q26 0 45.5 -9t39.5 -24q18 -12 28.5 -17t22.5 -5q21 0 30 12t11 40
h59z" />
    <glyph glyph-name="Oacute" unicode="&#xd3;" horiz-adv-x="666" 
d="M167.5 23.5q-60.5 33.5 -87.5 109t-27 206.5q0 132 27 208t87 109.5t166 33.5q105 0 165.5 -33.5t87 -109.5t26.5 -208t-26.5 -207t-87 -108.5t-165.5 -33.5t-165.5 33.5zM450.5 92q41.5 24 59.5 82t18 165q0 108 -17 166t-58.5 82.5t-119.5 24.5t-119.5 -24.5t-59 -82.5
t-17.5 -166q0 -106 18 -164.5t60 -82.5t118 -24t117.5 24zM370 913h90l-104 -154h-73z" />
    <glyph glyph-name="Obreve" unicode="&#x14e;" horiz-adv-x="666" 
d="M167.5 23.5q-60.5 33.5 -87.5 109t-27 206.5q0 132 27 208t87 109.5t166 33.5q105 0 165.5 -33.5t87 -109.5t26.5 -208t-26.5 -207t-87 -108.5t-165.5 -33.5t-165.5 33.5zM450.5 92q41.5 24 59.5 82t18 165q0 108 -17 166t-58.5 82.5t-119.5 24.5t-119.5 -24.5t-59 -82.5
t-17.5 -166q0 -106 18 -164.5t60 -82.5t118 -24t117.5 24zM218.5 793.5q-37.5 29.5 -39.5 100.5h66q2 -42 24 -58.5t64 -16.5t64 16.5t24 58.5h65q-1 -71 -38.5 -100.5t-114.5 -29.5t-114.5 29.5z" />
    <glyph glyph-name="Ocircumflex" unicode="&#xd4;" horiz-adv-x="666" 
d="M167.5 23.5q-60.5 33.5 -87.5 109t-27 206.5q0 132 27 208t87 109.5t166 33.5q105 0 165.5 -33.5t87 -109.5t26.5 -208t-26.5 -207t-87 -108.5t-165.5 -33.5t-165.5 33.5zM450.5 92q41.5 24 59.5 82t18 165q0 108 -17 166t-58.5 82.5t-119.5 24.5t-119.5 -24.5t-59 -82.5
t-17.5 -166q0 -106 18 -164.5t60 -82.5t118 -24t117.5 24zM294 913h78l133 -154h-87l-85 103l-86 -103h-87z" />
    <glyph glyph-name="uni1ED0" unicode="&#x1ed0;" horiz-adv-x="667" 
d="M167.5 23.5q-60.5 33.5 -87.5 109t-27 206.5q0 132 27 208t87 109.5t166 33.5q105 0 165.5 -33.5t87 -109.5t26.5 -208t-26.5 -207t-87 -108.5t-165.5 -33.5t-165.5 33.5zM450.5 92q41.5 24 59.5 82t18 165q0 108 -17 166t-58.5 82.5t-119.5 24.5t-119.5 -24.5t-59 -82.5
t-17.5 -166q0 -106 18 -164.5t60 -82.5t118 -24t117.5 24zM296 895h78l126 -130h-90l-75 82l-77 -82h-89zM496 1017h90l-95 -122h-71z" />
    <glyph glyph-name="uni1ED8" unicode="&#x1ed8;" horiz-adv-x="666" 
d="M167.5 23.5q-60.5 33.5 -87.5 109t-27 206.5q0 132 27 208t87 109.5t166 33.5q105 0 165.5 -33.5t87 -109.5t26.5 -208t-26.5 -207t-87 -108.5t-165.5 -33.5t-165.5 33.5zM450.5 92q41.5 24 59.5 82t18 165q0 108 -17 166t-58.5 82.5t-119.5 24.5t-119.5 -24.5t-59 -82.5
t-17.5 -166q0 -106 18 -164.5t60 -82.5t118 -24t117.5 24zM285 -85h94v-88h-94v88zM294 913h78l133 -154h-87l-85 103l-86 -103h-87z" />
    <glyph glyph-name="uni1ED2" unicode="&#x1ed2;" horiz-adv-x="666" 
d="M167.5 23.5q-60.5 33.5 -87.5 109t-27 206.5q0 132 27 208t87 109.5t166 33.5q105 0 165.5 -33.5t87 -109.5t26.5 -208t-26.5 -207t-87 -108.5t-165.5 -33.5t-165.5 33.5zM450.5 92q41.5 24 59.5 82t18 165q0 108 -17 166t-58.5 82.5t-119.5 24.5t-119.5 -24.5t-59 -82.5
t-17.5 -166q0 -106 18 -164.5t60 -82.5t118 -24t117.5 24zM373 895h-78l-126 -130h90l75 82l77 -82h89zM436 1017h-90l95 -122h71z" />
    <glyph glyph-name="uni1ED4" unicode="&#x1ed4;" horiz-adv-x="666" 
d="M167.5 23.5q-60.5 33.5 -87.5 109t-27 206.5q0 132 27 208t87 109.5t166 33.5q105 0 165.5 -33.5t87 -109.5t26.5 -208t-26.5 -207t-87 -108.5t-165.5 -33.5t-165.5 33.5zM450.5 92q41.5 24 59.5 82t18 165q0 108 -17 166t-58.5 82.5t-119.5 24.5t-119.5 -24.5t-59 -82.5
t-17.5 -166q0 -106 18 -164.5t60 -82.5t118 -24t117.5 24zM272 895h78l126 -130h-90l-75 82l-77 -82h-89zM404 905q64 17 64 47t-47 30q-21 0 -37.5 -4t-21.5 -5v57q3 1 23.5 5t50.5 4q42 0 71.5 -20.5t29.5 -57.5q0 -35 -29 -61t-80 -39z" />
    <glyph glyph-name="uni1ED6" unicode="&#x1ed6;" horiz-adv-x="666" 
d="M167.5 23.5q-60.5 33.5 -87.5 109t-27 206.5q0 132 27 208t87 109.5t166 33.5q105 0 165.5 -33.5t87 -109.5t26.5 -208t-26.5 -207t-87 -108.5t-165.5 -33.5t-165.5 33.5zM450.5 92q41.5 24 59.5 82t18 165q0 108 -17 166t-58.5 82.5t-119.5 24.5t-119.5 -24.5t-59 -82.5
t-17.5 -166q0 -106 18 -164.5t60 -82.5t118 -24t117.5 24zM293 871.695h78l126 -114.939h-90l-75 72.5l-77 -72.5h-89zM491 1010q0 -52 -22.5 -78t-70.5 -26q-24 0 -40 7t-37 22q-14 10 -24 15t-21 5q-20 0 -28 -11t-10 -34h-58q0 52 22 78t71 26q24 0 40.5 -7.5t35.5 -21.5
q14 -10 23.5 -15t21.5 -5q19 0 28 11t10 34h59z" />
    <glyph glyph-name="Odieresis" unicode="&#xd6;" horiz-adv-x="666" 
d="M167.5 23.5q-60.5 33.5 -87.5 109t-27 206.5q0 132 27 208t87 109.5t166 33.5q105 0 165.5 -33.5t87 -109.5t26.5 -208t-26.5 -207t-87 -108.5t-165.5 -33.5t-165.5 33.5zM450.5 92q41.5 24 59.5 82t18 165q0 108 -17 166t-58.5 82.5t-119.5 24.5t-119.5 -24.5t-59 -82.5
t-17.5 -166q0 -106 18 -164.5t60 -82.5t118 -24t117.5 24zM190 862h87v-86h-87v86zM388 862h87v-86h-87v86z" />
    <glyph glyph-name="uni1ECC" unicode="&#x1ecc;" horiz-adv-x="666" 
d="M167.5 23.5q-60.5 33.5 -87.5 109t-27 206.5q0 132 27 208t87 109.5t166 33.5q105 0 165.5 -33.5t87 -109.5t26.5 -208t-26.5 -207t-87 -108.5t-165.5 -33.5t-165.5 33.5zM450.5 92q41.5 24 59.5 82t18 165q0 108 -17 166t-58.5 82.5t-119.5 24.5t-119.5 -24.5t-59 -82.5
t-17.5 -166q0 -106 18 -164.5t60 -82.5t118 -24t117.5 24zM285 -85h94v-88h-94v88z" />
    <glyph glyph-name="Ograve" unicode="&#xd2;" horiz-adv-x="666" 
d="M498.5 23.5q60.5 33.5 87.5 109t27 206.5q0 132 -27 208t-87 109.5t-166 33.5q-105 0 -165.5 -33.5t-87 -109.5t-26.5 -208t26.5 -207t87 -108.5t165.5 -33.5t165.5 33.5zM215.5 92q-41.5 24 -59.5 82t-18 165q0 108 17 166t58.5 82.5t119.5 24.5t119.5 -24.5t59 -82.5
t17.5 -166q0 -106 -18 -164.5t-60 -82.5t-118 -24t-117.5 24zM296 913h-90l104 -154h73z" />
    <glyph glyph-name="uni1ECE" unicode="&#x1ece;" horiz-adv-x="666" 
d="M167.5 23.5q-60.5 33.5 -87.5 109t-27 206.5q0 132 27 208t87 109.5t166 33.5q105 0 165.5 -33.5t87 -109.5t26.5 -208t-26.5 -207t-87 -108.5t-165.5 -33.5t-165.5 33.5zM450.5 92q41.5 24 59.5 82t18 165q0 108 -17 166t-58.5 82.5t-119.5 24.5t-119.5 -24.5t-59 -82.5
t-17.5 -166q0 -106 18 -164.5t60 -82.5t118 -24t117.5 24zM305 798q78 21 78 59q0 15 -13.5 24.5t-42.5 9.5q-27 0 -46.5 -5t-23.5 -6v56q23 5 40 7t44 2q48 0 78 -21.5t30 -62.5q0 -37 -32 -66.5t-88 -42.5z" />
    <glyph glyph-name="Ohorn" unicode="&#x1a0;" horiz-adv-x="666" 
d="M167.5 23.5q-60.5 33.5 -87.5 109t-27 206.5q0 132 27 208t87 109.5t166 33.5q105 0 165.5 -33.5t87 -109.5t26.5 -208t-26.5 -207t-87 -108.5t-165.5 -33.5t-165.5 33.5zM450.5 92q41.5 24 59.5 82t18 165q0 108 -17 166t-58.5 82.5t-119.5 24.5t-119.5 -24.5t-59 -82.5
t-17.5 -166q0 -106 18 -164.5t60 -82.5t118 -24t117.5 24zM511 678.5q12 25.5 12 75.5q0 30 -3 48h73q5 -25 5 -49q0 -66 -25.5 -102.5t-78.5 -55.5l-23 39q28 19 40 44.5z" />
    <glyph glyph-name="uni1EDA" unicode="&#x1eda;" horiz-adv-x="666" 
d="M167.5 23.5q-60.5 33.5 -87.5 109t-27 206.5q0 132 27 208t87 109.5t166 33.5q105 0 165.5 -33.5t87 -109.5t26.5 -208t-26.5 -207t-87 -108.5t-165.5 -33.5t-165.5 33.5zM450.5 92q41.5 24 59.5 82t18 165q0 108 -17 166t-58.5 82.5t-119.5 24.5t-119.5 -24.5t-59 -82.5
t-17.5 -166q0 -106 18 -164.5t60 -82.5t118 -24t117.5 24zM511 678.5q12 25.5 12 75.5q0 30 -3 48h73q5 -25 5 -49q0 -66 -25.5 -102.5t-78.5 -55.5l-23 39q28 19 40 44.5zM362 913h90l-104 -154h-73z" />
    <glyph glyph-name="uni1EE2" unicode="&#x1ee2;" horiz-adv-x="666" 
d="M167.5 23.5q-60.5 33.5 -87.5 109t-27 206.5q0 132 27 208t87 109.5t166 33.5q105 0 165.5 -33.5t87 -109.5t26.5 -208t-26.5 -207t-87 -108.5t-165.5 -33.5t-165.5 33.5zM450.5 92q41.5 24 59.5 82t18 165q0 108 -17 166t-58.5 82.5t-119.5 24.5t-119.5 -24.5t-59 -82.5
t-17.5 -166q0 -106 18 -164.5t60 -82.5t118 -24t117.5 24zM511 678.5q12 25.5 12 75.5q0 30 -3 48h73q5 -25 5 -49q0 -66 -25.5 -102.5t-78.5 -55.5l-23 39q28 19 40 44.5zM287 -85h94v-88h-94v88z" />
    <glyph glyph-name="uni1EDC" unicode="&#x1edc;" horiz-adv-x="666" 
d="M167.5 23.5q-60.5 33.5 -87.5 109t-27 206.5q0 132 27 208t87 109.5t166 33.5q105 0 165.5 -33.5t87 -109.5t26.5 -208t-26.5 -207t-87 -108.5t-165.5 -33.5t-165.5 33.5zM450.5 92q41.5 24 59.5 82t18 165q0 108 -17 166t-58.5 82.5t-119.5 24.5t-119.5 -24.5t-59 -82.5
t-17.5 -166q0 -106 18 -164.5t60 -82.5t118 -24t117.5 24zM511 678.5q12 25.5 12 75.5q0 30 -3 48h73q5 -25 5 -49q0 -66 -25.5 -102.5t-78.5 -55.5l-23 39q28 19 40 44.5zM312 759l-104 154h90l87 -154h-73z" />
    <glyph glyph-name="uni1EDE" unicode="&#x1ede;" horiz-adv-x="666" 
d="M167.5 23.5q-60.5 33.5 -87.5 109t-27 206.5q0 132 27 208t87 109.5t166 33.5q105 0 165.5 -33.5t87 -109.5t26.5 -208t-26.5 -207t-87 -108.5t-165.5 -33.5t-165.5 33.5zM450.5 92q41.5 24 59.5 82t18 165q0 108 -17 166t-58.5 82.5t-119.5 24.5t-119.5 -24.5t-59 -82.5
t-17.5 -166q0 -106 18 -164.5t60 -82.5t118 -24t117.5 24zM511 678.5q12 25.5 12 75.5q0 30 -3 48h73q5 -25 5 -49q0 -66 -25.5 -102.5t-78.5 -55.5l-23 39q28 19 40 44.5zM295 798q78 21 78 59q0 15 -13.5 24.5t-42.5 9.5q-27 0 -46.5 -5t-23.5 -6v56q23 5 40 7t44 2
q48 0 78 -21.5t30 -62.5q0 -37 -32 -66.5t-88 -42.5z" />
    <glyph glyph-name="uni1EE0" unicode="&#x1ee0;" horiz-adv-x="666" 
d="M167.5 23.5q-60.5 33.5 -87.5 109t-27 206.5q0 132 27 208t87 109.5t166 33.5q105 0 165.5 -33.5t87 -109.5t26.5 -208t-26.5 -207t-87 -108.5t-165.5 -33.5t-165.5 33.5zM450.5 92q41.5 24 59.5 82t18 165q0 108 -17 166t-58.5 82.5t-119.5 24.5t-119.5 -24.5t-59 -82.5
t-17.5 -166q0 -106 18 -164.5t60 -82.5t118 -24t117.5 24zM511 678.5q12 25.5 12 75.5q0 30 -3 48h73q5 -25 5 -49q0 -66 -25.5 -102.5t-78.5 -55.5l-23 39q28 19 40 44.5zM475 867q0 -55 -23 -83.5t-74 -28.5q-25 0 -44 8.5t-41 24.5q-19 12 -28.5 17t-21.5 5
q-21 0 -30.5 -12.5t-10.5 -39.5h-60q0 112 97 112q26 0 45.5 -9t39.5 -24q18 -12 28.5 -17t22.5 -5q21 0 30 12t11 40h59z" />
    <glyph glyph-name="Ohungarumlaut" unicode="&#x150;" horiz-adv-x="666" 
d="M167.5 23.5q-60.5 33.5 -87.5 109t-27 206.5q0 132 27 208t87 109.5t166 33.5q105 0 165.5 -33.5t87 -109.5t26.5 -208t-26.5 -207t-87 -108.5t-165.5 -33.5t-165.5 33.5zM450.5 92q41.5 24 59.5 82t18 165q0 108 -17 166t-58.5 82.5t-119.5 24.5t-119.5 -24.5t-59 -82.5
t-17.5 -166q0 -106 18 -164.5t60 -82.5t118 -24t117.5 24zM307 913h90l-104 -154h-73zM443 913h90l-104 -154h-73z" />
    <glyph glyph-name="Omacron" unicode="&#x14c;" horiz-adv-x="666" 
d="M167.5 23.5q-60.5 33.5 -87.5 109t-27 206.5q0 132 27 208t87 109.5t166 33.5q105 0 165.5 -33.5t87 -109.5t26.5 -208t-26.5 -207t-87 -108.5t-165.5 -33.5t-165.5 33.5zM450.5 92q41.5 24 59.5 82t18 165q0 108 -17 166t-58.5 82.5t-119.5 24.5t-119.5 -24.5t-59 -82.5
t-17.5 -166q0 -106 18 -164.5t60 -82.5t118 -24t117.5 24zM193 855h279v-65h-279v65z" />
    <glyph glyph-name="uni01EA" unicode="&#x1ea;" horiz-adv-x="666" 
d="M352.5 -58q-28.5 -33 -28.5 -59q0 -15 9.5 -22t29.5 -7q25 0 53 6v-62q-34 -8 -66 -8q-54 0 -75.5 22t-21.5 54t18 60t63 65h-11q-101 0 -159.5 34t-84.5 109.5t-26 204.5q0 132 27 208t87 109.5t166 33.5q105 0 165.5 -33.5t87 -109.5t26.5 -208q0 -110 -18 -175.5
t-55 -102t-100 -62.5q-58 -24 -86.5 -57zM155 174.5q18 -58.5 60 -82.5t118 -24t117.5 24t59.5 82t18 165q0 108 -17 166t-58.5 82.5t-119.5 24.5t-119.5 -24.5t-59 -82.5t-17.5 -166q0 -106 18 -164.5z" />
    <glyph glyph-name="Oslash" unicode="&#xd8;" horiz-adv-x="666" 
d="M498.5 656.5q60.5 -33.5 87 -109.5t26.5 -208t-26.5 -207t-87 -108.5t-165.5 -33.5t-165.5 33.5t-87.5 109t-27 206.5q0 132 27 208t87 109.5t166 33.5q105 0 165.5 -33.5zM213.5 587.5q-41.5 -24.5 -59 -82.5t-17.5 -166q0 -73 8.5 -122.5t26.5 -80.5l278 453
q-42 23 -117 23q-78 0 -119.5 -24.5zM450.5 92q41.5 24 59.5 82t18 165q0 76 -8 125.5t-26 80.5l-278 -453q41 -24 117 -24t117.5 24z" />
    <glyph glyph-name="Oslashacute" unicode="&#x1fe;" horiz-adv-x="666" 
d="M498.5 656.5q60.5 -33.5 87 -109.5t26.5 -208t-26.5 -207t-87 -108.5t-165.5 -33.5t-165.5 33.5t-87.5 109t-27 206.5q0 132 27 208t87 109.5t166 33.5q105 0 165.5 -33.5zM213.5 587.5q-41.5 -24.5 -59 -82.5t-17.5 -166q0 -73 8.5 -122.5t26.5 -80.5l278 453
q-42 23 -117 23q-78 0 -119.5 -24.5zM450.5 92q41.5 24 59.5 82t18 165q0 76 -8 125.5t-26 80.5l-278 -453q41 -24 117 -24t117.5 24zM366 913h90l-104 -154h-73z" />
    <glyph glyph-name="Otilde" unicode="&#xd5;" horiz-adv-x="666" 
d="M167.5 23.5q-60.5 33.5 -87.5 109t-27 206.5q0 132 27 208t87 109.5t166 33.5q105 0 165.5 -33.5t87 -109.5t26.5 -208t-26.5 -207t-87 -108.5t-165.5 -33.5t-165.5 33.5zM450.5 92q41.5 24 59.5 82t18 165q0 108 -17 166t-58.5 82.5t-119.5 24.5t-119.5 -24.5t-59 -82.5
t-17.5 -166q0 -106 18 -164.5t60 -82.5t118 -24t117.5 24zM499 867q0 -55 -23 -83.5t-74 -28.5q-25 0 -44 8.5t-41 24.5q-19 12 -28.5 17t-21.5 5q-21 0 -30.5 -12.5t-10.5 -39.5h-60q0 112 97 112q26 0 45.5 -9t39.5 -24q18 -12 28.5 -17t22.5 -5q21 0 30 12t11 40h59z" />
    <glyph glyph-name="OE" unicode="&#x152;" horiz-adv-x="991" 
d="M936 76l-19 -76h-428v680h434v-76h-352v-221h337v-74h-337v-233h365zM178.5 649q-63.5 -31 -94.5 -104.5t-31 -202.5q0 -127 32 -202t96.5 -107.5t168.5 -32.5h220v680h-222q-106 0 -169.5 -31zM226 102q-48 26 -68.5 83t-20.5 157q0 105 19 161t63.5 78.5t127.5 22.5
h141v-528h-128q-86 0 -134 26z" />
    <glyph glyph-name="Thorn" unicode="&#xde;" horiz-adv-x="628" 
d="M468.5 553.5q52.5 -20.5 79 -69t26.5 -132.5q0 -120 -62 -171.5t-186 -51.5h-154v-129h-82v680h82v-106h161q83 0 135.5 -20.5zM417 217q36 12 54.5 44t18.5 92t-17 91.5t-53 42.5t-102 11h-146v-293h148q61 0 97 12z" />
    <glyph glyph-name="Racute" unicode="&#x154;" horiz-adv-x="640" 
d="M607 0h-95l-179 267h-161v-267h-82v680h231q87 0 141 -18.5t82 -63t28 -123.5q0 -91 -38 -136.5t-115 -60.5zM415 352q37 10 56 38t19 83t-19 83t-56 38t-103 10h-140v-262h140q66 0 103 10zM343 913h90l-104 -154h-73z" />
    <glyph glyph-name="Rcaron" unicode="&#x158;" horiz-adv-x="640" 
d="M607 0h-95l-179 267h-161v-267h-82v680h231q87 0 141 -18.5t82 -63t28 -123.5q0 -91 -38 -136.5t-115 -60.5zM415 352q37 10 56 38t19 83t-19 83t-56 38t-103 10h-140v-262h140q66 0 103 10zM224 913l86 -103l85 103h87l-133 -154h-78l-134 154h87z" />
    <glyph glyph-name="Rcommaaccent" unicode="&#x156;" horiz-adv-x="640" 
d="M607 0h-95l-179 267h-161v-267h-82v680h231q87 0 141 -18.5t82 -63t28 -123.5q0 -91 -38 -136.5t-115 -60.5zM415 352q37 10 56 38t19 83t-19 83t-56 38t-103 10h-140v-262h140q66 0 103 10zM285 -50h87l-61 -150h-74z" />
    <glyph glyph-name="Sacute" unicode="&#x15a;" horiz-adv-x="563" 
d="M55 20v81q98 -35 214 -35q87 0 124 27.5t37 79.5q0 48 -18.5 72t-72.5 45l-143 56q-51 20 -82 40.5t-48 52t-17 80.5q0 64 25 101t78.5 53.5t142.5 16.5q114 0 191 -27v-78q-34 13 -83 21t-107 8q-64 0 -98.5 -8.5t-49.5 -29t-15 -59.5q0 -29 12 -46.5t34 -29.5t65 -29
l132 -52q53 -20 82.5 -43.5t42.5 -56.5t13 -83q0 -91 -55.5 -139t-189.5 -48q-132 0 -214 30zM322 913h90l-104 -154h-73z" />
    <glyph glyph-name="Scaron" unicode="&#x160;" horiz-adv-x="563" 
d="M55 20v81q98 -35 214 -35q87 0 124 27.5t37 79.5q0 48 -18.5 72t-72.5 45l-143 56q-51 20 -82 40.5t-48 52t-17 80.5q0 64 25 101t78.5 53.5t142.5 16.5q114 0 191 -27v-78q-34 13 -83 21t-107 8q-64 0 -98.5 -8.5t-49.5 -29t-15 -59.5q0 -29 12 -46.5t34 -29.5t65 -29
l132 -52q53 -20 82.5 -43.5t42.5 -56.5t13 -83q0 -91 -55.5 -139t-189.5 -48q-132 0 -214 30zM192 913l86 -103l85 103h87l-133 -154h-78l-134 154h87z" />
    <glyph glyph-name="Scedilla" unicode="&#x15e;" horiz-adv-x="563" 
d="M55 20v81q98 -35 214 -35q87 0 124 27.5t37 79.5q0 48 -18.5 72t-72.5 45l-143 56q-51 20 -82 40.5t-48 52t-17 80.5q0 64 25 101t78.5 53.5t142.5 16.5q114 0 191 -27v-78q-34 13 -83 21t-107 8q-64 0 -98.5 -8.5t-49.5 -29t-15 -59.5q0 -29 12 -46.5t34 -29.5t65 -29
l132 -52q53 -20 82.5 -43.5t42.5 -56.5t13 -83q0 -91 -55.5 -139t-189.5 -48q-132 0 -214 30zM200 -151q22 -4 58 -4q35 0 49 6.5t14 24.5q0 13 -8.5 20t-30 9.5t-65.5 2.5l25 92h59l-14 -50q53 -2 76 -21t23 -56q0 -42 -29 -62.5t-89 -20.5q-42 0 -68 4v55z" />
    <glyph glyph-name="Scircumflex" unicode="&#x15c;" horiz-adv-x="563" 
d="M55 20v81q98 -35 214 -35q87 0 124 27.5t37 79.5q0 48 -18.5 72t-72.5 45l-143 56q-51 20 -82 40.5t-48 52t-17 80.5q0 64 25 101t78.5 53.5t142.5 16.5q114 0 191 -27v-78q-34 13 -83 21t-107 8q-64 0 -98.5 -8.5t-49.5 -29t-15 -59.5q0 -29 12 -46.5t34 -29.5t65 -29
l132 -52q53 -20 82.5 -43.5t42.5 -56.5t13 -83q0 -91 -55.5 -139t-189.5 -48q-132 0 -214 30zM235 913h78l133 -154h-87l-85 103l-86 -103h-87z" />
    <glyph glyph-name="Scommaaccent" unicode="&#x218;" horiz-adv-x="563" 
d="M55 20v81q98 -35 214 -35q87 0 124 27.5t37 79.5q0 48 -18.5 72t-72.5 45l-143 56q-51 20 -82 40.5t-48 52t-17 80.5q0 64 25 101t78.5 53.5t142.5 16.5q114 0 191 -27v-78q-34 13 -83 21t-107 8q-64 0 -98.5 -8.5t-49.5 -29t-15 -59.5q0 -29 12 -46.5t34 -29.5t65 -29
l132 -52q53 -20 82.5 -43.5t42.5 -56.5t13 -83q0 -91 -55.5 -139t-189.5 -48q-132 0 -214 30zM231 -50h87l-61 -150h-74z" />
    <glyph glyph-name="uni1E9E" unicode="&#x1e9e;" horiz-adv-x="671" 
d="M224 8v78q9 -2 58.5 -11t103.5 -9q80 0 118 28.5t38 98.5q0 45 -14.5 73t-51.5 42.5t-104 14.5q-49 0 -82 -4v63l170 201q-48 32 -136 32q-87 0 -128 -29t-41 -108v-478h-82v478q0 118 66.5 165t185.5 47q94 0 155 -28.5t92 -66.5l-182 -210q12 2 23 2q116 0 164.5 -48
t48.5 -146q0 -113 -58.5 -158t-181.5 -45q-76 0 -162 18z" />
    <glyph glyph-name="uni018F" unicode="&#x18f;" horiz-adv-x="662" 
d="M475.5 663q67.5 -27 100.5 -102t33 -222q0 -128 -25.5 -203.5t-85.5 -110.5t-167 -35q-103 0 -162 30t-86 97.5t-30 184.5v62h471q-2 109 -26 162t-72 69.5t-139 16.5q-55 0 -95 -4t-89 -12v77q93 17 183 17q122 0 189.5 -27zM445 89q40 21 57.5 69t20.5 134h-385
q3 -87 21.5 -135t59 -68.5t112.5 -20.5q74 0 114 21z" />
    <glyph glyph-name="Tbar" unicode="&#x166;" horiz-adv-x="567" 
d="M242 603h-222v77h534l-21 -77h-209v-603h-82v603zM118 325h332v-57h-332v57z" />
    <glyph glyph-name="Tcaron" unicode="&#x164;" horiz-adv-x="567" 
d="M242 603h-222v77h534l-21 -77h-209v-603h-82v603zM198 913l86 -103l85 103h87l-133 -154h-78l-134 154h87z" />
    <glyph glyph-name="uni0162" unicode="&#x162;" horiz-adv-x="567" 
d="M324 0l-14 -50q53 -2 76 -21t23 -56q0 -42 -29 -62.5t-89 -20.5q-43 0 -67 4v55q22 -4 58 -4q34 0 48 6.5t14 24.5q0 13 -8.5 20t-30 9.5t-65.5 2.5l26 92h-24v603h-222v77h534l-21 -77h-209v-603z" />
    <glyph glyph-name="uni021A" unicode="&#x21a;" horiz-adv-x="567" 
d="M242 603h-222v77h534l-21 -77h-209v-603h-82v603zM240 -50h87l-61 -150h-74z" />
    <glyph glyph-name="Uacute" unicode="&#xda;" horiz-adv-x="661" 
d="M183 10.5q-56 20.5 -83 68t-27 130.5v471h82v-468q0 -57 17.5 -88t55.5 -43.5t103 -12.5t102.5 12.5t55 43.5t17.5 88v468h82v-471q0 -83 -27 -130.5t-83 -68t-147 -20.5q-92 0 -148 20.5zM371 913h90l-104 -154h-73z" />
    <glyph glyph-name="Ubreve" unicode="&#x16c;" horiz-adv-x="661" 
d="M183 10.5q-56 20.5 -83 68t-27 130.5v471h82v-468q0 -57 17.5 -88t55.5 -43.5t103 -12.5t102.5 12.5t55 43.5t17.5 88v468h82v-471q0 -83 -27 -130.5t-83 -68t-147 -20.5q-92 0 -148 20.5zM216.5 793.5q-37.5 29.5 -39.5 100.5h66q2 -42 24 -58.5t64 -16.5t64 16.5
t24 58.5h65q-1 -71 -38.5 -100.5t-114.5 -29.5t-114.5 29.5z" />
    <glyph glyph-name="Ucircumflex" unicode="&#xdb;" horiz-adv-x="661" 
d="M183 10.5q-56 20.5 -83 68t-27 130.5v471h82v-468q0 -57 17.5 -88t55.5 -43.5t103 -12.5t102.5 12.5t55 43.5t17.5 88v468h82v-471q0 -83 -27 -130.5t-83 -68t-147 -20.5q-92 0 -148 20.5zM292 913h78l133 -154h-87l-85 103l-86 -103h-87z" />
    <glyph glyph-name="Udieresis" unicode="&#xdc;" horiz-adv-x="661" 
d="M183 10.5q-56 20.5 -83 68t-27 130.5v471h82v-468q0 -57 17.5 -88t55.5 -43.5t103 -12.5t102.5 12.5t55 43.5t17.5 88v468h82v-471q0 -83 -27 -130.5t-83 -68t-147 -20.5q-92 0 -148 20.5zM188 862h87v-86h-87v86zM386 862h87v-86h-87v86z" />
    <glyph glyph-name="uni1EE4" unicode="&#x1ee4;" horiz-adv-x="661" 
d="M183 10.5q-56 20.5 -83 68t-27 130.5v471h82v-468q0 -57 17.5 -88t55.5 -43.5t103 -12.5t102.5 12.5t55 43.5t17.5 88v468h82v-471q0 -83 -27 -130.5t-83 -68t-147 -20.5q-92 0 -148 20.5zM283 -85h94v-88h-94v88z" />
    <glyph glyph-name="Ugrave" unicode="&#xd9;" horiz-adv-x="661" 
d="M478 10.5q56 20.5 83 68t27 130.5v471h-82v-468q0 -57 -17.5 -88t-55.5 -43.5t-103 -12.5t-102.5 12.5t-55 43.5t-17.5 88v468h-82v-471q0 -83 27 -130.5t83 -68t147 -20.5q92 0 148 20.5zM290 913h-90l104 -154h73z" />
    <glyph glyph-name="uni1EE6" unicode="&#x1ee6;" horiz-adv-x="661" 
d="M183 10.5q-56 20.5 -83 68t-27 130.5v471h82v-468q0 -57 17.5 -88t55.5 -43.5t103 -12.5t102.5 12.5t55 43.5t17.5 88v468h82v-471q0 -83 -27 -130.5t-83 -68t-147 -20.5q-92 0 -148 20.5zM296 798q78 21 78 59q0 15 -13.5 24.5t-42.5 9.5q-27 0 -46.5 -5t-23.5 -6v56
q23 5 40 7t44 2q48 0 78 -21.5t30 -62.5q0 -37 -32 -66.5t-88 -42.5z" />
    <glyph glyph-name="Uhorn" unicode="&#x1af;" horiz-adv-x="670" 
d="M183 10.5q-56 20.5 -83 68t-27 130.5v471h82v-468q0 -57 17.5 -88t55.5 -43.5t103 -12.5t102.5 12.5t55 43.5t17.5 88v468h82v-471q0 -83 -27 -130.5t-83 -68t-147 -20.5q-92 0 -148 20.5zM551 680q37 0 52.5 16t15.5 53q0 30 -3 61h73q5 -27 5 -65q0 -121 -143 -123v58z
" />
    <glyph glyph-name="uni1EE8" unicode="&#x1ee8;" horiz-adv-x="670" 
d="M183 10.5q-56 20.5 -83 68t-27 130.5v471h82v-468q0 -57 17.5 -88t55.5 -43.5t103 -12.5t102.5 12.5t55 43.5t17.5 88v468h82v-471q0 -83 -27 -130.5t-83 -68t-147 -20.5q-92 0 -148 20.5zM551 680q37 0 52.5 16t15.5 53q0 30 -3 61h73q5 -27 5 -65q0 -121 -143 -123v58z
M368 913h90l-104 -154h-73z" />
    <glyph glyph-name="uni1EF0" unicode="&#x1ef0;" horiz-adv-x="670" 
d="M183 10.5q-56 20.5 -83 68t-27 130.5v471h82v-468q0 -57 17.5 -88t55.5 -43.5t103 -12.5t102.5 12.5t55 43.5t17.5 88v468h82v-471q0 -83 -27 -130.5t-83 -68t-147 -20.5q-92 0 -148 20.5zM551 680q37 0 52.5 16t15.5 53q0 30 -3 61h73q5 -27 5 -65q0 -121 -143 -123v58z
M285 -85h94v-88h-94v88z" />
    <glyph glyph-name="uni1EEA" unicode="&#x1eea;" horiz-adv-x="670" 
d="M183 10.5q-56 20.5 -83 68t-27 130.5v471h82v-468q0 -57 17.5 -88t55.5 -43.5t103 -12.5t102.5 12.5t55 43.5t17.5 88v468h82v-471q0 -83 -27 -130.5t-83 -68t-147 -20.5q-92 0 -148 20.5zM551 680q37 0 52.5 16t15.5 53q0 30 -3 61h73q5 -27 5 -65q0 -121 -143 -123v58z
M315 759l-104 154h90l87 -154h-73z" />
    <glyph glyph-name="uni1EEC" unicode="&#x1eec;" horiz-adv-x="670" 
d="M183 10.5q-56 20.5 -83 68t-27 130.5v471h82v-468q0 -57 17.5 -88t55.5 -43.5t103 -12.5t102.5 12.5t55 43.5t17.5 88v468h82v-471q0 -83 -27 -130.5t-83 -68t-147 -20.5q-92 0 -148 20.5zM551 680q37 0 52.5 16t15.5 53q0 30 -3 61h73q5 -27 5 -65q0 -121 -143 -123v58z
M301 798q78 21 78 59q0 15 -13.5 24.5t-42.5 9.5q-27 0 -46.5 -5t-23.5 -6v56q23 5 40 7t44 2q48 0 78 -21.5t30 -62.5q0 -37 -32 -66.5t-88 -42.5z" />
    <glyph glyph-name="uni1EEE" unicode="&#x1eee;" horiz-adv-x="670" 
d="M183 10.5q-56 20.5 -83 68t-27 130.5v471h82v-468q0 -57 17.5 -88t55.5 -43.5t103 -12.5t102.5 12.5t55 43.5t17.5 88v468h82v-471q0 -83 -27 -130.5t-83 -68t-147 -20.5q-92 0 -148 20.5zM551 680q37 0 52.5 16t15.5 53q0 30 -3 61h73q5 -27 5 -65q0 -121 -143 -123v58z
M500 867q0 -55 -23 -83.5t-74 -28.5q-25 0 -44 8.5t-41 24.5q-19 12 -28.5 17t-21.5 5q-21 0 -30.5 -12.5t-10.5 -39.5h-60q0 112 97 112q26 0 45.5 -9t39.5 -24q18 -12 28.5 -17t22.5 -5q21 0 30 12t11 40h59z" />
    <glyph glyph-name="Uhungarumlaut" unicode="&#x170;" horiz-adv-x="661" 
d="M183 10.5q-56 20.5 -83 68t-27 130.5v471h82v-468q0 -57 17.5 -88t55.5 -43.5t103 -12.5t102.5 12.5t55 43.5t17.5 88v468h82v-471q0 -83 -27 -130.5t-83 -68t-147 -20.5q-92 0 -148 20.5zM300 913h90l-104 -154h-73zM436 913h90l-104 -154h-73z" />
    <glyph glyph-name="Umacron" unicode="&#x16a;" horiz-adv-x="661" 
d="M183 10.5q-56 20.5 -83 68t-27 130.5v471h82v-468q0 -57 17.5 -88t55.5 -43.5t103 -12.5t102.5 12.5t55 43.5t17.5 88v468h82v-471q0 -83 -27 -130.5t-83 -68t-147 -20.5q-92 0 -148 20.5zM191 855h279v-65h-279v65z" />
    <glyph glyph-name="Uogonek" unicode="&#x172;" horiz-adv-x="661" 
d="M588 680v-471q0 -68 -16 -108t-45 -61t-75 -36q-43 -14 -72.5 -35t-44 -43.5t-14.5 -39.5q0 -18 9 -25t30 -7q25 0 53 6v-62q-34 -8 -66 -8q-54 0 -75.5 22t-21.5 54t19 61.5t63 63.5h-10q-88 0 -142 20.5t-80.5 68.5t-26.5 129v471h82v-468q0 -57 17.5 -88t55.5 -43.5
t103 -12.5t102.5 12.5t55 43.5t17.5 88v468h82z" />
    <glyph glyph-name="Uring" unicode="&#x16e;" horiz-adv-x="661" 
d="M183 10.5q-56 20.5 -83 68t-27 130.5v471h82v-468q0 -57 17.5 -88t55.5 -43.5t103 -12.5t102.5 12.5t55 43.5t17.5 88v468h82v-471q0 -83 -27 -130.5t-83 -68t-147 -20.5q-92 0 -148 20.5zM423.5 929q28.5 -26 28.5 -77t-28.5 -76.5t-92.5 -25.5q-65 0 -93.5 25.5
t-28.5 76.5t28.5 77t93.5 26q64 0 92.5 -26zM382.5 812.5q14.5 13.5 14.5 40.5t-14.5 41t-51.5 14q-38 0 -52.5 -13.5t-14.5 -41.5q0 -27 14.5 -40.5t52.5 -13.5q37 0 51.5 13.5z" />
    <glyph glyph-name="Utilde" unicode="&#x168;" horiz-adv-x="661" 
d="M183 10.5q-56 20.5 -83 68t-27 130.5v471h82v-468q0 -57 17.5 -88t55.5 -43.5t103 -12.5t102.5 12.5t55 43.5t17.5 88v468h82v-471q0 -83 -27 -130.5t-83 -68t-147 -20.5q-92 0 -148 20.5zM497 867q0 -55 -23 -83.5t-74 -28.5q-25 0 -44 8.5t-41 24.5q-19 12 -28.5 17
t-21.5 5q-21 0 -30.5 -12.5t-10.5 -39.5h-60q0 112 97 112q26 0 45.5 -9t39.5 -24q18 -12 28.5 -17t22.5 -5q21 0 30 12t11 40h59z" />
    <glyph glyph-name="Wacute" unicode="&#x1e82;" horiz-adv-x="950" 
d="M26 680h84l151 -582l175 582h78l175 -582l152 582h83l-184 -680h-96l-169 554l-169 -554h-96zM524 913h90l-104 -154h-73z" />
    <glyph glyph-name="Wcircumflex" unicode="&#x174;" horiz-adv-x="950" 
d="M26 680h84l151 -582l175 582h78l175 -582l152 582h83l-184 -680h-96l-169 554l-169 -554h-96zM437 913h78l133 -154h-87l-85 103l-86 -103h-87z" />
    <glyph glyph-name="Wdieresis" unicode="&#x1e84;" horiz-adv-x="950" 
d="M26 680h84l151 -582l175 582h78l175 -582l152 582h83l-184 -680h-96l-169 554l-169 -554h-96zM333 862h87v-86h-87v86zM531 862h87v-86h-87v86z" />
    <glyph glyph-name="Wgrave" unicode="&#x1e80;" horiz-adv-x="950" 
d="M924 680h-84l-151 -582l-175 582h-78l-175 -582l-152 582h-83l184 -680h96l169 554l169 -554h96zM426 913h-90l104 -154h73z" />
    <glyph glyph-name="Yacute" unicode="&#xdd;" horiz-adv-x="603" 
d="M260 251l-249 429h91l199 -348l200 348h91l-250 -429v-251h-82v251zM344 913h90l-104 -154h-73z" />
    <glyph glyph-name="Ycircumflex" unicode="&#x176;" horiz-adv-x="603" 
d="M260 251l-249 429h91l199 -348l200 348h91l-250 -429v-251h-82v251zM263 913h78l133 -154h-87l-85 103l-86 -103h-87z" />
    <glyph glyph-name="Ydieresis" unicode="&#x178;" horiz-adv-x="603" 
d="M260 251l-249 429h91l199 -348l200 348h91l-250 -429v-251h-82v251zM159 862h87v-86h-87v86zM357 862h87v-86h-87v86z" />
    <glyph glyph-name="uni1EF4" unicode="&#x1ef4;" horiz-adv-x="603" 
d="M260 251l-249 429h91l199 -348l200 348h91l-250 -429v-251h-82v251zM254 -85h94v-88h-94v88z" />
    <glyph glyph-name="Ygrave" unicode="&#x1ef2;" horiz-adv-x="603" 
d="M343 251l249 429h-91l-199 -348l-200 348h-91l250 -429v-251h82v251zM259 913h-90l104 -154h73z" />
    <glyph glyph-name="uni1EF6" unicode="&#x1ef6;" horiz-adv-x="603" 
d="M260 251l-249 429h91l199 -348l200 348h91l-250 -429v-251h-82v251zM271 798q78 21 78 59q0 15 -13.5 24.5t-42.5 9.5q-27 0 -46.5 -5t-23.5 -6v56q23 5 40 7t44 2q48 0 78 -21.5t30 -62.5q0 -37 -32 -66.5t-88 -42.5z" />
    <glyph glyph-name="uni0232" unicode="&#x232;" horiz-adv-x="603" 
d="M260 251l-249 429h91l199 -348l200 348h91l-250 -429v-251h-82v251zM162 855h279v-65h-279v65z" />
    <glyph glyph-name="uni1EF8" unicode="&#x1ef8;" horiz-adv-x="603" 
d="M260 251l-249 429h91l199 -348l200 348h91l-250 -429v-251h-82v251zM468 867q0 -55 -23 -83.5t-74 -28.5q-25 0 -44 8.5t-41 24.5q-19 12 -28.5 17t-21.5 5q-21 0 -30.5 -12.5t-10.5 -39.5h-60q0 112 97 112q26 0 45.5 -9t39.5 -24q18 -12 28.5 -17t22.5 -5q21 0 30 12
t11 40h59z" />
    <glyph glyph-name="Zacute" unicode="&#x179;" horiz-adv-x="564" 
d="M46 57l369 547h-359v76h461v-61l-369 -543h365v-76h-467v57zM317 913h90l-104 -154h-73z" />
    <glyph glyph-name="Zcaron" unicode="&#x17d;" horiz-adv-x="564" 
d="M46 57l369 547h-359v76h461v-61l-369 -543h365v-76h-467v57zM196 913l86 -103l85 103h87l-133 -154h-78l-134 154h87z" />
    <glyph glyph-name="Zdotaccent" unicode="&#x17b;" horiz-adv-x="564" 
d="M46 57l369 547h-359v76h461v-61l-369 -543h365v-76h-467v57zM235 862h94v-86h-94v86z" />
    <glyph glyph-name="a" unicode="a" horiz-adv-x="557" 
d="M89 29q-43 39 -43 127q0 87 47 120t142 33q86 0 165 -24v89q0 52 -37 73t-113 21q-77 0 -155 -23v74q79 21 163 21q109 0 165.5 -36t56.5 -128v-376h-61l-12 38q-65 -48 -177 -48q-98 0 -141 39zM400 83v145q-68 13 -135 13q-53 0 -82.5 -7.5t-42 -25.5t-12.5 -53
q0 -38 12 -58t40.5 -28.5t81.5 -8.5q73 0 138 23z" />
    <glyph glyph-name="b" unicode="b" horiz-adv-x="605" 
d="M493.5 475.5q57.5 -64.5 57.5 -210.5q0 -149 -58.5 -212t-173.5 -63q-92 0 -162 48l-13 -38h-63v720h80v-220q62 40 158 40q117 0 174.5 -64.5zM401.5 84q37.5 21 52.5 65t15 116t-15 115.5t-52.5 64.5t-104.5 21q-81 0 -136 -26v-350q58 -27 136 -27q67 0 104.5 21z" />
    <glyph glyph-name="c" unicode="c" horiz-adv-x="517" 
d="M162 15q-55 25 -81.5 84.5t-26.5 165.5t26.5 165.5t81.5 84.5t148 25q84 0 152 -24v-76q-71 26 -147 26q-69 0 -107 -16t-55 -59t-17 -126t17 -126t55 -59t107 -16q76 0 147 26v-76q-68 -24 -152 -24q-93 0 -148 25z" />
    <glyph glyph-name="d" unicode="d" horiz-adv-x="605" 
d="M524 720v-720h-63l-13 38q-70 -48 -162 -48q-115 0 -173.5 63t-58.5 212q0 146 57.5 210.5t174.5 64.5q96 0 158 -40v220h80zM444 440q-55 26 -136 26q-67 0 -104.5 -21t-52.5 -64.5t-15 -115.5t15 -116t52.5 -65t104.5 -21q78 0 136 27v350z" />
    <glyph glyph-name="e" unicode="e" horiz-adv-x="561" 
d="M157 15.5q-53 25.5 -78 85t-25 164.5q0 141 54.5 208t178.5 67q80 0 128 -25.5t70.5 -81t22.5 -147.5q0 -11 -3 -50h-371q2 -68 18.5 -105t53 -53t101.5 -16q96 0 170 29v-74q-69 -27 -177 -27q-90 0 -143 25.5zM428 303q-1 62 -13.5 97.5t-43 52.5t-84.5 17
q-80 0 -114.5 -39.5t-38.5 -127.5h294z" />
    <glyph glyph-name="f" unicode="f" horiz-adv-x="381" 
d="M366 460h-161v-460h-80v460h-108v70h108v23q0 45 11.5 77t46 59t99.5 50l53 19l24 -68l-40 -14q-42 -14 -66 -28.5t-36 -37.5t-12 -60v-20h161v-70z" />
    <glyph glyph-name="g" unicode="g" horiz-adv-x="605" 
d="M112 -135q169 5 248 31q44 14 65 38.5t21 62.5v29q-29 -12 -70.5 -20t-89.5 -8q-109 0 -170.5 63t-61.5 208q0 144 56.5 207.5t174.5 63.5q95 0 160 -43v33h79v-516q0 -67 -26 -109.5t-84.5 -67.5t-158.5 -38q-62 -7 -143 -9v75zM444 86v354q-57 26 -136 26
q-67 0 -104.5 -21t-52.5 -63.5t-15 -112.5q0 -102 37.5 -150.5t134.5 -48.5q68 0 136 16z" />
    <glyph glyph-name="h" unicode="h" horiz-adv-x="601" 
d="M81 530h77v-36q28 17 76 31.5t106 14.5q104 0 144 -38.5t40 -120.5v-381h-80v365q0 56 -27 78.5t-97 22.5q-95 0 -159 -30v-436h-80v530zM81 720h80v-720h-80v720z" />
    <glyph glyph-name="i" unicode="i" horiz-adv-x="238" 
d="M72 712h94v-86h-94v86zM79 530h80v-530h-80v530z" />
    <glyph glyph-name="j" unicode="j" horiz-adv-x="243" 
d="M75 712h94v-86h-94v86zM-42 -159q51 61 76.5 102.5t36.5 83t11 100.5v403h80v-410q0 -64 -10.5 -109t-40.5 -95.5t-92 -125.5z" />
    <glyph glyph-name="k" unicode="k" horiz-adv-x="525" 
d="M81 720h80v-720h-80v720zM415 0l-254 273v-273h-80v530h80v-247l237 247h103l-246 -252l264 -278h-104z" />
    <glyph glyph-name="l" unicode="l" horiz-adv-x="241" 
d="M81 720h80v-720h-80v720z" />
    <glyph glyph-name="m" unicode="m" horiz-adv-x="944" 
d="M827 501.5q40 -38.5 40 -120.5v-381h-80v365q0 57 -28 79t-102 22q-72 0 -147 -32q4 -21 4 -53v-381h-80v365q0 57 -28 79t-102 22q-40 0 -77.5 -9t-65.5 -22v-435h-80v530h77v-37q81 47 174 47q61 0 98.5 -13.5t57.5 -40.5q45 25 92.5 39.5t104.5 14.5q102 0 142 -38.5z
" />
    <glyph glyph-name="n" unicode="n" horiz-adv-x="601" 
d="M81 530h77v-36q28 17 76 31.5t106 14.5q104 0 144 -38.5t40 -120.5v-381h-80v365q0 56 -27 78.5t-97 22.5q-95 0 -159 -30v-436h-80v530z" />
    <glyph glyph-name="o" unicode="o" 
d="M114 52.5q-60 62.5 -60 212.5q0 149 60 212t185 63q124 0 184.5 -63t60.5 -212t-60.5 -212t-184.5 -63q-125 0 -185 62.5zM390 80q35 16 53.5 60t18.5 125t-18.5 125t-53.5 60t-91 16t-91 -16t-53.5 -60t-18.5 -125t18.5 -125t53.5 -60t91 -16t91 16z" />
    <glyph glyph-name="p" unicode="p" horiz-adv-x="605" 
d="M493 478q58 -62 58 -213q0 -147 -57 -211t-175 -64q-93 0 -158 29v-219h-80v730h80v-35q68 45 158 45q116 0 174 -62zM401.5 85q37.5 21 52.5 64.5t15 115.5t-15 116t-52.5 65t-104.5 21q-78 0 -136 -27v-356q53 -20 136 -20q67 0 104.5 21z" />
    <glyph glyph-name="q" unicode="q" horiz-adv-x="605" 
d="M112 478q-58 -62 -58 -213q0 -147 57 -211t175 -64q93 0 158 29v-219h80v730h-80v-35q-68 45 -158 45q-116 0 -174 -62zM203.5 85q-37.5 21 -52.5 64.5t-15 115.5t15 116t52.5 65t104.5 21q78 0 136 -27v-356q-53 -20 -136 -20q-67 0 -104.5 21z" />
    <glyph glyph-name="r" unicode="r" horiz-adv-x="383" 
d="M81 530h77v-58q34 22 86.5 41.5t115.5 26.5v-77q-57 -6 -110 -19.5t-89 -31.5v-412h-80v530z" />
    <glyph glyph-name="s" unicode="s" horiz-adv-x="502" 
d="M144 -2.5q-49 7.5 -85 22.5v79q42 -18 90.5 -27.5t91.5 -9.5q51 0 79 6.5t40 23.5t12 48q0 27 -10.5 43t-29.5 25t-57 20l-89 27q-46 13 -73.5 29t-43 43.5t-15.5 73.5q0 77 48.5 108t156.5 31q44 0 88.5 -6.5t76.5 -15.5v-77q-42 14 -81 20.5t-85 6.5q-50 0 -76.5 -6
t-37 -20.5t-10.5 -42.5q0 -35 18 -49t69 -29l89 -27q51 -15 80.5 -32t45 -45.5t15.5 -75.5q0 -57 -20 -89.5t-65 -47t-125 -14.5q-48 0 -97 7.5z" />
    <glyph glyph-name="t" unicode="t" horiz-adv-x="413" 
d="M156.5 22q-36.5 32 -36.5 106v332h-106v70h106v125l79 24v-149h175v-70h-175v-327q0 -38 20.5 -53.5t61.5 -15.5q47 0 96 17v-73q-23 -9 -48 -13.5t-61 -4.5q-75 0 -111.5 32z" />
    <glyph glyph-name="u" unicode="u" 
d="M118 28.5q-41 38.5 -41 120.5v381h80v-365q0 -56 27 -78.5t95 -22.5q50 0 86.5 8.5t70.5 22.5v435h80v-530h-64l-11 37q-31 -18 -76.5 -32.5t-102.5 -14.5q-103 0 -144 38.5z" />
    <glyph glyph-name="v" unicode="v" horiz-adv-x="529" 
d="M17 530h85l163 -445l163 445h84l-203 -530h-88z" />
    <glyph glyph-name="w" unicode="w" horiz-adv-x="816" 
d="M17 530h82l130 -449l136 449h86l135 -449l131 449h82l-163 -530h-97l-131 432l-132 -432h-96z" />
    <glyph glyph-name="x" unicode="x" horiz-adv-x="517" 
d="M212 269l-184 261h93l138 -202l138 202h92l-183 -262l192 -268h-96l-143 207l-144 -207h-96z" />
    <glyph glyph-name="y" unicode="y" horiz-adv-x="527" 
d="M510 530l-173 -448q-36 -91 -93 -162.5t-155 -129.5l-38 61q126 87 170 164l-204 515h84l164 -440l158 440h87z" />
    <glyph glyph-name="z" unicode="z" horiz-adv-x="507" 
d="M40 57l317 403h-303v70h402v-61l-314 -399h310v-70h-412v57z" />
    <glyph glyph-name="aacute" unicode="&#xe1;" horiz-adv-x="557" 
d="M89 29q-43 39 -43 127q0 87 47 120t142 33q86 0 165 -24v89q0 52 -37 73t-113 21q-77 0 -155 -23v74q79 21 163 21q109 0 165.5 -36t56.5 -128v-376h-61l-12 38q-65 -48 -177 -48q-98 0 -141 39zM400 83v145q-68 13 -135 13q-53 0 -82.5 -7.5t-42 -25.5t-12.5 -53
q0 -38 12 -58t40.5 -28.5t81.5 -8.5q73 0 138 23zM317 763h90l-104 -154h-73z" />
    <glyph glyph-name="abreve" unicode="&#x103;" horiz-adv-x="557" 
d="M89 29q-43 39 -43 127q0 87 47 120t142 33q86 0 165 -24v89q0 52 -37 73t-113 21q-77 0 -155 -23v74q79 21 163 21q109 0 165.5 -36t56.5 -128v-376h-61l-12 38q-65 -48 -177 -48q-98 0 -141 39zM400 83v145q-68 13 -135 13q-53 0 -82.5 -7.5t-42 -25.5t-12.5 -53
q0 -38 12 -58t40.5 -28.5t81.5 -8.5q73 0 138 23zM168.5 643.5q-37.5 29.5 -39.5 100.5h66q2 -42 24 -58.5t64 -16.5t64 16.5t24 58.5h65q-1 -71 -38.5 -100.5t-114.5 -29.5t-114.5 29.5z" />
    <glyph glyph-name="uni1EAF" unicode="&#x1eaf;" horiz-adv-x="557" 
d="M89 29q-43 39 -43 127q0 87 47 120t142 33q86 0 165 -24v89q0 52 -37 73t-113 21q-77 0 -155 -23v74q79 21 163 21q109 0 165.5 -36t56.5 -128v-376h-61l-12 38q-65 -48 -177 -48q-98 0 -141 39zM400 83v145q-68 13 -135 13q-53 0 -82.5 -7.5t-42 -25.5t-12.5 -53
q0 -38 12 -58t40.5 -28.5t81.5 -8.5q73 0 138 23zM174 639q-38 28 -39 98h64q1 -41 24 -56t69 -15t68.5 15t24.5 56h64q-1 -70 -39 -98t-118 -28t-118 28zM322 877h90l-95 -122h-71z" />
    <glyph glyph-name="uni1EB7" unicode="&#x1eb7;" horiz-adv-x="557" 
d="M223 -85h94v-88h-94v88zM89 29q-43 39 -43 127q0 87 47 120t142 33q86 0 165 -24v89q0 52 -37 73t-113 21q-77 0 -155 -23v74q79 21 163 21q109 0 165.5 -36t56.5 -128v-376h-61l-12 38q-65 -48 -177 -48q-98 0 -141 39zM400 83v145q-68 13 -135 13q-53 0 -82.5 -7.5
t-42 -25.5t-12.5 -53q0 -38 12 -58t40.5 -28.5t81.5 -8.5q73 0 138 23zM168.5 643.5q-37.5 29.5 -39.5 100.5h66q2 -42 24 -58.5t64 -16.5t64 16.5t24 58.5h65q-1 -71 -38.5 -100.5t-114.5 -29.5t-114.5 29.5z" />
    <glyph glyph-name="uni1EB1" unicode="&#x1eb1;" horiz-adv-x="557" 
d="M89 29q-43 39 -43 127q0 87 47 120t142 33q86 0 165 -24v89q0 52 -37 73t-113 21q-77 0 -155 -23v74q79 21 163 21q109 0 165.5 -36t56.5 -128v-376h-61l-12 38q-65 -48 -177 -48q-98 0 -141 39zM400 83v145q-68 13 -135 13q-53 0 -82.5 -7.5t-42 -25.5t-12.5 -53
q0 -38 12 -58t40.5 -28.5t81.5 -8.5q73 0 138 23zM409 639q38 28 39 98h-64q-1 -41 -24 -56t-69 -15t-68.5 15t-24.5 56h-64q1 -70 39 -98t118 -28t118 28zM261 877h-90l95 -122h71z" />
    <glyph glyph-name="uni1EB3" unicode="&#x1eb3;" horiz-adv-x="557" 
d="M89 29q-43 39 -43 127q0 87 47 120t142 33q86 0 165 -24v89q0 52 -37 73t-113 21q-77 0 -155 -23v74q79 21 163 21q109 0 165.5 -36t56.5 -128v-376h-61l-12 38q-65 -48 -177 -48q-98 0 -141 39zM400 83v145q-68 13 -135 13q-53 0 -82.5 -7.5t-42 -25.5t-12.5 -53
q0 -38 12 -58t40.5 -28.5t81.5 -8.5q73 0 138 23zM246 759q78 21 78 59q0 15 -13.5 24.5t-42.5 9.5q-27 0 -46.5 -5t-23.5 -6v56q23 5 40 7t44 2q48 0 78 -21.5t30 -62.5q0 -37 -32 -66.5t-88 -42.5zM173 639q-38 28 -39 98h64q1 -41 24 -56t69 -15t68.5 15t24.5 56h64
q-1 -70 -39 -98t-118 -28t-118 28z" />
    <glyph glyph-name="uni1EB5" unicode="&#x1eb5;" horiz-adv-x="557" 
d="M89 29q-43 39 -43 127q0 87 47 120t142 33q86 0 165 -24v89q0 52 -37 73t-113 21q-77 0 -155 -23v74q79 21 163 21q109 0 165.5 -36t56.5 -128v-376h-61l-12 38q-65 -48 -177 -48q-98 0 -141 39zM400 83v145q-68 13 -135 13q-53 0 -82.5 -7.5t-42 -25.5t-12.5 -53
q0 -38 12 -58t40.5 -28.5t81.5 -8.5q73 0 138 23zM439 871q0 -52 -22.5 -78t-70.5 -26q-24 0 -40 7t-37 22q-14 10 -24 15t-21 5q-20 0 -28 -11t-10 -34h-58q0 52 22 78t71 26q24 0 40.5 -7.5t35.5 -21.5q14 -10 23.5 -15t21.5 -5q19 0 28 11t10 34h59zM167 639
q-38 28 -39 98h64q1 -41 24 -56t69 -15t68.5 15t24.5 56h64q-1 -70 -39 -98t-118 -28t-118 28z" />
    <glyph glyph-name="acircumflex" unicode="&#xe2;" horiz-adv-x="557" 
d="M89 29q-43 39 -43 127q0 87 47 120t142 33q86 0 165 -24v89q0 52 -37 73t-113 21q-77 0 -155 -23v74q79 21 163 21q109 0 165.5 -36t56.5 -128v-376h-61l-12 38q-65 -48 -177 -48q-98 0 -141 39zM400 83v145q-68 13 -135 13q-53 0 -82.5 -7.5t-42 -25.5t-12.5 -53
q0 -38 12 -58t40.5 -28.5t81.5 -8.5q73 0 138 23zM238 763h78l133 -154h-87l-85 103l-86 -103h-87z" />
    <glyph glyph-name="uni1EA5" unicode="&#x1ea5;" horiz-adv-x="557" 
d="M89 29q-43 39 -43 127q0 87 47 120t142 33q86 0 165 -24v89q0 52 -37 73t-113 21q-77 0 -155 -23v74q79 21 163 21q109 0 165.5 -36t56.5 -128v-376h-61l-12 38q-65 -48 -177 -48q-98 0 -141 39zM400 83v145q-68 13 -135 13q-53 0 -82.5 -7.5t-42 -25.5t-12.5 -53
q0 -38 12 -58t40.5 -28.5t81.5 -8.5q73 0 138 23zM237 745h78l126 -130h-90l-75 82l-77 -82h-89zM437 867h90l-95 -122h-71z" />
    <glyph glyph-name="uni1EAD" unicode="&#x1ead;" horiz-adv-x="557" 
d="M223 -85h94v-88h-94v88zM89 29q-43 39 -43 127q0 87 47 120t142 33q86 0 165 -24v89q0 52 -37 73t-113 21q-77 0 -155 -23v74q79 21 163 21q109 0 165.5 -36t56.5 -128v-376h-61l-12 38q-65 -48 -177 -48q-98 0 -141 39zM400 83v145q-68 13 -135 13q-53 0 -82.5 -7.5
t-42 -25.5t-12.5 -53q0 -38 12 -58t40.5 -28.5t81.5 -8.5q73 0 138 23zM238 763h78l133 -154h-87l-85 103l-86 -103h-87z" />
    <glyph glyph-name="uni1EA7" unicode="&#x1ea7;" horiz-adv-x="557" 
d="M89 29q-43 39 -43 127q0 87 47 120t142 33q86 0 165 -24v89q0 52 -37 73t-113 21q-77 0 -155 -23v74q79 21 163 21q109 0 165.5 -36t56.5 -128v-376h-61l-12 38q-65 -48 -177 -48q-98 0 -141 39zM400 83v145q-68 13 -135 13q-53 0 -82.5 -7.5t-42 -25.5t-12.5 -53
q0 -38 12 -58t40.5 -28.5t81.5 -8.5q73 0 138 23zM319 745h-78l-126 -130h90l75 82l77 -82h89zM382 867h-90l95 -122h71z" />
    <glyph glyph-name="uni1EA9" unicode="&#x1ea9;" horiz-adv-x="557" 
d="M89 29q-43 39 -43 127q0 87 47 120t142 33q86 0 165 -24v89q0 52 -37 73t-113 21q-77 0 -155 -23v74q79 21 163 21q109 0 165.5 -36t56.5 -128v-376h-61l-12 38q-65 -48 -177 -48q-98 0 -141 39zM400 83v145q-68 13 -135 13q-53 0 -82.5 -7.5t-42 -25.5t-12.5 -53
q0 -38 12 -58t40.5 -28.5t81.5 -8.5q73 0 138 23zM239 745h78l126 -130h-90l-75 82l-77 -82h-89zM371 755q64 17 64 47t-47 30q-21 0 -37.5 -4t-21.5 -5v57q3 1 23.5 5t50.5 4q42 0 71.5 -20.5t29.5 -57.5q0 -35 -29 -61t-80 -39z" />
    <glyph glyph-name="uni1EAB" unicode="&#x1eab;" horiz-adv-x="557" 
d="M89 29q-43 39 -43 127q0 87 47 120t142 33q86 0 165 -24v89q0 52 -37 73t-113 21q-77 0 -155 -23v74q79 21 163 21q109 0 165.5 -36t56.5 -128v-376h-61l-12 38q-65 -48 -177 -48q-98 0 -141 39zM400 83v145q-68 13 -135 13q-53 0 -82.5 -7.5t-42 -25.5t-12.5 -53
q0 -38 12 -58t40.5 -28.5t81.5 -8.5q73 0 138 23zM238 721.695h78l126 -114.939h-90l-75 72.5l-77 -72.5h-89zM436 860q0 -52 -22.5 -78t-70.5 -26q-24 0 -40 7t-37 22q-14 10 -24 15t-21 5q-20 0 -28 -11t-10 -34h-58q0 52 22 78t71 26q24 0 40.5 -7.5t35.5 -21.5
q14 -10 23.5 -15t21.5 -5q19 0 28 11t10 34h59z" />
    <glyph glyph-name="adieresis" unicode="&#xe4;" horiz-adv-x="557" 
d="M89 29q-43 39 -43 127q0 87 47 120t142 33q86 0 165 -24v89q0 52 -37 73t-113 21q-77 0 -155 -23v74q79 21 163 21q109 0 165.5 -36t56.5 -128v-376h-61l-12 38q-65 -48 -177 -48q-98 0 -141 39zM400 83v145q-68 13 -135 13q-53 0 -82.5 -7.5t-42 -25.5t-12.5 -53
q0 -38 12 -58t40.5 -28.5t81.5 -8.5q73 0 138 23zM132 712h87v-86h-87v86zM330 712h87v-86h-87v86z" />
    <glyph glyph-name="uni1EA1" unicode="&#x1ea1;" horiz-adv-x="557" 
d="M89 29q-43 39 -43 127q0 87 47 120t142 33q86 0 165 -24v89q0 52 -37 73t-113 21q-77 0 -155 -23v74q79 21 163 21q109 0 165.5 -36t56.5 -128v-376h-61l-12 38q-65 -48 -177 -48q-98 0 -141 39zM400 83v145q-68 13 -135 13q-53 0 -82.5 -7.5t-42 -25.5t-12.5 -53
q0 -38 12 -58t40.5 -28.5t81.5 -8.5q73 0 138 23zM221 -85h94v-88h-94v88z" />
    <glyph glyph-name="agrave" unicode="&#xe0;" horiz-adv-x="557" 
d="M89 29q-43 39 -43 127q0 87 47 120t142 33q86 0 165 -24v89q0 52 -37 73t-113 21q-77 0 -155 -23v74q79 21 163 21q109 0 165.5 -36t56.5 -128v-376h-61l-12 38q-65 -48 -177 -48q-98 0 -141 39zM400 83v145q-68 13 -135 13q-53 0 -82.5 -7.5t-42 -25.5t-12.5 -53
q0 -38 12 -58t40.5 -28.5t81.5 -8.5q73 0 138 23zM256 609l-104 154h90l87 -154h-73z" />
    <glyph glyph-name="uni1EA3" unicode="&#x1ea3;" horiz-adv-x="557" 
d="M89 29q-43 39 -43 127q0 87 47 120t142 33q86 0 165 -24v89q0 52 -37 73t-113 21q-77 0 -155 -23v74q79 21 163 21q109 0 165.5 -36t56.5 -128v-376h-61l-12 38q-65 -48 -177 -48q-98 0 -141 39zM400 83v145q-68 13 -135 13q-53 0 -82.5 -7.5t-42 -25.5t-12.5 -53
q0 -38 12 -58t40.5 -28.5t81.5 -8.5q73 0 138 23zM232 648q78 21 78 59q0 15 -13.5 24.5t-42.5 9.5q-27 0 -46.5 -5t-23.5 -6v56q23 5 40 7t44 2q48 0 78 -21.5t30 -62.5q0 -37 -32 -66.5t-88 -42.5z" />
    <glyph glyph-name="amacron" unicode="&#x101;" horiz-adv-x="557" 
d="M89 29q-43 39 -43 127q0 87 47 120t142 33q86 0 165 -24v89q0 52 -37 73t-113 21q-77 0 -155 -23v74q79 21 163 21q109 0 165.5 -36t56.5 -128v-376h-61l-12 38q-65 -48 -177 -48q-98 0 -141 39zM400 83v145q-68 13 -135 13q-53 0 -82.5 -7.5t-42 -25.5t-12.5 -53
q0 -38 12 -58t40.5 -28.5t81.5 -8.5q73 0 138 23zM138 705h279v-65h-279v65z" />
    <glyph glyph-name="aogonek" unicode="&#x105;" horiz-adv-x="557" 
d="M407.5 -72.5q-18.5 -24.5 -18.5 -45.5q0 -15 9 -21.5t29 -6.5q25 0 53 6v-62q-32 -8 -65 -8q-54 0 -75.5 22t-21.5 54q0 34 21.5 63t78.5 78l-10 31q-66 -48 -178 -48q-98 0 -141 39t-43 127q0 86 47.5 118.5t141.5 32.5q87 0 165 -24v91q0 52 -37 73t-113 21t-155 -22
v73q79 21 163 21q108 0 165 -36.5t57 -125.5v-378q-54 -48 -72.5 -72.5zM400 230q-30 6 -68 9.5t-67 3.5q-53 0 -82 -7.5t-41.5 -26t-12.5 -54.5q0 -38 12 -58.5t40 -29t81 -8.5q73 0 138 23v148z" />
    <glyph glyph-name="aring" unicode="&#xe5;" horiz-adv-x="557" 
d="M89 29q-43 39 -43 127q0 87 47 120t142 33q86 0 165 -24v89q0 52 -37 73t-113 21q-77 0 -155 -23v74q79 21 163 21q109 0 165.5 -36t56.5 -128v-376h-61l-12 38q-65 -48 -177 -48q-98 0 -141 39zM400 83v145q-68 13 -135 13q-53 0 -82.5 -7.5t-42 -25.5t-12.5 -53
q0 -38 12 -58t40.5 -28.5t81.5 -8.5q73 0 138 23zM373.5 779q28.5 -26 28.5 -77t-28.5 -76.5t-92.5 -25.5q-65 0 -93.5 25.5t-28.5 76.5t28.5 77t93.5 26q64 0 92.5 -26zM332.5 662.5q14.5 13.5 14.5 40.5t-14.5 41t-51.5 14q-38 0 -52.5 -13.5t-14.5 -41.5
q0 -27 14.5 -40.5t52.5 -13.5q37 0 51.5 13.5z" />
    <glyph glyph-name="aringacute" unicode="&#x1fb;" horiz-adv-x="557" 
d="M333 1018h90l-104 -154h-73zM89 29q-43 39 -43 127q0 87 47 120t142 33q86 0 165 -24v89q0 52 -37 73t-113 21q-77 0 -155 -23v74q79 21 163 21q109 0 165.5 -36t56.5 -128v-376h-61l-12 38q-65 -48 -177 -48q-98 0 -141 39zM400 83v145q-68 13 -135 13q-53 0 -82.5 -7.5
t-42 -25.5t-12.5 -53q0 -38 12 -58t40.5 -28.5t81.5 -8.5q73 0 138 23zM373.5 779q28.5 -26 28.5 -77t-28.5 -76.5t-92.5 -25.5q-65 0 -93.5 25.5t-28.5 76.5t28.5 77t93.5 26q64 0 92.5 -26zM332.5 662.5q14.5 13.5 14.5 40.5t-14.5 41t-51.5 14q-38 0 -52.5 -13.5
t-14.5 -41.5q0 -27 14.5 -40.5t52.5 -13.5q37 0 51.5 13.5z" />
    <glyph glyph-name="atilde" unicode="&#xe3;" horiz-adv-x="557" 
d="M89 29q-43 39 -43 127q0 87 47 120t142 33q86 0 165 -24v89q0 52 -37 73t-113 21q-77 0 -155 -23v74q79 21 163 21q109 0 165.5 -36t56.5 -128v-376h-61l-12 38q-65 -48 -177 -48q-98 0 -141 39zM400 83v145q-68 13 -135 13q-53 0 -82.5 -7.5t-42 -25.5t-12.5 -53
q0 -38 12 -58t40.5 -28.5t81.5 -8.5q73 0 138 23zM443 717q0 -55 -23 -83.5t-74 -28.5q-25 0 -44 8.5t-41 24.5q-19 12 -28.5 17t-21.5 5q-21 0 -30.5 -12.5t-10.5 -39.5h-60q0 112 97 112q26 0 45.5 -9t39.5 -24q18 -12 28.5 -17t22.5 -5q21 0 30 12t11 40h59z" />
    <glyph glyph-name="ae" unicode="&#xe6;" horiz-adv-x="843" 
d="M787 237h-339q1 -69 15.5 -106.5t48 -53t93.5 -15.5q89 0 158 29v-74q-27 -11 -71 -19t-93 -8q-63 0 -105.5 14.5t-70.5 46.5q-77 -61 -193 -61q-98 0 -141 38.5t-43 124.5q0 83 52 116t154 33h116v53q0 113 -125 113q-68 0 -149 -25v73q37 12 72 18t79 6q63 0 107.5 -22
t60.5 -68q42 90 172 90q74 0 118.5 -25.5t65.5 -81t21 -147.5q0 -16 -3 -49zM710 302q-1 63 -12 99t-38 52.5t-76 16.5q-136 0 -136 -130v-38h262zM393 100q-22 50 -25 138h-93q-58 0 -89 -7.5t-44 -25.5t-13 -53q0 -52 25.5 -72.5t87.5 -20.5q77 0 151 41z" />
    <glyph glyph-name="aeacute" unicode="&#x1fd;" horiz-adv-x="843" 
d="M787 237h-339q1 -69 15.5 -106.5t48 -53t93.5 -15.5q89 0 158 29v-74q-27 -11 -71 -19t-93 -8q-63 0 -105.5 14.5t-70.5 46.5q-77 -61 -193 -61q-98 0 -141 38.5t-43 124.5q0 83 52 116t154 33h116v53q0 113 -125 113q-68 0 -149 -25v73q37 12 72 18t79 6q63 0 107.5 -22
t60.5 -68q42 90 172 90q74 0 118.5 -25.5t65.5 -81t21 -147.5q0 -16 -3 -49zM710 302q-1 63 -12 99t-38 52.5t-76 16.5q-136 0 -136 -130v-38h262zM393 100q-22 50 -25 138h-93q-58 0 -89 -7.5t-44 -25.5t-13 -53q0 -52 25.5 -72.5t87.5 -20.5q77 0 151 41zM474 763h90
l-104 -154h-73z" />
    <glyph glyph-name="cacute" unicode="&#x107;" horiz-adv-x="517" 
d="M162 15q-55 25 -81.5 84.5t-26.5 165.5t26.5 165.5t81.5 84.5t148 25q84 0 152 -24v-76q-71 26 -147 26q-69 0 -107 -16t-55 -59t-17 -126t17 -126t55 -59t107 -16q76 0 147 26v-76q-68 -24 -152 -24q-93 0 -148 25zM334 763h90l-104 -154h-73z" />
    <glyph glyph-name="ccaron" unicode="&#x10d;" horiz-adv-x="517" 
d="M162 15q-55 25 -81.5 84.5t-26.5 165.5t26.5 165.5t81.5 84.5t148 25q84 0 152 -24v-76q-71 26 -147 26q-69 0 -107 -16t-55 -59t-17 -126t17 -126t55 -59t107 -16q76 0 147 26v-76q-68 -24 -152 -24q-93 0 -148 25zM201 763l86 -103l85 103h87l-133 -154h-78l-134 154
h87z" />
    <glyph glyph-name="ccedilla" unicode="&#xe7;" horiz-adv-x="517" 
d="M162 15q-55 25 -81.5 84.5t-26.5 165.5t26.5 165.5t81.5 84.5t148 25q84 0 152 -24v-76q-71 26 -147 26q-69 0 -107 -16t-55 -59t-17 -126t17 -126t55 -59t107 -16q76 0 147 26v-76q-68 -24 -152 -24q-93 0 -148 25zM219 -151q22 -4 58 -4q35 0 49 6.5t14 24.5
q0 13 -8.5 20t-30 9.5t-65.5 2.5l25 92h59l-14 -50q53 -2 76 -21t23 -56q0 -42 -29 -62.5t-89 -20.5q-42 0 -68 4v55z" />
    <glyph glyph-name="ccircumflex" unicode="&#x109;" horiz-adv-x="517" 
d="M162 15q-55 25 -81.5 84.5t-26.5 165.5t26.5 165.5t81.5 84.5t148 25q84 0 152 -24v-76q-71 26 -147 26q-69 0 -107 -16t-55 -59t-17 -126t17 -126t55 -59t107 -16q76 0 147 26v-76q-68 -24 -152 -24q-93 0 -148 25zM243 763h78l133 -154h-87l-85 103l-86 -103h-87z" />
    <glyph glyph-name="cdotaccent" unicode="&#x10b;" horiz-adv-x="517" 
d="M162 15q-55 25 -81.5 84.5t-26.5 165.5t26.5 165.5t81.5 84.5t148 25q84 0 152 -24v-76q-71 26 -147 26q-69 0 -107 -16t-55 -59t-17 -126t17 -126t55 -59t107 -16q76 0 147 26v-76q-68 -24 -152 -24q-93 0 -148 25zM243 712h94v-86h-94v86z" />
    <glyph glyph-name="eth" unicode="&#xf0;" horiz-adv-x="589" 
d="M535 277q0 -134 -55.5 -210.5t-186.5 -76.5q-123 0 -181 66.5t-58 177.5q0 232 218 232q53 0 92 -12.5t73 -32.5q-17 58 -50.5 101.5t-95.5 78.5l-70 -64l-35 38l54 50q-53 22 -112 38l21 67q88 -23 149 -52l70 64l36 -38l-58 -53q189 -118 189 -374zM417.5 116
q36.5 51 36.5 159q0 41 -7 78q-79 42 -163 42q-78 0 -113 -40.5t-35 -119.5q0 -82 35.5 -126t123.5 -44q86 0 122.5 51z" />
    <glyph glyph-name="dcaron" unicode="&#x10f;" horiz-adv-x="644" 
d="M524 720v-720h-63l-13 38q-70 -48 -162 -48q-115 0 -173.5 63t-58.5 212q0 146 57.5 210.5t174.5 64.5q96 0 158 -40v220h80zM682 720l-31 -180h-62l18 180h75zM444 440q-55 26 -136 26q-67 0 -104.5 -21t-52.5 -64.5t-15 -115.5t15 -116t52.5 -65t104.5 -21q78 0 136 27
v350z" />
    <glyph glyph-name="dcroat" unicode="&#x111;" horiz-adv-x="605" 
d="M524 720v-720h-63l-13 38q-70 -48 -162 -48q-115 0 -173.5 63t-58.5 212q0 146 57.5 210.5t174.5 64.5q96 0 158 -40v220h80zM444 440q-55 26 -136 26q-67 0 -104.5 -21t-52.5 -64.5t-15 -115.5t15 -116t52.5 -65t104.5 -21q78 0 136 27v350zM267 658h332v-57h-332v57z
" />
    <glyph glyph-name="eacute" unicode="&#xe9;" horiz-adv-x="561" 
d="M157 15.5q-53 25.5 -78 85t-25 164.5q0 141 54.5 208t178.5 67q80 0 128 -25.5t70.5 -81t22.5 -147.5q0 -11 -3 -50h-371q2 -68 18.5 -105t53 -53t101.5 -16q96 0 170 29v-74q-69 -27 -177 -27q-90 0 -143 25.5zM428 303q-1 62 -13.5 97.5t-43 52.5t-84.5 17
q-80 0 -114.5 -39.5t-38.5 -127.5h294zM321 763h90l-104 -154h-73z" />
    <glyph glyph-name="ebreve" unicode="&#x115;" horiz-adv-x="561" 
d="M157 15.5q-53 25.5 -78 85t-25 164.5q0 141 54.5 208t178.5 67q80 0 128 -25.5t70.5 -81t22.5 -147.5q0 -11 -3 -50h-371q2 -68 18.5 -105t53 -53t101.5 -16q96 0 170 29v-74q-69 -27 -177 -27q-90 0 -143 25.5zM428 303q-1 62 -13.5 97.5t-43 52.5t-84.5 17
q-80 0 -114.5 -39.5t-38.5 -127.5h294zM169.5 643.5q-37.5 29.5 -39.5 100.5h66q2 -42 24 -58.5t64 -16.5t64 16.5t24 58.5h65q-1 -71 -38.5 -100.5t-114.5 -29.5t-114.5 29.5z" />
    <glyph glyph-name="ecaron" unicode="&#x11b;" horiz-adv-x="561" 
d="M157 15.5q-53 25.5 -78 85t-25 164.5q0 141 54.5 208t178.5 67q80 0 128 -25.5t70.5 -81t22.5 -147.5q0 -11 -3 -50h-371q2 -68 18.5 -105t53 -53t101.5 -16q96 0 170 29v-74q-69 -27 -177 -27q-90 0 -143 25.5zM428 303q-1 62 -13.5 97.5t-43 52.5t-84.5 17
q-80 0 -114.5 -39.5t-38.5 -127.5h294zM195 763l86 -103l85 103h87l-133 -154h-78l-134 154h87z" />
    <glyph glyph-name="ecircumflex" unicode="&#xea;" horiz-adv-x="561" 
d="M157 15.5q-53 25.5 -78 85t-25 164.5q0 141 54.5 208t178.5 67q80 0 128 -25.5t70.5 -81t22.5 -147.5q0 -11 -3 -50h-371q2 -68 18.5 -105t53 -53t101.5 -16q96 0 170 29v-74q-69 -27 -177 -27q-90 0 -143 25.5zM428 303q-1 62 -13.5 97.5t-43 52.5t-84.5 17
q-80 0 -114.5 -39.5t-38.5 -127.5h294zM242 763h78l133 -154h-87l-85 103l-86 -103h-87z" />
    <glyph glyph-name="uni1EBF" unicode="&#x1ebf;" horiz-adv-x="561" 
d="M157 15.5q-53 25.5 -78 85t-25 164.5q0 141 54.5 208t178.5 67q80 0 128 -25.5t70.5 -81t22.5 -147.5q0 -11 -3 -50h-371q2 -68 18.5 -105t53 -53t101.5 -16q96 0 170 29v-74q-69 -27 -177 -27q-90 0 -143 25.5zM428 303q-1 62 -13.5 97.5t-43 52.5t-84.5 17
q-80 0 -114.5 -39.5t-38.5 -127.5h294zM241 745h78l126 -130h-90l-75 82l-77 -82h-89zM441 867h90l-95 -122h-71z" />
    <glyph glyph-name="uni1EC7" unicode="&#x1ec7;" horiz-adv-x="561" 
d="M157 15.5q-53 25.5 -78 85t-25 164.5q0 141 54.5 208t178.5 67q80 0 128 -25.5t70.5 -81t22.5 -147.5q0 -11 -3 -50h-371q2 -68 18.5 -105t53 -53t101.5 -16q96 0 170 29v-74q-69 -27 -177 -27q-90 0 -143 25.5zM428 303q-1 62 -13.5 97.5t-43 52.5t-84.5 17
q-80 0 -114.5 -39.5t-38.5 -127.5h294zM242 -85h94v-88h-94v88zM242 763h78l133 -154h-87l-85 103l-86 -103h-87z" />
    <glyph glyph-name="uni1EC1" unicode="&#x1ec1;" horiz-adv-x="561" 
d="M157 15.5q-53 25.5 -78 85t-25 164.5q0 141 54.5 208t178.5 67q80 0 128 -25.5t70.5 -81t22.5 -147.5q0 -11 -3 -50h-371q2 -68 18.5 -105t53 -53t101.5 -16q96 0 170 29v-74q-69 -27 -177 -27q-90 0 -143 25.5zM428 303q-1 62 -13.5 97.5t-43 52.5t-84.5 17
q-80 0 -114.5 -39.5t-38.5 -127.5h294zM321 745h-78l-126 -130h90l75 82l77 -82h89zM384 867h-90l95 -122h71z" />
    <glyph glyph-name="uni1EC3" unicode="&#x1ec3;" horiz-adv-x="561" 
d="M157 15.5q-53 25.5 -78 85t-25 164.5q0 141 54.5 208t178.5 67q80 0 128 -25.5t70.5 -81t22.5 -147.5q0 -11 -3 -50h-371q2 -68 18.5 -105t53 -53t101.5 -16q96 0 170 29v-74q-69 -27 -177 -27q-90 0 -143 25.5zM428 303q-1 62 -13.5 97.5t-43 52.5t-84.5 17
q-80 0 -114.5 -39.5t-38.5 -127.5h294zM245 745h78l126 -130h-90l-75 82l-77 -82h-89zM377 755q64 17 64 47t-47 30q-21 0 -37.5 -4t-21.5 -5v57q3 1 23.5 5t50.5 4q42 0 71.5 -20.5t29.5 -57.5q0 -35 -29 -61t-80 -39z" />
    <glyph glyph-name="uni1EC5" unicode="&#x1ec5;" horiz-adv-x="561" 
d="M157 15.5q-53 25.5 -78 85t-25 164.5q0 141 54.5 208t178.5 67q80 0 128 -25.5t70.5 -81t22.5 -147.5q0 -11 -3 -50h-371q2 -68 18.5 -105t53 -53t101.5 -16q96 0 170 29v-74q-69 -27 -177 -27q-90 0 -143 25.5zM428 303q-1 62 -13.5 97.5t-43 52.5t-84.5 17
q-80 0 -114.5 -39.5t-38.5 -127.5h294zM245 721.695h78l126 -114.939h-90l-75 72.5l-77 -72.5h-89zM443 860q0 -52 -22.5 -78t-70.5 -26q-24 0 -40 7t-37 22q-14 10 -24 15t-21 5q-20 0 -28 -11t-10 -34h-58q0 52 22 78t71 26q24 0 40.5 -7.5t35.5 -21.5q14 -10 23.5 -15
t21.5 -5q19 0 28 11t10 34h59z" />
    <glyph glyph-name="edieresis" unicode="&#xeb;" horiz-adv-x="561" 
d="M157 15.5q-53 25.5 -78 85t-25 164.5q0 141 54.5 208t178.5 67q80 0 128 -25.5t70.5 -81t22.5 -147.5q0 -11 -3 -50h-371q2 -68 18.5 -105t53 -53t101.5 -16q96 0 170 29v-74q-69 -27 -177 -27q-90 0 -143 25.5zM428 303q-1 62 -13.5 97.5t-43 52.5t-84.5 17
q-80 0 -114.5 -39.5t-38.5 -127.5h294zM138 712h87v-86h-87v86zM336 712h87v-86h-87v86z" />
    <glyph glyph-name="edotaccent" unicode="&#x117;" horiz-adv-x="561" 
d="M157 15.5q-53 25.5 -78 85t-25 164.5q0 141 54.5 208t178.5 67q80 0 128 -25.5t70.5 -81t22.5 -147.5q0 -11 -3 -50h-371q2 -68 18.5 -105t53 -53t101.5 -16q96 0 170 29v-74q-69 -27 -177 -27q-90 0 -143 25.5zM428 303q-1 62 -13.5 97.5t-43 52.5t-84.5 17
q-80 0 -114.5 -39.5t-38.5 -127.5h294zM234 712h94v-86h-94v86z" />
    <glyph glyph-name="uni1EB9" unicode="&#x1eb9;" horiz-adv-x="561" 
d="M157 15.5q-53 25.5 -78 85t-25 164.5q0 141 54.5 208t178.5 67q80 0 128 -25.5t70.5 -81t22.5 -147.5q0 -11 -3 -50h-371q2 -68 18.5 -105t53 -53t101.5 -16q96 0 170 29v-74q-69 -27 -177 -27q-90 0 -143 25.5zM428 303q-1 62 -13.5 97.5t-43 52.5t-84.5 17
q-80 0 -114.5 -39.5t-38.5 -127.5h294zM239 -85h94v-88h-94v88z" />
    <glyph glyph-name="egrave" unicode="&#xe8;" horiz-adv-x="561" 
d="M157 15.5q-53 25.5 -78 85t-25 164.5q0 141 54.5 208t178.5 67q80 0 128 -25.5t70.5 -81t22.5 -147.5q0 -11 -3 -50h-371q2 -68 18.5 -105t53 -53t101.5 -16q96 0 170 29v-74q-69 -27 -177 -27q-90 0 -143 25.5zM428 303q-1 62 -13.5 97.5t-43 52.5t-84.5 17
q-80 0 -114.5 -39.5t-38.5 -127.5h294zM260 609l-104 154h90l87 -154h-73z" />
    <glyph glyph-name="uni1EBB" unicode="&#x1ebb;" horiz-adv-x="561" 
d="M157 15.5q-53 25.5 -78 85t-25 164.5q0 141 54.5 208t178.5 67q80 0 128 -25.5t70.5 -81t22.5 -147.5q0 -11 -3 -50h-371q2 -68 18.5 -105t53 -53t101.5 -16q96 0 170 29v-74q-69 -27 -177 -27q-90 0 -143 25.5zM428 303q-1 62 -13.5 97.5t-43 52.5t-84.5 17
q-80 0 -114.5 -39.5t-38.5 -127.5h294zM241 648q78 21 78 59q0 15 -13.5 24.5t-42.5 9.5q-27 0 -46.5 -5t-23.5 -6v56q23 5 40 7t44 2q48 0 78 -21.5t30 -62.5q0 -37 -32 -66.5t-88 -42.5z" />
    <glyph glyph-name="emacron" unicode="&#x113;" horiz-adv-x="561" 
d="M157 15.5q-53 25.5 -78 85t-25 164.5q0 141 54.5 208t178.5 67q80 0 128 -25.5t70.5 -81t22.5 -147.5q0 -11 -3 -50h-371q2 -68 18.5 -105t53 -53t101.5 -16q96 0 170 29v-74q-69 -27 -177 -27q-90 0 -143 25.5zM428 303q-1 62 -13.5 97.5t-43 52.5t-84.5 17
q-80 0 -114.5 -39.5t-38.5 -127.5h294zM141 705h279v-65h-279v65z" />
    <glyph glyph-name="eogonek" unicode="&#x119;" horiz-adv-x="561" 
d="M505 237h-371q1 -69 18 -106.5t53.5 -53t101.5 -15.5q97 0 169 29v-67l-23 -15q-50 -33 -76 -66.5t-26 -57.5q0 -17 9 -24t30 -7q24 0 52 6v-62q-32 -8 -65 -8q-54 0 -75.5 22.5t-21.5 55.5q0 35 19 64.5t59 62.5q-23 -5 -58 -5q-90 0 -143 25.5t-78 85t-25 164.5
q0 142 54.5 208.5t178.5 66.5q80 0 128 -25.5t70 -81t22 -147.5q0 -27 -2 -49zM428 300q-1 63 -13.5 99.5t-43 53.5t-84.5 17q-80 0 -114.5 -40t-38.5 -130h294z" />
    <glyph glyph-name="uni1EBD" unicode="&#x1ebd;" horiz-adv-x="561" 
d="M157 15.5q-53 25.5 -78 85t-25 164.5q0 141 54.5 208t178.5 67q80 0 128 -25.5t70.5 -81t22.5 -147.5q0 -11 -3 -50h-371q2 -68 18.5 -105t53 -53t101.5 -16q96 0 170 29v-74q-69 -27 -177 -27q-90 0 -143 25.5zM428 303q-1 62 -13.5 97.5t-43 52.5t-84.5 17
q-80 0 -114.5 -39.5t-38.5 -127.5h294zM447 717q0 -55 -23 -83.5t-74 -28.5q-25 0 -44 8.5t-41 24.5q-19 12 -28.5 17t-21.5 5q-21 0 -30.5 -12.5t-10.5 -39.5h-60q0 112 97 112q26 0 45.5 -9t39.5 -24q18 -12 28.5 -17t22.5 -5q21 0 30 12t11 40h59z" />
    <glyph glyph-name="uni0259" unicode="&#x259;" horiz-adv-x="561" 
d="M404 514.5q53 -25.5 78 -85t25 -164.5q0 -141 -54.5 -208t-178.5 -67q-80 0 -128 25.5t-70.5 81t-22.5 147.5q0 11 3 50h371q-2 68 -18.5 105t-53 53t-101.5 16q-96 0 -170 -29v74q69 27 177 27q90 0 143 -25.5zM133 227q1 -62 13.5 -97.5t43 -52.5t84.5 -17
q80 0 114.5 39.5t38.5 127.5h-294z" />
    <glyph glyph-name="gbreve" unicode="&#x11f;" horiz-adv-x="605" 
d="M112 -135q169 5 248 31q44 14 65 38.5t21 62.5v29q-29 -12 -70.5 -20t-89.5 -8q-109 0 -170.5 63t-61.5 208q0 144 56.5 207.5t174.5 63.5q95 0 160 -43v33h79v-516q0 -67 -26 -109.5t-84.5 -67.5t-158.5 -38q-62 -7 -143 -9v75zM444 86v354q-57 26 -136 26
q-67 0 -104.5 -21t-52.5 -63.5t-15 -112.5q0 -102 37.5 -150.5t134.5 -48.5q68 0 136 16zM192.5 643.5q-37.5 29.5 -39.5 100.5h66q2 -42 24 -58.5t64 -16.5t64 16.5t24 58.5h65q-1 -71 -38.5 -100.5t-114.5 -29.5t-114.5 29.5z" />
    <glyph glyph-name="gcaron" unicode="&#x1e7;" horiz-adv-x="605" 
d="M112 -135q169 5 248 31q44 14 65 38.5t21 62.5v29q-29 -12 -70.5 -20t-89.5 -8q-109 0 -170.5 63t-61.5 208q0 144 56.5 207.5t174.5 63.5q95 0 160 -43v33h79v-516q0 -67 -26 -109.5t-84.5 -67.5t-158.5 -38q-62 -7 -143 -9v75zM444 86v354q-57 26 -136 26
q-67 0 -104.5 -21t-52.5 -63.5t-15 -112.5q0 -102 37.5 -150.5t134.5 -48.5q68 0 136 16zM223 763l86 -103l85 103h87l-133 -154h-78l-134 154h87z" />
    <glyph glyph-name="gcircumflex" unicode="&#x11d;" horiz-adv-x="605" 
d="M112 -135q169 5 248 31q44 14 65 38.5t21 62.5v29q-29 -12 -70.5 -20t-89.5 -8q-109 0 -170.5 63t-61.5 208q0 144 56.5 207.5t174.5 63.5q95 0 160 -43v33h79v-516q0 -67 -26 -109.5t-84.5 -67.5t-158.5 -38q-62 -7 -143 -9v75zM444 86v354q-57 26 -136 26
q-67 0 -104.5 -21t-52.5 -63.5t-15 -112.5q0 -102 37.5 -150.5t134.5 -48.5q68 0 136 16zM262 763h78l133 -154h-87l-85 103l-86 -103h-87z" />
    <glyph glyph-name="gcommaaccent" unicode="&#x123;" horiz-adv-x="605" 
d="M112 -135q169 5 248 31q44 14 65 38.5t21 62.5v29q-29 -12 -70.5 -20t-89.5 -8q-109 0 -170.5 63t-61.5 208q0 144 56.5 207.5t174.5 63.5q95 0 160 -43v33h79v-516q0 -67 -26 -109.5t-84.5 -67.5t-158.5 -38q-62 -7 -143 -9v75zM444 86v354q-57 26 -136 26
q-67 0 -104.5 -21t-52.5 -63.5t-15 -112.5q0 -102 37.5 -150.5t134.5 -48.5q68 0 136 16zM312 752h62l-35 -147h-89z" />
    <glyph glyph-name="gdotaccent" unicode="&#x121;" horiz-adv-x="605" 
d="M112 -135q169 5 248 31q44 14 65 38.5t21 62.5v29q-29 -12 -70.5 -20t-89.5 -8q-109 0 -170.5 63t-61.5 208q0 144 56.5 207.5t174.5 63.5q95 0 160 -43v33h79v-516q0 -67 -26 -109.5t-84.5 -67.5t-158.5 -38q-62 -7 -143 -9v75zM444 86v354q-57 26 -136 26
q-67 0 -104.5 -21t-52.5 -63.5t-15 -112.5q0 -102 37.5 -150.5t134.5 -48.5q68 0 136 16zM254 712h94v-86h-94v86z" />
    <glyph glyph-name="hbar" unicode="&#x127;" horiz-adv-x="601" 
d="M81 530h77v-36q28 17 76 31.5t106 14.5q104 0 144 -38.5t40 -120.5v-381h-80v365q0 56 -27 78.5t-97 22.5q-95 0 -159 -30v-436h-80v530zM81 720h80v-720h-80v720zM2 659h332v-57h-332v57z" />
    <glyph glyph-name="hcircumflex" unicode="&#x125;" horiz-adv-x="601" 
d="M81 530h77v-36q28 17 76 31.5t106 14.5q104 0 144 -38.5t40 -120.5v-381h-80v365q0 56 -27 78.5t-97 22.5q-95 0 -159 -30v-436h-80v530zM81 720h80v-720h-80v720zM265 943h78l133 -154h-87l-85 103l-86 -103h-87z" />
    <glyph glyph-name="dotlessi" unicode="&#x131;" horiz-adv-x="241" 
d="M81 530h80v-530h-80v530z" />
    <glyph glyph-name="iacute" unicode="&#xed;" horiz-adv-x="239" 
d="M73 530h80v-530h-80v530zM160 763h90l-104 -154h-73z" />
    <glyph glyph-name="ibreve" unicode="&#x12d;" horiz-adv-x="239" 
d="M80 530h80v-530h-80v530zM5.5 643.5q-37.5 29.5 -39.5 100.5h66q2 -42 24 -58.5t64 -16.5t64 16.5t24 58.5h65q-1 -71 -38.5 -100.5t-114.5 -29.5t-114.5 29.5z" />
    <glyph glyph-name="icircumflex" unicode="&#xee;" horiz-adv-x="239" 
d="M80 530h80v-530h-80v530zM81 763h78l133 -154h-87l-85 103l-86 -103h-87z" />
    <glyph glyph-name="idieresis" unicode="&#xef;" horiz-adv-x="239" 
d="M80 530h80v-530h-80v530zM-23 712h87v-86h-87v86zM175 712h87v-86h-87v86z" />
    <glyph glyph-name="uni1ECB" unicode="&#x1ecb;" horiz-adv-x="239" 
d="M72 712h94v-86h-94v86zM79 530h80v-530h-80v530zM72 -85h94v-88h-94v88z" />
    <glyph glyph-name="igrave" unicode="&#xec;" horiz-adv-x="239" 
d="M166 530h-80v-530h80v530zM79 763h-90l104 -154h73z" />
    <glyph glyph-name="uni1EC9" unicode="&#x1ec9;" horiz-adv-x="239" 
d="M82 530h80v-530h-80v530zM69 648q78 21 78 59q0 15 -13.5 24.5t-42.5 9.5q-27 0 -46.5 -5t-23.5 -6v56q23 5 40 7t44 2q48 0 78 -21.5t30 -62.5q0 -37 -32 -66.5t-88 -42.5z" />
    <glyph glyph-name="imacron" unicode="&#x12b;" horiz-adv-x="239" 
d="M80 530h80v-530h-80v530zM-20 705h279v-65h-279v65z" />
    <glyph glyph-name="iogonek" unicode="&#x12f;" horiz-adv-x="238" 
d="M72 712h94v-86h-94v86zM18.5 -188q-21.5 22 -21.5 54q0 33 20 61.5t70 72.5h-8v530h80v-530q-54 -48 -72.5 -72.5t-18.5 -45.5q0 -15 9 -21.5t29 -6.5q25 0 53 6v-62q-34 -8 -65 -8q-54 0 -75.5 22z" />
    <glyph glyph-name="itilde" unicode="&#x129;" horiz-adv-x="239" 
d="M80 530h80v-530h-80v530zM286 717q0 -55 -23 -83.5t-74 -28.5q-25 0 -44 8.5t-41 24.5q-19 12 -28.5 17t-21.5 5q-21 0 -30.5 -12.5t-10.5 -39.5h-60q0 112 97 112q26 0 45.5 -9t39.5 -24q18 -12 28.5 -17t22.5 -5q21 0 30 12t11 40h59z" />
    <glyph glyph-name="uni0237" unicode="&#x237;" horiz-adv-x="251" 
d="M-33 -159q51 61 76.5 102.5t36 83t10.5 100.5v403h80v-410q0 -64 -10.5 -109t-40.5 -95.5t-92 -125.5z" />
    <glyph glyph-name="jcircumflex" unicode="&#x135;" horiz-adv-x="239" 
d="M-41 -159q51 61 76.5 102.5t36 83t10.5 100.5v403h80v-410q0 -64 -10.5 -109t-40.5 -95.5t-92 -125.5zM83 763h78l133 -154h-87l-85 103l-86 -103h-87z" />
    <glyph glyph-name="kcommaaccent" unicode="&#x137;" horiz-adv-x="525" 
d="M81 720h80v-720h-80v720zM415 0l-254 273v-273h-80v530h80v-247l237 247h103l-246 -252l264 -278h-104zM243 -50h87l-61 -150h-74z" />
    <glyph glyph-name="kgreenlandic" unicode="&#x138;" horiz-adv-x="525" 
d="M415 0l-254 273v-273h-80v530h80v-247l237 247h103l-246 -252l264 -278h-104z" />
    <glyph glyph-name="lacute" unicode="&#x13a;" horiz-adv-x="241" 
d="M93 720h80v-720h-80v720zM176 943h90l-104 -154h-73z" />
    <glyph glyph-name="lcaron" unicode="&#x13e;" horiz-adv-x="299" 
d="M81 720h80v-720h-80v720zM230 720h75l-31 -180h-62z" />
    <glyph glyph-name="lcommaaccent" unicode="&#x13c;" horiz-adv-x="241" 
d="M71 720h80v-720h-80v720zM65 -50h87l-61 -150h-74z" />
    <glyph glyph-name="ldot" unicode="&#x140;" horiz-adv-x="328" 
d="M81 720h80v-720h-80v720zM219 388h93v-97h-93v97z" />
    <glyph glyph-name="lslash" unicode="&#x142;" horiz-adv-x="288" 
d="M269 457l-87 -36v-421h-80v388l-83 -35v76l83 35v256h80v-223l87 36v-76z" />
    <glyph glyph-name="nacute" unicode="&#x144;" horiz-adv-x="601" 
d="M81 530h77v-36q28 17 76 31.5t106 14.5q104 0 144 -38.5t40 -120.5v-381h-80v365q0 56 -27 78.5t-97 22.5q-95 0 -159 -30v-436h-80v530zM348 763h90l-104 -154h-73z" />
    <glyph glyph-name="napostrophe" unicode="&#x149;" horiz-adv-x="622" 
d="M66 750h75l-31 -180h-62zM102 530h77v-36q28 17 76 31.5t106 14.5q104 0 144 -38.5t40 -120.5v-381h-80v365q0 56 -27 78.5t-97 22.5q-95 0 -159 -30v-436h-80v530z" />
    <glyph glyph-name="ncaron" unicode="&#x148;" horiz-adv-x="601" 
d="M81 530h77v-36q28 17 76 31.5t106 14.5q104 0 144 -38.5t40 -120.5v-381h-80v365q0 56 -27 78.5t-97 22.5q-95 0 -159 -30v-436h-80v530zM223 763l86 -103l85 103h87l-133 -154h-78l-134 154h87z" />
    <glyph glyph-name="ncommaaccent" unicode="&#x146;" horiz-adv-x="601" 
d="M81 530h77v-36q28 17 76 31.5t106 14.5q104 0 144 -38.5t40 -120.5v-381h-80v365q0 56 -27 78.5t-97 22.5q-95 0 -159 -30v-436h-80v530zM275 -50h87l-61 -150h-74z" />
    <glyph glyph-name="eng" unicode="&#x14b;" horiz-adv-x="601" 
d="M484 501.5q40 -38.5 40 -120.5v-381q0 -51 -9.5 -81t-32 -55.5t-74.5 -73.5l-53 55q40 36 56.5 54t24.5 42t8 65v359q0 56 -27 78.5t-97 22.5q-95 0 -159 -30v-436h-80v530h77v-36q28 17 76 31.5t106 14.5q104 0 144 -38.5z" />
    <glyph glyph-name="uni0272" unicode="&#x272;" horiz-adv-x="601" 
d="M484 501.5q40 -38.5 40 -120.5v-381h-80v365q0 56 -27 78.5t-97 22.5q-95 0 -159 -30v-436q0 -51 -9.5 -81t-32 -55.5t-74.5 -73.5l-52 54q39 34 55.5 53t24.5 43.5t8 65.5v524h77v-36q28 17 76 31.5t106 14.5q104 0 144 -38.5z" />
    <glyph glyph-name="ntilde" unicode="&#xf1;" horiz-adv-x="601" 
d="M81 530h77v-36q28 17 76 31.5t106 14.5q104 0 144 -38.5t40 -120.5v-381h-80v365q0 56 -27 78.5t-97 22.5q-95 0 -159 -30v-436h-80v530zM470 717q0 -55 -23 -83.5t-74 -28.5q-25 0 -44 8.5t-41 24.5q-19 12 -28.5 17t-21.5 5q-21 0 -30.5 -12.5t-10.5 -39.5h-60
q0 112 97 112q26 0 45.5 -9t39.5 -24q18 -12 28.5 -17t22.5 -5q21 0 30 12t11 40h59z" />
    <glyph glyph-name="oacute" unicode="&#xf3;" 
d="M114 52.5q-60 62.5 -60 212.5q0 149 60 212t185 63q124 0 184.5 -63t60.5 -212t-60.5 -212t-184.5 -63q-125 0 -185 62.5zM390 80q35 16 53.5 60t18.5 125t-18.5 125t-53.5 60t-91 16t-91 -16t-53.5 -60t-18.5 -125t18.5 -125t53.5 -60t91 -16t91 16zM345 763h90
l-104 -154h-73z" />
    <glyph glyph-name="obreve" unicode="&#x14f;" 
d="M114 52.5q-60 62.5 -60 212.5q0 149 60 212t185 63q124 0 184.5 -63t60.5 -212t-60.5 -212t-184.5 -63q-125 0 -185 62.5zM390 80q35 16 53.5 60t18.5 125t-18.5 125t-53.5 60t-91 16t-91 -16t-53.5 -60t-18.5 -125t18.5 -125t53.5 -60t91 -16t91 16zM184.5 643.5
q-37.5 29.5 -39.5 100.5h66q2 -42 24 -58.5t64 -16.5t64 16.5t24 58.5h65q-1 -71 -38.5 -100.5t-114.5 -29.5t-114.5 29.5z" />
    <glyph glyph-name="ocircumflex" unicode="&#xf4;" 
d="M114 52.5q-60 62.5 -60 212.5q0 149 60 212t185 63q124 0 184.5 -63t60.5 -212t-60.5 -212t-184.5 -63q-125 0 -185 62.5zM390 80q35 16 53.5 60t18.5 125t-18.5 125t-53.5 60t-91 16t-91 -16t-53.5 -60t-18.5 -125t18.5 -125t53.5 -60t91 -16t91 16zM260 763h78
l133 -154h-87l-85 103l-86 -103h-87z" />
    <glyph glyph-name="uni1ED1" unicode="&#x1ed1;" 
d="M114 52.5q-60 62.5 -60 212.5q0 149 60 212t185 63q124 0 184.5 -63t60.5 -212t-60.5 -212t-184.5 -63q-125 0 -185 62.5zM390 80q35 16 53.5 60t18.5 125t-18.5 125t-53.5 60t-91 16t-91 -16t-53.5 -60t-18.5 -125t18.5 -125t53.5 -60t91 -16t91 16zM258 745h78
l126 -130h-90l-75 82l-77 -82h-89zM458 867h90l-95 -122h-71z" />
    <glyph glyph-name="uni1ED9" unicode="&#x1ed9;" 
d="M251 -85h94v-88h-94v88zM114 52.5q-60 62.5 -60 212.5q0 149 60 212t185 63q124 0 184.5 -63t60.5 -212t-60.5 -212t-184.5 -63q-125 0 -185 62.5zM390 80q35 16 53.5 60t18.5 125t-18.5 125t-53.5 60t-91 16t-91 -16t-53.5 -60t-18.5 -125t18.5 -125t53.5 -60t91 -16
t91 16zM260 763h78l133 -154h-87l-85 103l-86 -103h-87z" />
    <glyph glyph-name="uni1ED3" unicode="&#x1ed3;" 
d="M114 52.5q-60 62.5 -60 212.5q0 149 60 212t185 63q124 0 184.5 -63t60.5 -212t-60.5 -212t-184.5 -63q-125 0 -185 62.5zM390 80q35 16 53.5 60t18.5 125t-18.5 125t-53.5 60t-91 16t-91 -16t-53.5 -60t-18.5 -125t18.5 -125t53.5 -60t91 -16t91 16zM335 745h-78
l-126 -130h90l75 82l77 -82h89zM398 867h-90l95 -122h71z" />
    <glyph glyph-name="uni1ED5" unicode="&#x1ed5;" 
d="M114 52.5q-60 62.5 -60 212.5q0 149 60 212t185 63q124 0 184.5 -63t60.5 -212t-60.5 -212t-184.5 -63q-125 0 -185 62.5zM390 80q35 16 53.5 60t18.5 125t-18.5 125t-53.5 60t-91 16t-91 -16t-53.5 -60t-18.5 -125t18.5 -125t53.5 -60t91 -16t91 16zM261 745h78
l126 -130h-90l-75 82l-77 -82h-89zM393 755q64 17 64 47t-47 30q-21 0 -37.5 -4t-21.5 -5v57q3 1 23.5 5t50.5 4q42 0 71.5 -20.5t29.5 -57.5q0 -35 -29 -61t-80 -39z" />
    <glyph glyph-name="uni1ED7" unicode="&#x1ed7;" 
d="M114 52.5q-60 62.5 -60 212.5q0 149 60 212t185 63q124 0 184.5 -63t60.5 -212t-60.5 -212t-184.5 -63q-125 0 -185 62.5zM390 80q35 16 53.5 60t18.5 125t-18.5 125t-53.5 60t-91 16t-91 -16t-53.5 -60t-18.5 -125t18.5 -125t53.5 -60t91 -16t91 16zM259 721.695h78
l126 -114.939h-90l-75 72.5l-77 -72.5h-89zM457 860q0 -52 -22.5 -78t-70.5 -26q-24 0 -40 7t-37 22q-14 10 -24 15t-21 5q-20 0 -28 -11t-10 -34h-58q0 52 22 78t71 26q24 0 40.5 -7.5t35.5 -21.5q14 -10 23.5 -15t21.5 -5q19 0 28 11t10 34h59z" />
    <glyph glyph-name="odieresis" unicode="&#xf6;" 
d="M114 52.5q-60 62.5 -60 212.5q0 149 60 212t185 63q124 0 184.5 -63t60.5 -212t-60.5 -212t-184.5 -63q-125 0 -185 62.5zM390 80q35 16 53.5 60t18.5 125t-18.5 125t-53.5 60t-91 16t-91 -16t-53.5 -60t-18.5 -125t18.5 -125t53.5 -60t91 -16t91 16zM156 712h87v-86h-87
v86zM354 712h87v-86h-87v86z" />
    <glyph glyph-name="uni1ECD" unicode="&#x1ecd;" 
d="M114 52.5q-60 62.5 -60 212.5q0 149 60 212t185 63q124 0 184.5 -63t60.5 -212t-60.5 -212t-184.5 -63q-125 0 -185 62.5zM390 80q35 16 53.5 60t18.5 125t-18.5 125t-53.5 60t-91 16t-91 -16t-53.5 -60t-18.5 -125t18.5 -125t53.5 -60t91 -16t91 16zM251 -85h94v-88h-94
v88z" />
    <glyph glyph-name="ograve" unicode="&#xf2;" 
d="M483 52.5q60 62.5 60 212.5q0 149 -60 212t-185 63q-124 0 -184.5 -63t-60.5 -212t60.5 -212t184.5 -63q125 0 185 62.5zM207 80q-35 16 -53.5 60t-18.5 125t18.5 125t53.5 60t91 16t91 -16t53.5 -60t18.5 -125t-18.5 -125t-53.5 -60t-91 -16t-91 16zM252 763h-90
l104 -154h73z" />
    <glyph glyph-name="uni1ECF" unicode="&#x1ecf;" 
d="M114 52.5q-60 62.5 -60 212.5q0 149 60 212t185 63q124 0 184.5 -63t60.5 -212t-60.5 -212t-184.5 -63q-125 0 -185 62.5zM390 80q35 16 53.5 60t18.5 125t-18.5 125t-53.5 60t-91 16t-91 -16t-53.5 -60t-18.5 -125t18.5 -125t53.5 -60t91 -16t91 16zM259 648
q78 21 78 59q0 15 -13.5 24.5t-42.5 9.5q-27 0 -46.5 -5t-23.5 -6v56q23 5 40 7t44 2q48 0 78 -21.5t30 -62.5q0 -37 -32 -66.5t-88 -42.5z" />
    <glyph glyph-name="ohorn" unicode="&#x1a1;" 
d="M114 52.5q-60 62.5 -60 212.5q0 149 60 212t185 63q124 0 184.5 -63t60.5 -212t-60.5 -212t-184.5 -63q-125 0 -185 62.5zM390 80q35 16 53.5 60t18.5 125t-18.5 125t-53.5 60t-91 16t-91 -16t-53.5 -60t-18.5 -125t18.5 -125t53.5 -60t91 -16t91 16zM455 528.5
q12 25.5 12 75.5q0 30 -3 48h73q5 -25 5 -49q0 -66 -25.5 -102.5t-78.5 -55.5l-23 39q28 19 40 44.5z" />
    <glyph glyph-name="uni1EDB" unicode="&#x1edb;" 
d="M114 52.5q-60 62.5 -60 212.5q0 149 60 212t185 63q124 0 184.5 -63t60.5 -212t-60.5 -212t-184.5 -63q-125 0 -185 62.5zM390 80q35 16 53.5 60t18.5 125t-18.5 125t-53.5 60t-91 16t-91 -16t-53.5 -60t-18.5 -125t18.5 -125t53.5 -60t91 -16t91 16zM455 528.5
q12 25.5 12 75.5q0 30 -3 48h73q5 -25 5 -49q0 -66 -25.5 -102.5t-78.5 -55.5l-23 39q28 19 40 44.5zM316 763h90l-104 -154h-73z" />
    <glyph glyph-name="uni1EE3" unicode="&#x1ee3;" 
d="M114 52.5q-60 62.5 -60 212.5q0 149 60 212t185 63q124 0 184.5 -63t60.5 -212t-60.5 -212t-184.5 -63q-125 0 -185 62.5zM390 80q35 16 53.5 60t18.5 125t-18.5 125t-53.5 60t-91 16t-91 -16t-53.5 -60t-18.5 -125t18.5 -125t53.5 -60t91 -16t91 16zM455 528.5
q12 25.5 12 75.5q0 30 -3 48h73q5 -25 5 -49q0 -66 -25.5 -102.5t-78.5 -55.5l-23 39q28 19 40 44.5zM251 -85h94v-88h-94v88z" />
    <glyph glyph-name="uni1EDD" unicode="&#x1edd;" 
d="M114 52.5q-60 62.5 -60 212.5q0 149 60 212t185 63q124 0 184.5 -63t60.5 -212t-60.5 -212t-184.5 -63q-125 0 -185 62.5zM390 80q35 16 53.5 60t18.5 125t-18.5 125t-53.5 60t-91 16t-91 -16t-53.5 -60t-18.5 -125t18.5 -125t53.5 -60t91 -16t91 16zM455 528.5
q12 25.5 12 75.5q0 30 -3 48h73q5 -25 5 -49q0 -66 -25.5 -102.5t-78.5 -55.5l-23 39q28 19 40 44.5zM274 609l-104 154h90l87 -154h-73z" />
    <glyph glyph-name="uni1EDF" unicode="&#x1edf;" 
d="M114 52.5q-60 62.5 -60 212.5q0 149 60 212t185 63q124 0 184.5 -63t60.5 -212t-60.5 -212t-184.5 -63q-125 0 -185 62.5zM390 80q35 16 53.5 60t18.5 125t-18.5 125t-53.5 60t-91 16t-91 -16t-53.5 -60t-18.5 -125t18.5 -125t53.5 -60t91 -16t91 16zM455 528.5
q12 25.5 12 75.5q0 30 -3 48h73q5 -25 5 -49q0 -66 -25.5 -102.5t-78.5 -55.5l-23 39q28 19 40 44.5zM242 648q78 21 78 59q0 15 -13.5 24.5t-42.5 9.5q-27 0 -46.5 -5t-23.5 -6v56q23 5 40 7t44 2q48 0 78 -21.5t30 -62.5q0 -37 -32 -66.5t-88 -42.5z" />
    <glyph glyph-name="uni1EE1" unicode="&#x1ee1;" 
d="M114 52.5q-60 62.5 -60 212.5q0 149 60 212t185 63q124 0 184.5 -63t60.5 -212t-60.5 -212t-184.5 -63q-125 0 -185 62.5zM390 80q35 16 53.5 60t18.5 125t-18.5 125t-53.5 60t-91 16t-91 -16t-53.5 -60t-18.5 -125t18.5 -125t53.5 -60t91 -16t91 16zM455 528.5
q12 25.5 12 75.5q0 30 -3 48h73q5 -25 5 -49q0 -66 -25.5 -102.5t-78.5 -55.5l-23 39q28 19 40 44.5zM418 717q0 -55 -23 -83.5t-74 -28.5q-25 0 -44 8.5t-41 24.5q-19 12 -28.5 17t-21.5 5q-21 0 -30.5 -12.5t-10.5 -39.5h-60q0 112 97 112q26 0 45.5 -9t39.5 -24
q18 -12 28.5 -17t22.5 -5q21 0 30 12t11 40h59z" />
    <glyph glyph-name="ohungarumlaut" unicode="&#x151;" 
d="M114 52.5q-60 62.5 -60 212.5q0 149 60 212t185 63q124 0 184.5 -63t60.5 -212t-60.5 -212t-184.5 -63q-125 0 -185 62.5zM390 80q35 16 53.5 60t18.5 125t-18.5 125t-53.5 60t-91 16t-91 -16t-53.5 -60t-18.5 -125t18.5 -125t53.5 -60t91 -16t91 16zM265 763h90
l-104 -154h-73zM401 763h90l-104 -154h-73z" />
    <glyph glyph-name="omacron" unicode="&#x14d;" 
d="M114 52.5q-60 62.5 -60 212.5q0 149 60 212t185 63q124 0 184.5 -63t60.5 -212t-60.5 -212t-184.5 -63q-125 0 -185 62.5zM390 80q35 16 53.5 60t18.5 125t-18.5 125t-53.5 60t-91 16t-91 -16t-53.5 -60t-18.5 -125t18.5 -125t53.5 -60t91 -16t91 16zM159 705h279v-65
h-279v65z" />
    <glyph glyph-name="uni01EB" unicode="&#x1eb;" 
d="M317.5 -59.5q-28.5 -33.5 -28.5 -58.5q0 -15 9.5 -21.5t29.5 -6.5q25 0 53 6v-62q-34 -8 -66 -8q-96 0 -96 76q0 32 19 60.5t64 63.5q-88 2 -142 29t-80 87t-26 159q0 149 60 212t185 63q124 0 184.5 -63t60.5 -212q0 -86 -18.5 -137.5t-45.5 -76t-65 -43.5
q-69 -34 -97.5 -67.5zM154.5 140q18.5 -44 53.5 -60t91 -16t91 16t53.5 60t18.5 125t-18.5 125t-53.5 60t-91 16t-91 -16t-53.5 -60t-18.5 -125t18.5 -125z" />
    <glyph glyph-name="oslash" unicode="&#xf8;" 
d="M483.5 477q60.5 -63 60.5 -212t-60.5 -212t-184.5 -63q-125 0 -185 62.5t-60 212.5q0 149 60 212t185 63q124 0 184.5 -63zM208 450q-35 -16 -53.5 -60t-18.5 -125q0 -102 31 -149l229 331q-35 19 -97 19q-56 0 -91 -16zM390 80q35 16 53.5 60t18.5 125q0 96 -28 144
l-225 -329q32 -16 90 -16q56 0 91 16z" />
    <glyph glyph-name="oslashacute" unicode="&#x1ff;" 
d="M483.5 477q60.5 -63 60.5 -212t-60.5 -212t-184.5 -63q-125 0 -185 62.5t-60 212.5q0 149 60 212t185 63q124 0 184.5 -63zM208 450q-35 -16 -53.5 -60t-18.5 -125q0 -102 31 -149l229 331q-35 19 -97 19q-56 0 -91 -16zM390 80q35 16 53.5 60t18.5 125q0 96 -28 144
l-225 -329q32 -16 90 -16q56 0 91 16zM345 763h90l-104 -154h-73z" />
    <glyph glyph-name="otilde" unicode="&#xf5;" 
d="M114 52.5q-60 62.5 -60 212.5q0 149 60 212t185 63q124 0 184.5 -63t60.5 -212t-60.5 -212t-184.5 -63q-125 0 -185 62.5zM390 80q35 16 53.5 60t18.5 125t-18.5 125t-53.5 60t-91 16t-91 -16t-53.5 -60t-18.5 -125t18.5 -125t53.5 -60t91 -16t91 16zM458 717
q0 -55 -23 -83.5t-74 -28.5q-25 0 -44 8.5t-41 24.5q-19 12 -28.5 17t-21.5 5q-21 0 -30.5 -12.5t-10.5 -39.5h-60q0 112 97 112q26 0 45.5 -9t39.5 -24q18 -12 28.5 -17t22.5 -5q21 0 30 12t11 40h59z" />
    <glyph glyph-name="oe" unicode="&#x153;" horiz-adv-x="970" 
d="M575.5 15.5q-49.5 25.5 -74.5 89.5q-27 -61 -77.5 -88t-124.5 -27q-125 0 -185 62.5t-60 212.5q0 149 60 212t185 63q76 0 125 -26.5t76 -90.5q25 61 72.5 89t123.5 28q79 0 127 -25.5t70.5 -81t22.5 -147.5q0 -27 -2 -49h-371q1 -68 17.5 -106t53.5 -53.5t102 -15.5
q97 0 169 29v-74q-67 -27 -174 -27q-86 0 -135.5 25.5zM837 302q-1 62 -13.5 98t-43 53t-84.5 17q-80 0 -114.5 -40t-38.5 -128h294zM390 80q35 16 53.5 60t18.5 125t-18.5 125t-53.5 60t-91 16t-91 -16t-54 -60t-19 -125t19 -125t54 -60t91 -16t91 16z" />
    <glyph glyph-name="thorn" unicode="&#xfe;" horiz-adv-x="605" 
d="M493 478q58 -62 58 -213q0 -147 -57 -211t-175 -64q-93 0 -158 29v-219h-80v730h80v-35q68 45 158 45q116 0 174 -62zM401.5 85q37.5 21 52.5 64.5t15 115.5t-15 116t-52.5 65t-104.5 21q-78 0 -136 -27v-356q53 -20 136 -20q67 0 104.5 21zM81 720h80v-720h-80v720z" />
    <glyph glyph-name="racute" unicode="&#x155;" horiz-adv-x="383" 
d="M81 530h77v-58q34 22 86.5 41.5t115.5 26.5v-77q-57 -6 -110 -19.5t-89 -31.5v-412h-80v530zM255 763h90l-104 -154h-73z" />
    <glyph glyph-name="rcaron" unicode="&#x159;" horiz-adv-x="383" 
d="M81 530h77v-58q34 22 86.5 41.5t115.5 26.5v-77q-57 -6 -110 -19.5t-89 -31.5v-412h-80v530zM144 763l86 -103l85 103h87l-133 -154h-78l-134 154h87z" />
    <glyph glyph-name="rcommaaccent" unicode="&#x157;" horiz-adv-x="383" 
d="M79 530h77v-58q34 22 86.5 41.5t115.5 26.5v-77q-57 -6 -110 -19.5t-89 -31.5v-412h-80v530zM80 -50h87l-61 -150h-74z" />
    <glyph glyph-name="sacute" unicode="&#x15b;" horiz-adv-x="502" 
d="M144 -2.5q-49 7.5 -85 22.5v79q42 -18 90.5 -27.5t91.5 -9.5q51 0 79 6.5t40 23.5t12 48q0 27 -10.5 43t-29.5 25t-57 20l-89 27q-46 13 -73.5 29t-43 43.5t-15.5 73.5q0 77 48.5 108t156.5 31q44 0 88.5 -6.5t76.5 -15.5v-77q-42 14 -81 20.5t-85 6.5q-50 0 -76.5 -6
t-37 -20.5t-10.5 -42.5q0 -35 18 -49t69 -29l89 -27q51 -15 80.5 -32t45 -45.5t15.5 -75.5q0 -57 -20 -89.5t-65 -47t-125 -14.5q-48 0 -97 7.5zM276 763h90l-104 -154h-73z" />
    <glyph glyph-name="scaron" unicode="&#x161;" horiz-adv-x="502" 
d="M144 -2.5q-49 7.5 -85 22.5v79q42 -18 90.5 -27.5t91.5 -9.5q51 0 79 6.5t40 23.5t12 48q0 27 -10.5 43t-29.5 25t-57 20l-89 27q-46 13 -73.5 29t-43 43.5t-15.5 73.5q0 77 48.5 108t156.5 31q44 0 88.5 -6.5t76.5 -15.5v-77q-42 14 -81 20.5t-85 6.5q-50 0 -76.5 -6
t-37 -20.5t-10.5 -42.5q0 -35 18 -49t69 -29l89 -27q51 -15 80.5 -32t45 -45.5t15.5 -75.5q0 -57 -20 -89.5t-65 -47t-125 -14.5q-48 0 -97 7.5zM161 763l86 -103l85 103h87l-133 -154h-78l-134 154h87z" />
    <glyph glyph-name="scedilla" unicode="&#x15f;" horiz-adv-x="502" 
d="M144 -2.5q-49 7.5 -85 22.5v79q42 -18 90.5 -27.5t91.5 -9.5q51 0 79 6.5t40 23.5t12 48q0 27 -10.5 43t-29.5 25t-57 20l-89 27q-46 13 -73.5 29t-43 43.5t-15.5 73.5q0 77 48.5 108t156.5 31q44 0 88.5 -6.5t76.5 -15.5v-77q-42 14 -81 20.5t-85 6.5q-50 0 -76.5 -6
t-37 -20.5t-10.5 -42.5q0 -35 18 -49t69 -29l89 -27q51 -15 80.5 -32t45 -45.5t15.5 -75.5q0 -57 -20 -89.5t-65 -47t-125 -14.5q-48 0 -97 7.5zM176 -151q22 -4 58 -4q35 0 49 6.5t14 24.5q0 13 -8.5 20t-30 9.5t-65.5 2.5l25 92h59l-14 -50q53 -2 76 -21t23 -56
q0 -42 -29 -62.5t-89 -20.5q-42 0 -68 4v55z" />
    <glyph glyph-name="scircumflex" unicode="&#x15d;" horiz-adv-x="502" 
d="M144 -2.5q-49 7.5 -85 22.5v79q42 -18 90.5 -27.5t91.5 -9.5q51 0 79 6.5t40 23.5t12 48q0 27 -10.5 43t-29.5 25t-57 20l-89 27q-46 13 -73.5 29t-43 43.5t-15.5 73.5q0 77 48.5 108t156.5 31q44 0 88.5 -6.5t76.5 -15.5v-77q-42 14 -81 20.5t-85 6.5q-50 0 -76.5 -6
t-37 -20.5t-10.5 -42.5q0 -35 18 -49t69 -29l89 -27q51 -15 80.5 -32t45 -45.5t15.5 -75.5q0 -57 -20 -89.5t-65 -47t-125 -14.5q-48 0 -97 7.5zM199 763h78l133 -154h-87l-85 103l-86 -103h-87z" />
    <glyph glyph-name="scommaaccent" unicode="&#x219;" horiz-adv-x="502" 
d="M144 -2.5q-49 7.5 -85 22.5v79q42 -18 90.5 -27.5t91.5 -9.5q51 0 79 6.5t40 23.5t12 48q0 27 -10.5 43t-29.5 25t-57 20l-89 27q-46 13 -73.5 29t-43 43.5t-15.5 73.5q0 77 48.5 108t156.5 31q44 0 88.5 -6.5t76.5 -15.5v-77q-42 14 -81 20.5t-85 6.5q-50 0 -76.5 -6
t-37 -20.5t-10.5 -42.5q0 -35 18 -49t69 -29l89 -27q51 -15 80.5 -32t45 -45.5t15.5 -75.5q0 -57 -20 -89.5t-65 -47t-125 -14.5q-48 0 -97 7.5zM216 -50h87l-61 -150h-74z" />
    <glyph glyph-name="germandbls" unicode="&#xdf;" horiz-adv-x="587" 
d="M81 521q0 103 50.5 156t165.5 53q108 0 160.5 -46t52.5 -138q0 -75 -25.5 -112t-76.5 -58q41 -10 69 -26.5t46 -53t18 -99.5q0 -76 -25.5 -118.5t-78 -60.5t-137.5 -18h-73v73h66q60 0 95.5 10.5t53 38.5t17.5 80q0 77 -42 106.5t-124 29.5h-33v73h31q139 0 139 131
q0 56 -30.5 85t-104.5 29q-72 0 -103 -35t-31 -103v-518h-80v521z" />
    <glyph glyph-name="tbar" unicode="&#x167;" horiz-adv-x="413" 
d="M199 279v-146q0 -38 20.5 -53.5t61.5 -15.5q47 0 96 17v-73q-23 -9 -48 -13.5t-61 -4.5q-75 0 -111.5 32t-36.5 106v151h-106v57h106v124h-106v70h106v125l79 24v-149h175v-70h-175v-124h178v-57h-178z" />
    <glyph glyph-name="tcaron" unicode="&#x165;" horiz-adv-x="413" 
d="M274 768h75l-31 -180h-62zM156.5 22q-36.5 32 -36.5 106v332h-106v70h106v125l79 24v-149h175v-70h-175v-327q0 -38 20.5 -53.5t61.5 -15.5q47 0 96 17v-73q-23 -9 -48 -13.5t-61 -4.5q-75 0 -111.5 32z" />
    <glyph glyph-name="uni0163" unicode="&#x163;" horiz-adv-x="413" 
d="M156.5 22q-36.5 32 -36.5 106v332h-106v70h106v125l79 24v-149h175v-70h-175v-327q0 -38 20.5 -53.5t61.5 -15.5q47 0 96 17v-73q-23 -9 -48 -13.5t-61 -4.5q-75 0 -111.5 32zM185 -151q22 -4 58 -4q35 0 49 6.5t14 24.5q0 13 -8.5 20t-30 9.5t-65.5 2.5l25 92h59
l-14 -50q53 -2 76 -21t23 -56q0 -42 -29 -62.5t-89 -20.5q-42 0 -68 4v55z" />
    <glyph glyph-name="uni021B" unicode="&#x21b;" horiz-adv-x="413" 
d="M156.5 22q-36.5 32 -36.5 106v332h-106v70h106v125l79 24v-149h175v-70h-175v-327q0 -38 20.5 -53.5t61.5 -15.5q47 0 96 17v-73q-23 -9 -48 -13.5t-61 -4.5q-75 0 -111.5 32zM216 -50h87l-61 -150h-74z" />
    <glyph glyph-name="uacute" unicode="&#xfa;" 
d="M118 28.5q-41 38.5 -41 120.5v381h80v-365q0 -56 27 -78.5t95 -22.5q50 0 86.5 8.5t70.5 22.5v435h80v-530h-64l-11 37q-31 -18 -76.5 -32.5t-102.5 -14.5q-103 0 -144 38.5zM332 763h90l-104 -154h-73z" />
    <glyph glyph-name="ubreve" unicode="&#x16d;" 
d="M118 28.5q-41 38.5 -41 120.5v381h80v-365q0 -56 27 -78.5t95 -22.5q50 0 86.5 8.5t70.5 22.5v435h80v-530h-64l-11 37q-31 -18 -76.5 -32.5t-102.5 -14.5q-103 0 -144 38.5zM182.5 643.5q-37.5 29.5 -39.5 100.5h66q2 -42 24 -58.5t64 -16.5t64 16.5t24 58.5h65
q-1 -71 -38.5 -100.5t-114.5 -29.5t-114.5 29.5z" />
    <glyph glyph-name="ucircumflex" unicode="&#xfb;" 
d="M118 28.5q-41 38.5 -41 120.5v381h80v-365q0 -56 27 -78.5t95 -22.5q50 0 86.5 8.5t70.5 22.5v435h80v-530h-64l-11 37q-31 -18 -76.5 -32.5t-102.5 -14.5q-103 0 -144 38.5zM258 763h78l133 -154h-87l-85 103l-86 -103h-87z" />
    <glyph glyph-name="udieresis" unicode="&#xfc;" 
d="M118 28.5q-41 38.5 -41 120.5v381h80v-365q0 -56 27 -78.5t95 -22.5q50 0 86.5 8.5t70.5 22.5v435h80v-530h-64l-11 37q-31 -18 -76.5 -32.5t-102.5 -14.5q-103 0 -144 38.5zM154 712h87v-86h-87v86zM352 712h87v-86h-87v86z" />
    <glyph glyph-name="uni1EE5" unicode="&#x1ee5;" 
d="M118 28.5q-41 38.5 -41 120.5v381h80v-365q0 -56 27 -78.5t95 -22.5q50 0 86.5 8.5t70.5 22.5v435h80v-530h-64l-11 37q-31 -18 -76.5 -32.5t-102.5 -14.5q-103 0 -144 38.5zM249 -85h94v-88h-94v88z" />
    <glyph glyph-name="ugrave" unicode="&#xf9;" 
d="M118 28.5q-41 38.5 -41 120.5v381h80v-365q0 -56 27 -78.5t95 -22.5q50 0 86.5 8.5t70.5 22.5v435h80v-530h-64l-11 37q-31 -18 -76.5 -32.5t-102.5 -14.5q-103 0 -144 38.5zM281 609l-104 154h90l87 -154h-73z" />
    <glyph glyph-name="uni1EE7" unicode="&#x1ee7;" 
d="M118 28.5q-41 38.5 -41 120.5v381h80v-365q0 -56 27 -78.5t95 -22.5q50 0 86.5 8.5t70.5 22.5v435h80v-530h-64l-11 37q-31 -18 -76.5 -32.5t-102.5 -14.5q-103 0 -144 38.5zM256 648q78 21 78 59q0 15 -13.5 24.5t-42.5 9.5q-27 0 -46.5 -5t-23.5 -6v56q23 5 40 7t44 2
q48 0 78 -21.5t30 -62.5q0 -37 -32 -66.5t-88 -42.5z" />
    <glyph glyph-name="uhorn" unicode="&#x1b0;" horiz-adv-x="620" 
d="M118 28.5q-41 38.5 -41 120.5v381h80v-365q0 -56 27 -78.5t95 -22.5q50 0 86.5 8.5t70.5 22.5v435h80v-530h-64l-11 37q-31 -18 -76.5 -32.5t-102.5 -14.5q-103 0 -144 38.5zM479 530q37 0 52.5 16t15.5 53q0 30 -3 61h73q5 -27 5 -65q0 -121 -143 -123v58z" />
    <glyph glyph-name="uni1EE9" unicode="&#x1ee9;" horiz-adv-x="620" 
d="M118 28.5q-41 38.5 -41 120.5v381h80v-365q0 -56 27 -78.5t95 -22.5q50 0 86.5 8.5t70.5 22.5v435h80v-530h-64l-11 37q-31 -18 -76.5 -32.5t-102.5 -14.5q-103 0 -144 38.5zM479 530q37 0 52.5 16t15.5 53q0 30 -3 61h73q5 -27 5 -65q0 -121 -143 -123v58zM336 763h90
l-104 -154h-73z" />
    <glyph glyph-name="uni1EF1" unicode="&#x1ef1;" horiz-adv-x="620" 
d="M118 28.5q-41 38.5 -41 120.5v381h80v-365q0 -56 27 -78.5t95 -22.5q50 0 86.5 8.5t70.5 22.5v435h80v-530h-64l-11 37q-31 -18 -76.5 -32.5t-102.5 -14.5q-103 0 -144 38.5zM479 530q37 0 52.5 16t15.5 53q0 30 -3 61h73q5 -27 5 -65q0 -121 -143 -123v58zM240 -85h94
v-88h-94v88z" />
    <glyph glyph-name="uni1EEB" unicode="&#x1eeb;" horiz-adv-x="620" 
d="M118 28.5q-41 38.5 -41 120.5v381h80v-365q0 -56 27 -78.5t95 -22.5q50 0 86.5 8.5t70.5 22.5v435h80v-530h-64l-11 37q-31 -18 -76.5 -32.5t-102.5 -14.5q-103 0 -144 38.5zM479 530q37 0 52.5 16t15.5 53q0 30 -3 61h73q5 -27 5 -65q0 -121 -143 -123v58zM274 609
l-104 154h90l87 -154h-73z" />
    <glyph glyph-name="uni1EED" unicode="&#x1eed;" horiz-adv-x="620" 
d="M118 28.5q-41 38.5 -41 120.5v381h80v-365q0 -56 27 -78.5t95 -22.5q50 0 86.5 8.5t70.5 22.5v435h80v-530h-64l-11 37q-31 -18 -76.5 -32.5t-102.5 -14.5q-103 0 -144 38.5zM479 530q37 0 52.5 16t15.5 53q0 30 -3 61h73q5 -27 5 -65q0 -121 -143 -123v58zM257 648
q78 21 78 59q0 15 -13.5 24.5t-42.5 9.5q-27 0 -46.5 -5t-23.5 -6v56q23 5 40 7t44 2q48 0 78 -21.5t30 -62.5q0 -37 -32 -66.5t-88 -42.5z" />
    <glyph glyph-name="uni1EEF" unicode="&#x1eef;" horiz-adv-x="620" 
d="M118 28.5q-41 38.5 -41 120.5v381h80v-365q0 -56 27 -78.5t95 -22.5q50 0 86.5 8.5t70.5 22.5v435h80v-530h-64l-11 37q-31 -18 -76.5 -32.5t-102.5 -14.5q-103 0 -144 38.5zM479 530q37 0 52.5 16t15.5 53q0 30 -3 61h73q5 -27 5 -65q0 -121 -143 -123v58zM461 717
q0 -55 -23 -83.5t-74 -28.5q-25 0 -44 8.5t-41 24.5q-19 12 -28.5 17t-21.5 5q-21 0 -30.5 -12.5t-10.5 -39.5h-60q0 112 97 112q26 0 45.5 -9t39.5 -24q18 -12 28.5 -17t22.5 -5q21 0 30 12t11 40h59z" />
    <glyph glyph-name="uhungarumlaut" unicode="&#x171;" 
d="M118 28.5q-41 38.5 -41 120.5v381h80v-365q0 -56 27 -78.5t95 -22.5q50 0 86.5 8.5t70.5 22.5v435h80v-530h-64l-11 37q-31 -18 -76.5 -32.5t-102.5 -14.5q-103 0 -144 38.5zM260 763h90l-104 -154h-73zM396 763h90l-104 -154h-73z" />
    <glyph glyph-name="umacron" unicode="&#x16b;" 
d="M118 28.5q-41 38.5 -41 120.5v381h80v-365q0 -56 27 -78.5t95 -22.5q50 0 86.5 8.5t70.5 22.5v435h80v-530h-64l-11 37q-31 -18 -76.5 -32.5t-102.5 -14.5q-103 0 -144 38.5zM157 705h279v-65h-279v65z" />
    <glyph glyph-name="uogonek" unicode="&#x173;" 
d="M443.5 -72.5q-18.5 -24.5 -18.5 -45.5q0 -15 9 -21.5t29 -6.5q25 0 53 6v-62q-32 -8 -65 -8q-54 0 -75.5 22t-21.5 54q0 33 21 64.5t74 77.5l-8 29q-31 -18 -76.5 -32.5t-102.5 -14.5q-103 0 -144 38.5t-41 120.5v381h80v-365q0 -56 27 -78.5t95 -22.5q50 0 86.5 8.5
t70.5 22.5v435h80v-530q-54 -48 -72.5 -72.5z" />
    <glyph glyph-name="uring" unicode="&#x16f;" 
d="M118 28.5q-41 38.5 -41 120.5v381h80v-365q0 -56 27 -78.5t95 -22.5q50 0 86.5 8.5t70.5 22.5v435h80v-530h-64l-11 37q-31 -18 -76.5 -32.5t-102.5 -14.5q-103 0 -144 38.5zM389.5 779q28.5 -26 28.5 -77t-28.5 -76.5t-92.5 -25.5q-65 0 -93.5 25.5t-28.5 76.5t28.5 77
t93.5 26q64 0 92.5 -26zM348.5 662.5q14.5 13.5 14.5 40.5t-14.5 41t-51.5 14q-38 0 -52.5 -13.5t-14.5 -41.5q0 -27 14.5 -40.5t52.5 -13.5q37 0 51.5 13.5z" />
    <glyph glyph-name="utilde" unicode="&#x169;" 
d="M118 28.5q-41 38.5 -41 120.5v381h80v-365q0 -56 27 -78.5t95 -22.5q50 0 86.5 8.5t70.5 22.5v435h80v-530h-64l-11 37q-31 -18 -76.5 -32.5t-102.5 -14.5q-103 0 -144 38.5zM463 717q0 -55 -23 -83.5t-74 -28.5q-25 0 -44 8.5t-41 24.5q-19 12 -28.5 17t-21.5 5
q-21 0 -30.5 -12.5t-10.5 -39.5h-60q0 112 97 112q26 0 45.5 -9t39.5 -24q18 -12 28.5 -17t22.5 -5q21 0 30 12t11 40h59z" />
    <glyph glyph-name="wacute" unicode="&#x1e83;" horiz-adv-x="816" 
d="M17 530h82l130 -449l136 449h86l135 -449l131 449h82l-163 -530h-97l-131 432l-132 -432h-96zM454 763h90l-104 -154h-73z" />
    <glyph glyph-name="wcircumflex" unicode="&#x175;" horiz-adv-x="816" 
d="M17 530h82l130 -449l136 449h86l135 -449l131 449h82l-163 -530h-97l-131 432l-132 -432h-96zM370 763h78l133 -154h-87l-85 103l-86 -103h-87z" />
    <glyph glyph-name="wdieresis" unicode="&#x1e85;" horiz-adv-x="816" 
d="M17 530h82l130 -449l136 449h86l135 -449l131 449h82l-163 -530h-97l-131 432l-132 -432h-96zM266 712h87v-86h-87v86zM464 712h87v-86h-87v86z" />
    <glyph glyph-name="wgrave" unicode="&#x1e81;" horiz-adv-x="816" 
d="M799 530h-82l-130 -449l-136 449h-86l-135 -449l-131 449h-82l163 -530h97l131 432l132 -432h96zM362 763h-90l104 -154h73z" />
    <glyph glyph-name="yacute" unicode="&#xfd;" horiz-adv-x="527" 
d="M510 530l-173 -448q-36 -91 -93 -162.5t-155 -129.5l-38 61q126 87 170 164l-204 515h84l164 -440l158 440h87zM298 763h90l-104 -154h-73z" />
    <glyph glyph-name="ycircumflex" unicode="&#x177;" horiz-adv-x="527" 
d="M510 530l-173 -448q-36 -91 -93 -162.5t-155 -129.5l-38 61q126 87 170 164l-204 515h84l164 -440l158 440h87zM225 763h78l133 -154h-87l-85 103l-86 -103h-87z" />
    <glyph glyph-name="ydieresis" unicode="&#xff;" horiz-adv-x="527" 
d="M510 530l-173 -448q-36 -91 -93 -162.5t-155 -129.5l-38 61q126 87 170 164l-204 515h84l164 -440l158 440h87zM121 712h87v-86h-87v86zM319 712h87v-86h-87v86z" />
    <glyph glyph-name="uni1EF5" unicode="&#x1ef5;" horiz-adv-x="527" 
d="M510 530l-173 -448q-36 -91 -93 -162.5t-155 -129.5l-38 61q126 87 170 164l-204 515h84l164 -440l158 440h87zM299 -85h94v-88h-94v88z" />
    <glyph glyph-name="ygrave" unicode="&#x1ef3;" horiz-adv-x="527" 
d="M510 530l-173 -448q-36 -91 -93 -162.5t-155 -129.5l-38 61q126 87 170 164l-204 515h84l164 -440l158 440h87zM249 609l-104 154h90l87 -154h-73z" />
    <glyph glyph-name="uni1EF7" unicode="&#x1ef7;" horiz-adv-x="527" 
d="M510 530l-173 -448q-36 -91 -93 -162.5t-155 -129.5l-38 61q126 87 170 164l-204 515h84l164 -440l158 440h87zM228 648q78 21 78 59q0 15 -13.5 24.5t-42.5 9.5q-27 0 -46.5 -5t-23.5 -6v56q23 5 40 7t44 2q48 0 78 -21.5t30 -62.5q0 -37 -32 -66.5t-88 -42.5z" />
    <glyph glyph-name="uni0233" unicode="&#x233;" horiz-adv-x="527" 
d="M510 530l-173 -448q-36 -91 -93 -162.5t-155 -129.5l-38 61q126 87 170 164l-204 515h84l164 -440l158 440h87zM124 705h279v-65h-279v65z" />
    <glyph glyph-name="uni1EF9" unicode="&#x1ef9;" horiz-adv-x="527" 
d="M510 530l-173 -448q-36 -91 -93 -162.5t-155 -129.5l-38 61q126 87 170 164l-204 515h84l164 -440l158 440h87zM430 717q0 -55 -23 -83.5t-74 -28.5q-25 0 -44 8.5t-41 24.5q-19 12 -28.5 17t-21.5 5q-21 0 -30.5 -12.5t-10.5 -39.5h-60q0 112 97 112q26 0 45.5 -9
t39.5 -24q18 -12 28.5 -17t22.5 -5q21 0 30 12t11 40h59z" />
    <glyph glyph-name="zacute" unicode="&#x17a;" horiz-adv-x="507" 
d="M40 57l317 403h-303v70h402v-61l-314 -399h310v-70h-412v57zM276 763h90l-104 -154h-73z" />
    <glyph glyph-name="zcaron" unicode="&#x17e;" horiz-adv-x="507" 
d="M40 57l317 403h-303v70h402v-61l-314 -399h310v-70h-412v57zM172 763l86 -103l85 103h87l-133 -154h-78l-134 154h87z" />
    <glyph glyph-name="zdotaccent" unicode="&#x17c;" horiz-adv-x="507" 
d="M40 57l317 403h-303v70h402v-61l-314 -399h310v-70h-412v57zM203 712h94v-86h-94v86z" />
    <glyph glyph-name="i.TRK" horiz-adv-x="238" 
d="M72 712h94v-86h-94v86zM79 530h80v-530h-80v530z" />
    <glyph glyph-name="germandbls.calt" horiz-adv-x="671" 
d="M224 8v78q9 -2 58.5 -11t103.5 -9q80 0 118 28.5t38 98.5q0 45 -14.5 73t-51.5 42.5t-104 14.5q-49 0 -82 -4v63l170 201q-48 32 -136 32q-87 0 -128 -29t-41 -108v-478h-82v478q0 118 66.5 165t185.5 47q94 0 155 -28.5t92 -66.5l-182 -210q12 2 23 2q116 0 164.5 -48
t48.5 -146q0 -113 -58.5 -158t-181.5 -45q-76 0 -162 18z" />
    <glyph glyph-name="ordfeminine" unicode="&#xaa;" horiz-adv-x="363" 
d="M80 401.5q-26 22.5 -26 71.5q0 47 26 68t82 21q52 0 91 -11v33q0 30 -15.5 42t-57.5 12q-51 0 -97 -13v53q45 12 99 12q69 0 98 -24t29 -79v-203h-41l-10 21q-37 -26 -96 -26q-56 0 -82 22.5zM217 431q18 2 36 9v68q-42 8 -79 8q-35 0 -48.5 -9t-13.5 -33q0 -25 13 -35
t46 -10q28 0 46 2z" />
    <glyph glyph-name="ordmasculine" unicode="&#xba;" horiz-adv-x="386" 
d="M87 415q-33 36 -33 119t33 119.5t106 36.5t106 -36.5t33 -119.5q0 -82 -33 -118.5t-106 -36.5t-106 36zM258 452.5q18 22.5 18 81.5t-18 82t-63 23q-46 0 -64 -22.5t-18 -82.5q0 -59 18 -81.5t64 -22.5q45 0 63 22.5z" />
    <glyph glyph-name="uni0410" unicode="&#x410;" horiz-adv-x="649" 
d="M480 181h-312l-69 -181h-86l263 680h96l264 -680h-87zM453 253l-129 340l-129 -340h258z" />
    <glyph glyph-name="uni0411" unicode="&#x411;" horiz-adv-x="616" 
d="M516 362q58 -45 58 -157q0 -113 -58.5 -159t-182.5 -46h-243v680h458l-18 -76h-358v-197h161q125 0 183 -45zM419.5 86.5q36.5 10.5 53.5 38t17 80.5t-17 80.5t-53.5 38t-101.5 10.5h-146v-258h146q65 0 101.5 10.5z" />
    <glyph glyph-name="uni0412" unicode="&#x412;" horiz-adv-x="644" 
d="M559.5 305q31.5 -39 31.5 -120q0 -72 -26.5 -112.5t-77 -56.5t-129.5 -16h-268v680h250q82 0 132.5 -15.5t76 -52.5t25.5 -102q0 -70 -25.5 -105t-73.5 -48q53 -13 84.5 -52zM172 607v-218h197q62 0 92 24.5t30 90.5q0 39 -15 61.5t-49.5 32t-95.5 9.5h-159zM441.5 82
q33.5 9 49.5 34t16 75q0 70 -30.5 98.5t-105.5 28.5h-199v-245h176q60 0 93.5 9z" />
    <glyph glyph-name="uni0413" unicode="&#x413;" horiz-adv-x="519" 
d="M511 680l-18 -76h-321v-604h-82v680h421z" />
    <glyph glyph-name="uni0403" unicode="&#x403;" horiz-adv-x="519" 
d="M511 680l-18 -76h-321v-604h-82v680h421zM348 913h90l-104 -154h-73z" />
    <glyph glyph-name="uni0490" unicode="&#x490;" horiz-adv-x="525" 
d="M516 845v-241h-344v-604h-82v680h347v165h79z" />
    <glyph glyph-name="uni0414" unicode="&#x414;" horiz-adv-x="738" 
d="M15 74h74q48 48 65.5 103.5t17.5 139.5v363h452v-605h97v-241h-82v166h-542v-166h-82v240zM542 75v530h-291v-301q0 -82 -14.5 -134t-49.5 -95h355z" />
    <glyph glyph-name="uni0415" unicode="&#x415;" horiz-adv-x="592" 
d="M537 76l-19 -76h-428v680h434v-76h-352v-221h337v-74h-337v-233h365z" />
    <glyph glyph-name="uni0400" unicode="&#x400;" horiz-adv-x="592" 
d="M537 76l-19 -76h-428v680h434v-76h-352v-221h337v-74h-337v-233h365zM300 759l-104 154h90l87 -154h-73z" />
    <glyph glyph-name="uni0401" unicode="&#x401;" horiz-adv-x="592" 
d="M537 76l-19 -76h-428v680h434v-76h-352v-221h337v-74h-337v-233h365zM171 862h87v-86h-87v86zM369 862h87v-86h-87v86z" />
    <glyph glyph-name="uni0416" unicode="&#x416;" horiz-adv-x="841" 
d="M737 0l-275 338v-338h-82v336l-274 -336h-104l293 347l-275 333h101l259 -324v324h82v-326l261 326h100l-274 -333l292 -347h-104z" />
    <glyph glyph-name="uni0417" unicode="&#x417;" horiz-adv-x="554" 
d="M122.5 -2.5q-53.5 7.5 -90.5 19.5v80q103 -32 205 -32q92 0 132.5 27t40.5 97q0 63 -34 92t-107 29h-123v72h123q73 0 107 28.5t34 91.5q0 64 -40.5 88.5t-132.5 24.5t-195 -32v80q38 12 90 19.5t105 7.5q132 0 193.5 -42t61.5 -142q0 -64 -31.5 -105.5t-78.5 -54.5
q47 -13 78.5 -55t31.5 -107q0 -105 -61.5 -149.5t-193.5 -44.5q-61 0 -114.5 7.5z" />
    <glyph glyph-name="uni0418" unicode="&#x418;" horiz-adv-x="707" 
d="M536 0v543l-378 -543h-68v680h82v-545l378 545h68v-680h-82z" />
    <glyph glyph-name="uni0419" unicode="&#x419;" horiz-adv-x="707" 
d="M536 0v543l-378 -543h-68v680h82v-545l378 545h68v-680h-82zM229.5 813.5q-43.5 31.5 -44.5 103.5h73q2 -45 25.5 -62.5t77.5 -17.5t77.5 17.5t25.5 62.5h73q-1 -72 -44.5 -103.5t-131.5 -31.5t-131.5 31.5z" />
    <glyph glyph-name="uni040D" unicode="&#x40d;" horiz-adv-x="707" 
d="M536 0v543l-378 -543h-68v680h82v-545l378 545h68v-680h-82zM345 759l-104 154h90l87 -154h-73z" />
    <glyph glyph-name="uni041A" unicode="&#x41a;" horiz-adv-x="603" 
d="M493 0l-321 339v-339h-82v680h82v-327l307 327h106l-320 -333l338 -347h-110z" />
    <glyph glyph-name="uni040C" unicode="&#x40c;" horiz-adv-x="603" 
d="M334 913h90l-104 -154h-73zM493 0l-321 339v-339h-82v680h82v-327l307 327h106l-320 -333l338 -347h-110z" />
    <glyph glyph-name="uni041B" unicode="&#x41b;" horiz-adv-x="721" 
d="M632 0h-82v604h-305v-417q0 -106 -42.5 -151.5t-107.5 -45.5q-28 0 -71 8v75q28 -7 55 -7q43 0 64.5 29t21.5 107v478h467v-680z" />
    <glyph glyph-name="uni041C" unicode="&#x41c;" horiz-adv-x="871" 
d="M90 680h97l249 -350l247 350h99v-680h-82v572l-264 -369l-264 369v-572h-82v680z" />
    <glyph glyph-name="uni041D" unicode="&#x41d;" horiz-adv-x="701" 
d="M611 680v-680h-82v309h-357v-309h-82v680h82v-295h357v295h82z" />
    <glyph glyph-name="uni041E" unicode="&#x41e;" horiz-adv-x="666" 
d="M167.5 23.5q-60.5 33.5 -87.5 109t-27 206.5q0 132 27 208t87 109.5t166 33.5q105 0 165.5 -33.5t87 -109.5t26.5 -208t-26.5 -207t-87 -108.5t-165.5 -33.5t-165.5 33.5zM450.5 92q41.5 24 59.5 82t18 165q0 108 -17 166t-58.5 82.5t-119.5 24.5t-119.5 -24.5t-59 -82.5
t-17.5 -166q0 -106 18 -164.5t60 -82.5t118 -24t117.5 24z" />
    <glyph glyph-name="uni041F" unicode="&#x41f;" horiz-adv-x="708" 
d="M618 0h-82v604h-364v-604h-82v680h528v-680z" />
    <glyph glyph-name="uni0420" unicode="&#x420;" horiz-adv-x="611" 
d="M468.5 660q52.5 -20 79 -69t26.5 -133t-26.5 -133t-79 -69t-135.5 -20h-161v-236h-82v680h243q83 0 135.5 -20zM419.5 323.5q36.5 11.5 53.5 43t17 91.5t-17 91.5t-53.5 43t-101.5 11.5h-146v-292h146q65 0 101.5 11.5z" />
    <glyph glyph-name="uni0421" unicode="&#x421;" horiz-adv-x="577" 
d="M172 24q-62 34 -90.5 109.5t-28.5 206.5q0 126 27.5 202t90 112t169.5 36q47 0 97.5 -6.5t91.5 -19.5v-79q-79 27 -173 27q-89 0 -135.5 -24.5t-65 -82t-18.5 -165.5q0 -109 18.5 -166.5t65 -81.5t135.5 -24q94 0 173 27v-79q-41 -13 -91.5 -19.5t-97.5 -6.5
q-106 0 -168 34z" />
    <glyph glyph-name="uni0422" unicode="&#x422;" horiz-adv-x="567" 
d="M242 603h-222v77h534l-21 -77h-209v-603h-82v603z" />
    <glyph glyph-name="uni0423" unicode="&#x423;" horiz-adv-x="617" 
d="M320 96q-22 -45 -55 -75.5t-76 -30.5q-39 0 -75 12v78q29 -11 65 -11q25 0 40.5 15t30.5 45l31 60l-249 491h91l200 -403l186 403h91z" />
    <glyph glyph-name="uni040E" unicode="&#x40e;" horiz-adv-x="617" 
d="M320 96q-22 -45 -55 -75.5t-76 -30.5q-39 0 -75 12v78q29 -11 65 -11q25 0 40.5 15t30.5 45l31 60l-249 491h91l200 -403l186 403h91zM184.5 813.5q-43.5 31.5 -44.5 103.5h73q2 -45 25.5 -62.5t77.5 -17.5t77.5 17.5t25.5 62.5h73q-1 -72 -44.5 -103.5t-131.5 -31.5
t-131.5 31.5z" />
    <glyph glyph-name="uni0424" unicode="&#x424;" horiz-adv-x="771" 
d="M345 76q-119 0 -184 23.5t-94 83.5t-29 173q0 118 29 180t94 85.5t184 23.5v75h81v-75q120 0 185 -23.5t94 -85.5t29 -180q0 -114 -29 -173.5t-94.5 -83t-184.5 -23.5v-86h-81v86zM348 147v427h-3q-96 0 -141.5 -15.5t-63.5 -60.5t-18 -142q0 -91 19 -135t65 -59t139 -15
h3zM427 147q93 0 139 15t65 59t19 135q0 96 -18.5 141.5t-64 61t-140.5 15.5h-3v-427h3z" />
    <glyph glyph-name="uni0425" unicode="&#x425;" horiz-adv-x="584" 
d="M242 335l-223 345h94l179 -281l179 281h94l-224 -345l220 -335h-93l-176 271l-176 -271h-94z" />
    <glyph glyph-name="uni0427" unicode="&#x427;" horiz-adv-x="637" 
d="M547 0h-82v274q-40 -19 -83.5 -31.5t-101.5 -12.5q-118 0 -171 46t-53 126v278h83v-263q0 -55 36 -83t123 -28q83 0 167 33v341h82v-680z" />
    <glyph glyph-name="uni0426" unicode="&#x426;" horiz-adv-x="735" 
d="M718 74v-240h-81v166h-547v680h82v-604h364v604h82v-606h100z" />
    <glyph glyph-name="uni0428" unicode="&#x428;" horiz-adv-x="1018" 
d="M928 680v-680h-838v680h82v-604h291v604h82v-604h301v604h82z" />
    <glyph glyph-name="uni0429" unicode="&#x429;" horiz-adv-x="1049" 
d="M1032 74v-240h-81v166h-861v680h82v-604h291v604h82v-604h301v604h82v-606h104z" />
    <glyph glyph-name="uni040F" unicode="&#x40f;" horiz-adv-x="708" 
d="M618 680v-680h-223v-166h-82v166h-223v680h82v-604h364v604h82z" />
    <glyph glyph-name="uni042C" unicode="&#x42c;" horiz-adv-x="605" 
d="M515.5 376.5q58.5 -47.5 58.5 -164.5t-58.5 -164.5t-182.5 -47.5h-243v680h82v-256h161q124 0 182.5 -47.5zM419.5 87q36.5 11 53.5 40t17 85t-17 85t-53.5 40t-101.5 11h-146v-272h146q65 0 101.5 11z" />
    <glyph glyph-name="uni042A" unicode="&#x42a;" horiz-adv-x="671" 
d="M581.5 376.5q58.5 -47.5 58.5 -164.5t-58.5 -164.5t-182.5 -47.5h-243v606h-151v74h233v-256h161q124 0 182.5 -47.5zM485.5 87q36.5 11 53.5 40t17 85t-17 85t-53.5 40t-101.5 11h-146v-272h146q65 0 101.5 11z" />
    <glyph glyph-name="uni042B" unicode="&#x42b;" horiz-adv-x="814" 
d="M430.5 404.5q52.5 -19.5 79 -66t26.5 -126.5t-26.5 -126.5t-79 -66t-135.5 -19.5h-205v680h82v-256h123q83 0 135.5 -19.5zM724 680v-680h-82v680h82zM382 87q36 11 53 40t17 85t-17 85t-53 40t-102 11h-108v-272h108q66 0 102 11z" />
    <glyph glyph-name="uni0409" unicode="&#x409;" horiz-adv-x="1054" 
d="M964.5 376.5q58.5 -47.5 58.5 -164.5t-58.5 -164.5t-183.5 -47.5h-231v604h-305v-417q0 -106 -42.5 -151.5t-107.5 -45.5q-28 0 -71 8v75q28 -7 55 -7q43 0 64.5 29t21.5 107v478h467v-256h149q125 0 183.5 -47.5zM868.5 87q36.5 11 53.5 40t17 85t-17 85t-53.5 40
t-102.5 11h-134v-272h134q66 0 102.5 11z" />
    <glyph glyph-name="uni040A" unicode="&#x40a;" horiz-adv-x="1016" 
d="M879.5 404.5q52.5 -19.5 79 -66t26.5 -126.5t-26.5 -126.5t-79 -66t-135.5 -19.5h-233v309h-339v-309h-82v680h82v-295h339v295h82v-256h151q83 0 135.5 -19.5zM830.5 87q36.5 11 53.5 40t17 85t-17 85t-53.5 40t-101.5 11h-136v-272h136q65 0 101.5 11z" />
    <glyph glyph-name="uni0405" unicode="&#x405;" horiz-adv-x="563" 
d="M55 20v81q98 -35 214 -35q87 0 124 27.5t37 79.5q0 48 -18.5 72t-72.5 45l-143 56q-51 20 -82 40.5t-48 52t-17 80.5q0 64 25 101t78.5 53.5t142.5 16.5q114 0 191 -27v-78q-34 13 -83 21t-107 8q-64 0 -98.5 -8.5t-49.5 -29t-15 -59.5q0 -29 12 -46.5t34 -29.5t65 -29
l132 -52q53 -20 82.5 -43.5t42.5 -56.5t13 -83q0 -91 -55.5 -139t-189.5 -48q-132 0 -214 30z" />
    <glyph glyph-name="uni0404" unicode="&#x404;" horiz-adv-x="579" 
d="M227 590.5q-46 -21.5 -66.5 -71.5t-22.5 -141h362v-74h-362q2 -93 22 -143t66 -71.5t130 -21.5q94 0 173 27v-79q-41 -13 -91.5 -19.5t-97.5 -6.5q-106 0 -168 34t-90.5 109.5t-28.5 206.5q0 126 27.5 202t90 112t169.5 36q47 0 97.5 -6.5t91.5 -19.5v-79q-79 27 -173 27
q-83 0 -129 -21.5z" />
    <glyph glyph-name="uni042D" unicode="&#x42d;" horiz-adv-x="580" 
d="M353 590.5q46 -21.5 66.5 -71.5t22.5 -141h-362v-74h362q-2 -93 -22 -143t-66 -71.5t-130 -21.5q-94 0 -173 27v-79q41 -13 91.5 -19.5t97.5 -6.5q106 0 168 34t90.5 109.5t28.5 206.5q0 126 -27.5 202t-90 112t-169.5 36q-47 0 -97.5 -6.5t-91.5 -19.5v-79q79 27 173 27
q83 0 129 -21.5z" />
    <glyph glyph-name="uni0406" unicode="&#x406;" horiz-adv-x="262" 
d="M90 680h82v-680h-82v680z" />
    <glyph glyph-name="uni0407" unicode="&#x407;" horiz-adv-x="262" 
d="M90 680h82v-680h-82v680zM-12 862h87v-86h-87v86zM186 862h87v-86h-87v86z" />
    <glyph glyph-name="uni0408" unicode="&#x408;" horiz-adv-x="509" 
d="M433 175q0 -105 -60 -145t-169 -40q-55 0 -95 7t-63 16v80q24 -9 63.5 -17t88.5 -8q72 0 112.5 21.5t40.5 88.5v426h-292l22 76h352v-505z" />
    <glyph glyph-name="uni040B" unicode="&#x40b;" horiz-adv-x="729" 
d="M593 404q53 -46 53 -126v-278h-83v263q0 55 -36 83t-123 28q-83 0 -167 -33v-341h-82v605h-150v75h490l-20 -75h-238v-199q40 19 83.5 31.5t101.5 12.5q118 0 171 -46z" />
    <glyph glyph-name="uni042E" unicode="&#x42e;" horiz-adv-x="905" 
d="M741.5 655.5q58.5 -33.5 84.5 -109t26 -207.5q0 -131 -26 -206.5t-84.5 -109t-159.5 -33.5q-97 0 -154 30.5t-84 99t-30 186.5h-142v-306h-82v680h82v-298h143q4 115 31 181.5t83.5 96t152.5 29.5q101 0 159.5 -33.5zM693 92.5q40 24.5 57.5 82.5t17.5 164
q0 108 -16.5 166t-56 82t-113.5 24t-113.5 -24t-56 -82t-16.5 -166q0 -106 17.5 -164t57 -82.5t111.5 -24.5q71 0 111 24.5z" />
    <glyph glyph-name="uni042F" unicode="&#x42f;" horiz-adv-x="638" 
d="M31 0h95l179 267h161v-267h82v680h-231q-87 0 -141 -18.5t-82 -63t-28 -123.5q0 -91 38 -136.5t115 -60.5zM223 352q-37 10 -56 38t-19 83t19 83t56 38t103 10h140v-262h-140q-66 0 -103 10z" />
    <glyph glyph-name="uni0402" unicode="&#x402;" horiz-adv-x="687" 
d="M563.5 401.5q47.5 -20.5 70 -67t22.5 -126.5q0 -81 -19.5 -128t-64 -68.5t-120.5 -21.5q-62 0 -112 14v78q45 -14 112 -14q68 0 94.5 31t26.5 110q0 53 -12.5 81.5t-44 41t-91.5 12.5q-51 0 -99 -12.5t-86 -34.5v-297h-82v605h-153v75h490l-20 -75h-235v-230
q87 47 196 47q80 0 127.5 -20.5z" />
    <glyph glyph-name="uni0462" unicode="&#x462;" horiz-adv-x="673" 
d="M583 362q58 -45 58 -157q0 -113 -58.5 -159t-182.5 -46h-243v603h-152v77h152v150h82v-150h256l-19 -77h-237v-196h161q125 0 183 -45zM486.5 86.5q36.5 10.5 53.5 38t17 80.5t-17 80.5t-53.5 38t-101.5 10.5h-146v-258h146q65 0 101.5 10.5z" />
    <glyph glyph-name="uni0472" unicode="&#x472;" horiz-adv-x="666" 
d="M498.5 656.5q60.5 -33.5 87 -109.5t26.5 -208t-26.5 -207t-87 -108.5t-165.5 -33.5t-165.5 33.5t-87.5 109t-27 206.5q0 132 27 208t87 109.5t166 33.5q105 0 165.5 -33.5zM219 590.5q-41 -21.5 -60 -72t-22 -142.5h391q-3 92 -21.5 142.5t-59.5 72t-114 21.5t-114 -21.5
zM445 89.5q41 21.5 60 72t22 141.5h-389q3 -91 22.5 -141.5t60.5 -72t112 -21.5t112 21.5z" />
    <glyph glyph-name="uni0474" unicode="&#x474;" horiz-adv-x="682" 
d="M673 685v-78q-13 3 -27 3q-39 0 -55 -14t-30 -53l-198 -543h-99l-251 680h88l213 -596l171 489q18 61 48 89t95 28q26 0 45 -5z" />
    <glyph glyph-name="uni0492" unicode="&#x492;" horiz-adv-x="558" 
d="M192 604v-236h177v-75h-177v-293h-82v293h-89v75h89v312h421l-18 -76h-321z" />
    <glyph glyph-name="uni0496" unicode="&#x496;" horiz-adv-x="886" 
d="M886 74v-240h-81v166h-68l-275 338v-338h-82v336l-274 -336h-104l293 347l-275 333h101l259 -324v324h82v-326l261 326h100l-274 -333l230 -273h107z" />
    <glyph glyph-name="uni0498" unicode="&#x498;" horiz-adv-x="554" 
d="M460.5 291q31.5 -42 31.5 -107q0 -92 -47 -137t-146 -54v-159h-79v156q-114 3 -188 27v80q103 -32 205 -32q92 0 132.5 27t40.5 97q0 63 -34 92t-107 29h-123v72h123q73 0 107 28.5t34 91.5q0 64 -40.5 88.5t-132.5 24.5t-195 -32v80q38 12 90 19.5t105 7.5
q132 0 193.5 -42t61.5 -142q0 -64 -31.5 -105.5t-78.5 -54.5q47 -13 78.5 -55z" />
    <glyph glyph-name="uni049A" unicode="&#x49a;" horiz-adv-x="627" 
d="M627 74v-240h-81v166h-53l-321 339v-339h-82v680h82v-327l307 327h106l-320 -333l266 -273h96z" />
    <glyph glyph-name="uni049C" unicode="&#x49c;" horiz-adv-x="618" 
d="M273 310h-16v-180h-47v180h-38v-310h-82v680h82v-295h38v184h47v-184h17l219 295h106l-254 -333l272 -347h-109z" />
    <glyph glyph-name="uni04A0" unicode="&#x4a0;" horiz-adv-x="672" 
d="M561 0l-321 339v-339h-82v606h-153v74h235v-327l307 327h106l-320 -333l338 -347h-110z" />
    <glyph glyph-name="uni04A2" unicode="&#x4a2;" horiz-adv-x="729" 
d="M712 74v-240h-81v166h-102v309h-357v-309h-82v680h82v-295h357v295h82v-606h101z" />
    <glyph glyph-name="uni04A4" unicode="&#x4a4;" horiz-adv-x="944" 
d="M919 604h-308v-604h-82v309h-357v-309h-82v680h82v-295h357v295h407z" />
    <glyph glyph-name="uni04AA" unicode="&#x4aa;" horiz-adv-x="577" 
d="M220.5 587.5q-46.5 -24.5 -65 -82t-18.5 -165.5q0 -109 18.5 -166.5t65 -81.5t135.5 -24q94 0 173 27v-79q-62 -20 -147 -25v-157h-79v157q-91 6 -145.5 42t-79.5 110t-25 197q0 126 27.5 202t90 112t169.5 36q47 0 97.5 -6.5t91.5 -19.5v-79q-79 27 -173 27
q-89 0 -135.5 -24.5z" />
    <glyph glyph-name="uni04AE" unicode="&#x4ae;" horiz-adv-x="603" 
d="M260 251l-249 429h91l199 -348l200 348h91l-250 -429v-251h-82v251z" />
    <glyph glyph-name="uni04B0" unicode="&#x4b0;" horiz-adv-x="603" 
d="M364 289h122v-73h-144v-216h-82v216h-143v73h121l-227 391h91l199 -348l200 348h91z" />
    <glyph glyph-name="uni04B2" unicode="&#x4b2;" horiz-adv-x="605" 
d="M608 74v-240h-81v166h-59l-176 271l-176 -271h-94l220 335l-223 345h94l179 -281l179 281h94l-224 -345l171 -261h96z" />
    <glyph glyph-name="uni04B6" unicode="&#x4b6;" horiz-adv-x="636" 
d="M619 74v-240h-81v166h-73v274q-40 -19 -83.5 -31.5t-101.5 -12.5q-118 0 -171 46t-53 126v278h83v-263q0 -55 36 -83t123 -28q83 0 167 33v341h82v-606h72z" />
    <glyph glyph-name="uni04B8" unicode="&#x4b8;" horiz-adv-x="637" 
d="M547 680v-680h-82v274q-33 -15 -65.5 -26t-75.5 -16v-135h-48v133q-116 1 -168 47t-52 125v278h83v-263q0 -52 31 -79.5t106 -31.5v176h48v-175q68 3 141 32v341h82z" />
    <glyph glyph-name="uni04BA" unicode="&#x4ba;" horiz-adv-x="637" 
d="M90 680h82v-274q40 19 83.5 31.5t101.5 12.5q118 0 171 -46t53 -126v-278h-83v263q0 55 -36 83t-123 28q-83 0 -167 -33v-341h-82v680z" />
    <glyph glyph-name="uni04C0" unicode="&#x4c0;" horiz-adv-x="262" 
d="M90 680h82v-680h-82v680z" />
    <glyph glyph-name="uni04C1" unicode="&#x4c1;" horiz-adv-x="841" 
d="M737 0l-275 338v-338h-82v336l-274 -336h-104l293 347l-275 333h101l259 -324v324h82v-326l261 326h100l-274 -333l292 -347h-104zM289.5 813.5q-43.5 31.5 -44.5 103.5h73q2 -45 25.5 -62.5t77.5 -17.5t77.5 17.5t25.5 62.5h73q-1 -72 -44.5 -103.5t-131.5 -31.5
t-131.5 31.5z" />
    <glyph glyph-name="uni04D0" unicode="&#x4d0;" horiz-adv-x="649" 
d="M480 181h-312l-69 -181h-86l263 680h96l264 -680h-87zM453 253l-129 340l-129 -340h258zM192.5 813.5q-43.5 31.5 -44.5 103.5h73q2 -45 25.5 -62.5t77.5 -17.5t77.5 17.5t25.5 62.5h73q-1 -72 -44.5 -103.5t-131.5 -31.5t-131.5 31.5z" />
    <glyph glyph-name="uni04D2" unicode="&#x4d2;" horiz-adv-x="649" 
d="M480 181h-312l-69 -181h-86l263 680h96l264 -680h-87zM453 253l-129 340l-129 -340h258zM182 862h87v-86h-87v86zM380 862h87v-86h-87v86z" />
    <glyph glyph-name="uni04D4" unicode="&#x4d4;" horiz-adv-x="909" 
d="M855 76l-20 -76h-398v181h-269l-68 -181h-87l261 680h567v-76h-322v-221h307v-74h-307v-233h336zM437 257v347h-110l-130 -347h240z" />
    <glyph glyph-name="uni04D6" unicode="&#x4d6;" horiz-adv-x="592" 
d="M537 76l-19 -76h-428v680h434v-76h-352v-221h337v-74h-337v-233h365zM181.5 813.5q-43.5 31.5 -44.5 103.5h73q2 -45 25.5 -62.5t77.5 -17.5t77.5 17.5t25.5 62.5h73q-1 -72 -44.5 -103.5t-131.5 -31.5t-131.5 31.5z" />
    <glyph glyph-name="uni04D8" unicode="&#x4d8;" horiz-adv-x="658" 
d="M470.5 663q67.5 -27 100.5 -102t33 -222q0 -128 -25.5 -203.5t-85.5 -110.5t-167 -35q-103 0 -162 30t-86 97.5t-30 184.5v62h471q-2 109 -26 162t-72 69.5t-139 16.5q-55 0 -95 -4t-89 -12v77q93 17 183 17q122 0 189.5 -27zM440 89q40 21 57.5 69t20.5 134h-385
q3 -87 21.5 -135t59 -68.5t112.5 -20.5q74 0 114 21z" />
    <glyph glyph-name="uni04DC" unicode="&#x4dc;" horiz-adv-x="841" 
d="M737 0l-275 338v-338h-82v336l-274 -336h-104l293 347l-275 333h101l259 -324v324h82v-326l261 326h100l-274 -333l292 -347h-104zM279 862h87v-86h-87v86zM477 862h87v-86h-87v86z" />
    <glyph glyph-name="uni04DE" unicode="&#x4de;" horiz-adv-x="554" 
d="M122.5 -2.5q-53.5 7.5 -90.5 19.5v80q103 -32 205 -32q92 0 132.5 27t40.5 97q0 63 -34 92t-107 29h-123v72h123q73 0 107 28.5t34 91.5q0 64 -40.5 88.5t-132.5 24.5t-195 -32v80q38 12 90 19.5t105 7.5q132 0 193.5 -42t61.5 -142q0 -64 -31.5 -105.5t-78.5 -54.5
q47 -13 78.5 -55t31.5 -107q0 -105 -61.5 -149.5t-193.5 -44.5q-61 0 -114.5 7.5zM126 862h87v-86h-87v86zM324 862h87v-86h-87v86z" />
    <glyph glyph-name="uni04E2" unicode="&#x4e2;" horiz-adv-x="707" 
d="M536 0v543l-378 -543h-68v680h82v-545l378 545h68v-680h-82zM214 855h279v-65h-279v65z" />
    <glyph glyph-name="uni04E4" unicode="&#x4e4;" horiz-adv-x="707" 
d="M536 0v543l-378 -543h-68v680h82v-545l378 545h68v-680h-82zM211 862h87v-86h-87v86zM409 862h87v-86h-87v86z" />
    <glyph glyph-name="uni04E6" unicode="&#x4e6;" horiz-adv-x="666" 
d="M167.5 23.5q-60.5 33.5 -87.5 109t-27 206.5q0 132 27 208t87 109.5t166 33.5q105 0 165.5 -33.5t87 -109.5t26.5 -208t-26.5 -207t-87 -108.5t-165.5 -33.5t-165.5 33.5zM450.5 92q41.5 24 59.5 82t18 165q0 108 -17 166t-58.5 82.5t-119.5 24.5t-119.5 -24.5t-59 -82.5
t-17.5 -166q0 -106 18 -164.5t60 -82.5t118 -24t117.5 24zM190 862h87v-86h-87v86zM388 862h87v-86h-87v86z" />
    <glyph glyph-name="uni04E8" unicode="&#x4e8;" horiz-adv-x="666" 
d="M498.5 656.5q60.5 -33.5 87 -109.5t26.5 -208t-26.5 -207t-87 -108.5t-165.5 -33.5t-165.5 33.5t-87.5 109t-27 206.5q0 132 27 208t87 109.5t166 33.5q105 0 165.5 -33.5zM219 590.5q-41 -21.5 -60 -72t-22 -142.5h391q-3 92 -21.5 142.5t-59.5 72t-114 21.5t-114 -21.5
zM445 89.5q41 21.5 60 72t22 141.5h-389q3 -91 22.5 -141.5t60.5 -72t112 -21.5t112 21.5z" />
    <glyph glyph-name="uni04EE" unicode="&#x4ee;" horiz-adv-x="617" 
d="M177 855h279v-65h-279v65zM320 96q-22 -45 -55 -75.5t-76 -30.5q-39 0 -75 12v78q29 -11 65 -11q25 0 40.5 15t30.5 45l31 60l-249 491h91l200 -403l186 403h91z" />
    <glyph glyph-name="uni04F0" unicode="&#x4f0;" horiz-adv-x="617" 
d="M173 862h87v-86h-87v86zM371 862h87v-86h-87v86zM320 96q-22 -45 -55 -75.5t-76 -30.5q-39 0 -75 12v78q29 -11 65 -11q25 0 40.5 15t30.5 45l31 60l-249 491h91l200 -403l186 403h91z" />
    <glyph glyph-name="uni04F2" unicode="&#x4f2;" horiz-adv-x="617" 
d="M280 913h90l-104 -154h-73zM416 913h90l-104 -154h-73zM320 96q-22 -45 -55 -75.5t-76 -30.5q-39 0 -75 12v78q29 -11 65 -11q25 0 40.5 15t30.5 45l31 60l-249 491h91l200 -403l186 403h91z" />
    <glyph glyph-name="uni04F4" unicode="&#x4f4;" horiz-adv-x="637" 
d="M547 0h-82v274q-40 -19 -83.5 -31.5t-101.5 -12.5q-118 0 -171 46t-53 126v278h83v-263q0 -55 36 -83t123 -28q83 0 167 33v341h82v-680zM160 862h87v-86h-87v86zM358 862h87v-86h-87v86z" />
    <glyph glyph-name="uni04F8" unicode="&#x4f8;" horiz-adv-x="814" 
d="M430.5 404.5q52.5 -19.5 79 -66t26.5 -126.5t-26.5 -126.5t-79 -66t-135.5 -19.5h-205v680h82v-256h123q83 0 135.5 -19.5zM724 680v-680h-82v680h82zM382 87q36 11 53 40t17 85t-17 85t-53 40t-102 11h-108v-272h108q66 0 102 11zM265 862h87v-86h-87v86zM463 862h87
v-86h-87v86z" />
    <glyph glyph-name="uni0430" unicode="&#x430;" horiz-adv-x="557" 
d="M89 29q-43 39 -43 127q0 87 47 120t142 33q86 0 165 -24v89q0 52 -37 73t-113 21q-77 0 -155 -23v74q79 21 163 21q109 0 165.5 -36t56.5 -128v-376h-61l-12 38q-65 -48 -177 -48q-98 0 -141 39zM400 83v145q-68 13 -135 13q-53 0 -82.5 -7.5t-42 -25.5t-12.5 -53
q0 -38 12 -58t40.5 -28.5t81.5 -8.5q73 0 138 23z" />
    <glyph glyph-name="uni0431" unicode="&#x431;" horiz-adv-x="591" 
d="M161 19q-54 29 -79.5 98t-25.5 191q0 136 24.5 212.5t69 109.5t116.5 47l243 51v-80l-237 -47q-57 -14 -83 -36.5t-34 -55.5q-13 -48 -14 -79q36 18 85.5 28t94.5 10q82 0 130.5 -23.5t70 -73t21.5 -129.5q0 -127 -56.5 -189.5t-182.5 -62.5q-89 0 -143 29zM426 108
q36 44 36 133q0 56 -13.5 89.5t-47 49.5t-92.5 16q-52 0 -93 -6t-78 -20q-2 -32 -2 -55q0 -101 16.5 -155t53 -75t103.5 -21q81 0 117 44z" />
    <glyph glyph-name="uni0432" unicode="&#x432;" horiz-adv-x="565" 
d="M486 237q27 -30 27 -91q0 -59 -25 -91t-69 -43.5t-112 -11.5h-226v530h211q67 0 111 -10t69.5 -39t25.5 -84q0 -53 -22.5 -80.5t-64.5 -38.5q48 -11 75 -41zM161 461v-155h155q50 0 76 17t26 64q0 43 -30.5 58.5t-103.5 15.5h-123zM372 74q27 5 43.5 23.5t16.5 55.5
q0 51 -27 70t-87 19h-157v-173h138q46 0 73 5z" />
    <glyph glyph-name="uni0433" unicode="&#x433;" horiz-adv-x="462" 
d="M439 457h-278v-457h-80v530h358v-73z" />
    <glyph glyph-name="uni0453" unicode="&#x453;" horiz-adv-x="462" 
d="M439 457h-278v-457h-80v530h358v-73zM286 763h90l-104 -154h-73z" />
    <glyph glyph-name="uni0491" unicode="&#x491;" horiz-adv-x="462" 
d="M439 644v-187h-278v-457h-80v530h283v114h75z" />
    <glyph glyph-name="uni0434" unicode="&#x434;" horiz-adv-x="623" 
d="M22 71h59q31 32 45.5 80.5t14.5 114.5v264h380v-459h77v-195h-80v124h-416v-124h-80v195zM441 71v388h-222v-187q0 -72 -10.5 -117t-37.5 -84h270z" />
    <glyph glyph-name="uni0435" unicode="&#x435;" horiz-adv-x="561" 
d="M157 15.5q-53 25.5 -78 85t-25 164.5q0 141 54.5 208t178.5 67q80 0 128 -25.5t70.5 -81t22.5 -147.5q0 -11 -3 -50h-371q2 -68 18.5 -105t53 -53t101.5 -16q96 0 170 29v-74q-69 -27 -177 -27q-90 0 -143 25.5zM428 303q-1 62 -13.5 97.5t-43 52.5t-84.5 17
q-80 0 -114.5 -39.5t-38.5 -127.5h294z" />
    <glyph glyph-name="uni0450" unicode="&#x450;" horiz-adv-x="561" 
d="M157 15.5q-53 25.5 -78 85t-25 164.5q0 141 54.5 208t178.5 67q80 0 128 -25.5t70.5 -81t22.5 -147.5q0 -11 -3 -50h-371q2 -68 18.5 -105t53 -53t101.5 -16q96 0 170 29v-74q-69 -27 -177 -27q-90 0 -143 25.5zM428 303q-1 62 -13.5 97.5t-43 52.5t-84.5 17
q-80 0 -114.5 -39.5t-38.5 -127.5h294zM260 609l-104 154h90l87 -154h-73z" />
    <glyph glyph-name="uni0451" unicode="&#x451;" horiz-adv-x="561" 
d="M157 15.5q-53 25.5 -78 85t-25 164.5q0 141 54.5 208t178.5 67q80 0 128 -25.5t70.5 -81t22.5 -147.5q0 -11 -3 -50h-371q2 -68 18.5 -105t53 -53t101.5 -16q96 0 170 29v-74q-69 -27 -177 -27q-90 0 -143 25.5zM428 303q-1 62 -13.5 97.5t-43 52.5t-84.5 17
q-80 0 -114.5 -39.5t-38.5 -127.5h294zM138 712h87v-86h-87v86zM336 712h87v-86h-87v86z" />
    <glyph glyph-name="uni0436" unicode="&#x436;" horiz-adv-x="701" 
d="M596 0l-205 271v-271h-80v273l-207 -273h-98l219 278l-209 252h98l197 -247v247h80v-246l196 246h98l-209 -252l219 -278h-99z" />
    <glyph glyph-name="uni0437" unicode="&#x437;" horiz-adv-x="487" 
d="M35 11v76q89 -24 173 -24q78 0 111.5 19.5t33.5 69.5q0 45 -29 66t-92 21h-111v65h111q64 0 92.5 18t28.5 58q0 50 -33.5 68.5t-111.5 18.5q-77 0 -166 -24v76q77 21 165 21q119 0 173.5 -34t54.5 -116q0 -51 -27.5 -80.5t-67.5 -39.5q40 -9 67.5 -41t27.5 -86
q0 -83 -54.5 -118t-173.5 -35q-97 0 -172 21z" />
    <glyph glyph-name="uni0438" unicode="&#x438;" horiz-adv-x="606" 
d="M81 530h80v-405l294 405h70v-530h-80v405l-294 -405h-70v530z" />
    <glyph glyph-name="uni0439" unicode="&#x439;" horiz-adv-x="606" 
d="M81 530h80v-405l294 405h70v-530h-80v405l-294 -405h-70v530zM177.5 638.5q-43.5 31.5 -44.5 103.5h73q2 -45 25.5 -62.5t77.5 -17.5t77.5 17.5t25.5 62.5h73q-1 -72 -44.5 -103.5t-131.5 -31.5t-131.5 31.5z" />
    <glyph glyph-name="uni045D" unicode="&#x45d;" horiz-adv-x="606" 
d="M81 530h80v-405l294 405h70v-530h-80v405l-294 -405h-70v530zM276 609l-104 154h90l87 -154h-73z" />
    <glyph glyph-name="uni043A" unicode="&#x43a;" horiz-adv-x="525" 
d="M415 0l-254 273v-273h-80v530h80v-247l237 247h103l-246 -252l264 -278h-104z" />
    <glyph glyph-name="uni045C" unicode="&#x45c;" horiz-adv-x="525" 
d="M415 0l-254 273v-273h-80v530h80v-247l237 247h103l-246 -252l264 -278h-104zM319 763h90l-104 -154h-73z" />
    <glyph glyph-name="uni043B" unicode="&#x43b;" horiz-adv-x="577" 
d="M17 -3v70q18 -5 37 -5q29 0 42.5 19t13.5 62v387h386v-530h-80v458h-229v-328q0 -65 -29 -102.5t-87 -37.5q-28 0 -54 7z" />
    <glyph glyph-name="uni043C" unicode="&#x43c;" horiz-adv-x="711" 
d="M81 530h93l181 -252l180 252h95v-530h-80v429l-195 -267l-195 267v-429h-79v530z" />
    <glyph glyph-name="uni043D" unicode="&#x43d;" horiz-adv-x="600" 
d="M520 530v-530h-80v235h-279v-235h-80v530h80v-222h279v222h80z" />
    <glyph glyph-name="uni043E" unicode="&#x43e;" 
d="M114 52.5q-60 62.5 -60 212.5q0 149 60 212t185 63q124 0 184.5 -63t60.5 -212t-60.5 -212t-184.5 -63q-125 0 -185 62.5zM390 80q35 16 53.5 60t18.5 125t-18.5 125t-53.5 60t-91 16t-91 -16t-53.5 -60t-18.5 -125t18.5 -125t53.5 -60t91 -16t91 16z" />
    <glyph glyph-name="uni043F" unicode="&#x43f;" horiz-adv-x="603" 
d="M523 0h-80v457h-282v-457h-80v530h442v-530z" />
    <glyph glyph-name="uni0440" unicode="&#x440;" horiz-adv-x="605" 
d="M493 478q58 -62 58 -213q0 -147 -57 -211t-175 -64q-93 0 -158 29v-219h-80v730h80v-35q68 45 158 45q116 0 174 -62zM401.5 85q37.5 21 52.5 64.5t15 115.5t-15 116t-52.5 65t-104.5 21q-78 0 -136 -27v-356q53 -20 136 -20q67 0 104.5 21z" />
    <glyph glyph-name="uni0441" unicode="&#x441;" horiz-adv-x="517" 
d="M162 15q-55 25 -81.5 84.5t-26.5 165.5t26.5 165.5t81.5 84.5t148 25q84 0 152 -24v-76q-71 26 -147 26q-69 0 -107 -16t-55 -59t-17 -126t17 -126t55 -59t107 -16q76 0 147 26v-76q-68 -24 -152 -24q-93 0 -148 25z" />
    <glyph glyph-name="uni0442" unicode="&#x442;" horiz-adv-x="506" 
d="M480 459h-186v-459h-80v459h-197v71h472z" />
    <glyph glyph-name="uni0443" unicode="&#x443;" horiz-adv-x="527" 
d="M510 530l-173 -448q-36 -91 -93 -162.5t-155 -129.5l-38 61q126 87 170 164l-204 515h84l164 -440l158 440h87z" />
    <glyph glyph-name="uni045E" unicode="&#x45e;" horiz-adv-x="527" 
d="M510 530l-173 -448q-36 -91 -93 -162.5t-155 -129.5l-38 61q126 87 170 164l-204 515h84l164 -440l158 440h87zM132.5 638.5q-43.5 31.5 -44.5 103.5h73q2 -45 25.5 -62.5t77.5 -17.5t77.5 17.5t25.5 62.5h73q-1 -72 -44.5 -103.5t-131.5 -31.5t-131.5 31.5z" />
    <glyph glyph-name="uni0444" unicode="&#x444;" horiz-adv-x="746" 
d="M629.5 477q71.5 -63 71.5 -212t-71 -212t-218 -63v-190h-78v190q-147 0 -218 63t-71 212t71.5 212t217.5 63v180h78v-180q146 0 217.5 -63zM334 466q-70 1 -114.5 -15.5t-68.5 -60.5t-24 -125t23.5 -125t68 -60t115.5 -16v402zM527.5 80q44.5 16 68.5 60t24 125
t-24.5 125t-69 60.5t-114.5 15.5v-402q71 0 115.5 16z" />
    <glyph glyph-name="uni0445" unicode="&#x445;" horiz-adv-x="517" 
d="M212 269l-184 261h93l138 -202l138 202h92l-183 -262l192 -268h-96l-143 207l-144 -207h-96z" />
    <glyph glyph-name="uni0447" unicode="&#x447;" horiz-adv-x="555" 
d="M82.5 219.5q-43.5 40.5 -43.5 128.5v182h80v-168q0 -62 28.5 -86t99.5 -24q77 0 148 31v247h80v-530h-80v222q-25 -15 -71.5 -29t-93.5 -14q-104 0 -147.5 40.5z" />
    <glyph glyph-name="uni0446" unicode="&#x446;" horiz-adv-x="608" 
d="M583 71v-195h-80v124h-422v530h80v-457h270v457h80v-459h72z" />
    <glyph glyph-name="uni0448" unicode="&#x448;" horiz-adv-x="836" 
d="M756 530v-530h-675v530h80v-457h215v457h80v-457h220v457h80z" />
    <glyph glyph-name="uni0449" unicode="&#x449;" horiz-adv-x="854" 
d="M828 71v-195h-80v124h-667v530h80v-457h215v457h80v-457h220v457h80v-459h72z" />
    <glyph glyph-name="uni045F" unicode="&#x45f;" horiz-adv-x="603" 
d="M523 530v-530h-181v-124h-80v124h-181v530h80v-457h282v457h80z" />
    <glyph glyph-name="uni044C" unicode="&#x44c;" horiz-adv-x="543" 
d="M418.5 330.5q45.5 -13.5 71.5 -51t26 -107.5q0 -71 -26 -108.5t-71.5 -50.5t-116.5 -13h-221v530h80v-186h141q71 0 116.5 -13.5zM372.5 76.5q28.5 6.5 45.5 28.5t17 67t-17 67t-45.5 28.5t-76.5 6.5h-135v-204h135q48 0 76.5 6.5z" />
    <glyph glyph-name="uni044A" unicode="&#x44a;" horiz-adv-x="611" 
d="M485.5 330.5q45.5 -13.5 71.5 -51t26 -107.5q0 -71 -26 -108.5t-71.5 -50.5t-116.5 -13h-221v460h-139v70h219v-186h141q71 0 116.5 -13.5zM439.5 76.5q28.5 6.5 45.5 28.5t17 67t-17 67t-45.5 28.5t-76.5 6.5h-135v-204h135q48 0 76.5 6.5z" />
    <glyph glyph-name="uni044B" unicode="&#x44b;" horiz-adv-x="721" 
d="M384.5 342.5q45.5 -13.5 71 -52t25.5 -112.5q0 -102 -54 -140t-160 -38h-186v530h80v-174h106q72 0 117.5 -13.5zM641 530v-530h-80v530h80zM364.5 90.5q34.5 22.5 34.5 87.5q0 49 -16.5 72.5t-45 30.5t-77.5 7h-99v-220h99q70 0 104.5 22.5z" />
    <glyph glyph-name="uni0459" unicode="&#x459;" horiz-adv-x="847" 
d="M723 328q46 -13 71.5 -50.5t25.5 -107.5t-25.5 -107t-71.5 -50t-117 -13h-190v458h-229v-328q0 -65 -29 -102.5t-87 -37.5q-28 0 -54 7v70q18 -5 37 -5q29 0 42.5 19t13.5 62v387h386v-189h110q71 0 117 -13zM676.5 74.5q28.5 6.5 45 28.5t16.5 67t-16.5 67t-45 28.5
t-76.5 6.5h-104v-204h104q48 0 76.5 6.5z" />
    <glyph glyph-name="uni045A" unicode="&#x45a;" horiz-adv-x="850" 
d="M725.5 328q45.5 -13 71 -50.5t25.5 -107.5t-25.5 -107t-71 -50t-116.5 -13h-187v235h-261v-235h-80v530h80v-222h261v222h80v-189h107q71 0 116.5 -13zM679 74.5q29 6.5 45.5 28.5t16.5 67t-16.5 67t-45 28.5t-77.5 6.5h-100v-204h100q48 0 77 6.5z" />
    <glyph glyph-name="uni0455" unicode="&#x455;" horiz-adv-x="502" 
d="M144 -2.5q-49 7.5 -85 22.5v79q42 -18 90.5 -27.5t91.5 -9.5q51 0 79 6.5t40 23.5t12 48q0 27 -10.5 43t-29.5 25t-57 20l-89 27q-46 13 -73.5 29t-43 43.5t-15.5 73.5q0 77 48.5 108t156.5 31q44 0 88.5 -6.5t76.5 -15.5v-77q-42 14 -81 20.5t-85 6.5q-50 0 -76.5 -6
t-37 -20.5t-10.5 -42.5q0 -35 18 -49t69 -29l89 -27q51 -15 80.5 -32t45 -45.5t15.5 -75.5q0 -57 -20 -89.5t-65 -47t-125 -14.5q-48 0 -97 7.5z" />
    <glyph glyph-name="uni0454" unicode="&#x454;" horiz-adv-x="507" 
d="M162 15q-55 25 -81.5 84.5t-26.5 165.5t26.5 165.5t81.5 84.5t148 25q85 0 155 -24v-76q-71 26 -150 26q-65 0 -101.5 -13.5t-55 -49.5t-21.5 -105h259v-65h-259q3 -69 21.5 -105.5t55 -50t101.5 -13.5q79 0 150 26v-76q-70 -24 -155 -24q-93 0 -148 25z" />
    <glyph glyph-name="uni044D" unicode="&#x44d;" horiz-adv-x="504" 
d="M342 15q55 25 81.5 84.5t26.5 165.5t-26.5 165.5t-81.5 84.5t-148 25q-85 0 -155 -24v-76q71 26 150 26q65 0 101.5 -13.5t55 -49.5t21.5 -105h-259v-65h259q-3 -69 -21.5 -105.5t-55 -50t-101.5 -13.5q-79 0 -150 26v-76q70 -24 155 -24q93 0 148 25z" />
    <glyph glyph-name="uni0456" unicode="&#x456;" horiz-adv-x="238" 
d="M72 712h94v-86h-94v86zM79 530h80v-530h-80v530z" />
    <glyph glyph-name="uni0457" unicode="&#x457;" horiz-adv-x="239" 
d="M80 530h80v-530h-80v530zM-23 712h87v-86h-87v86zM175 712h87v-86h-87v86z" />
    <glyph glyph-name="uni0458" unicode="&#x458;" horiz-adv-x="243" 
d="M75 712h94v-86h-94v86zM-42 -159q51 61 76.5 102.5t36.5 83t11 100.5v403h80v-410q0 -64 -10.5 -109t-40.5 -95.5t-92 -125.5z" />
    <glyph glyph-name="uni045B" unicode="&#x45b;" horiz-adv-x="601" 
d="M81 530h77v-36q28 17 76 31.5t106 14.5q104 0 144 -38.5t40 -120.5v-381h-80v365q0 56 -27 78.5t-97 22.5q-95 0 -159 -30v-436h-80v530zM81 720h80v-720h-80v720zM2 659h332v-57h-332v57z" />
    <glyph glyph-name="uni044E" unicode="&#x44e;" horiz-adv-x="769" 
d="M613 513.5q51 -26.5 76.5 -86.5t25.5 -162t-25.5 -162t-76.5 -86.5t-133 -26.5q-115 0 -171 54.5t-62 184.5h-86v-229h-80v530h80v-229h86q6 130 62 184.5t171 54.5q82 0 133 -26.5zM568 80q33 16 49.5 59.5t16.5 125.5t-16.5 125.5t-49.5 59.5t-88 16q-54 0 -86.5 -16
t-49.5 -59.5t-17 -125.5t16.5 -125.5t49 -59.5t87.5 -16t88 16z" />
    <glyph glyph-name="uni044F" unicode="&#x44f;" horiz-adv-x="564" 
d="M484 0h-80v193h-139l-132 -193h-93l140 198q-65 10 -98 46.5t-33 115.5q0 95 54.5 132.5t158.5 37.5h222v-530zM404 259v201h-135q-69 0 -104 -21t-35 -79q0 -45 16.5 -66.5t45 -28t77.5 -6.5h135z" />
    <glyph glyph-name="uni0452" unicode="&#x452;" horiz-adv-x="601" 
d="M484 501.5q40 -38.5 40 -120.5v-467q0 -69 -32.5 -96.5t-103.5 -27.5q-28 0 -50 4.5t-46 13.5v72q46 -16 83 -16q26 0 40 3.5t21.5 15.5t7.5 38v444q0 56 -27 78.5t-97 22.5q-95 0 -159 -30v-436h-80v602h-79v57h79v61h80v-61h173v-57h-173v-106q30 17 76.5 30.5
t102.5 13.5q104 0 144 -38.5z" />
    <glyph glyph-name="uni0463" unicode="&#x463;" horiz-adv-x="572" 
d="M447.5 325q45.5 -13 71 -49.5t25.5 -106.5t-25.5 -106.5t-71 -49.5t-116.5 -13h-222v467h-95v63h95v190h80v-190h289v-63h-289v-129h142q71 0 116.5 -13zM401 74.5q29 6.5 45.5 28.5t16.5 66t-16.5 66t-45.5 28.5t-77 6.5h-135v-202h135q48 0 77 6.5z" />
    <glyph glyph-name="uni0473" unicode="&#x473;" 
d="M483.5 477q60.5 -63 60.5 -212t-60.5 -212t-184.5 -63q-125 0 -185 62.5t-60 212.5q0 149 60 212t185 63q124 0 184.5 -63zM212.5 452q-33.5 -14 -53 -51.5t-22.5 -106.5h324q-3 69 -22.5 106.5t-53 51.5t-86.5 14t-86.5 -14zM385.5 78q33.5 14 53 51.5t22.5 106.5h-324
q3 -69 22.5 -106.5t53 -51.5t86.5 -14t86.5 14z" />
    <glyph glyph-name="uni0475" unicode="&#x475;" horiz-adv-x="567" 
d="M17 530h85l163 -445l119 324q23 69 54.5 100t92.5 31q18 0 34 -3v-75q-8 1 -24 1q-25 0 -39 -8t-24 -25.5t-24 -53.5l-145 -376h-88z" />
    <glyph glyph-name="uni0493" unicode="&#x493;" horiz-adv-x="470" 
d="M169 457v-164h194v-68h-194v-225h-80v225h-75v68h75v237h358v-73h-278z" />
    <glyph glyph-name="uni0497" unicode="&#x497;" horiz-adv-x="731" 
d="M733 71v-195h-80v124h-57l-205 271v-271h-80v273l-207 -273h-98l219 278l-209 252h98l197 -247v247h80v-246l196 246h98l-209 -252l163 -207h94z" />
    <glyph glyph-name="uni0499" unicode="&#x499;" horiz-adv-x="487" 
d="M407.5 229q27.5 -32 27.5 -86q0 -71 -39.5 -106.5t-123.5 -43.5v-117h-80v114q-86 1 -157 21v76q89 -24 173 -24q78 0 111.5 19.5t33.5 69.5q0 45 -29 66t-92 21h-111v65h111q64 0 92.5 18t28.5 58q0 50 -33.5 68.5t-111.5 18.5q-77 0 -166 -24v76q77 21 165 21
q119 0 173.5 -34t54.5 -116q0 -51 -27.5 -80.5t-67.5 -39.5q40 -9 67.5 -41z" />
    <glyph glyph-name="uni049B" unicode="&#x49b;" horiz-adv-x="542" 
d="M539 71v-195h-80v124h-44l-254 273v-273h-80v530h80v-247l237 247h103l-246 -252l197 -207h87z" />
    <glyph glyph-name="uni049D" unicode="&#x49d;" horiz-adv-x="541" 
d="M264 242h-19v-126h-45v126h-39v-242h-80v530h80v-219h39v130h45v-130h17l161 219h93l-185 -253l204 -277h-98z" />
    <glyph glyph-name="uni04A1" unicode="&#x4a1;" horiz-adv-x="593" 
d="M483 0l-254 273v-273h-80v460h-140v70h220v-247l237 247h103l-246 -252l264 -278h-104z" />
    <glyph glyph-name="uni04A3" unicode="&#x4a3;" horiz-adv-x="615" 
d="M590 71v-195h-80v124h-70v235h-279v-235h-80v530h80v-222h279v222h80v-459h70z" />
    <glyph glyph-name="uni04A5" unicode="&#x4a5;" horiz-adv-x="766" 
d="M781 459h-261v-459h-80v235h-279v-235h-80v530h80v-222h279v222h341v-71z" />
    <glyph glyph-name="uni04AB" unicode="&#x4ab;" horiz-adv-x="517" 
d="M208 450q-38 -16 -55 -59t-17 -126t17 -126t55 -59t107 -16q76 0 147 26v-76q-54 -19 -119 -23v-115h-80v116q-75 6 -120.5 33.5t-67 85.5t-21.5 154q0 106 26.5 165.5t81.5 84.5t148 25q84 0 152 -24v-76q-71 26 -147 26q-69 0 -107 -16z" />
    <glyph glyph-name="uni04AF" unicode="&#x4af;" horiz-adv-x="529" 
d="M305 8v-208h-80v208l-208 522h86l162 -429l161 429h86z" />
    <glyph glyph-name="uni04B1" unicode="&#x4b1;" horiz-adv-x="529" 
d="M328 66h126v-66h-149v-200h-80v200h-149v66h126l-185 464h86l162 -429l161 429h86z" />
    <glyph glyph-name="uni04B3" unicode="&#x4b3;" horiz-adv-x="518" 
d="M524 71v-195h-80v124h-42l-143 207l-144 -207h-96l193 269l-184 261h93l138 -202l138 202h92l-183 -262l141 -197h77z" />
    <glyph glyph-name="uni04B7" unicode="&#x4b7;" horiz-adv-x="588" 
d="M563 71v-195h-80v124h-88v222q-25 -15 -71.5 -29t-93.5 -14q-104 0 -147.5 40.5t-43.5 128.5v182h80v-168q0 -62 28.5 -86t99.5 -24q77 0 148 31v247h80v-459h88z" />
    <glyph glyph-name="uni04B9" unicode="&#x4b9;" horiz-adv-x="555" 
d="M475 530v-530h-80v222q-18 -10 -48 -21.5t-64 -16.5v-109h-46v104h-7q-104 0 -147.5 40.5t-43.5 128.5v182h80v-168q0 -60 26.5 -84t91.5 -26v116h46v-114q54 4 112 29v247h80z" />
    <glyph glyph-name="uni04BB" unicode="&#x4bb;" horiz-adv-x="601" 
d="M81 530h77v-36q28 17 76 31.5t106 14.5q104 0 144 -38.5t40 -120.5v-381h-80v365q0 56 -27 78.5t-97 22.5q-95 0 -159 -30v-436h-80v530zM81 720h80v-720h-80v720z" />
    <glyph glyph-name="uni04CF" unicode="&#x4cf;" horiz-adv-x="241" 
d="M81 720h80v-720h-80v720z" />
    <glyph glyph-name="uni04C2" unicode="&#x4c2;" horiz-adv-x="701" 
d="M218.5 638.5q-43.5 31.5 -44.5 103.5h73q2 -45 25.5 -62.5t77.5 -17.5t77.5 17.5t25.5 62.5h73q-1 -72 -44.5 -103.5t-131.5 -31.5t-131.5 31.5zM596 0l-205 271v-271h-80v273l-207 -273h-98l219 278l-209 252h98l197 -247v247h80v-246l196 246h98l-209 -252l219 -278
h-99z" />
    <glyph glyph-name="uni04D1" unicode="&#x4d1;" horiz-adv-x="557" 
d="M89 29q-43 39 -43 127q0 87 47 120t142 33q86 0 165 -24v89q0 52 -37 73t-113 21q-77 0 -155 -23v74q79 21 163 21q109 0 165.5 -36t56.5 -128v-376h-61l-12 38q-65 -48 -177 -48q-98 0 -141 39zM400 83v145q-68 13 -135 13q-53 0 -82.5 -7.5t-42 -25.5t-12.5 -53
q0 -38 12 -58t40.5 -28.5t81.5 -8.5q73 0 138 23zM152.5 638.5q-43.5 31.5 -44.5 103.5h73q2 -45 25.5 -62.5t77.5 -17.5t77.5 17.5t25.5 62.5h73q-1 -72 -44.5 -103.5t-131.5 -31.5t-131.5 31.5z" />
    <glyph glyph-name="uni04D3" unicode="&#x4d3;" horiz-adv-x="557" 
d="M89 29q-43 39 -43 127q0 87 47 120t142 33q86 0 165 -24v89q0 52 -37 73t-113 21q-77 0 -155 -23v74q79 21 163 21q109 0 165.5 -36t56.5 -128v-376h-61l-12 38q-65 -48 -177 -48q-98 0 -141 39zM400 83v145q-68 13 -135 13q-53 0 -82.5 -7.5t-42 -25.5t-12.5 -53
q0 -38 12 -58t40.5 -28.5t81.5 -8.5q73 0 138 23zM132 712h87v-86h-87v86zM330 712h87v-86h-87v86z" />
    <glyph glyph-name="uni04D5" unicode="&#x4d5;" horiz-adv-x="843" 
d="M787 237h-339q1 -69 15.5 -106.5t48 -53t93.5 -15.5q89 0 158 29v-74q-27 -11 -71 -19t-93 -8q-63 0 -105.5 14.5t-70.5 46.5q-77 -61 -193 -61q-98 0 -141 38.5t-43 124.5q0 83 52 116t154 33h116v53q0 113 -125 113q-68 0 -149 -25v73q37 12 72 18t79 6q63 0 107.5 -22
t60.5 -68q42 90 172 90q74 0 118.5 -25.5t65.5 -81t21 -147.5q0 -16 -3 -49zM710 302q-1 63 -12 99t-38 52.5t-76 16.5q-136 0 -136 -130v-38h262zM393 100q-22 50 -25 138h-93q-58 0 -89 -7.5t-44 -25.5t-13 -53q0 -52 25.5 -72.5t87.5 -20.5q77 0 151 41z" />
    <glyph glyph-name="uni04D7" unicode="&#x4d7;" horiz-adv-x="561" 
d="M157 15.5q-53 25.5 -78 85t-25 164.5q0 141 54.5 208t178.5 67q80 0 128 -25.5t70.5 -81t22.5 -147.5q0 -11 -3 -50h-371q2 -68 18.5 -105t53 -53t101.5 -16q96 0 170 29v-74q-69 -27 -177 -27q-90 0 -143 25.5zM428 303q-1 62 -13.5 97.5t-43 52.5t-84.5 17
q-80 0 -114.5 -39.5t-38.5 -127.5h294zM149.5 638.5q-43.5 31.5 -44.5 103.5h73q2 -45 25.5 -62.5t77.5 -17.5t77.5 17.5t25.5 62.5h73q-1 -72 -44.5 -103.5t-131.5 -31.5t-131.5 31.5z" />
    <glyph glyph-name="uni04D9" unicode="&#x4d9;" horiz-adv-x="561" 
d="M404 514.5q53 -25.5 78 -85t25 -164.5q0 -141 -54.5 -208t-178.5 -67q-80 0 -128 25.5t-70.5 81t-22.5 147.5q0 11 3 50h371q-2 68 -18.5 105t-53 53t-101.5 16q-96 0 -170 -29v74q69 27 177 27q90 0 143 -25.5zM133 227q1 -62 13.5 -97.5t43 -52.5t84.5 -17
q80 0 114.5 39.5t38.5 127.5h-294z" />
    <glyph glyph-name="uni04DD" unicode="&#x4dd;" horiz-adv-x="701" 
d="M596 0l-205 271v-271h-80v273l-207 -273h-98l219 278l-209 252h98l197 -247v247h80v-246l196 246h98l-209 -252l219 -278h-99zM208 712h87v-86h-87v86zM406 712h87v-86h-87v86z" />
    <glyph glyph-name="uni04DF" unicode="&#x4df;" horiz-adv-x="487" 
d="M35 11v76q89 -24 173 -24q78 0 111.5 19.5t33.5 69.5q0 45 -29 66t-92 21h-111v65h111q64 0 92.5 18t28.5 58q0 50 -33.5 68.5t-111.5 18.5q-77 0 -166 -24v76q77 21 165 21q119 0 173.5 -34t54.5 -116q0 -51 -27.5 -80.5t-67.5 -39.5q40 -9 67.5 -41t27.5 -86
q0 -83 -54.5 -118t-173.5 -35q-97 0 -172 21zM96 712h87v-86h-87v86zM294 712h87v-86h-87v86z" />
    <glyph glyph-name="uni04E3" unicode="&#x4e3;" horiz-adv-x="606" 
d="M81 530h80v-405l294 405h70v-530h-80v405l-294 -405h-70v530zM164 705h279v-65h-279v65z" />
    <glyph glyph-name="uni04E5" unicode="&#x4e5;" horiz-adv-x="606" 
d="M81 530h80v-405l294 405h70v-530h-80v405l-294 -405h-70v530zM161 712h87v-86h-87v86zM359 712h87v-86h-87v86z" />
    <glyph glyph-name="uni04E7" unicode="&#x4e7;" 
d="M114 52.5q-60 62.5 -60 212.5q0 149 60 212t185 63q124 0 184.5 -63t60.5 -212t-60.5 -212t-184.5 -63q-125 0 -185 62.5zM390 80q35 16 53.5 60t18.5 125t-18.5 125t-53.5 60t-91 16t-91 -16t-53.5 -60t-18.5 -125t18.5 -125t53.5 -60t91 -16t91 16zM156 712h87v-86h-87
v86zM354 712h87v-86h-87v86z" />
    <glyph glyph-name="uni04E9" unicode="&#x4e9;" 
d="M483.5 477q60.5 -63 60.5 -212t-60.5 -212t-184.5 -63q-125 0 -185 62.5t-60 212.5q0 149 60 212t185 63q124 0 184.5 -63zM212.5 452q-33.5 -14 -53 -51.5t-22.5 -106.5h324q-3 69 -22.5 106.5t-53 51.5t-86.5 14t-86.5 -14zM385.5 78q33.5 14 53 51.5t22.5 106.5h-324
q3 -69 22.5 -106.5t53 -51.5t86.5 -14t86.5 14z" />
    <glyph glyph-name="uni04EF" unicode="&#x4ef;" horiz-adv-x="527" 
d="M510 530l-173 -448q-36 -91 -93 -162.5t-155 -129.5l-38 61q126 87 170 164l-204 515h84l164 -440l158 440h87zM124 705h279v-65h-279v65z" />
    <glyph glyph-name="uni04F1" unicode="&#x4f1;" horiz-adv-x="527" 
d="M510 530l-173 -448q-36 -91 -93 -162.5t-155 -129.5l-38 61q126 87 170 164l-204 515h84l164 -440l158 440h87zM121 712h87v-86h-87v86zM319 712h87v-86h-87v86z" />
    <glyph glyph-name="uni04F3" unicode="&#x4f3;" horiz-adv-x="527" 
d="M510 530l-173 -448q-36 -91 -93 -162.5t-155 -129.5l-38 61q126 87 170 164l-204 515h84l164 -440l158 440h87zM245 763h90l-104 -154h-73zM381 763h90l-104 -154h-73z" />
    <glyph glyph-name="uni04F5" unicode="&#x4f5;" horiz-adv-x="555" 
d="M82.5 219.5q-43.5 40.5 -43.5 128.5v182h80v-168q0 -62 28.5 -86t99.5 -24q77 0 148 31v247h80v-530h-80v222q-25 -15 -71.5 -29t-93.5 -14q-104 0 -147.5 40.5zM114 712h87v-86h-87v86zM312 712h87v-86h-87v86z" />
    <glyph glyph-name="uni04F9" unicode="&#x4f9;" horiz-adv-x="721" 
d="M384.5 342.5q45.5 -13.5 71 -52t25.5 -112.5q0 -102 -54 -140t-160 -38h-186v530h80v-174h106q72 0 117.5 -13.5zM641 530v-530h-80v530h80zM364.5 90.5q34.5 22.5 34.5 87.5q0 49 -16.5 72.5t-45 30.5t-77.5 7h-99v-220h99q70 0 104.5 22.5zM206 712h87v-86h-87v86z
M404 712h87v-86h-87v86z" />
    <glyph glyph-name="uni0394" unicode="&#x394;" horiz-adv-x="622" 
d="M610 0h-597l248 680h100zM494 76l-182 520l-183 -520h365z" />
    <glyph glyph-name="uni03A9" unicode="&#x3a9;" horiz-adv-x="667" 
d="M60 76h108q-50 48 -81 121.5t-31 168.5q0 120 25.5 189.5t85.5 102t167 32.5t166.5 -32.5t85 -102.5t25.5 -189q0 -95 -31 -168.5t-81 -121.5h108v-76h-202v69q57 48 89 125t32 172q0 94 -16.5 146.5t-57.5 76t-118 23.5t-118.5 -23.5t-58 -76t-16.5 -146.5
q0 -95 32 -172t89 -125v-69h-202v76z" />
    <glyph glyph-name="uni03BC" unicode="&#x3bc;" horiz-adv-x="600" 
d="M520 530v-530h-65l-10 37q-68 -47 -157 -47q-42 0 -77.5 12t-49.5 32v-234h-80v730h80v-385q0 -35 36 -58t90 -23q48 0 84 9t69 24v433h80z" />
    <glyph glyph-name="pi" unicode="&#x3c0;" horiz-adv-x="632" 
d="M596 73v-72q-36 -11 -82 -11q-67 0 -99.5 27.5t-32.5 97.5v345h-191v-460h-80v460h-97v70h558v-70h-110v-336q0 -37 17 -49t48 -12q32 0 69 10z" />
    <glyph glyph-name="zero" unicode="0" horiz-adv-x="600" 
d="M150.5 23q-54.5 33 -78.5 108.5t-24 208.5t24 208.5t78.5 108.5t148.5 33t148 -32.5t78 -108t24 -209.5t-24 -209.5t-78 -108t-148 -32.5t-148.5 33zM399.5 90q35.5 24 51.5 82.5t16 167.5t-16 167.5t-51.5 82.5t-100.5 24t-101 -24t-52 -82.5t-16 -167.5t16 -167.5
t52 -82.5t101 -24t100.5 24z" />
    <glyph glyph-name="one" unicode="1" horiz-adv-x="600" 
d="M520 74v-74h-406v74h172v524l-175 -32v74l255 50v-616h154z" />
    <glyph glyph-name="two" unicode="2" horiz-adv-x="600" 
d="M79 73l299 288q28 27 41.5 44t21.5 40t8 56q0 45 -16.5 69.5t-52 34t-97.5 9.5q-50 0 -100 -10t-88 -22v79q33 11 87 20t115 9q121 0 177.5 -39.5t56.5 -139.5q0 -49 -11 -82.5t-28 -55t-46 -49.5l-256 -248h345l-15 -76h-441v73z" />
    <glyph glyph-name="three" unicode="3" horiz-adv-x="600" 
d="M489 349q48 -48 48 -147q0 -110 -62.5 -161t-192.5 -51q-60 0 -114.5 7.5t-91.5 19.5v80q101 -32 207 -32q90 0 131 33t41 105q0 69 -33.5 99t-107.5 30q-58 0 -97 -4l-25 62l211 217h-318v73h406l24 -65l-217 -220q28 2 41 2q102 0 150 -48z" />
    <glyph glyph-name="four" unicode="4" horiz-adv-x="600" 
d="M533 397v-397h-80v150h-394v64l313 466h91l-307 -458h297v175h80z" />
    <glyph glyph-name="five" unicode="5" horiz-adv-x="600" 
d="M476.5 368q58.5 -47 58.5 -164t-62 -165.5t-187 -48.5q-61 0 -115 8.5t-87 21.5v79q97 -34 203 -34q85 0 125.5 29.5t40.5 109.5q0 55 -18 85t-54 41.5t-96 11.5q-96 0 -186 -9v347h396v-73h-316v-198q62 6 121 6q118 0 176.5 -47z" />
    <glyph glyph-name="six" unicode="6" horiz-adv-x="600" 
d="M118 63.5q-54 73.5 -54 205.5q0 193 105.5 287t268.5 134l23 -71q-82 -22 -140.5 -48.5t-102 -71.5t-60.5 -113q78 40 173 40q216 0 216 -215q0 -101 -58.5 -161t-182.5 -60q-134 0 -188 73.5zM465 210q0 73 -34.5 110t-110.5 37q-91 0 -171 -36q-4 -26 -4 -54
q0 -105 36.5 -154t125.5 -49q158 0 158 146z" />
    <glyph glyph-name="seven" unicode="7" horiz-adv-x="600" 
d="M518 680v-147q0 -35 -15 -64t-37 -52t-61 -57q-45 -39 -72 -68t-46 -68.5t-19 -89.5v-134h-80v134q0 65 22.5 114.5t53.5 83t80 75.5q48 42 71 70t23 62v68h-369v73h449z" />
    <glyph glyph-name="eight" unicode="8" horiz-adv-x="600" 
d="M106.5 38.5q-58.5 48.5 -58.5 145.5q0 145 132 174q-54 23 -80 59.5t-26 100.5q0 88 55 130t171 42t171 -42t55 -130q0 -64 -26 -100.5t-80 -59.5q132 -29 132 -174q0 -97 -58.5 -145.5t-193.5 -48.5t-193.5 48.5zM408.5 421q36.5 28 36.5 92q0 55 -34 80t-111 25
t-111 -25t-34 -80q0 -64 36.5 -92t108.5 -30q72 2 108.5 30zM429.5 93.5q40.5 30.5 40.5 94.5q0 72 -43 101.5t-127 29.5t-127 -29.5t-43 -101.5q0 -64 40.5 -94.5t129.5 -30.5t129.5 30.5z" />
    <glyph glyph-name="nine" unicode="9" horiz-adv-x="600" 
d="M481 616.5q54 -73.5 54 -205.5q0 -193 -105.5 -287t-268.5 -134l-23 71q82 22 140.5 48.5t102 71.5t60.5 113q-78 -40 -173 -40q-216 0 -216 215q0 101 58.5 161t182.5 60q134 0 188 -73.5zM134 470q0 -73 34.5 -110t110.5 -37q91 0 171 36q4 26 4 54q0 105 -36.5 154
t-125.5 49q-158 0 -158 -146z" />
    <glyph glyph-name="uni2080" unicode="&#x2080;" horiz-adv-x="352" 
d="M59.5 -87.5q-34.5 46.5 -34.5 156.5q0 75 15 119.5t48 65t89 20.5t88.5 -20.5t47 -65t14.5 -119.5q0 -74 -14.5 -118t-47 -64.5t-88.5 -20.5q-83 0 -117.5 46.5zM230 -60q18 12 25.5 42t7.5 88q0 57 -7.5 87t-26 42.5t-52.5 12.5t-53 -12.5t-27 -42.5t-8 -87t8.5 -87.5
t27.5 -42.5t52 -12q35 0 53 12z" />
    <glyph glyph-name="uni2081" unicode="&#x2081;" horiz-adv-x="352" 
d="M290 -66v-58h-227v58h85v265l-84 -16v61l148 30v-340h78z" />
    <glyph glyph-name="uni2082" unicode="&#x2082;" horiz-adv-x="352" 
d="M37 -80l153 146q30 29 43 47.5t13 44.5q0 31 -20 43t-65 12q-54 0 -116 -20v61q60 20 121 20q71 0 107.5 -24.5t36.5 -87.5q0 -41 -14.5 -65.5t-54.5 -62.5l-99 -97h168l-12 -61h-261v44z" />
    <glyph glyph-name="uni2083" unicode="&#x2083;" horiz-adv-x="352" 
d="M276.5 76q32.5 -26 32.5 -86q0 -67 -37.5 -95.5t-113.5 -28.5q-70 0 -121 15v62q37 -8 61.5 -12.5t58.5 -4.5q46 0 67 14.5t21 48.5t-18 47t-55 13q-30 0 -56 -3l-28 53l117 104h-158v61h241l15 -44l-132 -119q4 1 13 1q60 0 92.5 -26z" />
    <glyph glyph-name="uni2084" unicode="&#x2084;" horiz-adv-x="352" 
d="M303 93v-217h-64v78h-199v50l160 260h72l-153 -252h120v81h64z" />
    <glyph glyph-name="uni2085" unicode="&#x2085;" horiz-adv-x="352" 
d="M280.5 93q33.5 -28 33.5 -97q0 -68 -37 -99t-112 -31q-36 0 -67.5 5.5t-52.5 12.5v61l20 -4q60 -15 100 -15q43 0 64 15.5t21 55.5q0 39 -19.5 53.5t-66.5 14.5q-43 0 -74.5 -3.5t-39.5 -4.5v207h239v-61h-176v-86q32 4 66 4q68 0 101.5 -28z" />
    <glyph glyph-name="uni2086" unicode="&#x2086;" horiz-adv-x="352" 
d="M67 -91q-30 43 -30 117q0 104 63.5 162.5t152.5 84.5l19 -59q-74 -27 -106.5 -47.5t-52.5 -61.5q4 1 15.5 5t27 6.5t35.5 2.5q126 0 126 -125q0 -58 -34.5 -93t-105.5 -35q-80 0 -110 43zM254 -6q0 36 -15.5 54t-53.5 18q-27 0 -44.5 -4.5t-38.5 -12.5q-2 -14 -2 -27
q0 -51 17.5 -75t61.5 -24q75 0 75 71z" />
    <glyph glyph-name="uni2087" unicode="&#x2087;" horiz-adv-x="352" 
d="M310 264v-84q0 -27 -16 -48.5t-49 -50.5q-38 -33 -58 -61t-20 -68v-76h-63v76q0 56 24 90.5t66 70.5q27 23 39 37.5t12 32.5v21h-200v60h265z" />
    <glyph glyph-name="uni2088" unicode="&#x2088;" horiz-adv-x="352" 
d="M31 -18q0 77 73 101q-25 9 -41 30.5t-16 54.5q0 53 31.5 78.5t97.5 25.5t97.5 -25.5t31.5 -78.5q0 -33 -16 -54.5t-41 -30.5q73 -24 73 -101q0 -116 -145 -116t-145 116zM244 165q0 27 -16 39.5t-52 12.5t-52 -12.5t-16 -39.5q0 -53 68 -53t68 53zM237.5 -61
q19.5 16 19.5 49q0 34 -22 50t-59 16t-59 -16t-22 -50q0 -33 19.5 -49t61.5 -16t61.5 16z" />
    <glyph glyph-name="uni2089" unicode="&#x2089;" horiz-adv-x="352" 
d="M285 230q30 -43 30 -117q0 -104 -63.5 -162.5t-152.5 -84.5l-19 59q74 27 106.5 47.5t52.5 61.5q-4 -1 -15.5 -5t-27 -6.5t-35.5 -2.5q-126 0 -126 125q0 59 35 93.5t105 34.5q80 0 110 -43zM98 145q0 -36 15.5 -54t53.5 -18q27 0 44.5 4.5t38.5 12.5q2 14 2 27
q0 51 -17.5 75t-61.5 24q-75 0 -75 -71z" />
    <glyph glyph-name="zero.dnom" horiz-adv-x="352" 
d="M59.5 36.5q-34.5 46.5 -34.5 156.5q0 75 15 119.5t48 65t89 20.5t88.5 -20.5t47 -65t14.5 -119.5q0 -74 -14.5 -118t-47 -64.5t-88.5 -20.5q-83 0 -117.5 46.5zM230 64q18 12 25.5 42t7.5 88q0 57 -7.5 87t-26 42.5t-52.5 12.5t-53 -12.5t-27 -42.5t-8 -87t8.5 -87.5
t27.5 -42.5t52 -12q35 0 53 12z" />
    <glyph glyph-name="one.dnom" horiz-adv-x="352" 
d="M290 58v-58h-227v58h85v265l-84 -16v61l148 30v-340h78z" />
    <glyph glyph-name="two.dnom" horiz-adv-x="352" 
d="M37 44l153 146q30 29 43 47.5t13 44.5q0 31 -20 43t-65 12q-54 0 -116 -20v61q60 20 121 20q71 0 107.5 -24.5t36.5 -87.5q0 -41 -14.5 -65.5t-54.5 -62.5l-99 -97h168l-12 -61h-261v44z" />
    <glyph glyph-name="three.dnom" horiz-adv-x="352" 
d="M276.5 200q32.5 -26 32.5 -86q0 -67 -37.5 -95.5t-113.5 -28.5q-70 0 -121 15v62q37 -8 61.5 -12.5t58.5 -4.5q46 0 67 14.5t21 48.5t-18 47t-55 13q-30 0 -56 -3l-28 53l117 104h-158v61h241l15 -44l-132 -119q4 1 13 1q60 0 92.5 -26z" />
    <glyph glyph-name="four.dnom" horiz-adv-x="352" 
d="M303 217v-217h-64v78h-199v50l160 260h72l-153 -252h120v81h64z" />
    <glyph glyph-name="five.dnom" horiz-adv-x="352" 
d="M280.5 217q33.5 -28 33.5 -97q0 -68 -37 -99t-112 -31q-36 0 -67.5 5.5t-52.5 12.5v61l20 -4q60 -15 100 -15q43 0 64 15.5t21 55.5q0 39 -19.5 53.5t-66.5 14.5q-43 0 -74.5 -3.5t-39.5 -4.5v207h239v-61h-176v-86q32 4 66 4q68 0 101.5 -28z" />
    <glyph glyph-name="six.dnom" horiz-adv-x="352" 
d="M67 33q-30 43 -30 117q0 104 63.5 162.5t152.5 84.5l19 -59q-74 -27 -106.5 -47.5t-52.5 -61.5q4 1 15.5 5t27 6.5t35.5 2.5q126 0 126 -125q0 -58 -34.5 -93t-105.5 -35q-80 0 -110 43zM254 118q0 36 -15.5 54t-53.5 18q-27 0 -44.5 -4.5t-38.5 -12.5q-2 -14 -2 -27
q0 -51 17.5 -75t61.5 -24q75 0 75 71z" />
    <glyph glyph-name="seven.dnom" horiz-adv-x="352" 
d="M310 388v-84q0 -27 -16 -48.5t-49 -50.5q-38 -33 -58 -61t-20 -68v-76h-63v76q0 56 24 90.5t66 70.5q27 23 39 37.5t12 32.5v21h-200v60h265z" />
    <glyph glyph-name="eight.dnom" horiz-adv-x="352" 
d="M31 106q0 77 73 101q-25 9 -41 30.5t-16 54.5q0 53 31.5 78.5t97.5 25.5t97.5 -25.5t31.5 -78.5q0 -33 -16 -54.5t-41 -30.5q73 -24 73 -101q0 -116 -145 -116t-145 116zM244 289q0 27 -16 39.5t-52 12.5t-52 -12.5t-16 -39.5q0 -53 68 -53t68 53zM237.5 63
q19.5 16 19.5 49q0 34 -22 50t-59 16t-59 -16t-22 -50q0 -33 19.5 -49t61.5 -16t61.5 16z" />
    <glyph glyph-name="nine.dnom" horiz-adv-x="352" 
d="M285 354q30 -43 30 -117q0 -104 -63.5 -162.5t-152.5 -84.5l-19 59q74 27 106.5 47.5t52.5 61.5q-4 -1 -15.5 -5t-27 -6.5t-35.5 -2.5q-126 0 -126 125q0 59 35 93.5t105 34.5q80 0 110 -43zM98 269q0 -36 15.5 -54t53.5 -18q27 0 44.5 4.5t38.5 12.5q2 14 2 27
q0 51 -17.5 75t-61.5 24q-75 0 -75 -71z" />
    <glyph glyph-name="zero.numr" horiz-adv-x="352" 
d="M59.5 328.5q-34.5 46.5 -34.5 156.5q0 75 15 119.5t48 65t89 20.5t88.5 -20.5t47 -65t14.5 -119.5q0 -74 -14.5 -118t-47 -64.5t-88.5 -20.5q-83 0 -117.5 46.5zM230 356q18 12 25.5 42t7.5 88q0 57 -7.5 87t-26 42.5t-52.5 12.5t-53 -12.5t-27 -42.5t-8 -87t8.5 -87.5
t27.5 -42.5t52 -12q35 0 53 12z" />
    <glyph glyph-name="one.numr" horiz-adv-x="352" 
d="M290 350v-58h-227v58h85v265l-84 -16v61l148 30v-340h78z" />
    <glyph glyph-name="two.numr" horiz-adv-x="352" 
d="M37 336l153 146q30 29 43 47.5t13 44.5q0 31 -20 43t-65 12q-54 0 -116 -20v61q60 20 121 20q71 0 107.5 -24.5t36.5 -87.5q0 -41 -14.5 -65.5t-54.5 -62.5l-99 -97h168l-12 -61h-261v44z" />
    <glyph glyph-name="three.numr" horiz-adv-x="352" 
d="M276.5 492q32.5 -26 32.5 -86q0 -67 -37.5 -95.5t-113.5 -28.5q-70 0 -121 15v62q37 -8 61.5 -12.5t58.5 -4.5q46 0 67 14.5t21 48.5t-18 47t-55 13q-31 0 -56 -3l-28 53l117 104h-158v61h241l15 -44l-132 -119q4 1 13 1q60 0 92.5 -26z" />
    <glyph glyph-name="four.numr" horiz-adv-x="352" 
d="M303 509v-217h-64v78h-199v50l160 260h72l-153 -252h120v81h64z" />
    <glyph glyph-name="five.numr" horiz-adv-x="352" 
d="M280.5 509q33.5 -28 33.5 -97q0 -68 -37 -99t-112 -31q-36 0 -67.5 5.5t-52.5 12.5v61l20 -4q60 -15 100 -15q43 0 64 15.5t21 55.5q0 39 -19.5 53.5t-66.5 14.5q-43 0 -74.5 -3.5t-39.5 -4.5v207h239v-61h-176v-86q32 4 66 4q68 0 101.5 -28z" />
    <glyph glyph-name="six.numr" horiz-adv-x="352" 
d="M67 326q-30 43 -30 117q0 104 63.5 162.5t152.5 84.5l19 -59q-74 -27 -106.5 -47.5t-52.5 -61.5q4 1 15.5 5t27 6.5t35.5 2.5q126 0 126 -125q0 -58 -34.5 -93t-105.5 -35q-80 0 -110 43zM254 411q0 36 -15.5 54t-53.5 18q-27 0 -44.5 -4.5t-38.5 -12.5q-2 -14 -2 -27
q0 -51 17.5 -75t61.5 -24q75 0 75 71z" />
    <glyph glyph-name="seven.numr" horiz-adv-x="352" 
d="M310 680v-84q0 -27 -16 -48.5t-49 -50.5q-38 -33 -58 -61t-20 -68v-76h-63v76q0 56 24 90.5t66 70.5q27 23 39 37.5t12 32.5v21h-200v60h265z" />
    <glyph glyph-name="eight.numr" horiz-adv-x="352" 
d="M31 400q0 77 73 101q-25 9 -41 30.5t-16 54.5q0 53 31.5 78.5t97.5 25.5t97.5 -25.5t31.5 -78.5q0 -33 -16 -54.5t-41 -30.5q73 -24 73 -101q0 -116 -145 -116t-145 116zM244 583q0 27 -16 39.5t-52 12.5t-52 -12.5t-16 -39.5q0 -53 68 -53t68 53zM237.5 357
q19.5 16 19.5 49q0 34 -22 50t-59 16t-59 -16t-22 -50q0 -33 19.5 -49t61.5 -16t61.5 16z" />
    <glyph glyph-name="nine.numr" horiz-adv-x="352" 
d="M285 647q30 -43 30 -117q0 -104 -63.5 -162.5t-152.5 -84.5l-19 59q74 27 106.5 47.5t52.5 61.5q-4 -1 -15.5 -5t-27 -6.5t-35.5 -2.5q-126 0 -126 125q0 59 35 93.5t105 34.5q80 0 110 -43zM98 562q0 -36 15.5 -54t53.5 -18q27 0 44.5 4.5t38.5 12.5q2 14 2 27
q0 51 -17.5 75t-61.5 24q-75 0 -75 -71z" />
    <glyph glyph-name="uni2070" unicode="&#x2070;" horiz-adv-x="352" 
d="M59.5 328.5q-34.5 46.5 -34.5 156.5q0 75 15 119.5t48 65t89 20.5t88.5 -20.5t47 -65t14.5 -119.5q0 -74 -14.5 -118t-47 -64.5t-88.5 -20.5q-83 0 -117.5 46.5zM230 356q18 12 25.5 42t7.5 88q0 57 -7.5 87t-26 42.5t-52.5 12.5t-53 -12.5t-27 -42.5t-8 -87t8.5 -87.5
t27.5 -42.5t52 -12q35 0 53 12z" />
    <glyph glyph-name="uni00B9" unicode="&#xb9;" horiz-adv-x="352" 
d="M290 350v-58h-227v58h85v265l-84 -16v61l148 30v-340h78z" />
    <glyph glyph-name="uni00B2" unicode="&#xb2;" horiz-adv-x="352" 
d="M37 336l153 146q30 29 43 47.5t13 44.5q0 31 -20 43t-65 12q-54 0 -116 -20v61q60 20 121 20q71 0 107.5 -24.5t36.5 -87.5q0 -41 -14.5 -65.5t-54.5 -62.5l-99 -97h168l-12 -61h-261v44z" />
    <glyph glyph-name="uni00B3" unicode="&#xb3;" horiz-adv-x="352" 
d="M276.5 492q32.5 -26 32.5 -86q0 -67 -37.5 -95.5t-113.5 -28.5q-70 0 -121 15v62q37 -8 61.5 -12.5t58.5 -4.5q46 0 67 14.5t21 48.5t-18 47t-55 13q-31 0 -56 -3l-28 53l117 104h-158v61h241l15 -44l-132 -119q4 1 13 1q60 0 92.5 -26z" />
    <glyph glyph-name="uni2074" unicode="&#x2074;" horiz-adv-x="352" 
d="M303 509v-217h-64v78h-199v50l160 260h72l-153 -252h120v81h64z" />
    <glyph glyph-name="uni2075" unicode="&#x2075;" horiz-adv-x="352" 
d="M280.5 509q33.5 -28 33.5 -97q0 -68 -37 -99t-112 -31q-36 0 -67.5 5.5t-52.5 12.5v61l20 -4q60 -15 100 -15q43 0 64 15.5t21 55.5q0 39 -19.5 53.5t-66.5 14.5q-43 0 -74.5 -3.5t-39.5 -4.5v207h239v-61h-176v-86q32 4 66 4q68 0 101.5 -28z" />
    <glyph glyph-name="uni2076" unicode="&#x2076;" horiz-adv-x="352" 
d="M67 326q-30 43 -30 117q0 104 63.5 162.5t152.5 84.5l19 -59q-74 -27 -106.5 -47.5t-52.5 -61.5q4 1 15.5 5t27 6.5t35.5 2.5q126 0 126 -125q0 -58 -34.5 -93t-105.5 -35q-80 0 -110 43zM254 411q0 36 -15.5 54t-53.5 18q-27 0 -44.5 -4.5t-38.5 -12.5q-2 -14 -2 -27
q0 -51 17.5 -75t61.5 -24q75 0 75 71z" />
    <glyph glyph-name="uni2077" unicode="&#x2077;" horiz-adv-x="352" 
d="M310 680v-84q0 -27 -16 -48.5t-49 -50.5q-38 -33 -58 -61t-20 -68v-76h-63v76q0 56 24 90.5t66 70.5q27 23 39 37.5t12 32.5v21h-200v60h265z" />
    <glyph glyph-name="uni2078" unicode="&#x2078;" horiz-adv-x="352" 
d="M31 400q0 77 73 101q-25 9 -41 30.5t-16 54.5q0 53 31.5 78.5t97.5 25.5t97.5 -25.5t31.5 -78.5q0 -33 -16 -54.5t-41 -30.5q73 -24 73 -101q0 -116 -145 -116t-145 116zM244 583q0 27 -16 39.5t-52 12.5t-52 -12.5t-16 -39.5q0 -53 68 -53t68 53zM237.5 357
q19.5 16 19.5 49q0 34 -22 50t-59 16t-59 -16t-22 -50q0 -33 19.5 -49t61.5 -16t61.5 16z" />
    <glyph glyph-name="uni2079" unicode="&#x2079;" horiz-adv-x="352" 
d="M285 647q30 -43 30 -117q0 -104 -63.5 -162.5t-152.5 -84.5l-19 59q74 27 106.5 47.5t52.5 61.5q-4 -1 -15.5 -5t-27 -6.5t-35.5 -2.5q-126 0 -126 125q0 59 35 93.5t105 34.5q80 0 110 -43zM98 562q0 -36 15.5 -54t53.5 -18q27 0 44.5 4.5t38.5 12.5q2 14 2 27
q0 51 -17.5 75t-61.5 24q-75 0 -75 -71z" />
    <glyph glyph-name="fraction" unicode="&#x2044;" horiz-adv-x="147" 
d="M281 680h71l-487 -680h-75z" />
    <glyph glyph-name="onehalf" unicode="&#xbd;" horiz-adv-x="932" 
d="M320 350v-58h-227v58h85v265l-84 -16v61l148 30v-340h78zM674 680h71l-487 -680h-75zM586 44l153 146q30 29 43 47.5t13 44.5q0 31 -20 43t-65 12q-54 0 -116 -20v61q60 20 121 20q71 0 107.5 -24.5t36.5 -87.5q0 -41 -14.5 -65.5t-54.5 -62.5l-99 -97h168l-12 -61h-261
v44z" />
    <glyph glyph-name="uni2153" unicode="&#x2153;" horiz-adv-x="932" 
d="M316 350v-58h-227v58h85v265l-84 -16v61l148 30v-340h78zM648 680h71l-487 -680h-75zM802.5 200q32.5 -26 32.5 -86q0 -67 -37.5 -95.5t-113.5 -28.5q-70 0 -121 15v62q37 -8 61.5 -12.5t58.5 -4.5q46 0 67 14.5t21 48.5t-18 47t-55 13q-30 0 -56 -3l-28 53l117 104h-158
v61h241l15 -44l-132 -119q4 1 13 1q60 0 92.5 -26z" />
    <glyph glyph-name="uni2154" unicode="&#x2154;" horiz-adv-x="932" 
d="M60 336l153 146q30 29 43 47.5t13 44.5q0 31 -20 43t-65 12q-54 0 -116 -20v61q60 20 121 20q71 0 107.5 -24.5t36.5 -87.5q0 -41 -14.5 -65.5t-54.5 -62.5l-99 -97h168l-12 -61h-261v44zM673 680h71l-487 -680h-75zM820.5 200q32.5 -26 32.5 -86q0 -67 -37.5 -95.5
t-113.5 -28.5q-70 0 -121 15v62q37 -8 61.5 -12.5t58.5 -4.5q46 0 67 14.5t21 48.5t-18 47t-55 13q-30 0 -56 -3l-28 53l117 104h-158v61h241l15 -44l-132 -119q4 1 13 1q60 0 92.5 -26z" />
    <glyph glyph-name="onequarter" unicode="&#xbc;" horiz-adv-x="932" 
d="M338 350v-58h-227v58h85v265l-84 -16v61l148 30v-340h78zM686 680h71l-487 -680h-75zM785 217v-217h-64v78h-199v50l160 260h72l-153 -252h120v81h64z" />
    <glyph glyph-name="threequarters" unicode="&#xbe;" horiz-adv-x="932" 
d="M342.5 492q32.5 -26 32.5 -86q0 -67 -37.5 -95.5t-113.5 -28.5q-70 0 -121 15v62q37 -8 61.5 -12.5t58.5 -4.5q46 0 67 14.5t21 48.5t-18 47t-55 13q-31 0 -56 -3l-28 53l117 104h-158v61h241l15 -44l-132 -119q4 1 13 1q60 0 92.5 -26zM701 680h71l-487 -680h-75z
M796 217v-217h-64v78h-199v50l160 260h72l-153 -252h120v81h64z" />
    <glyph glyph-name="uni2155" unicode="&#x2155;" horiz-adv-x="932" 
d="M303 350v-58h-227v58h85v265l-84 -16v61l148 30v-340h78zM639 680h71l-487 -680h-75zM802.5 217q33.5 -28 33.5 -97q0 -68 -37 -99t-112 -31q-36 0 -67.5 5.5t-52.5 12.5v61l20 -4q60 -15 100 -15q43 0 64 15.5t21 55.5q0 39 -19.5 53.5t-66.5 14.5q-43 0 -74.5 -3.5
t-39.5 -4.5v207h239v-61h-176v-86q32 4 66 4q68 0 101.5 -28z" />
    <glyph glyph-name="uni2156" unicode="&#x2156;" horiz-adv-x="932" 
d="M75 336l153 146q30 29 43 47.5t13 44.5q0 31 -20 43t-65 12q-54 0 -116 -20v61q60 20 121 20q71 0 107.5 -24.5t36.5 -87.5q0 -41 -14.5 -65.5t-54.5 -62.5l-99 -97h168l-12 -61h-261v44zM685 680h71l-487 -680h-75zM838.5 217q33.5 -28 33.5 -97q0 -68 -37 -99t-112 -31
q-36 0 -67.5 5.5t-52.5 12.5v61l20 -4q60 -15 100 -15q43 0 64 15.5t21 55.5q0 39 -19.5 53.5t-66.5 14.5q-43 0 -74.5 -3.5t-39.5 -4.5v207h239v-61h-176v-86q32 4 66 4q68 0 101.5 -28z" />
    <glyph glyph-name="uni2157" unicode="&#x2157;" horiz-adv-x="932" 
d="M324.5 492q32.5 -26 32.5 -86q0 -67 -37.5 -95.5t-113.5 -28.5q-70 0 -121 15v62q37 -8 61.5 -12.5t58.5 -4.5q46 0 67 14.5t21 48.5t-18 47t-55 13q-31 0 -56 -3l-28 53l117 104h-158v61h241l15 -44l-132 -119q4 1 13 1q60 0 92.5 -26zM654 680h71l-487 -680h-75z
M803.5 217q33.5 -28 33.5 -97q0 -68 -37 -99t-112 -31q-36 0 -67.5 5.5t-52.5 12.5v61l20 -4q60 -15 100 -15q43 0 64 15.5t21 55.5q0 39 -19.5 53.5t-66.5 14.5q-43 0 -74.5 -3.5t-39.5 -4.5v207h239v-61h-176v-86q32 4 66 4q68 0 101.5 -28z" />
    <glyph glyph-name="uni2158" unicode="&#x2158;" horiz-adv-x="932" 
d="M328 509v-217h-64v78h-199v50l160 260h72l-153 -252h120v81h64zM664 680h71l-487 -680h-75zM812.5 217q33.5 -28 33.5 -97q0 -68 -37 -99t-112 -31q-36 0 -67.5 5.5t-52.5 12.5v61l20 -4q60 -15 100 -15q43 0 64 15.5t21 55.5q0 39 -19.5 53.5t-66.5 14.5
q-43 0 -74.5 -3.5t-39.5 -4.5v207h239v-61h-176v-86q32 4 66 4q68 0 101.5 -28z" />
    <glyph glyph-name="uni2159" unicode="&#x2159;" horiz-adv-x="932" 
d="M346 350v-58h-227v58h85v265l-84 -16v61l148 30v-340h78zM680 680h71l-487 -680h-75zM551 33q-30 43 -30 117q0 104 63.5 162.5t152.5 84.5l19 -59q-74 -27 -106.5 -47.5t-52.5 -61.5q4 1 15.5 5t27 6.5t35.5 2.5q126 0 126 -125q0 -58 -34.5 -93t-105.5 -35
q-80 0 -110 43zM738 118q0 36 -15.5 54t-53.5 18q-27 0 -44.5 -4.5t-38.5 -12.5q-2 -14 -2 -27q0 -51 17.5 -75t61.5 -24q75 0 75 71z" />
    <glyph glyph-name="uni215A" unicode="&#x215a;" horiz-adv-x="932" 
d="M341.5 509q33.5 -28 33.5 -97q0 -68 -37 -99t-112 -31q-36 0 -67.5 5.5t-52.5 12.5v61l20 -4q60 -15 100 -15q43 0 64 15.5t21 55.5q0 39 -19.5 53.5t-66.5 14.5q-43 0 -74.5 -3.5t-39.5 -4.5v207h239v-61h-176v-86q32 4 66 4q68 0 101.5 -28zM700 680h71l-487 -680h-75z
M576 33q-30 43 -30 117q0 104 63.5 162.5t152.5 84.5l19 -59q-74 -27 -106.5 -47.5t-52.5 -61.5q4 1 15.5 5t27 6.5t35.5 2.5q126 0 126 -125q0 -58 -34.5 -93t-105.5 -35q-80 0 -110 43zM763 118q0 36 -15.5 54t-53.5 18q-27 0 -44.5 -4.5t-38.5 -12.5q-2 -14 -2 -27
q0 -51 17.5 -75t61.5 -24q75 0 75 71z" />
    <glyph glyph-name="oneeighth" unicode="&#x215b;" horiz-adv-x="932" 
d="M327 350v-58h-227v58h85v265l-84 -16v61l148 30v-340h78zM667 680h71l-487 -680h-75zM538 106q0 77 73 101q-25 9 -41 30.5t-16 54.5q0 53 31.5 78.5t97.5 25.5t97.5 -25.5t31.5 -78.5q0 -33 -16 -54.5t-41 -30.5q73 -24 73 -101q0 -116 -145 -116t-145 116zM751 289
q0 27 -16 39.5t-52 12.5t-52 -12.5t-16 -39.5q0 -53 68 -53t68 53zM744.5 63q19.5 16 19.5 49q0 34 -22 50t-59 16t-59 -16t-22 -50q0 -33 19.5 -49t61.5 -16t61.5 16z" />
    <glyph glyph-name="threeeighths" unicode="&#x215c;" horiz-adv-x="932" 
d="M325.5 492q32.5 -26 32.5 -86q0 -67 -37.5 -95.5t-113.5 -28.5q-70 0 -121 15v62q37 -8 61.5 -12.5t58.5 -4.5q46 0 67 14.5t21 48.5t-18 47t-55 13q-31 0 -56 -3l-28 53l117 104h-158v61h241l15 -44l-132 -119q4 1 13 1q60 0 92.5 -26zM665 680h71l-487 -680h-75z
M543 106q0 77 73 101q-25 9 -41 30.5t-16 54.5q0 53 31.5 78.5t97.5 25.5t97.5 -25.5t31.5 -78.5q0 -33 -16 -54.5t-41 -30.5q73 -24 73 -101q0 -116 -145 -116t-145 116zM756 289q0 27 -16 39.5t-52 12.5t-52 -12.5t-16 -39.5q0 -53 68 -53t68 53zM749.5 63
q19.5 16 19.5 49q0 34 -22 50t-59 16t-59 -16t-22 -50q0 -33 19.5 -49t61.5 -16t61.5 16z" />
    <glyph glyph-name="fiveeighths" unicode="&#x215d;" horiz-adv-x="932" 
d="M319.5 509q33.5 -28 33.5 -97q0 -68 -37 -99t-112 -31q-36 0 -67.5 5.5t-52.5 12.5v61l20 -4q60 -15 100 -15q43 0 64 15.5t21 55.5q0 39 -19.5 53.5t-66.5 14.5q-43 0 -74.5 -3.5t-39.5 -4.5v207h239v-61h-176v-86q32 4 66 4q68 0 101.5 -28zM659 680h71l-487 -680h-75z
M534 106q0 77 73 101q-25 9 -41 30.5t-16 54.5q0 53 31.5 78.5t97.5 25.5t97.5 -25.5t31.5 -78.5q0 -33 -16 -54.5t-41 -30.5q73 -24 73 -101q0 -116 -145 -116t-145 116zM747 289q0 27 -16 39.5t-52 12.5t-52 -12.5t-16 -39.5q0 -53 68 -53t68 53zM740.5 63
q19.5 16 19.5 49q0 34 -22 50t-59 16t-59 -16t-22 -50q0 -33 19.5 -49t61.5 -16t61.5 16z" />
    <glyph glyph-name="seveneighths" unicode="&#x215e;" horiz-adv-x="932" 
d="M388 680v-84q0 -27 -16 -48.5t-49 -50.5q-38 -33 -58 -61t-20 -68v-76h-63v76q0 56 24 90.5t66 70.5q27 23 39 37.5t12 32.5v21h-200v60h265zM630 680h71l-487 -680h-75zM517 106q0 77 73 101q-25 9 -41 30.5t-16 54.5q0 53 31.5 78.5t97.5 25.5t97.5 -25.5t31.5 -78.5
q0 -33 -16 -54.5t-41 -30.5q73 -24 73 -101q0 -116 -145 -116t-145 116zM730 289q0 27 -16 39.5t-52 12.5t-52 -12.5t-16 -39.5q0 -53 68 -53t68 53zM723.5 63q19.5 16 19.5 49q0 34 -22 50t-59 16t-59 -16t-22 -50q0 -33 19.5 -49t61.5 -16t61.5 16z" />
    <glyph glyph-name="asterisk" unicode="*" horiz-adv-x="493" 
d="M104 400l101 119l-150 33l23 72l143 -57l-14 153h79l-13 -153l141 58l24 -73l-150 -33l102 -118l-64 -46l-79 133l-79 -134z" />
    <glyph glyph-name="backslash" unicode="\" horiz-adv-x="480" 
d="M97 720h-85l371 -844h84z" />
    <glyph glyph-name="periodcentered" unicode="&#xb7;" horiz-adv-x="203" 
d="M55 350h93v-97h-93v97z" />
    <glyph glyph-name="bullet" unicode="&#x2022;" horiz-adv-x="289" 
d="M89 225q-19 7 -26.5 26t-7.5 57q0 37 7.5 56t26.5 26t56 7t55.5 -7t26 -26t7.5 -56q0 -38 -7.5 -57t-26 -26t-55.5 -7t-56 7z" />
    <glyph glyph-name="colon" unicode=":" horiz-adv-x="300" 
d="M103 97h93v-97h-93v97zM103 530h93v-97h-93v97z" />
    <glyph glyph-name="comma" unicode="," horiz-adv-x="300" 
d="M131 97h85l-68 -286h-71z" />
    <glyph glyph-name="ellipsis" unicode="&#x2026;" horiz-adv-x="541" 
d="M55 97h93v-97h-93v97zM224 97h93v-97h-93v97zM393 97h93v-97h-93v97z" />
    <glyph glyph-name="exclam" unicode="!" horiz-adv-x="274" 
d="M94 680h86l-11 -507h-64zM91 97h93v-97h-93v97z" />
    <glyph glyph-name="exclamdown" unicode="&#xa1;" horiz-adv-x="274" 
d="M94 -110h86l-11 507h-64zM91 473h93v97h-93v-97z" />
    <glyph glyph-name="numbersign" unicode="#" horiz-adv-x="702" 
d="M139 136h-125v64h140l49 199h-154v63h170l30 128h71l-30 -128h184l32 128h69l-30 -128h143v-63h-158l-48 -199h180v-64h-196l-34 -136h-69l33 136h-187l-33 -136h-69zM409 200l49 199h-184l-49 -199h184z" />
    <glyph glyph-name="period" unicode="." horiz-adv-x="300" 
d="M98 97h93v-97h-93v97z" />
    <glyph glyph-name="question" unicode="?" horiz-adv-x="544" 
d="M183 246q0 41 9 65.5t27.5 40.5t53.5 35l47 26q34 18 51 31t26.5 31t9.5 46q0 53 -35.5 73t-121.5 20q-117 0 -197 -29v78q77 27 196 27q127 0 184.5 -37.5t57.5 -127.5q0 -45 -14 -74t-35 -46t-53 -34l-58 -32q-28 -16 -41.5 -27t-19 -27t-5.5 -44v-68h-82v73zM177 97
h93v-97h-93v97z" />
    <glyph glyph-name="questiondown" unicode="&#xbf;" horiz-adv-x="451" 
d="M321 234q0 -41 -9 -65.5t-27.5 -40.5t-53.5 -35l-47 -26q-34 -18 -51 -31t-26.5 -31t-9.5 -46q0 -53 35.5 -73t121.5 -20q117 0 197 29v-78q-77 -27 -196 -27q-127 0 -184.5 37.5t-57.5 127.5q0 45 14 74t35 46t53 34l58 32q28 16 41.5 27t19 27t5.5 44v68h82v-73z
M327 383h-93v97h93v-97z" />
    <glyph glyph-name="quotedbl" unicode="&#x22;" horiz-adv-x="354" 
d="M213 720h87l-14 -215h-58zM54 720h87l-14 -215h-58z" />
    <glyph glyph-name="quotesingle" unicode="'" horiz-adv-x="195" 
d="M54 720h87l-14 -215h-58z" />
    <glyph glyph-name="semicolon" unicode=";" horiz-adv-x="300" 
d="M113 94h85l-68 -286h-71zM107 530h93v-97h-93v97z" />
    <glyph glyph-name="slash" unicode="/" horiz-adv-x="480" 
d="M383 720h85l-371 -844h-84z" />
    <glyph glyph-name="underscore" unicode="_" horiz-adv-x="428" 
d="M-1 70h430v-70h-430v70z" />
    <glyph glyph-name="periodcentered.upper" horiz-adv-x="203" 
d="M55 397h93v-97h-93v97z" />
    <glyph glyph-name="braceleft" unicode="{" horiz-adv-x="404" 
d="M171.5 -91q-36.5 33 -36.5 108v141q0 55 -13 80t-50 25h-19v72h19q37 0 50 25t13 80v139q0 75 36 108t110 33h69v-73h-57q-45 0 -62 -17.5t-17 -67.5v-130q0 -56 -12.5 -86t-49.5 -47q37 -17 49.5 -47t12.5 -86v-132q0 -50 17 -67.5t62 -17.5h57v-73h-68q-74 0 -110.5 33
z" />
    <glyph glyph-name="braceright" unicode="}" horiz-adv-x="404" 
d="M232.5 -91q36.5 33 36.5 108v141q0 55 13 80t50 25h19v72h-19q-37 0 -50 25t-13 80v139q0 75 -36 108t-110 33h-69v-73h57q45 0 62 -17.5t17 -67.5v-130q0 -56 12.5 -86t49.5 -47q-37 -17 -49.5 -47t-12.5 -86v-132q0 -50 -17 -67.5t-62 -17.5h-57v-73h68q74 0 110.5 33z
" />
    <glyph glyph-name="bracketleft" unicode="[" horiz-adv-x="385" 
d="M90 720h242v-78h-161v-689h161v-77h-242v844z" />
    <glyph glyph-name="bracketright" unicode="]" horiz-adv-x="385" 
d="M295 720h-242v-78h161v-689h-161v-77h242v844z" />
    <glyph glyph-name="parenleft" unicode="(" horiz-adv-x="307" 
d="M86 72.5q-33 101.5 -33 225.5t33 225.5t84 196.5h84q-53 -96 -86.5 -199t-33.5 -223t33.5 -223t86.5 -199h-84q-51 95 -84 196.5z" />
    <glyph glyph-name="parenright" unicode=")" horiz-adv-x="307" 
d="M221 72.5q33 101.5 33 225.5t-33 225.5t-84 196.5h-84q53 -96 86.5 -199t33.5 -223t-33.5 -223t-86.5 -199h84q51 95 84 196.5z" />
    <glyph glyph-name="emdash" unicode="&#x2014;" horiz-adv-x="751" 
d="M81 336h589v-72h-589v72z" />
    <glyph glyph-name="endash" unicode="&#x2013;" horiz-adv-x="580" 
d="M81 336h419v-72h-419v72z" />
    <glyph glyph-name="hyphen" unicode="-" horiz-adv-x="498" 
d="M81 336h336v-72h-336v72z" />
    <glyph glyph-name="uni00AD" unicode="&#xad;" horiz-adv-x="498" 
d="M81 336h336v-72h-336v72z" />
    <glyph glyph-name="emdash.upper" horiz-adv-x="751" 
d="M81 386h589v-72h-589v72z" />
    <glyph glyph-name="endash.upper" horiz-adv-x="580" 
d="M81 386h419v-72h-419v72z" />
    <glyph glyph-name="hyphen.upper" horiz-adv-x="498" 
d="M81 386h336v-72h-336v72z" />
    <glyph glyph-name="guillemotleft" unicode="&#xab;" horiz-adv-x="530" 
d="M247 305l151 219h78l-134 -219l124 -219h-78zM54 305l151 219h78l-134 -219l124 -219h-78z" />
    <glyph glyph-name="guillemotright" unicode="&#xbb;" horiz-adv-x="530" 
d="M283 305l-151 219h-78l134 -219l-124 -219h78zM476 305l-151 219h-78l134 -219l-124 -219h78z" />
    <glyph glyph-name="guilsinglleft" unicode="&#x2039;" horiz-adv-x="337" 
d="M54 305l151 219h78l-134 -219l124 -219h-78z" />
    <glyph glyph-name="guilsinglright" unicode="&#x203a;" horiz-adv-x="325" 
d="M271 305l-151 219h-78l134 -219l-124 -219h78z" />
    <glyph glyph-name="quotedblbase" unicode="&#x201e;" horiz-adv-x="359" 
d="M220 62h85l-43 -222h-58zM70 62h85l-43 -222h-58z" />
    <glyph glyph-name="quotedblleft" unicode="&#x201c;" horiz-adv-x="359" 
d="M139 498h-85l43 222h58zM289 498h-85l43 222h58z" />
    <glyph glyph-name="quotedblright" unicode="&#x201d;" horiz-adv-x="359" 
d="M220 720h85l-43 -222h-58zM70 720h85l-43 -222h-58z" />
    <glyph glyph-name="quoteleft" unicode="&#x2018;" horiz-adv-x="209" 
d="M151 498h-85l43 222h58z" />
    <glyph glyph-name="quoteright" unicode="&#x2019;" horiz-adv-x="209" 
d="M70 720h85l-43 -222h-58z" />
    <glyph glyph-name="quotesinglbase" unicode="&#x201a;" horiz-adv-x="209" 
d="M70 62h85l-43 -222h-58z" />
    <glyph glyph-name="uni00A0" unicode="&#xa0;" horiz-adv-x="225" 
 />
    <glyph glyph-name="cent" unicode="&#xa2;" horiz-adv-x="517" 
d="M208 474q-38 -16 -55 -59t-17 -126t17 -126t55 -59t107 -16q76 0 147 26v-76q-54 -19 -119 -23v-106h-78v107q-76 5 -121.5 33t-67.5 86t-22 154t22 154t67.5 86t121.5 33v107h78v-106q65 -4 119 -23v-76q-71 26 -147 26q-69 0 -107 -16z" />
    <glyph glyph-name="currency" unicode="&#xa4;" horiz-adv-x="560" 
d="M462 208l79 -79l-46 -47l-73 73q-48 -41 -142 -41t-142 41l-73 -73l-46 47l79 79q-23 54 -23 137t23 137l-79 79l46 46l72 -72q48 41 143 41t143 -41l72 72l46 -46l-79 -79q24 -51 24 -137t-24 -137zM354 196.5q28 13.5 42 48.5t14 100q0 64 -14 99t-42 48.5t-74 13.5
t-74 -13.5t-42 -48.5t-14 -99q0 -65 14 -100t42 -48.5t74 -13.5t74 13.5z" />
    <glyph glyph-name="dollar" unicode="$" horiz-adv-x="550" 
d="M460 70.5q-41 -43.5 -138 -53.5v-108h-80v105q-113 3 -187 28v80q98 -31 207 -31q84 0 119.5 24t35.5 70q0 42 -18 63.5t-69 40.5l-139 53q-50 18 -79.5 37t-46 48.5t-16.5 74.5q0 79 45 115.5t148 42.5v110h80v-110q82 -2 152 -23v-79q-77 28 -185 28q-61 0 -94 -7.5
t-47.5 -26t-14.5 -52.5q0 -37 23.5 -55.5t82.5 -39.5l128 -45q76 -28 105 -65t29 -106q0 -75 -41 -118.5z" />
    <glyph glyph-name="dong" unicode="&#x20ab;" horiz-adv-x="552" 
d="M516 609h-63v-498h-55l-12 28q-24 -17 -59.5 -27t-78.5 -10q-194 0 -194 222q0 121 49 172t145 51q82 0 133 -29v91h-152v52h152v59h72v-59h63v-52zM381 465q-44 14 -114 14q-54 0 -84 -16t-42 -49t-12 -90q0 -80 30 -117.5t108 -37.5q52 0 114 14v282zM69 53h384v-53
h-384v53z" />
    <glyph glyph-name="Euro" unicode="&#x20ac;" horiz-adv-x="624" 
d="M300.5 595.5q-40.5 -16.5 -60.5 -55.5t-26 -111h263l-13 -56h-253v-33v-33h241l-12 -56h-226q6 -71 26.5 -110.5t60.5 -56t110 -16.5q93 0 165 27v-79q-37 -13 -85 -19.5t-92 -6.5q-86 0 -141.5 26t-85.5 83t-39 152h-79v56h75v33v33h-75v56h79q12 137 74 199t192 62
q44 0 92 -6.5t85 -19.5v-79q-72 27 -165 27q-70 0 -110.5 -16.5z" />
    <glyph glyph-name="florin" unicode="&#x192;" horiz-adv-x="398" 
d="M382 463h-161v-239h-1v-104q0 -64 -10.5 -109t-40.5 -95.5t-92 -125.5l-60 51q51 61 76.5 102.5t36 83t10.5 100.5v336h-107v67h108v23q0 45 11.5 76t47 59t105.5 52l46 16l24 -69l-41 -15q-42 -14 -65.5 -27.5t-35.5 -35.5t-12 -58v-21h161v-67z" />
    <glyph glyph-name="uni20BA" unicode="&#x20ba;" horiz-adv-x="595" 
d="M574 224q-10 -224 -247 -224h-162v302l-110 -41v57l110 41v66l-112 -42v57l112 42v198h82v-167l192 72v-57l-192 -72v-66l192 72v-57l-192 -72v-257h76q65 0 101 17.5t51 49.5t19 81h80z" />
    <glyph glyph-name="uni20BD" unicode="&#x20bd;" horiz-adv-x="635" 
d="M217 273v-69h191v-67h-191v-137h-82v137h-109v67h109v69h-109v67h109v340h219q124 0 184.5 -45.5t60.5 -157.5q0 -113 -59 -158.5t-175 -45.5h-148zM217 340h135q58 0 92 10t52 39.5t18 87.5t-18.5 86.5t-54 38t-97.5 9.5h-127v-271z" />
    <glyph glyph-name="sterling" unicode="&#xa3;" horiz-adv-x="607" 
d="M570 76l-22 -76h-499v76h75v233h-75v74h75v118q0 93 58.5 141t173.5 48q97 0 185 -25v-79q-48 15 -90 21t-92 6q-153 0 -153 -123v-107h258v-74h-258v-233h364z" />
    <glyph glyph-name="yen" unicode="&#xa5;" horiz-adv-x="603" 
d="M372 302h138v-57h-168v-65h168v-58h-168v-122h-82v122h-167v58h167v65h-167v57h137l-219 378h91l199 -348l200 348h91z" />
    <glyph glyph-name="uni2219" unicode="&#x2219;" horiz-adv-x="203" 
d="M55 333h93v-98h-93v98z" />
    <glyph glyph-name="uni2215" unicode="&#x2215;" horiz-adv-x="588" 
d="M504 680h71l-487 -680h-75z" />
    <glyph glyph-name="plus" unicode="+" horiz-adv-x="562" 
d="M244 280h-190v75h190v189h75v-189h190v-75h-190v-190h-75v190z" />
    <glyph glyph-name="minus" unicode="&#x2212;" horiz-adv-x="525" 
d="M54 355h417v-75h-417v75z" />
    <glyph glyph-name="multiply" unicode="&#xd7;" horiz-adv-x="482" 
d="M187.517 314.455l-134.348 134.348l53.0322 53.0322l134.347 -134.348l133.641 133.641l53.0322 -53.0322l-133.641 -133.641l134.348 -134.348l-53.0322 -53.0312l-134.348 134.348l-134.347 -134.348l-53.0322 53.0312z" />
    <glyph glyph-name="divide" unicode="&#xf7;" horiz-adv-x="525" 
d="M232 523h74v-77h-74v77zM54 355h417v-75h-417v75zM232 189h74v-77h-74v77z" />
    <glyph glyph-name="equal" unicode="=" horiz-adv-x="552" 
d="M81 449h390v-74h-390v74zM81 265h390v-74h-390v74z" />
    <glyph glyph-name="notequal" unicode="&#x2260;" horiz-adv-x="552" 
d="M350 375l-59 -110h180v-74h-220l-66 -124h-78l66 124h-92v74h132l59 110h-191v74h230l54 101h78l-54 -101h82v-74h-121z" />
    <glyph glyph-name="greater" unicode="&#x3e;" horiz-adv-x="561" 
d="M481 359v-69l-400 -135v74l316 96l-316 94v75z" />
    <glyph glyph-name="less" unicode="&#x3c;" horiz-adv-x="561" 
d="M80 359v-69l400 -135v74l-316 96l316 94v75z" />
    <glyph glyph-name="greaterequal" unicode="&#x2265;" horiz-adv-x="508" 
d="M454 323v-69l-400 -135v74l316 96l-316 94v75zM55 63h400v-63h-400v63z" />
    <glyph glyph-name="lessequal" unicode="&#x2264;" horiz-adv-x="562" 
d="M81 323v-69l400 -135v74l-316 96l316 94v75zM480 63h-400v-63h400v63z" />
    <glyph glyph-name="plusminus" unicode="&#xb1;" horiz-adv-x="569" 
d="M244 326h-190v75h190v189h75v-189h190v-75h-190v-190h-75v190zM61 70h454v-70h-454v70z" />
    <glyph glyph-name="approxequal" unicode="&#x2248;" horiz-adv-x="488" 
d="M165 413q24 0 45.5 -5t56.5 -15q49 -15 70 -15q52 0 97 31v-75q-24 -13 -47 -21t-53 -8q-15 0 -36 5t-41 11q-32 10 -52.5 14.5t-40.5 4.5q-54 0 -110 -28v74q57 27 111 27zM165 260q24 0 45.5 -5t56.5 -15q49 -15 70 -15q52 0 97 31v-75q-24 -13 -47 -21t-53 -8
q-15 0 -36 5t-41 11q-32 10 -52.5 14.5t-40.5 4.5q-54 0 -110 -28v74q57 27 111 27z" />
    <glyph glyph-name="asciitilde" unicode="~" horiz-adv-x="441" 
d="M386 360q0 -55 -23 -83.5t-74 -28.5q-25 0 -44 8.5t-41 24.5q-19 12 -28.5 17t-21.5 5q-21 0 -30.5 -12.5t-10.5 -39.5h-60q0 112 97 112q26 0 45.5 -9t39.5 -24q18 -12 28.5 -17t22.5 -5q21 0 30 12t11 40h59z" />
    <glyph glyph-name="logicalnot" unicode="&#xac;" horiz-adv-x="652" 
d="M491 280h-410v76h490v-356h-80v280z" />
    <glyph glyph-name="emptyset" unicode="&#x2205;" horiz-adv-x="666" 
d="M598 501.5q14 -65.5 14 -162.5q0 -132 -26.5 -207t-87 -108.5t-165.5 -33.5q-114 0 -176 39l-20 -29h-70l47 69q-32 41 -46.5 106.5t-14.5 163.5q0 132 27 208t87 109.5t166 33.5q119 0 178 -41l22 31h71l-50 -72q30 -41 44 -106.5zM167 146l297 434q-22 17 -54 24.5
t-77 7.5q-78 0 -119.5 -24.5t-59 -82.5t-17.5 -166q0 -133 30 -193zM450.5 92q41.5 24 59.5 82t18 165q0 68 -6 114.5t-21 77.5l-296 -432q42 -31 128 -31q76 0 117.5 24z" />
    <glyph glyph-name="infinity" unicode="&#x221e;" horiz-adv-x="837" 
d="M742.5 455q40.5 -42 40.5 -133q0 -90 -40.5 -132t-122.5 -42q-53 0 -99.5 29t-101.5 96q-56 -67 -102.5 -96t-99.5 -29q-82 0 -122.5 42t-40.5 132q0 91 40.5 133t122.5 42q52 0 99 -29.5t103 -95.5q56 66 102.5 95.5t98.5 29.5q82 0 122.5 -42zM284.5 245.5
q34.5 23.5 81.5 76.5q-47 53 -81.5 76.5t-68.5 23.5q-42 0 -62.5 -24t-20.5 -76q0 -51 20.5 -75.5t62.5 -24.5q34 0 68.5 23.5zM683.5 246.5q20.5 24.5 20.5 75.5q0 52 -20.5 76t-62.5 24q-34 0 -68.5 -23.5t-81.5 -76.5q47 -53 81.5 -76.5t68.5 -23.5q42 0 62.5 24.5z" />
    <glyph glyph-name="integral" unicode="&#x222b;" horiz-adv-x="360" 
d="M344 801q-50 -61 -75.5 -102.5t-36.5 -83t-11 -99.5v-404q0 -60 -11.5 -104.5t-41.5 -94t-91 -123.5l-60 51q51 61 76.5 102.5t36.5 83t11 100.5v403q0 61 11 105t41 93.5t91 123.5z" />
    <glyph glyph-name="uni2126" unicode="&#x2126;" horiz-adv-x="667" 
d="M60 76h108q-50 48 -81 121.5t-31 168.5q0 120 25.5 189.5t85.5 102t167 32.5t166.5 -32.5t85 -102.5t25.5 -189q0 -95 -31 -168.5t-81 -121.5h108v-76h-202v69q57 48 89 125t32 172q0 94 -16.5 146.5t-57.5 76t-118 23.5t-118.5 -23.5t-58 -76t-16.5 -146.5
q0 -95 32 -172t89 -125v-69h-202v76z" />
    <glyph glyph-name="uni2206" unicode="&#x2206;" horiz-adv-x="622" 
d="M610 0h-597l248 680h100zM494 76l-182 520l-183 -520h365z" />
    <glyph glyph-name="product" unicode="&#x220f;" horiz-adv-x="708" 
d="M618 0h-82v604h-364v-604h-82v680h528v-680z" />
    <glyph glyph-name="summation" unicode="&#x2211;" horiz-adv-x="654" 
d="M564 604h-380l212 -264l-212 -264h380v-76h-474v77l208 263l-208 263v77h474v-76z" />
    <glyph glyph-name="radical" unicode="&#x221a;" horiz-adv-x="592" 
d="M17 521h87l158 -434l227 593h85l-270 -680h-83z" />
    <glyph glyph-name="uni00B5" unicode="&#xb5;" horiz-adv-x="600" 
d="M520 530v-530h-65l-10 37q-68 -47 -157 -47q-42 0 -77.5 12t-49.5 32v-234h-80v730h80v-385q0 -35 36 -58t90 -23q48 0 84 9t69 24v433h80z" />
    <glyph glyph-name="partialdiff" unicode="&#x2202;" horiz-adv-x="579" 
d="M112 49.5q-58 59.5 -58 166.5q0 106 54 159.5t158 53.5q53 0 90.5 -11t70.5 -29q-18 70 -64.5 116t-103.5 72t-137 50l22 63q161 -39 271.5 -135t110.5 -296q0 -124 -51.5 -196.5t-182.5 -72.5q-122 0 -180 59.5zM409.5 109.5q35.5 46.5 35.5 142.5q0 36 -7 71
q-69 37 -159 37q-144 0 -144 -143q0 -73 35 -113.5t121 -40.5q83 0 118.5 46.5z" />
    <glyph glyph-name="percent" unicode="%" horiz-adv-x="759" 
d="M83 423.5q-29 33.5 -29 116.5t29 116.5t104 33.5t104 -33.5t29 -116.5t-29 -116.5t-104 -33.5t-104 33.5zM521 680h73l-356 -680h-74zM230.5 455q14.5 8 20.5 27.5t6 57.5t-6 57.5t-20.5 27.5t-43.5 8t-44 -8t-20.5 -27.5t-5.5 -57.5t5.5 -57.5t20.5 -27.5t44 -8t43.5 8z
M468 23.5q-29 33.5 -29 116.5t29 116.5t104 33.5t104 -33.5t29 -116.5t-29 -116.5t-104 -33.5t-104 33.5zM615.5 55q14.5 8 20.5 27.5t6 57.5t-6 57.5t-20.5 27.5t-43.5 8t-44 -8t-20.5 -27.5t-5.5 -57.5t5.5 -57.5t20.5 -27.5t44 -8t43.5 8z" />
    <glyph glyph-name="perthousand" unicode="&#x2030;" horiz-adv-x="1034" 
d="M83 423.5q-29 33.5 -29 116.5t29 116.5t104 33.5t104 -33.5t29 -116.5t-29 -116.5t-104 -33.5t-104 33.5zM521 680h73l-356 -680h-74zM230.5 455q14.5 8 20.5 27.5t6 57.5t-6 57.5t-20.5 27.5t-43.5 8t-44 -8t-20.5 -27.5t-5.5 -57.5t5.5 -57.5t20.5 -27.5t44 -8t43.5 8z
M468 23.5q-29 33.5 -29 116.5t29 116.5t104 33.5t104 -33.5t29 -116.5t-29 -116.5t-104 -33.5t-104 33.5zM615.5 55q14.5 8 20.5 27.5t6 57.5t-6 57.5t-20.5 27.5t-43.5 8t-44 -8t-20.5 -27.5t-5.5 -57.5t5.5 -57.5t20.5 -27.5t44 -8t43.5 8zM784 23.5q-29 33.5 -29 116.5
t29 116.5t104 33.5t104 -33.5t29 -116.5t-29 -116.5t-104 -33.5t-104 33.5zM931.5 55q14.5 8 20.5 27.5t6 57.5t-6 57.5t-20.5 27.5t-43.5 8t-44 -8t-20.5 -27.5t-5.5 -57.5t5.5 -57.5t20.5 -27.5t44 -8t43.5 8z" />
    <glyph glyph-name="arrowup" unicode="&#x2191;" horiz-adv-x="815" 
d="M762 377l-50 -51l-264 262v-538h-80v538l-264 -262l-50 51l354 353z" />
    <glyph glyph-name="uni2197" unicode="&#x2197;" horiz-adv-x="619" 
d="M565.378 182.77l-71.416 -0.707031l-1.41406 371.931l-380.416 -380.416l-56.5674 56.5674l380.416 380.416l-371.931 1.41406l0.707031 71.416l499.914 -0.707031z" />
    <glyph glyph-name="arrowright" unicode="&#x2192;" horiz-adv-x="787" 
d="M381 2l-51 50l262 264h-538v80h538l-262 264l51 50l353 -354z" />
    <glyph glyph-name="uni2198" unicode="&#x2198;" horiz-adv-x="619" 
d="M565.378 501.23l-71.416 0.707031l-1.41406 -371.931l-380.416 380.416l-56.5674 -56.5674l380.416 -380.416l-371.931 -1.41406l0.707031 -71.416l499.914 0.707031z" />
    <glyph glyph-name="arrowdown" unicode="&#x2193;" horiz-adv-x="815" 
d="M53 343l50 51l264 -262v538h80v-538l264 262l50 -51l-354 -353z" />
    <glyph glyph-name="uni2199" unicode="&#x2199;" horiz-adv-x="619" 
d="M53.6221 501.23l71.416 0.707031l1.41406 -371.931l380.416 380.416l56.5674 -56.5674l-380.416 -380.416l371.931 -1.41406l-0.707031 -71.416l-499.914 0.707031z" />
    <glyph glyph-name="arrowleft" unicode="&#x2190;" horiz-adv-x="787" 
d="M407 2l51 50l-262 264h538v80h-538l262 264l-51 50l-353 -354z" />
    <glyph glyph-name="uni2196" unicode="&#x2196;" horiz-adv-x="619" 
d="M53.6221 182.77l71.416 -0.707031l1.41406 371.931l380.416 -380.416l56.5674 56.5674l-380.416 380.416l371.931 1.41406l-0.707031 71.416l-499.914 -0.707031z" />
    <glyph glyph-name="arrowboth" unicode="&#x2194;" horiz-adv-x="1137" 
d="M731 -10l-51 50l262 264h-538v80h538l-262 264l51 50l353 -354zM407 -10l51 50l-262 264h538v80h-538l262 264l-51 50l-353 -354z" />
    <glyph glyph-name="arrowupdn" unicode="&#x2195;" horiz-adv-x="815" 
d="M762 477l-50 -51l-264 262v-538h-80v538l-264 -262l-50 51l354 353zM762 153l-50 51l-264 -262v538h-80v-538l-264 262l-50 -51l354 -353z" />
    <glyph glyph-name="lozenge" unicode="&#x25ca;" horiz-adv-x="623" 
d="M570 339l-214 -339h-89l-214 339l214 341h89zM481 339l-169 270l-169 -270l169 -268z" />
    <glyph glyph-name="uniF8FF" unicode="&#xf8ff;" horiz-adv-x="277" 
d="M79 345h93v-97h-93v97z" />
    <glyph glyph-name="at" unicode="@" horiz-adv-x="897" 
d="M534.5 500.5q36.5 -4.5 90.5 -15.5v-342q58 8 89.5 29t44 60.5t12.5 109.5q0 112 -26.5 171t-93 84t-195.5 25t-199.5 -30.5t-100.5 -102t-30 -203.5q0 -129 33.5 -200.5t106 -100.5t197.5 -29q68 0 107 8v-67q-44 -9 -107 -9q-149 0 -238 38.5t-130.5 125t-41.5 234.5
q0 150 39 237.5t126 127t238 39.5q149 0 233 -34t119.5 -109t35.5 -205q0 -116 -37.5 -174t-112 -77t-208.5 -19q-72 0 -122 18t-79 66t-29 135q0 118 47.5 166t149.5 48q45 0 81.5 -4.5zM559 137v296q-49 9 -105 9q-53 0 -81 -15t-39 -47.5t-11 -88.5q0 -59 16 -93
t50.5 -48t91.5 -14q55 0 78 1z" />
    <glyph glyph-name="ampersand" unicode="&#x26;" horiz-adv-x="736" 
d="M111.5 36.5q-55.5 46.5 -55.5 133.5q0 46 16 78.5t47.5 59t86.5 60.5q-43 38 -64.5 61.5t-33.5 51t-12 63.5q0 66 47 106t143 40q97 0 145 -39t48 -106q0 -42 -19 -73t-49 -54t-86 -59l179 -165l146 156l58 -53l-147 -156l155 -141h-108l-97 89q-44 -43 -98.5 -71
t-130.5 -28q-115 0 -170.5 46.5zM292 417q39 25 59 40.5t32.5 35.5t12.5 47q0 37 -25 58t-85 21q-62 0 -86 -21t-24 -59q0 -26 9.5 -45.5t26.5 -36.5t59 -53q7 5 21 13zM379.5 86.5q40.5 21.5 74.5 55.5l-195 178q-46 -28 -70.5 -47t-36 -42t-11.5 -55q0 -57 33.5 -84
t111.5 -27q53 0 93.5 21.5z" />
    <glyph glyph-name="paragraph" unicode="&#xb6;" horiz-adv-x="521" 
d="M250 283h-18q-95 0 -136.5 51.5t-41.5 148.5q0 96 45 146.5t156 50.5h63v-804h-68v407zM364 680h68v-804h-68v804z" />
    </font>
</defs>
</svg>
