<?xml version="1.0" standalone="no"?>
<!DOCTYPE svg PUBLIC "-//W3C//DTD SVG 1.1//EN" "http://www.w3.org/Graphics/SVG/1.1/DTD/svg11.dtd" >
<svg xmlns="http://www.w3.org/2000/svg" xmlns:xlink="http://www.w3.org/1999/xlink" version="1.1">
<metadata>
Created by FontForge 20170924 at Thu Mar  8 13:02:48 2018
 By www-data
Copyright 2018 Mitsubishi Motors Corporation
</metadata>
<defs>
<font id="MMCOFFICE-Medium" horiz-adv-x="352" >
  <font-face 
    font-family="MMC OFFICE Medium"
    font-weight="500"
    font-stretch="normal"
    units-per-em="1000"
    panose-1="0 0 6 0 0 0 0 0 0 0"
    ascent="800"
    descent="-200"
    x-height="530"
    cap-height="680"
    bbox="-716 -210 1125 1152"
    underline-thickness="50"
    underline-position="-100"
    unicode-range="U+000D-F8FF"
  />
<missing-glyph horiz-adv-x="569" 
 />
    <glyph glyph-name=".notdef" horiz-adv-x="569" 
 />
    <glyph glyph-name=".null" horiz-adv-x="10" 
 />
    <glyph glyph-name="nonmarkingreturn" unicode="&#xd;" horiz-adv-x="200" 
 />
    <glyph glyph-name="space" unicode=" " horiz-adv-x="254" 
 />
    <glyph glyph-name="A" unicode="A" horiz-adv-x="666" 
d="M474 157h-284l-55 -157h-126l250 680h148l250 -680h-128zM437 262l-105 296l-105 -296h210z" />
    <glyph glyph-name="B" unicode="B" horiz-adv-x="646" 
d="M571 303.5q29 -38.5 29 -116.5q0 -73 -26 -113.5t-77 -57t-135 -16.5h-282v680h271q81 0 131 -15.5t75 -53t25 -103.5q0 -67 -23.5 -102t-73.5 -50q57 -14 86 -52.5zM202 575v-176h149q60 0 84 20t24 73q0 33 -11.5 50.5t-39 25t-78.5 7.5h-128zM423.5 112.5
q27.5 7.5 40 28t12.5 59.5q0 57 -25.5 78t-92.5 21h-156v-194h144q50 0 77.5 7.5z" />
    <glyph glyph-name="C" unicode="C" horiz-adv-x="585" 
d="M179.5 22q-65.5 32 -98 108t-32.5 210q0 131 32 207.5t97.5 109.5t172.5 33q47 0 98.5 -6.5t86.5 -16.5v-117q-80 25 -171 25q-74 0 -115 -20.5t-59 -71t-18 -143.5q0 -94 18 -144t59 -70.5t115 -20.5q91 0 171 25v-117q-35 -10 -86.5 -16.5t-98.5 -6.5q-106 0 -171.5 32
z" />
    <glyph glyph-name="D" unicode="D" horiz-adv-x="665" 
d="M483.5 650q65.5 -30 99 -104t33.5 -205q0 -130 -34 -204.5t-100 -105.5t-168 -31h-234v680h235q103 0 168.5 -30zM420.5 135.5q39.5 23.5 55.5 73t16 132.5q0 86 -15.5 134.5t-53 70.5t-107.5 22h-114v-456h108q71 0 110.5 23.5z" />
    <glyph glyph-name="E" unicode="E" horiz-adv-x="594" 
d="M544 112l-25 -112h-439v680h449v-112h-327v-169h311v-108h-311v-179h342z" />
    <glyph glyph-name="F" unicode="F" horiz-adv-x="571" 
d="M202 568v-192h296l-24 -112h-272v-264h-122v680h449v-112h-327z" />
    <glyph glyph-name="G" unicode="G" horiz-adv-x="652" 
d="M185 20q-68 30 -102 106t-34 214t33.5 214t102 106t184.5 30q56 0 100.5 -5.5t95.5 -16.5v-117q-91 24 -181 24q-83 0 -127 -18t-64 -68t-20 -149q0 -100 19 -150t58.5 -67t112.5 -17q70 0 113 13v229l120 31v-353q-64 -19 -116 -27.5t-113 -8.5q-114 0 -182 30z" />
    <glyph glyph-name="H" unicode="H" horiz-adv-x="699" 
d="M618 680v-680h-122v288h-294v-288h-122v680h122v-280h294v280h122z" />
    <glyph glyph-name="I" unicode="I" horiz-adv-x="283" 
d="M80 680h122v-680h-122v680z" />
    <glyph glyph-name="J" unicode="J" horiz-adv-x="525" 
d="M455 198q0 -79 -27 -124.5t-80.5 -64.5t-139.5 -19q-55 0 -97.5 6.5t-67.5 15.5v117q77 -24 152 -24q47 0 76 7.5t45.5 30t16.5 66.5v359h-277l26 112h373v-482z" />
    <glyph glyph-name="K" unicode="K" horiz-adv-x="632" 
d="M478 0l-276 325v-325h-122v680h122v-323l261 323h152l-283 -337l301 -343h-155z" />
    <glyph glyph-name="L" unicode="L" horiz-adv-x="543" 
d="M80 680h122v-567h321l-23 -113h-420v680z" />
    <glyph glyph-name="M" unicode="M" horiz-adv-x="874" 
d="M80 680h152l205 -303l202 303h154v-680h-122v526l-234 -340l-235 340v-526h-122v680z" />
    <glyph glyph-name="N" unicode="N" horiz-adv-x="704" 
d="M80 680h104l318 -466v466h122v-680h-103l-319 462v-462h-122v680z" />
    <glyph glyph-name="O" unicode="O" horiz-adv-x="674" 
d="M168 23.5q-62 33.5 -90.5 109t-28.5 207.5t28.5 207.5t90.5 109t169 33.5t169.5 -33.5t90.5 -109t28 -207.5t-28.5 -207.5t-90.5 -109t-169 -33.5t-169 33.5zM437 127.5q35 22.5 49.5 72.5t14.5 140q0 91 -14 141t-49 72t-101 22q-65 0 -100.5 -22t-49.5 -72t-14 -141
q0 -90 14.5 -140t50 -72.5t99.5 -22.5q65 0 100 22.5z" />
    <glyph glyph-name="P" unicode="P" horiz-adv-x="622" 
d="M483 659.5q52 -20.5 80 -71.5t28 -140t-28 -140t-80 -72t-131 -21h-150v-215h-122v680h272q79 0 131 -20.5zM412 337.5q29 10.5 42 36.5t13 74t-13 73.5t-42 36t-80 10.5h-130v-241h130q51 0 80 10.5z" />
    <glyph glyph-name="Q" unicode="Q" horiz-adv-x="674" 
d="M605.5 160q-19.5 -70 -61.5 -109t-112 -53l73 -156h-125l-70 149q-96 4 -153 39t-82.5 109.5t-25.5 200.5q0 132 28.5 207.5t90.5 109t169 33.5t169.5 -33.5t90.5 -109t28 -207.5q0 -110 -19.5 -180zM437 127.5q35 22.5 49.5 72.5t14.5 140q0 91 -14 141t-49 72t-101 22
q-65 0 -100.5 -22t-49.5 -72t-14 -141q0 -90 14.5 -140t50 -72.5t99.5 -22.5q65 0 100 22.5z" />
    <glyph glyph-name="R" unicode="R" horiz-adv-x="650" 
d="M625 0h-140l-159 245h-124v-245h-122v680h253q87 0 141.5 -17.5t84 -64t29.5 -132.5q0 -92 -36 -138.5t-104 -64.5zM407.5 362q29.5 8 43.5 30.5t14 67.5t-14 68t-43.5 31.5t-82.5 8.5h-123v-214h123q53 0 82.5 8z" />
    <glyph glyph-name="S" unicode="S" horiz-adv-x="566" 
d="M51 21v116q100 -36 211 -36q76 0 107 19.5t31 62.5q0 37 -17 56t-65 39l-137 55q-72 29 -105 67t-33 109q0 66 24 105t79.5 57.5t151.5 18.5q60 0 110.5 -7.5t84.5 -18.5v-114q-32 12 -84.5 21t-109.5 9q-54 0 -82.5 -6.5t-39.5 -21.5t-11 -43q0 -32 20 -49t77 -40
l112 -44q57 -22 88.5 -46.5t45 -58t13.5 -84.5q0 -101 -59.5 -149t-199.5 -48q-123 0 -212 31z" />
    <glyph glyph-name="T" unicode="T" horiz-adv-x="575" 
d="M225 567h-208v113h548l-24 -113h-194v-567h-122v567z" />
    <glyph glyph-name="U" unicode="U" horiz-adv-x="672" 
d="M186.5 10.5q-58.5 20.5 -88.5 70.5t-30 138v461h122v-445q0 -52 14 -79.5t45.5 -39t86.5 -11.5t86.5 11.5t45.5 39t14 79.5v445h122v-461q0 -88 -30 -138t-88.5 -70.5t-149.5 -20.5t-149.5 20.5z" />
    <glyph glyph-name="V" unicode="V" horiz-adv-x="629" 
d="M9 680h131l175 -555l175 555h130l-227 -680h-156z" />
    <glyph glyph-name="W" unicode="W" horiz-adv-x="940" 
d="M21 680h122l128 -523l146 523h105l146 -523l129 523h122l-178 -680h-134l-137 470l-137 -470h-135z" />
    <glyph glyph-name="X" unicode="X" horiz-adv-x="614" 
d="M231 336l-215 344h138l153 -251l152 251h139l-216 -344l210 -336h-139l-146 241l-147 -241h-139z" />
    <glyph glyph-name="Y" unicode="Y" horiz-adv-x="617" 
d="M247 247l-237 433h134l164 -308l164 308h135l-238 -433v-247h-122v247z" />
    <glyph glyph-name="Z" unicode="Z" horiz-adv-x="561" 
d="M43 91l326 477h-322v112h472v-93l-328 -475h323v-112h-471v91z" />
    <glyph glyph-name="Aacute" unicode="&#xc1;" horiz-adv-x="666" 
d="M474 157h-284l-55 -157h-126l250 680h148l250 -680h-128zM437 262l-105 296l-105 -296h210zM355 902h127l-109 -152h-102z" />
    <glyph glyph-name="Abreve" unicode="&#x102;" horiz-adv-x="666" 
d="M474 157h-284l-55 -157h-126l250 680h148l250 -680h-128zM437 262l-105 296l-105 -296h210zM206.5 778.5q-40.5 30.5 -41.5 106.5h93q1 -35 19.5 -49.5t55.5 -14.5t55.5 14.5t19.5 49.5h93q-1 -76 -41.5 -106.5t-126.5 -30.5t-126.5 30.5z" />
    <glyph glyph-name="uni1EAE" unicode="&#x1eae;" horiz-adv-x="666" 
d="M474 157h-284l-55 -157h-126l250 680h148l250 -680h-128zM437 262l-105 296l-105 -296h210zM204.5 775q-40.5 28 -41.5 101h90q1 -34 20.5 -46.5t59.5 -12.5t59.5 12.5t20.5 46.5h90q-1 -74 -41 -101.5t-129 -27.5q-88 0 -128.5 28zM353 1024h125l-102 -126h-98z" />
    <glyph glyph-name="uni1EB6" unicode="&#x1eb6;" horiz-adv-x="666" 
d="M474 157h-284l-55 -157h-126l250 680h148l250 -680h-128zM437 262l-105 296l-105 -296h210zM267 -73h131v-113h-131v113zM206.5 778.5q-40.5 30.5 -41.5 106.5h93q1 -35 19.5 -49.5t55.5 -14.5t55.5 14.5t19.5 49.5h93q-1 -76 -41.5 -106.5t-126.5 -30.5t-126.5 30.5z
" />
    <glyph glyph-name="uni1EB0" unicode="&#x1eb0;" horiz-adv-x="666" 
d="M192 157h284l55 -157h126l-250 680h-148l-250 -680h128zM229 262l105 296l105 -296h-210zM461.5 775q40.5 28 41.5 101h-90q-1 -34 -20.5 -46.5t-59.5 -12.5t-59.5 12.5t-20.5 46.5h-90q1 -74 41 -101.5t129 -27.5q88 0 128.5 28zM313 1024h-125l102 -126h98z" />
    <glyph glyph-name="uni1EB2" unicode="&#x1eb2;" horiz-adv-x="666" 
d="M474 157h-284l-55 -157h-126l250 680h148l250 -680h-128zM437 262l-105 296l-105 -296h210zM283 923q33 8 53 22t20 30q0 31 -49 31q-30 0 -50.5 -4.5t-23.5 -5.5v72q45 9 87 9q52 0 85.5 -22t33.5 -67t-31.5 -76t-91.5 -45zM204.5 775q-40.5 28 -41.5 101h90
q1 -34 20.5 -46.5t59.5 -12.5t59.5 12.5t20.5 46.5h90q-1 -74 -41 -101.5t-129 -27.5q-88 0 -128.5 28z" />
    <glyph glyph-name="uni1EB4" unicode="&#x1eb4;" horiz-adv-x="666" 
d="M474 157h-284l-55 -157h-126l250 680h148l250 -680h-128zM437 262l-105 296l-105 -296h210zM492 1020q0 -66 -24 -92t-75 -26q-24 0 -41 7t-39 20q-10 6 -20.5 11t-19.5 5q-15 0 -21.5 -8.5t-8.5 -29.5h-76q0 66 24 92.5t75 26.5q24 0 41 -7t39 -20q14 -9 22.5 -13
t17.5 -4q15 0 22 8.5t8 29.5h76zM204.5 775q-40.5 28 -41.5 101h90q1 -34 20.5 -46.5t59.5 -12.5t59.5 12.5t20.5 46.5h90q-1 -74 -41 -101.5t-129 -27.5q-88 0 -128.5 28z" />
    <glyph glyph-name="Acircumflex" unicode="&#xc2;" horiz-adv-x="666" 
d="M474 157h-284l-55 -157h-126l250 680h148l250 -680h-128zM437 262l-105 296l-105 -296h210zM283 902h102l133 -152h-119l-65 80l-68 -80h-119z" />
    <glyph glyph-name="uni1EA4" unicode="&#x1ea4;" horiz-adv-x="676" 
d="M474 157h-284l-55 -157h-126l250 680h148l250 -680h-128zM437 262l-105 296l-105 -296h210zM280 880h102l131 -132h-122l-60 67l-63 -67h-121zM503 999h125l-102 -126h-98z" />
    <glyph glyph-name="uni1EAC" unicode="&#x1eac;" horiz-adv-x="666" 
d="M474 157h-284l-55 -157h-126l250 680h148l250 -680h-128zM437 262l-105 296l-105 -296h210zM267 -73h131v-113h-131v113zM283 902h102l133 -152h-119l-65 80l-68 -80h-119z" />
    <glyph glyph-name="uni1EA6" unicode="&#x1ea6;" horiz-adv-x="666" 
d="M474 157h-284l-55 -157h-126l250 680h148l250 -680h-128zM437 262l-105 296l-105 -296h210zM384 880h-102l-131 -132h122l60 67l63 -67h121zM473 999h-125l102 -126h98z" />
    <glyph glyph-name="uni1EA8" unicode="&#x1ea8;" horiz-adv-x="666" 
d="M474 157h-284l-55 -157h-126l250 680h148l250 -680h-128zM437 262l-105 296l-105 -296h210zM283 880h102l131 -132h-122l-60 67l-63 -67h-121zM434 896q57 12 57 38q0 27 -42 27q-30 0 -60 -7v77q33 9 79 9q48 0 83 -22.5t35 -63.5q0 -44 -31 -72.5t-87 -41.5z" />
    <glyph glyph-name="uni1EAA" unicode="&#x1eaa;" horiz-adv-x="666" 
d="M474 157h-284l-55 -157h-126l250 680h148l250 -680h-128zM437 262l-105 296l-105 -296h210zM283 859.424h102l131 -115.984h-122l-60 58.8711l-63 -58.8711h-121zM496 1010q0 -66 -24 -92t-75 -26q-24 0 -41 7t-39 20q-10 6 -20.5 11t-19.5 5q-15 0 -21.5 -8.5
t-8.5 -29.5h-76q0 66 24 92.5t75 26.5q24 0 41 -7t39 -20q14 -9 22.5 -13t17.5 -4q15 0 22 8.5t8 29.5h76z" />
    <glyph glyph-name="Adieresis" unicode="&#xc4;" horiz-adv-x="666" 
d="M474 157h-284l-55 -157h-126l250 680h148l250 -680h-128zM437 262l-105 296l-105 -296h210zM178 866h113v-111h-113v111zM375 866h113v-111h-113v111z" />
    <glyph glyph-name="uni1EA0" unicode="&#x1ea0;" horiz-adv-x="666" 
d="M474 157h-284l-55 -157h-126l250 680h148l250 -680h-128zM437 262l-105 296l-105 -296h210zM267 -73h131v-113h-131v113z" />
    <glyph glyph-name="Agrave" unicode="&#xc0;" horiz-adv-x="666" 
d="M192 157h284l55 -157h126l-250 680h-148l-250 -680h128zM229 262l105 296l105 -296h-210zM311 902h-127l109 -152h102z" />
    <glyph glyph-name="uni1EA2" unicode="&#x1ea2;" horiz-adv-x="666" 
d="M474 157h-284l-55 -157h-126l250 680h148l250 -680h-128zM437 262l-105 296l-105 -296h210zM278 794q33 8 53 22t20 30q0 31 -49 31q-30 0 -50.5 -4.5t-23.5 -5.5v72q45 9 87 9q52 0 85.5 -22t33.5 -67t-31.5 -76t-91.5 -45z" />
    <glyph glyph-name="Amacron" unicode="&#x100;" horiz-adv-x="666" 
d="M474 157h-284l-55 -157h-126l250 680h148l250 -680h-128zM437 262l-105 296l-105 -296h210zM183 862h300v-91h-300v91z" />
    <glyph glyph-name="Aogonek" unicode="&#x104;" horiz-adv-x="666" 
d="M573 -121q9 -6 31 -6q25 0 53 6v-80q-36 -9 -74 -9q-66 0 -90.5 22.5t-24.5 59.5q0 34 20.5 63t69.5 65h-29l-56 157h-282l-56 -157h-126l250 680h148l250 -680q-54 -40 -73.5 -61.5t-19.5 -40.5q0 -13 9 -19zM438 262l-106 296l-105 -296h211z" />
    <glyph glyph-name="Aring" unicode="&#xc5;" horiz-adv-x="666" 
d="M474 157h-284l-55 -157h-126l250 680h148l250 -680h-128zM437 262l-105 296l-105 -296h210zM431.5 924q29.5 -26 29.5 -80t-29.5 -80t-98.5 -26t-98.5 26t-29.5 80t29.5 80t98.5 26t98.5 -26zM380.5 808q13.5 12 13.5 37t-13.5 36.5t-47.5 11.5q-35 0 -48 -11.5
t-13 -36.5t13 -37t48 -12q34 0 47.5 12z" />
    <glyph glyph-name="Aringacute" unicode="&#x1fa;" horiz-adv-x="666" 
d="M371 1152h127l-109 -152h-102zM474 157h-284l-55 -157h-126l250 680h148l250 -680h-128zM437 262l-105 296l-105 -296h210zM431.5 924q29.5 -26 29.5 -80t-29.5 -80t-98.5 -26t-98.5 26t-29.5 80t29.5 80t98.5 26t98.5 -26zM380.5 808q13.5 12 13.5 37t-13.5 36.5
t-47.5 11.5q-35 0 -48 -11.5t-13 -36.5t13 -37t48 -12q34 0 47.5 12z" />
    <glyph glyph-name="Atilde" unicode="&#xc3;" horiz-adv-x="666" 
d="M474 157h-284l-55 -157h-126l250 680h148l250 -680h-128zM437 262l-105 296l-105 -296h210zM505 876q0 -68 -25 -97t-78 -29q-26 0 -44.5 8t-42.5 23q-17 11 -25.5 15t-18.5 4q-17 0 -24 -10t-9 -35h-77q0 68 25 97.5t78 29.5q26 0 45.5 -8.5t41.5 -23.5q17 -11 25.5 -15
t18.5 -4q17 0 24 10t9 35h77z" />
    <glyph glyph-name="AE" unicode="&#xc6;" horiz-adv-x="910" 
d="M860 112l-26 -112h-408v159h-235l-54 -159h-128l238 680h598v-112h-297v-169h281v-108h-281v-179h312zM426 271v297h-95l-102 -297h197z" />
    <glyph glyph-name="AEacute" unicode="&#x1fc;" horiz-adv-x="910" 
d="M860 112l-26 -112h-408v159h-235l-54 -159h-128l238 680h598v-112h-297v-169h281v-108h-281v-179h312zM426 271v297h-95l-102 -297h197zM561 902h127l-109 -152h-102z" />
    <glyph glyph-name="Cacute" unicode="&#x106;" horiz-adv-x="585" 
d="M179.5 22q-65.5 32 -98 108t-32.5 210q0 131 32 207.5t97.5 109.5t172.5 33q47 0 98.5 -6.5t86.5 -16.5v-117q-80 25 -171 25q-74 0 -115 -20.5t-59 -71t-18 -143.5q0 -94 18 -144t59 -70.5t115 -20.5q91 0 171 25v-117q-35 -10 -86.5 -16.5t-98.5 -6.5q-106 0 -171.5 32
zM357 902h127l-109 -152h-102z" />
    <glyph glyph-name="Ccaron" unicode="&#x10c;" horiz-adv-x="585" 
d="M179.5 22q-65.5 32 -98 108t-32.5 210q0 131 32 207.5t97.5 109.5t172.5 33q47 0 98.5 -6.5t86.5 -16.5v-117q-80 25 -171 25q-74 0 -115 -20.5t-59 -71t-18 -143.5q0 -94 18 -144t59 -70.5t115 -20.5q91 0 171 25v-117q-35 -10 -86.5 -16.5t-98.5 -6.5q-106 0 -171.5 32
zM275 902l68 -80l65 80h119l-133 -152h-102l-136 152h119z" />
    <glyph glyph-name="Ccedilla" unicode="&#xc7;" horiz-adv-x="585" 
d="M179.5 22q-65.5 32 -98 108t-32.5 210q0 131 32 207.5t97.5 109.5t172.5 33q47 0 98.5 -6.5t86.5 -16.5v-117q-80 25 -171 25q-74 0 -115 -20.5t-59 -71t-18 -143.5q0 -94 18 -144t59 -70.5t115 -20.5q91 0 171 25v-117q-35 -10 -86.5 -16.5t-98.5 -6.5q-106 0 -171.5 32
zM259 -138q23 -5 62 -5q29 0 41.5 5.5t12.5 20.5q0 11 -8 17t-29 8t-62 2l25 90h72l-12 -45q57 -1 81 -20.5t24 -57.5q0 -87 -130 -87q-49 0 -77 5v67z" />
    <glyph glyph-name="Ccircumflex" unicode="&#x108;" horiz-adv-x="585" 
d="M179.5 22q-65.5 32 -98 108t-32.5 210q0 131 32 207.5t97.5 109.5t172.5 33q47 0 98.5 -6.5t86.5 -16.5v-117q-80 25 -171 25q-74 0 -115 -20.5t-59 -71t-18 -143.5q0 -94 18 -144t59 -70.5t115 -20.5q91 0 171 25v-117q-35 -10 -86.5 -16.5t-98.5 -6.5q-106 0 -171.5 32
zM279 902h102l133 -152h-119l-65 80l-68 -80h-119z" />
    <glyph glyph-name="Cdotaccent" unicode="&#x10a;" horiz-adv-x="585" 
d="M179.5 22q-65.5 32 -98 108t-32.5 210q0 131 32 207.5t97.5 109.5t172.5 33q47 0 98.5 -6.5t86.5 -16.5v-117q-80 25 -171 25q-74 0 -115 -20.5t-59 -71t-18 -143.5q0 -94 18 -144t59 -70.5t115 -20.5q91 0 171 25v-117q-35 -10 -86.5 -16.5t-98.5 -6.5q-106 0 -171.5 32
zM275 866h130v-112h-130v112z" />
    <glyph glyph-name="Eth" unicode="&#xd0;" horiz-adv-x="665" 
d="M483.5 650q65.5 -30 99 -104t33.5 -205q0 -130 -34 -204.5t-100 -105.5t-168 -31h-234v680h235q103 0 168.5 -30zM420.5 135.5q39.5 23.5 55.5 73t16 132.5q0 86 -15.5 134.5t-53 70.5t-107.5 22h-114v-456h108q71 0 110.5 23.5zM17 376h344v-71h-344v71z" />
    <glyph glyph-name="Dcaron" unicode="&#x10e;" horiz-adv-x="665" 
d="M483.5 650q65.5 -30 99 -104t33.5 -205q0 -130 -34 -204.5t-100 -105.5t-168 -31h-234v680h235q103 0 168.5 -30zM420.5 135.5q39.5 23.5 55.5 73t16 132.5q0 86 -15.5 134.5t-53 70.5t-107.5 22h-114v-456h108q71 0 110.5 23.5zM254 902l68 -80l65 80h119l-133 -152
h-102l-136 152h119z" />
    <glyph glyph-name="Dcroat" unicode="&#x110;" horiz-adv-x="665" 
d="M483.5 650q65.5 -30 99 -104t33.5 -205q0 -130 -34 -204.5t-100 -105.5t-168 -31h-234v680h235q103 0 168.5 -30zM420.5 135.5q39.5 23.5 55.5 73t16 132.5q0 86 -15.5 134.5t-53 70.5t-107.5 22h-114v-456h108q71 0 110.5 23.5zM17 376h344v-71h-344v71z" />
    <glyph glyph-name="Eacute" unicode="&#xc9;" horiz-adv-x="594" 
d="M544 112l-25 -112h-439v680h449v-112h-327v-169h311v-108h-311v-179h342zM316 902h127l-109 -152h-102z" />
    <glyph glyph-name="Ebreve" unicode="&#x114;" horiz-adv-x="594" 
d="M544 112l-25 -112h-439v680h449v-112h-327v-169h311v-108h-311v-179h342zM186.5 778.5q-40.5 30.5 -41.5 106.5h93q1 -35 19.5 -49.5t55.5 -14.5t55.5 14.5t19.5 49.5h93q-1 -76 -41.5 -106.5t-126.5 -30.5t-126.5 30.5z" />
    <glyph glyph-name="Ecaron" unicode="&#x11a;" horiz-adv-x="594" 
d="M544 112l-25 -112h-439v680h449v-112h-327v-169h311v-108h-311v-179h342zM246 902l68 -80l65 80h119l-133 -152h-102l-136 152h119z" />
    <glyph glyph-name="Ecircumflex" unicode="&#xca;" horiz-adv-x="594" 
d="M544 112l-25 -112h-439v680h449v-112h-327v-169h311v-108h-311v-179h342zM263 902h102l133 -152h-119l-65 80l-68 -80h-119z" />
    <glyph glyph-name="uni1EBE" unicode="&#x1ebe;" horiz-adv-x="594" 
d="M544 112l-25 -112h-439v680h449v-112h-327v-169h311v-108h-311v-179h342zM271 880h102l131 -132h-122l-60 67l-63 -67h-121zM494 999h125l-102 -126h-98z" />
    <glyph glyph-name="uni1EC6" unicode="&#x1ec6;" horiz-adv-x="594" 
d="M544 112l-25 -112h-439v680h449v-112h-327v-169h311v-108h-311v-179h342zM247 -73h131v-113h-131v113zM263 902h102l133 -152h-119l-65 80l-68 -80h-119z" />
    <glyph glyph-name="uni1EC0" unicode="&#x1ec0;" horiz-adv-x="594" 
d="M544 112l-25 -112h-439v680h449v-112h-327v-169h311v-108h-311v-179h342zM357 880h-102l-131 -132h122l60 67l63 -67h121zM446 999h-125l102 -126h98z" />
    <glyph glyph-name="uni1EC2" unicode="&#x1ec2;" horiz-adv-x="594" 
d="M544 112l-25 -112h-439v680h449v-112h-327v-169h311v-108h-311v-179h342zM257 880h102l131 -132h-122l-60 67l-63 -67h-121zM408 896q57 12 57 38q0 27 -42 27q-30 0 -60 -7v77q33 9 79 9q48 0 83 -22.5t35 -63.5q0 -44 -31 -72.5t-87 -41.5z" />
    <glyph glyph-name="uni1EC4" unicode="&#x1ec4;" horiz-adv-x="594" 
d="M544 112l-25 -112h-439v680h449v-112h-327v-169h311v-108h-311v-179h342zM258 859.424h102l131 -115.984h-122l-60 58.8711l-63 -58.8711h-121zM471 1010q0 -66 -24 -92t-75 -26q-24 0 -41 7t-39 20q-10 6 -20.5 11t-19.5 5q-15 0 -21.5 -8.5t-8.5 -29.5h-76
q0 66 24 92.5t75 26.5q24 0 41 -7t39 -20q14 -9 22.5 -13t17.5 -4q15 0 22 8.5t8 29.5h76z" />
    <glyph glyph-name="Edieresis" unicode="&#xcb;" horiz-adv-x="594" 
d="M544 112l-25 -112h-439v680h449v-112h-327v-169h311v-108h-311v-179h342zM158 866h113v-111h-113v111zM355 866h113v-111h-113v111z" />
    <glyph glyph-name="Edotaccent" unicode="&#x116;" horiz-adv-x="594" 
d="M544 112l-25 -112h-439v680h449v-112h-327v-169h311v-108h-311v-179h342zM248 866h130v-112h-130v112z" />
    <glyph glyph-name="uni1EB8" unicode="&#x1eb8;" horiz-adv-x="594" 
d="M544 112l-25 -112h-439v680h449v-112h-327v-169h311v-108h-311v-179h342zM243 -73h131v-113h-131v113z" />
    <glyph glyph-name="Egrave" unicode="&#xc8;" horiz-adv-x="594" 
d="M544 112l-25 -112h-439v680h449v-112h-327v-169h311v-108h-311v-179h342zM279 750l-109 152h127l84 -152h-102z" />
    <glyph glyph-name="uni1EBA" unicode="&#x1eba;" horiz-adv-x="594" 
d="M544 112l-25 -112h-439v680h449v-112h-327v-169h311v-108h-311v-179h342zM258 794q33 8 53 22t20 30q0 31 -49 31q-30 0 -50.5 -4.5t-23.5 -5.5v72q45 9 87 9q52 0 85.5 -22t33.5 -67t-31.5 -76t-91.5 -45z" />
    <glyph glyph-name="Emacron" unicode="&#x112;" horiz-adv-x="594" 
d="M544 112l-25 -112h-439v680h449v-112h-327v-169h311v-108h-311v-179h342zM158 862h300v-91h-300v91z" />
    <glyph glyph-name="Eogonek" unicode="&#x118;" horiz-adv-x="594" 
d="M446 -61.5q-19 -21.5 -19 -40.5q0 -13 8.5 -19t30.5 -6q25 0 53 6v-80q-34 -9 -74 -9q-66 0 -90.5 22.5t-24.5 59.5q0 34 20.5 62t69.5 66h-340v680h449v-112h-327v-169h311v-108h-311v-179h342l-25 -112q-54 -40 -73 -61.5z" />
    <glyph glyph-name="uni1EBC" unicode="&#x1ebc;" horiz-adv-x="594" 
d="M544 112l-25 -112h-439v680h449v-112h-327v-169h311v-108h-311v-179h342zM485 876q0 -68 -25 -97t-78 -29q-26 0 -44.5 8t-42.5 23q-17 11 -25.5 15t-18.5 4q-17 0 -24 -10t-9 -35h-77q0 68 25 97.5t78 29.5q26 0 45.5 -8.5t41.5 -23.5q17 -11 25.5 -15t18.5 -4
q17 0 24 10t9 35h77z" />
    <glyph glyph-name="Gbreve" unicode="&#x11e;" horiz-adv-x="652" 
d="M185 20q-68 30 -102 106t-34 214t33.5 214t102 106t184.5 30q56 0 100.5 -5.5t95.5 -16.5v-117q-91 24 -181 24q-83 0 -127 -18t-64 -68t-20 -149q0 -100 19 -150t58.5 -67t112.5 -17q70 0 113 13v229l120 31v-353q-64 -19 -116 -27.5t-113 -8.5q-114 0 -182 30z
M233.5 778.5q-40.5 30.5 -41.5 106.5h93q1 -35 19.5 -49.5t55.5 -14.5t55.5 14.5t19.5 49.5h93q-1 -76 -41.5 -106.5t-126.5 -30.5t-126.5 30.5z" />
    <glyph glyph-name="Gcaron" unicode="&#x1e6;" horiz-adv-x="652" 
d="M185 20q-68 30 -102 106t-34 214t33.5 214t102 106t184.5 30q56 0 100.5 -5.5t95.5 -16.5v-117q-91 24 -181 24q-83 0 -127 -18t-64 -68t-20 -149q0 -100 19 -150t58.5 -67t112.5 -17q70 0 113 13v229l120 31v-353q-64 -19 -116 -27.5t-113 -8.5q-114 0 -182 30zM298 902
l68 -80l65 80h119l-133 -152h-102l-136 152h119z" />
    <glyph glyph-name="Gcircumflex" unicode="&#x11c;" horiz-adv-x="652" 
d="M185 20q-68 30 -102 106t-34 214t33.5 214t102 106t184.5 30q56 0 100.5 -5.5t95.5 -16.5v-117q-91 24 -181 24q-83 0 -127 -18t-64 -68t-20 -149q0 -100 19 -150t58.5 -67t112.5 -17q70 0 113 13v229l120 31v-353q-64 -19 -116 -27.5t-113 -8.5q-114 0 -182 30zM309 902
h102l133 -152h-119l-65 80l-68 -80h-119z" />
    <glyph glyph-name="Gcommaaccent" unicode="&#x122;" horiz-adv-x="652" 
d="M185 20q-68 30 -102 106t-34 214t33.5 214t102 106t184.5 30q56 0 100.5 -5.5t95.5 -16.5v-117q-91 24 -181 24q-83 0 -127 -18t-64 -68t-20 -149q0 -100 19 -150t58.5 -67t112.5 -17q70 0 113 13v229l120 31v-353q-64 -19 -116 -27.5t-113 -8.5q-114 0 -182 30zM305 -50
h124l-54 -150h-109z" />
    <glyph glyph-name="Gdotaccent" unicode="&#x120;" horiz-adv-x="652" 
d="M185 20q-68 30 -102 106t-34 214t33.5 214t102 106t184.5 30q56 0 100.5 -5.5t95.5 -16.5v-117q-91 24 -181 24q-83 0 -127 -18t-64 -68t-20 -149q0 -100 19 -150t58.5 -67t112.5 -17q70 0 113 13v229l120 31v-353q-64 -19 -116 -27.5t-113 -8.5q-114 0 -182 30zM288 866
h130v-112h-130v112z" />
    <glyph glyph-name="Hbar" unicode="&#x126;" horiz-adv-x="699" 
d="M618 680v-680h-122v288h-294v-288h-122v680h122v-280h294v280h122zM25 581h650v-76h-650v76z" />
    <glyph glyph-name="Hcircumflex" unicode="&#x124;" horiz-adv-x="699" 
d="M618 680v-680h-122v288h-294v-288h-122v680h122v-280h294v280h122zM300 902h102l133 -152h-119l-65 80l-68 -80h-119z" />
    <glyph glyph-name="Iacute" unicode="&#xcd;" horiz-adv-x="283" 
d="M80 680h122v-680h-122v680zM165 902h127l-109 -152h-102z" />
    <glyph glyph-name="Ibreve" unicode="&#x12c;" horiz-adv-x="283" 
d="M80 680h122v-680h-122v680zM14.5 778.5q-40.5 30.5 -41.5 106.5h93q1 -35 19.5 -49.5t55.5 -14.5t55.5 14.5t19.5 49.5h93q-1 -76 -41.5 -106.5t-126.5 -30.5t-126.5 30.5z" />
    <glyph glyph-name="Icircumflex" unicode="&#xce;" horiz-adv-x="283" 
d="M80 680h122v-680h-122v680zM92 902h102l133 -152h-119l-65 80l-68 -80h-119z" />
    <glyph glyph-name="Idieresis" unicode="&#xcf;" horiz-adv-x="283" 
d="M80 680h122v-680h-122v680zM-13 866h113v-111h-113v111zM184 866h113v-111h-113v111z" />
    <glyph glyph-name="Idotaccent" unicode="&#x130;" horiz-adv-x="283" 
d="M80 680h122v-680h-122v680zM77 866h130v-112h-130v112z" />
    <glyph glyph-name="uni1ECA" unicode="&#x1eca;" horiz-adv-x="283" 
d="M80 680h122v-680h-122v680zM76 -73h131v-113h-131v113z" />
    <glyph glyph-name="Igrave" unicode="&#xcc;" horiz-adv-x="283" 
d="M203 680h-122v-680h122v680zM118 902h-127l109 -152h102z" />
    <glyph glyph-name="uni1EC8" unicode="&#x1ec8;" horiz-adv-x="283" 
d="M79 680h122v-680h-122v680zM91 794q33 8 53 22t20 30q0 31 -49 31q-30 0 -50.5 -4.5t-23.5 -5.5v72q45 9 87 9q52 0 85.5 -22t33.5 -67t-31.5 -76t-91.5 -45z" />
    <glyph glyph-name="Imacron" unicode="&#x12a;" horiz-adv-x="283" 
d="M80 680h122v-680h-122v680zM-9 862h300v-91h-300v91z" />
    <glyph glyph-name="Iogonek" unicode="&#x12e;" horiz-adv-x="283" 
d="M129 -61.5q-19 -21.5 -19 -40.5q0 -13 8.5 -19t31.5 -6q24 0 52 6v-80q-34 -9 -73 -9q-66 0 -90.5 22.5t-24.5 59.5q0 34 20 61.5t69 66.5h-23v680h122v-680q-54 -40 -73 -61.5z" />
    <glyph glyph-name="Itilde" unicode="&#x128;" horiz-adv-x="283" 
d="M80 680h122v-680h-122v680zM313 870q0 -68 -25 -97t-78 -29q-26 0 -44.5 8t-42.5 23q-17 11 -25.5 15t-18.5 4q-17 0 -24 -10t-9 -35h-77q0 68 25 97.5t78 29.5q26 0 45.5 -8.5t41.5 -23.5q17 -11 25.5 -15t18.5 -4q17 0 24 10t9 35h77z" />
    <glyph glyph-name="Jcircumflex" unicode="&#x134;" horiz-adv-x="525" 
d="M455 198q0 -79 -27 -124.5t-80.5 -64.5t-139.5 -19q-55 0 -97.5 6.5t-67.5 15.5v117q77 -24 152 -24q47 0 76 7.5t45.5 30t16.5 66.5v359h-277l26 112h373v-482zM208 902h102l133 -152h-119l-65 80l-68 -80h-119z" />
    <glyph glyph-name="Kcommaaccent" unicode="&#x136;" horiz-adv-x="632" 
d="M478 0l-276 325v-325h-122v680h122v-323l261 323h152l-283 -337l301 -343h-155zM263 -50h124l-54 -150h-109z" />
    <glyph glyph-name="Lacute" unicode="&#x139;" horiz-adv-x="543" 
d="M80 680h122v-567h321l-23 -113h-420v680zM166 902h127l-109 -152h-102z" />
    <glyph glyph-name="Lcaron" unicode="&#x13d;" horiz-adv-x="543" 
d="M80 680h122v-567h321l-23 -113h-420v680zM323 680h123l-64 -210h-105z" />
    <glyph glyph-name="Lcommaaccent" unicode="&#x13b;" horiz-adv-x="543" 
d="M80 680h122v-567h321l-23 -113h-420v680zM250 -50h124l-54 -150h-109z" />
    <glyph glyph-name="Ldot" unicode="&#x13f;" horiz-adv-x="543" 
d="M80 680h122v-567h321l-23 -113h-420v680zM305 369h129v-131h-129v131z" />
    <glyph glyph-name="Lslash" unicode="&#x141;" horiz-adv-x="543" 
d="M523 113l-23 -113h-420v281l-60 -19v92l60 19v307h122v-269l204 63v-92l-204 -63v-206h321z" />
    <glyph glyph-name="Nacute" unicode="&#x143;" horiz-adv-x="704" 
d="M80 680h104l318 -466v466h122v-680h-103l-319 462v-462h-122v680zM368 902h127l-109 -152h-102z" />
    <glyph glyph-name="Ncaron" unicode="&#x147;" horiz-adv-x="704" 
d="M80 680h104l318 -466v466h122v-680h-103l-319 462v-462h-122v680zM289 902l68 -80l65 80h119l-133 -152h-102l-136 152h119z" />
    <glyph glyph-name="Ncommaaccent" unicode="&#x145;" horiz-adv-x="704" 
d="M80 680h104l318 -466v466h122v-680h-103l-319 462v-462h-122v680zM294 -50h124l-54 -150h-109z" />
    <glyph glyph-name="Eng" unicode="&#x14a;" horiz-adv-x="704" 
d="M624 680v-692q0 -65 -29.5 -105t-86 -61t-146.5 -32v112q69 11 104.5 31t35.5 67v28l-300 434v-462h-122v680h104l318 -466v466h122z" />
    <glyph glyph-name="uni019D" unicode="&#x19d;" horiz-adv-x="704" 
d="M624 680v-680h-103l-319 462v-482q0 -94 -51.5 -135.5t-159.5 -54.5v115q33 6 50 12.5t28 24t11 51.5v687h104l318 -466v466h122z" />
    <glyph glyph-name="Ntilde" unicode="&#xd1;" horiz-adv-x="704" 
d="M80 680h104l318 -466v466h122v-680h-103l-319 462v-462h-122v680zM524 876q0 -68 -25 -97t-78 -29q-26 0 -44.5 8t-42.5 23q-17 11 -25.5 15t-18.5 4q-17 0 -24 -10t-9 -35h-77q0 68 25 97.5t78 29.5q26 0 45.5 -8.5t41.5 -23.5q17 -11 25.5 -15t18.5 -4q17 0 24 10t9 35
h77z" />
    <glyph glyph-name="Oacute" unicode="&#xd3;" horiz-adv-x="674" 
d="M168 23.5q-62 33.5 -90.5 109t-28.5 207.5t28.5 207.5t90.5 109t169 33.5t169.5 -33.5t90.5 -109t28 -207.5t-28.5 -207.5t-90.5 -109t-169 -33.5t-169 33.5zM437 127.5q35 22.5 49.5 72.5t14.5 140q0 91 -14 141t-49 72t-101 22q-65 0 -100.5 -22t-49.5 -72t-14 -141
q0 -90 14.5 -140t50 -72.5t99.5 -22.5q65 0 100 22.5zM361 902h127l-109 -152h-102z" />
    <glyph glyph-name="Obreve" unicode="&#x14e;" horiz-adv-x="674" 
d="M168 23.5q-62 33.5 -90.5 109t-28.5 207.5t28.5 207.5t90.5 109t169 33.5t169.5 -33.5t90.5 -109t28 -207.5t-28.5 -207.5t-90.5 -109t-169 -33.5t-169 33.5zM437 127.5q35 22.5 49.5 72.5t14.5 140q0 91 -14 141t-49 72t-101 22q-65 0 -100.5 -22t-49.5 -72t-14 -141
q0 -90 14.5 -140t50 -72.5t99.5 -22.5q65 0 100 22.5zM210.5 778.5q-40.5 30.5 -41.5 106.5h93q1 -35 19.5 -49.5t55.5 -14.5t55.5 14.5t19.5 49.5h93q-1 -76 -41.5 -106.5t-126.5 -30.5t-126.5 30.5z" />
    <glyph glyph-name="Ocircumflex" unicode="&#xd4;" horiz-adv-x="674" 
d="M168 23.5q-62 33.5 -90.5 109t-28.5 207.5t28.5 207.5t90.5 109t169 33.5t169.5 -33.5t90.5 -109t28 -207.5t-28.5 -207.5t-90.5 -109t-169 -33.5t-169 33.5zM437 127.5q35 22.5 49.5 72.5t14.5 140q0 91 -14 141t-49 72t-101 22q-65 0 -100.5 -22t-49.5 -72t-14 -141
q0 -90 14.5 -140t50 -72.5t99.5 -22.5q65 0 100 22.5zM287 902h102l133 -152h-119l-65 80l-68 -80h-119z" />
    <glyph glyph-name="uni1ED0" unicode="&#x1ed0;" horiz-adv-x="680" 
d="M168 23.5q-62 33.5 -90.5 109t-28.5 207.5t28.5 207.5t90.5 109t169 33.5t169.5 -33.5t90.5 -109t28 -207.5t-28.5 -207.5t-90.5 -109t-169 -33.5t-169 33.5zM437 127.5q35 22.5 49.5 72.5t14.5 140q0 91 -14 141t-49 72t-101 22q-65 0 -100.5 -22t-49.5 -72t-14 -141
q0 -90 14.5 -140t50 -72.5t99.5 -22.5q65 0 100 22.5zM292 880h102l131 -132h-122l-60 67l-63 -67h-121zM515 999h125l-102 -126h-98z" />
    <glyph glyph-name="uni1ED8" unicode="&#x1ed8;" horiz-adv-x="674" 
d="M168 23.5q-62 33.5 -90.5 109t-28.5 207.5t28.5 207.5t90.5 109t169 33.5t169.5 -33.5t90.5 -109t28 -207.5t-28.5 -207.5t-90.5 -109t-169 -33.5t-169 33.5zM437 127.5q35 22.5 49.5 72.5t14.5 140q0 91 -14 141t-49 72t-101 22q-65 0 -100.5 -22t-49.5 -72t-14 -141
q0 -90 14.5 -140t50 -72.5t99.5 -22.5q65 0 100 22.5zM272 -73h131v-113h-131v113zM287 902h102l133 -152h-119l-65 80l-68 -80h-119z" />
    <glyph glyph-name="uni1ED2" unicode="&#x1ed2;" horiz-adv-x="674" 
d="M168 23.5q-62 33.5 -90.5 109t-28.5 207.5t28.5 207.5t90.5 109t169 33.5t169.5 -33.5t90.5 -109t28 -207.5t-28.5 -207.5t-90.5 -109t-169 -33.5t-169 33.5zM437 127.5q35 22.5 49.5 72.5t14.5 140q0 91 -14 141t-49 72t-101 22q-65 0 -100.5 -22t-49.5 -72t-14 -141
q0 -90 14.5 -140t50 -72.5t99.5 -22.5q65 0 100 22.5zM390 880h-102l-131 -132h122l60 67l63 -67h121zM479 999h-125l102 -126h98z" />
    <glyph glyph-name="uni1ED4" unicode="&#x1ed4;" horiz-adv-x="674" 
d="M168 23.5q-62 33.5 -90.5 109t-28.5 207.5t28.5 207.5t90.5 109t169 33.5t169.5 -33.5t90.5 -109t28 -207.5t-28.5 -207.5t-90.5 -109t-169 -33.5t-169 33.5zM437 127.5q35 22.5 49.5 72.5t14.5 140q0 91 -14 141t-49 72t-101 22q-65 0 -100.5 -22t-49.5 -72t-14 -141
q0 -90 14.5 -140t50 -72.5t99.5 -22.5q65 0 100 22.5zM274 880h102l131 -132h-122l-60 67l-63 -67h-121zM425 896q57 12 57 38q0 27 -42 27q-30 0 -60 -7v77q33 9 79 9q48 0 83 -22.5t35 -63.5q0 -44 -31 -72.5t-87 -41.5z" />
    <glyph glyph-name="uni1ED6" unicode="&#x1ed6;" horiz-adv-x="674" 
d="M168 23.5q-62 33.5 -90.5 109t-28.5 207.5t28.5 207.5t90.5 109t169 33.5t169.5 -33.5t90.5 -109t28 -207.5t-28.5 -207.5t-90.5 -109t-169 -33.5t-169 33.5zM437 127.5q35 22.5 49.5 72.5t14.5 140q0 91 -14 141t-49 72t-101 22q-65 0 -100.5 -22t-49.5 -72t-14 -141
q0 -90 14.5 -140t50 -72.5t99.5 -22.5q65 0 100 22.5zM287 859.424h102l131 -115.984h-122l-60 58.8711l-63 -58.8711h-121zM500 1010q0 -66 -24 -92t-75 -26q-24 0 -41 7t-39 20q-10 6 -20.5 11t-19.5 5q-15 0 -21.5 -8.5t-8.5 -29.5h-76q0 66 24 92.5t75 26.5q24 0 41 -7
t39 -20q14 -9 22.5 -13t17.5 -4q15 0 22 8.5t8 29.5h76z" />
    <glyph glyph-name="Odieresis" unicode="&#xd6;" horiz-adv-x="674" 
d="M168 23.5q-62 33.5 -90.5 109t-28.5 207.5t28.5 207.5t90.5 109t169 33.5t169.5 -33.5t90.5 -109t28 -207.5t-28.5 -207.5t-90.5 -109t-169 -33.5t-169 33.5zM437 127.5q35 22.5 49.5 72.5t14.5 140q0 91 -14 141t-49 72t-101 22q-65 0 -100.5 -22t-49.5 -72t-14 -141
q0 -90 14.5 -140t50 -72.5t99.5 -22.5q65 0 100 22.5zM182 866h113v-111h-113v111zM379 866h113v-111h-113v111z" />
    <glyph glyph-name="uni1ECC" unicode="&#x1ecc;" horiz-adv-x="674" 
d="M168 23.5q-62 33.5 -90.5 109t-28.5 207.5t28.5 207.5t90.5 109t169 33.5t169.5 -33.5t90.5 -109t28 -207.5t-28.5 -207.5t-90.5 -109t-169 -33.5t-169 33.5zM437 127.5q35 22.5 49.5 72.5t14.5 140q0 91 -14 141t-49 72t-101 22q-65 0 -100.5 -22t-49.5 -72t-14 -141
q0 -90 14.5 -140t50 -72.5t99.5 -22.5q65 0 100 22.5zM272 -73h131v-113h-131v113z" />
    <glyph glyph-name="Ograve" unicode="&#xd2;" horiz-adv-x="674" 
d="M506 23.5q62 33.5 90.5 109t28.5 207.5t-28.5 207.5t-90.5 109t-169 33.5t-169.5 -33.5t-90.5 -109t-28 -207.5t28.5 -207.5t90.5 -109t169 -33.5t169 33.5zM237 127.5q-35 22.5 -49.5 72.5t-14.5 140q0 91 14 141t49 72t101 22q65 0 100.5 -22t49.5 -72t14 -141
q0 -90 -14.5 -140t-50 -72.5t-99.5 -22.5q-65 0 -100 22.5zM313 902h-127l109 -152h102z" />
    <glyph glyph-name="uni1ECE" unicode="&#x1ece;" horiz-adv-x="674" 
d="M168 23.5q-62 33.5 -90.5 109t-28.5 207.5t28.5 207.5t90.5 109t169 33.5t169.5 -33.5t90.5 -109t28 -207.5t-28.5 -207.5t-90.5 -109t-169 -33.5t-169 33.5zM437 127.5q35 22.5 49.5 72.5t14.5 140q0 91 -14 141t-49 72t-101 22q-65 0 -100.5 -22t-49.5 -72t-14 -141
q0 -90 14.5 -140t50 -72.5t99.5 -22.5q65 0 100 22.5zM302 794q33 8 53 22t20 30q0 31 -49 31q-30 0 -50.5 -4.5t-23.5 -5.5v72q45 9 87 9q52 0 85.5 -22t33.5 -67t-31.5 -76t-91.5 -45z" />
    <glyph glyph-name="Ohorn" unicode="&#x1a0;" horiz-adv-x="674" 
d="M168 23.5q-62 33.5 -90.5 109t-28.5 207.5t28.5 207.5t90.5 109t169 33.5t169.5 -33.5t90.5 -109t28 -207.5t-28.5 -207.5t-90.5 -109t-169 -33.5t-169 33.5zM437 127.5q35 22.5 49.5 72.5t14.5 140q0 91 -14 141t-49 72t-101 22q-65 0 -100.5 -22t-49.5 -72t-14 -141
q0 -90 14.5 -140t50 -72.5t99.5 -22.5q65 0 100 22.5zM497 686.5q11 27.5 11 77.5q0 24 -3 42h108q4 -30 4 -54q0 -67 -38 -113t-107 -57l-12 60q26 17 37 44.5z" />
    <glyph glyph-name="uni1EDA" unicode="&#x1eda;" horiz-adv-x="674" 
d="M168 23.5q-62 33.5 -90.5 109t-28.5 207.5t28.5 207.5t90.5 109t169 33.5t169.5 -33.5t90.5 -109t28 -207.5t-28.5 -207.5t-90.5 -109t-169 -33.5t-169 33.5zM437 127.5q35 22.5 49.5 72.5t14.5 140q0 91 -14 141t-49 72t-101 22q-65 0 -100.5 -22t-49.5 -72t-14 -141
q0 -90 14.5 -140t50 -72.5t99.5 -22.5q65 0 100 22.5zM497 686.5q11 27.5 11 77.5q0 24 -3 42h108q4 -30 4 -54q0 -67 -38 -113t-107 -57l-12 60q26 17 37 44.5zM338 902h127l-109 -152h-102z" />
    <glyph glyph-name="uni1EE2" unicode="&#x1ee2;" horiz-adv-x="674" 
d="M168 23.5q-62 33.5 -90.5 109t-28.5 207.5t28.5 207.5t90.5 109t169 33.5t169.5 -33.5t90.5 -109t28 -207.5t-28.5 -207.5t-90.5 -109t-169 -33.5t-169 33.5zM437 127.5q35 22.5 49.5 72.5t14.5 140q0 91 -14 141t-49 72t-101 22q-65 0 -100.5 -22t-49.5 -72t-14 -141
q0 -90 14.5 -140t50 -72.5t99.5 -22.5q65 0 100 22.5zM497 686.5q11 27.5 11 77.5q0 24 -3 42h108q4 -30 4 -54q0 -67 -38 -113t-107 -57l-12 60q26 17 37 44.5zM275 -73h131v-113h-131v113z" />
    <glyph glyph-name="uni1EDC" unicode="&#x1edc;" horiz-adv-x="674" 
d="M168 23.5q-62 33.5 -90.5 109t-28.5 207.5t28.5 207.5t90.5 109t169 33.5t169.5 -33.5t90.5 -109t28 -207.5t-28.5 -207.5t-90.5 -109t-169 -33.5t-169 33.5zM437 127.5q35 22.5 49.5 72.5t14.5 140q0 91 -14 141t-49 72t-101 22q-65 0 -100.5 -22t-49.5 -72t-14 -141
q0 -90 14.5 -140t50 -72.5t99.5 -22.5q65 0 100 22.5zM497 686.5q11 27.5 11 77.5q0 24 -3 42h108q4 -30 4 -54q0 -67 -38 -113t-107 -57l-12 60q26 17 37 44.5zM303 750l-109 152h127l84 -152h-102z" />
    <glyph glyph-name="uni1EDE" unicode="&#x1ede;" horiz-adv-x="674" 
d="M168 23.5q-62 33.5 -90.5 109t-28.5 207.5t28.5 207.5t90.5 109t169 33.5t169.5 -33.5t90.5 -109t28 -207.5t-28.5 -207.5t-90.5 -109t-169 -33.5t-169 33.5zM437 127.5q35 22.5 49.5 72.5t14.5 140q0 91 -14 141t-49 72t-101 22q-65 0 -100.5 -22t-49.5 -72t-14 -141
q0 -90 14.5 -140t50 -72.5t99.5 -22.5q65 0 100 22.5zM497 686.5q11 27.5 11 77.5q0 24 -3 42h108q4 -30 4 -54q0 -67 -38 -113t-107 -57l-12 60q26 17 37 44.5zM290 794q33 8 53 22t20 30q0 31 -49 31q-30 0 -50.5 -4.5t-23.5 -5.5v72q45 9 87 9q52 0 85.5 -22t33.5 -67
t-31.5 -76t-91.5 -45z" />
    <glyph glyph-name="uni1EE0" unicode="&#x1ee0;" horiz-adv-x="674" 
d="M168 23.5q-62 33.5 -90.5 109t-28.5 207.5t28.5 207.5t90.5 109t169 33.5t169.5 -33.5t90.5 -109t28 -207.5t-28.5 -207.5t-90.5 -109t-169 -33.5t-169 33.5zM437 127.5q35 22.5 49.5 72.5t14.5 140q0 91 -14 141t-49 72t-101 22q-65 0 -100.5 -22t-49.5 -72t-14 -141
q0 -90 14.5 -140t50 -72.5t99.5 -22.5q65 0 100 22.5zM497 686.5q11 27.5 11 77.5q0 24 -3 42h108q4 -30 4 -54q0 -67 -38 -113t-107 -57l-12 60q26 17 37 44.5zM471 876q0 -68 -25 -97t-78 -29q-26 0 -44.5 8t-42.5 23q-17 11 -25.5 15t-18.5 4q-17 0 -24 -10t-9 -35h-77
q0 68 25 97.5t78 29.5q26 0 45.5 -8.5t41.5 -23.5q17 -11 25.5 -15t18.5 -4q17 0 24 10t9 35h77z" />
    <glyph glyph-name="Ohungarumlaut" unicode="&#x150;" horiz-adv-x="674" 
d="M168 23.5q-62 33.5 -90.5 109t-28.5 207.5t28.5 207.5t90.5 109t169 33.5t169.5 -33.5t90.5 -109t28 -207.5t-28.5 -207.5t-90.5 -109t-169 -33.5t-169 33.5zM437 127.5q35 22.5 49.5 72.5t14.5 140q0 91 -14 141t-49 72t-101 22q-65 0 -100.5 -22t-49.5 -72t-14 -141
q0 -90 14.5 -140t50 -72.5t99.5 -22.5q65 0 100 22.5zM270 902h127l-109 -152h-102zM442 902h127l-109 -152h-102z" />
    <glyph glyph-name="Omacron" unicode="&#x14c;" horiz-adv-x="674" 
d="M168 23.5q-62 33.5 -90.5 109t-28.5 207.5t28.5 207.5t90.5 109t169 33.5t169.5 -33.5t90.5 -109t28 -207.5t-28.5 -207.5t-90.5 -109t-169 -33.5t-169 33.5zM437 127.5q35 22.5 49.5 72.5t14.5 140q0 91 -14 141t-49 72t-101 22q-65 0 -100.5 -22t-49.5 -72t-14 -141
q0 -90 14.5 -140t50 -72.5t99.5 -22.5q65 0 100 22.5zM187 862h300v-91h-300v91z" />
    <glyph glyph-name="uni01EA" unicode="&#x1ea;" horiz-adv-x="674" 
d="M367 -48.5q-30 -29.5 -30 -52.5q0 -14 8.5 -20t31.5 -6q24 0 52 6v-80q-34 -9 -74 -9q-65 0 -90 22.5t-25 59.5q0 33 19 60t63 60h-10q-94 0 -151.5 35.5t-84.5 111.5t-27 201q0 132 28.5 207.5t90.5 109t169 33.5t169.5 -33.5t90.5 -109t28 -207.5q0 -108 -18.5 -175
t-55 -103.5t-95.5 -58.5t-89 -51.5zM187.5 200q14.5 -50 50 -72.5t99.5 -22.5q65 0 100 22.5t49.5 72.5t14.5 140q0 91 -14 141t-49 72t-101 22q-65 0 -100.5 -22t-49.5 -72t-14 -141q0 -90 14.5 -140z" />
    <glyph glyph-name="Oslash" unicode="&#xd8;" horiz-adv-x="674" 
d="M506.5 656.5q62.5 -33.5 90.5 -109t28 -207.5t-28.5 -207.5t-90.5 -109t-169 -33.5t-169 33.5t-90.5 109t-28.5 207.5t28.5 207.5t90.5 109t169 33.5t169.5 -33.5zM236.5 553q-35.5 -22 -49.5 -72t-14 -141q0 -107 21 -157l235 375q-33 17 -92 17q-65 0 -100.5 -22z
M437 127.5q35 22.5 49.5 72.5t14.5 140q0 110 -20 159l-237 -375q34 -19 93 -19q65 0 100 22.5z" />
    <glyph glyph-name="Oslashacute" unicode="&#x1fe;" horiz-adv-x="674" 
d="M506.5 656.5q62.5 -33.5 90.5 -109t28 -207.5t-28.5 -207.5t-90.5 -109t-169 -33.5t-169 33.5t-90.5 109t-28.5 207.5t28.5 207.5t90.5 109t169 33.5t169.5 -33.5zM236.5 553q-35.5 -22 -49.5 -72t-14 -141q0 -107 21 -157l235 375q-33 17 -92 17q-65 0 -100.5 -22z
M437 127.5q35 22.5 49.5 72.5t14.5 140q0 110 -20 159l-237 -375q34 -19 93 -19q65 0 100 22.5zM354 902h127l-109 -152h-102z" />
    <glyph glyph-name="Otilde" unicode="&#xd5;" horiz-adv-x="674" 
d="M168 23.5q-62 33.5 -90.5 109t-28.5 207.5t28.5 207.5t90.5 109t169 33.5t169.5 -33.5t90.5 -109t28 -207.5t-28.5 -207.5t-90.5 -109t-169 -33.5t-169 33.5zM437 127.5q35 22.5 49.5 72.5t14.5 140q0 91 -14 141t-49 72t-101 22q-65 0 -100.5 -22t-49.5 -72t-14 -141
q0 -90 14.5 -140t50 -72.5t99.5 -22.5q65 0 100 22.5zM509 876q0 -68 -25 -97t-78 -29q-26 0 -44.5 8t-42.5 23q-17 11 -25.5 15t-18.5 4q-17 0 -24 -10t-9 -35h-77q0 68 25 97.5t78 29.5q26 0 45.5 -8.5t41.5 -23.5q17 -11 25.5 -15t18.5 -4q17 0 24 10t9 35h77z" />
    <glyph glyph-name="OE" unicode="&#x152;" horiz-adv-x="977" 
d="M927 112l-25 -112h-439v680h449v-112h-327v-169h311v-108h-311v-179h342zM181.5 650q-65.5 -30 -99 -104t-33.5 -205q0 -130 34 -204.5t100 -105.5t168 -31h234v680h-235q-103 0 -168.5 -30zM244.5 135.5q-39.5 23.5 -55.5 73t-16 132.5q0 86 15.5 134.5t53 70.5
t107.5 22h114v-456h-108q-71 0 -110.5 23.5z" />
    <glyph glyph-name="Thorn" unicode="&#xde;" horiz-adv-x="641" 
d="M531.5 530q59.5 -52 59.5 -181q0 -126 -64 -179.5t-185 -53.5h-140v-116h-122v680h122v-98h150q120 0 179.5 -52zM412 238.5q28 10.5 41 36.5t13 75q0 48 -13 73.5t-41.5 36t-79.5 10.5h-130v-242h131q51 0 79 10.5z" />
    <glyph glyph-name="Racute" unicode="&#x154;" horiz-adv-x="650" 
d="M625 0h-140l-159 245h-124v-245h-122v680h253q87 0 141.5 -17.5t84 -64t29.5 -132.5q0 -92 -36 -138.5t-104 -64.5zM407.5 362q29.5 8 43.5 30.5t14 67.5t-14 68t-43.5 31.5t-82.5 8.5h-123v-214h123q53 0 82.5 8zM327 902h127l-109 -152h-102z" />
    <glyph glyph-name="Rcaron" unicode="&#x158;" horiz-adv-x="650" 
d="M625 0h-140l-159 245h-124v-245h-122v680h253q87 0 141.5 -17.5t84 -64t29.5 -132.5q0 -92 -36 -138.5t-104 -64.5zM407.5 362q29.5 8 43.5 30.5t14 67.5t-14 68t-43.5 31.5t-82.5 8.5h-123v-214h123q53 0 82.5 8zM248 902l68 -80l65 80h119l-133 -152h-102l-136 152h119
z" />
    <glyph glyph-name="Rcommaaccent" unicode="&#x156;" horiz-adv-x="650" 
d="M625 0h-140l-159 245h-124v-245h-122v680h253q87 0 141.5 -17.5t84 -64t29.5 -132.5q0 -92 -36 -138.5t-104 -64.5zM407.5 362q29.5 8 43.5 30.5t14 67.5t-14 68t-43.5 31.5t-82.5 8.5h-123v-214h123q53 0 82.5 8zM273 -50h124l-54 -150h-109z" />
    <glyph glyph-name="Sacute" unicode="&#x15a;" horiz-adv-x="566" 
d="M51 21v116q100 -36 211 -36q76 0 107 19.5t31 62.5q0 37 -17 56t-65 39l-137 55q-72 29 -105 67t-33 109q0 66 24 105t79.5 57.5t151.5 18.5q60 0 110.5 -7.5t84.5 -18.5v-114q-32 12 -84.5 21t-109.5 9q-54 0 -82.5 -6.5t-39.5 -21.5t-11 -43q0 -32 20 -49t77 -40
l112 -44q57 -22 88.5 -46.5t45 -58t13.5 -84.5q0 -101 -59.5 -149t-199.5 -48q-123 0 -212 31zM304 902h127l-109 -152h-102z" />
    <glyph glyph-name="Scaron" unicode="&#x160;" horiz-adv-x="566" 
d="M51 21v116q100 -36 211 -36q76 0 107 19.5t31 62.5q0 37 -17 56t-65 39l-137 55q-72 29 -105 67t-33 109q0 66 24 105t79.5 57.5t151.5 18.5q60 0 110.5 -7.5t84.5 -18.5v-114q-32 12 -84.5 21t-109.5 9q-54 0 -82.5 -6.5t-39.5 -21.5t-11 -43q0 -32 20 -49t77 -40
l112 -44q57 -22 88.5 -46.5t45 -58t13.5 -84.5q0 -101 -59.5 -149t-199.5 -48q-123 0 -212 31zM213 902l68 -80l65 80h119l-133 -152h-102l-136 152h119z" />
    <glyph glyph-name="Scedilla" unicode="&#x15e;" horiz-adv-x="566" 
d="M51 21v116q100 -36 211 -36q76 0 107 19.5t31 62.5q0 37 -17 56t-65 39l-137 55q-72 29 -105 67t-33 109q0 66 24 105t79.5 57.5t151.5 18.5q60 0 110.5 -7.5t84.5 -18.5v-114q-32 12 -84.5 21t-109.5 9q-54 0 -82.5 -6.5t-39.5 -21.5t-11 -43q0 -32 20 -49t77 -40
l112 -44q57 -22 88.5 -46.5t45 -58t13.5 -84.5q0 -101 -59.5 -149t-199.5 -48q-123 0 -212 31zM191 -138q23 -5 62 -5q29 0 41.5 5.5t12.5 20.5q0 11 -8 17t-29 8t-62 2l25 90h72l-12 -45q57 -1 81 -20.5t24 -57.5q0 -87 -130 -87q-49 0 -77 5v67z" />
    <glyph glyph-name="Scircumflex" unicode="&#x15c;" horiz-adv-x="566" 
d="M51 21v116q100 -36 211 -36q76 0 107 19.5t31 62.5q0 37 -17 56t-65 39l-137 55q-72 29 -105 67t-33 109q0 66 24 105t79.5 57.5t151.5 18.5q60 0 110.5 -7.5t84.5 -18.5v-114q-32 12 -84.5 21t-109.5 9q-54 0 -82.5 -6.5t-39.5 -21.5t-11 -43q0 -32 20 -49t77 -40
l112 -44q57 -22 88.5 -46.5t45 -58t13.5 -84.5q0 -101 -59.5 -149t-199.5 -48q-123 0 -212 31zM226 902h102l133 -152h-119l-65 80l-68 -80h-119z" />
    <glyph glyph-name="Scommaaccent" unicode="&#x218;" horiz-adv-x="566" 
d="M51 21v116q100 -36 211 -36q76 0 107 19.5t31 62.5q0 37 -17 56t-65 39l-137 55q-72 29 -105 67t-33 109q0 66 24 105t79.5 57.5t151.5 18.5q60 0 110.5 -7.5t84.5 -18.5v-114q-32 12 -84.5 21t-109.5 9q-54 0 -82.5 -6.5t-39.5 -21.5t-11 -43q0 -32 20 -49t77 -40
l112 -44q57 -22 88.5 -46.5t45 -58t13.5 -84.5q0 -101 -59.5 -149t-199.5 -48q-123 0 -212 31zM212 -50h124l-54 -150h-109z" />
    <glyph glyph-name="uni1E9E" unicode="&#x1e9e;" horiz-adv-x="678" 
d="M255 3v112q75 -14 137 -14q63 0 92 22.5t29 75.5q0 52 -28 76t-105 24q-45 0 -88 -5v88l147 169q-34 32 -108 32q-73 0 -107 -27.5t-34 -92.5v-463h-122v459q0 121 65.5 176t198.5 55q105 0 169 -35.5t97 -84.5l-166 -186q12 2 24 2q181 0 181 -189q0 -80 -27 -125
t-79.5 -63.5t-137.5 -18.5q-66 0 -138 13z" />
    <glyph glyph-name="uni018F" unicode="&#x18f;" horiz-adv-x="667" 
d="M487 660q69 -30 100 -105t31 -215q0 -128 -26.5 -204t-88.5 -111t-169 -35q-104 0 -164.5 29.5t-88.5 94.5t-32 178v92h443q-4 78 -23 118.5t-59 56.5t-113 16q-89 0 -197 -15v112q97 18 195 18q123 0 192 -30zM427 121.5q33 16.5 47.5 54.5t17.5 106h-317
q2 -67 16.5 -104.5t48 -55t94.5 -17.5q60 0 93 16.5z" />
    <glyph glyph-name="Tbar" unicode="&#x166;" horiz-adv-x="575" 
d="M225 567h-208v113h548l-24 -113h-194v-567h-122v567zM114 341h344v-71h-344v71z" />
    <glyph glyph-name="Tcaron" unicode="&#x164;" horiz-adv-x="575" 
d="M225 567h-208v113h548l-24 -113h-194v-567h-122v567zM221 902l68 -80l65 80h119l-133 -152h-102l-136 152h119z" />
    <glyph glyph-name="uni0162" unicode="&#x162;" horiz-adv-x="575" 
d="M347 0l-12 -45q57 -1 80.5 -20.5t23.5 -57.5q0 -87 -129 -87q-48 0 -78 5v67q25 -5 63 -5q29 0 41 5.5t12 20.5q0 16 -19.5 21.5t-78.5 5.5l24 90h-49v567h-208v113h548l-24 -113h-194v-567z" />
    <glyph glyph-name="uni021A" unicode="&#x21a;" horiz-adv-x="575" 
d="M225 567h-208v113h548l-24 -113h-194v-567h-122v567zM224 -50h124l-54 -150h-109z" />
    <glyph glyph-name="Uacute" unicode="&#xda;" horiz-adv-x="672" 
d="M186.5 10.5q-58.5 20.5 -88.5 70.5t-30 138v461h122v-445q0 -52 14 -79.5t45.5 -39t86.5 -11.5t86.5 11.5t45.5 39t14 79.5v445h122v-461q0 -88 -30 -138t-88.5 -70.5t-149.5 -20.5t-149.5 20.5zM358 902h127l-109 -152h-102z" />
    <glyph glyph-name="Ubreve" unicode="&#x16c;" horiz-adv-x="672" 
d="M186.5 10.5q-58.5 20.5 -88.5 70.5t-30 138v461h122v-445q0 -52 14 -79.5t45.5 -39t86.5 -11.5t86.5 11.5t45.5 39t14 79.5v445h122v-461q0 -88 -30 -138t-88.5 -70.5t-149.5 -20.5t-149.5 20.5zM209.5 778.5q-40.5 30.5 -41.5 106.5h93q1 -35 19.5 -49.5t55.5 -14.5
t55.5 14.5t19.5 49.5h93q-1 -76 -41.5 -106.5t-126.5 -30.5t-126.5 30.5z" />
    <glyph glyph-name="Ucircumflex" unicode="&#xdb;" horiz-adv-x="672" 
d="M186.5 10.5q-58.5 20.5 -88.5 70.5t-30 138v461h122v-445q0 -52 14 -79.5t45.5 -39t86.5 -11.5t86.5 11.5t45.5 39t14 79.5v445h122v-461q0 -88 -30 -138t-88.5 -70.5t-149.5 -20.5t-149.5 20.5zM286 902h102l133 -152h-119l-65 80l-68 -80h-119z" />
    <glyph glyph-name="Udieresis" unicode="&#xdc;" horiz-adv-x="672" 
d="M186.5 10.5q-58.5 20.5 -88.5 70.5t-30 138v461h122v-445q0 -52 14 -79.5t45.5 -39t86.5 -11.5t86.5 11.5t45.5 39t14 79.5v445h122v-461q0 -88 -30 -138t-88.5 -70.5t-149.5 -20.5t-149.5 20.5zM181 866h113v-111h-113v111zM378 866h113v-111h-113v111z" />
    <glyph glyph-name="uni1EE4" unicode="&#x1ee4;" horiz-adv-x="672" 
d="M186.5 10.5q-58.5 20.5 -88.5 70.5t-30 138v461h122v-445q0 -52 14 -79.5t45.5 -39t86.5 -11.5t86.5 11.5t45.5 39t14 79.5v445h122v-461q0 -88 -30 -138t-88.5 -70.5t-149.5 -20.5t-149.5 20.5zM270 -73h131v-113h-131v113z" />
    <glyph glyph-name="Ugrave" unicode="&#xd9;" horiz-adv-x="672" 
d="M485.5 10.5q58.5 20.5 88.5 70.5t30 138v461h-122v-445q0 -52 -14 -79.5t-45.5 -39t-86.5 -11.5t-86.5 11.5t-45.5 39t-14 79.5v445h-122v-461q0 -88 30 -138t88.5 -70.5t149.5 -20.5t149.5 20.5zM314 902h-127l109 -152h102z" />
    <glyph glyph-name="uni1EE6" unicode="&#x1ee6;" horiz-adv-x="672" 
d="M186.5 10.5q-58.5 20.5 -88.5 70.5t-30 138v461h122v-445q0 -52 14 -79.5t45.5 -39t86.5 -11.5t86.5 11.5t45.5 39t14 79.5v445h122v-461q0 -88 -30 -138t-88.5 -70.5t-149.5 -20.5t-149.5 20.5zM290 794q33 8 53 22t20 30q0 31 -49 31q-30 0 -50.5 -4.5t-23.5 -5.5v72
q45 9 87 9q52 0 85.5 -22t33.5 -67t-31.5 -76t-91.5 -45z" />
    <glyph glyph-name="Uhorn" unicode="&#x1af;" horiz-adv-x="682" 
d="M186.5 10.5q-58.5 20.5 -88.5 70.5t-30 138v461h122v-445q0 -52 14 -79.5t45.5 -39t86.5 -11.5t86.5 11.5t45.5 39t14 79.5v445h122v-461q0 -88 -30 -138t-88.5 -70.5t-149.5 -20.5t-149.5 20.5zM538 680q39 0 55 15.5t16 56.5q0 28 -3 58h104q4 -30 4 -72
q0 -70 -42.5 -102.5t-133.5 -34.5v79z" />
    <glyph glyph-name="uni1EE8" unicode="&#x1ee8;" horiz-adv-x="682" 
d="M186.5 10.5q-58.5 20.5 -88.5 70.5t-30 138v461h122v-445q0 -52 14 -79.5t45.5 -39t86.5 -11.5t86.5 11.5t45.5 39t14 79.5v445h122v-461q0 -88 -30 -138t-88.5 -70.5t-149.5 -20.5t-149.5 20.5zM538 680q39 0 55 15.5t16 56.5q0 28 -3 58h104q4 -30 4 -72
q0 -70 -42.5 -102.5t-133.5 -34.5v79zM356 902h127l-109 -152h-102z" />
    <glyph glyph-name="uni1EF0" unicode="&#x1ef0;" horiz-adv-x="682" 
d="M186.5 10.5q-58.5 20.5 -88.5 70.5t-30 138v461h122v-445q0 -52 14 -79.5t45.5 -39t86.5 -11.5t86.5 11.5t45.5 39t14 79.5v445h122v-461q0 -88 -30 -138t-88.5 -70.5t-149.5 -20.5t-149.5 20.5zM538 680q39 0 55 15.5t16 56.5q0 28 -3 58h104q4 -30 4 -72
q0 -70 -42.5 -102.5t-133.5 -34.5v79zM271 -73h131v-113h-131v113z" />
    <glyph glyph-name="uni1EEA" unicode="&#x1eea;" horiz-adv-x="682" 
d="M186.5 10.5q-58.5 20.5 -88.5 70.5t-30 138v461h122v-445q0 -52 14 -79.5t45.5 -39t86.5 -11.5t86.5 11.5t45.5 39t14 79.5v445h122v-461q0 -88 -30 -138t-88.5 -70.5t-149.5 -20.5t-149.5 20.5zM538 680q39 0 55 15.5t16 56.5q0 28 -3 58h104q4 -30 4 -72
q0 -70 -42.5 -102.5t-133.5 -34.5v79zM304 750l-109 152h127l84 -152h-102z" />
    <glyph glyph-name="uni1EEC" unicode="&#x1eec;" horiz-adv-x="682" 
d="M186.5 10.5q-58.5 20.5 -88.5 70.5t-30 138v461h122v-445q0 -52 14 -79.5t45.5 -39t86.5 -11.5t86.5 11.5t45.5 39t14 79.5v445h122v-461q0 -88 -30 -138t-88.5 -70.5t-149.5 -20.5t-149.5 20.5zM538 680q39 0 55 15.5t16 56.5q0 28 -3 58h104q4 -30 4 -72
q0 -70 -42.5 -102.5t-133.5 -34.5v79zM292 794q33 8 53 22t20 30q0 31 -49 31q-30 0 -50.5 -4.5t-23.5 -5.5v72q45 9 87 9q52 0 85.5 -22t33.5 -67t-31.5 -76t-91.5 -45z" />
    <glyph glyph-name="uni1EEE" unicode="&#x1eee;" horiz-adv-x="682" 
d="M186.5 10.5q-58.5 20.5 -88.5 70.5t-30 138v461h122v-445q0 -52 14 -79.5t45.5 -39t86.5 -11.5t86.5 11.5t45.5 39t14 79.5v445h122v-461q0 -88 -30 -138t-88.5 -70.5t-149.5 -20.5t-149.5 20.5zM538 680q39 0 55 15.5t16 56.5q0 28 -3 58h104q4 -30 4 -72
q0 -70 -42.5 -102.5t-133.5 -34.5v79zM508 876q0 -68 -25 -97t-78 -29q-26 0 -44.5 8t-42.5 23q-17 11 -25.5 15t-18.5 4q-17 0 -24 -10t-9 -35h-77q0 68 25 97.5t78 29.5q26 0 45.5 -8.5t41.5 -23.5q17 -11 25.5 -15t18.5 -4q17 0 24 10t9 35h77z" />
    <glyph glyph-name="Uhungarumlaut" unicode="&#x170;" horiz-adv-x="672" 
d="M186.5 10.5q-58.5 20.5 -88.5 70.5t-30 138v461h122v-445q0 -52 14 -79.5t45.5 -39t86.5 -11.5t86.5 11.5t45.5 39t14 79.5v445h122v-461q0 -88 -30 -138t-88.5 -70.5t-149.5 -20.5t-149.5 20.5zM265 902h127l-109 -152h-102zM437 902h127l-109 -152h-102z" />
    <glyph glyph-name="Umacron" unicode="&#x16a;" horiz-adv-x="672" 
d="M186.5 10.5q-58.5 20.5 -88.5 70.5t-30 138v461h122v-445q0 -52 14 -79.5t45.5 -39t86.5 -11.5t86.5 11.5t45.5 39t14 79.5v445h122v-461q0 -88 -30 -138t-88.5 -70.5t-149.5 -20.5t-149.5 20.5zM186 862h300v-91h-300v91z" />
    <glyph glyph-name="Uogonek" unicode="&#x172;" horiz-adv-x="672" 
d="M604 680v-461q0 -69 -17.5 -111.5t-47.5 -65.5t-77 -39q-58 -20 -91 -49.5t-33 -53.5q0 -15 8.5 -21t31.5 -6q24 0 52 6v-80q-34 -9 -73 -9q-66 0 -90.5 22.5t-24.5 59.5q0 33 18 60.5t60 59.5h-6q-123 0 -184.5 52t-61.5 175v461h122v-445q0 -52 14 -79.5t45.5 -39
t86.5 -11.5t86.5 11.5t45.5 39t14 79.5v445h122z" />
    <glyph glyph-name="Uring" unicode="&#x16e;" horiz-adv-x="672" 
d="M186.5 10.5q-58.5 20.5 -88.5 70.5t-30 138v461h122v-445q0 -52 14 -79.5t45.5 -39t86.5 -11.5t86.5 11.5t45.5 39t14 79.5v445h122v-461q0 -88 -30 -138t-88.5 -70.5t-149.5 -20.5t-149.5 20.5zM434.5 936q29.5 -26 29.5 -80t-29.5 -80t-98.5 -26t-98.5 26t-29.5 80
t29.5 80t98.5 26t98.5 -26zM383.5 820q13.5 12 13.5 37t-13.5 36.5t-47.5 11.5q-35 0 -48 -11.5t-13 -36.5t13 -37t48 -12q34 0 47.5 12z" />
    <glyph glyph-name="Utilde" unicode="&#x168;" horiz-adv-x="672" 
d="M186.5 10.5q-58.5 20.5 -88.5 70.5t-30 138v461h122v-445q0 -52 14 -79.5t45.5 -39t86.5 -11.5t86.5 11.5t45.5 39t14 79.5v445h122v-461q0 -88 -30 -138t-88.5 -70.5t-149.5 -20.5t-149.5 20.5zM508 876q0 -68 -25 -97t-78 -29q-26 0 -44.5 8t-42.5 23q-17 11 -25.5 15
t-18.5 4q-17 0 -24 -10t-9 -35h-77q0 68 25 97.5t78 29.5q26 0 45.5 -8.5t41.5 -23.5q17 -11 25.5 -15t18.5 -4q17 0 24 10t9 35h77z" />
    <glyph glyph-name="Wacute" unicode="&#x1e82;" horiz-adv-x="940" 
d="M21 680h122l128 -523l146 523h105l146 -523l129 523h122l-178 -680h-134l-137 470l-137 -470h-135zM504 902h127l-109 -152h-102z" />
    <glyph glyph-name="Wcircumflex" unicode="&#x174;" horiz-adv-x="940" 
d="M21 680h122l128 -523l146 523h105l146 -523l129 523h122l-178 -680h-134l-137 470l-137 -470h-135zM420 902h102l133 -152h-119l-65 80l-68 -80h-119z" />
    <glyph glyph-name="Wdieresis" unicode="&#x1e84;" horiz-adv-x="940" 
d="M21 680h122l128 -523l146 523h105l146 -523l129 523h122l-178 -680h-134l-137 470l-137 -470h-135zM315 866h113v-111h-113v111zM512 866h113v-111h-113v111z" />
    <glyph glyph-name="Wgrave" unicode="&#x1e80;" horiz-adv-x="940" 
d="M919 680h-122l-128 -523l-146 523h-105l-146 -523l-129 523h-122l178 -680h134l137 470l137 -470h135zM436 902h-127l109 -152h102z" />
    <glyph glyph-name="Yacute" unicode="&#xdd;" horiz-adv-x="617" 
d="M247 247l-237 433h134l164 -308l164 308h135l-238 -433v-247h-122v247zM333 902h127l-109 -152h-102z" />
    <glyph glyph-name="Ycircumflex" unicode="&#x176;" horiz-adv-x="617" 
d="M247 247l-237 433h134l164 -308l164 308h135l-238 -433v-247h-122v247zM259 902h102l133 -152h-119l-65 80l-68 -80h-119z" />
    <glyph glyph-name="Ydieresis" unicode="&#x178;" horiz-adv-x="617" 
d="M247 247l-237 433h134l164 -308l164 308h135l-238 -433v-247h-122v247zM154 866h113v-111h-113v111zM351 866h113v-111h-113v111z" />
    <glyph glyph-name="uni1EF4" unicode="&#x1ef4;" horiz-adv-x="617" 
d="M247 247l-237 433h134l164 -308l164 308h135l-238 -433v-247h-122v247zM243 -73h131v-113h-131v113z" />
    <glyph glyph-name="Ygrave" unicode="&#x1ef2;" horiz-adv-x="617" 
d="M370 247l237 433h-134l-164 -308l-164 308h-135l238 -433v-247h122v247zM284 902h-127l109 -152h102z" />
    <glyph glyph-name="uni1EF6" unicode="&#x1ef6;" horiz-adv-x="617" 
d="M247 247l-237 433h134l164 -308l164 308h135l-238 -433v-247h-122v247zM267 794q33 8 53 22t20 30q0 31 -49 31q-30 0 -50.5 -4.5t-23.5 -5.5v72q45 9 87 9q52 0 85.5 -22t33.5 -67t-31.5 -76t-91.5 -45z" />
    <glyph glyph-name="uni0232" unicode="&#x232;" horiz-adv-x="617" 
d="M247 247l-237 433h134l164 -308l164 308h135l-238 -433v-247h-122v247zM158 862h300v-91h-300v91z" />
    <glyph glyph-name="uni1EF8" unicode="&#x1ef8;" horiz-adv-x="617" 
d="M247 247l-237 433h134l164 -308l164 308h135l-238 -433v-247h-122v247zM480 876q0 -68 -25 -97t-78 -29q-26 0 -44.5 8t-42.5 23q-17 11 -25.5 15t-18.5 4q-17 0 -24 -10t-9 -35h-77q0 68 25 97.5t78 29.5q26 0 45.5 -8.5t41.5 -23.5q17 -11 25.5 -15t18.5 -4q17 0 24 10
t9 35h77z" />
    <glyph glyph-name="Zacute" unicode="&#x179;" horiz-adv-x="561" 
d="M43 91l326 477h-322v112h472v-93l-328 -475h323v-112h-471v91zM293 902h127l-109 -152h-102z" />
    <glyph glyph-name="Zcaron" unicode="&#x17d;" horiz-adv-x="561" 
d="M43 91l326 477h-322v112h472v-93l-328 -475h323v-112h-471v91zM214 902l68 -80l65 80h119l-133 -152h-102l-136 152h119z" />
    <glyph glyph-name="Zdotaccent" unicode="&#x17b;" horiz-adv-x="561" 
d="M43 91l326 477h-322v112h472v-93l-328 -475h323v-112h-471v91zM216 866h130v-112h-130v112z" />
    <glyph glyph-name="a" unicode="a" horiz-adv-x="561" 
d="M83 31q-43 41 -43 130q0 90 46.5 123.5t145.5 33.5q73 0 142 -21v61q0 43 -31 61t-97 18q-82 0 -156 -20v103q78 20 171 20q115 0 174 -37t59 -135v-368h-93l-15 41q-59 -51 -163 -51q-97 0 -140 41zM374 105v109q-57 11 -111 11q-56 0 -78 -14t-22 -50q0 -42 21 -57.5
t77 -15.5q65 0 113 17z" />
    <glyph glyph-name="b" unicode="b" horiz-adv-x="614" 
d="M512.5 473q54.5 -67 54.5 -208q0 -151 -58 -213t-170 -62q-49 0 -87.5 14.5t-65.5 35.5l-17 -40h-98v720h120v-224q63 44 149 44q118 0 172.5 -67zM390.5 112.5q29.5 16.5 42 53t12.5 99.5t-12.5 99t-42.5 52.5t-84 16.5q-67 0 -115 -23v-292q47 -22 115 -22
q55 0 84.5 16.5z" />
    <glyph glyph-name="c" unicode="c" horiz-adv-x="515" 
d="M162 15q-58 25 -86.5 85t-28.5 165t28.5 165t86.5 85t151 25q75 0 151 -21v-110q-69 23 -138 23q-59 0 -92 -13.5t-49 -49.5t-16 -104t16 -104t49 -49.5t92 -13.5q69 0 138 23v-110q-76 -21 -151 -21q-93 0 -151 25z" />
    <glyph glyph-name="d" unicode="d" horiz-adv-x="614" 
d="M543 720v-720h-98l-17 40q-27 -21 -65.5 -35.5t-87.5 -14.5q-112 0 -170 62t-58 213q0 141 54.5 208t172.5 67q86 0 149 -44v224h120zM423 410q-48 23 -115 23q-54 0 -84 -16.5t-42.5 -52.5t-12.5 -99t12.5 -99.5t42 -53t84.5 -16.5q68 0 115 22v292z" />
    <glyph glyph-name="e" unicode="e" horiz-adv-x="563" 
d="M155 16.5q-55 26.5 -81.5 86.5t-26.5 163q0 144 59 209t183 65q80 0 130 -26t73.5 -82.5t23.5 -151.5q0 -13 -3 -58h-347q2 -50 17 -78t47 -40t87 -12q85 0 168 32v-104q-68 -30 -186 -30q-89 0 -144 26.5zM400 316q-1 68 -25 97t-87 29q-64 0 -92 -30t-30 -96h234z" />
    <glyph glyph-name="f" unicode="f" horiz-adv-x="410" 
d="M390 427h-149v-427h-120v427h-101v103h101v23q0 45 12.5 77.5t46 60.5t95.5 52l72 29l40 -101l-53 -20q-53 -19 -73 -41.5t-20 -63.5v-16h149v-103z" />
    <glyph glyph-name="g" unicode="g" horiz-adv-x="613" 
d="M110 -104q158 6 231 28q46 13 66 35t20 57v25q-26 -12 -67 -21.5t-86 -9.5q-109 0 -168 61t-59 204q0 134 54.5 199.5t172.5 65.5q48 0 86 -13.5t63 -31.5v35h120v-487q0 -77 -24.5 -124t-85.5 -75t-172 -42q-74 -10 -151 -12v106zM423 131v279q-25 11 -52 17t-64 6
q-79 0 -108.5 -36.5t-29.5 -121.5q0 -86 30.5 -123.5t107.5 -37.5q63 0 116 17z" />
    <glyph glyph-name="h" unicode="h" horiz-adv-x="607" 
d="M71 530h115v-43q28 22 75 37.5t104 15.5q96 0 135.5 -39t39.5 -116v-385h-120v350q0 44 -22 63.5t-79 19.5q-39 0 -72 -7.5t-56 -18.5v-407h-120v530zM71 720h120v-720h-120v720z" />
    <glyph glyph-name="i" unicode="i" horiz-adv-x="257" 
d="M63 716h131v-112h-131v112zM69 530h120v-530h-120v530z" />
    <glyph glyph-name="j" unicode="j" horiz-adv-x="259" 
d="M64 716h131v-112h-131v112zM-46 -132q50 58 74 96t33 75t9 93v398h120v-406q0 -65 -10.5 -111.5t-42.5 -98.5t-96 -124z" />
    <glyph glyph-name="k" unicode="k" horiz-adv-x="554" 
d="M71 720h120v-720h-120v720zM402 0l-211 267v-267h-120v530h120v-251l197 251h146l-212 -255l227 -275h-147z" />
    <glyph glyph-name="l" unicode="l" horiz-adv-x="262" 
d="M71 720h120v-720h-120v720z" />
    <glyph glyph-name="m" unicode="m" horiz-adv-x="936" 
d="M830 501.5q39 -38.5 39 -116.5v-385h-120v350q0 44 -22.5 63.5t-81.5 19.5q-55 0 -116 -24q1 -8 1 -24v-385h-120v350q0 44 -22.5 63.5t-82.5 19.5q-56 0 -114 -24v-409h-120v530h115v-43q70 53 170 53q58 0 94.5 -14.5t55.5 -42.5q79 57 189 57q96 0 135 -38.5z" />
    <glyph glyph-name="n" unicode="n" horiz-adv-x="607" 
d="M71 530h115v-43q28 22 75 37.5t104 15.5q96 0 135.5 -39t39.5 -116v-385h-120v350q0 44 -22 63.5t-79 19.5q-39 0 -72 -7.5t-56 -18.5v-407h-120v530z" />
    <glyph glyph-name="o" unicode="o" horiz-adv-x="602" 
d="M110.5 52q-63.5 62 -63.5 213q0 150 64 212.5t190 62.5q127 0 190.5 -62.5t63.5 -212.5q0 -151 -63.5 -213t-190.5 -62t-190.5 62zM375 110.5q28 13.5 43 50t15 104.5t-15 104.5t-43.5 50t-73.5 13.5t-73.5 -13.5t-43.5 -50t-15 -104.5t15 -104.5t43.5 -50t73.5 -13.5
q46 0 74 13.5z" />
    <glyph glyph-name="p" unicode="p" horiz-adv-x="614" 
d="M509.5 478q57.5 -62 57.5 -213q0 -142 -54 -208.5t-173 -66.5q-85 0 -149 31v-221h-120v730h120v-36q62 46 148 46q113 0 170.5 -62zM390 113.5q30 16.5 42.5 52.5t12.5 99t-12.5 99.5t-42 53t-84.5 16.5q-68 0 -115 -22v-296q43 -19 115 -19q54 0 84 16.5z" />
    <glyph glyph-name="q" unicode="q" horiz-adv-x="614" 
d="M104.5 478q-57.5 -62 -57.5 -213q0 -142 54 -208.5t173 -66.5q85 0 149 31v-221h120v730h-120v-36q-62 46 -148 46q-113 0 -170.5 -62zM224 113.5q-30 16.5 -42.5 52.5t-12.5 99t12.5 99.5t42 53t84.5 16.5q68 0 115 -22v-296q-43 -19 -115 -19q-54 0 -84 16.5z" />
    <glyph glyph-name="r" unicode="r" horiz-adv-x="404" 
d="M71 530h115v-63q29 25 79 46t117 27v-113q-57 -4 -108.5 -16t-82.5 -27v-384h-120v530z" />
    <glyph glyph-name="s" unicode="s" horiz-adv-x="505" 
d="M140.5 -2.5q-50.5 7.5 -85.5 19.5v112q100 -35 190 -35q61 0 82.5 11t21.5 43q0 28 -15.5 40t-57.5 23l-96 28q-47 14 -75.5 31t-43 46.5t-14.5 77.5q0 82 51.5 114t166.5 32q44 0 92 -6t78 -15v-109q-84 28 -170 28q-41 0 -62 -4.5t-29.5 -15t-8.5 -29.5q0 -24 13.5 -35
t52.5 -22l92 -26q51 -15 81 -32.5t45 -47.5t15 -78q0 -60 -22 -94.5t-70 -49t-130 -14.5q-51 0 -101.5 7.5z" />
    <glyph glyph-name="t" unicode="t" horiz-adv-x="434" 
d="M152 25q-42 35 -42 112v290h-98v103h98v119l119 35v-154h166v-103h-166v-270q0 -33 17.5 -46t55.5 -13q43 0 95 16v-106q-46 -18 -124 -18q-79 0 -121 35z" />
    <glyph glyph-name="u" unicode="u" horiz-adv-x="603" 
d="M108.5 29q-41.5 39 -41.5 116v385h120v-350q0 -44 21.5 -63.5t77.5 -19.5q41 0 70 7.5t56 20.5v405h120v-530h-101l-11 41q-73 -51 -174 -51q-96 0 -137.5 39z" />
    <glyph glyph-name="v" unicode="v" horiz-adv-x="547" 
d="M13 530h125l135 -406l136 406h125l-192 -530h-137z" />
    <glyph glyph-name="w" unicode="w" horiz-adv-x="823" 
d="M13 530h118l105 -407l113 407h126l112 -407l105 407h118l-148 -530h-140l-110 380l-111 -380h-140z" />
    <glyph glyph-name="x" unicode="x" horiz-adv-x="543" 
d="M201 271l-181 259h139l113 -176l115 176h136l-180 -261l187 -269h-141l-117 179l-118 -179h-140z" />
    <glyph glyph-name="y" unicode="y" horiz-adv-x="541" 
d="M528 530l-161 -436q-40 -107 -99.5 -181t-170.5 -123l-48 94q120 70 160 137l-196 509h125l135 -394l126 394h129z" />
    <glyph glyph-name="z" unicode="z" horiz-adv-x="503" 
d="M36 76l277 349h-265v105h413v-86l-271 -339h266v-105h-420v76z" />
    <glyph glyph-name="aacute" unicode="&#xe1;" horiz-adv-x="561" 
d="M83 31q-43 41 -43 130q0 90 46.5 123.5t145.5 33.5q73 0 142 -21v61q0 43 -31 61t-97 18q-82 0 -156 -20v103q78 20 171 20q115 0 174 -37t59 -135v-368h-93l-15 41q-59 -51 -163 -51q-97 0 -140 41zM374 105v109q-57 11 -111 11q-56 0 -78 -14t-22 -50q0 -42 21 -57.5
t77 -15.5q65 0 113 17zM299 752h127l-109 -152h-102z" />
    <glyph glyph-name="abreve" unicode="&#x103;" horiz-adv-x="561" 
d="M83 31q-43 41 -43 130q0 90 46.5 123.5t145.5 33.5q73 0 142 -21v61q0 43 -31 61t-97 18q-82 0 -156 -20v103q78 20 171 20q115 0 174 -37t59 -135v-368h-93l-15 41q-59 -51 -163 -51q-97 0 -140 41zM374 105v109q-57 11 -111 11q-56 0 -78 -14t-22 -50q0 -42 21 -57.5
t77 -15.5q65 0 113 17zM158.5 628.5q-40.5 30.5 -41.5 106.5h93q1 -35 19.5 -49.5t55.5 -14.5t55.5 14.5t19.5 49.5h93q-1 -76 -41.5 -106.5t-126.5 -30.5t-126.5 30.5z" />
    <glyph glyph-name="uni1EAF" unicode="&#x1eaf;" horiz-adv-x="561" 
d="M83 31q-43 41 -43 130q0 90 46.5 123.5t145.5 33.5q73 0 142 -21v61q0 43 -31 61t-97 18q-82 0 -156 -20v103q78 20 171 20q115 0 174 -37t59 -135v-368h-93l-15 41q-59 -51 -163 -51q-97 0 -140 41zM374 105v109q-57 11 -111 11q-56 0 -78 -14t-22 -50q0 -42 21 -57.5
t77 -15.5q65 0 113 17zM164.5 625q-40.5 28 -41.5 101h90q1 -34 20.5 -46.5t59.5 -12.5t59.5 12.5t20.5 46.5h90q-1 -74 -41 -101.5t-129 -27.5q-88 0 -128.5 28zM313 874h125l-102 -126h-98z" />
    <glyph glyph-name="uni1EB7" unicode="&#x1eb7;" horiz-adv-x="561" 
d="M204 -73h131v-113h-131v113zM83 31q-43 41 -43 130q0 90 46.5 123.5t145.5 33.5q73 0 142 -21v61q0 43 -31 61t-97 18q-82 0 -156 -20v103q78 20 171 20q115 0 174 -37t59 -135v-368h-93l-15 41q-59 -51 -163 -51q-97 0 -140 41zM374 105v109q-57 11 -111 11
q-56 0 -78 -14t-22 -50q0 -42 21 -57.5t77 -15.5q65 0 113 17zM158.5 628.5q-40.5 30.5 -41.5 106.5h93q1 -35 19.5 -49.5t55.5 -14.5t55.5 14.5t19.5 49.5h93q-1 -76 -41.5 -106.5t-126.5 -30.5t-126.5 30.5z" />
    <glyph glyph-name="uni1EB1" unicode="&#x1eb1;" horiz-adv-x="561" 
d="M83 31q-43 41 -43 130q0 90 46.5 123.5t145.5 33.5q73 0 142 -21v61q0 43 -31 61t-97 18q-82 0 -156 -20v103q78 20 171 20q115 0 174 -37t59 -135v-368h-93l-15 41q-59 -51 -163 -51q-97 0 -140 41zM374 105v109q-57 11 -111 11q-56 0 -78 -14t-22 -50q0 -42 21 -57.5
t77 -15.5q65 0 113 17zM420.5 625q40.5 28 41.5 101h-90q-1 -34 -20.5 -46.5t-59.5 -12.5t-59.5 12.5t-20.5 46.5h-90q1 -74 41 -101.5t129 -27.5q88 0 128.5 28zM272 874h-125l102 -126h98z" />
    <glyph glyph-name="uni1EB3" unicode="&#x1eb3;" horiz-adv-x="561" 
d="M83 31q-43 41 -43 130q0 90 46.5 123.5t145.5 33.5q73 0 142 -21v61q0 43 -31 61t-97 18q-82 0 -156 -20v103q78 20 171 20q115 0 174 -37t59 -135v-368h-93l-15 41q-59 -51 -163 -51q-97 0 -140 41zM374 105v109q-57 11 -111 11q-56 0 -78 -14t-22 -50q0 -42 21 -57.5
t77 -15.5q65 0 113 17zM240 773q33 8 53 22t20 30q0 31 -49 31q-30 0 -50.5 -4.5t-23.5 -5.5v72q45 9 87 9q52 0 85.5 -22t33.5 -67t-31.5 -76t-91.5 -45zM161.5 625q-40.5 28 -41.5 101h90q1 -34 20.5 -46.5t59.5 -12.5t59.5 12.5t20.5 46.5h90q-1 -74 -41 -101.5
t-129 -27.5q-88 0 -128.5 28z" />
    <glyph glyph-name="uni1EB5" unicode="&#x1eb5;" horiz-adv-x="561" 
d="M83 31q-43 41 -43 130q0 90 46.5 123.5t145.5 33.5q73 0 142 -21v61q0 43 -31 61t-97 18q-82 0 -156 -20v103q78 20 171 20q115 0 174 -37t59 -135v-368h-93l-15 41q-59 -51 -163 -51q-97 0 -140 41zM374 105v109q-57 11 -111 11q-56 0 -78 -14t-22 -50q0 -42 21 -57.5
t77 -15.5q65 0 113 17zM445 870q0 -66 -24 -92t-75 -26q-24 0 -41 7t-39 20q-10 6 -20.5 11t-19.5 5q-15 0 -21.5 -8.5t-8.5 -29.5h-76q0 66 24 92.5t75 26.5q24 0 41 -7t39 -20q14 -9 22.5 -13t17.5 -4q15 0 22 8.5t8 29.5h76zM157.5 625q-40.5 28 -41.5 101h90
q1 -34 20.5 -46.5t59.5 -12.5t59.5 12.5t20.5 46.5h90q-1 -74 -41 -101.5t-129 -27.5q-88 0 -128.5 28z" />
    <glyph glyph-name="acircumflex" unicode="&#xe2;" horiz-adv-x="561" 
d="M83 31q-43 41 -43 130q0 90 46.5 123.5t145.5 33.5q73 0 142 -21v61q0 43 -31 61t-97 18q-82 0 -156 -20v103q78 20 171 20q115 0 174 -37t59 -135v-368h-93l-15 41q-59 -51 -163 -51q-97 0 -140 41zM374 105v109q-57 11 -111 11q-56 0 -78 -14t-22 -50q0 -42 21 -57.5
t77 -15.5q65 0 113 17zM231 752h102l133 -152h-119l-65 80l-68 -80h-119z" />
    <glyph glyph-name="uni1EA5" unicode="&#x1ea5;" horiz-adv-x="561" 
d="M83 31q-43 41 -43 130q0 90 46.5 123.5t145.5 33.5q73 0 142 -21v61q0 43 -31 61t-97 18q-82 0 -156 -20v103q78 20 171 20q115 0 174 -37t59 -135v-368h-93l-15 41q-59 -51 -163 -51q-97 0 -140 41zM374 105v109q-57 11 -111 11q-56 0 -78 -14t-22 -50q0 -42 21 -57.5
t77 -15.5q65 0 113 17zM231 730h102l131 -132h-122l-60 67l-63 -67h-121zM454 849h125l-102 -126h-98z" />
    <glyph glyph-name="uni1EAD" unicode="&#x1ead;" horiz-adv-x="561" 
d="M211 -73h131v-113h-131v113zM83 31q-43 41 -43 130q0 90 46.5 123.5t145.5 33.5q73 0 142 -21v61q0 43 -31 61t-97 18q-82 0 -156 -20v103q78 20 171 20q115 0 174 -37t59 -135v-368h-93l-15 41q-59 -51 -163 -51q-97 0 -140 41zM374 105v109q-57 11 -111 11
q-56 0 -78 -14t-22 -50q0 -42 21 -57.5t77 -15.5q65 0 113 17zM231 752h102l133 -152h-119l-65 80l-68 -80h-119z" />
    <glyph glyph-name="uni1EA7" unicode="&#x1ea7;" horiz-adv-x="561" 
d="M83 31q-43 41 -43 130q0 90 46.5 123.5t145.5 33.5q73 0 142 -21v61q0 43 -31 61t-97 18q-82 0 -156 -20v103q78 20 171 20q115 0 174 -37t59 -135v-368h-93l-15 41q-59 -51 -163 -51q-97 0 -140 41zM374 105v109q-57 11 -111 11q-56 0 -78 -14t-22 -50q0 -42 21 -57.5
t77 -15.5q65 0 113 17zM330 730h-102l-131 -132h122l60 67l63 -67h121zM419 849h-125l102 -126h98z" />
    <glyph glyph-name="uni1EA9" unicode="&#x1ea9;" horiz-adv-x="561" 
d="M83 31q-43 41 -43 130q0 90 46.5 123.5t145.5 33.5q73 0 142 -21v61q0 43 -31 61t-97 18q-82 0 -156 -20v103q78 20 171 20q115 0 174 -37t59 -135v-368h-93l-15 41q-59 -51 -163 -51q-97 0 -140 41zM374 105v109q-57 11 -111 11q-56 0 -78 -14t-22 -50q0 -42 21 -57.5
t77 -15.5q65 0 113 17zM230 730h102l131 -132h-122l-60 67l-63 -67h-121zM381 746q57 12 57 38q0 27 -42 27q-30 0 -60 -7v77q33 9 79 9q48 0 83 -22.5t35 -63.5q0 -44 -31 -72.5t-87 -41.5z" />
    <glyph glyph-name="uni1EAB" unicode="&#x1eab;" horiz-adv-x="561" 
d="M83 31q-43 41 -43 130q0 90 46.5 123.5t145.5 33.5q73 0 142 -21v61q0 43 -31 61t-97 18q-82 0 -156 -20v103q78 20 171 20q115 0 174 -37t59 -135v-368h-93l-15 41q-59 -51 -163 -51q-97 0 -140 41zM374 105v109q-57 11 -111 11q-56 0 -78 -14t-22 -50q0 -42 21 -57.5
t77 -15.5q65 0 113 17zM232 709.424h102l131 -115.984h-122l-60 58.8711l-63 -58.8711h-121zM445 860q0 -66 -24 -92t-75 -26q-24 0 -41 7t-39 20q-10 6 -20.5 11t-19.5 5q-15 0 -21.5 -8.5t-8.5 -29.5h-76q0 66 24 92.5t75 26.5q24 0 41 -7t39 -20q14 -9 22.5 -13t17.5 -4
q15 0 22 8.5t8 29.5h76z" />
    <glyph glyph-name="adieresis" unicode="&#xe4;" horiz-adv-x="561" 
d="M83 31q-43 41 -43 130q0 90 46.5 123.5t145.5 33.5q73 0 142 -21v61q0 43 -31 61t-97 18q-82 0 -156 -20v103q78 20 171 20q115 0 174 -37t59 -135v-368h-93l-15 41q-59 -51 -163 -51q-97 0 -140 41zM374 105v109q-57 11 -111 11q-56 0 -78 -14t-22 -50q0 -42 21 -57.5
t77 -15.5q65 0 113 17zM124 716h113v-111h-113v111zM321 716h113v-111h-113v111z" />
    <glyph glyph-name="uni1EA1" unicode="&#x1ea1;" horiz-adv-x="561" 
d="M83 31q-43 41 -43 130q0 90 46.5 123.5t145.5 33.5q73 0 142 -21v61q0 43 -31 61t-97 18q-82 0 -156 -20v103q78 20 171 20q115 0 174 -37t59 -135v-368h-93l-15 41q-59 -51 -163 -51q-97 0 -140 41zM374 105v109q-57 11 -111 11q-56 0 -78 -14t-22 -50q0 -42 21 -57.5
t77 -15.5q65 0 113 17zM214 -73h131v-113h-131v113z" />
    <glyph glyph-name="agrave" unicode="&#xe0;" horiz-adv-x="561" 
d="M83 31q-43 41 -43 130q0 90 46.5 123.5t145.5 33.5q73 0 142 -21v61q0 43 -31 61t-97 18q-82 0 -156 -20v103q78 20 171 20q115 0 174 -37t59 -135v-368h-93l-15 41q-59 -51 -163 -51q-97 0 -140 41zM374 105v109q-57 11 -111 11q-56 0 -78 -14t-22 -50q0 -42 21 -57.5
t77 -15.5q65 0 113 17zM249 600l-109 152h127l84 -152h-102z" />
    <glyph glyph-name="uni1EA3" unicode="&#x1ea3;" horiz-adv-x="561" 
d="M83 31q-43 41 -43 130q0 90 46.5 123.5t145.5 33.5q73 0 142 -21v61q0 43 -31 61t-97 18q-82 0 -156 -20v103q78 20 171 20q115 0 174 -37t59 -135v-368h-93l-15 41q-59 -51 -163 -51q-97 0 -140 41zM374 105v109q-57 11 -111 11q-56 0 -78 -14t-22 -50q0 -42 21 -57.5
t77 -15.5q65 0 113 17zM228 644q33 8 53 22t20 30q0 31 -49 31q-30 0 -50.5 -4.5t-23.5 -5.5v72q45 9 87 9q52 0 85.5 -22t33.5 -67t-31.5 -76t-91.5 -45z" />
    <glyph glyph-name="amacron" unicode="&#x101;" horiz-adv-x="561" 
d="M83 31q-43 41 -43 130q0 90 46.5 123.5t145.5 33.5q73 0 142 -21v61q0 43 -31 61t-97 18q-82 0 -156 -20v103q78 20 171 20q115 0 174 -37t59 -135v-368h-93l-15 41q-59 -51 -163 -51q-97 0 -140 41zM374 105v109q-57 11 -111 11q-56 0 -78 -14t-22 -50q0 -42 21 -57.5
t77 -15.5q65 0 113 17zM135 712h300v-91h-300v91z" />
    <glyph glyph-name="aogonek" unicode="&#x105;" horiz-adv-x="561" 
d="M421 -61.5q-19 -21.5 -19 -40.5q0 -13 8.5 -19t31.5 -6q24 0 52 6v-80q-34 -9 -73 -9q-66 0 -90.5 22.5t-24.5 59.5q0 34 21 62.5t74 69.5l-14 37q-61 -51 -163 -51q-98 0 -140.5 40.5t-42.5 130.5q0 86 46.5 119t144.5 33q75 0 142 -21v66q0 43 -30.5 61t-96.5 18
q-82 0 -156 -20v103q78 20 171 20q113 0 172.5 -37t59.5 -129v-374q-54 -40 -73 -61.5zM374 220q-55 11 -110 11q-57 0 -78.5 -15t-21.5 -55q0 -43 21 -59t77 -16q66 0 112 17v117z" />
    <glyph glyph-name="aring" unicode="&#xe5;" horiz-adv-x="561" 
d="M83 31q-43 41 -43 130q0 90 46.5 123.5t145.5 33.5q73 0 142 -21v61q0 43 -31 61t-97 18q-82 0 -156 -20v103q78 20 171 20q115 0 174 -37t59 -135v-368h-93l-15 41q-59 -51 -163 -51q-97 0 -140 41zM374 105v109q-57 11 -111 11q-56 0 -78 -14t-22 -50q0 -42 21 -57.5
t77 -15.5q65 0 113 17zM385.5 786q29.5 -26 29.5 -80t-29.5 -80t-98.5 -26t-98.5 26t-29.5 80t29.5 80t98.5 26t98.5 -26zM334.5 670q13.5 12 13.5 37t-13.5 36.5t-47.5 11.5q-35 0 -48 -11.5t-13 -36.5t13 -37t48 -12q34 0 47.5 12z" />
    <glyph glyph-name="aringacute" unicode="&#x1fb;" horiz-adv-x="561" 
d="M320 1014h127l-109 -152h-102zM83 31q-43 41 -43 130q0 90 46.5 123.5t145.5 33.5q73 0 142 -21v61q0 43 -31 61t-97 18q-82 0 -156 -20v103q78 20 171 20q115 0 174 -37t59 -135v-368h-93l-15 41q-59 -51 -163 -51q-97 0 -140 41zM374 105v109q-57 11 -111 11
q-56 0 -78 -14t-22 -50q0 -42 21 -57.5t77 -15.5q65 0 113 17zM385.5 786q29.5 -26 29.5 -80t-29.5 -80t-98.5 -26t-98.5 26t-29.5 80t29.5 80t98.5 26t98.5 -26zM334.5 670q13.5 12 13.5 37t-13.5 36.5t-47.5 11.5q-35 0 -48 -11.5t-13 -36.5t13 -37t48 -12q34 0 47.5 12z
" />
    <glyph glyph-name="atilde" unicode="&#xe3;" horiz-adv-x="561" 
d="M83 31q-43 41 -43 130q0 90 46.5 123.5t145.5 33.5q73 0 142 -21v61q0 43 -31 61t-97 18q-82 0 -156 -20v103q78 20 171 20q115 0 174 -37t59 -135v-368h-93l-15 41q-59 -51 -163 -51q-97 0 -140 41zM374 105v109q-57 11 -111 11q-56 0 -78 -14t-22 -50q0 -42 21 -57.5
t77 -15.5q65 0 113 17zM452 726q0 -68 -25 -97t-78 -29q-26 0 -44.5 8t-42.5 23q-17 11 -25.5 15t-18.5 4q-17 0 -24 -10t-9 -35h-77q0 68 25 97.5t78 29.5q26 0 45.5 -8.5t41.5 -23.5q17 -11 25.5 -15t18.5 -4q17 0 24 10t9 35h77z" />
    <glyph glyph-name="ae" unicode="&#xe6;" horiz-adv-x="848" 
d="M798 226h-320q1 -52 14.5 -81t42.5 -41t80 -12q79 0 158 32v-104q-26 -12 -72.5 -21t-98.5 -9q-64 0 -108.5 15t-73.5 48q-41 -34 -91.5 -48.5t-104.5 -14.5q-96 0 -139.5 41t-43.5 129q0 85 50 117.5t151 32.5h117v35q0 92 -119 92q-76 0 -151 -21v103q79 21 155 21
q64 0 110 -20t66 -62q41 82 167 82q77 0 123.5 -25t68.5 -82t22 -153q0 -37 -3 -54zM686 310q-1 73 -22 102.5t-77 29.5q-55 0 -82 -26t-27 -83v-23h208zM312 93.5q29 7.5 68 27.5q-17 40 -20 107h-87q-61 0 -85 -15t-24 -54q0 -41 19.5 -57t66.5 -16q33 0 62 7.5z" />
    <glyph glyph-name="aeacute" unicode="&#x1fd;" horiz-adv-x="848" 
d="M798 226h-320q1 -52 14.5 -81t42.5 -41t80 -12q79 0 158 32v-104q-26 -12 -72.5 -21t-98.5 -9q-64 0 -108.5 15t-73.5 48q-41 -34 -91.5 -48.5t-104.5 -14.5q-96 0 -139.5 41t-43.5 129q0 85 50 117.5t151 32.5h117v35q0 92 -119 92q-76 0 -151 -21v103q79 21 155 21
q64 0 110 -20t66 -62q41 82 167 82q77 0 123.5 -25t68.5 -82t22 -153q0 -37 -3 -54zM686 310q-1 73 -22 102.5t-77 29.5q-55 0 -82 -26t-27 -83v-23h208zM312 93.5q29 7.5 68 27.5q-17 40 -20 107h-87q-61 0 -85 -15t-24 -54q0 -41 19.5 -57t66.5 -16q33 0 62 7.5zM451 752
h127l-109 -152h-102z" />
    <glyph glyph-name="cacute" unicode="&#x107;" horiz-adv-x="515" 
d="M162 15q-58 25 -86.5 85t-28.5 165t28.5 165t86.5 85t151 25q75 0 151 -21v-110q-69 23 -138 23q-59 0 -92 -13.5t-49 -49.5t-16 -104t16 -104t49 -49.5t92 -13.5q69 0 138 23v-110q-76 -21 -151 -21q-93 0 -151 25zM311 752h127l-109 -152h-102z" />
    <glyph glyph-name="ccaron" unicode="&#x10d;" horiz-adv-x="515" 
d="M162 15q-58 25 -86.5 85t-28.5 165t28.5 165t86.5 85t151 25q75 0 151 -21v-110q-69 23 -138 23q-59 0 -92 -13.5t-49 -49.5t-16 -104t16 -104t49 -49.5t92 -13.5q69 0 138 23v-110q-76 -21 -151 -21q-93 0 -151 25zM220 752l68 -80l65 80h119l-133 -152h-102l-136 152
h119z" />
    <glyph glyph-name="ccedilla" unicode="&#xe7;" horiz-adv-x="515" 
d="M162 15q-58 25 -86.5 85t-28.5 165t28.5 165t86.5 85t151 25q75 0 151 -21v-110q-69 23 -138 23q-59 0 -92 -13.5t-49 -49.5t-16 -104t16 -104t49 -49.5t92 -13.5q69 0 138 23v-110q-76 -21 -151 -21q-93 0 -151 25zM213 -138q23 -5 62 -5q29 0 41.5 5.5t12.5 20.5
q0 11 -8 17t-29 8t-62 2l25 90h72l-12 -45q57 -1 81 -20.5t24 -57.5q0 -87 -130 -87q-49 0 -77 5v67z" />
    <glyph glyph-name="ccircumflex" unicode="&#x109;" horiz-adv-x="515" 
d="M162 15q-58 25 -86.5 85t-28.5 165t28.5 165t86.5 85t151 25q75 0 151 -21v-110q-69 23 -138 23q-59 0 -92 -13.5t-49 -49.5t-16 -104t16 -104t49 -49.5t92 -13.5q69 0 138 23v-110q-76 -21 -151 -21q-93 0 -151 25zM230 752h102l133 -152h-119l-65 80l-68 -80h-119z" />
    <glyph glyph-name="cdotaccent" unicode="&#x10b;" horiz-adv-x="515" 
d="M162 15q-58 25 -86.5 85t-28.5 165t28.5 165t86.5 85t151 25q75 0 151 -21v-110q-69 23 -138 23q-59 0 -92 -13.5t-49 -49.5t-16 -104t16 -104t49 -49.5t92 -13.5q69 0 138 23v-110q-76 -21 -151 -21q-93 0 -151 25zM226 716h130v-112h-130v112z" />
    <glyph glyph-name="eth" unicode="&#xf0;" horiz-adv-x="588" 
d="M541 273q0 -134 -60 -208.5t-187 -74.5q-125 0 -186 64t-61 179t55 174.5t155 59.5q79 0 144 -38q-15 49 -46.5 84.5t-90.5 64.5l-58 -59l-39 40l43 43q-38 16 -101 34l32 94q83 -21 145 -50l66 67l40 -39l-55 -56q204 -122 204 -379zM393.5 138.5q28.5 40.5 28.5 126.5
q0 40 -9 71q-24 14 -57.5 23.5t-72.5 9.5q-114 0 -114 -133q0 -70 28.5 -104t100.5 -34q67 0 95.5 40.5z" />
    <glyph glyph-name="dcaron" unicode="&#x10f;" horiz-adv-x="689" 
d="M543 720v-720h-98l-17 40q-27 -21 -65.5 -35.5t-87.5 -14.5q-112 0 -170 62t-58 213q0 141 54.5 208t172.5 67q86 0 149 -44v224h120zM723 720l-33 -180h-89l18 180h104zM423 410q-48 23 -115 23q-54 0 -84 -16.5t-42.5 -52.5t-12.5 -99t12.5 -99.5t42 -53t84.5 -16.5
q68 0 115 22v292z" />
    <glyph glyph-name="dcroat" unicode="&#x111;" horiz-adv-x="614" 
d="M543 720v-720h-98l-17 40q-27 -21 -65.5 -35.5t-87.5 -14.5q-112 0 -170 62t-58 213q0 141 54.5 208t172.5 67q86 0 149 -44v224h120zM423 410q-48 23 -115 23q-54 0 -84 -16.5t-42.5 -52.5t-12.5 -99t12.5 -99.5t42 -53t84.5 -16.5q68 0 115 22v292zM265 662h344v-71
h-344v71z" />
    <glyph glyph-name="eacute" unicode="&#xe9;" horiz-adv-x="563" 
d="M155 16.5q-55 26.5 -81.5 86.5t-26.5 163q0 144 59 209t183 65q80 0 130 -26t73.5 -82.5t23.5 -151.5q0 -13 -3 -58h-347q2 -50 17 -78t47 -40t87 -12q85 0 168 32v-104q-68 -30 -186 -30q-89 0 -144 26.5zM400 316q-1 68 -25 97t-87 29q-64 0 -92 -30t-30 -96h234z
M299 752h127l-109 -152h-102z" />
    <glyph glyph-name="ebreve" unicode="&#x115;" horiz-adv-x="563" 
d="M155 16.5q-55 26.5 -81.5 86.5t-26.5 163q0 144 59 209t183 65q80 0 130 -26t73.5 -82.5t23.5 -151.5q0 -13 -3 -58h-347q2 -50 17 -78t47 -40t87 -12q85 0 168 32v-104q-68 -30 -186 -30q-89 0 -144 26.5zM400 316q-1 68 -25 97t-87 29q-64 0 -92 -30t-30 -96h234z
M156.5 628.5q-40.5 30.5 -41.5 106.5h93q1 -35 19.5 -49.5t55.5 -14.5t55.5 14.5t19.5 49.5h93q-1 -76 -41.5 -106.5t-126.5 -30.5t-126.5 30.5z" />
    <glyph glyph-name="ecaron" unicode="&#x11b;" horiz-adv-x="563" 
d="M155 16.5q-55 26.5 -81.5 86.5t-26.5 163q0 144 59 209t183 65q80 0 130 -26t73.5 -82.5t23.5 -151.5q0 -13 -3 -58h-347q2 -50 17 -78t47 -40t87 -12q85 0 168 32v-104q-68 -30 -186 -30q-89 0 -144 26.5zM400 316q-1 68 -25 97t-87 29q-64 0 -92 -30t-30 -96h234z
M215 752l68 -80l65 80h119l-133 -152h-102l-136 152h119z" />
    <glyph glyph-name="ecircumflex" unicode="&#xea;" horiz-adv-x="563" 
d="M155 16.5q-55 26.5 -81.5 86.5t-26.5 163q0 144 59 209t183 65q80 0 130 -26t73.5 -82.5t23.5 -151.5q0 -13 -3 -58h-347q2 -50 17 -78t47 -40t87 -12q85 0 168 32v-104q-68 -30 -186 -30q-89 0 -144 26.5zM400 316q-1 68 -25 97t-87 29q-64 0 -92 -30t-30 -96h234z
M232 752h102l133 -152h-119l-65 80l-68 -80h-119z" />
    <glyph glyph-name="uni1EBF" unicode="&#x1ebf;" horiz-adv-x="563" 
d="M155 16.5q-55 26.5 -81.5 86.5t-26.5 163q0 144 59 209t183 65q80 0 130 -26t73.5 -82.5t23.5 -151.5q0 -13 -3 -58h-347q2 -50 17 -78t47 -40t87 -12q85 0 168 32v-104q-68 -30 -186 -30q-89 0 -144 26.5zM400 316q-1 68 -25 97t-87 29q-64 0 -92 -30t-30 -96h234z
M227 730h102l131 -132h-122l-60 67l-63 -67h-121zM450 849h125l-102 -126h-98z" />
    <glyph glyph-name="uni1EC7" unicode="&#x1ec7;" horiz-adv-x="563" 
d="M155 16.5q-55 26.5 -81.5 86.5t-26.5 163q0 144 59 209t183 65q80 0 130 -26t73.5 -82.5t23.5 -151.5q0 -13 -3 -58h-347q2 -50 17 -78t47 -40t87 -12q85 0 168 32v-104q-68 -30 -186 -30q-89 0 -144 26.5zM400 316q-1 68 -25 97t-87 29q-64 0 -92 -30t-30 -96h234z
M221 -73h131v-113h-131v113zM232 752h102l133 -152h-119l-65 80l-68 -80h-119z" />
    <glyph glyph-name="uni1EC1" unicode="&#x1ec1;" horiz-adv-x="563" 
d="M155 16.5q-55 26.5 -81.5 86.5t-26.5 163q0 144 59 209t183 65q80 0 130 -26t73.5 -82.5t23.5 -151.5q0 -13 -3 -58h-347q2 -50 17 -78t47 -40t87 -12q85 0 168 32v-104q-68 -30 -186 -30q-89 0 -144 26.5zM400 316q-1 68 -25 97t-87 29q-64 0 -92 -30t-30 -96h234z
M336 730h-102l-131 -132h122l60 67l63 -67h121zM425 849h-125l102 -126h98z" />
    <glyph glyph-name="uni1EC3" unicode="&#x1ec3;" horiz-adv-x="563" 
d="M155 16.5q-55 26.5 -81.5 86.5t-26.5 163q0 144 59 209t183 65q80 0 130 -26t73.5 -82.5t23.5 -151.5q0 -13 -3 -58h-347q2 -50 17 -78t47 -40t87 -12q85 0 168 32v-104q-68 -30 -186 -30q-89 0 -144 26.5zM400 316q-1 68 -25 97t-87 29q-64 0 -92 -30t-30 -96h234z
M237 730h102l131 -132h-122l-60 67l-63 -67h-121zM388 746q57 12 57 38q0 27 -42 27q-30 0 -60 -7v77q33 9 79 9q48 0 83 -22.5t35 -63.5q0 -44 -31 -72.5t-87 -41.5z" />
    <glyph glyph-name="uni1EC5" unicode="&#x1ec5;" horiz-adv-x="563" 
d="M155 16.5q-55 26.5 -81.5 86.5t-26.5 163q0 144 59 209t183 65q80 0 130 -26t73.5 -82.5t23.5 -151.5q0 -13 -3 -58h-347q2 -50 17 -78t47 -40t87 -12q85 0 168 32v-104q-68 -30 -186 -30q-89 0 -144 26.5zM400 316q-1 68 -25 97t-87 29q-64 0 -92 -30t-30 -96h234z
M234 709.424h102l131 -115.984h-122l-60 58.8711l-63 -58.8711h-121zM447 860q0 -66 -24 -92t-75 -26q-24 0 -41 7t-39 20q-10 6 -20.5 11t-19.5 5q-15 0 -21.5 -8.5t-8.5 -29.5h-76q0 66 24 92.5t75 26.5q24 0 41 -7t39 -20q14 -9 22.5 -13t17.5 -4q15 0 22 8.5t8 29.5h76z
" />
    <glyph glyph-name="edieresis" unicode="&#xeb;" horiz-adv-x="563" 
d="M155 16.5q-55 26.5 -81.5 86.5t-26.5 163q0 144 59 209t183 65q80 0 130 -26t73.5 -82.5t23.5 -151.5q0 -13 -3 -58h-347q2 -50 17 -78t47 -40t87 -12q85 0 168 32v-104q-68 -30 -186 -30q-89 0 -144 26.5zM400 316q-1 68 -25 97t-87 29q-64 0 -92 -30t-30 -96h234z
M127 716h113v-111h-113v111zM324 716h113v-111h-113v111z" />
    <glyph glyph-name="edotaccent" unicode="&#x117;" horiz-adv-x="563" 
d="M155 16.5q-55 26.5 -81.5 86.5t-26.5 163q0 144 59 209t183 65q80 0 130 -26t73.5 -82.5t23.5 -151.5q0 -13 -3 -58h-347q2 -50 17 -78t47 -40t87 -12q85 0 168 32v-104q-68 -30 -186 -30q-89 0 -144 26.5zM400 316q-1 68 -25 97t-87 29q-64 0 -92 -30t-30 -96h234z
M217 716h130v-112h-130v112z" />
    <glyph glyph-name="uni1EB9" unicode="&#x1eb9;" horiz-adv-x="563" 
d="M155 16.5q-55 26.5 -81.5 86.5t-26.5 163q0 144 59 209t183 65q80 0 130 -26t73.5 -82.5t23.5 -151.5q0 -13 -3 -58h-347q2 -50 17 -78t47 -40t87 -12q85 0 168 32v-104q-68 -30 -186 -30q-89 0 -144 26.5zM400 316q-1 68 -25 97t-87 29q-64 0 -92 -30t-30 -96h234z
M219 -73h131v-113h-131v113z" />
    <glyph glyph-name="egrave" unicode="&#xe8;" horiz-adv-x="563" 
d="M155 16.5q-55 26.5 -81.5 86.5t-26.5 163q0 144 59 209t183 65q80 0 130 -26t73.5 -82.5t23.5 -151.5q0 -13 -3 -58h-347q2 -50 17 -78t47 -40t87 -12q85 0 168 32v-104q-68 -30 -186 -30q-89 0 -144 26.5zM400 316q-1 68 -25 97t-87 29q-64 0 -92 -30t-30 -96h234z
M242 600l-109 152h127l84 -152h-102z" />
    <glyph glyph-name="uni1EBB" unicode="&#x1ebb;" horiz-adv-x="563" 
d="M155 16.5q-55 26.5 -81.5 86.5t-26.5 163q0 144 59 209t183 65q80 0 130 -26t73.5 -82.5t23.5 -151.5q0 -13 -3 -58h-347q2 -50 17 -78t47 -40t87 -12q85 0 168 32v-104q-68 -30 -186 -30q-89 0 -144 26.5zM400 316q-1 68 -25 97t-87 29q-64 0 -92 -30t-30 -96h234z
M230 644q33 8 53 22t20 30q0 31 -49 31q-30 0 -50.5 -4.5t-23.5 -5.5v72q45 9 87 9q52 0 85.5 -22t33.5 -67t-31.5 -76t-91.5 -45z" />
    <glyph glyph-name="emacron" unicode="&#x113;" horiz-adv-x="563" 
d="M155 16.5q-55 26.5 -81.5 86.5t-26.5 163q0 144 59 209t183 65q80 0 130 -26t73.5 -82.5t23.5 -151.5q0 -13 -3 -58h-347q2 -50 17 -78t47 -40t87 -12q85 0 168 32v-104q-68 -30 -186 -30q-89 0 -144 26.5zM400 316q-1 68 -25 97t-87 29q-64 0 -92 -30t-30 -96h234z
M132 712h300v-91h-300v91z" />
    <glyph glyph-name="eogonek" unicode="&#x119;" horiz-adv-x="563" 
d="M513 226h-347q1 -52 16 -81t47 -41t88 -12q85 0 168 32v-100l-31 -19q-97 -62 -97 -105q0 -15 8.5 -21t31.5 -6q24 0 52 6v-80q-34 -9 -73 -9q-66 0 -90.5 22.5t-24.5 60.5q0 34 18 61.5t58 57.5q-20 -2 -38 -2q-89 0 -144 26.5t-81.5 86.5t-26.5 163q0 144 59 209
t183 65q80 0 130 -26t73.5 -82.5t23.5 -151.5q0 -21 -3 -54zM400 309q-1 72 -25 102.5t-87 30.5q-65 0 -92.5 -31.5t-29.5 -101.5h234z" />
    <glyph glyph-name="uni1EBD" unicode="&#x1ebd;" horiz-adv-x="563" 
d="M155 16.5q-55 26.5 -81.5 86.5t-26.5 163q0 144 59 209t183 65q80 0 130 -26t73.5 -82.5t23.5 -151.5q0 -13 -3 -58h-347q2 -50 17 -78t47 -40t87 -12q85 0 168 32v-104q-68 -30 -186 -30q-89 0 -144 26.5zM400 316q-1 68 -25 97t-87 29q-64 0 -92 -30t-30 -96h234z
M454 726q0 -68 -25 -97t-78 -29q-26 0 -44.5 8t-42.5 23q-17 11 -25.5 15t-18.5 4q-17 0 -24 -10t-9 -35h-77q0 68 25 97.5t78 29.5q26 0 45.5 -8.5t41.5 -23.5q17 -11 25.5 -15t18.5 -4q17 0 24 10t9 35h77z" />
    <glyph glyph-name="uni0259" unicode="&#x259;" horiz-adv-x="563" 
d="M408 513.5q55 -26.5 81.5 -86.5t26.5 -163q0 -144 -59 -209t-183 -65q-80 0 -130 26t-73.5 82.5t-23.5 151.5q0 13 3 58h347q-2 50 -17 78t-47 40t-87 12q-85 0 -168 -32v104q68 30 186 30q89 0 144 -26.5zM163 214q1 -68 25 -97t87 -29q64 0 92 30t30 96h-234z" />
    <glyph glyph-name="gbreve" unicode="&#x11f;" horiz-adv-x="613" 
d="M110 -104q158 6 231 28q46 13 66 35t20 57v25q-26 -12 -67 -21.5t-86 -9.5q-109 0 -168 61t-59 204q0 134 54.5 199.5t172.5 65.5q48 0 86 -13.5t63 -31.5v35h120v-487q0 -77 -24.5 -124t-85.5 -75t-172 -42q-74 -10 -151 -12v106zM423 131v279q-25 11 -52 17t-64 6
q-79 0 -108.5 -36.5t-29.5 -121.5q0 -86 30.5 -123.5t107.5 -37.5q63 0 116 17zM177.5 628.5q-40.5 30.5 -41.5 106.5h93q1 -35 19.5 -49.5t55.5 -14.5t55.5 14.5t19.5 49.5h93q-1 -76 -41.5 -106.5t-126.5 -30.5t-126.5 30.5z" />
    <glyph glyph-name="gcaron" unicode="&#x1e7;" horiz-adv-x="613" 
d="M110 -104q158 6 231 28q46 13 66 35t20 57v25q-26 -12 -67 -21.5t-86 -9.5q-109 0 -168 61t-59 204q0 134 54.5 199.5t172.5 65.5q48 0 86 -13.5t63 -31.5v35h120v-487q0 -77 -24.5 -124t-85.5 -75t-172 -42q-74 -10 -151 -12v106zM423 131v279q-25 11 -52 17t-64 6
q-79 0 -108.5 -36.5t-29.5 -121.5q0 -86 30.5 -123.5t107.5 -37.5q63 0 116 17zM238 752l68 -80l65 80h119l-133 -152h-102l-136 152h119z" />
    <glyph glyph-name="gcircumflex" unicode="&#x11d;" horiz-adv-x="613" 
d="M110 -104q158 6 231 28q46 13 66 35t20 57v25q-26 -12 -67 -21.5t-86 -9.5q-109 0 -168 61t-59 204q0 134 54.5 199.5t172.5 65.5q48 0 86 -13.5t63 -31.5v35h120v-487q0 -77 -24.5 -124t-85.5 -75t-172 -42q-74 -10 -151 -12v106zM423 131v279q-25 11 -52 17t-64 6
q-79 0 -108.5 -36.5t-29.5 -121.5q0 -86 30.5 -123.5t107.5 -37.5q63 0 116 17zM259 752h102l133 -152h-119l-65 80l-68 -80h-119z" />
    <glyph glyph-name="gcommaaccent" unicode="&#x123;" horiz-adv-x="613" 
d="M110 -104q158 6 231 28q46 13 66 35t20 57v25q-26 -12 -67 -21.5t-86 -9.5q-109 0 -168 61t-59 204q0 134 54.5 199.5t172.5 65.5q48 0 86 -13.5t63 -31.5v35h120v-487q0 -77 -24.5 -124t-85.5 -75t-172 -42q-74 -10 -151 -12v106zM423 131v279q-25 11 -52 17t-64 6
q-79 0 -108.5 -36.5t-29.5 -121.5q0 -86 30.5 -123.5t107.5 -37.5q63 0 116 17zM299 756h91l-35 -158h-125z" />
    <glyph glyph-name="gdotaccent" unicode="&#x121;" horiz-adv-x="613" 
d="M110 -104q158 6 231 28q46 13 66 35t20 57v25q-26 -12 -67 -21.5t-86 -9.5q-109 0 -168 61t-59 204q0 134 54.5 199.5t172.5 65.5q48 0 86 -13.5t63 -31.5v35h120v-487q0 -77 -24.5 -124t-85.5 -75t-172 -42q-74 -10 -151 -12v106zM423 131v279q-25 11 -52 17t-64 6
q-79 0 -108.5 -36.5t-29.5 -121.5q0 -86 30.5 -123.5t107.5 -37.5q63 0 116 17zM229 716h130v-112h-130v112z" />
    <glyph glyph-name="hbar" unicode="&#x127;" horiz-adv-x="607" 
d="M71 530h115v-43q28 22 75 37.5t104 15.5q96 0 135.5 -39t39.5 -116v-385h-120v350q0 44 -22 63.5t-79 19.5q-39 0 -72 -7.5t-56 -18.5v-407h-120v530zM71 720h120v-720h-120v720zM5 666h344v-71h-344v71z" />
    <glyph glyph-name="hcircumflex" unicode="&#x125;" horiz-adv-x="607" 
d="M71 530h115v-43q28 22 75 37.5t104 15.5q96 0 135.5 -39t39.5 -116v-385h-120v350q0 44 -22 63.5t-79 19.5q-39 0 -72 -7.5t-56 -18.5v-407h-120v530zM71 720h120v-720h-120v720zM253 932h102l133 -152h-119l-65 80l-68 -80h-119z" />
    <glyph glyph-name="dotlessi" unicode="&#x131;" horiz-adv-x="262" 
d="M71 530h120v-530h-120v530z" />
    <glyph glyph-name="iacute" unicode="&#xed;" horiz-adv-x="256" 
d="M64 530h120v-530h-120v530zM150 752h127l-109 -152h-102z" />
    <glyph glyph-name="ibreve" unicode="&#x12d;" horiz-adv-x="257" 
d="M69 530h120v-530h-120v530zM1.5 628.5q-40.5 30.5 -41.5 106.5h93q1 -35 19.5 -49.5t55.5 -14.5t55.5 14.5t19.5 49.5h93q-1 -76 -41.5 -106.5t-126.5 -30.5t-126.5 30.5z" />
    <glyph glyph-name="icircumflex" unicode="&#xee;" horiz-adv-x="257" 
d="M69 530h120v-530h-120v530zM79 752h102l133 -152h-119l-65 80l-68 -80h-119z" />
    <glyph glyph-name="idieresis" unicode="&#xef;" horiz-adv-x="257" 
d="M69 530h120v-530h-120v530zM-26 716h113v-111h-113v111zM171 716h113v-111h-113v111z" />
    <glyph glyph-name="uni1ECB" unicode="&#x1ecb;" horiz-adv-x="258" 
d="M64 716h131v-112h-131v112zM70 530h120v-530h-120v530zM63 -73h131v-113h-131v113z" />
    <glyph glyph-name="igrave" unicode="&#xec;" horiz-adv-x="257" 
d="M193 530h-120v-530h120v530zM107 752h-127l109 -152h102z" />
    <glyph glyph-name="uni1EC9" unicode="&#x1ec9;" horiz-adv-x="257" 
d="M69 530h120v-530h-120v530zM74 644q33 8 53 22t20 30q0 31 -49 31q-30 0 -50.5 -4.5t-23.5 -5.5v72q45 9 87 9q52 0 85.5 -22t33.5 -67t-31.5 -76t-91.5 -45z" />
    <glyph glyph-name="imacron" unicode="&#x12b;" horiz-adv-x="257" 
d="M69 530h120v-530h-120v530zM-22 712h300v-91h-300v91z" />
    <glyph glyph-name="iogonek" unicode="&#x12f;" horiz-adv-x="257" 
d="M63 716h131v-112h-131v112zM24.5 -187.5q-24.5 22.5 -24.5 59.5q0 34 20.5 62t69.5 66h-21v530h120v-530q-54 -40 -73.5 -61.5t-19.5 -40.5q0 -13 9 -19t31 -6q25 0 53 6v-80q-36 -9 -74 -9q-66 0 -90.5 22.5z" />
    <glyph glyph-name="itilde" unicode="&#x129;" horiz-adv-x="257" 
d="M69 530h120v-530h-120v530zM300 726q0 -68 -25 -97t-78 -29q-26 0 -44.5 8t-42.5 23q-17 11 -25.5 15t-18.5 4q-17 0 -24 -10t-9 -35h-77q0 68 25 97.5t78 29.5q26 0 45.5 -8.5t41.5 -23.5q17 -11 25.5 -15t18.5 -4q17 0 24 10t9 35h77z" />
    <glyph glyph-name="uni0237" unicode="&#x237;" horiz-adv-x="270" 
d="M-37 -132q50 58 74 96t33 75t9 93v398h120v-406q0 -65 -10.5 -111.5t-42.5 -98.5t-96 -124z" />
    <glyph glyph-name="jcircumflex" unicode="&#x135;" horiz-adv-x="257" 
d="M-42 -132q50 58 74 96t33 75t9 93v398h120v-406q0 -65 -10.5 -111.5t-42.5 -98.5t-96 -124zM82 752h102l133 -152h-119l-65 80l-68 -80h-119z" />
    <glyph glyph-name="kcommaaccent" unicode="&#x137;" horiz-adv-x="554" 
d="M71 720h120v-720h-120v720zM402 0l-211 267v-267h-120v530h120v-251l197 251h146l-212 -255l227 -275h-147zM229 -50h124l-54 -150h-109z" />
    <glyph glyph-name="kgreenlandic" unicode="&#x138;" horiz-adv-x="554" 
d="M402 0l-211 267v-267h-120v530h120v-251l197 251h146l-212 -255l227 -275h-147z" />
    <glyph glyph-name="lacute" unicode="&#x13a;" horiz-adv-x="262" 
d="M82 720h120v-720h-120v720zM164 932h127l-109 -152h-102z" />
    <glyph glyph-name="lcaron" unicode="&#x13e;" horiz-adv-x="359" 
d="M71 720h120v-720h-120v720zM259 720h104l-33 -180h-89z" />
    <glyph glyph-name="lcommaaccent" unicode="&#x13c;" horiz-adv-x="262" 
d="M60 720h120v-720h-120v720zM57 -50h124l-54 -150h-109z" />
    <glyph glyph-name="ldot" unicode="&#x140;" horiz-adv-x="398" 
d="M71 720h120v-720h-120v720zM248 389h129v-131h-129v131z" />
    <glyph glyph-name="lslash" unicode="&#x142;" horiz-adv-x="320" 
d="M303 424l-85 -32v-392h-120v347l-81 -30v111l81 30v262h120v-217l85 32v-111z" />
    <glyph glyph-name="nacute" unicode="&#x144;" horiz-adv-x="607" 
d="M71 530h115v-43q28 22 75 37.5t104 15.5q96 0 135.5 -39t39.5 -116v-385h-120v350q0 44 -22 63.5t-79 19.5q-39 0 -72 -7.5t-56 -18.5v-407h-120v530zM333 752h127l-109 -152h-102z" />
    <glyph glyph-name="napostrophe" unicode="&#x149;" horiz-adv-x="635" 
d="M48 750h104l-33 -180h-89zM99 530h115v-43q28 22 75 37.5t104 15.5q96 0 135.5 -39t39.5 -116v-385h-120v350q0 44 -22 63.5t-79 19.5q-39 0 -72 -7.5t-56 -18.5v-407h-120v530z" />
    <glyph glyph-name="ncaron" unicode="&#x148;" horiz-adv-x="607" 
d="M71 530h115v-43q28 22 75 37.5t104 15.5q96 0 135.5 -39t39.5 -116v-385h-120v350q0 44 -22 63.5t-79 19.5q-39 0 -72 -7.5t-56 -18.5v-407h-120v530zM254 752l68 -80l65 80h119l-133 -152h-102l-136 152h119z" />
    <glyph glyph-name="ncommaaccent" unicode="&#x146;" horiz-adv-x="607" 
d="M71 530h115v-43q28 22 75 37.5t104 15.5q96 0 135.5 -39t39.5 -116v-385h-120v350q0 44 -22 63.5t-79 19.5q-39 0 -72 -7.5t-56 -18.5v-407h-120v530zM255 -50h124l-54 -150h-109z" />
    <glyph glyph-name="eng" unicode="&#x14b;" horiz-adv-x="607" 
d="M500.5 501q39.5 -39 39.5 -116v-385q0 -47 -12.5 -77.5t-37 -56t-81.5 -76.5l-77 77q37 33 54.5 52.5t25.5 41t8 54.5v335q0 44 -22 63.5t-79 19.5q-39 0 -72 -7.5t-56 -18.5v-407h-120v530h115v-43q28 22 75 37.5t104 15.5q96 0 135.5 -39z" />
    <glyph glyph-name="uni0272" unicode="&#x272;" horiz-adv-x="607" 
d="M500.5 501q39.5 -39 39.5 -116v-385h-120v350q0 44 -22 63.5t-79 19.5q-39 0 -72 -7.5t-56 -18.5v-407q0 -47 -12.5 -77.5t-37 -56t-81.5 -76.5l-77 77q36 32 54 51.5t26 41.5t8 55v515h115v-43q28 22 75 37.5t104 15.5q96 0 135.5 -39z" />
    <glyph glyph-name="ntilde" unicode="&#xf1;" horiz-adv-x="607" 
d="M71 530h115v-43q28 22 75 37.5t104 15.5q96 0 135.5 -39t39.5 -116v-385h-120v350q0 44 -22 63.5t-79 19.5q-39 0 -72 -7.5t-56 -18.5v-407h-120v530zM483 726q0 -68 -25 -97t-78 -29q-26 0 -44.5 8t-42.5 23q-17 11 -25.5 15t-18.5 4q-17 0 -24 -10t-9 -35h-77
q0 68 25 97.5t78 29.5q26 0 45.5 -8.5t41.5 -23.5q17 -11 25.5 -15t18.5 -4q17 0 24 10t9 35h77z" />
    <glyph glyph-name="oacute" unicode="&#xf3;" horiz-adv-x="602" 
d="M110.5 52q-63.5 62 -63.5 213q0 150 64 212.5t190 62.5q127 0 190.5 -62.5t63.5 -212.5q0 -151 -63.5 -213t-190.5 -62t-190.5 62zM375 110.5q28 13.5 43 50t15 104.5t-15 104.5t-43.5 50t-73.5 13.5t-73.5 -13.5t-43.5 -50t-15 -104.5t15 -104.5t43.5 -50t73.5 -13.5
q46 0 74 13.5zM325 752h127l-109 -152h-102z" />
    <glyph glyph-name="obreve" unicode="&#x14f;" horiz-adv-x="602" 
d="M110.5 52q-63.5 62 -63.5 213q0 150 64 212.5t190 62.5q127 0 190.5 -62.5t63.5 -212.5q0 -151 -63.5 -213t-190.5 -62t-190.5 62zM375 110.5q28 13.5 43 50t15 104.5t-15 104.5t-43.5 50t-73.5 13.5t-73.5 -13.5t-43.5 -50t-15 -104.5t15 -104.5t43.5 -50t73.5 -13.5
q46 0 74 13.5zM174.5 628.5q-40.5 30.5 -41.5 106.5h93q1 -35 19.5 -49.5t55.5 -14.5t55.5 14.5t19.5 49.5h93q-1 -76 -41.5 -106.5t-126.5 -30.5t-126.5 30.5z" />
    <glyph glyph-name="ocircumflex" unicode="&#xf4;" horiz-adv-x="602" 
d="M110.5 52q-63.5 62 -63.5 213q0 150 64 212.5t190 62.5q127 0 190.5 -62.5t63.5 -212.5q0 -151 -63.5 -213t-190.5 -62t-190.5 62zM375 110.5q28 13.5 43 50t15 104.5t-15 104.5t-43.5 50t-73.5 13.5t-73.5 -13.5t-43.5 -50t-15 -104.5t15 -104.5t43.5 -50t73.5 -13.5
q46 0 74 13.5zM251 752h102l133 -152h-119l-65 80l-68 -80h-119z" />
    <glyph glyph-name="uni1ED1" unicode="&#x1ed1;" horiz-adv-x="602" 
d="M110.5 52q-63.5 62 -63.5 213q0 150 64 212.5t190 62.5q127 0 190.5 -62.5t63.5 -212.5q0 -151 -63.5 -213t-190.5 -62t-190.5 62zM375 110.5q28 13.5 43 50t15 104.5t-15 104.5t-43.5 50t-73.5 13.5t-73.5 -13.5t-43.5 -50t-15 -104.5t15 -104.5t43.5 -50t73.5 -13.5
q46 0 74 13.5zM250 730h102l131 -132h-122l-60 67l-63 -67h-121zM473 849h125l-102 -126h-98z" />
    <glyph glyph-name="uni1ED9" unicode="&#x1ed9;" horiz-adv-x="602" 
d="M236 -73h131v-113h-131v113zM110.5 52q-63.5 62 -63.5 213q0 150 64 212.5t190 62.5q127 0 190.5 -62.5t63.5 -212.5q0 -151 -63.5 -213t-190.5 -62t-190.5 62zM375 110.5q28 13.5 43 50t15 104.5t-15 104.5t-43.5 50t-73.5 13.5t-73.5 -13.5t-43.5 -50t-15 -104.5
t15 -104.5t43.5 -50t73.5 -13.5q46 0 74 13.5zM251 752h102l133 -152h-119l-65 80l-68 -80h-119z" />
    <glyph glyph-name="uni1ED3" unicode="&#x1ed3;" horiz-adv-x="602" 
d="M110.5 52q-63.5 62 -63.5 213q0 150 64 212.5t190 62.5q127 0 190.5 -62.5t63.5 -212.5q0 -151 -63.5 -213t-190.5 -62t-190.5 62zM375 110.5q28 13.5 43 50t15 104.5t-15 104.5t-43.5 50t-73.5 13.5t-73.5 -13.5t-43.5 -50t-15 -104.5t15 -104.5t43.5 -50t73.5 -13.5
q46 0 74 13.5zM349 730h-102l-131 -132h122l60 67l63 -67h121zM438 849h-125l102 -126h98z" />
    <glyph glyph-name="uni1ED5" unicode="&#x1ed5;" horiz-adv-x="602" 
d="M110.5 52q-63.5 62 -63.5 213q0 150 64 212.5t190 62.5q127 0 190.5 -62.5t63.5 -212.5q0 -151 -63.5 -213t-190.5 -62t-190.5 62zM375 110.5q28 13.5 43 50t15 104.5t-15 104.5t-43.5 50t-73.5 13.5t-73.5 -13.5t-43.5 -50t-15 -104.5t15 -104.5t43.5 -50t73.5 -13.5
q46 0 74 13.5zM252 730h102l131 -132h-122l-60 67l-63 -67h-121zM403 746q57 12 57 38q0 27 -42 27q-30 0 -60 -7v77q33 9 79 9q48 0 83 -22.5t35 -63.5q0 -44 -31 -72.5t-87 -41.5z" />
    <glyph glyph-name="uni1ED7" unicode="&#x1ed7;" horiz-adv-x="602" 
d="M110.5 52q-63.5 62 -63.5 213q0 150 64 212.5t190 62.5q127 0 190.5 -62.5t63.5 -212.5q0 -151 -63.5 -213t-190.5 -62t-190.5 62zM375 110.5q28 13.5 43 50t15 104.5t-15 104.5t-43.5 50t-73.5 13.5t-73.5 -13.5t-43.5 -50t-15 -104.5t15 -104.5t43.5 -50t73.5 -13.5
q46 0 74 13.5zM251 709.424h102l131 -115.984h-122l-60 58.8711l-63 -58.8711h-121zM464 860q0 -66 -24 -92t-75 -26q-24 0 -41 7t-39 20q-10 6 -20.5 11t-19.5 5q-15 0 -21.5 -8.5t-8.5 -29.5h-76q0 66 24 92.5t75 26.5q24 0 41 -7t39 -20q14 -9 22.5 -13t17.5 -4
q15 0 22 8.5t8 29.5h76z" />
    <glyph glyph-name="odieresis" unicode="&#xf6;" horiz-adv-x="602" 
d="M110.5 52q-63.5 62 -63.5 213q0 150 64 212.5t190 62.5q127 0 190.5 -62.5t63.5 -212.5q0 -151 -63.5 -213t-190.5 -62t-190.5 62zM375 110.5q28 13.5 43 50t15 104.5t-15 104.5t-43.5 50t-73.5 13.5t-73.5 -13.5t-43.5 -50t-15 -104.5t15 -104.5t43.5 -50t73.5 -13.5
q46 0 74 13.5zM146 716h113v-111h-113v111zM343 716h113v-111h-113v111z" />
    <glyph glyph-name="uni1ECD" unicode="&#x1ecd;" horiz-adv-x="602" 
d="M110.5 52q-63.5 62 -63.5 213q0 150 64 212.5t190 62.5q127 0 190.5 -62.5t63.5 -212.5q0 -151 -63.5 -213t-190.5 -62t-190.5 62zM375 110.5q28 13.5 43 50t15 104.5t-15 104.5t-43.5 50t-73.5 13.5t-73.5 -13.5t-43.5 -50t-15 -104.5t15 -104.5t43.5 -50t73.5 -13.5
q46 0 74 13.5zM236 -73h131v-113h-131v113z" />
    <glyph glyph-name="ograve" unicode="&#xf2;" horiz-adv-x="602" 
d="M491.5 52q63.5 62 63.5 213q0 150 -64 212.5t-190 62.5q-127 0 -190.5 -62.5t-63.5 -212.5q0 -151 63.5 -213t190.5 -62t190.5 62zM227 110.5q-28 13.5 -43 50t-15 104.5t15 104.5t43.5 50t73.5 13.5t73.5 -13.5t43.5 -50t15 -104.5t-15 -104.5t-43.5 -50t-73.5 -13.5
q-46 0 -74 13.5zM277 752h-127l109 -152h102z" />
    <glyph glyph-name="uni1ECF" unicode="&#x1ecf;" horiz-adv-x="602" 
d="M110.5 52q-63.5 62 -63.5 213q0 150 64 212.5t190 62.5q127 0 190.5 -62.5t63.5 -212.5q0 -151 -63.5 -213t-190.5 -62t-190.5 62zM375 110.5q28 13.5 43 50t15 104.5t-15 104.5t-43.5 50t-73.5 13.5t-73.5 -13.5t-43.5 -50t-15 -104.5t15 -104.5t43.5 -50t73.5 -13.5
q46 0 74 13.5zM255 644q33 8 53 22t20 30q0 31 -49 31q-30 0 -50.5 -4.5t-23.5 -5.5v72q45 9 87 9q52 0 85.5 -22t33.5 -67t-31.5 -76t-91.5 -45z" />
    <glyph glyph-name="ohorn" unicode="&#x1a1;" horiz-adv-x="602" 
d="M110.5 52q-63.5 62 -63.5 213q0 150 64 212.5t190 62.5q127 0 190.5 -62.5t63.5 -212.5q0 -151 -63.5 -213t-190.5 -62t-190.5 62zM375 110.5q28 13.5 43 50t15 104.5t-15 104.5t-43.5 50t-73.5 13.5t-73.5 -13.5t-43.5 -50t-15 -104.5t15 -104.5t43.5 -50t73.5 -13.5
q46 0 74 13.5zM434 536.5q11 27.5 11 77.5q0 24 -3 42h108q4 -30 4 -54q0 -67 -38 -113t-107 -57l-12 60q26 17 37 44.5z" />
    <glyph glyph-name="uni1EDB" unicode="&#x1edb;" horiz-adv-x="602" 
d="M110.5 52q-63.5 62 -63.5 213q0 150 64 212.5t190 62.5q127 0 190.5 -62.5t63.5 -212.5q0 -151 -63.5 -213t-190.5 -62t-190.5 62zM375 110.5q28 13.5 43 50t15 104.5t-15 104.5t-43.5 50t-73.5 13.5t-73.5 -13.5t-43.5 -50t-15 -104.5t15 -104.5t43.5 -50t73.5 -13.5
q46 0 74 13.5zM434 536.5q11 27.5 11 77.5q0 24 -3 42h108q4 -30 4 -54q0 -67 -38 -113t-107 -57l-12 60q26 17 37 44.5zM281 752h127l-109 -152h-102z" />
    <glyph glyph-name="uni1EE3" unicode="&#x1ee3;" horiz-adv-x="602" 
d="M110.5 52q-63.5 62 -63.5 213q0 150 64 212.5t190 62.5q127 0 190.5 -62.5t63.5 -212.5q0 -151 -63.5 -213t-190.5 -62t-190.5 62zM375 110.5q28 13.5 43 50t15 104.5t-15 104.5t-43.5 50t-73.5 13.5t-73.5 -13.5t-43.5 -50t-15 -104.5t15 -104.5t43.5 -50t73.5 -13.5
q46 0 74 13.5zM434 536.5q11 27.5 11 77.5q0 24 -3 42h108q4 -30 4 -54q0 -67 -38 -113t-107 -57l-12 60q26 17 37 44.5zM236 -73h131v-113h-131v113z" />
    <glyph glyph-name="uni1EDD" unicode="&#x1edd;" horiz-adv-x="602" 
d="M110.5 52q-63.5 62 -63.5 213q0 150 64 212.5t190 62.5q127 0 190.5 -62.5t63.5 -212.5q0 -151 -63.5 -213t-190.5 -62t-190.5 62zM375 110.5q28 13.5 43 50t15 104.5t-15 104.5t-43.5 50t-73.5 13.5t-73.5 -13.5t-43.5 -50t-15 -104.5t15 -104.5t43.5 -50t73.5 -13.5
q46 0 74 13.5zM434 536.5q11 27.5 11 77.5q0 24 -3 42h108q4 -30 4 -54q0 -67 -38 -113t-107 -57l-12 60q26 17 37 44.5zM247 600l-109 152h127l84 -152h-102z" />
    <glyph glyph-name="uni1EDF" unicode="&#x1edf;" horiz-adv-x="602" 
d="M110.5 52q-63.5 62 -63.5 213q0 150 64 212.5t190 62.5q127 0 190.5 -62.5t63.5 -212.5q0 -151 -63.5 -213t-190.5 -62t-190.5 62zM375 110.5q28 13.5 43 50t15 104.5t-15 104.5t-43.5 50t-73.5 13.5t-73.5 -13.5t-43.5 -50t-15 -104.5t15 -104.5t43.5 -50t73.5 -13.5
q46 0 74 13.5zM434 536.5q11 27.5 11 77.5q0 24 -3 42h108q4 -30 4 -54q0 -67 -38 -113t-107 -57l-12 60q26 17 37 44.5zM232 644q33 8 53 22t20 30q0 31 -49 31q-30 0 -50.5 -4.5t-23.5 -5.5v72q45 9 87 9q52 0 85.5 -22t33.5 -67t-31.5 -76t-91.5 -45z" />
    <glyph glyph-name="uni1EE1" unicode="&#x1ee1;" horiz-adv-x="602" 
d="M110.5 52q-63.5 62 -63.5 213q0 150 64 212.5t190 62.5q127 0 190.5 -62.5t63.5 -212.5q0 -151 -63.5 -213t-190.5 -62t-190.5 62zM375 110.5q28 13.5 43 50t15 104.5t-15 104.5t-43.5 50t-73.5 13.5t-73.5 -13.5t-43.5 -50t-15 -104.5t15 -104.5t43.5 -50t73.5 -13.5
q46 0 74 13.5zM434 536.5q11 27.5 11 77.5q0 24 -3 42h108q4 -30 4 -54q0 -67 -38 -113t-107 -57l-12 60q26 17 37 44.5zM408 726q0 -68 -25 -97t-78 -29q-26 0 -44.5 8t-42.5 23q-17 11 -25.5 15t-18.5 4q-17 0 -24 -10t-9 -35h-77q0 68 25 97.5t78 29.5q26 0 45.5 -8.5
t41.5 -23.5q17 -11 25.5 -15t18.5 -4q17 0 24 10t9 35h77z" />
    <glyph glyph-name="ohungarumlaut" unicode="&#x151;" horiz-adv-x="602" 
d="M110.5 52q-63.5 62 -63.5 213q0 150 64 212.5t190 62.5q127 0 190.5 -62.5t63.5 -212.5q0 -151 -63.5 -213t-190.5 -62t-190.5 62zM375 110.5q28 13.5 43 50t15 104.5t-15 104.5t-43.5 50t-73.5 13.5t-73.5 -13.5t-43.5 -50t-15 -104.5t15 -104.5t43.5 -50t73.5 -13.5
q46 0 74 13.5zM224 752h127l-109 -152h-102zM396 752h127l-109 -152h-102z" />
    <glyph glyph-name="omacron" unicode="&#x14d;" horiz-adv-x="602" 
d="M110.5 52q-63.5 62 -63.5 213q0 150 64 212.5t190 62.5q127 0 190.5 -62.5t63.5 -212.5q0 -151 -63.5 -213t-190.5 -62t-190.5 62zM375 110.5q28 13.5 43 50t15 104.5t-15 104.5t-43.5 50t-73.5 13.5t-73.5 -13.5t-43.5 -50t-15 -104.5t15 -104.5t43.5 -50t73.5 -13.5
q46 0 74 13.5zM151 712h300v-91h-300v91z" />
    <glyph glyph-name="uni01EB" unicode="&#x1eb;" horiz-adv-x="602" 
d="M327 -50.5q-29 -29.5 -29 -51.5q0 -13 8.5 -19t31.5 -6q24 0 52 6v-80q-34 -9 -74 -9q-66 0 -90.5 22.5t-24.5 59.5q0 32 18.5 59t61.5 60q-120 5 -177 67.5t-57 206.5q0 150 64 212.5t190 62.5q127 0 190.5 -62.5t63.5 -212.5q0 -84 -18.5 -136t-47.5 -78.5t-70 -43.5
q-63 -28 -92 -57.5zM184 160.5q15 -36.5 43.5 -50t73.5 -13.5q46 0 74 13.5t43 50t15 104.5t-15 104.5t-43.5 50t-73.5 13.5t-73.5 -13.5t-43.5 -50t-15 -104.5t15 -104.5z" />
    <glyph glyph-name="oslash" unicode="&#xf8;" horiz-adv-x="602" 
d="M491.5 477.5q63.5 -62.5 63.5 -212.5q0 -151 -63.5 -213t-190.5 -62t-190.5 62t-63.5 213q0 150 64 212.5t190 62.5q127 0 190.5 -62.5zM227.5 419.5q-28.5 -13.5 -43.5 -50t-15 -104.5q0 -73 19 -113l190 266q-29 15 -77 15q-45 0 -73.5 -13.5zM375 110.5q28 13.5 43 50
t15 104.5q0 67 -16 107l-188 -262q26 -13 72 -13t74 13.5z" />
    <glyph glyph-name="oslashacute" unicode="&#x1ff;" horiz-adv-x="602" 
d="M491.5 477.5q63.5 -62.5 63.5 -212.5q0 -151 -63.5 -213t-190.5 -62t-190.5 62t-63.5 213q0 150 64 212.5t190 62.5q127 0 190.5 -62.5zM227.5 419.5q-28.5 -13.5 -43.5 -50t-15 -104.5q0 -73 19 -113l190 266q-29 15 -77 15q-45 0 -73.5 -13.5zM375 110.5q28 13.5 43 50
t15 104.5q0 67 -16 107l-188 -262q26 -13 72 -13t74 13.5zM325 752h127l-109 -152h-102z" />
    <glyph glyph-name="otilde" unicode="&#xf5;" horiz-adv-x="602" 
d="M110.5 52q-63.5 62 -63.5 213q0 150 64 212.5t190 62.5q127 0 190.5 -62.5t63.5 -212.5q0 -151 -63.5 -213t-190.5 -62t-190.5 62zM375 110.5q28 13.5 43 50t15 104.5t-15 104.5t-43.5 50t-73.5 13.5t-73.5 -13.5t-43.5 -50t-15 -104.5t15 -104.5t43.5 -50t73.5 -13.5
q46 0 74 13.5zM470 726q0 -68 -25 -97t-78 -29q-26 0 -44.5 8t-42.5 23q-17 11 -25.5 15t-18.5 4q-17 0 -24 -10t-9 -35h-77q0 68 25 97.5t78 29.5q26 0 45.5 -8.5t41.5 -23.5q17 -11 25.5 -15t18.5 -4q17 0 24 10t9 35h77z" />
    <glyph glyph-name="oe" unicode="&#x153;" horiz-adv-x="951" 
d="M567.5 13q-47.5 23 -74.5 75q-55 -98 -192 -98q-127 0 -190.5 62t-63.5 213q0 150 64 212.5t190 62.5q67 0 113.5 -23t75.5 -75q52 98 187 98q81 0 130.5 -26t73 -82.5t23.5 -151.5q0 -37 -3 -54h-347q1 -52 16 -81t47 -41t88 -12q85 0 168 32v-104q-28 -13 -73.5 -21.5
t-105.5 -8.5q-79 0 -126.5 23zM789 310q-1 71 -25.5 101.5t-86.5 30.5q-65 0 -92.5 -31t-30.5 -101h235zM375.5 110.5q28.5 13.5 44 50.5t15.5 105q0 67 -15.5 103.5t-44 50t-74.5 13.5q-45 0 -74 -13.5t-44.5 -50t-15.5 -104.5t15.5 -104.5t44.5 -50t74 -13.5
q46 0 74.5 13.5z" />
    <glyph glyph-name="thorn" unicode="&#xfe;" horiz-adv-x="614" 
d="M509.5 478q57.5 -62 57.5 -213q0 -142 -54 -208.5t-173 -66.5q-85 0 -149 31v-221h-120v730h120v-36q62 46 148 46q113 0 170.5 -62zM390 113.5q30 16.5 42.5 52.5t12.5 99t-12.5 99.5t-42 53t-84.5 16.5q-68 0 -115 -22v-296q43 -19 115 -19q54 0 84 16.5zM71 720h120
v-720h-120v720z" />
    <glyph glyph-name="racute" unicode="&#x155;" horiz-adv-x="404" 
d="M71 530h115v-63q29 25 79 46t117 27v-113q-57 -4 -108.5 -16t-82.5 -27v-384h-120v530zM237 752h127l-109 -152h-102z" />
    <glyph glyph-name="rcaron" unicode="&#x159;" horiz-adv-x="404" 
d="M71 530h115v-63q29 25 79 46t117 27v-113q-57 -4 -108.5 -16t-82.5 -27v-384h-120v530zM171 752l68 -80l65 80h119l-133 -152h-102l-136 152h119z" />
    <glyph glyph-name="rcommaaccent" unicode="&#x157;" horiz-adv-x="404" 
d="M70 530h115v-63q29 25 79 46t117 27v-113q-57 -4 -108.5 -16t-82.5 -27v-384h-120v530zM71 -50h124l-54 -150h-109z" />
    <glyph glyph-name="sacute" unicode="&#x15b;" horiz-adv-x="505" 
d="M140.5 -2.5q-50.5 7.5 -85.5 19.5v112q100 -35 190 -35q61 0 82.5 11t21.5 43q0 28 -15.5 40t-57.5 23l-96 28q-47 14 -75.5 31t-43 46.5t-14.5 77.5q0 82 51.5 114t166.5 32q44 0 92 -6t78 -15v-109q-84 28 -170 28q-41 0 -62 -4.5t-29.5 -15t-8.5 -29.5q0 -24 13.5 -35
t52.5 -22l92 -26q51 -15 81 -32.5t45 -47.5t15 -78q0 -60 -22 -94.5t-70 -49t-130 -14.5q-51 0 -101.5 7.5zM262 752h127l-109 -152h-102z" />
    <glyph glyph-name="scaron" unicode="&#x161;" horiz-adv-x="505" 
d="M140.5 -2.5q-50.5 7.5 -85.5 19.5v112q100 -35 190 -35q61 0 82.5 11t21.5 43q0 28 -15.5 40t-57.5 23l-96 28q-47 14 -75.5 31t-43 46.5t-14.5 77.5q0 82 51.5 114t166.5 32q44 0 92 -6t78 -15v-109q-84 28 -170 28q-41 0 -62 -4.5t-29.5 -15t-8.5 -29.5q0 -24 13.5 -35
t52.5 -22l92 -26q51 -15 81 -32.5t45 -47.5t15 -78q0 -60 -22 -94.5t-70 -49t-130 -14.5q-51 0 -101.5 7.5zM182 752l68 -80l65 80h119l-133 -152h-102l-136 152h119z" />
    <glyph glyph-name="scedilla" unicode="&#x15f;" horiz-adv-x="505" 
d="M140.5 -2.5q-50.5 7.5 -85.5 19.5v112q100 -35 190 -35q61 0 82.5 11t21.5 43q0 28 -15.5 40t-57.5 23l-96 28q-47 14 -75.5 31t-43 46.5t-14.5 77.5q0 82 51.5 114t166.5 32q44 0 92 -6t78 -15v-109q-84 28 -170 28q-41 0 -62 -4.5t-29.5 -15t-8.5 -29.5q0 -24 13.5 -35
t52.5 -22l92 -26q51 -15 81 -32.5t45 -47.5t15 -78q0 -60 -22 -94.5t-70 -49t-130 -14.5q-51 0 -101.5 7.5zM173 -138q23 -5 62 -5q29 0 41.5 5.5t12.5 20.5q0 11 -8 17t-29 8t-62 2l25 90h72l-12 -45q57 -1 81 -20.5t24 -57.5q0 -87 -130 -87q-49 0 -77 5v67z" />
    <glyph glyph-name="scircumflex" unicode="&#x15d;" horiz-adv-x="505" 
d="M140.5 -2.5q-50.5 7.5 -85.5 19.5v112q100 -35 190 -35q61 0 82.5 11t21.5 43q0 28 -15.5 40t-57.5 23l-96 28q-47 14 -75.5 31t-43 46.5t-14.5 77.5q0 82 51.5 114t166.5 32q44 0 92 -6t78 -15v-109q-84 28 -170 28q-41 0 -62 -4.5t-29.5 -15t-8.5 -29.5q0 -24 13.5 -35
t52.5 -22l92 -26q51 -15 81 -32.5t45 -47.5t15 -78q0 -60 -22 -94.5t-70 -49t-130 -14.5q-51 0 -101.5 7.5zM190 752h102l133 -152h-119l-65 80l-68 -80h-119z" />
    <glyph glyph-name="scommaaccent" unicode="&#x219;" horiz-adv-x="505" 
d="M140.5 -2.5q-50.5 7.5 -85.5 19.5v112q100 -35 190 -35q61 0 82.5 11t21.5 43q0 28 -15.5 40t-57.5 23l-96 28q-47 14 -75.5 31t-43 46.5t-14.5 77.5q0 82 51.5 114t166.5 32q44 0 92 -6t78 -15v-109q-84 28 -170 28q-41 0 -62 -4.5t-29.5 -15t-8.5 -29.5q0 -24 13.5 -35
t52.5 -22l92 -26q51 -15 81 -32.5t45 -47.5t15 -78q0 -60 -22 -94.5t-70 -49t-130 -14.5q-51 0 -101.5 7.5zM196 -50h124l-54 -150h-109z" />
    <glyph glyph-name="germandbls" unicode="&#xdf;" horiz-adv-x="600" 
d="M71 509q0 112 54.5 166.5t178.5 54.5q227 0 227 -192q0 -73 -25 -111t-73 -58q41 -11 67.5 -28t43 -52t16.5 -94q0 -107 -57 -151t-181 -44h-69v105h52q71 0 101 22.5t30 82.5t-32 84t-99 24h-35v105h31q57 0 85 25t28 80q0 48 -25.5 71.5t-86.5 23.5q-60 0 -85.5 -29.5
t-25.5 -92.5v-501h-120v509z" />
    <glyph glyph-name="tbar" unicode="&#x167;" horiz-adv-x="434" 
d="M229 252v-95q0 -33 17.5 -46t55.5 -13q43 0 95 16v-106q-46 -18 -124 -18q-79 0 -121 35t-42 112v115h-98v71h98v104h-98v103h98v119l119 35v-154h166v-103h-166v-104h168v-71h-168z" />
    <glyph glyph-name="tcaron" unicode="&#x165;" horiz-adv-x="434" 
d="M297 764h104l-33 -180h-89zM152 25q-42 35 -42 112v290h-98v103h98v119l119 35v-154h166v-103h-166v-270q0 -33 17.5 -46t55.5 -13q43 0 95 16v-106q-46 -18 -124 -18q-79 0 -121 35z" />
    <glyph glyph-name="uni0163" unicode="&#x163;" horiz-adv-x="434" 
d="M152 25q-42 35 -42 112v290h-98v103h98v119l119 35v-154h166v-103h-166v-270q0 -33 17.5 -46t55.5 -13q43 0 95 16v-106q-46 -18 -124 -18q-79 0 -121 35zM185 -138q23 -5 62 -5q29 0 41.5 5.5t12.5 20.5q0 11 -8 17t-29 8t-62 2l25 90h72l-12 -45q57 -1 81 -20.5
t24 -57.5q0 -87 -130 -87q-49 0 -77 5v67z" />
    <glyph glyph-name="uni021B" unicode="&#x21b;" horiz-adv-x="434" 
d="M152 25q-42 35 -42 112v290h-98v103h98v119l119 35v-154h166v-103h-166v-270q0 -33 17.5 -46t55.5 -13q43 0 95 16v-106q-46 -18 -124 -18q-79 0 -121 35zM206 -50h124l-54 -150h-109z" />
    <glyph glyph-name="uacute" unicode="&#xfa;" horiz-adv-x="603" 
d="M108.5 29q-41.5 39 -41.5 116v385h120v-350q0 -44 21.5 -63.5t77.5 -19.5q41 0 70 7.5t56 20.5v405h120v-530h-101l-11 41q-73 -51 -174 -51q-96 0 -137.5 39zM321 752h127l-109 -152h-102z" />
    <glyph glyph-name="ubreve" unicode="&#x16d;" horiz-adv-x="603" 
d="M108.5 29q-41.5 39 -41.5 116v385h120v-350q0 -44 21.5 -63.5t77.5 -19.5q41 0 70 7.5t56 20.5v405h120v-530h-101l-11 41q-73 -51 -174 -51q-96 0 -137.5 39zM172.5 628.5q-40.5 30.5 -41.5 106.5h93q1 -35 19.5 -49.5t55.5 -14.5t55.5 14.5t19.5 49.5h93
q-1 -76 -41.5 -106.5t-126.5 -30.5t-126.5 30.5z" />
    <glyph glyph-name="ucircumflex" unicode="&#xfb;" horiz-adv-x="603" 
d="M108.5 29q-41.5 39 -41.5 116v385h120v-350q0 -44 21.5 -63.5t77.5 -19.5q41 0 70 7.5t56 20.5v405h120v-530h-101l-11 41q-73 -51 -174 -51q-96 0 -137.5 39zM249 752h102l133 -152h-119l-65 80l-68 -80h-119z" />
    <glyph glyph-name="udieresis" unicode="&#xfc;" horiz-adv-x="603" 
d="M108.5 29q-41.5 39 -41.5 116v385h120v-350q0 -44 21.5 -63.5t77.5 -19.5q41 0 70 7.5t56 20.5v405h120v-530h-101l-11 41q-73 -51 -174 -51q-96 0 -137.5 39zM144 716h113v-111h-113v111zM341 716h113v-111h-113v111z" />
    <glyph glyph-name="uni1EE5" unicode="&#x1ee5;" horiz-adv-x="603" 
d="M108.5 29q-41.5 39 -41.5 116v385h120v-350q0 -44 21.5 -63.5t77.5 -19.5q41 0 70 7.5t56 20.5v405h120v-530h-101l-11 41q-73 -51 -174 -51q-96 0 -137.5 39zM234 -73h131v-113h-131v113z" />
    <glyph glyph-name="ugrave" unicode="&#xf9;" horiz-adv-x="603" 
d="M108.5 29q-41.5 39 -41.5 116v385h120v-350q0 -44 21.5 -63.5t77.5 -19.5q41 0 70 7.5t56 20.5v405h120v-530h-101l-11 41q-73 -51 -174 -51q-96 0 -137.5 39zM265 600l-109 152h127l84 -152h-102z" />
    <glyph glyph-name="uni1EE7" unicode="&#x1ee7;" horiz-adv-x="603" 
d="M108.5 29q-41.5 39 -41.5 116v385h120v-350q0 -44 21.5 -63.5t77.5 -19.5q41 0 70 7.5t56 20.5v405h120v-530h-101l-11 41q-73 -51 -174 -51q-96 0 -137.5 39zM252 644q33 8 53 22t20 30q0 31 -49 31q-30 0 -50.5 -4.5t-23.5 -5.5v72q45 9 87 9q52 0 85.5 -22t33.5 -67
t-31.5 -76t-91.5 -45z" />
    <glyph glyph-name="uhorn" unicode="&#x1b0;" horiz-adv-x="639" 
d="M108.5 29q-41.5 39 -41.5 116v385h120v-350q0 -44 21.5 -63.5t77.5 -19.5q41 0 70 7.5t56 20.5v405h120v-530h-101l-11 41q-73 -51 -174 -51q-96 0 -137.5 39zM467 530q39 0 55 15.5t16 56.5q0 28 -3 58h104q4 -30 4 -72q0 -70 -42.5 -102.5t-133.5 -34.5v79z" />
    <glyph glyph-name="uni1EE9" unicode="&#x1ee9;" horiz-adv-x="639" 
d="M108.5 29q-41.5 39 -41.5 116v385h120v-350q0 -44 21.5 -63.5t77.5 -19.5q41 0 70 7.5t56 20.5v405h120v-530h-101l-11 41q-73 -51 -174 -51q-96 0 -137.5 39zM467 530q39 0 55 15.5t16 56.5q0 28 -3 58h104q4 -30 4 -72q0 -70 -42.5 -102.5t-133.5 -34.5v79zM317 752
h127l-109 -152h-102z" />
    <glyph glyph-name="uni1EF1" unicode="&#x1ef1;" horiz-adv-x="639" 
d="M108.5 29q-41.5 39 -41.5 116v385h120v-350q0 -44 21.5 -63.5t77.5 -19.5q41 0 70 7.5t56 20.5v405h120v-530h-101l-11 41q-73 -51 -174 -51q-96 0 -137.5 39zM467 530q39 0 55 15.5t16 56.5q0 28 -3 58h104q4 -30 4 -72q0 -70 -42.5 -102.5t-133.5 -34.5v79zM223 -73
h131v-113h-131v113z" />
    <glyph glyph-name="uni1EEB" unicode="&#x1eeb;" horiz-adv-x="639" 
d="M108.5 29q-41.5 39 -41.5 116v385h120v-350q0 -44 21.5 -63.5t77.5 -19.5q41 0 70 7.5t56 20.5v405h120v-530h-101l-11 41q-73 -51 -174 -51q-96 0 -137.5 39zM467 530q39 0 55 15.5t16 56.5q0 28 -3 58h104q4 -30 4 -72q0 -70 -42.5 -102.5t-133.5 -34.5v79zM262 600
l-109 152h127l84 -152h-102z" />
    <glyph glyph-name="uni1EED" unicode="&#x1eed;" horiz-adv-x="639" 
d="M108.5 29q-41.5 39 -41.5 116v385h120v-350q0 -44 21.5 -63.5t77.5 -19.5q41 0 70 7.5t56 20.5v405h120v-530h-101l-11 41q-73 -51 -174 -51q-96 0 -137.5 39zM467 530q39 0 55 15.5t16 56.5q0 28 -3 58h104q4 -30 4 -72q0 -70 -42.5 -102.5t-133.5 -34.5v79zM253 644
q33 8 53 22t20 30q0 31 -49 31q-30 0 -50.5 -4.5t-23.5 -5.5v72q45 9 87 9q52 0 85.5 -22t33.5 -67t-31.5 -76t-91.5 -45z" />
    <glyph glyph-name="uni1EEF" unicode="&#x1eef;" horiz-adv-x="639" 
d="M108.5 29q-41.5 39 -41.5 116v385h120v-350q0 -44 21.5 -63.5t77.5 -19.5q41 0 70 7.5t56 20.5v405h120v-530h-101l-11 41q-73 -51 -174 -51q-96 0 -137.5 39zM467 530q39 0 55 15.5t16 56.5q0 28 -3 58h104q4 -30 4 -72q0 -70 -42.5 -102.5t-133.5 -34.5v79zM466 726
q0 -68 -25 -97t-78 -29q-26 0 -44.5 8t-42.5 23q-17 11 -25.5 15t-18.5 4q-17 0 -24 -10t-9 -35h-77q0 68 25 97.5t78 29.5q26 0 45.5 -8.5t41.5 -23.5q17 -11 25.5 -15t18.5 -4q17 0 24 10t9 35h77z" />
    <glyph glyph-name="uhungarumlaut" unicode="&#x171;" horiz-adv-x="603" 
d="M108.5 29q-41.5 39 -41.5 116v385h120v-350q0 -44 21.5 -63.5t77.5 -19.5q41 0 70 7.5t56 20.5v405h120v-530h-101l-11 41q-73 -51 -174 -51q-96 0 -137.5 39zM227 752h127l-109 -152h-102zM399 752h127l-109 -152h-102z" />
    <glyph glyph-name="umacron" unicode="&#x16b;" horiz-adv-x="603" 
d="M108.5 29q-41.5 39 -41.5 116v385h120v-350q0 -44 21.5 -63.5t77.5 -19.5q41 0 70 7.5t56 20.5v405h120v-530h-101l-11 41q-73 -51 -174 -51q-96 0 -137.5 39zM149 712h300v-91h-300v91z" />
    <glyph glyph-name="uogonek" unicode="&#x173;" horiz-adv-x="603" 
d="M459 -61.5q-19 -21.5 -19 -40.5q0 -13 8.5 -19t30.5 -6q25 0 53 6v-80q-34 -9 -74 -9q-66 0 -90.5 22.5t-24.5 59.5q0 33 20 62.5t67 69.5l-10 37q-73 -51 -174 -51q-96 0 -137.5 39t-41.5 116v385h120v-350q0 -44 21.5 -63.5t77.5 -19.5q41 0 70 7.5t56 20.5v405h120
v-530q-54 -40 -73 -61.5z" />
    <glyph glyph-name="uring" unicode="&#x16f;" horiz-adv-x="603" 
d="M108.5 29q-41.5 39 -41.5 116v385h120v-350q0 -44 21.5 -63.5t77.5 -19.5q41 0 70 7.5t56 20.5v405h120v-530h-101l-11 41q-73 -51 -174 -51q-96 0 -137.5 39zM397.5 786q29.5 -26 29.5 -80t-29.5 -80t-98.5 -26t-98.5 26t-29.5 80t29.5 80t98.5 26t98.5 -26zM346.5 670
q13.5 12 13.5 37t-13.5 36.5t-47.5 11.5q-35 0 -48 -11.5t-13 -36.5t13 -37t48 -12q34 0 47.5 12z" />
    <glyph glyph-name="utilde" unicode="&#x169;" horiz-adv-x="603" 
d="M108.5 29q-41.5 39 -41.5 116v385h120v-350q0 -44 21.5 -63.5t77.5 -19.5q41 0 70 7.5t56 20.5v405h120v-530h-101l-11 41q-73 -51 -174 -51q-96 0 -137.5 39zM471 726q0 -68 -25 -97t-78 -29q-26 0 -44.5 8t-42.5 23q-17 11 -25.5 15t-18.5 4q-17 0 -24 -10t-9 -35h-77
q0 68 25 97.5t78 29.5q26 0 45.5 -8.5t41.5 -23.5q17 -11 25.5 -15t18.5 -4q17 0 24 10t9 35h77z" />
    <glyph glyph-name="wacute" unicode="&#x1e83;" horiz-adv-x="823" 
d="M13 530h118l105 -407l113 407h126l112 -407l105 407h118l-148 -530h-140l-110 380l-111 -380h-140zM436 752h127l-109 -152h-102z" />
    <glyph glyph-name="wcircumflex" unicode="&#x175;" horiz-adv-x="823" 
d="M13 530h118l105 -407l113 407h126l112 -407l105 407h118l-148 -530h-140l-110 380l-111 -380h-140zM362 752h102l133 -152h-119l-65 80l-68 -80h-119z" />
    <glyph glyph-name="wdieresis" unicode="&#x1e85;" horiz-adv-x="823" 
d="M13 530h118l105 -407l113 407h126l112 -407l105 407h118l-148 -530h-140l-110 380l-111 -380h-140zM257 716h113v-111h-113v111zM454 716h113v-111h-113v111z" />
    <glyph glyph-name="wgrave" unicode="&#x1e81;" horiz-adv-x="823" 
d="M810 530h-118l-105 -407l-113 407h-126l-112 -407l-105 407h-118l148 -530h140l110 380l111 -380h140zM387 752h-127l109 -152h102z" />
    <glyph glyph-name="yacute" unicode="&#xfd;" horiz-adv-x="541" 
d="M528 530l-161 -436q-40 -107 -99.5 -181t-170.5 -123l-48 94q120 70 160 137l-196 509h125l135 -394l126 394h129zM288 752h127l-109 -152h-102z" />
    <glyph glyph-name="ycircumflex" unicode="&#x177;" horiz-adv-x="541" 
d="M528 530l-161 -436q-40 -107 -99.5 -181t-170.5 -123l-48 94q120 70 160 137l-196 509h125l135 -394l126 394h129zM221 752h102l133 -152h-119l-65 80l-68 -80h-119z" />
    <glyph glyph-name="ydieresis" unicode="&#xff;" horiz-adv-x="541" 
d="M528 530l-161 -436q-40 -107 -99.5 -181t-170.5 -123l-48 94q120 70 160 137l-196 509h125l135 -394l126 394h129zM116 716h113v-111h-113v111zM313 716h113v-111h-113v111z" />
    <glyph glyph-name="uni1EF5" unicode="&#x1ef5;" horiz-adv-x="541" 
d="M528 530l-161 -436q-40 -107 -99.5 -181t-170.5 -123l-48 94q120 70 160 137l-196 509h125l135 -394l126 394h129zM330 -73h131v-113h-131v113z" />
    <glyph glyph-name="ygrave" unicode="&#x1ef3;" horiz-adv-x="541" 
d="M528 530l-161 -436q-40 -107 -99.5 -181t-170.5 -123l-48 94q120 70 160 137l-196 509h125l135 -394l126 394h129zM240 600l-109 152h127l84 -152h-102z" />
    <glyph glyph-name="uni1EF7" unicode="&#x1ef7;" horiz-adv-x="541" 
d="M528 530l-161 -436q-40 -107 -99.5 -181t-170.5 -123l-48 94q120 70 160 137l-196 509h125l135 -394l126 394h129zM223 644q33 8 53 22t20 30q0 31 -49 31q-30 0 -50.5 -4.5t-23.5 -5.5v72q45 9 87 9q52 0 85.5 -22t33.5 -67t-31.5 -76t-91.5 -45z" />
    <glyph glyph-name="uni0233" unicode="&#x233;" horiz-adv-x="541" 
d="M528 530l-161 -436q-40 -107 -99.5 -181t-170.5 -123l-48 94q120 70 160 137l-196 509h125l135 -394l126 394h129zM120 712h300v-91h-300v91z" />
    <glyph glyph-name="uni1EF9" unicode="&#x1ef9;" horiz-adv-x="541" 
d="M528 530l-161 -436q-40 -107 -99.5 -181t-170.5 -123l-48 94q120 70 160 137l-196 509h125l135 -394l126 394h129zM442 726q0 -68 -25 -97t-78 -29q-26 0 -44.5 8t-42.5 23q-17 11 -25.5 15t-18.5 4q-17 0 -24 -10t-9 -35h-77q0 68 25 97.5t78 29.5q26 0 45.5 -8.5
t41.5 -23.5q17 -11 25.5 -15t18.5 -4q17 0 24 10t9 35h77z" />
    <glyph glyph-name="zacute" unicode="&#x17a;" horiz-adv-x="503" 
d="M36 76l277 349h-265v105h413v-86l-271 -339h266v-105h-420v76zM257 752h127l-109 -152h-102z" />
    <glyph glyph-name="zcaron" unicode="&#x17e;" horiz-adv-x="503" 
d="M36 76l277 349h-265v105h413v-86l-271 -339h266v-105h-420v76zM189 752l68 -80l65 80h119l-133 -152h-102l-136 152h119z" />
    <glyph glyph-name="zdotaccent" unicode="&#x17c;" horiz-adv-x="503" 
d="M36 76l277 349h-265v105h413v-86l-271 -339h266v-105h-420v76zM187 716h130v-112h-130v112z" />
    <glyph glyph-name="i.TRK" horiz-adv-x="257" 
d="M63 716h131v-112h-131v112zM69 530h120v-530h-120v530z" />
    <glyph glyph-name="germandbls.calt" horiz-adv-x="678" 
d="M255 3v112q75 -14 137 -14q63 0 92 22.5t29 75.5q0 52 -28 76t-105 24q-45 0 -88 -5v88l147 169q-34 32 -108 32q-73 0 -107 -27.5t-34 -92.5v-463h-122v459q0 121 65.5 176t198.5 55q105 0 169 -35.5t97 -84.5l-166 -186q12 2 24 2q181 0 181 -189q0 -80 -27 -125
t-79.5 -63.5t-137.5 -18.5q-66 0 -138 13z" />
    <glyph glyph-name="ordfeminine" unicode="&#xaa;" horiz-adv-x="359" 
d="M72 402q-25 23 -25 72t26 69t81 20q51 0 84 -10v24q0 28 -15 38.5t-56 10.5q-48 0 -90 -12v65q48 11 99 11q75 0 105.5 -25.5t30.5 -83.5v-196h-56l-11 25q-17 -15 -39 -23t-55 -8q-54 0 -79 23zM238 447v57q-33 7 -67 7q-26 0 -37.5 -7.5t-11.5 -27.5q0 -22 11.5 -29.5
t38.5 -7.5q44 0 66 8z" />
    <glyph glyph-name="ordmasculine" unicode="&#xba;" horiz-adv-x="381" 
d="M81.5 415q-34.5 36 -34.5 120q0 83 35 119t109 36t108.5 -36t34.5 -119q0 -84 -34.5 -120t-108.5 -36q-75 0 -109.5 36zM244.5 463.5q15.5 19.5 15.5 71.5q0 51 -15.5 70.5t-52.5 19.5q-38 0 -53.5 -19.5t-15.5 -70.5q0 -53 15.5 -72t53.5 -19q37 0 52.5 19.5z" />
    <glyph glyph-name="uni0410" unicode="&#x410;" horiz-adv-x="666" 
d="M474 157h-284l-55 -157h-126l250 680h148l250 -680h-128zM437 262l-105 296l-105 -296h210z" />
    <glyph glyph-name="uni0411" unicode="&#x411;" horiz-adv-x="627" 
d="M484 403q52 -18 79.5 -63.5t27.5 -125.5q0 -118 -60 -166t-179 -48h-272v680h487l-23 -112h-342v-147h150q80 0 132 -18zM437 134q30 22 30 80t-30 80t-105 22h-130v-204h130q75 0 105 22z" />
    <glyph glyph-name="uni0412" unicode="&#x412;" horiz-adv-x="646" 
d="M571 303.5q29 -38.5 29 -116.5q0 -73 -26 -113.5t-77 -57t-135 -16.5h-282v680h271q81 0 131 -15.5t75 -53t25 -103.5q0 -67 -23.5 -102t-73.5 -50q57 -14 86 -52.5zM202 575v-176h149q60 0 84 20t24 73q0 33 -11.5 50.5t-39 25t-78.5 7.5h-128zM423.5 112.5
q27.5 7.5 40 28t12.5 59.5q0 57 -25.5 78t-92.5 21h-156v-194h144q50 0 77.5 7.5z" />
    <glyph glyph-name="uni0413" unicode="&#x413;" horiz-adv-x="526" 
d="M519 680l-23 -112h-294v-568h-122v680h439z" />
    <glyph glyph-name="uni0403" unicode="&#x403;" horiz-adv-x="526" 
d="M519 680l-23 -112h-294v-568h-122v680h439zM328 902h127l-109 -152h-102z" />
    <glyph glyph-name="uni0490" unicode="&#x490;" horiz-adv-x="537" 
d="M530 847v-279h-328v-568h-122v680h330v167h120z" />
    <glyph glyph-name="uni0414" unicode="&#x414;" horiz-adv-x="766" 
d="M15 109h84q42 54 57 109.5t15 142.5v319h476v-570h108v-277h-122v167h-496v-167h-122v276zM525 110v458h-235v-227q0 -79 -12 -130.5t-42 -100.5h289z" />
    <glyph glyph-name="uni0415" unicode="&#x415;" horiz-adv-x="594" 
d="M544 112l-25 -112h-439v680h449v-112h-327v-169h311v-108h-311v-179h342z" />
    <glyph glyph-name="uni0400" unicode="&#x400;" horiz-adv-x="594" 
d="M544 112l-25 -112h-439v680h449v-112h-327v-169h311v-108h-311v-179h342zM279 750l-109 152h127l84 -152h-102z" />
    <glyph glyph-name="uni0401" unicode="&#x401;" horiz-adv-x="594" 
d="M544 112l-25 -112h-439v680h449v-112h-327v-169h311v-108h-311v-179h342zM158 866h113v-111h-113v111zM355 866h113v-111h-113v111z" />
    <glyph glyph-name="uni0416" unicode="&#x416;" horiz-adv-x="890" 
d="M743 0l-235 319v-319h-122v319l-235 -319h-148l265 343l-247 337h146l219 -317v317h122v-317l219 317h146l-247 -337l265 -343h-148z" />
    <glyph glyph-name="uni0417" unicode="&#x417;" horiz-adv-x="566" 
d="M36 14v114q116 -27 205 -27q80 0 113.5 20.5t33.5 76.5q0 50 -28.5 71.5t-95.5 21.5h-121v103h121q67 0 95.5 22t28.5 71q0 53 -33.5 72.5t-113.5 19.5q-75 0 -195 -28v114q95 25 193 25q142 0 206.5 -43.5t64.5 -147.5q0 -69 -31.5 -106t-73.5 -50q42 -14 73.5 -50.5
t31.5 -106.5q0 -107 -64.5 -151.5t-206.5 -44.5q-105 0 -203 24z" />
    <glyph glyph-name="uni0418" unicode="&#x418;" horiz-adv-x="703" 
d="M501 0v478l-318 -478h-103v680h122v-476l317 476h104v-680h-122z" />
    <glyph glyph-name="uni0419" unicode="&#x419;" horiz-adv-x="703" 
d="M501 0v478l-318 -478h-103v680h122v-476l317 476h104v-680h-122zM211 786q-47 33 -48 111h102q1 -40 21.5 -55t69.5 -15q48 0 68.5 15t21.5 55h102q-1 -78 -48 -111t-144 -33q-98 0 -145 33z" />
    <glyph glyph-name="uni040D" unicode="&#x40d;" horiz-adv-x="703" 
d="M501 0v478l-318 -478h-103v680h122v-476l317 476h104v-680h-122zM319 750l-109 152h127l84 -152h-102z" />
    <glyph glyph-name="uni041A" unicode="&#x41a;" horiz-adv-x="632" 
d="M478 0l-276 325v-325h-122v680h122v-323l261 323h152l-283 -337l301 -343h-155z" />
    <glyph glyph-name="uni040C" unicode="&#x40c;" horiz-adv-x="632" 
d="M332 902h127l-109 -152h-102zM478 0l-276 325v-325h-122v680h122v-323l261 323h152l-283 -337l301 -343h-155z" />
    <glyph glyph-name="uni041B" unicode="&#x41b;" horiz-adv-x="721" 
d="M640 0h-122v568h-247v-373q0 -108 -49 -156t-129 -49q-42 0 -78 9v107q28 -6 59 -6q41 0 61 24t20 93v463h485v-680z" />
    <glyph glyph-name="uni041C" unicode="&#x41c;" horiz-adv-x="874" 
d="M80 680h152l205 -303l202 303h154v-680h-122v526l-234 -340l-235 340v-526h-122v680z" />
    <glyph glyph-name="uni041D" unicode="&#x41d;" horiz-adv-x="699" 
d="M618 680v-680h-122v288h-294v-288h-122v680h122v-280h294v280h122z" />
    <glyph glyph-name="uni041E" unicode="&#x41e;" horiz-adv-x="674" 
d="M168 23.5q-62 33.5 -90.5 109t-28.5 207.5t28.5 207.5t90.5 109t169 33.5t169.5 -33.5t90.5 -109t28 -207.5t-28.5 -207.5t-90.5 -109t-169 -33.5t-169 33.5zM437 127.5q35 22.5 49.5 72.5t14.5 140q0 91 -14 141t-49 72t-101 22q-65 0 -100.5 -22t-49.5 -72t-14 -141
q0 -90 14.5 -140t50 -72.5t99.5 -22.5q65 0 100 22.5z" />
    <glyph glyph-name="uni041F" unicode="&#x41f;" horiz-adv-x="707" 
d="M627 0h-122v568h-303v-568h-122v680h547v-680z" />
    <glyph glyph-name="uni0420" unicode="&#x420;" horiz-adv-x="622" 
d="M483 659.5q52 -20.5 80 -71.5t28 -140t-28 -140t-80 -72t-131 -21h-150v-215h-122v680h272q79 0 131 -20.5zM412 337.5q29 10.5 42 36.5t13 74t-13 73.5t-42 36t-80 10.5h-130v-241h130q51 0 80 10.5z" />
    <glyph glyph-name="uni0421" unicode="&#x421;" horiz-adv-x="585" 
d="M179.5 22q-65.5 32 -98 108t-32.5 210q0 131 32 207.5t97.5 109.5t172.5 33q47 0 98.5 -6.5t86.5 -16.5v-117q-80 25 -171 25q-74 0 -115 -20.5t-59 -71t-18 -143.5q0 -94 18 -144t59 -70.5t115 -20.5q91 0 171 25v-117q-35 -10 -86.5 -16.5t-98.5 -6.5q-106 0 -171.5 32
z" />
    <glyph glyph-name="uni0422" unicode="&#x422;" horiz-adv-x="575" 
d="M225 567h-208v113h548l-24 -113h-194v-567h-122v567z" />
    <glyph glyph-name="uni0423" unicode="&#x423;" horiz-adv-x="632" 
d="M344 100q-23 -48 -59 -79t-85 -31q-44 0 -83 11v115q30 -9 63 -9q22 0 37 12t27 37l22 42l-240 482h135l168 -352l154 352h135z" />
    <glyph glyph-name="uni040E" unicode="&#x40e;" horiz-adv-x="632" 
d="M344 100q-23 -48 -59 -79t-85 -31q-44 0 -83 11v115q30 -9 63 -9q22 0 37 12t27 37l22 42l-240 482h135l168 -352l154 352h135zM178 786q-47 33 -48 111h102q1 -40 21.5 -55t69.5 -15q48 0 68.5 15t21.5 55h102q-1 -78 -48 -111t-144 -33q-98 0 -145 33z" />
    <glyph glyph-name="uni0424" unicode="&#x424;" horiz-adv-x="801" 
d="M341 75q-116 0 -182 25t-95.5 85.5t-29.5 171.5q0 114 29.5 176.5t95.5 87.5t182 25v74h119v-74q116 0 182 -25t95.5 -87.5t29.5 -176.5q0 -111 -29.5 -171.5t-95.5 -85.5t-182 -25v-85h-119v85zM345 179v362h-4q-77 1 -115 -14t-53 -54t-15 -116q0 -74 15.5 -111.5
t53.5 -52t114 -14.5h4zM460 179q76 0 114 14.5t53.5 52t15.5 111.5q0 78 -14.5 116.5t-53 53.5t-115.5 14h-4v-362h4z" />
    <glyph glyph-name="uni0425" unicode="&#x425;" horiz-adv-x="614" 
d="M231 336l-215 344h138l153 -251l152 251h139l-216 -344l210 -336h-139l-146 241l-147 -241h-139z" />
    <glyph glyph-name="uni0427" unicode="&#x427;" horiz-adv-x="644" 
d="M563 0h-122v261q-78 -41 -178 -41q-107 0 -159.5 45.5t-52.5 126.5v288h121v-259q0 -45 29 -69t98 -24q40 0 78 8t64 19v325h122v-680z" />
    <glyph glyph-name="uni0426" unicode="&#x426;" horiz-adv-x="754" 
d="M743 112v-279h-119v167h-544v680h122v-568h303v568h122v-568h116z" />
    <glyph glyph-name="uni0428" unicode="&#x428;" horiz-adv-x="1017" 
d="M937 680v-680h-857v680h122v-568h240v568h122v-568h251v568h122z" />
    <glyph glyph-name="uni0429" unicode="&#x429;" horiz-adv-x="1077" 
d="M1065 112v-279h-119v167h-866v680h122v-568h240v568h122v-568h251v568h122v-568h128z" />
    <glyph glyph-name="uni040F" unicode="&#x40f;" horiz-adv-x="707" 
d="M627 680v-680h-212v-167h-122v167h-213v680h122v-568h303v568h122z" />
    <glyph glyph-name="uni042C" unicode="&#x42c;" horiz-adv-x="624" 
d="M531.5 395.5q59.5 -49.5 59.5 -173.5t-59.5 -173t-179.5 -49h-272v680h122v-235h150q120 0 179.5 -49.5zM412 121.5q29 9.5 42 33.5t13 67q0 44 -13 67.5t-42 33.5t-80 10h-130v-221h130q51 0 80 9.5z" />
    <glyph glyph-name="uni042A" unicode="&#x42a;" horiz-adv-x="699" 
d="M606.5 395.5q59.5 -49.5 59.5 -173.5t-59.5 -173t-179.5 -49h-272v569h-150v111h272v-235h150q120 0 179.5 -49.5zM487 121.5q29 9.5 42 33.5t13 67q0 44 -13 67.5t-42 33.5t-80 10h-130v-221h130q51 0 80 9.5z" />
    <glyph glyph-name="uni042B" unicode="&#x42b;" horiz-adv-x="853" 
d="M497.5 395.5q59.5 -49.5 59.5 -173.5t-59.5 -173t-179.5 -49h-238v680h122v-235h116q120 0 179.5 -49.5zM772 680v-680h-122v680h122zM378 121.5q29 9.5 42 33.5t13 67q0 44 -13 67.5t-42 33.5t-80 10h-96v-221h96q51 0 80 9.5z" />
    <glyph glyph-name="uni0409" unicode="&#x409;" horiz-adv-x="1055" 
d="M962 395.5q60 -49.5 60 -173.5t-59.5 -173t-180.5 -49h-264v568h-247v-373q0 -108 -49 -156t-129 -49q-42 0 -78 9v107q28 -6 59 -6q41 0 61 24t20 93v463h485v-235h142q120 0 180 -49.5zM868 135.5q30 23.5 30 86.5q0 44 -13.5 67.5t-42.5 33.5t-80 10h-122v-221h122
q76 0 106 23.5z" />
    <glyph glyph-name="uni040A" unicode="&#x40a;" horiz-adv-x="1011" 
d="M918.5 395.5q59.5 -49.5 59.5 -173.5t-59.5 -173t-179.5 -49h-257v288h-280v-288h-122v680h122v-280h280v280h122v-235h135q120 0 179.5 -49.5zM824 135.5q30 23.5 30 86.5q0 64 -30 87.5t-105 23.5h-115v-221h115q75 0 105 23.5z" />
    <glyph glyph-name="uni0405" unicode="&#x405;" horiz-adv-x="566" 
d="M51 21v116q100 -36 211 -36q76 0 107 19.5t31 62.5q0 37 -17 56t-65 39l-137 55q-72 29 -105 67t-33 109q0 66 24 105t79.5 57.5t151.5 18.5q60 0 110.5 -7.5t84.5 -18.5v-114q-32 12 -84.5 21t-109.5 9q-54 0 -82.5 -6.5t-39.5 -21.5t-11 -43q0 -32 20 -49t77 -40
l112 -44q57 -22 88.5 -46.5t45 -58t13.5 -84.5q0 -101 -59.5 -149t-199.5 -48q-123 0 -212 31z" />
    <glyph glyph-name="uni0404" unicode="&#x404;" horiz-adv-x="586" 
d="M258 559q-40 -16 -60.5 -55t-21.5 -109h331v-109h-331q1 -70 21.5 -109t60.5 -55.5t107 -16.5q82 0 171 25v-117q-35 -10 -86.5 -16.5t-98.5 -6.5q-106 0 -171.5 32t-98 108.5t-32.5 209.5q0 131 32 207.5t97.5 109.5t172.5 33q47 0 98.5 -6.5t86.5 -16.5v-117
q-89 25 -171 25q-67 0 -107 -16z" />
    <glyph glyph-name="uni042D" unicode="&#x42d;" horiz-adv-x="589" 
d="M331 559q40 -16 60.5 -55t21.5 -109h-331v-109h331q-1 -70 -21.5 -109t-60.5 -55.5t-107 -16.5q-82 0 -171 25v-117q35 -10 86.5 -16.5t98.5 -6.5q106 0 171.5 32t98 108.5t32.5 209.5q0 131 -32 207.5t-97.5 109.5t-172.5 33q-47 0 -98.5 -6.5t-86.5 -16.5v-117
q89 25 171 25q67 0 107 -16z" />
    <glyph glyph-name="uni0406" unicode="&#x406;" horiz-adv-x="283" 
d="M80 680h122v-680h-122v680z" />
    <glyph glyph-name="uni0407" unicode="&#x407;" horiz-adv-x="283" 
d="M80 680h122v-680h-122v680zM-13 866h113v-111h-113v111zM184 866h113v-111h-113v111z" />
    <glyph glyph-name="uni0408" unicode="&#x408;" horiz-adv-x="525" 
d="M455 198q0 -79 -27 -124.5t-80.5 -64.5t-139.5 -19q-55 0 -97.5 6.5t-67.5 15.5v117q77 -24 152 -24q47 0 76 7.5t45.5 30t16.5 66.5v359h-277l26 112h373v-482z" />
    <glyph glyph-name="uni040B" unicode="&#x40b;" horiz-adv-x="742" 
d="M614.5 414.5q52.5 -45.5 52.5 -126.5v-288h-121v259q0 45 -29 69t-98 24q-40 0 -78 -8t-64 -19v-325h-122v573h-150v107h511l-24 -107h-215v-154q78 41 178 41q107 0 159.5 -45.5z" />
    <glyph glyph-name="uni042E" unicode="&#x42e;" horiz-adv-x="935" 
d="M770.5 656.5q60.5 -33.5 88 -109.5t27.5 -207t-28 -207t-88.5 -109.5t-162.5 -33.5q-97 0 -155 28.5t-86.5 93t-33.5 175.5h-130v-287h-122v680h122v-281h130q6 109 34.5 172t86 91t154.5 28q103 0 163.5 -33.5zM700.5 127.5q33.5 22.5 47.5 72.5t14 140t-13.5 140
t-46.5 72t-95 22q-63 0 -96.5 -22t-46.5 -71.5t-13 -140.5t13.5 -141t47 -72t95.5 -22q60 0 93.5 22.5z" />
    <glyph glyph-name="uni042F" unicode="&#x42f;" horiz-adv-x="648" 
d="M23 0h140l159 245h124v-245h122v680h-253q-87 0 -141.5 -17.5t-84 -64t-29.5 -132.5q0 -92 36 -138.5t104 -64.5zM240.5 362q-29.5 8 -43.5 30.5t-14 67.5t14 68t43.5 31.5t82.5 8.5h123v-214h-123q-53 0 -82.5 8z" />
    <glyph glyph-name="uni0402" unicode="&#x402;" horiz-adv-x="726" 
d="M597 405.5q48 -20.5 72 -67.5t24 -129q0 -81 -21.5 -128.5t-69.5 -69t-131 -21.5q-54 0 -107 14v113q41 -12 105 -12q57 0 79 23t22 82q0 40 -10.5 61.5t-36 30.5t-72.5 9t-92.5 -12.5t-82.5 -34.5v-264h-122v573h-149v107h511l-24 -107h-216v-195q89 48 196 48
q77 0 125 -20.5z" />
    <glyph glyph-name="uni0462" unicode="&#x462;" horiz-adv-x="698" 
d="M605.5 375.5q59.5 -45.5 59.5 -161.5q0 -118 -60 -166t-179 -48h-272v567h-149v113h149v150h122v-150h240l-21 -113h-219v-146h150q120 0 179.5 -45.5zM511 134q30 22 30 80t-30 80t-105 22h-130v-204h130q75 0 105 22z" />
    <glyph glyph-name="uni0472" unicode="&#x472;" horiz-adv-x="674" 
d="M506.5 656.5q62.5 -33.5 90.5 -109t28 -207.5t-28.5 -207.5t-90.5 -109t-169 -33.5t-169 33.5t-90.5 109t-28.5 207.5t28.5 207.5t90.5 109t169 33.5t169.5 -33.5zM244.5 557.5q-33.5 -17.5 -50 -56.5t-20.5 -108h326q-4 69 -20 108t-50 56.5t-93 17.5t-92.5 -17.5z
M428.5 122.5q33.5 17.5 50.5 57t21 107.5h-326q4 -68 21 -107.5t51 -57t91 -17.5q58 0 91.5 17.5z" />
    <glyph glyph-name="uni0474" unicode="&#x474;" horiz-adv-x="692" 
d="M685 684v-114q-18 2 -26 2q-33 0 -51.5 -8t-29 -25.5t-20.5 -52.5l-160 -486h-155l-234 680h131l181 -555l127 414q21 81 61 116t122 35q34 0 54 -6z" />
    <glyph glyph-name="uni0492" unicode="&#x492;" horiz-adv-x="563" 
d="M222 568v-193h182v-112h-182v-263h-122v263h-84v112h84v305h439l-23 -112h-294z" />
    <glyph glyph-name="uni0496" unicode="&#x496;" horiz-adv-x="942" 
d="M938 112v-279h-119v167h-76l-235 319v-319h-122v319l-235 -319h-148l265 343l-247 337h146l219 -317v317h122v-317l219 317h146l-247 -337l178 -231h134z" />
    <glyph glyph-name="uni0498" unicode="&#x498;" horiz-adv-x="566" 
d="M478.5 292.5q31.5 -36.5 31.5 -106.5q0 -89 -44 -134t-138 -57v-162h-121v158q-88 3 -171 23v114q116 -27 205 -27q80 0 113.5 20.5t33.5 76.5q0 50 -28.5 71.5t-95.5 21.5h-121v103h121q67 0 95.5 22t28.5 71q0 53 -33.5 72.5t-113.5 19.5q-75 0 -195 -28v114
q95 25 193 25q142 0 206.5 -43.5t64.5 -147.5q0 -69 -31.5 -106t-73.5 -50q42 -14 73.5 -50.5z" />
    <glyph glyph-name="uni049A" unicode="&#x49a;" horiz-adv-x="666" 
d="M662 112v-279h-119v167h-65l-276 325v-325h-122v680h122v-323l261 323h152l-283 -337l203 -231h127z" />
    <glyph glyph-name="uni049C" unicode="&#x49c;" horiz-adv-x="654" 
d="M304 289h-17v-169h-51v169h-34v-289h-122v680h122v-280h34v169h51v-169h20l178 280h152l-225 -337l243 -343h-155z" />
    <glyph glyph-name="uni04A0" unicode="&#x4a0;" horiz-adv-x="707" 
d="M553 0l-276 325v-325h-122v569h-150v111h272v-323l261 323h152l-283 -337l301 -343h-155z" />
    <glyph glyph-name="uni04A2" unicode="&#x4a2;" horiz-adv-x="748" 
d="M737 112v-279h-119v167h-122v288h-294v-288h-122v680h122v-280h294v280h122v-568h119z" />
    <glyph glyph-name="uni04A4" unicode="&#x4a4;" horiz-adv-x="922" 
d="M895 568h-277v-568h-122v288h-294v-288h-122v680h122v-280h294v280h419z" />
    <glyph glyph-name="uni04AA" unicode="&#x4aa;" horiz-adv-x="585" 
d="M250 554.5q-41 -20.5 -59 -71t-18 -143.5q0 -94 18 -144t59 -70.5t115 -20.5q91 0 171 25v-117q-54 -15 -133 -21v-159h-121v161q-80 9 -131 45.5t-76.5 109.5t-25.5 191q0 131 32 207.5t97.5 109.5t172.5 33q47 0 98.5 -6.5t86.5 -16.5v-117q-80 25 -171 25
q-74 0 -115 -20.5z" />
    <glyph glyph-name="uni04AE" unicode="&#x4ae;" horiz-adv-x="617" 
d="M247 247l-237 433h134l164 -308l164 308h135l-238 -433v-247h-122v247z" />
    <glyph glyph-name="uni04B0" unicode="&#x4b0;" horiz-adv-x="617" 
d="M393 290h108v-110h-132v-180h-122v180h-131v110h107l-213 390h134l164 -308l164 308h135z" />
    <glyph glyph-name="uni04B2" unicode="&#x4b2;" horiz-adv-x="638" 
d="M644 112v-279h-119v167h-72l-146 241l-147 -241h-139l210 336l-215 344h138l153 -251l152 251h139l-216 -344l140 -224h122z" />
    <glyph glyph-name="uni04B6" unicode="&#x4b6;" horiz-adv-x="671" 
d="M660 112v-279h-119v167h-100v261q-78 -41 -178 -41q-107 0 -159.5 45.5t-52.5 126.5v288h121v-259q0 -45 29 -69t98 -24q40 0 78 8t64 19v325h122v-568h97z" />
    <glyph glyph-name="uni04B8" unicode="&#x4b8;" horiz-adv-x="644" 
d="M563 680v-680h-122v261q-51 -26 -108 -36v-136h-53v131h-17q-107 0 -159.5 45.5t-52.5 126.5v288h121v-259q0 -42 25 -65.5t83 -26.5v163h53v-162q61 4 108 25v325h122z" />
    <glyph glyph-name="uni04BA" unicode="&#x4ba;" horiz-adv-x="644" 
d="M81 680h122v-261q78 41 178 41q107 0 159.5 -45.5t52.5 -126.5v-288h-121v259q0 45 -29 69t-98 24q-40 0 -78 -8t-64 -19v-325h-122v680z" />
    <glyph glyph-name="uni04C0" unicode="&#x4c0;" horiz-adv-x="283" 
d="M80 680h122v-680h-122v680z" />
    <glyph glyph-name="uni04C1" unicode="&#x4c1;" horiz-adv-x="890" 
d="M743 0l-235 319v-319h-122v319l-235 -319h-148l265 343l-247 337h146l219 -317v317h122v-317l219 317h146l-247 -337l265 -343h-148zM302 786q-47 33 -48 111h102q1 -40 21.5 -55t69.5 -15q48 0 68.5 15t21.5 55h102q-1 -78 -48 -111t-144 -33q-98 0 -145 33z" />
    <glyph glyph-name="uni04D0" unicode="&#x4d0;" horiz-adv-x="666" 
d="M474 157h-284l-55 -157h-126l250 680h148l250 -680h-128zM437 262l-105 296l-105 -296h210zM188 786q-47 33 -48 111h102q1 -40 21.5 -55t69.5 -15q48 0 68.5 15t21.5 55h102q-1 -78 -48 -111t-144 -33q-98 0 -145 33z" />
    <glyph glyph-name="uni04D2" unicode="&#x4d2;" horiz-adv-x="666" 
d="M474 157h-284l-55 -157h-126l250 680h148l250 -680h-128zM437 262l-105 296l-105 -296h210zM178 866h113v-111h-113v111zM375 866h113v-111h-113v111z" />
    <glyph glyph-name="uni04D4" unicode="&#x4d4;" horiz-adv-x="910" 
d="M860 112l-26 -112h-408v159h-235l-54 -159h-128l238 680h598v-112h-297v-169h281v-108h-281v-179h312zM426 271v297h-95l-102 -297h197z" />
    <glyph glyph-name="uni04D6" unicode="&#x4d6;" horiz-adv-x="594" 
d="M544 112l-25 -112h-439v680h449v-112h-327v-169h311v-108h-311v-179h342zM168 786q-47 33 -48 111h102q1 -40 21.5 -55t69.5 -15q48 0 68.5 15t21.5 55h102q-1 -78 -48 -111t-144 -33q-98 0 -145 33z" />
    <glyph glyph-name="uni04D8" unicode="&#x4d8;" horiz-adv-x="665" 
d="M485 660q69 -30 100 -105t31 -215q0 -128 -26.5 -204t-88.5 -111t-169 -35q-104 0 -164.5 29.5t-88.5 94.5t-32 178v92h443q-4 78 -23 118.5t-59 56.5t-113 16q-89 0 -197 -15v112q97 18 195 18q123 0 192 -30zM425 121.5q33 16.5 47.5 54.5t17.5 106h-317
q2 -67 16.5 -104.5t48 -55t94.5 -17.5q60 0 93 16.5z" />
    <glyph glyph-name="uni04DC" unicode="&#x4dc;" horiz-adv-x="890" 
d="M743 0l-235 319v-319h-122v319l-235 -319h-148l265 343l-247 337h146l219 -317v317h122v-317l219 317h146l-247 -337l265 -343h-148zM292 866h113v-111h-113v111zM489 866h113v-111h-113v111z" />
    <glyph glyph-name="uni04DE" unicode="&#x4de;" horiz-adv-x="566" 
d="M36 14v114q116 -27 205 -27q80 0 113.5 20.5t33.5 76.5q0 50 -28.5 71.5t-95.5 21.5h-121v103h121q67 0 95.5 22t28.5 71q0 53 -33.5 72.5t-113.5 19.5q-75 0 -195 -28v114q95 25 193 25q142 0 206.5 -43.5t64.5 -147.5q0 -69 -31.5 -106t-73.5 -50q42 -14 73.5 -50.5
t31.5 -106.5q0 -107 -64.5 -151.5t-206.5 -44.5q-105 0 -203 24zM117 866h113v-111h-113v111zM314 866h113v-111h-113v111z" />
    <glyph glyph-name="uni04E2" unicode="&#x4e2;" horiz-adv-x="703" 
d="M501 0v478l-318 -478h-103v680h122v-476l317 476h104v-680h-122zM202 862h300v-91h-300v91z" />
    <glyph glyph-name="uni04E4" unicode="&#x4e4;" horiz-adv-x="703" 
d="M501 0v478l-318 -478h-103v680h122v-476l317 476h104v-680h-122zM197 866h113v-111h-113v111zM394 866h113v-111h-113v111z" />
    <glyph glyph-name="uni04E6" unicode="&#x4e6;" horiz-adv-x="674" 
d="M168 23.5q-62 33.5 -90.5 109t-28.5 207.5t28.5 207.5t90.5 109t169 33.5t169.5 -33.5t90.5 -109t28 -207.5t-28.5 -207.5t-90.5 -109t-169 -33.5t-169 33.5zM437 127.5q35 22.5 49.5 72.5t14.5 140q0 91 -14 141t-49 72t-101 22q-65 0 -100.5 -22t-49.5 -72t-14 -141
q0 -90 14.5 -140t50 -72.5t99.5 -22.5q65 0 100 22.5zM182 866h113v-111h-113v111zM379 866h113v-111h-113v111z" />
    <glyph glyph-name="uni04E8" unicode="&#x4e8;" horiz-adv-x="674" 
d="M506.5 656.5q62.5 -33.5 90.5 -109t28 -207.5t-28.5 -207.5t-90.5 -109t-169 -33.5t-169 33.5t-90.5 109t-28.5 207.5t28.5 207.5t90.5 109t169 33.5t169.5 -33.5zM244.5 557.5q-33.5 -17.5 -50 -56.5t-20.5 -108h326q-4 69 -20 108t-50 56.5t-93 17.5t-92.5 -17.5z
M428.5 122.5q33.5 17.5 50.5 57t21 107.5h-326q4 -68 21 -107.5t51 -57t91 -17.5q58 0 91.5 17.5z" />
    <glyph glyph-name="uni04EE" unicode="&#x4ee;" horiz-adv-x="632" 
d="M172 862h300v-91h-300v91zM344 100q-23 -48 -59 -79t-85 -31q-44 0 -83 11v115q30 -9 63 -9q22 0 37 12t27 37l22 42l-240 482h135l168 -352l154 352h135z" />
    <glyph glyph-name="uni04F0" unicode="&#x4f0;" horiz-adv-x="632" 
d="M167 866h113v-111h-113v111zM364 866h113v-111h-113v111zM344 100q-23 -48 -59 -79t-85 -31q-44 0 -83 11v115q30 -9 63 -9q22 0 37 12t27 37l22 42l-240 482h135l168 -352l154 352h135z" />
    <glyph glyph-name="uni04F2" unicode="&#x4f2;" horiz-adv-x="632" 
d="M253 902h127l-109 -152h-102zM425 902h127l-109 -152h-102zM344 100q-23 -48 -59 -79t-85 -31q-44 0 -83 11v115q30 -9 63 -9q22 0 37 12t27 37l22 42l-240 482h135l168 -352l154 352h135z" />
    <glyph glyph-name="uni04F4" unicode="&#x4f4;" horiz-adv-x="644" 
d="M563 0h-122v261q-78 -41 -178 -41q-107 0 -159.5 45.5t-52.5 126.5v288h121v-259q0 -45 29 -69t98 -24q40 0 78 8t64 19v325h122v-680zM153 866h113v-111h-113v111zM350 866h113v-111h-113v111z" />
    <glyph glyph-name="uni04F8" unicode="&#x4f8;" horiz-adv-x="853" 
d="M497.5 395.5q59.5 -49.5 59.5 -173.5t-59.5 -173t-179.5 -49h-238v680h122v-235h116q120 0 179.5 -49.5zM772 680v-680h-122v680h122zM378 121.5q29 9.5 42 33.5t13 67q0 44 -13 67.5t-42 33.5t-80 10h-96v-221h96q51 0 80 9.5zM272 866h113v-111h-113v111zM469 866h113
v-111h-113v111z" />
    <glyph glyph-name="uni0430" unicode="&#x430;" horiz-adv-x="561" 
d="M83 31q-43 41 -43 130q0 90 46.5 123.5t145.5 33.5q73 0 142 -21v61q0 43 -31 61t-97 18q-82 0 -156 -20v103q78 20 171 20q115 0 174 -37t59 -135v-368h-93l-15 41q-59 -51 -163 -51q-97 0 -140 41zM374 105v109q-57 11 -111 11q-56 0 -78 -14t-22 -50q0 -42 21 -57.5
t77 -15.5q65 0 113 17z" />
    <glyph glyph-name="uni0431" unicode="&#x431;" horiz-adv-x="603" 
d="M157 20q-54 30 -79.5 97.5t-25.5 182.5q0 139 24 218.5t76 119t143 52.5l228 39v-118l-217 -33q-65 -10 -90.5 -32.5t-33.5 -57.5q-8 -40 -9 -62q32 18 76.5 28t88.5 10q117 0 167.5 -54t50.5 -174q0 -126 -60 -186t-195 -60q-90 0 -144 30zM407 130.5q30 33.5 30 103.5
q0 69 -27 98t-97 29q-84 0 -141 -21q-1 -10 -1 -32q0 -82 11 -126.5t40 -64.5t86 -20q69 0 99 33.5z" />
    <glyph glyph-name="uni0432" unicode="&#x432;" horiz-adv-x="567" 
d="M495.5 236.5q25.5 -29.5 25.5 -88.5q0 -60 -24 -92.5t-67.5 -44t-114.5 -11.5h-244v530h237q66 0 107.5 -10t65.5 -39.5t24 -85.5q0 -51 -21 -78.5t-67 -40.5q53 -10 78.5 -39.5zM191 431v-118h116q43 0 62 13t19 48q0 33 -21.5 45t-76.5 12h-99zM379 110.5
q23 11.5 23 51.5q0 38 -20.5 51.5t-68.5 13.5h-122v-128h112q53 0 76 11.5z" />
    <glyph glyph-name="uni0433" unicode="&#x433;" horiz-adv-x="452" 
d="M431 422h-240v-422h-120v530h360v-108z" />
    <glyph glyph-name="uni0453" unicode="&#x453;" horiz-adv-x="452" 
d="M431 422h-240v-422h-120v530h360v-108zM259 752h127l-109 -152h-102z" />
    <glyph glyph-name="uni0491" unicode="&#x491;" horiz-adv-x="452" 
d="M431 634v-212h-240v-422h-120v530h248v104h112z" />
    <glyph glyph-name="uni0434" unicode="&#x434;" horiz-adv-x="653" 
d="M17 103h67q53 53 53 173v254h410v-427h86v-227h-120v124h-376v-124h-120v227zM427 102v321h-176v-134q0 -69 -9 -111.5t-32 -75.5h217z" />
    <glyph glyph-name="uni0435" unicode="&#x435;" horiz-adv-x="563" 
d="M155 16.5q-55 26.5 -81.5 86.5t-26.5 163q0 144 59 209t183 65q80 0 130 -26t73.5 -82.5t23.5 -151.5q0 -13 -3 -58h-347q2 -50 17 -78t47 -40t87 -12q85 0 168 32v-104q-68 -30 -186 -30q-89 0 -144 26.5zM400 316q-1 68 -25 97t-87 29q-64 0 -92 -30t-30 -96h234z" />
    <glyph glyph-name="uni0450" unicode="&#x450;" horiz-adv-x="563" 
d="M155 16.5q-55 26.5 -81.5 86.5t-26.5 163q0 144 59 209t183 65q80 0 130 -26t73.5 -82.5t23.5 -151.5q0 -13 -3 -58h-347q2 -50 17 -78t47 -40t87 -12q85 0 168 32v-104q-68 -30 -186 -30q-89 0 -144 26.5zM400 316q-1 68 -25 97t-87 29q-64 0 -92 -30t-30 -96h234z
M242 600l-109 152h127l84 -152h-102z" />
    <glyph glyph-name="uni0451" unicode="&#x451;" horiz-adv-x="563" 
d="M155 16.5q-55 26.5 -81.5 86.5t-26.5 163q0 144 59 209t183 65q80 0 130 -26t73.5 -82.5t23.5 -151.5q0 -13 -3 -58h-347q2 -50 17 -78t47 -40t87 -12q85 0 168 32v-104q-68 -30 -186 -30q-89 0 -144 26.5zM400 316q-1 68 -25 97t-87 29q-64 0 -92 -30t-30 -96h234z
M127 716h113v-111h-113v111zM324 716h113v-111h-113v111z" />
    <glyph glyph-name="uni0436" unicode="&#x436;" horiz-adv-x="763" 
d="M618 0l-176 265v-265h-120v267l-177 -267h-140l194 275l-183 255h139l167 -251v251h120v-249l166 249h139l-183 -255l194 -275h-140z" />
    <glyph glyph-name="uni0437" unicode="&#x437;" horiz-adv-x="497" 
d="M35 10v107q56 -11 94.5 -16.5t79.5 -5.5q65 0 92.5 14.5t27.5 52.5q0 33 -23.5 47.5t-80.5 14.5h-105v90h105q58 0 81 12.5t23 43.5q0 38 -27 51.5t-93 13.5q-63 0 -168 -21v107q95 19 166 19q87 0 140 -14t78.5 -47t25.5 -90q0 -96 -90 -122q90 -26 90 -125
q0 -58 -25.5 -91t-78.5 -47t-140 -14q-80 0 -172 20z" />
    <glyph glyph-name="uni0438" unicode="&#x438;" horiz-adv-x="611" 
d="M71 530h120v-355l241 355h108v-530h-120v355l-241 -355h-108v530z" />
    <glyph glyph-name="uni0439" unicode="&#x439;" horiz-adv-x="611" 
d="M71 530h120v-355l241 355h108v-530h-120v355l-241 -355h-108v530zM164 618q-47 33 -48 111h102q1 -40 21.5 -55t69.5 -15q48 0 68.5 15t21.5 55h102q-1 -78 -48 -111t-144 -33q-98 0 -145 33z" />
    <glyph glyph-name="uni045D" unicode="&#x45d;" horiz-adv-x="611" 
d="M71 530h120v-355l241 355h108v-530h-120v355l-241 -355h-108v530zM278 600l-109 152h127l84 -152h-102z" />
    <glyph glyph-name="uni043A" unicode="&#x43a;" horiz-adv-x="554" 
d="M402 0l-211 267v-267h-120v530h120v-251l197 251h146l-212 -255l227 -275h-147z" />
    <glyph glyph-name="uni045C" unicode="&#x45c;" horiz-adv-x="554" 
d="M402 0l-211 267v-267h-120v530h120v-251l197 251h146l-212 -255l227 -275h-147zM302 752h127l-109 -152h-102z" />
    <glyph glyph-name="uni043B" unicode="&#x43b;" horiz-adv-x="602" 
d="M19 -4v99q20 -5 39 -5q29 0 42.5 17t13.5 53v370h417v-530h-120v425h-185v-292q0 -62 -32.5 -102.5t-108.5 -40.5q-36 0 -66 6z" />
    <glyph glyph-name="uni043C" unicode="&#x43c;" horiz-adv-x="710" 
d="M71 530h139l145 -207l142 207h142v-530h-119v387l-165 -230l-165 230v-387h-119v530z" />
    <glyph glyph-name="uni043D" unicode="&#x43d;" horiz-adv-x="604" 
d="M533 530v-530h-120v216h-222v-216h-120v530h120v-206h222v206h120z" />
    <glyph glyph-name="uni043E" unicode="&#x43e;" horiz-adv-x="602" 
d="M110.5 52q-63.5 62 -63.5 213q0 150 64 212.5t190 62.5q127 0 190.5 -62.5t63.5 -212.5q0 -151 -63.5 -213t-190.5 -62t-190.5 62zM375 110.5q28 13.5 43 50t15 104.5t-15 104.5t-43.5 50t-73.5 13.5t-73.5 -13.5t-43.5 -50t-15 -104.5t15 -104.5t43.5 -50t73.5 -13.5
q46 0 74 13.5z" />
    <glyph glyph-name="uni043F" unicode="&#x43f;" horiz-adv-x="606" 
d="M535 0h-120v422h-224v-422h-120v530h464v-530z" />
    <glyph glyph-name="uni0440" unicode="&#x440;" horiz-adv-x="614" 
d="M509.5 478q57.5 -62 57.5 -213q0 -142 -54 -208.5t-173 -66.5q-85 0 -149 31v-221h-120v730h120v-36q62 46 148 46q113 0 170.5 -62zM390 113.5q30 16.5 42.5 52.5t12.5 99t-12.5 99.5t-42 53t-84.5 16.5q-68 0 -115 -22v-296q43 -19 115 -19q54 0 84 16.5z" />
    <glyph glyph-name="uni0441" unicode="&#x441;" horiz-adv-x="515" 
d="M162 15q-58 25 -86.5 85t-28.5 165t28.5 165t86.5 85t151 25q75 0 151 -21v-110q-69 23 -138 23q-59 0 -92 -13.5t-49 -49.5t-16 -104t16 -104t49 -49.5t92 -13.5q69 0 138 23v-110q-76 -21 -151 -21q-93 0 -151 25z" />
    <glyph glyph-name="uni0442" unicode="&#x442;" horiz-adv-x="502" 
d="M477 426h-165v-426h-120v426h-179v104h476z" />
    <glyph glyph-name="uni0443" unicode="&#x443;" horiz-adv-x="541" 
d="M528 530l-161 -436q-40 -107 -99.5 -181t-170.5 -123l-48 94q120 70 160 137l-196 509h125l135 -394l126 394h129z" />
    <glyph glyph-name="uni045E" unicode="&#x45e;" horiz-adv-x="541" 
d="M528 530l-161 -436q-40 -107 -99.5 -181t-170.5 -123l-48 94q120 70 160 137l-196 509h125l135 -394l126 394h129zM122 618q-47 33 -48 111h102q1 -40 21.5 -55t69.5 -15q48 0 68.5 15t21.5 55h102q-1 -78 -48 -111t-144 -33q-98 0 -145 33z" />
    <glyph glyph-name="uni0444" unicode="&#x444;" horiz-adv-x="768" 
d="M601.5 514q63.5 -26 96 -86.5t32.5 -162.5q0 -103 -32.5 -163.5t-95.5 -86t-161 -25.5v-190h-115v190q-97 0 -160 25.5t-95.5 86t-32.5 163.5q0 102 32.5 162.5t95.5 86.5t160 26v180h115v-180q97 0 160.5 -26zM326 433q-58 0 -94 -13.5t-55 -50t-19 -104.5
q0 -69 18.5 -105t54.5 -49.5t95 -13.5v336zM536.5 110q35.5 13 54.5 49.5t19 105.5q0 68 -19 104.5t-55 50t-95 13.5v-336q60 0 95.5 13z" />
    <glyph glyph-name="uni0445" unicode="&#x445;" horiz-adv-x="543" 
d="M201 271l-181 259h139l113 -176l115 176h136l-180 -261l187 -269h-141l-117 179l-118 -179h-140z" />
    <glyph glyph-name="uni0447" unicode="&#x447;" horiz-adv-x="571" 
d="M82 202.5q-45 41.5 -45 124.5v203h120v-175q0 -46 25 -66.5t83 -20.5q68 0 116 25v237h120v-530h-120v206q-25 -17 -65.5 -31t-91.5 -14q-97 0 -142 41.5z" />
    <glyph glyph-name="uni0446" unicode="&#x446;" horiz-adv-x="620" 
d="M600 104v-228h-120v124h-409v530h120v-422h213v422h120v-426h76z" />
    <glyph glyph-name="uni0448" unicode="&#x448;" horiz-adv-x="844" 
d="M773 530v-530h-702v530h120v-422h172v422h120v-422h170v422h120z" />
    <glyph glyph-name="uni0449" unicode="&#x449;" horiz-adv-x="864" 
d="M843 104v-228h-120v124h-652v530h120v-422h172v422h120v-422h170v422h120v-426h70z" />
    <glyph glyph-name="uni045F" unicode="&#x45f;" horiz-adv-x="606" 
d="M535 530v-530h-172v-124h-120v124h-172v530h120v-422h224v422h120z" />
    <glyph glyph-name="uni044C" unicode="&#x44c;" horiz-adv-x="552" 
d="M428.5 348.5q47.5 -13.5 73.5 -53t26 -114.5t-26 -114.5t-73.5 -53t-125.5 -13.5h-232v530h120v-168h112q78 0 125.5 -13.5zM361 106q24 6 35.5 23.5t11.5 51.5t-11.5 51.5t-35.5 23.5t-66 6h-104v-162h104q42 0 66 6z" />
    <glyph glyph-name="uni044A" unicode="&#x44a;" horiz-adv-x="626" 
d="M502.5 348.5q47.5 -13.5 73.5 -53t26 -114.5t-26 -114.5t-73.5 -53t-125.5 -13.5h-232v427h-131v103h251v-168h112q78 0 125.5 -13.5zM435 106q24 6 35.5 23.5t11.5 51.5t-11.5 51.5t-35.5 23.5t-66 6h-104v-162h104q42 0 66 6z" />
    <glyph glyph-name="uni044B" unicode="&#x44b;" horiz-adv-x="754" 
d="M400.5 354.5q47.5 -13.5 73.5 -53.5t26 -117q0 -75 -26 -115t-74 -54.5t-125 -14.5h-204v530h120v-162h84q78 0 125.5 -13.5zM683 530v-530h-120v530h120zM354.5 117q25.5 17 25.5 67q0 36 -11.5 54.5t-35 24.5t-66.5 6h-76v-169h76q62 0 87.5 17z" />
    <glyph glyph-name="uni0459" unicode="&#x459;" horiz-adv-x="866" 
d="M743.5 346.5q47.5 -13.5 73 -52.5t25.5 -114t-25.5 -114t-73 -52.5t-125.5 -13.5h-207v425h-185v-292q0 -62 -32.5 -102.5t-108.5 -40.5q-36 0 -66 6v99q20 -5 39 -5q29 0 42.5 17t13.5 53v370h417v-170h87q78 0 125.5 -13.5zM675.5 105.5q23.5 5.5 35 23t11.5 51.5
t-11.5 51.5t-35 23.5t-65.5 6h-79v-161h79q42 0 65.5 5.5z" />
    <glyph glyph-name="uni045A" unicode="&#x45a;" horiz-adv-x="852" 
d="M729.5 346.5q47.5 -13.5 73 -52.5t25.5 -114t-25.5 -114t-73 -52.5t-125.5 -13.5h-205v216h-208v-216h-120v530h120v-206h208v206h120v-170h85q78 0 125.5 -13.5zM661.5 105.5q23.5 5.5 35 23t11.5 51.5t-11.5 51.5t-35 23.5t-65.5 6h-77v-161h77q42 0 65.5 5.5z" />
    <glyph glyph-name="uni0455" unicode="&#x455;" horiz-adv-x="505" 
d="M140.5 -2.5q-50.5 7.5 -85.5 19.5v112q100 -35 190 -35q61 0 82.5 11t21.5 43q0 28 -15.5 40t-57.5 23l-96 28q-47 14 -75.5 31t-43 46.5t-14.5 77.5q0 82 51.5 114t166.5 32q44 0 92 -6t78 -15v-109q-84 28 -170 28q-41 0 -62 -4.5t-29.5 -15t-8.5 -29.5q0 -24 13.5 -35
t52.5 -22l92 -26q51 -15 81 -32.5t45 -47.5t15 -78q0 -60 -22 -94.5t-70 -49t-130 -14.5q-51 0 -101.5 7.5z" />
    <glyph glyph-name="uni0454" unicode="&#x454;" horiz-adv-x="510" 
d="M162 15q-58 25 -86.5 85t-28.5 165t28.5 165t86.5 85t151 25q81 0 157 -21v-110q-69 23 -144 23q-52 0 -83.5 -10.5t-48.5 -37.5t-22 -78h229v-82h-229q5 -51 22 -78t48.5 -37.5t83.5 -10.5q75 0 144 23v-110q-76 -21 -157 -21q-93 0 -151 25z" />
    <glyph glyph-name="uni044D" unicode="&#x44d;" horiz-adv-x="508" 
d="M346 15q58 25 86.5 85t28.5 165t-28.5 165t-86.5 85t-151 25q-81 0 -157 -21v-110q69 23 144 23q52 0 83.5 -10.5t48.5 -37.5t22 -78h-229v-82h229q-5 -51 -22 -78t-48.5 -37.5t-83.5 -10.5q-75 0 -144 23v-110q76 -21 157 -21q93 0 151 25z" />
    <glyph glyph-name="uni0456" unicode="&#x456;" horiz-adv-x="257" 
d="M63 716h131v-112h-131v112zM69 530h120v-530h-120v530z" />
    <glyph glyph-name="uni0457" unicode="&#x457;" horiz-adv-x="257" 
d="M69 530h120v-530h-120v530zM-26 716h113v-111h-113v111zM171 716h113v-111h-113v111z" />
    <glyph glyph-name="uni0458" unicode="&#x458;" horiz-adv-x="259" 
d="M64 716h131v-112h-131v112zM-46 -132q50 58 74 96t33 75t9 93v398h120v-406q0 -65 -10.5 -111.5t-42.5 -98.5t-96 -124z" />
    <glyph glyph-name="uni045B" unicode="&#x45b;" horiz-adv-x="607" 
d="M71 530h115v-43q28 22 75 37.5t104 15.5q96 0 135.5 -39t39.5 -116v-385h-120v350q0 44 -22 63.5t-79 19.5q-39 0 -72 -7.5t-56 -18.5v-407h-120v530zM71 720h120v-720h-120v720zM5 666h344v-71h-344v71z" />
    <glyph glyph-name="uni044E" unicode="&#x44e;" horiz-adv-x="799" 
d="M644 514q53 -26 80.5 -86t27.5 -163t-27.5 -163.5t-80.5 -86t-136 -25.5q-114 0 -172 50t-67 173h-78v-213h-120v530h120v-213h78q9 122 67.5 172.5t171.5 50.5q83 0 136 -26zM579 110q26 13 39.5 49.5t13.5 105.5q0 68 -13.5 104.5t-39.5 50t-71 13.5q-44 0 -70.5 -13.5
t-40 -50t-13.5 -104.5q0 -69 13.5 -105.5t39.5 -49.5t71 -13t71 13z" />
    <glyph glyph-name="uni044F" unicode="&#x44f;" horiz-adv-x="573" 
d="M502 1h-120v177h-91l-122 -178h-136l135 186q-62 12 -92.5 49.5t-30.5 114.5q0 72 26 111.5t74 54.5t125 15h232v-530zM382 271v159h-105q-60 0 -86 -17t-26 -63q0 -34 11.5 -51t35 -22.5t65.5 -5.5h105z" />
    <glyph glyph-name="uni0452" unicode="&#x452;" horiz-adv-x="607" 
d="M500.5 501q39.5 -39 39.5 -116v-461q0 -72 -38.5 -103t-110.5 -31q-34 0 -57.5 4t-48.5 14v102q42 -13 80 -13q30 0 42.5 9t12.5 40v404q0 44 -22 63.5t-79 19.5q-39 0 -72 -7.5t-56 -18.5v-407h-120v595h-66v71h66v54h120v-54h158v-71h-158v-104q28 20 73.5 34.5
t100.5 14.5q96 0 135.5 -39z" />
    <glyph glyph-name="uni0463" unicode="&#x463;" horiz-adv-x="585" 
d="M461.5 340.5q47.5 -13.5 73.5 -52t26 -111.5t-26 -111.5t-73.5 -52t-125.5 -13.5h-232v444h-92v86h92v190h120v-190h264v-86h-264v-90h112q78 0 125.5 -13.5zM393.5 105.5q23.5 5.5 35 22t11.5 49.5t-11.5 49.5t-35 22.5t-65.5 6h-104v-155h104q42 0 65.5 5.5z" />
    <glyph glyph-name="uni0473" unicode="&#x473;" horiz-adv-x="602" 
d="M491.5 477.5q63.5 -62.5 63.5 -212.5q0 -151 -63.5 -213t-190.5 -62t-190.5 62t-63.5 213q0 150 64 212.5t190 62.5q127 0 190.5 -62.5zM207.5 405q-31.5 -28 -37.5 -106h262q-4 54 -20 83t-42.5 40t-68.5 11q-62 0 -93.5 -28zM394.5 124q31.5 27 37.5 104h-262
q6 -77 37.5 -104t93.5 -27t93.5 27z" />
    <glyph glyph-name="uni0475" unicode="&#x475;" horiz-adv-x="575" 
d="M13 530h125l135 -406l94 275q21 73 60.5 107t115.5 34q12 0 30 -2v-115q-8 1 -22 1q-31 0 -48.5 -17t-34.5 -63l-126 -344h-137z" />
    <glyph glyph-name="uni0493" unicode="&#x493;" horiz-adv-x="471" 
d="M209 422v-134h169v-99h-169v-189h-120v189h-77v99h77v242h360v-108h-240z" />
    <glyph glyph-name="uni0497" unicode="&#x497;" horiz-adv-x="803" 
d="M799 104v-228h-120v124h-61l-176 265v-265h-120v267l-177 -267h-140l194 275l-183 255h139l167 -251v251h120v-249l166 249h139l-183 -255l121 -171h114z" />
    <glyph glyph-name="uni0499" unicode="&#x499;" horiz-adv-x="497" 
d="M451 142q0 -68 -36.5 -102.5t-116.5 -44.5v-119h-120v115q-68 3 -143 19v107q56 -11 94.5 -16.5t79.5 -5.5q65 0 92.5 14.5t27.5 52.5q0 33 -23.5 47.5t-80.5 14.5h-105v90h105q58 0 81 12.5t23 43.5q0 38 -27 51.5t-93 13.5q-63 0 -168 -21v107q95 19 166 19
q87 0 140 -14t78.5 -47t25.5 -90q0 -96 -90 -122q90 -26 90 -125z" />
    <glyph glyph-name="uni049B" unicode="&#x49b;" horiz-adv-x="574" 
d="M565 104v-228h-120v124h-43l-211 267v-267h-120v530h120v-251l197 251h146l-212 -255l141 -171h102z" />
    <glyph glyph-name="uni049D" unicode="&#x49d;" horiz-adv-x="579" 
d="M294 221h-19v-118h-49v118h-35v-221h-120v530h120v-211h35v124h49v-124h15l132 211h135l-163 -258l180 -272h-141z" />
    <glyph glyph-name="uni04A1" unicode="&#x4a1;" horiz-adv-x="629" 
d="M477 0l-211 267v-267h-120v427h-132v103h252v-251l197 251h146l-212 -255l227 -275h-147z" />
    <glyph glyph-name="uni04A3" unicode="&#x4a3;" horiz-adv-x="626" 
d="M605 104v-228h-120v124h-72v216h-222v-216h-120v530h120v-206h222v206h120v-426h72z" />
    <glyph glyph-name="uni04A5" unicode="&#x4a5;" horiz-adv-x="764" 
d="M772 423h-239v-423h-120v216h-222v-216h-120v530h120v-206h222v206h359v-107z" />
    <glyph glyph-name="uni04AB" unicode="&#x4ab;" horiz-adv-x="515" 
d="M234 418.5q-33 -13.5 -49 -49.5t-16 -104t16 -104t49 -49.5t92 -13.5q69 0 138 23v-110q-59 -16 -104 -19v-116h-120v118q-100 13 -146.5 75.5t-46.5 195.5q0 105 28.5 165t86.5 85t151 25q75 0 151 -21v-110q-69 23 -138 23q-59 0 -92 -13.5z" />
    <glyph glyph-name="uni04AF" unicode="&#x4af;" horiz-adv-x="547" 
d="M333 13v-213h-120v213l-200 517h126l134 -388l135 388h126z" />
    <glyph glyph-name="uni04B1" unicode="&#x4b1;" horiz-adv-x="547" 
d="M364 94h115v-94h-146v-200h-120v200h-145v94h114l-169 436h126l134 -388l135 388h126z" />
    <glyph glyph-name="uni04B3" unicode="&#x4b3;" horiz-adv-x="555" 
d="M558 104v-228h-120v124h-49l-117 179l-118 -179h-140l187 271l-181 259h139l113 -176l115 176h136l-180 -261l115 -165h100z" />
    <glyph glyph-name="uni04B7" unicode="&#x4b7;" horiz-adv-x="621" 
d="M600 104v-228h-120v124h-99v206q-25 -17 -65.5 -31t-91.5 -14q-97 0 -142 41.5t-45 124.5v203h120v-175q0 -46 25 -66.5t83 -20.5q68 0 116 25v237h120v-426h99z" />
    <glyph glyph-name="uni04B9" unicode="&#x4b9;" horiz-adv-x="571" 
d="M501 530v-530h-120v206q-35 -24 -86 -37v-95h-50v88q-7 -1 -21 -1q-97 0 -142 41.5t-45 124.5v203h120v-175q0 -42 20.5 -62.5t67.5 -23.5v109h50v-109q48 5 86 24v237h120z" />
    <glyph glyph-name="uni04BB" unicode="&#x4bb;" horiz-adv-x="607" 
d="M71 530h115v-43q28 22 75 37.5t104 15.5q96 0 135.5 -39t39.5 -116v-385h-120v350q0 44 -22 63.5t-79 19.5q-39 0 -72 -7.5t-56 -18.5v-407h-120v530zM71 720h120v-720h-120v720z" />
    <glyph glyph-name="uni04CF" unicode="&#x4cf;" horiz-adv-x="262" 
d="M71 720h120v-720h-120v720z" />
    <glyph glyph-name="uni04C2" unicode="&#x4c2;" horiz-adv-x="763" 
d="M237 618q-47 33 -48 111h102q1 -40 21.5 -55t69.5 -15q48 0 68.5 15t21.5 55h102q-1 -78 -48 -111t-144 -33q-98 0 -145 33zM618 0l-176 265v-265h-120v267l-177 -267h-140l194 275l-183 255h139l167 -251v251h120v-249l166 249h139l-183 -255l194 -275h-140z" />
    <glyph glyph-name="uni04D1" unicode="&#x4d1;" horiz-adv-x="561" 
d="M83 31q-43 41 -43 130q0 90 46.5 123.5t145.5 33.5q73 0 142 -21v61q0 43 -31 61t-97 18q-82 0 -156 -20v103q78 20 171 20q115 0 174 -37t59 -135v-368h-93l-15 41q-59 -51 -163 -51q-97 0 -140 41zM374 105v109q-57 11 -111 11q-56 0 -78 -14t-22 -50q0 -42 21 -57.5
t77 -15.5q65 0 113 17zM144 618q-47 33 -48 111h102q1 -40 21.5 -55t69.5 -15q48 0 68.5 15t21.5 55h102q-1 -78 -48 -111t-144 -33q-98 0 -145 33z" />
    <glyph glyph-name="uni04D3" unicode="&#x4d3;" horiz-adv-x="561" 
d="M83 31q-43 41 -43 130q0 90 46.5 123.5t145.5 33.5q73 0 142 -21v61q0 43 -31 61t-97 18q-82 0 -156 -20v103q78 20 171 20q115 0 174 -37t59 -135v-368h-93l-15 41q-59 -51 -163 -51q-97 0 -140 41zM374 105v109q-57 11 -111 11q-56 0 -78 -14t-22 -50q0 -42 21 -57.5
t77 -15.5q65 0 113 17zM124 716h113v-111h-113v111zM321 716h113v-111h-113v111z" />
    <glyph glyph-name="uni04D5" unicode="&#x4d5;" horiz-adv-x="848" 
d="M798 226h-320q1 -52 14.5 -81t42.5 -41t80 -12q79 0 158 32v-104q-26 -12 -72.5 -21t-98.5 -9q-64 0 -108.5 15t-73.5 48q-41 -34 -91.5 -48.5t-104.5 -14.5q-96 0 -139.5 41t-43.5 129q0 85 50 117.5t151 32.5h117v35q0 92 -119 92q-76 0 -151 -21v103q79 21 155 21
q64 0 110 -20t66 -62q41 82 167 82q77 0 123.5 -25t68.5 -82t22 -153q0 -37 -3 -54zM686 310q-1 73 -22 102.5t-77 29.5q-55 0 -82 -26t-27 -83v-23h208zM312 93.5q29 7.5 68 27.5q-17 40 -20 107h-87q-61 0 -85 -15t-24 -54q0 -41 19.5 -57t66.5 -16q33 0 62 7.5z" />
    <glyph glyph-name="uni04D7" unicode="&#x4d7;" horiz-adv-x="563" 
d="M155 16.5q-55 26.5 -81.5 86.5t-26.5 163q0 144 59 209t183 65q80 0 130 -26t73.5 -82.5t23.5 -151.5q0 -13 -3 -58h-347q2 -50 17 -78t47 -40t87 -12q85 0 168 32v-104q-68 -30 -186 -30q-89 0 -144 26.5zM400 316q-1 68 -25 97t-87 29q-64 0 -92 -30t-30 -96h234z
M138 618q-47 33 -48 111h102q1 -40 21.5 -55t69.5 -15q48 0 68.5 15t21.5 55h102q-1 -78 -48 -111t-144 -33q-98 0 -145 33z" />
    <glyph glyph-name="uni04D9" unicode="&#x4d9;" horiz-adv-x="563" 
d="M408 513.5q55 -26.5 81.5 -86.5t26.5 -163q0 -144 -59 -209t-183 -65q-80 0 -130 26t-73.5 82.5t-23.5 151.5q0 13 3 58h347q-2 50 -17 78t-47 40t-87 12q-85 0 -168 -32v104q68 30 186 30q89 0 144 -26.5zM163 214q1 -68 25 -97t87 -29q64 0 92 30t30 96h-234z" />
    <glyph glyph-name="uni04DD" unicode="&#x4dd;" horiz-adv-x="763" 
d="M618 0l-176 265v-265h-120v267l-177 -267h-140l194 275l-183 255h139l167 -251v251h120v-249l166 249h139l-183 -255l194 -275h-140zM227 716h113v-111h-113v111zM424 716h113v-111h-113v111z" />
    <glyph glyph-name="uni04DF" unicode="&#x4df;" horiz-adv-x="497" 
d="M35 10v107q56 -11 94.5 -16.5t79.5 -5.5q65 0 92.5 14.5t27.5 52.5q0 33 -23.5 47.5t-80.5 14.5h-105v90h105q58 0 81 12.5t23 43.5q0 38 -27 51.5t-93 13.5q-63 0 -168 -21v107q95 19 166 19q87 0 140 -14t78.5 -47t25.5 -90q0 -96 -90 -122q90 -26 90 -125
q0 -58 -25.5 -91t-78.5 -47t-140 -14q-80 0 -172 20zM90 716h113v-111h-113v111zM287 716h113v-111h-113v111z" />
    <glyph glyph-name="uni04E3" unicode="&#x4e3;" horiz-adv-x="611" 
d="M71 530h120v-355l241 355h108v-530h-120v355l-241 -355h-108v530zM156 712h300v-91h-300v91z" />
    <glyph glyph-name="uni04E5" unicode="&#x4e5;" horiz-adv-x="611" 
d="M71 530h120v-355l241 355h108v-530h-120v355l-241 -355h-108v530zM151 716h113v-111h-113v111zM348 716h113v-111h-113v111z" />
    <glyph glyph-name="uni04E7" unicode="&#x4e7;" horiz-adv-x="602" 
d="M110.5 52q-63.5 62 -63.5 213q0 150 64 212.5t190 62.5q127 0 190.5 -62.5t63.5 -212.5q0 -151 -63.5 -213t-190.5 -62t-190.5 62zM375 110.5q28 13.5 43 50t15 104.5t-15 104.5t-43.5 50t-73.5 13.5t-73.5 -13.5t-43.5 -50t-15 -104.5t15 -104.5t43.5 -50t73.5 -13.5
q46 0 74 13.5zM146 716h113v-111h-113v111zM343 716h113v-111h-113v111z" />
    <glyph glyph-name="uni04E9" unicode="&#x4e9;" horiz-adv-x="602" 
d="M491.5 477.5q63.5 -62.5 63.5 -212.5q0 -151 -63.5 -213t-190.5 -62t-190.5 62t-63.5 213q0 150 64 212.5t190 62.5q127 0 190.5 -62.5zM207.5 405q-31.5 -28 -37.5 -106h262q-4 54 -20 83t-42.5 40t-68.5 11q-62 0 -93.5 -28zM394.5 124q31.5 27 37.5 104h-262
q6 -77 37.5 -104t93.5 -27t93.5 27z" />
    <glyph glyph-name="uni04EF" unicode="&#x4ef;" horiz-adv-x="541" 
d="M528 530l-161 -436q-40 -107 -99.5 -181t-170.5 -123l-48 94q120 70 160 137l-196 509h125l135 -394l126 394h129zM120 712h300v-91h-300v91z" />
    <glyph glyph-name="uni04F1" unicode="&#x4f1;" horiz-adv-x="541" 
d="M528 530l-161 -436q-40 -107 -99.5 -181t-170.5 -123l-48 94q120 70 160 137l-196 509h125l135 -394l126 394h129zM116 716h113v-111h-113v111zM313 716h113v-111h-113v111z" />
    <glyph glyph-name="uni04F3" unicode="&#x4f3;" horiz-adv-x="541" 
d="M528 530l-161 -436q-40 -107 -99.5 -181t-170.5 -123l-48 94q120 70 160 137l-196 509h125l135 -394l126 394h129zM202 752h127l-109 -152h-102zM374 752h127l-109 -152h-102z" />
    <glyph glyph-name="uni04F5" unicode="&#x4f5;" horiz-adv-x="571" 
d="M82 202.5q-45 41.5 -45 124.5v203h120v-175q0 -46 25 -66.5t83 -20.5q68 0 116 25v237h120v-530h-120v206q-25 -17 -65.5 -31t-91.5 -14q-97 0 -142 41.5zM114 716h113v-111h-113v111zM311 716h113v-111h-113v111z" />
    <glyph glyph-name="uni04F9" unicode="&#x4f9;" horiz-adv-x="754" 
d="M400.5 354.5q47.5 -13.5 73.5 -53.5t26 -117q0 -75 -26 -115t-74 -54.5t-125 -14.5h-204v530h120v-162h84q78 0 125.5 -13.5zM683 530v-530h-120v530h120zM354.5 117q25.5 17 25.5 67q0 36 -11.5 54.5t-35 24.5t-66.5 6h-76v-169h76q62 0 87.5 17zM216 716h113v-111h-113
v111zM413 716h113v-111h-113v111z" />
    <glyph glyph-name="uni0394" unicode="&#x394;" horiz-adv-x="629" 
d="M620 0h-611l228 680h156zM455 112l-140 443l-140 -443h280z" />
    <glyph glyph-name="uni03A9" unicode="&#x3a9;" horiz-adv-x="678" 
d="M53 112h105q-45 44 -73 113t-28 153q0 112 25.5 179.5t87 100t169.5 32.5t169.5 -32.5t87 -100t25.5 -179.5q0 -84 -28 -153t-73 -113h105v-112h-230v104q101 101 101 274q0 73 -13.5 115t-47 62t-96.5 20t-96.5 -20t-47 -62t-13.5 -115q0 -173 101 -274v-104h-230v112z
" />
    <glyph glyph-name="uni03BC" unicode="&#x3bc;" horiz-adv-x="607" 
d="M536 530v-530h-100l-12 41q-24 -23 -58 -37t-76 -14q-33 0 -61 9t-38 24v-223h-120v730h120v-359q0 -32 27.5 -53t75.5 -21q62 0 122 32v401h120z" />
    <glyph glyph-name="pi" unicode="&#x3c0;" horiz-adv-x="664" 
d="M627 107v-105q-45 -12 -100 -12q-80 0 -114 31.5t-34 108.5v297h-148v-427h-120v427h-99v103h595v-103h-108v-277q0 -32 14.5 -42t44.5 -10q36 0 69 9z" />
    <glyph glyph-name="zero" unicode="0" horiz-adv-x="600" 
d="M146 22q-55 32 -80.5 107.5t-25.5 210.5t25.5 210.5t80.5 107.5t151 32t151 -32t80.5 -107.5t25.5 -210.5t-25.5 -210.5t-80.5 -107.5t-151 -32t-151 32zM378.5 122.5q28.5 20.5 41 71t12.5 146.5t-12.5 146.5t-41 71t-81.5 20.5t-81.5 -20.5t-41 -71t-12.5 -146.5
t12.5 -146.5t41 -71t81.5 -20.5t81.5 20.5z" />
    <glyph glyph-name="one" unicode="1" horiz-adv-x="600" 
d="M533 111v-111h-427v111h163v446l-168 -27v108l288 52v-579h144z" />
    <glyph glyph-name="two" unicode="2" horiz-adv-x="600" 
d="M67 101l280 264q35 34 48 56.5t13 63.5q0 38 -14 57t-44.5 26.5t-87.5 7.5q-48 0 -98 -8t-86 -20v114q86 28 215 28q126 0 181.5 -44.5t55.5 -142.5q0 -52 -10.5 -86t-27.5 -56t-48 -53l-202 -196h301l-24 -112h-452v101z" />
    <glyph glyph-name="three" unicode="3" horiz-adv-x="600" 
d="M545 205q0 -117 -64.5 -166t-206.5 -49q-113 0 -208 25v114q122 -28 210 -28q79 0 113 24t34 83q0 55 -28 78t-96 23q-55 0 -103 -5l-28 87l198 180h-292v109h413l39 -103l-201 -182q24 2 33 2q187 0 187 -192z" />
    <glyph glyph-name="four" unicode="4" horiz-adv-x="600" 
d="M543 393v-393h-120v137h-373v98l276 445h135l-270 -439h232v152h120z" />
    <glyph glyph-name="five" unicode="5" horiz-adv-x="600" 
d="M484 371q56 -49 56 -163q0 -116 -62.5 -167t-195.5 -51q-106 0 -208 26v114q112 -29 209 -29q72 0 103.5 23.5t31.5 83.5q0 62 -31 85t-105 23q-91 0 -194 -9v373h415v-109h-295v-155q54 4 109 4q111 0 167 -49z" />
    <glyph glyph-name="six" unicode="6" horiz-adv-x="600" 
d="M115 62.5q-58 72.5 -58 207.5q0 181 101 279t282 141l33 -104q-85 -23 -140.5 -46.5t-92 -58.5t-51.5 -86q68 32 150 32q103 0 158.5 -54.5t55.5 -159.5q0 -108 -61.5 -165.5t-189.5 -57.5q-129 0 -187 72.5zM402 126.5q29 29.5 29 86.5q0 58 -28 88t-89 30
q-79 0 -135 -27q-2 -10 -2 -40q0 -89 29 -128t100 -39q67 0 96 29.5z" />
    <glyph glyph-name="seven" unicode="7" horiz-adv-x="600" 
d="M532 680v-168q0 -36 -15.5 -66.5t-38 -53.5t-60.5 -55q-41 -35 -65 -60t-41 -58.5t-17 -75.5v-143h-120v143q0 64 22 112.5t52.5 80.5t77.5 71q44 35 64 58.5t20 52.5v53h-346v109h467z" />
    <glyph glyph-name="eight" unicode="8" horiz-adv-x="600" 
d="M103 37q-60 47 -60 148q0 74 32 115t93 56q-55 24 -79 59.5t-24 98.5q0 93 59.5 134.5t175.5 41.5q117 0 176 -41.5t59 -134.5q0 -63 -24 -99t-79 -59q61 -15 93 -56t32 -115q0 -101 -60 -148t-197 -47t-197 47zM386.5 426.5q28.5 21.5 28.5 74.5q0 47 -27 67t-88 20
t-88 -20t-27 -67q0 -53 28.5 -74.5t86.5 -23.5q58 2 86.5 23.5zM403 119.5q32 23.5 32 76.5q0 57 -32.5 80.5t-102.5 23.5t-102.5 -23.5t-32.5 -80.5q0 -53 32.5 -76.5t102.5 -23.5q71 0 103 23.5z" />
    <glyph glyph-name="nine" unicode="9" horiz-adv-x="600" 
d="M487 617.5q58 -72.5 58 -207.5q0 -181 -101 -279t-282 -141l-33 104q85 23 140.5 46.5t92 58.5t51.5 86q-68 -32 -150 -32q-103 0 -158.5 54.5t-55.5 159.5q0 108 61.5 165.5t189.5 57.5q129 0 187 -72.5zM200 553.5q-29 -29.5 -29 -86.5q0 -58 28 -88t89 -30
q79 0 135 27q2 10 2 40q0 89 -29 128t-100 39q-67 0 -96 -29.5z" />
    <glyph glyph-name="uni2080" unicode="&#x2080;" 
d="M56.5 -87.5q-36.5 46.5 -36.5 157.5t36 157.5t121 46.5q84 0 119.5 -46.5t35.5 -157.5t-35.5 -157.5t-119.5 -46.5t-120.5 46.5zM221.5 -43.5q15.5 10.5 21.5 37t6 77.5q0 50 -6 76t-21.5 36.5t-44.5 10.5t-45 -10.5t-22.5 -36.5t-6.5 -76t7 -76.5t22.5 -37.5t44.5 -11
t44.5 10.5z" />
    <glyph glyph-name="uni2081" unicode="&#x2081;" 
d="M302 -50v-74h-244v74h84v228l-83 -14v79l166 31v-324h77z" />
    <glyph glyph-name="uni2082" unicode="&#x2082;" 
d="M38 -67l149 141q26 25 36 39.5t10 37.5q0 24 -17 34t-58 10q-30 0 -55.5 -5t-59.5 -14v79q31 8 60.5 13.5t68.5 5.5q74 0 108.5 -25.5t34.5 -85.5q0 -43 -14.5 -68.5t-52.5 -61.5l-80 -78h148l-15 -79h-263v57z" />
    <glyph glyph-name="uni2083" unicode="&#x2083;" 
d="M316 -9q0 -69 -37.5 -97t-119.5 -28q-63 0 -121 14v78q40 -8 65.5 -12t55.5 -4q39 0 56.5 11t17.5 38q0 28 -14.5 39t-47.5 11q-29 0 -60 -4l-24 63l108 86h-150v78h244l22 -63l-121 -100h10q116 0 116 -110z" />
    <glyph glyph-name="uni2084" unicode="&#x2084;" 
d="M312 86v-210h-83v71h-194v65l144 252h89l-137 -245h98v67h83z" />
    <glyph glyph-name="uni2085" unicode="&#x2085;" 
d="M284.5 91q32.5 -29 32.5 -96t-36.5 -98t-114.5 -31q-58 0 -123 15v76q36 -8 63.5 -12t58.5 -4q36 0 53 12.5t17 44.5q0 31 -16 43t-54 12q-52 0 -118 -6v217h248v-78h-169v-70q32 4 63 4q63 0 95.5 -29z" />
    <glyph glyph-name="uni2086" unicode="&#x2086;" 
d="M65 -90.5q-32 43.5 -32 117.5q0 189 222 247l22 -72q-67 -21 -102 -40.5t-51 -55.5q4 1 21 7.5t51 6.5q63 0 94 -33t31 -92q0 -64 -37 -96.5t-108 -32.5q-79 0 -111 43.5zM227 -49q14 15 14 44t-13 45t-46 16q-36 0 -69 -13q-1 -6 -1 -21q0 -45 15 -65.5t51 -20.5
q35 0 49 15z" />
    <glyph glyph-name="uni2087" unicode="&#x2087;" 
d="M312 264v-96q0 -27 -16 -48.5t-48 -49.5q-35 -30 -53 -54.5t-18 -58.5v-81h-80v81q0 53 22.5 85.5t63.5 66.5q24 20 35 33.5t11 28.5v18h-188v75h271z" />
    <glyph glyph-name="uni2088" unicode="&#x2088;" 
d="M27 -18q0 43 18 65.5t49 34.5q-52 24 -52 87q0 54 32.5 79t101.5 25t101.5 -25t32.5 -79q0 -63 -52 -87q31 -12 49 -34.5t18 -65.5q0 -116 -149 -116t-149 116zM234 163q0 23 -13.5 34t-44.5 11t-44.5 -11t-13.5 -34q0 -47 58 -47t58 47zM243 -10q0 56 -67 56t-67 -56
q0 -55 67 -55t67 55z" />
    <glyph glyph-name="uni2089" unicode="&#x2089;" 
d="M290 230.5q32 -43.5 32 -117.5q0 -189 -222 -247l-22 72q67 21 102 40.5t51 55.5q-4 -1 -21 -7.5t-51 -6.5q-63 0 -94 33t-31 92q0 64 37 96.5t108 32.5q79 0 111 -43.5zM128 189q-14 -15 -14 -44t13 -45t46 -16q37 0 69 13q1 6 1 21q0 45 -15 65.5t-51 20.5
q-35 0 -49 -15z" />
    <glyph glyph-name="zero.dnom" 
d="M56.5 36.5q-36.5 46.5 -36.5 157.5t36 157.5t121 46.5q84 0 119.5 -46.5t35.5 -157.5t-35.5 -157.5t-119.5 -46.5t-120.5 46.5zM221.5 80.5q15.5 10.5 21.5 37t6 77.5q0 50 -6 76t-21.5 36.5t-44.5 10.5t-45 -10.5t-22.5 -36.5t-6.5 -76t7 -76.5t22.5 -37.5t44.5 -11
t44.5 10.5z" />
    <glyph glyph-name="one.dnom" 
d="M302 74v-74h-244v74h84v228l-83 -14v79l166 31v-324h77z" />
    <glyph glyph-name="two.dnom" 
d="M38 57l149 141q26 25 36 39.5t10 37.5q0 24 -17 34t-58 10q-30 0 -55.5 -5t-59.5 -14v79q31 8 60.5 13.5t68.5 5.5q74 0 108.5 -25.5t34.5 -85.5q0 -43 -14.5 -68.5t-52.5 -61.5l-80 -78h148l-15 -79h-263v57z" />
    <glyph glyph-name="three.dnom" 
d="M316 115q0 -69 -37.5 -97t-119.5 -28q-63 0 -121 14v78q40 -8 65.5 -12t55.5 -4q39 0 56.5 11t17.5 38q0 28 -14.5 39t-47.5 11q-29 0 -60 -4l-24 63l108 86h-150v78h244l22 -63l-121 -100h10q116 0 116 -110z" />
    <glyph glyph-name="four.dnom" 
d="M312 210v-210h-83v71h-194v65l144 252h89l-137 -245h98v67h83z" />
    <glyph glyph-name="five.dnom" 
d="M284.5 215q32.5 -29 32.5 -96t-36.5 -98t-114.5 -31q-58 0 -123 15v76q36 -8 63.5 -12t58.5 -4q36 0 53 12.5t17 44.5q0 31 -16 43t-54 12q-52 0 -118 -6v217h248v-78h-169v-70q32 4 63 4q63 0 95.5 -29z" />
    <glyph glyph-name="six.dnom" 
d="M65 33.5q-32 43.5 -32 117.5q0 189 222 247l22 -72q-67 -21 -102 -40.5t-51 -55.5q4 1 21 7.5t51 6.5q63 0 94 -33t31 -92q0 -64 -37 -96.5t-108 -32.5q-79 0 -111 43.5zM227 75q14 15 14 44t-13 45t-46 16q-36 0 -69 -13q-1 -6 -1 -21q0 -45 15 -65.5t51 -20.5
q35 0 49 15z" />
    <glyph glyph-name="seven.dnom" 
d="M312 388v-96q0 -27 -16 -48.5t-48 -49.5q-35 -30 -53 -54.5t-18 -58.5v-81h-80v81q0 53 22.5 85.5t63.5 66.5q24 20 35 33.5t11 28.5v18h-188v75h271z" />
    <glyph glyph-name="eight.dnom" 
d="M27 106q0 43 18 65.5t49 34.5q-52 24 -52 87q0 54 32.5 79t101.5 25t101.5 -25t32.5 -79q0 -63 -52 -87q31 -12 49 -34.5t18 -65.5q0 -116 -149 -116t-149 116zM234 287q0 23 -13.5 34t-44.5 11t-44.5 -11t-13.5 -34q0 -47 58 -47t58 47zM243 114q0 56 -67 56t-67 -56
q0 -55 67 -55t67 55z" />
    <glyph glyph-name="nine.dnom" 
d="M290 354.5q32 -43.5 32 -117.5q0 -189 -222 -247l-22 72q67 21 102 40.5t51 55.5q-4 -1 -21 -7.5t-51 -6.5q-63 0 -94 33t-31 92q0 64 37 96.5t108 32.5q79 0 111 -43.5zM128 313q-14 -15 -14 -44t13 -45t46 -16q37 0 69 13q1 6 1 21q0 45 -15 65.5t-51 20.5
q-35 0 -49 -15z" />
    <glyph glyph-name="zero.numr" 
d="M56.5 329.5q-36.5 46.5 -36.5 157.5t36 157.5t121 46.5q84 0 119.5 -46.5t35.5 -157.5t-35.5 -157.5t-119.5 -46.5t-120.5 46.5zM221.5 373.5q15.5 10.5 21.5 37t6 77.5q0 50 -6 76t-21.5 36.5t-44.5 10.5t-45 -10.5t-22.5 -36.5t-6.5 -76t7 -76.5t22.5 -37.5t44.5 -11
t44.5 10.5z" />
    <glyph glyph-name="one.numr" 
d="M302 367v-74h-244v74h84v228l-83 -14v79l166 31v-324h77z" />
    <glyph glyph-name="two.numr" 
d="M38 350l149 141q26 25 36 39.5t10 37.5q0 24 -17 34t-58 10q-30 0 -55.5 -5t-59.5 -14v79q31 8 60.5 13.5t68.5 5.5q74 0 108.5 -25.5t34.5 -85.5q0 -43 -14.5 -68.5t-52.5 -61.5l-80 -78h148l-15 -79h-263v57z" />
    <glyph glyph-name="three.numr" 
d="M316 407q0 -69 -37.5 -97t-119.5 -28q-63 0 -121 14v78q40 -8 65.5 -12t55.5 -4q39 0 56.5 11t17.5 38q0 28 -14.5 39t-47.5 11q-29 0 -60 -4l-24 63l108 86h-150v78h244l22 -63l-121 -100h10q116 0 116 -110z" />
    <glyph glyph-name="four.numr" 
d="M312 503v-210h-83v71h-194v65l144 252h89l-137 -245h98v67h83z" />
    <glyph glyph-name="five.numr" 
d="M284.5 507q32.5 -29 32.5 -96t-36.5 -98t-114.5 -31q-58 0 -123 15v76q36 -8 63.5 -12t58.5 -4q36 0 53 12.5t17 44.5q0 31 -16 43t-54 12q-52 0 -118 -6v217h248v-78h-169v-70q32 4 63 4q63 0 95.5 -29z" />
    <glyph glyph-name="six.numr" 
d="M65 326.5q-32 43.5 -32 117.5q0 189 222 247l22 -72q-67 -21 -102 -40.5t-51 -55.5q4 1 21 7.5t51 6.5q63 0 94 -33t31 -92q0 -64 -37 -96.5t-108 -32.5q-79 0 -111 43.5zM227 368q14 15 14 44t-13 45t-46 16q-37 0 -69 -13q-1 -6 -1 -21q0 -45 15 -65.5t51 -20.5
q35 0 49 15z" />
    <glyph glyph-name="seven.numr" 
d="M312 681v-96q0 -27 -16 -48.5t-48 -49.5q-35 -30 -53 -54.5t-18 -58.5v-81h-80v81q0 53 22.5 85.5t63.5 66.5q24 20 35 33.5t11 28.5v18h-188v75h271z" />
    <glyph glyph-name="eight.numr" 
d="M27 399q0 43 18 65.5t49 34.5q-52 24 -52 87q0 54 32.5 79t101.5 25t101.5 -25t32.5 -79q0 -63 -52 -87q31 -12 49 -34.5t18 -65.5q0 -116 -149 -116t-149 116zM234 580q0 23 -13.5 34t-44.5 11t-44.5 -11t-13.5 -34q0 -47 58 -47t58 47zM243 407q0 56 -67 56t-67 -56
q0 -55 67 -55t67 55z" />
    <glyph glyph-name="nine.numr" 
d="M290 647.5q32 -43.5 32 -117.5q0 -189 -222 -247l-22 72q67 21 102 40.5t51 55.5q-4 -1 -21 -7.5t-51 -6.5q-63 0 -94 33t-31 92q0 64 37 96.5t108 32.5q79 0 111 -43.5zM128 606q-14 -15 -14 -44t13 -45t46 -16q37 0 69 13q1 6 1 21q0 45 -15 65.5t-51 20.5
q-35 0 -49 -15z" />
    <glyph glyph-name="uni2070" unicode="&#x2070;" 
d="M56.5 328.5q-36.5 46.5 -36.5 157.5t36 157.5t121 46.5q84 0 119.5 -46.5t35.5 -157.5t-35.5 -157.5t-119.5 -46.5t-120.5 46.5zM221.5 372.5q15.5 10.5 21.5 37t6 77.5q0 50 -6 76t-21.5 36.5t-44.5 10.5t-45 -10.5t-22.5 -36.5t-6.5 -76t7 -76.5t22.5 -37.5t44.5 -11
t44.5 10.5z" />
    <glyph glyph-name="uni00B9" unicode="&#xb9;" 
d="M302 367v-74h-244v74h84v228l-83 -14v79l166 31v-324h77z" />
    <glyph glyph-name="uni00B2" unicode="&#xb2;" 
d="M38 350l149 141q26 25 36 39.5t10 37.5q0 24 -17 34t-58 10q-30 0 -55.5 -5t-59.5 -14v79q31 8 60.5 13.5t68.5 5.5q74 0 108.5 -25.5t34.5 -85.5q0 -43 -14.5 -68.5t-52.5 -61.5l-80 -78h148l-15 -79h-263v57z" />
    <glyph glyph-name="uni00B3" unicode="&#xb3;" 
d="M316 407q0 -69 -37.5 -97t-119.5 -28q-63 0 -121 14v78q40 -8 65.5 -12t55.5 -4q39 0 56.5 11t17.5 38q0 28 -14.5 39t-47.5 11q-29 0 -60 -4l-24 63l108 86h-150v78h244l22 -63l-121 -100h10q116 0 116 -110z" />
    <glyph glyph-name="uni2074" unicode="&#x2074;" 
d="M312 503v-210h-83v71h-194v65l144 252h89l-137 -245h98v67h83z" />
    <glyph glyph-name="uni2075" unicode="&#x2075;" 
d="M284.5 507q32.5 -29 32.5 -96t-36.5 -98t-114.5 -31q-58 0 -123 15v76q36 -8 63.5 -12t58.5 -4q36 0 53 12.5t17 44.5q0 31 -16 43t-54 12q-52 0 -118 -6v217h248v-78h-169v-70q32 4 63 4q63 0 95.5 -29z" />
    <glyph glyph-name="uni2076" unicode="&#x2076;" 
d="M65 326.5q-32 43.5 -32 117.5q0 189 222 247l22 -72q-67 -21 -102 -40.5t-51 -55.5q4 1 21 7.5t51 6.5q63 0 94 -33t31 -92q0 -64 -37 -96.5t-108 -32.5q-79 0 -111 43.5zM227 368q14 15 14 44t-13 45t-46 16q-37 0 -69 -13q-1 -6 -1 -21q0 -45 15 -65.5t51 -20.5
q35 0 49 15z" />
    <glyph glyph-name="uni2077" unicode="&#x2077;" 
d="M312 680v-96q0 -27 -16 -48.5t-48 -49.5q-35 -30 -53 -54.5t-18 -58.5v-81h-80v81q0 53 22.5 85.5t63.5 66.5q24 20 35 33.5t11 28.5v18h-188v75h271z" />
    <glyph glyph-name="uni2078" unicode="&#x2078;" 
d="M27 399q0 43 18 65.5t49 34.5q-52 24 -52 87q0 54 32.5 79t101.5 25t101.5 -25t32.5 -79q0 -63 -52 -87q31 -12 49 -34.5t18 -65.5q0 -116 -149 -116t-149 116zM234 580q0 23 -13.5 34t-44.5 11t-44.5 -11t-13.5 -34q0 -47 58 -47t58 47zM243 407q0 56 -67 56t-67 -56
q0 -55 67 -55t67 55z" />
    <glyph glyph-name="uni2079" unicode="&#x2079;" 
d="M290 647.5q32 -43.5 32 -117.5q0 -189 -222 -247l-22 72q67 21 102 40.5t51 55.5q-4 -1 -21 -7.5t-51 -6.5q-63 0 -94 33t-31 92q0 64 37 96.5t108 32.5q79 0 111 -43.5zM128 606q-14 -15 -14 -44t13 -45t46 -16q37 0 69 13q1 6 1 21q0 45 -15 65.5t-51 20.5
q-35 0 -49 -15z" />
    <glyph glyph-name="fraction" unicode="&#x2044;" horiz-adv-x="141" 
d="M260 680h88l-474 -680h-94z" />
    <glyph glyph-name="onehalf" unicode="&#xbd;" horiz-adv-x="932" 
d="M322 367v-74h-244v74h84v228l-83 -14v79l166 31v-324h77zM658 680h88l-474 -680h-94zM586 57l149 141q26 25 36 39.5t10 37.5q0 24 -17 34t-58 10q-30 0 -55.5 -5t-59.5 -14v79q31 8 60.5 13.5t68.5 5.5q74 0 108.5 -25.5t34.5 -85.5q0 -43 -14.5 -68.5t-52.5 -61.5
l-80 -78h148l-15 -79h-263v57z" />
    <glyph glyph-name="uni2153" unicode="&#x2153;" horiz-adv-x="932" 
d="M312 367v-74h-244v74h84v228l-83 -14v79l166 31v-324h77zM637 680h88l-474 -680h-94zM851 115q0 -69 -37.5 -97t-119.5 -28q-63 0 -121 14v78q40 -8 65.5 -12t55.5 -4q39 0 56.5 11t17.5 38q0 28 -14.5 39t-47.5 11q-29 0 -60 -4l-24 63l108 86h-150v78h244l22 -63
l-121 -100h10q116 0 116 -110z" />
    <glyph glyph-name="uni2154" unicode="&#x2154;" horiz-adv-x="932" 
d="M56 350l149 141q26 25 36 39.5t10 37.5q0 24 -17 34t-58 10q-30 0 -55.5 -5t-59.5 -14v79q31 8 60.5 13.5t68.5 5.5q74 0 108.5 -25.5t34.5 -85.5q0 -43 -14.5 -68.5t-52.5 -61.5l-80 -78h148l-15 -79h-263v57zM657 680h88l-474 -680h-94zM868 115q0 -69 -37.5 -97
t-119.5 -28q-63 0 -121 14v78q40 -8 65.5 -12t55.5 -4q39 0 56.5 11t17.5 38q0 28 -14.5 39t-47.5 11q-29 0 -60 -4l-24 63l108 86h-150v78h244l22 -63l-121 -100h10q116 0 116 -110z" />
    <glyph glyph-name="onequarter" unicode="&#xbc;" horiz-adv-x="932" 
d="M350 367v-74h-244v74h84v228l-83 -14v79l166 31v-324h77zM682 680h88l-474 -680h-94zM810 210v-210h-83v71h-194v65l144 252h89l-137 -245h98v67h83z" />
    <glyph glyph-name="threequarters" unicode="&#xbe;" horiz-adv-x="932" 
d="M371 407q0 -69 -37.5 -97t-119.5 -28q-63 0 -121 14v78q40 -8 65.5 -12t55.5 -4q39 0 56.5 11t17.5 38q0 28 -14.5 39t-47.5 11q-29 0 -60 -4l-24 63l108 86h-150v78h244l22 -63l-121 -100h10q116 0 116 -110zM681 680h88l-474 -680h-94zM809 210v-210h-83v71h-194v65
l144 252h89l-137 -245h98v67h83z" />
    <glyph glyph-name="uni2155" unicode="&#x2155;" horiz-adv-x="932" 
d="M308 367v-74h-244v74h84v228l-83 -14v79l166 31v-324h77zM633 680h88l-474 -680h-94zM821.5 215q32.5 -29 32.5 -96t-36.5 -98t-114.5 -31q-58 0 -123 15v76q36 -8 63.5 -12t58.5 -4q36 0 53 12.5t17 44.5q0 31 -16 43t-54 12q-52 0 -118 -6v217h248v-78h-169v-70
q32 4 63 4q63 0 95.5 -29z" />
    <glyph glyph-name="uni2156" unicode="&#x2156;" horiz-adv-x="932" 
d="M63 350l149 141q26 25 36 39.5t10 37.5q0 24 -17 34t-58 10q-30 0 -55.5 -5t-59.5 -14v79q31 8 60.5 13.5t68.5 5.5q74 0 108.5 -25.5t34.5 -85.5q0 -43 -14.5 -68.5t-52.5 -61.5l-80 -78h148l-15 -79h-263v57zM665 680h88l-474 -680h-94zM847.5 215q32.5 -29 32.5 -96
t-36.5 -98t-114.5 -31q-58 0 -123 15v76q36 -8 63.5 -12t58.5 -4q36 0 53 12.5t17 44.5q0 31 -16 43t-54 12q-52 0 -118 -6v217h248v-78h-169v-70q32 4 63 4q63 0 95.5 -29z" />
    <glyph glyph-name="uni2157" unicode="&#x2157;" horiz-adv-x="932" 
d="M356 407q0 -69 -37.5 -97t-119.5 -28q-63 0 -121 14v78q40 -8 65.5 -12t55.5 -4q39 0 56.5 11t17.5 38q0 28 -14.5 39t-47.5 11q-29 0 -60 -4l-24 63l108 86h-150v78h244l22 -63l-121 -100h10q116 0 116 -110zM649 680h88l-474 -680h-94zM830.5 215q32.5 -29 32.5 -96
t-36.5 -98t-114.5 -31q-58 0 -123 15v76q36 -8 63.5 -12t58.5 -4q36 0 53 12.5t17 44.5q0 31 -16 43t-54 12q-52 0 -118 -6v217h248v-78h-169v-70q32 4 63 4q63 0 95.5 -29z" />
    <glyph glyph-name="uni2158" unicode="&#x2158;" horiz-adv-x="932" 
d="M334 503v-210h-83v71h-194v65l144 252h89l-137 -245h98v67h83zM655 680h88l-474 -680h-94zM835.5 215q32.5 -29 32.5 -96t-36.5 -98t-114.5 -31q-58 0 -123 15v76q36 -8 63.5 -12t58.5 -4q36 0 53 12.5t17 44.5q0 31 -16 43t-54 12q-52 0 -118 -6v217h248v-78h-169v-70
q32 4 63 4q63 0 95.5 -29z" />
    <glyph glyph-name="uni2159" unicode="&#x2159;" horiz-adv-x="932" 
d="M340 367v-74h-244v74h84v228l-83 -14v79l166 31v-324h77zM662 680h88l-474 -680h-94zM553 33.5q-32 43.5 -32 117.5q0 189 222 247l22 -72q-67 -21 -102 -40.5t-51 -55.5q4 1 21 7.5t51 6.5q63 0 94 -33t31 -92q0 -64 -37 -96.5t-108 -32.5q-79 0 -111 43.5zM715 75
q14 15 14 44t-13 45t-46 16q-36 0 -69 -13q-1 -6 -1 -21q0 -45 15 -65.5t51 -20.5q35 0 49 15z" />
    <glyph glyph-name="uni215A" unicode="&#x215a;" horiz-adv-x="932" 
d="M328.5 507q32.5 -29 32.5 -96t-36.5 -98t-114.5 -31q-58 0 -123 15v76q36 -8 63.5 -12t58.5 -4q36 0 53 12.5t17 44.5q0 31 -16 43t-54 12q-52 0 -118 -6v217h248v-78h-169v-70q32 4 63 4q63 0 95.5 -29zM678 680h88l-474 -680h-94zM580 33.5q-32 43.5 -32 117.5
q0 189 222 247l22 -72q-67 -21 -102 -40.5t-51 -55.5q4 1 21 7.5t51 6.5q63 0 94 -33t31 -92q0 -64 -37 -96.5t-108 -32.5q-79 0 -111 43.5zM742 75q14 15 14 44t-13 45t-46 16q-36 0 -69 -13q-1 -6 -1 -21q0 -45 15 -65.5t51 -20.5q35 0 49 15z" />
    <glyph glyph-name="oneeighth" unicode="&#x215b;" horiz-adv-x="932" 
d="M329 367v-74h-244v74h84v228l-83 -14v79l166 31v-324h77zM662 680h88l-474 -680h-94zM552 106q0 43 18 65.5t49 34.5q-52 24 -52 87q0 54 32.5 79t101.5 25t101.5 -25t32.5 -79q0 -63 -52 -87q31 -12 49 -34.5t18 -65.5q0 -116 -149 -116t-149 116zM759 287
q0 23 -13.5 34t-44.5 11t-44.5 -11t-13.5 -34q0 -47 58 -47t58 47zM768 114q0 56 -67 56t-67 -56q0 -55 67 -55t67 55z" />
    <glyph glyph-name="threeeighths" unicode="&#x215c;" horiz-adv-x="932" 
d="M359 407q0 -69 -37.5 -97t-119.5 -28q-63 0 -121 14v78q40 -8 65.5 -12t55.5 -4q39 0 56.5 11t17.5 38q0 28 -14.5 39t-47.5 11q-29 0 -60 -4l-24 63l108 86h-150v78h244l22 -63l-121 -100h10q116 0 116 -110zM654 680h88l-474 -680h-94zM551 106q0 43 18 65.5t49 34.5
q-52 24 -52 87q0 54 32.5 79t101.5 25t101.5 -25t32.5 -79q0 -63 -52 -87q31 -12 49 -34.5t18 -65.5q0 -116 -149 -116t-149 116zM758 287q0 23 -13.5 34t-44.5 11t-44.5 -11t-13.5 -34q0 -47 58 -47t58 47zM767 114q0 56 -67 56t-67 -56q0 -55 67 -55t67 55z" />
    <glyph glyph-name="fiveeighths" unicode="&#x215d;" horiz-adv-x="932" 
d="M316.5 507q32.5 -29 32.5 -96t-36.5 -98t-114.5 -31q-58 0 -123 15v76q36 -8 63.5 -12t58.5 -4q36 0 53 12.5t17 44.5q0 31 -16 43t-54 12q-52 0 -118 -6v217h248v-78h-169v-70q32 4 63 4q63 0 95.5 -29zM657 681h88l-474 -680h-94zM553 106q0 43 18 65.5t49 34.5
q-52 24 -52 87q0 54 32.5 79t101.5 25t101.5 -25t32.5 -79q0 -63 -52 -87q31 -12 49 -34.5t18 -65.5q0 -116 -149 -116t-149 116zM760 287q0 23 -13.5 34t-44.5 11t-44.5 -11t-13.5 -34q0 -47 58 -47t58 47zM769 114q0 56 -67 56t-67 -56q0 -55 67 -55t67 55z" />
    <glyph glyph-name="seveneighths" unicode="&#x215e;" horiz-adv-x="932" 
d="M377 681v-96q0 -27 -16 -48.5t-48 -49.5q-35 -30 -53 -54.5t-18 -58.5v-81h-80v81q0 53 22.5 85.5t63.5 66.5q24 20 35 33.5t11 28.5v18h-188v75h271zM616 680h88l-474 -680h-94zM525 106q0 43 18 65.5t49 34.5q-52 24 -52 87q0 54 32.5 79t101.5 25t101.5 -25t32.5 -79
q0 -63 -52 -87q31 -12 49 -34.5t18 -65.5q0 -116 -149 -116t-149 116zM732 287q0 23 -13.5 34t-44.5 11t-44.5 -11t-13.5 -34q0 -47 58 -47t58 47zM741 114q0 56 -67 56t-67 -56q0 -55 67 -55t67 55z" />
    <glyph glyph-name="asterisk" unicode="*" horiz-adv-x="484" 
d="M91 415l93 102l-134 25l31 97l125 -56l-16 137h105l-17 -138l124 58l32 -98l-134 -25l93 -101l-85 -61l-66 119l-66 -120z" />
    <glyph glyph-name="backslash" unicode="\" horiz-adv-x="504" 
d="M134 720h-125l362 -844h124z" />
    <glyph glyph-name="periodcentered" unicode="&#xb7;" horiz-adv-x="229" 
d="M50 369h129v-131h-129v131z" />
    <glyph glyph-name="bullet" unicode="&#x2022;" horiz-adv-x="318" 
d="M90.5 218q-22.5 8 -31.5 31t-9 70t9 69.5t31.5 30.5t68.5 8t68.5 -8t31.5 -30.5t9 -69.5t-9 -70t-31.5 -31t-68.5 -8t-68.5 8z" />
    <glyph glyph-name="colon" unicode=":" horiz-adv-x="300" 
d="M86 131h129v-131h-129v131zM86 530h129v-131h-129v131z" />
    <glyph glyph-name="comma" unicode="," horiz-adv-x="300" 
d="M115 131h126l-72 -309h-107z" />
    <glyph glyph-name="ellipsis" unicode="&#x2026;" horiz-adv-x="625" 
d="M50 131h129v-131h-129v131zM248 131h129v-131h-129v131zM446 131h129v-131h-129v131z" />
    <glyph glyph-name="exclam" unicode="!" horiz-adv-x="293" 
d="M83 680h127l-15 -479h-97zM82 131h129v-131h-129v131z" />
    <glyph glyph-name="exclamdown" unicode="&#xa1;" horiz-adv-x="293" 
d="M83 -110h127l-15 479h-97zM82 439h129v131h-129v-131z" />
    <glyph glyph-name="numbersign" unicode="#" horiz-adv-x="716" 
d="M129 123h-109v96h130l38 161h-140v95h163l26 115h105l-27 -115h153l28 115h104l-26 -115h121v-95h-143l-37 -161h159v-96h-183l-29 -123h-102l28 123h-155l-28 -123h-103zM407 219l38 161h-151l-37 -161h150z" />
    <glyph glyph-name="period" unicode="." horiz-adv-x="300" 
d="M83 131h129v-131h-129v131z" />
    <glyph glyph-name="question" unicode="?" horiz-adv-x="549" 
d="M169 260q0 53 19 80.5t64 51.5l58 31q38 21 52.5 37.5t14.5 48.5q0 29 -11.5 44t-38 21t-75.5 6q-119 0 -203 -30v114q85 26 202 26q92 0 146 -17t78 -54.5t24 -100.5q0 -45 -12.5 -74t-32 -46t-50.5 -34l-57 -32q-35 -20 -46 -35t-11 -49v-47h-121v59zM165 131h129v-131
h-129v131z" />
    <glyph glyph-name="questiondown" unicode="&#xbf;" horiz-adv-x="486" 
d="M363 220q0 -53 -19 -80.5t-64 -51.5l-58 -31q-38 -21 -52.5 -37.5t-14.5 -48.5q0 -29 11.5 -44t38 -21t75.5 -6q119 0 203 30v-114q-85 -26 -202 -26q-92 0 -146 17t-78 54.5t-24 100.5q0 45 12.5 74t32 46t50.5 34l57 32q35 20 46 35t11 49v47h121v-59zM367 349h-129
v131h129v-131z" />
    <glyph glyph-name="quotedbl" unicode="&#x22;" horiz-adv-x="417" 
d="M238 720h132l-19 -236h-94zM47 720h132l-19 -236h-94z" />
    <glyph glyph-name="quotesingle" unicode="'" horiz-adv-x="226" 
d="M47 720h132l-19 -236h-94z" />
    <glyph glyph-name="semicolon" unicode=";" horiz-adv-x="300" 
d="M96 128h126l-72 -309h-107zM93 530h129v-131h-129v131z" />
    <glyph glyph-name="slash" unicode="/" horiz-adv-x="504" 
d="M370 720h125l-362 -844h-124z" />
    <glyph glyph-name="underscore" unicode="_" horiz-adv-x="428" 
d="M-1 104h430v-104h-430v104z" />
    <glyph glyph-name="periodcentered.upper" horiz-adv-x="229" 
d="M50 411h129v-132h-129v132z" />
    <glyph glyph-name="braceleft" unicode="{" horiz-adv-x="436" 
d="M176 -90q-38 34 -38 111v143q0 42 -14 62t-47 20h-28v108h28q33 0 47 20t14 62v139q0 77 37.5 111t115.5 34h98v-105h-69q-28 0 -42 -5.5t-19.5 -21t-5.5 -47.5v-109q0 -51 -16 -81.5t-55 -50.5q39 -20 55 -50.5t16 -81.5v-113q0 -32 5.5 -47.5t19.5 -21t42 -5.5h69v-105
h-97q-78 0 -116 34z" />
    <glyph glyph-name="braceright" unicode="}" horiz-adv-x="436" 
d="M260 -90q38 34 38 111v143q0 42 14 62t47 20h28v108h-28q-33 0 -47 20t-14 62v139q0 77 -37.5 111t-115.5 34h-98v-105h69q28 0 42 -5.5t19.5 -21t5.5 -47.5v-109q0 -51 16 -81.5t55 -50.5q-39 -20 -55 -50.5t-16 -81.5v-113q0 -32 -5.5 -47.5t-19.5 -21t-42 -5.5h-69
v-105h97q78 0 116 34z" />
    <glyph glyph-name="bracketleft" unicode="[" horiz-adv-x="412" 
d="M80 720h282v-117h-161v-611h161v-116h-282v844z" />
    <glyph glyph-name="bracketright" unicode="]" horiz-adv-x="412" 
d="M332 720h-282v-117h161v-611h-161v-116h282v844z" />
    <glyph glyph-name="parenleft" unicode="(" horiz-adv-x="332" 
d="M80 72.5q-31 101.5 -31 226.5q0 124 31 225t80 196h123q-50 -96 -83 -200t-33 -221q0 -204 116 -423h-123q-49 95 -80 196.5z" />
    <glyph glyph-name="parenright" unicode=")" horiz-adv-x="332" 
d="M252 72.5q31 101.5 31 226.5q0 124 -31 225t-80 196h-123q50 -96 83 -200t33 -221q0 -204 -116 -423h123q49 95 80 196.5z" />
    <glyph glyph-name="emdash" unicode="&#x2014;" horiz-adv-x="770" 
d="M71 357h628v-109h-628v109z" />
    <glyph glyph-name="endash" unicode="&#x2013;" horiz-adv-x="595" 
d="M71 357h453v-109h-453v109z" />
    <glyph glyph-name="hyphen" unicode="-" horiz-adv-x="497" 
d="M71 358h356v-110h-356v110z" />
    <glyph glyph-name="uni00AD" unicode="&#xad;" horiz-adv-x="497" 
d="M71 358h356v-110h-356v110z" />
    <glyph glyph-name="emdash.upper" horiz-adv-x="770" 
d="M71 407h628v-109h-628v109z" />
    <glyph glyph-name="endash.upper" horiz-adv-x="595" 
d="M71 407h453v-109h-453v109z" />
    <glyph glyph-name="hyphen.upper" horiz-adv-x="497" 
d="M71 408h356v-110h-356v110z" />
    <glyph glyph-name="guillemotleft" unicode="&#xab;" horiz-adv-x="578" 
d="M276 308l137 235h118l-120 -235l109 -235h-120zM47 308l137 235h118l-120 -235l109 -235h-120z" />
    <glyph glyph-name="guillemotright" unicode="&#xbb;" horiz-adv-x="578" 
d="M302 308l-137 235h-118l120 -235l-109 -235h120zM531 308l-137 235h-118l120 -235l-109 -235h120z" />
    <glyph glyph-name="guilsinglleft" unicode="&#x2039;" horiz-adv-x="349" 
d="M47 308l137 235h118l-120 -235l109 -235h-120z" />
    <glyph glyph-name="guilsinglright" unicode="&#x203a;" horiz-adv-x="360" 
d="M313 308l-137 235h-118l120 -235l-109 -235h120z" />
    <glyph glyph-name="quotedblbase" unicode="&#x201e;" horiz-adv-x="432" 
d="M259 90h126l-57 -254h-94zM72 90h126l-57 -254h-94z" />
    <glyph glyph-name="quotedblleft" unicode="&#x201c;" horiz-adv-x="432" 
d="M173 466h-126l57 254h94zM360 466h-126l57 254h94z" />
    <glyph glyph-name="quotedblright" unicode="&#x201d;" horiz-adv-x="432" 
d="M259 720h126l-57 -254h-94zM72 720h126l-57 -254h-94z" />
    <glyph glyph-name="quoteleft" unicode="&#x2018;" horiz-adv-x="245" 
d="M179 466h-126l57 254h94z" />
    <glyph glyph-name="quoteright" unicode="&#x2019;" horiz-adv-x="245" 
d="M72 720h126l-57 -254h-94z" />
    <glyph glyph-name="quotesinglbase" unicode="&#x201a;" horiz-adv-x="245" 
d="M72 90h126l-57 -254h-94z" />
    <glyph glyph-name="uni00A0" unicode="&#xa0;" horiz-adv-x="200" 
 />
    <glyph glyph-name="cent" unicode="&#xa2;" horiz-adv-x="515" 
d="M234 442.5q-33 -13.5 -49 -49.5t-16 -104t16 -104t49 -49.5t92 -13.5q69 0 138 23v-110q-59 -16 -107 -19v-106h-118v108q-99 14 -145.5 76t-46.5 195t46.5 195t145.5 76v109h118v-107q48 -3 107 -19v-110q-69 23 -138 23q-59 0 -92 -13.5z" />
    <glyph glyph-name="currency" unicode="&#xa4;" horiz-adv-x="582" 
d="M481 229l87 -87l-68 -68l-78 78q-48 -31 -131 -31t-131 31l-78 -78l-68 68l87 87q-18 45 -18 117q0 69 17 117l-86 87l68 68l78 -78q46 31 131 31q84 0 131 -31l78 78l68 -68l-86 -87q17 -48 17 -117q0 -72 -18 -117zM369.5 244.5q24.5 27.5 24.5 101.5t-24.5 101
t-78.5 27t-78.5 -27t-24.5 -101t24.5 -101.5t78.5 -27.5t78.5 27.5z" />
    <glyph glyph-name="dollar" unicode="$" horiz-adv-x="553" 
d="M469.5 76q-39.5 -44 -129.5 -56v-110h-120v106q-94 2 -169 28v116q108 -34 204 -34q73 0 102.5 16.5t29.5 54.5q0 32 -16 48t-62 34l-133 51q-69 27 -101 62.5t-32 102.5q0 78 40 117.5t137 48.5v109h120v-107q89 -6 141 -23v-113q-34 12 -84 20.5t-105 8.5q-51 0 -78 -6
t-37.5 -19t-10.5 -36q0 -29 19.5 -44.5t72.5 -34.5l108 -39q56 -20 87 -43t43.5 -54.5t12.5 -78.5q0 -81 -39.5 -125z" />
    <glyph glyph-name="dong" unicode="&#x20ab;" horiz-adv-x="564" 
d="M527 661v-59h-75v-487h-76l-14 34q-23 -21 -56.5 -32t-73.5 -11q-185 0 -185 219q0 119 48.5 169t136.5 50q72 0 120 -32v90h-138v59h138v59h100v-59h75zM352 440q-41 12 -91 12q-62 0 -85.5 -28.5t-23.5 -98.5q0 -69 24 -98t85 -29q45 0 91 10v232zM58 62h395v-62h-395
v62z" />
    <glyph glyph-name="Euro" unicode="&#x20ac;" horiz-adv-x="633" 
d="M329.5 563q-32.5 -12 -50 -41.5t-24.5 -84.5h221l-16 -68h-210v-29v-29h199l-16 -68h-178q7 -55 24.5 -84.5t50 -41.5t88.5 -12q49 0 94 8t72 17v-117q-31 -10 -79 -16.5t-93 -6.5q-128 0 -195.5 57.5t-83.5 195.5h-85v68h80v29v29h-81v68h86q16 136 83.5 194.5
t195.5 58.5q45 0 93 -7t79 -16v-117q-27 9 -72 17t-94 8q-56 0 -88.5 -12z" />
    <glyph glyph-name="florin" unicode="&#x192;" horiz-adv-x="426" 
d="M405 433h-149v-309q0 -65 -10.5 -111.5t-42.5 -98.5t-96 -124l-87 78q50 58 74 96t33 75t9 93v301h-104v97h104v23q0 44 12 74.5t49.5 60t111.5 58.5l52 22l41 -105l-58 -23q-49 -17 -68.5 -35.5t-19.5 -56.5v-18h149v-97z" />
    <glyph glyph-name="uni20BA" unicode="&#x20ba;" horiz-adv-x="622" 
d="M603 248q-5 -110 -69.5 -179t-196.5 -69h-187v284l-99 -38v68l99 38v58l-101 -38v68l101 38v202h122v-155l177 67v-68l-177 -67v-59l177 68v-68l-177 -68v-218h56q83 0 115 34t38 102h122z" />
    <glyph glyph-name="uni20BD" unicode="&#x20bd;" horiz-adv-x="678" 
d="M278 278v-69h189v-90h-189v-119h-122v119h-104v90h104v69h-104v90h104v312h250q120 0 180.5 -45t60.5 -156q0 -113 -59.5 -157t-167.5 -44h-142zM278 368h115q49 0 76.5 9.5t40 33.5t12.5 69q0 44 -13.5 66t-41.5 30t-78 8h-111v-216z" />
    <glyph glyph-name="sterling" unicode="&#xa3;" horiz-adv-x="623" 
d="M582 112l-25 -112h-514v112h76v179h-76v108h76v95q0 97 63 146.5t187 49.5q50 0 93 -5t94 -17v-115q-92 24 -179 24q-69 0 -102.5 -26.5t-33.5 -79.5v-72h229v-108h-229v-179h341z" />
    <glyph glyph-name="yen" unicode="&#xa5;" horiz-adv-x="617" 
d="M401 305h130v-68h-162v-58h162v-68h-162v-111h-122v111h-161v68h161v58h-161v68h129l-205 375h134l164 -308l164 308h135z" />
    <glyph glyph-name="uni2219" unicode="&#x2219;" horiz-adv-x="229" 
d="M50 358h129v-131h-129v131z" />
    <glyph glyph-name="uni2215" unicode="&#x2215;" horiz-adv-x="586" 
d="M489 680h88l-474 -680h-94z" />
    <glyph glyph-name="plus" unicode="+" horiz-adv-x="554" 
d="M221 257h-174v110h174v174h111v-174h174v-110h-174v-174h-111v174z" />
    <glyph glyph-name="minus" unicode="&#x2212;" horiz-adv-x="524" 
d="M47 367h429v-110h-429v110z" />
    <glyph glyph-name="multiply" unicode="&#xd7;" horiz-adv-x="497" 
d="M169.99 305.455l-123.034 123.034l77.7803 77.7803l123.034 -123.034l123.034 123.034l78.4873 -78.4873l-123.034 -123.034l123.034 -123.034l-77.7803 -77.7803l-123.034 123.034l-123.034 -123.034l-78.4873 78.4873z" />
    <glyph glyph-name="divide" unicode="&#xf7;" horiz-adv-x="524" 
d="M214 548h102v-105h-102v105zM47 367h429v-110h-429v110zM214 181h102v-105h-102v105z" />
    <glyph glyph-name="equal" unicode="=" horiz-adv-x="549" 
d="M71 468h407v-107h-407v107zM71 267h407v-108h-407v108z" />
    <glyph glyph-name="notequal" unicode="&#x2260;" horiz-adv-x="549" 
d="M355 361l-43 -94h166v-108h-216l-57 -124h-112l57 124h-79v108h128l43 94h-171v107h220l45 98h113l-45 -98h74v-107h-123z" />
    <glyph glyph-name="greater" unicode="&#x3e;" horiz-adv-x="542" 
d="M471 385v-103l-400 -131v105l279 77l-279 77v105z" />
    <glyph glyph-name="less" unicode="&#x3c;" horiz-adv-x="542" 
d="M71 385v-103l400 -131v105l-279 77l279 77v105z" />
    <glyph glyph-name="greaterequal" unicode="&#x2265;" horiz-adv-x="495" 
d="M447 383v-103l-400 -131v105l279 77l-279 77v105zM48 86h400v-86h-400v86z" />
    <glyph glyph-name="lessequal" unicode="&#x2264;" horiz-adv-x="542" 
d="M71 383v-103l400 -131v105l-279 77l279 77v105zM470 86h-400v-86h400v86z" />
    <glyph glyph-name="plusminus" unicode="&#xb1;" horiz-adv-x="563" 
d="M221 340h-174v110h174v174h111v-174h174v-110h-174v-174h-111v174zM57 101h459v-101h-459v101z" />
    <glyph glyph-name="approxequal" unicode="&#x2248;" horiz-adv-x="485" 
d="M162 427q24 0 46 -5t59 -15q51 -15 71 -15q55 0 100 31v-105q-24 -13 -47.5 -21t-55.5 -8q-16 0 -37 5t-42 11q-33 10 -54 14.5t-42 4.5q-55 0 -113 -28v104q61 27 115 27zM162 252q24 0 46 -5t59 -15q51 -15 71 -15q55 0 100 31v-105q-24 -13 -47.5 -21t-55.5 -8
q-16 0 -37 5t-42 11q-33 10 -54 14.5t-42 4.5q-55 0 -113 -28v104q61 27 115 27z" />
    <glyph glyph-name="asciitilde" unicode="~" horiz-adv-x="438" 
d="M391 367q0 -68 -25 -97t-78 -29q-26 0 -44.5 8t-42.5 23q-17 11 -25.5 15t-18.5 4q-17 0 -24 -10t-9 -35h-77q0 68 25 97.5t78 29.5q26 0 45.5 -8.5t41.5 -23.5q17 -11 25.5 -15t18.5 -4q17 0 24 10t9 35h77z" />
    <glyph glyph-name="logicalnot" unicode="&#xac;" horiz-adv-x="665" 
d="M474 257h-403v113h523v-370h-120v257z" />
    <glyph glyph-name="emptyset" unicode="&#x2205;" horiz-adv-x="674" 
d="M609.5 506q15.5 -66 15.5 -166q0 -132 -28.5 -207.5t-90.5 -109t-169 -33.5q-112 0 -174 36l-18 -26h-81l48 70q-33 42 -48 107.5t-15 162.5q0 132 28.5 207.5t90.5 109t169 33.5q109 0 170 -34l16 24h82l-45 -67q34 -41 49.5 -107zM191 189l246 364q-35 22 -100 22
t-100.5 -22t-49.5 -72t-14 -141q0 -101 18 -151zM437 127.5q35 22.5 49.5 72.5t14.5 140q0 109 -20 157l-248 -367q37 -25 104 -25q65 0 100 22.5z" />
    <glyph glyph-name="infinity" unicode="&#x221e;" horiz-adv-x="857" 
d="M764.5 467q45.5 -46 45.5 -144q0 -99 -45.5 -145t-139.5 -46q-54 0 -99.5 28.5t-96.5 91.5q-51 -63 -97 -91.5t-100 -28.5q-94 0 -139.5 46t-45.5 145q0 98 45.5 144t139.5 46q54 0 100 -28.5t97 -91.5q51 63 96.5 91.5t99.5 28.5q94 0 139.5 -46zM286 258.5
q30 20.5 71 64.5q-41 44 -71 64t-57 20q-36 0 -53 -20t-17 -64q0 -45 17 -65t53 -20q27 0 57 20.5zM681 258q17 20 17 65q0 44 -17 64t-53 20q-27 0 -57 -20t-71 -64q41 -44 71 -64.5t57 -20.5q36 0 53 20z" />
    <glyph glyph-name="integral" unicode="&#x222b;" horiz-adv-x="391" 
d="M371 778q-50 -58 -74 -96t-32.5 -75t-8.5 -93v-398q0 -61 -11 -107t-43 -97t-95 -122l-87 78q50 58 74 96t33 75t9 93v398q0 62 11 107.5t42.5 96.5t94.5 122z" />
    <glyph glyph-name="uni2126" unicode="&#x2126;" horiz-adv-x="678" 
d="M53 112h105q-45 44 -73 113t-28 153q0 112 25.5 179.5t87 100t169.5 32.5t169.5 -32.5t87 -100t25.5 -179.5q0 -84 -28 -153t-73 -113h105v-112h-230v104q101 101 101 274q0 73 -13.5 115t-47 62t-96.5 20t-96.5 -20t-47 -62t-13.5 -115q0 -173 101 -274v-104h-230v112z
" />
    <glyph glyph-name="uni2206" unicode="&#x2206;" horiz-adv-x="629" 
d="M620 0h-611l228 680h156zM455 112l-140 443l-140 -443h280z" />
    <glyph glyph-name="product" unicode="&#x220f;" horiz-adv-x="707" 
d="M627 0h-122v568h-303v-568h-122v680h547v-680z" />
    <glyph glyph-name="summation" unicode="&#x2211;" horiz-adv-x="650" 
d="M570 568h-347l194 -228l-194 -228h347v-112h-490v118l190 222l-190 222v118h490v-112z" />
    <glyph glyph-name="radical" unicode="&#x221a;" horiz-adv-x="614" 
d="M13 506h130l123 -377l208 551h127l-271 -680h-125z" />
    <glyph glyph-name="uni00B5" unicode="&#xb5;" horiz-adv-x="607" 
d="M536 530v-530h-100l-12 41q-24 -23 -58 -37t-76 -14q-33 0 -61 9t-38 24v-223h-120v730h120v-359q0 -32 27.5 -53t75.5 -21q62 0 122 32v401h120z" />
    <glyph glyph-name="partialdiff" unicode="&#x2202;" horiz-adv-x="578" 
d="M109.5 45q-62.5 55 -62.5 172q0 99 51 156t153 57q46 0 78 -9t62 -23q-18 55 -63 93.5t-100 61.5t-129 45l32 92q173 -41 286.5 -142t113.5 -286q0 -124 -52 -198t-182 -74q-125 0 -187.5 55zM385 132q28 37 28 110q0 38 -10 64q-21 12 -54 20t-71 8q-110 0 -110 -114
q0 -61 28 -93t97 -32q64 0 92 37z" />
    <glyph glyph-name="percent" unicode="%" horiz-adv-x="764" 
d="M103.5 404.5q-29.5 14.5 -42 47t-12.5 88.5t12.5 88.5t42 47t82.5 14.5q52 0 81.5 -14.5t42 -47t12.5 -88.5t-12.5 -88.5t-42 -47t-81.5 -14.5q-53 0 -82.5 14.5zM514 680h96l-360 -680h-98zM230.5 478q11.5 16 11.5 62t-11.5 62t-44.5 16q-34 0 -45 -16t-11 -62t11 -62
t45 -16q33 0 44.5 16zM495.5 4.5q-29.5 14.5 -42 47t-12.5 88.5t12.5 88.5t42 47t82.5 14.5q52 0 81.5 -14.5t42 -47t12.5 -88.5t-12.5 -88.5t-42 -47t-81.5 -14.5q-53 0 -82.5 14.5zM622.5 78q11.5 16 11.5 62t-11.5 62t-44.5 16q-34 0 -45 -16t-11 -62t11 -62t45 -16
q33 0 44.5 16z" />
    <glyph glyph-name="perthousand" unicode="&#x2030;" horiz-adv-x="1051" 
d="M103.5 404.5q-29.5 14.5 -42 47t-12.5 88.5t12.5 88.5t42 47t82.5 14.5q52 0 81.5 -14.5t42 -47t12.5 -88.5t-12.5 -88.5t-42 -47t-81.5 -14.5q-53 0 -82.5 14.5zM514 680h96l-360 -680h-98zM230.5 478q11.5 16 11.5 62t-11.5 62t-44.5 16q-34 0 -45 -16t-11 -62t11 -62
t45 -16q33 0 44.5 16zM495.5 4.5q-29.5 14.5 -42 47t-12.5 88.5t12.5 88.5t42 47t82.5 14.5q52 0 81.5 -14.5t42 -47t12.5 -88.5t-12.5 -88.5t-42 -47t-81.5 -14.5q-53 0 -82.5 14.5zM622.5 78q11.5 16 11.5 62t-11.5 62t-44.5 16q-34 0 -45 -16t-11 -62t11 -62t45 -16
q33 0 44.5 16zM822.5 4.5q-29.5 14.5 -42 47t-12.5 88.5t12.5 88.5t42 47t82.5 14.5q52 0 81.5 -14.5t42 -47t12.5 -88.5t-12.5 -88.5t-42 -47t-81.5 -14.5q-53 0 -82.5 14.5zM949.5 78q11.5 16 11.5 62t-11.5 62t-44.5 16q-34 0 -45 -16t-11 -62t11 -62t45 -16
q33 0 44.5 16z" />
    <glyph glyph-name="arrowup" unicode="&#x2191;" horiz-adv-x="802" 
d="M755 379l-73 -74l-220 216v-471h-121v471l-220 -216l-74 74l354 351z" />
    <glyph glyph-name="uni2197" unicode="&#x2197;" horiz-adv-x="621" 
d="M573.843 182.133l-103.942 -0.707031l-2.8291 308.293l-333.04 -333.041l-85.5586 85.5586l333.041 333.04l-308.292 2.8291v104.649l498.5 -2.12109z" />
    <glyph glyph-name="arrowright" unicode="&#x2192;" horiz-adv-x="774" 
d="M376 -3l-74 73l216 220h-471v121h471l-216 220l74 74l351 -354z" />
    <glyph glyph-name="uni2198" unicode="&#x2198;" horiz-adv-x="621" 
d="M573.843 500.867l-103.942 0.707031l-2.8291 -308.293l-333.04 333.041l-85.5586 -85.5586l333.041 -333.04l-308.292 -2.8291v-104.649l498.5 2.12109z" />
    <glyph glyph-name="arrowdown" unicode="&#x2193;" horiz-adv-x="802" 
d="M47 341l73 74l220 -216v471h121v-471l220 216l74 -74l-354 -351z" />
    <glyph glyph-name="uni2199" unicode="&#x2199;" horiz-adv-x="621" 
d="M47.1572 500.867l103.942 0.707031l2.8291 -308.293l333.04 333.041l85.5586 -85.5586l-333.041 -333.04l308.292 -2.8291v-104.649l-498.5 2.12109z" />
    <glyph glyph-name="arrowleft" unicode="&#x2190;" horiz-adv-x="774" 
d="M398 -3l74 73l-216 220h471v121h-471l216 220l-74 74l-351 -354z" />
    <glyph glyph-name="uni2196" unicode="&#x2196;" horiz-adv-x="621" 
d="M47.1572 182.133l103.942 -0.707031l2.8291 308.293l333.04 -333.041l85.5586 85.5586l-333.041 333.04l308.292 2.8291v104.649l-498.5 -2.12109z" />
    <glyph glyph-name="arrowboth" unicode="&#x2194;" horiz-adv-x="1124" 
d="M726 -10l-74 73l216 220h-471v121h471l-216 220l74 74l351 -354zM398 -10l74 73l-216 220h471v121h-471l216 220l-74 74l-351 -354z" />
    <glyph glyph-name="arrowupdn" unicode="&#x2195;" horiz-adv-x="802" 
d="M755 479l-73 -74l-220 216v-471h-121v471l-220 -216l-74 74l354 351zM755 151l-73 74l-220 -216v471h-121v-471l-220 216l-74 -74l354 -351z" />
    <glyph glyph-name="lozenge" unicode="&#x25ca;" horiz-adv-x="659" 
d="M610 337l-216 -337h-128l-217 337l217 343h128zM478 337l-148 236l-149 -236l149 -230z" />
    <glyph glyph-name="uniF8FF" unicode="&#xf8ff;" horiz-adv-x="290" 
d="M73 357h129v-131h-129v131z" />
    <glyph glyph-name="at" unicode="@" horiz-adv-x="895" 
d="M621 467v-289q50 7 77 25t38 51t11 91q0 97 -23 150t-84.5 77.5t-181.5 24.5q-124 0 -190.5 -29t-93.5 -96.5t-27 -191.5q0 -121 34 -186.5t104 -91t191 -25.5q74 0 127 9v-90q-53 -12 -127 -12q-154 0 -246.5 36t-136.5 122t-44 238q0 154 38 242.5t126.5 128
t244.5 39.5q151 0 235 -35t118 -109t34 -201q0 -107 -38 -163t-113.5 -76.5t-204.5 -20.5q-77 0 -125.5 17t-73.5 62t-25 126q0 75 20 118.5t60.5 61.5t106.5 18q77 0 169 -21zM532 172v227q-38 7 -80 7q-39 0 -60 -11.5t-29 -36t-8 -68.5q0 -47 11.5 -72.5t37 -36
t72.5 -10.5q39 0 56 1z" />
    <glyph glyph-name="ampersand" unicode="&#x26;" horiz-adv-x="752" 
d="M105.5 37.5q-55.5 47.5 -55.5 133.5q0 65 32.5 107t104.5 86q-38 36 -57.5 58.5t-31.5 50t-12 63.5q0 71 51.5 112.5t152.5 41.5q103 0 155.5 -40t52.5 -114q0 -56 -34 -96t-108 -90l133 -121l149 157l83 -77l-149 -154l169 -156h-152l-88 83q-42 -41 -95 -66.5
t-129 -25.5q-116 0 -171.5 47.5zM355 470q22 22 22 57q0 33 -20 50t-67 17q-49 0 -69.5 -17t-20.5 -51q0 -22 9 -39t23 -30.5t48 -42.5q53 34 75 56zM360 113.5q31 16.5 58 44.5l-154 140q-49 -31 -68.5 -54.5t-19.5 -57.5q0 -46 26.5 -67.5t84.5 -21.5q42 0 73 16.5z" />
    <glyph glyph-name="paragraph" unicode="&#xb6;" horiz-adv-x="545" 
d="M243 283h-18q-95 0 -136.5 51.5t-41.5 148.5q0 96 45 146.5t156 50.5h81v-804h-86v407zM379 680h86v-804h-86v804z" />
    <glyph glyph-name="section" unicode="&#xa7;" horiz-adv-x="574" 
d="M504.5 167.5q-19.5 -29.5 -55.5 -52.5q42 -45 42 -111q0 -79 -52.5 -111t-166.5 -32q-84 0 -170 21v109q84 -28 169 -28q59 0 80.5 10.5t21.5 35.5q0 23 -11.5 37.5t-46.5 32.5l-136 68q-46 23 -72.5 42.5t-42 49t-15.5 73.5q0 42 19.5 71.5t55.5 52.5q-42 45 -42 111
q0 79 52.5 111t166.5 32q84 0 170 -21v-109q-84 28 -169 28q-59 0 -80.5 -10.5t-21.5 -35.5q0 -23 11.5 -37.5t46.5 -32.5l136 -68q46 -23 72.5 -42.5t42 -49t15.5 -73.5q0 -42 -19.5 -71.5zM366 170q22 15 31.5 28.5t9.5 34.5q0 29 -14.5 45t-47.5 33l-138 70
q-22 -15 -31.5 -28.5t-9.5 -34.5q0 -29 14.5 -45t47.5 -33z" />
    <glyph glyph-name="copyright" unicode="&#xa9;" horiz-adv-x="573" 
d="M104.5 276.5q-57.5 53.5 -57.5 179.5t60 180t179 54q120 0 180 -54t60 -180t-58 -179.5t-182 -53.5t-181.5 53.5zM396 294.5q39 18.5 55.5 57.5t16.5 104q0 95 -43 138t-139 43q-97 0 -139.5 -42t-42.5 -139q0 -65 16.5 -104t56 -57.5t109.5 -18.5q71 0 110 18.5z
M216.5 375q-24.5 24 -24.5 81t24.5 81t79.5 24q31 0 61 -7v-49q-36 6 -58 6q-25 0 -37 -11.5t-12 -43.5t12 -43.5t37 -11.5q32 0 58 6v-50q-32 -6 -61 -6q-55 0 -79.5 24z" />
    <glyph glyph-name="registered" unicode="&#xae;" horiz-adv-x="573" 
d="M105 277.5q-58 54.5 -58 178.5q0 123 60.5 178.5t178.5 55.5q119 0 179.5 -55.5t60.5 -178.5t-58.5 -178t-181.5 -55t-181 54.5zM398.5 292q40.5 19 57 58.5t16.5 105.5q0 97 -44 140.5t-142 43.5t-141.5 -42.5t-43.5 -141.5q0 -66 16.5 -105.5t56.5 -58.5t112 -19
t112.5 19zM283 434h-27v-77h-54v220h93q46 0 65 -16.5t19 -54.5q0 -51 -42 -66l56 -83h-61zM288 478q19 0 26.5 5t7.5 21q0 17 -7 22t-26 5h-33v-53h32z" />
    </font>
</defs>
</svg>
