<svg width="107" height="34" viewBox="0 0 107 34" fill="none" xmlns="http://www.w3.org/2000/svg">
<path d="M2.60356 7.62109H1.05975V12.1729H2.60356V7.62109Z" fill="#ECECEC"/>
<path d="M7.67693 7.62109H6.13312V12.1729H7.67693V7.62109Z" fill="#ECECEC"/>
<path d="M12.7503 7.62109H11.2065V12.1729H12.7503V7.62109Z" fill="#ECECEC"/>
<path d="M17.8244 7.62109H16.2806V12.1729H17.8244V7.62109Z" fill="#ECECEC"/>
<path d="M22.8978 7.62109H21.3539V12.1729H22.8978V7.62109Z" fill="#ECECEC"/>
<path d="M27.9719 7.62109H26.4281V12.1729H27.9719V7.62109Z" fill="#ECECEC"/>
<path d="M39.4505 7.62109H37.9067V12.1729H39.4505V7.62109Z" fill="#ECECEC"/>
<path d="M43.5972 7.62109H42.0533V12.1729H43.5972V7.62109Z" fill="#ECECEC"/>
<path d="M54.1971 7.62109H52.6533V12.1729H54.1971V7.62109Z" fill="#ECECEC"/>
<path d="M2.60356 18.165H1.05975V22.716H2.60356V18.165Z" fill="#ECECEC"/>
<path d="M14.0821 18.165H12.5383V22.716H14.0821V18.165Z" fill="#ECECEC"/>
<path d="M18.2287 18.165H16.6849V22.716H18.2287V18.165Z" fill="#ECECEC"/>
<path d="M28.8287 18.165H27.2849V22.716H28.8287V18.165Z" fill="#ECECEC"/>
<path d="M2.60356 28.709H1.05975V33.26H2.60356V28.709Z" fill="#ECECEC"/>
<path d="M13.2035 28.709H11.6597V33.26H13.2035V28.709Z" fill="#ECECEC"/>
<mask id="mask0" mask-type="alpha" maskUnits="userSpaceOnUse" x="0" y="0" width="107" height="1">
<path d="M106.358 0H0V0.481776H106.358V0Z" fill="#ECECEC"/>
</mask>
<g mask="url(#mask0)">
<path d="M106.358 0H0V0.481776H106.358V0Z" fill="#ECECEC"/>
</g>
</svg>
