<svg width="102" height="61" viewBox="0 0 102 61" fill="none" xmlns="http://www.w3.org/2000/svg">
<mask id="mask0" mask-type="alpha" maskUnits="userSpaceOnUse" x="0" y="60" width="102" height="1">
<path d="M101.38 60.498H0V60.9573H101.38V60.498Z" fill="#ECECEC"/>
</mask>
<g mask="url(#mask0)">
<path d="M101.38 60.498H0V60.9573H101.38V60.498Z" fill="#ECECEC"/>
</g>
<path d="M74.6911 49.1787V50.6504H78.6445V49.1787H74.6911Z" fill="#ECECEC"/>
<path d="M74.6913 44.3428V45.8145H78.645V44.3428H74.6913Z" fill="#ECECEC"/>
<path d="M74.691 39.5069V40.9785H78.6444V39.5069H74.691Z" fill="#ECECEC"/>
<path d="M74.6913 34.6709V36.1426H78.645V34.6709H74.6913Z" fill="#ECECEC"/>
<path d="M74.6909 29.835V31.3066H78.6443V29.835H74.6909Z" fill="#ECECEC"/>
<path d="M74.6913 24.9981V26.4697H78.6448V24.9981H74.6913Z" fill="#ECECEC"/>
<path d="M74.6909 14.0576V15.5293H78.6443V14.0576H74.6909Z" fill="#ECECEC"/>
<path d="M74.6914 10.1045V11.5762H78.6449V10.1045H74.6914Z" fill="#ECECEC"/>
<path d="M74.691 -2.38419e-07V1.47168L78.6444 1.47168V-2.38419e-07L74.691 -2.38419e-07Z" fill="#ECECEC"/>
<path d="M83.8495 49.1797V50.6514H87.8028V49.1797H83.8495Z" fill="#ECECEC"/>
<path d="M83.8498 38.2373V39.709H87.8032V38.2373H83.8498Z" fill="#ECECEC"/>
<path d="M83.8497 34.2852V35.7568H87.8031V34.2852H83.8497Z" fill="#ECECEC"/>
<path d="M83.8498 24.1807V25.6523H87.8034V24.1807H83.8498Z" fill="#ECECEC"/>
<path d="M93.0078 49.1797V50.6514H96.9613V49.1797H93.0078Z" fill="#ECECEC"/>
<path d="M93.008 39.0752V40.5469H96.9614V39.0752H93.008Z" fill="#ECECEC"/>
</svg>
