<svg width="29" height="42" viewBox="0 0 29 42" fill="none" xmlns="http://www.w3.org/2000/svg">
<path d="M14.414 0C6.46208 0 -6.10352e-05 6.49402 -6.10352e-05 14.4848C-6.10352e-05 17.1886 0.744826 19.8201 2.16213 22.0894L13.4369 40.6311C13.6292 40.9449 13.9175 41.1381 14.2539 41.1864C14.7102 41.2587 15.2149 41.0657 15.4791 40.607L26.7862 21.8962C28.1313 19.6753 28.8281 17.0921 28.8281 14.4848C28.8281 6.49402 22.3659 0 14.414 0ZM14.414 21.7272C10.3782 21.7272 7.20697 18.444 7.20697 14.4848C7.20697 10.5014 10.4501 7.2424 14.414 7.2424C18.3779 7.2424 21.621 10.5014 21.621 14.4848C21.621 18.4198 18.4979 21.7272 14.414 21.7272Z" fill="#FB0000"/>
</svg>
