<svg width="107" height="34" viewBox="0 0 107 34" fill="none" xmlns="http://www.w3.org/2000/svg">
<path d="M2.6035 7.62109H1.05969V12.1729H2.6035V7.62109Z" fill="#3C3C3C"/>
<path d="M7.67687 7.62109H6.13306V12.1729H7.67687V7.62109Z" fill="#3C3C3C"/>
<path d="M12.7502 7.62109H11.2064V12.1729H12.7502V7.62109Z" fill="#3C3C3C"/>
<path d="M17.8243 7.62109H16.2805V12.1729H17.8243V7.62109Z" fill="#3C3C3C"/>
<path d="M22.8977 7.62109H21.3539V12.1729H22.8977V7.62109Z" fill="#3C3C3C"/>
<path d="M27.9718 7.62109H26.428V12.1729H27.9718V7.62109Z" fill="#3C3C3C"/>
<path d="M39.4504 7.62109H37.9066V12.1729H39.4504V7.62109Z" fill="#3C3C3C"/>
<path d="M43.597 7.62109H42.0532V12.1729H43.597V7.62109Z" fill="#3C3C3C"/>
<path d="M54.197 7.62109H52.6532V12.1729H54.197V7.62109Z" fill="#3C3C3C"/>
<path d="M2.6035 18.1641H1.05969V22.715H2.6035V18.1641Z" fill="#3C3C3C"/>
<path d="M14.0821 18.1641H12.5383V22.715H14.0821V18.1641Z" fill="#3C3C3C"/>
<path d="M18.2287 18.1641H16.6849V22.715H18.2287V18.1641Z" fill="#3C3C3C"/>
<path d="M28.8287 18.1641H27.2849V22.715H28.8287V18.1641Z" fill="#3C3C3C"/>
<path d="M2.6035 28.709H1.05969V33.26H2.6035V28.709Z" fill="#3C3C3C"/>
<path d="M13.2035 28.709H11.6597V33.26H13.2035V28.709Z" fill="#3C3C3C"/>
<mask id="mask0" mask-type="alpha" maskUnits="userSpaceOnUse" x="0" y="0" width="107" height="1">
<path d="M106.358 0H-6.10352e-05V0.481776H106.358V0Z" fill="#3C3C3C"/>
</mask>
<g mask="url(#mask0)">
<path d="M106.358 0H-6.10352e-05V0.481776H106.358V0Z" fill="#3C3C3C"/>
</g>
</svg>
