<svg width="102" height="61" viewBox="0 0 102 61" fill="none" xmlns="http://www.w3.org/2000/svg">
<mask id="mask0" mask-type="alpha" maskUnits="userSpaceOnUse" x="0" y="60" width="102" height="1">
<path d="M101.38 60.498H-6.10352e-05V60.9573H101.38V60.498Z" fill="#3C3C3C"/>
</mask>
<g mask="url(#mask0)">
<path d="M101.38 60.498H-6.10352e-05V60.9573H101.38V60.498Z" fill="#3C3C3C"/>
</g>
<path d="M74.6911 49.1777V50.6494H78.6445V49.1777H74.6911Z" fill="#3C3C3C"/>
<path d="M74.6913 44.3418V45.8135H78.6449V44.3418H74.6913Z" fill="#3C3C3C"/>
<path d="M74.691 39.5059V40.9775H78.6443V39.5059H74.691Z" fill="#3C3C3C"/>
<path d="M74.6913 34.67V36.1416H78.6449V34.67H74.6913Z" fill="#3C3C3C"/>
<path d="M74.6909 29.834V31.3057H78.6443V29.834H74.6909Z" fill="#3C3C3C"/>
<path d="M74.6913 24.9981V26.4697H78.6447V24.9981H74.6913Z" fill="#3C3C3C"/>
<path d="M74.6909 14.0567V15.5283H78.6443V14.0567H74.6909Z" fill="#3C3C3C"/>
<path d="M74.6914 10.1036V11.5752H78.6449V10.1036H74.6914Z" fill="#3C3C3C"/>
<path d="M74.691 -2.38419e-07V1.47168L78.6443 1.47168V-2.38419e-07L74.691 -2.38419e-07Z" fill="#3C3C3C"/>
<path d="M83.8494 49.1817V50.6533H87.8028V49.1817H83.8494Z" fill="#3C3C3C"/>
<path d="M83.8497 38.2383V39.71H87.8031V38.2383H83.8497Z" fill="#3C3C3C"/>
<path d="M83.8496 34.2871V35.7588H87.803V34.2871H83.8496Z" fill="#3C3C3C"/>
<path d="M83.8497 24.1817V25.6533H87.8033V24.1817H83.8497Z" fill="#3C3C3C"/>
<path d="M93.0078 49.1797V50.6514H96.9613V49.1797H93.0078Z" fill="#3C3C3C"/>
<path d="M93.0079 39.0762V40.5479H96.9613V39.0762H93.0079Z" fill="#3C3C3C"/>
</svg>
