<svg width="100" height="100" viewBox="0 0 100 100" fill="none" xmlns="http://www.w3.org/2000/svg">
<circle cx="50" cy="50" r="50" fill="#0F0F0F"/>
<mask id="path-2-inside-1" fill="white">
<path fill-rule="evenodd" clip-rule="evenodd" d="M59.7436 52.4389C58.458 51.1538 56.9034 50.1344 55.1782 49.4721C51.9929 48.3576 48.9868 48.2545 45.8015 49.4642C44.1516 50.0394 42.4462 51.2053 41.2129 52.4389C38.8409 54.8109 37.3774 58.0872 37.3774 61.7043C37.3774 65.3215 38.8408 68.5976 41.2129 70.9696C43.5842 73.3376 46.8607 74.805 50.478 74.805C54.0951 74.805 57.3717 73.3376 59.7436 70.9696C62.1111 68.5976 63.5791 65.3213 63.5791 61.7043C63.5791 58.0872 62.1111 54.8109 59.7436 52.4389ZM45.865 48.4013C46.1229 48.3141 46.3848 48.2307 46.6466 48.1554L49.574 40.6353L41.0543 18.757L30 17L45.865 48.4013ZM59.7197 59.1898L54.4561 62.9973L56.475 69.1729L55.7256 69.7162L50.478 65.8848L45.2268 69.7162L44.481 69.1729L46.4998 62.9973L41.2367 59.1898L41.5223 58.309L48.0188 58.3211L50.0139 52.1374H50.9383L52.9372 58.3211L59.4343 58.309L59.7197 59.1898ZM53.5957 62.4182L57.9264 59.2808L52.2269 59.2928L50.478 53.8709L48.7249 59.2928L43.0255 59.2808L47.6463 62.6245L45.873 68.0426L50.478 64.6832L55.083 68.0426L53.31 62.6245L53.5957 62.4182ZM56.0742 80.7109C56.1418 80.9686 55.987 81.2384 55.7297 81.3059C55.4677 81.3774 55.2021 81.2225 55.1345 80.9608L54.1269 77.2127C54.0593 76.9509 54.2141 76.6852 54.472 76.6137C54.7339 76.5463 54.9996 76.7011 55.0709 76.9588L56.0742 80.7109ZM60.8023 78.6166C60.9333 78.8468 60.8539 79.1442 60.6237 79.2792C60.3897 79.41 60.0921 79.3306 59.9612 79.1006L58.0179 75.7369C57.8867 75.5069 57.9663 75.2056 58.1963 75.0746C58.4305 74.9397 58.7281 75.0231 58.8588 75.2532L60.8023 78.6166ZM64.8281 75.3645C65.0186 75.5546 65.0186 75.864 64.8281 76.0544C64.6376 76.2449 64.3283 76.2449 64.1378 76.0544L61.3935 73.3099C61.203 73.1194 61.203 72.8099 61.3935 72.6195C61.584 72.429 61.8929 72.429 62.0834 72.6195L64.8281 75.3645ZM67.8745 71.1877C68.1041 71.3227 68.1835 71.62 68.0525 71.8502C67.9181 72.0842 67.6206 72.1636 67.3866 72.0288L64.0228 70.0853C63.7932 69.9543 63.7137 69.6527 63.8487 69.4227C63.9793 69.189 64.2807 69.1096 64.5108 69.2444L67.8745 71.1877ZM69.7346 66.3606C69.9921 66.4282 70.1468 66.6978 70.0793 66.9558C70.0119 67.2176 69.7425 67.3681 69.4846 67.3007L65.7326 66.2973C65.4747 66.2258 65.32 65.96 65.3875 65.7021C65.459 65.4403 65.7248 65.286 65.9861 65.3571L69.7346 66.3606ZM70.2816 61.2165C70.5515 61.2165 70.7695 61.4344 70.7695 61.7043C70.7695 61.9739 70.5515 62.1923 70.2816 62.1923H66.4026C66.1329 62.1923 65.9153 61.9739 65.9153 61.7043C65.9153 61.4344 66.1329 61.2165 66.4026 61.2165H70.2816ZM69.4846 56.1079C69.7425 56.0366 70.0119 56.191 70.0793 56.4529C70.1468 56.7106 69.9921 56.9805 69.7346 57.0479L65.9862 58.0514C65.7248 58.1229 65.4591 57.9681 65.3876 57.7103C65.3201 57.4484 65.4748 57.1827 65.7327 57.1115L69.4846 56.1079ZM31.2217 57.0479C30.9599 56.9805 30.8052 56.7106 30.8765 56.4529C30.9441 56.1909 31.2138 56.0366 31.4711 56.1079L35.2197 57.1115C35.4811 57.1827 35.6357 57.4485 35.5643 57.7103C35.4969 57.9681 35.2276 58.1229 34.9697 58.0514L31.2217 57.0479ZM30.6702 62.1923C30.4005 62.1923 30.1823 61.9739 30.1823 61.7043C30.1823 61.4344 30.4005 61.2165 30.6702 61.2165H34.5531C34.8229 61.2165 35.0412 61.4344 35.0412 61.7043C35.0412 61.9739 34.823 62.1923 34.5531 62.1923H30.6702ZM31.4711 67.3009C31.2138 67.3683 30.9441 67.2176 30.8765 66.9559C30.8052 66.6979 30.9599 66.4283 31.2217 66.3608L34.9698 65.3572C35.2277 65.2861 35.4969 65.4406 35.5645 65.7023C35.6358 65.9602 35.4812 66.226 35.2198 66.2975L31.4711 67.3009ZM33.5694 72.0288C33.3358 72.1636 33.0383 72.0843 32.9034 71.8502C32.7686 71.62 32.8479 71.3228 33.082 71.1877L36.4413 69.2442C36.6753 69.1094 36.9729 69.1887 37.1078 69.4226C37.2427 69.6527 37.1633 69.9543 36.9292 70.0851L33.5694 72.0288ZM36.8181 76.0544C36.6276 76.2449 36.3182 76.2449 36.1278 76.0544C35.9375 75.864 35.9374 75.5546 36.1278 75.3645L38.8727 72.6195C39.0632 72.429 39.3726 72.429 39.5626 72.6195C39.753 72.8099 39.753 73.1194 39.5626 73.3099L36.8181 76.0544ZM40.9947 79.1006C40.8638 79.3306 40.5623 79.4099 40.3322 79.2792C40.0981 79.1442 40.0188 78.8466 40.1536 78.6166L42.0932 75.2534C42.2281 75.0232 42.5257 74.9398 42.7558 75.0748C42.9898 75.2058 43.0692 75.507 42.9342 75.7371L40.9947 79.1006ZM45.8214 80.9608C45.7538 81.2227 45.4847 81.3774 45.2268 81.3059C44.9649 81.2384 44.8102 80.9686 44.8816 80.7109L45.8848 76.9587C45.9562 76.7009 46.222 76.5462 46.4799 76.6136C46.7417 76.6851 46.8964 76.9509 46.8249 77.2126L45.8214 80.9608ZM50.9659 81.5122C50.9659 81.7779 50.7477 82 50.478 82C50.2082 82 49.9899 81.7779 49.9899 81.5122V77.629C49.9899 77.3595 50.2081 77.1414 50.478 77.1414C50.7477 77.1414 50.9659 77.3595 50.9659 77.629V81.5122ZM70.9521 17L59.8937 18.757L47.8203 47.8818C48.4709 47.755 49.1453 47.6754 49.8272 47.6436H49.8549L49.966 47.6398L49.9978 47.6358H50.0256H50.0533H50.0812H50.1089L50.1128 47.6319H50.1366H50.1643H50.1921H50.2239H50.2516H50.2794H50.2952H50.3071L50.335 47.6281H50.3627H50.3905H50.4223H50.45H50.4778H50.5175H50.5572H50.5969L50.6406 47.6319H50.6605H50.6803H50.72H50.7596H50.8034H50.839H50.8429L50.8827 47.6358H50.9222H50.9619L51.0015 47.6398H51.0214H51.0452L51.0849 47.6436H51.1244L51.1641 47.6477H51.1999H51.2037L51.2434 47.6515H51.2871L51.3268 47.6555H51.3663H51.3822L51.4061 47.6594C52.6868 47.7428 53.9203 47.9967 55.0866 48.401L70.9521 17Z"/>
</mask>
<path fill-rule="evenodd" clip-rule="evenodd" d="M59.7436 52.4389C58.458 51.1538 56.9034 50.1344 55.1782 49.4721C51.9929 48.3576 48.9868 48.2545 45.8015 49.4642C44.1516 50.0394 42.4462 51.2053 41.2129 52.4389C38.8409 54.8109 37.3774 58.0872 37.3774 61.7043C37.3774 65.3215 38.8408 68.5976 41.2129 70.9696C43.5842 73.3376 46.8607 74.805 50.478 74.805C54.0951 74.805 57.3717 73.3376 59.7436 70.9696C62.1111 68.5976 63.5791 65.3213 63.5791 61.7043C63.5791 58.0872 62.1111 54.8109 59.7436 52.4389ZM45.865 48.4013C46.1229 48.3141 46.3848 48.2307 46.6466 48.1554L49.574 40.6353L41.0543 18.757L30 17L45.865 48.4013ZM59.7197 59.1898L54.4561 62.9973L56.475 69.1729L55.7256 69.7162L50.478 65.8848L45.2268 69.7162L44.481 69.1729L46.4998 62.9973L41.2367 59.1898L41.5223 58.309L48.0188 58.3211L50.0139 52.1374H50.9383L52.9372 58.3211L59.4343 58.309L59.7197 59.1898ZM53.5957 62.4182L57.9264 59.2808L52.2269 59.2928L50.478 53.8709L48.7249 59.2928L43.0255 59.2808L47.6463 62.6245L45.873 68.0426L50.478 64.6832L55.083 68.0426L53.31 62.6245L53.5957 62.4182ZM56.0742 80.7109C56.1418 80.9686 55.987 81.2384 55.7297 81.3059C55.4677 81.3774 55.2021 81.2225 55.1345 80.9608L54.1269 77.2127C54.0593 76.9509 54.2141 76.6852 54.472 76.6137C54.7339 76.5463 54.9996 76.7011 55.0709 76.9588L56.0742 80.7109ZM60.8023 78.6166C60.9333 78.8468 60.8539 79.1442 60.6237 79.2792C60.3897 79.41 60.0921 79.3306 59.9612 79.1006L58.0179 75.7369C57.8867 75.5069 57.9663 75.2056 58.1963 75.0746C58.4305 74.9397 58.7281 75.0231 58.8588 75.2532L60.8023 78.6166ZM64.8281 75.3645C65.0186 75.5546 65.0186 75.864 64.8281 76.0544C64.6376 76.2449 64.3283 76.2449 64.1378 76.0544L61.3935 73.3099C61.203 73.1194 61.203 72.8099 61.3935 72.6195C61.584 72.429 61.8929 72.429 62.0834 72.6195L64.8281 75.3645ZM67.8745 71.1877C68.1041 71.3227 68.1835 71.62 68.0525 71.8502C67.9181 72.0842 67.6206 72.1636 67.3866 72.0288L64.0228 70.0853C63.7932 69.9543 63.7137 69.6527 63.8487 69.4227C63.9793 69.189 64.2807 69.1096 64.5108 69.2444L67.8745 71.1877ZM69.7346 66.3606C69.9921 66.4282 70.1468 66.6978 70.0793 66.9558C70.0119 67.2176 69.7425 67.3681 69.4846 67.3007L65.7326 66.2973C65.4747 66.2258 65.32 65.96 65.3875 65.7021C65.459 65.4403 65.7248 65.286 65.9861 65.3571L69.7346 66.3606ZM70.2816 61.2165C70.5515 61.2165 70.7695 61.4344 70.7695 61.7043C70.7695 61.9739 70.5515 62.1923 70.2816 62.1923H66.4026C66.1329 62.1923 65.9153 61.9739 65.9153 61.7043C65.9153 61.4344 66.1329 61.2165 66.4026 61.2165H70.2816ZM69.4846 56.1079C69.7425 56.0366 70.0119 56.191 70.0793 56.4529C70.1468 56.7106 69.9921 56.9805 69.7346 57.0479L65.9862 58.0514C65.7248 58.1229 65.4591 57.9681 65.3876 57.7103C65.3201 57.4484 65.4748 57.1827 65.7327 57.1115L69.4846 56.1079ZM31.2217 57.0479C30.9599 56.9805 30.8052 56.7106 30.8765 56.4529C30.9441 56.1909 31.2138 56.0366 31.4711 56.1079L35.2197 57.1115C35.4811 57.1827 35.6357 57.4485 35.5643 57.7103C35.4969 57.9681 35.2276 58.1229 34.9697 58.0514L31.2217 57.0479ZM30.6702 62.1923C30.4005 62.1923 30.1823 61.9739 30.1823 61.7043C30.1823 61.4344 30.4005 61.2165 30.6702 61.2165H34.5531C34.8229 61.2165 35.0412 61.4344 35.0412 61.7043C35.0412 61.9739 34.823 62.1923 34.5531 62.1923H30.6702ZM31.4711 67.3009C31.2138 67.3683 30.9441 67.2176 30.8765 66.9559C30.8052 66.6979 30.9599 66.4283 31.2217 66.3608L34.9698 65.3572C35.2277 65.2861 35.4969 65.4406 35.5645 65.7023C35.6358 65.9602 35.4812 66.226 35.2198 66.2975L31.4711 67.3009ZM33.5694 72.0288C33.3358 72.1636 33.0383 72.0843 32.9034 71.8502C32.7686 71.62 32.8479 71.3228 33.082 71.1877L36.4413 69.2442C36.6753 69.1094 36.9729 69.1887 37.1078 69.4226C37.2427 69.6527 37.1633 69.9543 36.9292 70.0851L33.5694 72.0288ZM36.8181 76.0544C36.6276 76.2449 36.3182 76.2449 36.1278 76.0544C35.9375 75.864 35.9374 75.5546 36.1278 75.3645L38.8727 72.6195C39.0632 72.429 39.3726 72.429 39.5626 72.6195C39.753 72.8099 39.753 73.1194 39.5626 73.3099L36.8181 76.0544ZM40.9947 79.1006C40.8638 79.3306 40.5623 79.4099 40.3322 79.2792C40.0981 79.1442 40.0188 78.8466 40.1536 78.6166L42.0932 75.2534C42.2281 75.0232 42.5257 74.9398 42.7558 75.0748C42.9898 75.2058 43.0692 75.507 42.9342 75.7371L40.9947 79.1006ZM45.8214 80.9608C45.7538 81.2227 45.4847 81.3774 45.2268 81.3059C44.9649 81.2384 44.8102 80.9686 44.8816 80.7109L45.8848 76.9587C45.9562 76.7009 46.222 76.5462 46.4799 76.6136C46.7417 76.6851 46.8964 76.9509 46.8249 77.2126L45.8214 80.9608ZM50.9659 81.5122C50.9659 81.7779 50.7477 82 50.478 82C50.2082 82 49.9899 81.7779 49.9899 81.5122V77.629C49.9899 77.3595 50.2081 77.1414 50.478 77.1414C50.7477 77.1414 50.9659 77.3595 50.9659 77.629V81.5122ZM70.9521 17L59.8937 18.757L47.8203 47.8818C48.4709 47.755 49.1453 47.6754 49.8272 47.6436H49.8549L49.966 47.6398L49.9978 47.6358H50.0256H50.0533H50.0812H50.1089L50.1128 47.6319H50.1366H50.1643H50.1921H50.2239H50.2516H50.2794H50.2952H50.3071L50.335 47.6281H50.3627H50.3905H50.4223H50.45H50.4778H50.5175H50.5572H50.5969L50.6406 47.6319H50.6605H50.6803H50.72H50.7596H50.8034H50.839H50.8429L50.8827 47.6358H50.9222H50.9619L51.0015 47.6398H51.0214H51.0452L51.0849 47.6436H51.1244L51.1641 47.6477H51.1999H51.2037L51.2434 47.6515H51.2871L51.3268 47.6555H51.3663H51.3822L51.4061 47.6594C52.6868 47.7428 53.9203 47.9967 55.0866 48.401L70.9521 17Z" stroke="url(#paint0_linear)" stroke-width="4" mask="url(#path-2-inside-1)"/>
<defs>
<linearGradient id="paint0_linear" x1="36.7456" y1="27.0525" x2="72.2138" y2="67.6841" gradientUnits="userSpaceOnUse">
<stop stop-color="#FF2D2D"/>
<stop offset="1" stop-color="#0085FA"/>
</linearGradient>
</defs>
</svg>
