<svg width="101" height="101" viewBox="0 0 101 101" fill="none" xmlns="http://www.w3.org/2000/svg">
<circle cx="50.7632" cy="50.3623" r="50" transform="rotate(90 50.7632 50.3623)" fill="#0F0F0F"/>
<path d="M51.3543 24.5532L51.3574 24.5541L73.579 31.0505C73.5791 31.0506 73.5792 31.0506 73.5793 31.0506C73.844 31.1284 74.0772 31.2907 74.2434 31.5138C74.4097 31.737 74.4999 32.009 74.4999 32.2889V51.8234C74.4999 59.9921 69.1343 65.551 63.4828 69.1428C57.8374 72.7308 52.0124 74.2831 51.3401 74.4523L51.3309 74.4546L51.3219 74.4573C51.2197 74.4871 51.1137 74.5015 51.0074 74.4999L51.0074 74.4999L51.0015 74.4998C50.8984 74.4995 50.7956 74.4866 50.6956 74.4613L50.6942 74.461C50.23 74.3452 44.3959 72.8306 38.6892 69.2465C32.9754 65.658 27.4999 60.0699 27.4999 51.8234V32.2894C27.5006 32.0125 27.5895 31.7434 27.7532 31.5218C27.9164 31.3008 28.1452 31.1388 28.4055 31.0587L50.6248 24.5541L50.6277 24.5532C50.8648 24.4823 51.1172 24.4823 51.3543 24.5532ZM50.8657 71.8395L50.9999 71.8769L51.1341 71.8395C52.651 71.4168 57.8188 69.7821 62.6188 66.5943C67.4094 63.4127 71.9444 58.6057 71.9444 51.8234V33.6401V33.2657L71.5851 33.1603L51.1406 27.1649L50.9999 27.1236L50.8592 27.1649L30.4148 33.1603L30.0555 33.2657V33.6401V51.8234C30.0555 58.6189 34.5901 63.426 39.3813 66.6045C44.1815 69.7891 49.3494 71.417 50.8657 71.8395Z" stroke="url(#paint0_linear)"/>
<path d="M55.0499 56.9L54.3991 56.1407L54.3931 56.1459L55.0499 56.9ZM44.5749 57.725H43.5749V58.5721L44.4105 58.7114L44.5749 57.725ZM44.5749 53.9L44.7592 52.9171L43.5749 52.6951V53.9H44.5749ZM47.4249 54.35L47.3058 55.3429L47.3081 55.3432L47.4249 54.35ZM51.9249 54.1L52.531 54.8955L52.5364 54.8913L51.9249 54.1ZM51.9249 51.25L51.2957 52.0272L51.3158 52.0435L51.3367 52.0587L51.9249 51.25ZM44.8749 51.05H43.8749V52.1299L44.9516 52.0471L44.8749 51.05ZM44.8749 41V40H43.8749V41H44.8749ZM55.7749 41H56.7749V40H55.7749V41ZM55.7749 44.7V45.7H56.7749V44.7H55.7749ZM48.9749 44.7V43.7H47.9749V44.7H48.9749ZM48.9749 47.425H47.9749V48.5118L49.058 48.4215L48.9749 47.425ZM51.4249 48.35C52.998 48.35 53.9955 48.7512 54.6095 49.3799C55.2277 50.013 55.6249 51.0483 55.6249 52.675H57.6249C57.6249 50.7517 57.1555 49.1245 56.0404 47.9826C54.921 46.8363 53.3185 46.35 51.4249 46.35V48.35ZM55.6249 52.675C55.6249 54.4174 55.1515 55.4959 54.3991 56.1407L55.7007 57.6593C57.0483 56.5041 57.6249 54.7659 57.6249 52.675H55.6249ZM54.3931 56.1459C53.6343 56.8068 52.2354 57.25 49.9499 57.25V59.25C52.3978 59.25 54.3988 58.7932 55.7067 57.6541L54.3931 56.1459ZM49.9499 57.25C48.5397 57.25 46.8062 57.0831 44.7393 56.7386L44.4105 58.7114C46.5436 59.0669 48.3935 59.25 49.9499 59.25V57.25ZM45.5749 57.725V53.9H43.5749V57.725H45.5749ZM44.3906 54.8829C45.473 55.0858 46.4454 55.2396 47.3058 55.3429L47.5441 53.3571C46.7378 53.2604 45.8101 53.1142 44.7592 52.9171L44.3906 54.8829ZM47.3081 55.3432C48.1966 55.4477 49.0856 55.5 49.9749 55.5V53.5C49.1642 53.5 48.3532 53.4523 47.5417 53.3568L47.3081 55.3432ZM49.9749 55.5C50.4911 55.5 50.9632 55.4643 51.3759 55.3796C51.7799 55.2967 52.1913 55.1542 52.531 54.8954L51.3189 53.3046C51.3085 53.3125 51.2199 53.3699 50.974 53.4204C50.7366 53.4691 50.4087 53.5 49.9749 53.5V55.5ZM52.5364 54.8913C53.2364 54.3503 53.4749 53.5277 53.4749 52.7H51.4749C51.4749 53.1723 51.3467 53.283 51.3135 53.3087L52.5364 54.8913ZM53.4749 52.7C53.4749 51.8593 53.2555 50.9812 52.5131 50.4413L51.3367 52.0587C51.3415 52.0622 51.3698 52.0811 51.4024 52.1672C51.4388 52.2632 51.4749 52.431 51.4749 52.7H53.4749ZM52.5541 50.4728C51.9147 49.9551 50.9586 49.825 49.9999 49.825V51.825C50.9078 51.825 51.2351 51.9782 51.2957 52.0272L52.5541 50.4728ZM49.9999 49.825C48.5008 49.825 46.7659 49.9016 44.7982 50.0529L44.9516 52.0471C46.8839 51.8984 48.5656 51.825 49.9999 51.825V49.825ZM45.8749 51.05V41H43.8749V51.05H45.8749ZM44.8749 42H55.7749V40H44.8749V42ZM54.7749 41V44.7H56.7749V41H54.7749ZM55.7749 43.7H48.9749V45.7H55.7749V43.7ZM47.9749 44.7V47.425H49.9749V44.7H47.9749ZM49.058 48.4215C49.6177 48.3749 50.4027 48.35 51.4249 48.35V46.35C50.3804 46.35 49.5321 46.3751 48.8919 46.4285L49.058 48.4215Z" fill="black"/>
<path d="M55.0499 56.9L54.3991 56.1407L54.3931 56.1459L55.0499 56.9ZM44.5749 57.725H43.5749V58.5721L44.4105 58.7114L44.5749 57.725ZM44.5749 53.9L44.7592 52.9171L43.5749 52.6951V53.9H44.5749ZM47.4249 54.35L47.3058 55.3429L47.3081 55.3432L47.4249 54.35ZM51.9249 54.1L52.531 54.8955L52.5364 54.8913L51.9249 54.1ZM51.9249 51.25L51.2957 52.0272L51.3158 52.0435L51.3367 52.0587L51.9249 51.25ZM44.8749 51.05H43.8749V52.1299L44.9516 52.0471L44.8749 51.05ZM44.8749 41V40H43.8749V41H44.8749ZM55.7749 41H56.7749V40H55.7749V41ZM55.7749 44.7V45.7H56.7749V44.7H55.7749ZM48.9749 44.7V43.7H47.9749V44.7H48.9749ZM48.9749 47.425H47.9749V48.5118L49.058 48.4215L48.9749 47.425ZM51.4249 48.35C52.998 48.35 53.9955 48.7512 54.6095 49.3799C55.2277 50.013 55.6249 51.0483 55.6249 52.675H57.6249C57.6249 50.7517 57.1555 49.1245 56.0404 47.9826C54.921 46.8363 53.3185 46.35 51.4249 46.35V48.35ZM55.6249 52.675C55.6249 54.4174 55.1515 55.4959 54.3991 56.1407L55.7007 57.6593C57.0483 56.5041 57.6249 54.7659 57.6249 52.675H55.6249ZM54.3931 56.1459C53.6343 56.8068 52.2354 57.25 49.9499 57.25V59.25C52.3978 59.25 54.3988 58.7932 55.7067 57.6541L54.3931 56.1459ZM49.9499 57.25C48.5397 57.25 46.8062 57.0831 44.7393 56.7386L44.4105 58.7114C46.5436 59.0669 48.3935 59.25 49.9499 59.25V57.25ZM45.5749 57.725V53.9H43.5749V57.725H45.5749ZM44.3906 54.8829C45.473 55.0858 46.4454 55.2396 47.3058 55.3429L47.5441 53.3571C46.7378 53.2604 45.8101 53.1142 44.7592 52.9171L44.3906 54.8829ZM47.3081 55.3432C48.1966 55.4477 49.0856 55.5 49.9749 55.5V53.5C49.1642 53.5 48.3532 53.4523 47.5417 53.3568L47.3081 55.3432ZM49.9749 55.5C50.4911 55.5 50.9632 55.4643 51.3759 55.3796C51.7799 55.2967 52.1913 55.1542 52.531 54.8954L51.3189 53.3046C51.3085 53.3125 51.2199 53.3699 50.974 53.4204C50.7366 53.4691 50.4087 53.5 49.9749 53.5V55.5ZM52.5364 54.8913C53.2364 54.3503 53.4749 53.5277 53.4749 52.7H51.4749C51.4749 53.1723 51.3467 53.283 51.3135 53.3087L52.5364 54.8913ZM53.4749 52.7C53.4749 51.8593 53.2555 50.9812 52.5131 50.4413L51.3367 52.0587C51.3415 52.0622 51.3698 52.0811 51.4024 52.1672C51.4388 52.2632 51.4749 52.431 51.4749 52.7H53.4749ZM52.5541 50.4728C51.9147 49.9551 50.9586 49.825 49.9999 49.825V51.825C50.9078 51.825 51.2351 51.9782 51.2957 52.0272L52.5541 50.4728ZM49.9999 49.825C48.5008 49.825 46.7659 49.9016 44.7982 50.0529L44.9516 52.0471C46.8839 51.8984 48.5656 51.825 49.9999 51.825V49.825ZM45.8749 51.05V41H43.8749V51.05H45.8749ZM44.8749 42H55.7749V40H44.8749V42ZM54.7749 41V44.7H56.7749V41H54.7749ZM55.7749 43.7H48.9749V45.7H55.7749V43.7ZM47.9749 44.7V47.425H49.9749V44.7H47.9749ZM49.058 48.4215C49.6177 48.3749 50.4027 48.35 51.4249 48.35V46.35C50.3804 46.35 49.5321 46.3751 48.8919 46.4285L49.058 48.4215Z" fill="url(#paint1_linear)"/>
<defs>
<linearGradient id="paint0_linear" x1="34.9064" y1="31.8873" x2="59.3754" y2="73.7617" gradientUnits="userSpaceOnUse">
<stop stop-color="#FF2D2D"/>
<stop offset="1" stop-color="#0085FA"/>
</linearGradient>
<linearGradient id="paint1_linear" x1="45.4707" y1="37.6396" x2="61.9174" y2="52.592" gradientUnits="userSpaceOnUse">
<stop stop-color="#FF2D2D"/>
<stop offset="1" stop-color="#0085FA"/>
</linearGradient>
</defs>
</svg>
