<svg width="100" height="100" viewBox="0 0 100 100" fill="none" xmlns="http://www.w3.org/2000/svg">
<circle cx="50" cy="50" r="50" fill="#0F0F0F"/>
<g clip-path="url(#clip0)">
<path d="M58.8958 32.08L58.8957 32.0798C58.7856 31.8173 58.534 31.6509 58.2555 31.6509H41.7438C41.4656 31.6509 41.2139 31.8171 41.1036 32.0797M58.8958 32.08L34.4801 45.7201C34.4958 45.882 34.3778 46.026 34.2162 46.0425C34.2035 46.0436 34.1933 46.044 34.1853 46.044C34.0357 46.044 33.9072 45.9297 33.8923 45.7773L33.8923 45.7773C33.8133 44.9697 33.7733 44.1497 33.7733 43.3405V39.0256C33.7733 38.732 33.9611 38.4672 34.244 38.3696L34.2441 38.3696C37.372 37.2887 39.8767 35.0012 41.1036 32.0797M58.8958 32.08C60.1225 35.0012 62.6274 37.2886 65.7554 38.3696C66.0385 38.4675 66.2261 38.7324 66.2261 39.0257V43.3406C66.2261 44.1404 66.1869 44.9512 66.1097 45.7504L66.1097 45.7505C66.0939 45.9135 65.9488 46.0318 65.7886 46.0159L65.7874 46.0158C65.6252 46.0001 65.5063 45.8559 65.522 45.6936L65.522 45.6935C65.5974 44.9132 65.6356 44.1217 65.6356 43.3406V39.3061V38.9578L65.3089 38.8371C62.2092 37.6923 59.7342 35.4123 58.4506 32.5376L58.3184 32.2415H57.994H42.0053H41.681L41.5487 32.5376C40.2652 35.4122 37.7904 37.6923 34.6906 38.8371L34.3638 38.9578M58.8958 32.08L34.3638 38.9578M41.1036 32.0797L40.6426 31.8861M41.1036 32.0797L40.6426 31.8861M40.6426 31.8861C40.8303 31.4394 41.2626 31.1509 41.7438 31.1509H58.2555C58.7371 31.1509 59.1694 31.4397 59.3568 31.8864L40.6426 31.8861ZM34.3638 38.9578V39.3061M34.3638 38.9578V39.3061M34.3638 39.3061V43.3406C34.3638 44.1308 34.4029 44.9312 34.4801 45.72L34.3638 39.3061Z" fill="black" stroke="url(#paint0_linear)"/>
<path d="M49.7672 67.1435L49.9998 67.2658L50.2325 67.1434L50.496 67.0049C50.496 67.0049 50.496 67.0049 50.4961 67.0049C55.1226 64.5731 58.9752 61.0786 61.6325 56.8932C63.1292 54.5359 64.2262 51.9938 64.8919 49.3377C64.9315 49.1797 65.0919 49.0835 65.2502 49.123C65.4085 49.1629 65.5043 49.3233 65.4647 49.4811C64.784 52.1967 63.6628 54.797 62.131 57.2096C59.4239 61.4735 55.4971 65.0433 50.7706 67.5275L50.7705 67.5275L50.322 67.7634L50.3219 67.7634C50.2212 67.8164 50.1105 67.8429 49.9998 67.8429C49.8891 67.8429 49.7784 67.8164 49.6775 67.7633L49.6773 67.7632L49.2289 67.5275L48.9963 67.9701L49.2289 67.5275C44.5025 65.0434 40.5758 61.4736 37.8687 57.2096C36.3344 54.7931 35.2122 52.1884 34.5319 49.4684L34.5318 49.4684C34.4923 49.3104 34.5883 49.1501 34.7464 49.1105C34.9052 49.0711 35.0654 49.1677 35.1047 49.3252L35.1047 49.3252C35.77 51.9857 36.8681 54.532 38.3672 56.8932L38.3672 56.8932C41.0244 61.0786 44.877 64.5732 49.5035 67.0049L49.7672 67.1435Z" fill="black"/>
<path d="M49.7672 67.1435L49.9998 67.2658L50.2325 67.1434L50.496 67.0049C50.496 67.0049 50.496 67.0049 50.4961 67.0049C55.1226 64.5731 58.9752 61.0786 61.6325 56.8932C63.1292 54.5359 64.2262 51.9938 64.8919 49.3377C64.9315 49.1797 65.0919 49.0835 65.2502 49.123C65.4085 49.1629 65.5043 49.3233 65.4647 49.4811C64.784 52.1967 63.6628 54.797 62.131 57.2096C59.4239 61.4735 55.4971 65.0433 50.7706 67.5275L50.7705 67.5275L50.322 67.7634L50.3219 67.7634C50.2212 67.8164 50.1105 67.8429 49.9998 67.8429C49.8891 67.8429 49.7784 67.8164 49.6775 67.7633L49.6773 67.7632L49.2289 67.5275L48.9963 67.9701L49.2289 67.5275C44.5025 65.0434 40.5758 61.4736 37.8687 57.2096C36.3344 54.7931 35.2122 52.1884 34.5319 49.4684L34.5318 49.4684C34.4923 49.3104 34.5883 49.1501 34.7464 49.1105C34.9052 49.0711 35.0654 49.1677 35.1047 49.3252L35.1047 49.3252C35.77 51.9857 36.8681 54.532 38.3672 56.8932L38.3672 56.8932C41.0244 61.0786 44.877 64.5732 49.5035 67.0049L49.7672 67.1435Z" stroke="black"/>
<path d="M49.7672 67.1435L49.9998 67.2658L50.2325 67.1434L50.496 67.0049C50.496 67.0049 50.496 67.0049 50.4961 67.0049C55.1226 64.5731 58.9752 61.0786 61.6325 56.8932C63.1292 54.5359 64.2262 51.9938 64.8919 49.3377C64.9315 49.1797 65.0919 49.0835 65.2502 49.123C65.4085 49.1629 65.5043 49.3233 65.4647 49.4811C64.784 52.1967 63.6628 54.797 62.131 57.2096C59.4239 61.4735 55.4971 65.0433 50.7706 67.5275L50.7705 67.5275L50.322 67.7634L50.3219 67.7634C50.2212 67.8164 50.1105 67.8429 49.9998 67.8429C49.8891 67.8429 49.7784 67.8164 49.6775 67.7633L49.6773 67.7632L49.2289 67.5275L48.9963 67.9701L49.2289 67.5275C44.5025 65.0434 40.5758 61.4736 37.8687 57.2096C36.3344 54.7931 35.2122 52.1884 34.5319 49.4684L34.5318 49.4684C34.4923 49.3104 34.5883 49.1501 34.7464 49.1105C34.9052 49.0711 35.0654 49.1677 35.1047 49.3252L35.1047 49.3252C35.77 51.9857 36.8681 54.532 38.3672 56.8932L38.3672 56.8932C41.0244 61.0786 44.877 64.5732 49.5035 67.0049L49.7672 67.1435Z" stroke="url(#paint1_linear)"/>
<path d="M52.6397 53.8142V54.3142H53.1397H55.4454C55.76 54.3142 56.0168 54.5709 56.0168 54.8855V57.8111C56.0168 58.1258 55.76 58.3826 55.4454 58.3826H44.3183C44.0036 58.3826 43.7468 58.1257 43.7468 57.8111V54.8855C43.7468 54.5709 44.0036 54.3142 44.3183 54.3142H47.1869H47.6869V53.8142V44.1221V43.059L46.8681 43.737L45.2684 45.0615C45.2684 45.0615 45.2683 45.0616 45.2683 45.0616C45.1503 45.1592 44.994 45.2061 44.8432 45.1895L44.8425 45.1894C44.6906 45.173 44.5476 45.0935 44.4536 44.9733L42.5316 42.5136C42.5316 42.5135 42.5315 42.5135 42.5315 42.5134C42.3402 42.2681 42.3767 41.9234 42.6145 41.7239L42.6145 41.7239L48.4749 36.8057C48.4749 36.8057 48.4749 36.8057 48.4749 36.8057C48.578 36.7193 48.7088 36.6719 48.8425 36.6719H52.0683C52.383 36.6719 52.6397 36.9286 52.6397 37.2432V53.8142ZM54.9262 57.792H55.4262V57.292V55.4047V54.9047H54.9262H52.6206C52.306 54.9047 52.0492 54.6479 52.0492 54.3333V37.7623V37.2623H51.5492H49.0315H48.8495L48.7101 37.3793L43.3782 41.854L43.0084 42.1643L43.3056 42.5448L44.5901 44.1888L44.9068 44.5942L45.303 44.2661L47.3418 42.5781L47.3419 42.5781C47.5156 42.4342 47.745 42.4051 47.9493 42.5011C48.1536 42.5972 48.2775 42.7925 48.2775 43.0183V54.3333C48.2775 54.648 48.0207 54.9047 47.7062 54.9047H44.8374H44.3374V55.4047V57.292V57.792H44.8374H54.9262Z" fill="black" stroke="url(#paint2_linear)"/>
<mask id="path-5-inside-1" fill="white">
<path d="M76.9943 54.7183C76.9582 54.3853 76.7561 54.1011 76.4533 53.9578C74.2089 52.8962 71.9078 51.9605 69.6026 51.1686C70.2992 48.6168 70.6571 45.987 70.6571 43.3402V35.834C70.6571 35.1789 70.143 34.6427 69.4872 34.6135C65.7168 34.4436 62.7211 31.7615 62.5188 28.3751C62.4803 27.7272 61.9441 27.2197 61.2982 27.2197H38.7012C38.0553 27.2197 37.5191 27.7272 37.4806 28.3749C37.2784 31.7616 34.2826 34.4436 30.5125 34.6135C29.8563 34.6428 29.3423 35.179 29.3423 35.834V43.3402C29.3423 45.9872 29.7002 48.6168 30.3968 51.1687C28.0919 51.9604 25.7909 52.8961 23.5463 53.9578C23.2435 54.1013 23.0414 54.3857 23.0055 54.7189C22.9698 55.052 23.1069 55.373 23.3727 55.5776C24.1809 56.1994 24.9952 56.8578 25.8087 57.5457C25.876 57.6026 25.9434 57.6595 26.0108 57.7169C26.1101 57.8014 26.2095 57.8869 26.3088 57.9724C26.3729 58.0276 26.437 58.0825 26.5011 58.1381C26.6099 58.2325 26.7187 58.3277 26.8274 58.4231C26.8812 58.4702 26.935 58.517 26.9888 58.5644C27.1513 58.7077 27.3136 58.852 27.4757 58.9976C27.3226 59.4962 27.1712 59.9981 27.022 60.5005C26.9784 60.6472 26.9361 60.7943 26.893 60.9412C26.8014 61.2529 26.709 61.5649 26.6195 61.8755C26.6182 61.88 26.6178 61.8848 26.6166 61.8893C26.2957 63.0039 25.9856 64.1208 25.69 65.2325C25.5951 65.5896 25.7169 65.9736 26.0006 66.2105C26.1753 66.3563 26.3938 66.4321 26.6141 66.4321C26.7519 66.432 26.8903 66.4024 27.019 66.342C30.1247 64.8839 33.3141 63.7122 36.5068 62.8549C39.3816 66.3313 43.0084 69.2641 47.1672 71.4498L49.431 72.6397C49.6091 72.7333 49.8042 72.7799 49.9995 72.7799C50.1949 72.7799 50.3902 72.7332 50.5682 72.6396L52.832 71.4498C56.9907 69.2641 60.6175 66.3313 63.4924 62.8549C66.685 63.7122 69.8743 64.8838 72.9801 66.3421C73.1089 66.4025 73.2474 66.4321 73.3851 66.4321C73.6054 66.4321 73.8241 66.3564 73.9986 66.2106C74.2823 65.9737 74.4043 65.5897 74.3092 65.2327C74.0034 64.082 73.6816 62.9263 73.3488 61.7733C73.3478 61.7695 73.3475 61.7657 73.3464 61.762C73.2454 61.4121 73.1433 61.0637 73.0408 60.7167C73.0143 60.6272 72.988 60.5377 72.9614 60.4483C72.8172 59.9628 72.672 59.4817 72.5267 59.0081C72.5255 59.0043 72.5244 59.0005 72.5232 58.9967C72.613 58.9159 72.7042 58.8352 72.7949 58.7546C72.8617 58.6951 72.928 58.6354 72.9952 58.5761C73.0786 58.5024 73.1632 58.429 73.2474 58.3555C73.3262 58.2866 73.4046 58.2175 73.4839 58.1488C73.5579 58.0846 73.6326 58.021 73.707 57.9571C73.7985 57.8784 73.8899 57.7998 73.9821 57.7213C74.0499 57.6636 74.1182 57.6064 74.1862 57.5491C74.9798 56.8795 75.7955 56.2203 76.6281 55.5772C76.8935 55.3723 77.0303 55.0513 76.9943 54.7183ZM26.2959 55.8792C25.9188 55.5665 25.5416 55.2594 25.1652 54.9603C27.0384 54.1099 28.9459 53.3497 30.856 52.6916C30.9998 53.1269 31.1542 53.5594 31.3179 53.989C30.5407 54.2564 29.7675 54.5397 29.0142 54.833C29.0004 54.8381 27.7488 55.3072 26.2959 55.8792ZM28.8441 58.09C28.6668 57.9292 28.4892 57.77 28.3114 57.6116C28.2596 57.5654 28.2077 57.5197 28.1558 57.4738C28.0236 57.3567 27.8914 57.2403 27.759 57.1246C27.7302 57.0994 27.7015 57.0738 27.6727 57.0487C28.7469 56.6317 29.5635 56.3257 29.5815 56.3189C30.3513 56.0191 31.1366 55.7326 31.9241 55.4629C32.4441 56.6397 33.0406 57.7903 33.7114 58.9079C32.6801 59.2163 31.6486 59.555 30.6334 59.9188C30.6207 59.9234 30.6081 59.9282 30.5959 59.9334C30.5834 59.9386 29.7106 60.302 28.6086 60.7484C28.6314 60.6718 28.6538 60.5948 28.6768 60.5182C28.705 60.4243 28.7332 60.3306 28.7615 60.2368C28.8781 59.8502 28.9956 59.4641 29.1147 59.0795C29.2242 58.7263 29.1177 58.3375 28.8441 58.09ZM27.5792 64.3384C27.7299 63.7891 27.8849 63.2395 28.0418 62.69C29.5399 62.0941 31.0065 61.4851 31.1886 61.4094C32.3138 61.0066 33.4589 60.6379 34.601 60.306C34.8724 60.7089 35.153 61.1061 35.4429 61.4972C32.8004 62.2415 30.1649 63.1936 27.5792 64.3384ZM64.3913 58.9446C64.3902 58.9462 64.3892 58.9479 64.3881 58.9495C61.4186 63.5392 57.1728 67.3715 52.0921 70.0418L49.9996 71.1415L47.9072 70.0418C42.8271 67.3717 38.5816 63.5399 35.6121 58.9509C35.6105 58.9484 35.6088 58.9459 35.6073 58.9434C35.5617 58.8729 35.5155 58.8029 35.4706 58.7321C32.502 54.0564 30.9329 48.7339 30.9329 43.3401V36.1804C35.2304 35.8353 38.6297 32.7439 39.0405 28.8101H60.9591C61.3699 32.7437 64.7688 35.8353 69.0667 36.1804V43.3401C69.0667 48.7339 67.4975 54.0564 64.5289 58.7321C64.4835 58.8034 64.4371 58.8737 64.3913 58.9446ZM70.8847 59.0798C70.8866 59.0861 70.8885 59.0924 70.8905 59.0985C71.004 59.4654 71.1162 59.834 71.2276 60.2031C71.2614 60.3148 71.295 60.4262 71.3287 60.5386C71.3432 60.5871 71.3574 60.6358 71.3719 60.6843C70.2743 60.2711 69.3983 59.931 69.3858 59.9261C69.3793 59.9236 69.3728 59.9212 69.3661 59.9187C68.3513 59.555 67.3198 59.2163 66.2881 58.9077C66.9589 57.7901 67.5553 56.6395 68.0753 55.4627C68.8613 55.7318 69.6461 56.0183 70.4165 56.3181C70.425 56.3214 70.4336 56.3247 70.4422 56.3276C70.4531 56.3314 71.2628 56.6149 72.3655 57.0128C72.3321 57.0419 72.2995 57.0712 72.2662 57.1002C72.1276 57.221 71.9898 57.3421 71.8529 57.4635C71.7984 57.5117 71.7439 57.5599 71.6898 57.6082C71.5098 57.7689 71.3306 57.9297 71.1536 58.091C71.0855 58.1531 71.0279 58.2238 70.9814 58.3006C70.8883 58.4542 70.84 58.6318 70.8425 58.8113C70.8435 58.9014 70.8574 58.9917 70.8847 59.0798ZM64.5564 61.4972C64.8465 61.1061 65.127 60.7089 65.3985 60.306C66.5441 60.639 67.6923 61.0087 68.8199 61.4126C68.9553 61.4652 70.4291 62.0361 71.9288 62.5894C72.0955 63.1723 72.2603 63.7555 72.4204 64.3384C69.8345 63.1935 67.1988 62.2414 64.5564 61.4972ZM73.7649 55.8288C72.324 55.3028 71.1191 54.8796 70.9809 54.8312C70.224 54.5368 69.4536 54.2546 68.6815 53.989C68.8453 53.5593 68.9997 53.1268 69.1435 52.6914C71.0541 53.3497 72.9621 54.1101 74.8356 54.9609C74.4749 55.2476 74.1181 55.5371 73.7649 55.8288Z"/>
</mask>
<path d="M76.9943 54.7183C76.9582 54.3853 76.7561 54.1011 76.4533 53.9578C74.2089 52.8962 71.9078 51.9605 69.6026 51.1686C70.2992 48.6168 70.6571 45.987 70.6571 43.3402V35.834C70.6571 35.1789 70.143 34.6427 69.4872 34.6135C65.7168 34.4436 62.7211 31.7615 62.5188 28.3751C62.4803 27.7272 61.9441 27.2197 61.2982 27.2197H38.7012C38.0553 27.2197 37.5191 27.7272 37.4806 28.3749C37.2784 31.7616 34.2826 34.4436 30.5125 34.6135C29.8563 34.6428 29.3423 35.179 29.3423 35.834V43.3402C29.3423 45.9872 29.7002 48.6168 30.3968 51.1687C28.0919 51.9604 25.7909 52.8961 23.5463 53.9578C23.2435 54.1013 23.0414 54.3857 23.0055 54.7189C22.9698 55.052 23.1069 55.373 23.3727 55.5776C24.1809 56.1994 24.9952 56.8578 25.8087 57.5457C25.876 57.6026 25.9434 57.6595 26.0108 57.7169C26.1101 57.8014 26.2095 57.8869 26.3088 57.9724C26.3729 58.0276 26.437 58.0825 26.5011 58.1381C26.6099 58.2325 26.7187 58.3277 26.8274 58.4231C26.8812 58.4702 26.935 58.517 26.9888 58.5644C27.1513 58.7077 27.3136 58.852 27.4757 58.9976C27.3226 59.4962 27.1712 59.9981 27.022 60.5005C26.9784 60.6472 26.9361 60.7943 26.893 60.9412C26.8014 61.2529 26.709 61.5649 26.6195 61.8755C26.6182 61.88 26.6178 61.8848 26.6166 61.8893C26.2957 63.0039 25.9856 64.1208 25.69 65.2325C25.5951 65.5896 25.7169 65.9736 26.0006 66.2105C26.1753 66.3563 26.3938 66.4321 26.6141 66.4321C26.7519 66.432 26.8903 66.4024 27.019 66.342C30.1247 64.8839 33.3141 63.7122 36.5068 62.8549C39.3816 66.3313 43.0084 69.2641 47.1672 71.4498L49.431 72.6397C49.6091 72.7333 49.8042 72.7799 49.9995 72.7799C50.1949 72.7799 50.3902 72.7332 50.5682 72.6396L52.832 71.4498C56.9907 69.2641 60.6175 66.3313 63.4924 62.8549C66.685 63.7122 69.8743 64.8838 72.9801 66.3421C73.1089 66.4025 73.2474 66.4321 73.3851 66.4321C73.6054 66.4321 73.8241 66.3564 73.9986 66.2106C74.2823 65.9737 74.4043 65.5897 74.3092 65.2327C74.0034 64.082 73.6816 62.9263 73.3488 61.7733C73.3478 61.7695 73.3475 61.7657 73.3464 61.762C73.2454 61.4121 73.1433 61.0637 73.0408 60.7167C73.0143 60.6272 72.988 60.5377 72.9614 60.4483C72.8172 59.9628 72.672 59.4817 72.5267 59.0081C72.5255 59.0043 72.5244 59.0005 72.5232 58.9967C72.613 58.9159 72.7042 58.8352 72.7949 58.7546C72.8617 58.6951 72.928 58.6354 72.9952 58.5761C73.0786 58.5024 73.1632 58.429 73.2474 58.3555C73.3262 58.2866 73.4046 58.2175 73.4839 58.1488C73.5579 58.0846 73.6326 58.021 73.707 57.9571C73.7985 57.8784 73.8899 57.7998 73.9821 57.7213C74.0499 57.6636 74.1182 57.6064 74.1862 57.5491C74.9798 56.8795 75.7955 56.2203 76.6281 55.5772C76.8935 55.3723 77.0303 55.0513 76.9943 54.7183ZM26.2959 55.8792C25.9188 55.5665 25.5416 55.2594 25.1652 54.9603C27.0384 54.1099 28.9459 53.3497 30.856 52.6916C30.9998 53.1269 31.1542 53.5594 31.3179 53.989C30.5407 54.2564 29.7675 54.5397 29.0142 54.833C29.0004 54.8381 27.7488 55.3072 26.2959 55.8792ZM28.8441 58.09C28.6668 57.9292 28.4892 57.77 28.3114 57.6116C28.2596 57.5654 28.2077 57.5197 28.1558 57.4738C28.0236 57.3567 27.8914 57.2403 27.759 57.1246C27.7302 57.0994 27.7015 57.0738 27.6727 57.0487C28.7469 56.6317 29.5635 56.3257 29.5815 56.3189C30.3513 56.0191 31.1366 55.7326 31.9241 55.4629C32.4441 56.6397 33.0406 57.7903 33.7114 58.9079C32.6801 59.2163 31.6486 59.555 30.6334 59.9188C30.6207 59.9234 30.6081 59.9282 30.5959 59.9334C30.5834 59.9386 29.7106 60.302 28.6086 60.7484C28.6314 60.6718 28.6538 60.5948 28.6768 60.5182C28.705 60.4243 28.7332 60.3306 28.7615 60.2368C28.8781 59.8502 28.9956 59.4641 29.1147 59.0795C29.2242 58.7263 29.1177 58.3375 28.8441 58.09ZM27.5792 64.3384C27.7299 63.7891 27.8849 63.2395 28.0418 62.69C29.5399 62.0941 31.0065 61.4851 31.1886 61.4094C32.3138 61.0066 33.4589 60.6379 34.601 60.306C34.8724 60.7089 35.153 61.1061 35.4429 61.4972C32.8004 62.2415 30.1649 63.1936 27.5792 64.3384ZM64.3913 58.9446C64.3902 58.9462 64.3892 58.9479 64.3881 58.9495C61.4186 63.5392 57.1728 67.3715 52.0921 70.0418L49.9996 71.1415L47.9072 70.0418C42.8271 67.3717 38.5816 63.5399 35.6121 58.9509C35.6105 58.9484 35.6088 58.9459 35.6073 58.9434C35.5617 58.8729 35.5155 58.8029 35.4706 58.7321C32.502 54.0564 30.9329 48.7339 30.9329 43.3401V36.1804C35.2304 35.8353 38.6297 32.7439 39.0405 28.8101H60.9591C61.3699 32.7437 64.7688 35.8353 69.0667 36.1804V43.3401C69.0667 48.7339 67.4975 54.0564 64.5289 58.7321C64.4835 58.8034 64.4371 58.8737 64.3913 58.9446ZM70.8847 59.0798C70.8866 59.0861 70.8885 59.0924 70.8905 59.0985C71.004 59.4654 71.1162 59.834 71.2276 60.2031C71.2614 60.3148 71.295 60.4262 71.3287 60.5386C71.3432 60.5871 71.3574 60.6358 71.3719 60.6843C70.2743 60.2711 69.3983 59.931 69.3858 59.9261C69.3793 59.9236 69.3728 59.9212 69.3661 59.9187C68.3513 59.555 67.3198 59.2163 66.2881 58.9077C66.9589 57.7901 67.5553 56.6395 68.0753 55.4627C68.8613 55.7318 69.6461 56.0183 70.4165 56.3181C70.425 56.3214 70.4336 56.3247 70.4422 56.3276C70.4531 56.3314 71.2628 56.6149 72.3655 57.0128C72.3321 57.0419 72.2995 57.0712 72.2662 57.1002C72.1276 57.221 71.9898 57.3421 71.8529 57.4635C71.7984 57.5117 71.7439 57.5599 71.6898 57.6082C71.5098 57.7689 71.3306 57.9297 71.1536 58.091C71.0855 58.1531 71.0279 58.2238 70.9814 58.3006C70.8883 58.4542 70.84 58.6318 70.8425 58.8113C70.8435 58.9014 70.8574 58.9917 70.8847 59.0798ZM64.5564 61.4972C64.8465 61.1061 65.127 60.7089 65.3985 60.306C66.5441 60.639 67.6923 61.0087 68.8199 61.4126C68.9553 61.4652 70.4291 62.0361 71.9288 62.5894C72.0955 63.1723 72.2603 63.7555 72.4204 64.3384C69.8345 63.1935 67.1988 62.2414 64.5564 61.4972ZM73.7649 55.8288C72.324 55.3028 71.1191 54.8796 70.9809 54.8312C70.224 54.5368 69.4536 54.2546 68.6815 53.989C68.8453 53.5593 68.9997 53.1268 69.1435 52.6914C71.0541 53.3497 72.9621 54.1101 74.8356 54.9609C74.4749 55.2476 74.1181 55.5371 73.7649 55.8288Z" fill="black" stroke="url(#paint3_linear)" stroke-width="2" mask="url(#path-5-inside-1)"/>
</g>
<defs>
<linearGradient id="paint0_linear" x1="38.7836" y1="33.5315" x2="42.816" y2="49.4655" gradientUnits="userSpaceOnUse">
<stop stop-color="#FF2D2D"/>
<stop offset="1" stop-color="#0085FA"/>
</linearGradient>
<linearGradient id="paint1_linear" x1="39.2857" y1="51.6546" x2="45.9095" y2="71.1475" gradientUnits="userSpaceOnUse">
<stop stop-color="#FF2D2D"/>
<stop offset="1" stop-color="#0085FA"/>
</linearGradient>
<linearGradient id="paint2_linear" x1="44.3151" y1="39.6842" x2="56.6703" y2="54.1342" gradientUnits="userSpaceOnUse">
<stop stop-color="#FF2D2D"/>
<stop offset="1" stop-color="#0085FA"/>
</linearGradient>
<linearGradient id="paint3_linear" x1="31.8947" y1="34.2658" x2="51.0542" y2="75.5566" gradientUnits="userSpaceOnUse">
<stop stop-color="#FF2D2D"/>
<stop offset="1" stop-color="#0085FA"/>
</linearGradient>
<clipPath id="clip0">
<rect width="54" height="54" fill="white" transform="translate(23 23)"/>
</clipPath>
</defs>
</svg>
