<svg width="100" height="100" viewBox="0 0 100 100" fill="none" xmlns="http://www.w3.org/2000/svg">
<circle cx="50" cy="50" r="50" fill="#0F0F0F"/>
<mask id="path-2-inside-1" fill="white">
<path fill-rule="evenodd" clip-rule="evenodd" d="M62.8313 27.0046L73.7884 48.0901L81.5893 43.0853L70.6322 22L62.8313 27.0046ZM74.8345 43.2731C74.335 43.1252 73.8855 42.7658 73.6051 42.2266C73.3284 41.6875 73.2707 41.076 73.4039 40.5211C73.533 39.9818 73.8424 39.4945 74.306 39.183L74.3887 39.1311C74.8634 38.8434 75.3955 38.7875 75.8807 38.9313C76.3695 39.075 76.8117 39.4265 77.0922 39.9457L77.1319 40.0256C77.3908 40.5529 77.441 41.1441 77.3115 41.6832C77.1785 42.2345 76.8587 42.7297 76.3769 43.0412L76.3625 43.0534C75.8806 43.3612 75.3305 43.4209 74.8345 43.2731ZM74.3745 41.7473C74.5326 42.0429 74.7842 42.2427 75.0612 42.3266C75.3449 42.4104 75.6579 42.3744 75.9273 42.2027L75.9381 42.1948C76.204 42.019 76.3839 41.7394 76.4593 41.4318C76.5348 41.1164 76.5025 40.7728 76.348 40.4693C76.1897 40.1656 75.9344 39.962 75.6543 39.878C75.3703 39.7941 75.0576 39.83 74.7842 40.006L74.7734 40.0139C74.5074 40.1857 74.3312 40.4652 74.2559 40.7728C74.1803 41.0884 74.2126 41.4358 74.3672 41.7354L74.3745 41.7473ZM45.695 31.6499C48.4883 29.4692 50.4151 30.3518 52.2303 31.1827C53.2479 31.6461 54.2254 32.0933 55.268 31.8378C58.3632 31.0748 60.5272 31.1628 61.8754 31.706C62.5799 31.9897 63.0833 32.4049 63.3923 32.8924C63.7195 33.4075 63.8345 33.9988 63.7484 34.6098C63.6476 35.3367 63.2593 36.0877 62.623 36.7549C60.6208 38.8438 57.3133 38.9118 54.0854 38.8717L64.2406 45.3863L70.7437 49.5563L72.1526 46.9003C68.8204 40.4973 65.3082 34.1945 62.159 27.6759L62.1556 27.6678L61.2101 27.9795C61.0556 28.0315 60.8975 27.9834 60.7859 27.8716C57.7377 24.8 55.7999 25.6868 53.9882 26.5175C52.8413 27.0407 51.7377 27.5441 50.4257 27.2207C47.5139 26.5017 45.5187 26.5696 44.3074 27.0568C43.7824 27.2687 43.4232 27.5561 43.2146 27.8837C43.0241 28.1834 42.9595 28.5308 43.0096 28.8902C43.0781 29.4056 43.3763 29.9568 43.8654 30.4679C44.1421 30.7555 44.455 31.0033 44.7927 31.2067C45.0766 31.3823 45.3788 31.5301 45.695 31.6499ZM32.0995 53.6621C35.7518 46.6323 39.4004 39.6065 43.0529 32.5766L35.2483 27.5678L24.2954 48.6533L32.0995 53.6621ZM30.8235 47.8984C31.0967 47.8145 31.3484 47.619 31.5029 47.3312L31.5137 47.3072C31.6719 47.0038 31.7044 46.6602 31.6289 46.3447C31.5532 46.0411 31.377 45.7614 31.1182 45.5858L31.0968 45.5738C30.8236 45.4021 30.5144 45.3662 30.2304 45.4501C29.9537 45.5339 29.6984 45.7336 29.5438 46.0294L29.5366 46.0413C29.3821 46.3409 29.3497 46.6883 29.4252 47.0039C29.4971 47.3115 29.6804 47.5908 29.9464 47.7669L29.9572 47.7707C30.2267 47.9465 30.5393 47.9824 30.8235 47.8984ZM32.2648 47.8226C31.9843 48.3458 31.5425 48.7012 31.0497 48.845C30.5501 48.993 29.9964 48.929 29.5147 48.6215C29.0296 48.3099 28.7059 47.8107 28.5729 47.2553C28.4398 46.7041 28.4939 46.093 28.7706 45.5578L28.7815 45.5418C29.0581 45.0065 29.5075 44.6512 30.0035 44.5034C30.5034 44.3557 31.0533 44.4196 31.5386 44.7273L31.56 44.7431C32.031 45.0546 32.3474 45.5459 32.4805 46.0932C32.6135 46.6483 32.5559 47.2594 32.2792 47.7986L32.2648 47.8226ZM79.8995 72.8185C80.1441 72.8185 80.3417 73.0382 80.3417 73.3098C80.3417 73.5775 80.1442 73.8012 79.8995 73.8012H37.7649C37.5206 73.8012 37.3227 73.5773 37.3227 73.3098C37.3227 73.0383 37.5204 72.8185 37.7649 72.8185H79.8995ZM55.2284 75.6664C55.4693 75.6664 55.6671 75.8859 55.6671 76.1577C55.6671 76.4292 55.4693 76.6489 55.2284 76.6489H26.071C25.8265 76.6489 25.6288 76.4293 25.6288 76.1577C25.6288 75.8861 25.8265 75.6664 26.071 75.6664H55.2284ZM23.0874 75.6664C23.33 75.6664 23.5294 75.8859 23.5294 76.1577C23.5294 76.4292 23.3298 76.6489 23.0874 76.6489H19.4422C19.1978 76.6489 19 76.4293 19 76.1577C19 75.8861 19.1978 75.6664 19.4422 75.6664H23.0874ZM81.5568 75.5786C81.8013 75.5786 81.999 75.798 81.999 76.0698C81.999 76.3415 81.8013 76.5611 81.5568 76.5611H67.7419C67.501 76.5611 67.2998 76.3415 67.2998 76.0698C67.2998 75.798 67.501 75.5786 67.7419 75.5786H81.5568ZM41.3563 63.8315C41.5683 63.9672 41.64 64.2667 41.518 64.4986C41.3993 64.7341 41.1296 64.8139 40.9176 64.6783L32.6172 59.3541C32.5128 59.2902 32.4409 59.1783 32.4121 59.0586L32.0529 57.5728L26.8835 54.2574C26.675 54.1215 26.6031 53.822 26.7215 53.5864C26.844 53.3548 27.1135 53.2749 27.3255 53.4067L32.6352 56.8137C32.7396 56.8737 32.8222 56.9855 32.8581 57.1213L33.214 58.6112L41.3563 63.8315ZM53.8157 61.5187L53.6359 61.3828H53.6324L53.6251 61.379V61.3749L53.6178 61.3711L53.6143 61.3672L53.607 61.3632L53.6 61.3553H53.5965L53.5929 61.3472H53.5894L53.5821 61.3392L53.5748 61.3311L53.5676 61.323H53.564L53.5605 61.3151H53.5569L53.5535 61.3071H53.5499L53.5463 61.299H53.5428L53.5392 61.2909L53.5357 61.2871L53.5321 61.2791L53.5248 61.271L53.5179 61.2629L53.5106 61.2511L53.507 61.243L53.4998 61.231L53.4962 61.2229L53.489 61.215V61.211L53.4854 61.2031L53.4818 61.1909H53.4783L53.4747 61.1829L53.4712 61.171L53.4676 61.163V61.1591L53.4642 61.1511V61.1471L53.4606 61.1391L53.4571 61.131V61.127L53.4535 61.1191V61.1152L53.4499 61.1071V61.1031L53.4464 61.0992V61.0954V61.0873L53.4428 61.0832V61.0755V61.0713L53.4392 61.0633V61.0595V61.0514V61.0475V61.0394L53.4357 61.0354V61.0316V61.0236V61.0196V61.0115V61.0076L53.4324 61.0036V60.9957V60.9916V60.9838V60.9797V60.9717V60.9679V60.9638V60.9557V60.9519V60.9438V60.9399L53.4357 60.932V60.928V60.9199V60.916V60.9079V60.904L53.4392 60.896V60.8919V60.8842L53.4428 60.872V60.8601L53.4464 60.8521V60.8481L53.4499 60.8402V60.8362L53.4535 60.8282V60.8242L53.4571 60.8162L53.4606 60.8041L53.4642 60.7923L53.4676 60.7802L53.4712 60.7722V60.7684L53.4747 60.7603L53.482 60.7483L53.4855 60.7364L53.4928 60.7283V60.7244L53.4964 60.7163L53.5036 60.7043L53.5109 60.6964L53.5181 60.6845L53.5214 60.6765V60.6723L53.5287 60.6643L53.5359 60.6562L53.5432 60.6485V60.6443L53.5505 60.6364L53.5576 60.6284L53.5648 60.6203L53.5757 60.6122L53.5829 60.6042L53.5902 60.5963L53.601 60.5882L53.608 60.5801L53.6152 60.5721L53.6261 60.5683L53.6333 60.5602L53.6441 60.5561V60.5523L53.6513 60.5485L53.6621 60.5444V60.5406L53.6693 60.5366L53.6802 60.5327L53.691 60.5287V60.5243L53.698 60.5203L53.7088 60.5164L53.7196 60.5124L53.7304 60.5085L53.7377 60.5047L53.7484 60.5007H53.7592V60.4967H53.77L53.7805 60.4928H53.7914L53.8022 60.4888H53.813L53.8238 60.4849H53.8311H53.8418H53.8526H53.8634H53.8848H53.8956H53.9064H53.9172H53.9279L53.9387 60.4888H53.9495L53.9601 60.4928H53.9709L53.9817 60.4967L53.9925 60.5007L54.0034 60.5047L54.0142 60.5085L54.0213 60.5124L54.0321 60.5164L54.0427 60.5203L54.0535 60.5243L54.0643 60.5282V60.5322L54.0751 60.5362L54.0824 60.5401L54.0932 60.5482L57.6377 62.8207C58.202 63.1844 58.8528 63.2561 59.4386 63.0805C60.0282 62.9047 60.5567 62.4812 60.8837 61.8541C61.2036 61.239 61.2721 60.532 61.1246 59.889C60.9773 59.2419 60.6105 58.6548 60.0679 58.2873C59.8628 58.1477 59.7946 57.8561 59.9131 57.6245C60.0354 57.3929 60.3049 57.3089 60.5134 57.4445C61.4266 58.0317 62.3612 58.6629 63.2851 59.2179C63.8459 59.5816 64.4966 59.6532 65.0859 59.4776C65.6718 59.302 66.2003 58.8784 66.5275 58.2514C66.8474 57.6362 66.9156 56.9294 66.7684 56.2823C66.6209 55.6391 66.2544 55.056 65.7114 54.6845C65.5065 54.5486 65.4383 54.2491 65.5569 54.0175C65.6791 53.7859 65.9486 53.706 66.1607 53.8419L69.4572 55.9548C70.0179 56.3141 70.6687 56.3863 71.2582 56.2105C71.8476 56.0347 72.3762 55.6154 72.7032 54.9922C73.0267 54.3651 73.0913 53.6421 72.9333 52.9911C72.7787 52.336 72.3977 51.7488 71.8334 51.3854L60.9447 44.3996C58.0293 42.5302 55.1139 40.6611 52.1986 38.7877C52.0655 38.7038 51.9721 38.5439 51.9756 38.3643C51.9756 38.0928 52.1732 37.873 52.4141 37.8771L53.5537 37.8889C56.7748 37.929 60.1609 37.9769 62.0195 36.0397C62.5083 35.5284 62.8068 34.9773 62.875 34.4619C62.9253 34.1026 62.8607 33.755 62.67 33.4554C62.4617 33.1281 62.1022 32.8403 61.5773 32.6286C60.3657 32.1414 58.3707 32.0735 55.4589 32.7924C54.1432 33.116 53.0432 32.6125 51.8963 32.0854C50.0845 31.2585 48.1436 30.3719 45.0987 33.4437C44.9872 33.5554 44.829 33.6033 44.6781 33.5513L43.7254 33.2398C40.3968 39.6506 37.0642 46.0612 33.732 52.4721L35.5329 55.8672C40.7202 59.1945 45.9651 62.7571 51.2172 65.9247C51.7815 66.2883 52.4287 66.3599 53.018 66.1843C53.6041 66.0087 54.1324 65.5851 54.4597 64.958C54.7795 64.3429 54.8478 63.6359 54.7005 62.993C54.5669 62.4137 54.2651 61.8902 53.8157 61.5187Z"/>
</mask>
<path fill-rule="evenodd" clip-rule="evenodd" d="M62.8313 27.0046L73.7884 48.0901L81.5893 43.0853L70.6322 22L62.8313 27.0046ZM74.8345 43.2731C74.335 43.1252 73.8855 42.7658 73.6051 42.2266C73.3284 41.6875 73.2707 41.076 73.4039 40.5211C73.533 39.9818 73.8424 39.4945 74.306 39.183L74.3887 39.1311C74.8634 38.8434 75.3955 38.7875 75.8807 38.9313C76.3695 39.075 76.8117 39.4265 77.0922 39.9457L77.1319 40.0256C77.3908 40.5529 77.441 41.1441 77.3115 41.6832C77.1785 42.2345 76.8587 42.7297 76.3769 43.0412L76.3625 43.0534C75.8806 43.3612 75.3305 43.4209 74.8345 43.2731ZM74.3745 41.7473C74.5326 42.0429 74.7842 42.2427 75.0612 42.3266C75.3449 42.4104 75.6579 42.3744 75.9273 42.2027L75.9381 42.1948C76.204 42.019 76.3839 41.7394 76.4593 41.4318C76.5348 41.1164 76.5025 40.7728 76.348 40.4693C76.1897 40.1656 75.9344 39.962 75.6543 39.878C75.3703 39.7941 75.0576 39.83 74.7842 40.006L74.7734 40.0139C74.5074 40.1857 74.3312 40.4652 74.2559 40.7728C74.1803 41.0884 74.2126 41.4358 74.3672 41.7354L74.3745 41.7473ZM45.695 31.6499C48.4883 29.4692 50.4151 30.3518 52.2303 31.1827C53.2479 31.6461 54.2254 32.0933 55.268 31.8378C58.3632 31.0748 60.5272 31.1628 61.8754 31.706C62.5799 31.9897 63.0833 32.4049 63.3923 32.8924C63.7195 33.4075 63.8345 33.9988 63.7484 34.6098C63.6476 35.3367 63.2593 36.0877 62.623 36.7549C60.6208 38.8438 57.3133 38.9118 54.0854 38.8717L64.2406 45.3863L70.7437 49.5563L72.1526 46.9003C68.8204 40.4973 65.3082 34.1945 62.159 27.6759L62.1556 27.6678L61.2101 27.9795C61.0556 28.0315 60.8975 27.9834 60.7859 27.8716C57.7377 24.8 55.7999 25.6868 53.9882 26.5175C52.8413 27.0407 51.7377 27.5441 50.4257 27.2207C47.5139 26.5017 45.5187 26.5696 44.3074 27.0568C43.7824 27.2687 43.4232 27.5561 43.2146 27.8837C43.0241 28.1834 42.9595 28.5308 43.0096 28.8902C43.0781 29.4056 43.3763 29.9568 43.8654 30.4679C44.1421 30.7555 44.455 31.0033 44.7927 31.2067C45.0766 31.3823 45.3788 31.5301 45.695 31.6499ZM32.0995 53.6621C35.7518 46.6323 39.4004 39.6065 43.0529 32.5766L35.2483 27.5678L24.2954 48.6533L32.0995 53.6621ZM30.8235 47.8984C31.0967 47.8145 31.3484 47.619 31.5029 47.3312L31.5137 47.3072C31.6719 47.0038 31.7044 46.6602 31.6289 46.3447C31.5532 46.0411 31.377 45.7614 31.1182 45.5858L31.0968 45.5738C30.8236 45.4021 30.5144 45.3662 30.2304 45.4501C29.9537 45.5339 29.6984 45.7336 29.5438 46.0294L29.5366 46.0413C29.3821 46.3409 29.3497 46.6883 29.4252 47.0039C29.4971 47.3115 29.6804 47.5908 29.9464 47.7669L29.9572 47.7707C30.2267 47.9465 30.5393 47.9824 30.8235 47.8984ZM32.2648 47.8226C31.9843 48.3458 31.5425 48.7012 31.0497 48.845C30.5501 48.993 29.9964 48.929 29.5147 48.6215C29.0296 48.3099 28.7059 47.8107 28.5729 47.2553C28.4398 46.7041 28.4939 46.093 28.7706 45.5578L28.7815 45.5418C29.0581 45.0065 29.5075 44.6512 30.0035 44.5034C30.5034 44.3557 31.0533 44.4196 31.5386 44.7273L31.56 44.7431C32.031 45.0546 32.3474 45.5459 32.4805 46.0932C32.6135 46.6483 32.5559 47.2594 32.2792 47.7986L32.2648 47.8226ZM79.8995 72.8185C80.1441 72.8185 80.3417 73.0382 80.3417 73.3098C80.3417 73.5775 80.1442 73.8012 79.8995 73.8012H37.7649C37.5206 73.8012 37.3227 73.5773 37.3227 73.3098C37.3227 73.0383 37.5204 72.8185 37.7649 72.8185H79.8995ZM55.2284 75.6664C55.4693 75.6664 55.6671 75.8859 55.6671 76.1577C55.6671 76.4292 55.4693 76.6489 55.2284 76.6489H26.071C25.8265 76.6489 25.6288 76.4293 25.6288 76.1577C25.6288 75.8861 25.8265 75.6664 26.071 75.6664H55.2284ZM23.0874 75.6664C23.33 75.6664 23.5294 75.8859 23.5294 76.1577C23.5294 76.4292 23.3298 76.6489 23.0874 76.6489H19.4422C19.1978 76.6489 19 76.4293 19 76.1577C19 75.8861 19.1978 75.6664 19.4422 75.6664H23.0874ZM81.5568 75.5786C81.8013 75.5786 81.999 75.798 81.999 76.0698C81.999 76.3415 81.8013 76.5611 81.5568 76.5611H67.7419C67.501 76.5611 67.2998 76.3415 67.2998 76.0698C67.2998 75.798 67.501 75.5786 67.7419 75.5786H81.5568ZM41.3563 63.8315C41.5683 63.9672 41.64 64.2667 41.518 64.4986C41.3993 64.7341 41.1296 64.8139 40.9176 64.6783L32.6172 59.3541C32.5128 59.2902 32.4409 59.1783 32.4121 59.0586L32.0529 57.5728L26.8835 54.2574C26.675 54.1215 26.6031 53.822 26.7215 53.5864C26.844 53.3548 27.1135 53.2749 27.3255 53.4067L32.6352 56.8137C32.7396 56.8737 32.8222 56.9855 32.8581 57.1213L33.214 58.6112L41.3563 63.8315ZM53.8157 61.5187L53.6359 61.3828H53.6324L53.6251 61.379V61.3749L53.6178 61.3711L53.6143 61.3672L53.607 61.3632L53.6 61.3553H53.5965L53.5929 61.3472H53.5894L53.5821 61.3392L53.5748 61.3311L53.5676 61.323H53.564L53.5605 61.3151H53.5569L53.5535 61.3071H53.5499L53.5463 61.299H53.5428L53.5392 61.2909L53.5357 61.2871L53.5321 61.2791L53.5248 61.271L53.5179 61.2629L53.5106 61.2511L53.507 61.243L53.4998 61.231L53.4962 61.2229L53.489 61.215V61.211L53.4854 61.2031L53.4818 61.1909H53.4783L53.4747 61.1829L53.4712 61.171L53.4676 61.163V61.1591L53.4642 61.1511V61.1471L53.4606 61.1391L53.4571 61.131V61.127L53.4535 61.1191V61.1152L53.4499 61.1071V61.1031L53.4464 61.0992V61.0954V61.0873L53.4428 61.0832V61.0755V61.0713L53.4392 61.0633V61.0595V61.0514V61.0475V61.0394L53.4357 61.0354V61.0316V61.0236V61.0196V61.0115V61.0076L53.4324 61.0036V60.9957V60.9916V60.9838V60.9797V60.9717V60.9679V60.9638V60.9557V60.9519V60.9438V60.9399L53.4357 60.932V60.928V60.9199V60.916V60.9079V60.904L53.4392 60.896V60.8919V60.8842L53.4428 60.872V60.8601L53.4464 60.8521V60.8481L53.4499 60.8402V60.8362L53.4535 60.8282V60.8242L53.4571 60.8162L53.4606 60.8041L53.4642 60.7923L53.4676 60.7802L53.4712 60.7722V60.7684L53.4747 60.7603L53.482 60.7483L53.4855 60.7364L53.4928 60.7283V60.7244L53.4964 60.7163L53.5036 60.7043L53.5109 60.6964L53.5181 60.6845L53.5214 60.6765V60.6723L53.5287 60.6643L53.5359 60.6562L53.5432 60.6485V60.6443L53.5505 60.6364L53.5576 60.6284L53.5648 60.6203L53.5757 60.6122L53.5829 60.6042L53.5902 60.5963L53.601 60.5882L53.608 60.5801L53.6152 60.5721L53.6261 60.5683L53.6333 60.5602L53.6441 60.5561V60.5523L53.6513 60.5485L53.6621 60.5444V60.5406L53.6693 60.5366L53.6802 60.5327L53.691 60.5287V60.5243L53.698 60.5203L53.7088 60.5164L53.7196 60.5124L53.7304 60.5085L53.7377 60.5047L53.7484 60.5007H53.7592V60.4967H53.77L53.7805 60.4928H53.7914L53.8022 60.4888H53.813L53.8238 60.4849H53.8311H53.8418H53.8526H53.8634H53.8848H53.8956H53.9064H53.9172H53.9279L53.9387 60.4888H53.9495L53.9601 60.4928H53.9709L53.9817 60.4967L53.9925 60.5007L54.0034 60.5047L54.0142 60.5085L54.0213 60.5124L54.0321 60.5164L54.0427 60.5203L54.0535 60.5243L54.0643 60.5282V60.5322L54.0751 60.5362L54.0824 60.5401L54.0932 60.5482L57.6377 62.8207C58.202 63.1844 58.8528 63.2561 59.4386 63.0805C60.0282 62.9047 60.5567 62.4812 60.8837 61.8541C61.2036 61.239 61.2721 60.532 61.1246 59.889C60.9773 59.2419 60.6105 58.6548 60.0679 58.2873C59.8628 58.1477 59.7946 57.8561 59.9131 57.6245C60.0354 57.3929 60.3049 57.3089 60.5134 57.4445C61.4266 58.0317 62.3612 58.6629 63.2851 59.2179C63.8459 59.5816 64.4966 59.6532 65.0859 59.4776C65.6718 59.302 66.2003 58.8784 66.5275 58.2514C66.8474 57.6362 66.9156 56.9294 66.7684 56.2823C66.6209 55.6391 66.2544 55.056 65.7114 54.6845C65.5065 54.5486 65.4383 54.2491 65.5569 54.0175C65.6791 53.7859 65.9486 53.706 66.1607 53.8419L69.4572 55.9548C70.0179 56.3141 70.6687 56.3863 71.2582 56.2105C71.8476 56.0347 72.3762 55.6154 72.7032 54.9922C73.0267 54.3651 73.0913 53.6421 72.9333 52.9911C72.7787 52.336 72.3977 51.7488 71.8334 51.3854L60.9447 44.3996C58.0293 42.5302 55.1139 40.6611 52.1986 38.7877C52.0655 38.7038 51.9721 38.5439 51.9756 38.3643C51.9756 38.0928 52.1732 37.873 52.4141 37.8771L53.5537 37.8889C56.7748 37.929 60.1609 37.9769 62.0195 36.0397C62.5083 35.5284 62.8068 34.9773 62.875 34.4619C62.9253 34.1026 62.8607 33.755 62.67 33.4554C62.4617 33.1281 62.1022 32.8403 61.5773 32.6286C60.3657 32.1414 58.3707 32.0735 55.4589 32.7924C54.1432 33.116 53.0432 32.6125 51.8963 32.0854C50.0845 31.2585 48.1436 30.3719 45.0987 33.4437C44.9872 33.5554 44.829 33.6033 44.6781 33.5513L43.7254 33.2398C40.3968 39.6506 37.0642 46.0612 33.732 52.4721L35.5329 55.8672C40.7202 59.1945 45.9651 62.7571 51.2172 65.9247C51.7815 66.2883 52.4287 66.3599 53.018 66.1843C53.6041 66.0087 54.1324 65.5851 54.4597 64.958C54.7795 64.3429 54.8478 63.6359 54.7005 62.993C54.5669 62.4137 54.2651 61.8902 53.8157 61.5187Z" stroke="black" stroke-width="2" mask="url(#path-2-inside-1)"/>
<path fill-rule="evenodd" clip-rule="evenodd" d="M62.8313 27.0046L73.7884 48.0901L81.5893 43.0853L70.6322 22L62.8313 27.0046ZM74.8345 43.2731C74.335 43.1252 73.8855 42.7658 73.6051 42.2266C73.3284 41.6875 73.2707 41.076 73.4039 40.5211C73.533 39.9818 73.8424 39.4945 74.306 39.183L74.3887 39.1311C74.8634 38.8434 75.3955 38.7875 75.8807 38.9313C76.3695 39.075 76.8117 39.4265 77.0922 39.9457L77.1319 40.0256C77.3908 40.5529 77.441 41.1441 77.3115 41.6832C77.1785 42.2345 76.8587 42.7297 76.3769 43.0412L76.3625 43.0534C75.8806 43.3612 75.3305 43.4209 74.8345 43.2731ZM74.3745 41.7473C74.5326 42.0429 74.7842 42.2427 75.0612 42.3266C75.3449 42.4104 75.6579 42.3744 75.9273 42.2027L75.9381 42.1948C76.204 42.019 76.3839 41.7394 76.4593 41.4318C76.5348 41.1164 76.5025 40.7728 76.348 40.4693C76.1897 40.1656 75.9344 39.962 75.6543 39.878C75.3703 39.7941 75.0576 39.83 74.7842 40.006L74.7734 40.0139C74.5074 40.1857 74.3312 40.4652 74.2559 40.7728C74.1803 41.0884 74.2126 41.4358 74.3672 41.7354L74.3745 41.7473ZM45.695 31.6499C48.4883 29.4692 50.4151 30.3518 52.2303 31.1827C53.2479 31.6461 54.2254 32.0933 55.268 31.8378C58.3632 31.0748 60.5272 31.1628 61.8754 31.706C62.5799 31.9897 63.0833 32.4049 63.3923 32.8924C63.7195 33.4075 63.8345 33.9988 63.7484 34.6098C63.6476 35.3367 63.2593 36.0877 62.623 36.7549C60.6208 38.8438 57.3133 38.9118 54.0854 38.8717L64.2406 45.3863L70.7437 49.5563L72.1526 46.9003C68.8204 40.4973 65.3082 34.1945 62.159 27.6759L62.1556 27.6678L61.2101 27.9795C61.0556 28.0315 60.8975 27.9834 60.7859 27.8716C57.7377 24.8 55.7999 25.6868 53.9882 26.5175C52.8413 27.0407 51.7377 27.5441 50.4257 27.2207C47.5139 26.5017 45.5187 26.5696 44.3074 27.0568C43.7824 27.2687 43.4232 27.5561 43.2146 27.8837C43.0241 28.1834 42.9595 28.5308 43.0096 28.8902C43.0781 29.4056 43.3763 29.9568 43.8654 30.4679C44.1421 30.7555 44.455 31.0033 44.7927 31.2067C45.0766 31.3823 45.3788 31.5301 45.695 31.6499ZM32.0995 53.6621C35.7518 46.6323 39.4004 39.6065 43.0529 32.5766L35.2483 27.5678L24.2954 48.6533L32.0995 53.6621ZM30.8235 47.8984C31.0967 47.8145 31.3484 47.619 31.5029 47.3312L31.5137 47.3072C31.6719 47.0038 31.7044 46.6602 31.6289 46.3447C31.5532 46.0411 31.377 45.7614 31.1182 45.5858L31.0968 45.5738C30.8236 45.4021 30.5144 45.3662 30.2304 45.4501C29.9537 45.5339 29.6984 45.7336 29.5438 46.0294L29.5366 46.0413C29.3821 46.3409 29.3497 46.6883 29.4252 47.0039C29.4971 47.3115 29.6804 47.5908 29.9464 47.7669L29.9572 47.7707C30.2267 47.9465 30.5393 47.9824 30.8235 47.8984ZM32.2648 47.8226C31.9843 48.3458 31.5425 48.7012 31.0497 48.845C30.5501 48.993 29.9964 48.929 29.5147 48.6215C29.0296 48.3099 28.7059 47.8107 28.5729 47.2553C28.4398 46.7041 28.4939 46.093 28.7706 45.5578L28.7815 45.5418C29.0581 45.0065 29.5075 44.6512 30.0035 44.5034C30.5034 44.3557 31.0533 44.4196 31.5386 44.7273L31.56 44.7431C32.031 45.0546 32.3474 45.5459 32.4805 46.0932C32.6135 46.6483 32.5559 47.2594 32.2792 47.7986L32.2648 47.8226ZM79.8995 72.8185C80.1441 72.8185 80.3417 73.0382 80.3417 73.3098C80.3417 73.5775 80.1442 73.8012 79.8995 73.8012H37.7649C37.5206 73.8012 37.3227 73.5773 37.3227 73.3098C37.3227 73.0383 37.5204 72.8185 37.7649 72.8185H79.8995ZM55.2284 75.6664C55.4693 75.6664 55.6671 75.8859 55.6671 76.1577C55.6671 76.4292 55.4693 76.6489 55.2284 76.6489H26.071C25.8265 76.6489 25.6288 76.4293 25.6288 76.1577C25.6288 75.8861 25.8265 75.6664 26.071 75.6664H55.2284ZM23.0874 75.6664C23.33 75.6664 23.5294 75.8859 23.5294 76.1577C23.5294 76.4292 23.3298 76.6489 23.0874 76.6489H19.4422C19.1978 76.6489 19 76.4293 19 76.1577C19 75.8861 19.1978 75.6664 19.4422 75.6664H23.0874ZM81.5568 75.5786C81.8013 75.5786 81.999 75.798 81.999 76.0698C81.999 76.3415 81.8013 76.5611 81.5568 76.5611H67.7419C67.501 76.5611 67.2998 76.3415 67.2998 76.0698C67.2998 75.798 67.501 75.5786 67.7419 75.5786H81.5568ZM41.3563 63.8315C41.5683 63.9672 41.64 64.2667 41.518 64.4986C41.3993 64.7341 41.1296 64.8139 40.9176 64.6783L32.6172 59.3541C32.5128 59.2902 32.4409 59.1783 32.4121 59.0586L32.0529 57.5728L26.8835 54.2574C26.675 54.1215 26.6031 53.822 26.7215 53.5864C26.844 53.3548 27.1135 53.2749 27.3255 53.4067L32.6352 56.8137C32.7396 56.8737 32.8222 56.9855 32.8581 57.1213L33.214 58.6112L41.3563 63.8315ZM53.8157 61.5187L53.6359 61.3828H53.6324L53.6251 61.379V61.3749L53.6178 61.3711L53.6143 61.3672L53.607 61.3632L53.6 61.3553H53.5965L53.5929 61.3472H53.5894L53.5821 61.3392L53.5748 61.3311L53.5676 61.323H53.564L53.5605 61.3151H53.5569L53.5535 61.3071H53.5499L53.5463 61.299H53.5428L53.5392 61.2909L53.5357 61.2871L53.5321 61.2791L53.5248 61.271L53.5179 61.2629L53.5106 61.2511L53.507 61.243L53.4998 61.231L53.4962 61.2229L53.489 61.215V61.211L53.4854 61.2031L53.4818 61.1909H53.4783L53.4747 61.1829L53.4712 61.171L53.4676 61.163V61.1591L53.4642 61.1511V61.1471L53.4606 61.1391L53.4571 61.131V61.127L53.4535 61.1191V61.1152L53.4499 61.1071V61.1031L53.4464 61.0992V61.0954V61.0873L53.4428 61.0832V61.0755V61.0713L53.4392 61.0633V61.0595V61.0514V61.0475V61.0394L53.4357 61.0354V61.0316V61.0236V61.0196V61.0115V61.0076L53.4324 61.0036V60.9957V60.9916V60.9838V60.9797V60.9717V60.9679V60.9638V60.9557V60.9519V60.9438V60.9399L53.4357 60.932V60.928V60.9199V60.916V60.9079V60.904L53.4392 60.896V60.8919V60.8842L53.4428 60.872V60.8601L53.4464 60.8521V60.8481L53.4499 60.8402V60.8362L53.4535 60.8282V60.8242L53.4571 60.8162L53.4606 60.8041L53.4642 60.7923L53.4676 60.7802L53.4712 60.7722V60.7684L53.4747 60.7603L53.482 60.7483L53.4855 60.7364L53.4928 60.7283V60.7244L53.4964 60.7163L53.5036 60.7043L53.5109 60.6964L53.5181 60.6845L53.5214 60.6765V60.6723L53.5287 60.6643L53.5359 60.6562L53.5432 60.6485V60.6443L53.5505 60.6364L53.5576 60.6284L53.5648 60.6203L53.5757 60.6122L53.5829 60.6042L53.5902 60.5963L53.601 60.5882L53.608 60.5801L53.6152 60.5721L53.6261 60.5683L53.6333 60.5602L53.6441 60.5561V60.5523L53.6513 60.5485L53.6621 60.5444V60.5406L53.6693 60.5366L53.6802 60.5327L53.691 60.5287V60.5243L53.698 60.5203L53.7088 60.5164L53.7196 60.5124L53.7304 60.5085L53.7377 60.5047L53.7484 60.5007H53.7592V60.4967H53.77L53.7805 60.4928H53.7914L53.8022 60.4888H53.813L53.8238 60.4849H53.8311H53.8418H53.8526H53.8634H53.8848H53.8956H53.9064H53.9172H53.9279L53.9387 60.4888H53.9495L53.9601 60.4928H53.9709L53.9817 60.4967L53.9925 60.5007L54.0034 60.5047L54.0142 60.5085L54.0213 60.5124L54.0321 60.5164L54.0427 60.5203L54.0535 60.5243L54.0643 60.5282V60.5322L54.0751 60.5362L54.0824 60.5401L54.0932 60.5482L57.6377 62.8207C58.202 63.1844 58.8528 63.2561 59.4386 63.0805C60.0282 62.9047 60.5567 62.4812 60.8837 61.8541C61.2036 61.239 61.2721 60.532 61.1246 59.889C60.9773 59.2419 60.6105 58.6548 60.0679 58.2873C59.8628 58.1477 59.7946 57.8561 59.9131 57.6245C60.0354 57.3929 60.3049 57.3089 60.5134 57.4445C61.4266 58.0317 62.3612 58.6629 63.2851 59.2179C63.8459 59.5816 64.4966 59.6532 65.0859 59.4776C65.6718 59.302 66.2003 58.8784 66.5275 58.2514C66.8474 57.6362 66.9156 56.9294 66.7684 56.2823C66.6209 55.6391 66.2544 55.056 65.7114 54.6845C65.5065 54.5486 65.4383 54.2491 65.5569 54.0175C65.6791 53.7859 65.9486 53.706 66.1607 53.8419L69.4572 55.9548C70.0179 56.3141 70.6687 56.3863 71.2582 56.2105C71.8476 56.0347 72.3762 55.6154 72.7032 54.9922C73.0267 54.3651 73.0913 53.6421 72.9333 52.9911C72.7787 52.336 72.3977 51.7488 71.8334 51.3854L60.9447 44.3996C58.0293 42.5302 55.1139 40.6611 52.1986 38.7877C52.0655 38.7038 51.9721 38.5439 51.9756 38.3643C51.9756 38.0928 52.1732 37.873 52.4141 37.8771L53.5537 37.8889C56.7748 37.929 60.1609 37.9769 62.0195 36.0397C62.5083 35.5284 62.8068 34.9773 62.875 34.4619C62.9253 34.1026 62.8607 33.755 62.67 33.4554C62.4617 33.1281 62.1022 32.8403 61.5773 32.6286C60.3657 32.1414 58.3707 32.0735 55.4589 32.7924C54.1432 33.116 53.0432 32.6125 51.8963 32.0854C50.0845 31.2585 48.1436 30.3719 45.0987 33.4437C44.9872 33.5554 44.829 33.6033 44.6781 33.5513L43.7254 33.2398C40.3968 39.6506 37.0642 46.0612 33.732 52.4721L35.5329 55.8672C40.7202 59.1945 45.9651 62.7571 51.2172 65.9247C51.7815 66.2883 52.4287 66.3599 53.018 66.1843C53.6041 66.0087 54.1324 65.5851 54.4597 64.958C54.7795 64.3429 54.8478 63.6359 54.7005 62.993C54.5669 62.4137 54.2651 61.8902 53.8157 61.5187Z" stroke="url(#paint0_linear)" stroke-width="2" mask="url(#path-2-inside-1)"/>
<defs>
<linearGradient id="paint0_linear" x1="29.3771" y1="30.4516" x2="52.769" y2="79.4837" gradientUnits="userSpaceOnUse">
<stop stop-color="#FF2D2D"/>
<stop offset="1" stop-color="#0085FA"/>
</linearGradient>
</defs>
</svg>
