<svg width="100" height="100" viewBox="0 0 100 100" fill="none" xmlns="http://www.w3.org/2000/svg">
<circle cx="50" cy="50" r="50" fill="#0F0F0F"/>
<mask id="path-2-inside-1" fill="white">
<path fill-rule="evenodd" clip-rule="evenodd" d="M65.1427 29.5275L65.1135 29.4984L65.0953 29.4838C64.4591 28.844 63.7244 28.2951 62.9211 27.866L62.9102 27.8877L62.8992 27.9097L62.8919 27.9279V27.9352L62.881 27.9571L62.8737 27.9788L62.8629 28.0006L62.8555 28.0225H62.8519L62.8447 28.0477L62.8337 28.0696L62.8228 28.0914L62.8155 28.1132L62.8044 28.135L62.7936 28.1569L62.7826 28.1786L62.7754 28.2005V28.2041L62.7645 28.2223L62.7537 28.2478L62.7427 28.2695L62.7319 28.2913L62.7245 28.3133L62.7137 28.335L62.7026 28.3568L62.6918 28.3822L62.6808 28.4004C62.5425 28.6914 62.3864 28.975 62.2264 29.2477C61.9428 29.7131 61.6264 30.1565 61.2774 30.5711C62.07 31.3237 63.0006 31.9382 64.0225 32.3745C65.0443 32.8071 66.1604 33.0653 67.3347 33.1017L67.3021 33L67.2911 32.9673L67.2839 32.9488L67.2655 32.8944L67.2511 32.8617L67.2474 32.8435L67.2112 32.7562L67.2076 32.7417L67.1895 32.6908L67.1713 32.6507L67.1676 32.6399L67.1494 32.5888L67.1312 32.5451L67.1276 32.5379L67.1058 32.4907L67.0877 32.4398L67.0658 32.3887L67.0439 32.3378L67.0222 32.2905L67.0004 32.2396L66.9967 32.236L66.9785 32.1923L66.9313 32.0942L66.9094 32.0433L66.9021 32.0324L66.8839 31.996L66.862 31.9451L66.8547 31.9306L66.8365 31.8979L66.8147 31.8508L66.8038 31.8325L66.7893 31.7997L66.7638 31.7525L66.753 31.7343L66.7385 31.7051L66.7131 31.6579L66.702 31.6326L66.6877 31.6108L66.6622 31.5635L66.6478 31.5382L66.6367 31.5162L66.6078 31.4692L66.5931 31.44L66.5823 31.4218L66.5569 31.3744L66.5388 31.3417L66.5277 31.3309L66.5023 31.2836L66.4805 31.2474L66.4733 31.2364L66.4441 31.1928L66.4222 31.1528L66.4187 31.1454L66.3895 31.1019L66.3643 31.0582L66.3606 31.0545L66.3314 31.0109L66.3021 30.9672V30.9637L66.2732 30.9201L66.244 30.8765L66.2403 30.8729L66.2114 30.8293L66.1821 30.7856L66.1786 30.782L66.1531 30.742L66.1205 30.6984L66.1168 30.6911L66.0914 30.6547L66.0588 30.611L66.0514 30.6002L66.026 30.5674L65.9967 30.5239L65.9642 30.4802L65.9314 30.4401L65.9206 30.4218L65.8989 30.3964L65.8659 30.3528L65.8516 30.3345L65.8335 30.3128L65.8005 30.2692L65.7823 30.2475L65.7679 30.2293L65.7318 30.1856L65.7134 30.1637L65.6988 30.1457L65.6663 30.1055L65.6409 30.0763L65.6299 30.0618L65.5936 30.0182L65.5718 29.9928L65.5574 29.9783L65.5209 29.9347L65.4991 29.9093L65.4846 29.8948L65.4484 29.8512L65.4267 29.8259L65.4079 29.8111L65.3717 29.771L65.3354 29.7275L65.2954 29.6874L65.2735 29.6656L65.259 29.6474L65.219 29.6073L65.1971 29.5856L65.1827 29.5673L65.1427 29.5275ZM49.9629 32.5636C50.4464 32.7634 50.9556 32.9234 51.4791 33.0398C52.119 33.1816 52.7953 33.2579 53.4935 33.2579C55.4859 33.2579 57.3293 32.629 58.8383 31.5599C59.3582 31.1927 59.8417 30.7709 60.2743 30.3019L60.2818 30.2947L60.2962 30.2765C60.7217 29.8183 61.1033 29.3092 61.4269 28.7676C61.6015 28.484 61.7577 28.1895 61.8997 27.884L61.9068 27.8658L61.9141 27.8513L61.9179 27.8441L61.9286 27.8221L61.9504 27.7749L61.9542 27.7605L61.9652 27.7422L61.9722 27.7205L61.9833 27.6986L61.9907 27.6768L62.0015 27.6586L62.0269 27.5931L62.0378 27.5749L62.0451 27.5532L62.0488 27.5458L62.0523 27.5314L62.0632 27.5095L62.0705 27.4913L62.0814 27.4693C61.0963 27.0624 60.0271 26.8186 58.9074 26.7785H58.9L58.8092 26.7751H58.7837L58.7765 26.7715H58.7438H58.7256H58.7111H58.6782H58.6675H58.6457H58.5509H58.4563H58.4308C58.3146 26.7715 58.2018 26.7751 58.0854 26.7825H58.0746C57.838 26.797 57.6019 26.8152 57.3691 26.8442L57.3547 26.8479C55.2748 27.1133 53.4134 28.0731 52.0026 29.4838C51.9264 29.5602 51.8499 29.6366 51.7774 29.7129L51.7699 29.7238L51.7227 29.7747L51.6973 29.8039L51.621 29.8875L51.61 29.8985C50.9192 30.6801 50.3591 31.5782 49.9629 32.5636ZM60.6451 31.2509C60.2523 31.64 59.8272 31.9962 59.3762 32.3162C57.7147 33.4942 55.6822 34.1887 53.4935 34.1887C52.7374 34.1887 51.9956 34.1051 51.2791 33.9452C50.7194 33.8215 50.1776 33.6507 49.6574 33.4399C49.4176 34.2616 49.2903 35.1306 49.2903 36.0323C49.2903 38.5883 50.3265 40.9043 52.0026 42.5805C53.6789 44.253 55.9912 45.2928 58.5509 45.2928C61.1067 45.2928 63.4228 44.2531 65.0954 42.5805C66.7716 40.9043 67.8079 38.5883 67.8079 36.0323C67.8079 35.3451 67.735 34.6798 67.593 34.0363C66.197 34.0326 64.8663 33.7417 63.6591 33.2291C62.5357 32.7524 61.5176 32.0761 60.6451 31.2509ZM62.0811 51.5061V45.5906C60.9832 45.9979 59.7905 46.2233 58.5508 46.2233C57.1728 46.2233 55.8602 45.9471 54.6641 45.4524V51.8117L58.1653 59.276L62.0811 51.5061ZM62.9428 51.7862C62.9321 51.8043 62.9246 51.8262 62.9102 51.8444L58.5471 60.4941C58.5035 60.5813 58.4306 60.654 58.34 60.6977C58.1145 60.803 57.849 60.7049 57.7473 60.4832L56.6892 58.2289L53.8315 52.1353C53.8168 52.1098 53.8061 52.0844 53.7951 52.0552L52.0318 48.2957C49.9956 49.0885 48.2576 49.7211 46.789 50.259C40.368 52.6006 39.2119 53.0224 39.1172 57.5853C39.0773 59.505 39.6555 61.1883 40.6916 62.6318C41.7135 64.0571 43.1821 65.2569 44.9529 66.224V58.3486C44.9563 58.1415 45.0983 57.956 45.3091 57.9123C45.549 57.8614 45.7853 58.014 45.8364 58.254L47.7561 67.2673C51.3228 69.0017 54.9623 69.9361 58.5946 69.9688C62.096 70.0015 65.601 69.198 69.0295 67.4745L70.9019 58.2942C70.9273 58.0724 71.1164 57.9015 71.3456 57.9015C71.5929 57.9015 71.7927 58.1014 71.7927 58.3486V66.1329C73.6543 65.0749 75.185 63.7477 76.2067 62.1371C77.232 60.5228 77.7481 58.6141 77.5737 56.4145C77.2936 52.935 75.814 52.3969 69.9639 50.2626C68.4912 49.7245 66.7461 49.0882 64.703 48.2883L62.9465 51.7753L62.9428 51.7862ZM32.9001 35.9048C32.9945 35.7885 33.0672 35.6503 33.1146 35.4902C33.1654 35.3267 33.1872 35.1412 33.1872 34.9303C33.1872 34.4977 33.0929 34.1778 32.9037 33.9596C32.711 33.7488 32.464 33.6396 32.1549 33.6396C31.8458 33.6396 31.5985 33.7488 31.4058 33.9634C31.2169 34.178 31.1186 34.5013 31.1186 34.9342C31.1186 35.3705 31.2169 35.7012 31.4058 35.9158C31.5985 36.1339 31.8385 36.2431 32.133 36.2431C32.242 36.2431 32.3438 36.2249 32.4421 36.1884C32.2894 36.0902 32.133 36.0103 31.9766 35.9558L32.1875 35.516C32.4345 35.603 32.6709 35.7302 32.9001 35.9048ZM33.5035 36.3301C33.6891 36.461 33.8889 36.5664 34.107 36.6465L33.8308 37.1845C33.7181 37.1518 33.6053 37.1045 33.4962 37.0428C33.4743 37.0319 33.3072 36.9191 32.9945 36.7083C32.7508 36.8173 32.4782 36.8719 32.18 36.8719C31.6057 36.8719 31.1547 36.7008 30.8276 36.3627C30.504 36.021 30.3405 35.5447 30.3405 34.9302C30.3405 34.3194 30.504 33.8431 30.8312 33.505C31.1584 33.1633 31.6021 32.9923 32.1583 32.9923C32.7146 32.9923 33.1546 33.1633 33.4781 33.505C33.8053 33.8431 33.9691 34.3194 33.9691 34.9302C33.9691 35.2539 33.9217 35.5375 33.8308 35.7845C33.7617 35.9702 33.6526 36.1555 33.5035 36.3301ZM28.7078 35.3196L28.1879 33.9342L27.6825 35.3196H28.7078ZM30.0931 36.8029H29.2786L28.9551 35.9522H27.4535L27.1444 36.8029H26.3407L27.7952 33.0615H28.595L30.0931 36.8029ZM23.8177 36.8029V33.0615H26.3918V33.6942H24.5775V34.5814H26.1444V35.214H24.5775V36.8029H23.8177ZM37.9466 31.8471V37.8025C37.9466 38.2573 37.852 38.6935 37.6885 39.0933C37.5175 39.5079 37.2631 39.8787 36.954 40.1915C36.6415 40.5041 36.267 40.7586 35.8558 40.9297C35.4524 41.0932 35.0161 41.1877 34.5616 41.1877H27.9843L27.759 41.3259C27.9188 41.6968 28.1843 42.0131 28.5152 42.2349C28.8388 42.4495 29.2277 42.5729 29.6424 42.5729H36.4702C36.5685 42.5729 36.6631 42.6056 36.7357 42.6638L40.6479 45.0889V43.02C40.6479 42.7728 40.8479 42.5727 41.0952 42.5727H41.7168C42.2805 42.5727 42.7893 42.3437 43.1601 41.9729C43.5276 41.602 43.7601 41.0931 43.7601 40.5295V33.8906C43.7601 33.3307 43.5276 32.818 43.1601 32.4471L43.1383 32.4254C42.7711 32.069 42.2657 31.8472 41.7168 31.8472H37.9466V31.8471ZM34.5616 28.6731H22.487C22.1524 28.6731 21.8289 28.7422 21.538 28.8622C21.2362 28.9859 20.9599 29.1748 20.7308 29.4038C20.28 29.8546 20 30.4765 20 31.1638V37.8025C20 38.2281 20.0728 38.5844 20.2036 38.8788C20.3381 39.1953 20.5419 39.4461 20.7926 39.6461C21.0217 39.8315 21.2943 39.9697 21.5961 40.0714C21.9342 40.1877 22.3089 40.2531 22.6941 40.2823L23.1086 40.3077L23.1122 43.1654L27.6244 40.3621L27.8569 40.2932H34.5615C34.8995 40.2932 35.2196 40.2277 35.5102 40.1041C35.8157 39.9769 36.0922 39.7915 36.321 39.5624C36.5502 39.3296 36.7355 39.0571 36.8628 38.7516C36.9828 38.4606 37.052 38.1409 37.052 37.8025V31.6071C37.0192 31.5454 37.001 31.4763 37.001 31.3998C37.001 31.3272 37.0192 31.2581 37.052 31.1963V31.1636C37.052 30.8254 36.9829 30.5055 36.8628 30.2145C36.7393 29.9092 36.5502 29.6365 36.321 29.4037C35.8705 28.953 35.245 28.6731 34.5616 28.6731ZM35.8413 73.4849C35.594 73.4849 35.3942 73.2849 35.3942 73.0376C35.3942 72.7903 35.594 72.5904 35.8413 72.5904H66.4405C66.688 72.5904 66.8878 72.7903 66.8878 73.0376C66.8878 73.2849 66.688 73.4849 66.4405 73.4849H35.8413ZM53.7587 75.3465C53.5114 75.3465 53.3113 75.1465 53.3113 74.8992C53.3113 74.6519 53.5114 74.4519 53.7587 74.4519H74.9338C75.1812 74.4519 75.3809 74.6519 75.3809 74.8992C75.3809 75.1465 75.1812 75.3465 74.9338 75.3465H53.7587ZM77.1009 75.3465C76.8534 75.3465 76.6535 75.1465 76.6535 74.8992C76.6535 74.6519 76.8534 74.4519 77.1009 74.4519H79.7478C79.995 74.4519 80.1949 74.6519 80.1949 74.8992C80.1949 75.1465 79.995 75.3465 79.7478 75.3465H77.1009ZM34.6341 75.2919C34.3905 75.2919 34.187 75.0919 34.187 74.8446C34.187 74.5973 34.3905 74.3973 34.6341 74.3973H44.6692C44.9163 74.3973 45.1164 74.5973 45.1164 74.8446C45.1164 75.0919 44.9164 75.2919 44.6692 75.2919H34.6341ZM39.041 49.3865C39.2336 49.2337 39.5135 49.2631 39.6699 49.4519C39.8226 49.6446 39.7934 49.9245 39.6044 50.0773C39.5862 50.0918 33.9798 54.6039 35.6268 57.1707C36.3577 58.316 36.3867 59.3159 36.4121 60.294C36.452 61.7919 36.4921 63.2246 39.9934 65.0423C40.2115 65.1588 40.2986 65.4277 40.1826 65.6459C40.0699 65.8641 39.8007 65.9513 39.5826 65.8348C35.6158 63.7734 35.5687 62.0862 35.5214 60.312C35.4995 59.4648 35.4741 58.5886 34.874 57.6541C32.798 54.4075 39.0228 49.401 39.041 49.3865ZM58.7981 25.8445H58.8125H58.9034L58.936 25.848H58.9434H58.9725L59.0088 25.8515H59.0415L59.0742 25.8551H59.078H59.1143L59.147 25.8589H59.1832L59.2051 25.8623H59.2159H59.2523L59.2886 25.8659L59.3214 25.8696H59.3321L59.3577 25.873H59.3902L59.4266 25.8768L59.4593 25.8803H59.4629L59.4958 25.8839L59.5321 25.8874L59.5645 25.8912L59.772 25.9129L59.8082 25.9164C62.1208 26.2037 64.1932 27.2617 65.7564 28.8252L65.7818 28.8506C67.6072 30.6938 68.7379 33.2317 68.7379 36.0313C68.7379 38.2748 68.0106 40.3507 66.782 42.0377L66.7927 42.0413L66.8289 42.0486C67.0145 42.0996 67.2108 42.1251 67.4109 42.1251C68.2397 42.1251 68.8214 41.6706 69.2069 40.9361C69.6251 40.1433 69.8286 39.0381 69.8759 37.8092C69.9194 36.5512 69.7996 35.1623 69.5668 33.8389C69.0725 31.0247 68.1271 28.545 67.2837 28.3305L67.2073 28.3013C66.9855 28.196 66.8873 27.9305 66.9928 27.7087C67.0655 27.5526 67.12 27.389 67.1599 27.2215C67.1926 27.0616 67.2145 26.8869 67.2145 26.7053C67.2145 26.0654 66.9598 25.491 66.5526 25.0727C66.1455 24.6582 65.5854 24.4038 64.9638 24.4038C64.7383 24.4038 64.5239 24.4365 64.3276 24.4946L64.2947 24.5055C64.0802 24.5746 63.8766 24.6764 63.6949 24.8036L63.6875 24.8073C63.502 24.9381 63.2403 24.9089 63.0911 24.731C62.9022 24.5092 62.6696 24.3274 62.4077 24.2L62.3823 24.1891C62.1205 24.0654 61.8295 24 61.5205 24H55.576C55.2669 24 54.9758 24.0654 54.7141 24.1891C54.4452 24.3128 54.2052 24.4981 54.0124 24.7235L54.0052 24.731C53.8597 24.9054 53.6015 24.9417 53.4089 24.8073C53.2269 24.6798 53.0199 24.5746 52.8017 24.5054C52.5943 24.4399 52.3689 24.4037 52.1327 24.4037C51.5146 24.4037 50.951 24.6581 50.5438 25.0725C50.1367 25.4907 49.8857 26.0652 49.8857 26.7051C49.8857 26.8869 49.9039 27.0616 49.9401 27.2214C49.9729 27.3777 50.0274 27.5305 50.0929 27.6758C50.1111 27.7122 50.1255 27.7487 50.1365 27.7885C50.1946 28.025 50.0526 28.2685 49.8128 28.3304C48.9731 28.5449 48.0241 31.0281 47.5295 33.8388C47.2967 35.1622 47.1769 36.5511 47.2242 37.8091C47.2678 39.038 47.475 40.1432 47.8894 40.9359C48.2749 41.6705 48.8603 42.1249 49.6856 42.1249C49.8892 42.1249 50.0856 42.0994 50.2674 42.0485L50.3183 42.034C49.0858 40.3506 48.3587 38.2745 48.3587 36.0312C48.3587 33.6171 49.1984 31.3955 50.6054 29.6504L50.6091 29.6429L50.7289 29.4977L50.7654 29.4575L50.7908 29.4248L50.9181 29.2757L50.9252 29.2721L50.9874 29.2031L51.0056 29.1814L51.0528 29.1302L51.089 29.0903L51.1182 29.0576L51.2525 28.9157L51.2562 28.9122L51.3216 28.8468L51.3434 28.8249L51.3907 28.7778C51.5762 28.5958 51.7689 28.4178 51.9688 28.2506L51.9725 28.247L52.0413 28.1888C52.2669 27.9998 52.5031 27.8215 52.743 27.6544L52.7504 27.6508L52.8195 27.5998C53.2158 27.3308 53.6302 27.0908 54.063 26.88L54.1284 26.8472L54.1501 26.8362C54.2666 26.7818 54.3828 26.7271 54.5028 26.6762L54.5827 26.64L54.5901 26.6363L54.6773 26.6002L54.6955 26.5927L54.7684 26.5635L54.9501 26.4946L55.0409 26.4619L55.0445 26.4583L55.1318 26.4256L55.161 26.4146L55.2229 26.3964L55.2809 26.3746L55.3174 26.3637L55.3972 26.3345H55.4081L55.5027 26.3018L55.5173 26.2983L55.5936 26.2728L55.6372 26.262L55.6882 26.2475L55.7573 26.2255L55.7824 26.2183L55.8772 26.1928H55.8807L55.9717 26.1674L56.0006 26.1601L56.066 26.1456L56.1244 26.1312L56.1606 26.1203L56.2479 26.102L56.2589 26.0985L56.3533 26.0766L56.3714 26.0731L56.3826 26.0694L56.4952 26.0476L56.5497 26.0367L56.6188 26.0223L56.6442 26.0186L56.7422 26.0004H56.7458L56.8406 25.9821L56.8698 25.9786L57.124 25.9384L57.1351 25.935L57.2368 25.9242L57.2512 25.9205C57.4113 25.9023 57.5713 25.8841 57.7347 25.8731L57.7639 25.8697L57.8365 25.8661L57.8948 25.8624L58.0221 25.8551L58.0366 25.8515L58.153 25.848L58.2402 25.8445H58.2838L58.5493 25.8407L58.7981 25.8445Z"/>
</mask>
<path fill-rule="evenodd" clip-rule="evenodd" d="M65.1427 29.5275L65.1135 29.4984L65.0953 29.4838C64.4591 28.844 63.7244 28.2951 62.9211 27.866L62.9102 27.8877L62.8992 27.9097L62.8919 27.9279V27.9352L62.881 27.9571L62.8737 27.9788L62.8629 28.0006L62.8555 28.0225H62.8519L62.8447 28.0477L62.8337 28.0696L62.8228 28.0914L62.8155 28.1132L62.8044 28.135L62.7936 28.1569L62.7826 28.1786L62.7754 28.2005V28.2041L62.7645 28.2223L62.7537 28.2478L62.7427 28.2695L62.7319 28.2913L62.7245 28.3133L62.7137 28.335L62.7026 28.3568L62.6918 28.3822L62.6808 28.4004C62.5425 28.6914 62.3864 28.975 62.2264 29.2477C61.9428 29.7131 61.6264 30.1565 61.2774 30.5711C62.07 31.3237 63.0006 31.9382 64.0225 32.3745C65.0443 32.8071 66.1604 33.0653 67.3347 33.1017L67.3021 33L67.2911 32.9673L67.2839 32.9488L67.2655 32.8944L67.2511 32.8617L67.2474 32.8435L67.2112 32.7562L67.2076 32.7417L67.1895 32.6908L67.1713 32.6507L67.1676 32.6399L67.1494 32.5888L67.1312 32.5451L67.1276 32.5379L67.1058 32.4907L67.0877 32.4398L67.0658 32.3887L67.0439 32.3378L67.0222 32.2905L67.0004 32.2396L66.9967 32.236L66.9785 32.1923L66.9313 32.0942L66.9094 32.0433L66.9021 32.0324L66.8839 31.996L66.862 31.9451L66.8547 31.9306L66.8365 31.8979L66.8147 31.8508L66.8038 31.8325L66.7893 31.7997L66.7638 31.7525L66.753 31.7343L66.7385 31.7051L66.7131 31.6579L66.702 31.6326L66.6877 31.6108L66.6622 31.5635L66.6478 31.5382L66.6367 31.5162L66.6078 31.4692L66.5931 31.44L66.5823 31.4218L66.5569 31.3744L66.5388 31.3417L66.5277 31.3309L66.5023 31.2836L66.4805 31.2474L66.4733 31.2364L66.4441 31.1928L66.4222 31.1528L66.4187 31.1454L66.3895 31.1019L66.3643 31.0582L66.3606 31.0545L66.3314 31.0109L66.3021 30.9672V30.9637L66.2732 30.9201L66.244 30.8765L66.2403 30.8729L66.2114 30.8293L66.1821 30.7856L66.1786 30.782L66.1531 30.742L66.1205 30.6984L66.1168 30.6911L66.0914 30.6547L66.0588 30.611L66.0514 30.6002L66.026 30.5674L65.9967 30.5239L65.9642 30.4802L65.9314 30.4401L65.9206 30.4218L65.8989 30.3964L65.8659 30.3528L65.8516 30.3345L65.8335 30.3128L65.8005 30.2692L65.7823 30.2475L65.7679 30.2293L65.7318 30.1856L65.7134 30.1637L65.6988 30.1457L65.6663 30.1055L65.6409 30.0763L65.6299 30.0618L65.5936 30.0182L65.5718 29.9928L65.5574 29.9783L65.5209 29.9347L65.4991 29.9093L65.4846 29.8948L65.4484 29.8512L65.4267 29.8259L65.4079 29.8111L65.3717 29.771L65.3354 29.7275L65.2954 29.6874L65.2735 29.6656L65.259 29.6474L65.219 29.6073L65.1971 29.5856L65.1827 29.5673L65.1427 29.5275ZM49.9629 32.5636C50.4464 32.7634 50.9556 32.9234 51.4791 33.0398C52.119 33.1816 52.7953 33.2579 53.4935 33.2579C55.4859 33.2579 57.3293 32.629 58.8383 31.5599C59.3582 31.1927 59.8417 30.7709 60.2743 30.3019L60.2818 30.2947L60.2962 30.2765C60.7217 29.8183 61.1033 29.3092 61.4269 28.7676C61.6015 28.484 61.7577 28.1895 61.8997 27.884L61.9068 27.8658L61.9141 27.8513L61.9179 27.8441L61.9286 27.8221L61.9504 27.7749L61.9542 27.7605L61.9652 27.7422L61.9722 27.7205L61.9833 27.6986L61.9907 27.6768L62.0015 27.6586L62.0269 27.5931L62.0378 27.5749L62.0451 27.5532L62.0488 27.5458L62.0523 27.5314L62.0632 27.5095L62.0705 27.4913L62.0814 27.4693C61.0963 27.0624 60.0271 26.8186 58.9074 26.7785H58.9L58.8092 26.7751H58.7837L58.7765 26.7715H58.7438H58.7256H58.7111H58.6782H58.6675H58.6457H58.5509H58.4563H58.4308C58.3146 26.7715 58.2018 26.7751 58.0854 26.7825H58.0746C57.838 26.797 57.6019 26.8152 57.3691 26.8442L57.3547 26.8479C55.2748 27.1133 53.4134 28.0731 52.0026 29.4838C51.9264 29.5602 51.8499 29.6366 51.7774 29.7129L51.7699 29.7238L51.7227 29.7747L51.6973 29.8039L51.621 29.8875L51.61 29.8985C50.9192 30.6801 50.3591 31.5782 49.9629 32.5636ZM60.6451 31.2509C60.2523 31.64 59.8272 31.9962 59.3762 32.3162C57.7147 33.4942 55.6822 34.1887 53.4935 34.1887C52.7374 34.1887 51.9956 34.1051 51.2791 33.9452C50.7194 33.8215 50.1776 33.6507 49.6574 33.4399C49.4176 34.2616 49.2903 35.1306 49.2903 36.0323C49.2903 38.5883 50.3265 40.9043 52.0026 42.5805C53.6789 44.253 55.9912 45.2928 58.5509 45.2928C61.1067 45.2928 63.4228 44.2531 65.0954 42.5805C66.7716 40.9043 67.8079 38.5883 67.8079 36.0323C67.8079 35.3451 67.735 34.6798 67.593 34.0363C66.197 34.0326 64.8663 33.7417 63.6591 33.2291C62.5357 32.7524 61.5176 32.0761 60.6451 31.2509ZM62.0811 51.5061V45.5906C60.9832 45.9979 59.7905 46.2233 58.5508 46.2233C57.1728 46.2233 55.8602 45.9471 54.6641 45.4524V51.8117L58.1653 59.276L62.0811 51.5061ZM62.9428 51.7862C62.9321 51.8043 62.9246 51.8262 62.9102 51.8444L58.5471 60.4941C58.5035 60.5813 58.4306 60.654 58.34 60.6977C58.1145 60.803 57.849 60.7049 57.7473 60.4832L56.6892 58.2289L53.8315 52.1353C53.8168 52.1098 53.8061 52.0844 53.7951 52.0552L52.0318 48.2957C49.9956 49.0885 48.2576 49.7211 46.789 50.259C40.368 52.6006 39.2119 53.0224 39.1172 57.5853C39.0773 59.505 39.6555 61.1883 40.6916 62.6318C41.7135 64.0571 43.1821 65.2569 44.9529 66.224V58.3486C44.9563 58.1415 45.0983 57.956 45.3091 57.9123C45.549 57.8614 45.7853 58.014 45.8364 58.254L47.7561 67.2673C51.3228 69.0017 54.9623 69.9361 58.5946 69.9688C62.096 70.0015 65.601 69.198 69.0295 67.4745L70.9019 58.2942C70.9273 58.0724 71.1164 57.9015 71.3456 57.9015C71.5929 57.9015 71.7927 58.1014 71.7927 58.3486V66.1329C73.6543 65.0749 75.185 63.7477 76.2067 62.1371C77.232 60.5228 77.7481 58.6141 77.5737 56.4145C77.2936 52.935 75.814 52.3969 69.9639 50.2626C68.4912 49.7245 66.7461 49.0882 64.703 48.2883L62.9465 51.7753L62.9428 51.7862ZM32.9001 35.9048C32.9945 35.7885 33.0672 35.6503 33.1146 35.4902C33.1654 35.3267 33.1872 35.1412 33.1872 34.9303C33.1872 34.4977 33.0929 34.1778 32.9037 33.9596C32.711 33.7488 32.464 33.6396 32.1549 33.6396C31.8458 33.6396 31.5985 33.7488 31.4058 33.9634C31.2169 34.178 31.1186 34.5013 31.1186 34.9342C31.1186 35.3705 31.2169 35.7012 31.4058 35.9158C31.5985 36.1339 31.8385 36.2431 32.133 36.2431C32.242 36.2431 32.3438 36.2249 32.4421 36.1884C32.2894 36.0902 32.133 36.0103 31.9766 35.9558L32.1875 35.516C32.4345 35.603 32.6709 35.7302 32.9001 35.9048ZM33.5035 36.3301C33.6891 36.461 33.8889 36.5664 34.107 36.6465L33.8308 37.1845C33.7181 37.1518 33.6053 37.1045 33.4962 37.0428C33.4743 37.0319 33.3072 36.9191 32.9945 36.7083C32.7508 36.8173 32.4782 36.8719 32.18 36.8719C31.6057 36.8719 31.1547 36.7008 30.8276 36.3627C30.504 36.021 30.3405 35.5447 30.3405 34.9302C30.3405 34.3194 30.504 33.8431 30.8312 33.505C31.1584 33.1633 31.6021 32.9923 32.1583 32.9923C32.7146 32.9923 33.1546 33.1633 33.4781 33.505C33.8053 33.8431 33.9691 34.3194 33.9691 34.9302C33.9691 35.2539 33.9217 35.5375 33.8308 35.7845C33.7617 35.9702 33.6526 36.1555 33.5035 36.3301ZM28.7078 35.3196L28.1879 33.9342L27.6825 35.3196H28.7078ZM30.0931 36.8029H29.2786L28.9551 35.9522H27.4535L27.1444 36.8029H26.3407L27.7952 33.0615H28.595L30.0931 36.8029ZM23.8177 36.8029V33.0615H26.3918V33.6942H24.5775V34.5814H26.1444V35.214H24.5775V36.8029H23.8177ZM37.9466 31.8471V37.8025C37.9466 38.2573 37.852 38.6935 37.6885 39.0933C37.5175 39.5079 37.2631 39.8787 36.954 40.1915C36.6415 40.5041 36.267 40.7586 35.8558 40.9297C35.4524 41.0932 35.0161 41.1877 34.5616 41.1877H27.9843L27.759 41.3259C27.9188 41.6968 28.1843 42.0131 28.5152 42.2349C28.8388 42.4495 29.2277 42.5729 29.6424 42.5729H36.4702C36.5685 42.5729 36.6631 42.6056 36.7357 42.6638L40.6479 45.0889V43.02C40.6479 42.7728 40.8479 42.5727 41.0952 42.5727H41.7168C42.2805 42.5727 42.7893 42.3437 43.1601 41.9729C43.5276 41.602 43.7601 41.0931 43.7601 40.5295V33.8906C43.7601 33.3307 43.5276 32.818 43.1601 32.4471L43.1383 32.4254C42.7711 32.069 42.2657 31.8472 41.7168 31.8472H37.9466V31.8471ZM34.5616 28.6731H22.487C22.1524 28.6731 21.8289 28.7422 21.538 28.8622C21.2362 28.9859 20.9599 29.1748 20.7308 29.4038C20.28 29.8546 20 30.4765 20 31.1638V37.8025C20 38.2281 20.0728 38.5844 20.2036 38.8788C20.3381 39.1953 20.5419 39.4461 20.7926 39.6461C21.0217 39.8315 21.2943 39.9697 21.5961 40.0714C21.9342 40.1877 22.3089 40.2531 22.6941 40.2823L23.1086 40.3077L23.1122 43.1654L27.6244 40.3621L27.8569 40.2932H34.5615C34.8995 40.2932 35.2196 40.2277 35.5102 40.1041C35.8157 39.9769 36.0922 39.7915 36.321 39.5624C36.5502 39.3296 36.7355 39.0571 36.8628 38.7516C36.9828 38.4606 37.052 38.1409 37.052 37.8025V31.6071C37.0192 31.5454 37.001 31.4763 37.001 31.3998C37.001 31.3272 37.0192 31.2581 37.052 31.1963V31.1636C37.052 30.8254 36.9829 30.5055 36.8628 30.2145C36.7393 29.9092 36.5502 29.6365 36.321 29.4037C35.8705 28.953 35.245 28.6731 34.5616 28.6731ZM35.8413 73.4849C35.594 73.4849 35.3942 73.2849 35.3942 73.0376C35.3942 72.7903 35.594 72.5904 35.8413 72.5904H66.4405C66.688 72.5904 66.8878 72.7903 66.8878 73.0376C66.8878 73.2849 66.688 73.4849 66.4405 73.4849H35.8413ZM53.7587 75.3465C53.5114 75.3465 53.3113 75.1465 53.3113 74.8992C53.3113 74.6519 53.5114 74.4519 53.7587 74.4519H74.9338C75.1812 74.4519 75.3809 74.6519 75.3809 74.8992C75.3809 75.1465 75.1812 75.3465 74.9338 75.3465H53.7587ZM77.1009 75.3465C76.8534 75.3465 76.6535 75.1465 76.6535 74.8992C76.6535 74.6519 76.8534 74.4519 77.1009 74.4519H79.7478C79.995 74.4519 80.1949 74.6519 80.1949 74.8992C80.1949 75.1465 79.995 75.3465 79.7478 75.3465H77.1009ZM34.6341 75.2919C34.3905 75.2919 34.187 75.0919 34.187 74.8446C34.187 74.5973 34.3905 74.3973 34.6341 74.3973H44.6692C44.9163 74.3973 45.1164 74.5973 45.1164 74.8446C45.1164 75.0919 44.9164 75.2919 44.6692 75.2919H34.6341ZM39.041 49.3865C39.2336 49.2337 39.5135 49.2631 39.6699 49.4519C39.8226 49.6446 39.7934 49.9245 39.6044 50.0773C39.5862 50.0918 33.9798 54.6039 35.6268 57.1707C36.3577 58.316 36.3867 59.3159 36.4121 60.294C36.452 61.7919 36.4921 63.2246 39.9934 65.0423C40.2115 65.1588 40.2986 65.4277 40.1826 65.6459C40.0699 65.8641 39.8007 65.9513 39.5826 65.8348C35.6158 63.7734 35.5687 62.0862 35.5214 60.312C35.4995 59.4648 35.4741 58.5886 34.874 57.6541C32.798 54.4075 39.0228 49.401 39.041 49.3865ZM58.7981 25.8445H58.8125H58.9034L58.936 25.848H58.9434H58.9725L59.0088 25.8515H59.0415L59.0742 25.8551H59.078H59.1143L59.147 25.8589H59.1832L59.2051 25.8623H59.2159H59.2523L59.2886 25.8659L59.3214 25.8696H59.3321L59.3577 25.873H59.3902L59.4266 25.8768L59.4593 25.8803H59.4629L59.4958 25.8839L59.5321 25.8874L59.5645 25.8912L59.772 25.9129L59.8082 25.9164C62.1208 26.2037 64.1932 27.2617 65.7564 28.8252L65.7818 28.8506C67.6072 30.6938 68.7379 33.2317 68.7379 36.0313C68.7379 38.2748 68.0106 40.3507 66.782 42.0377L66.7927 42.0413L66.8289 42.0486C67.0145 42.0996 67.2108 42.1251 67.4109 42.1251C68.2397 42.1251 68.8214 41.6706 69.2069 40.9361C69.6251 40.1433 69.8286 39.0381 69.8759 37.8092C69.9194 36.5512 69.7996 35.1623 69.5668 33.8389C69.0725 31.0247 68.1271 28.545 67.2837 28.3305L67.2073 28.3013C66.9855 28.196 66.8873 27.9305 66.9928 27.7087C67.0655 27.5526 67.12 27.389 67.1599 27.2215C67.1926 27.0616 67.2145 26.8869 67.2145 26.7053C67.2145 26.0654 66.9598 25.491 66.5526 25.0727C66.1455 24.6582 65.5854 24.4038 64.9638 24.4038C64.7383 24.4038 64.5239 24.4365 64.3276 24.4946L64.2947 24.5055C64.0802 24.5746 63.8766 24.6764 63.6949 24.8036L63.6875 24.8073C63.502 24.9381 63.2403 24.9089 63.0911 24.731C62.9022 24.5092 62.6696 24.3274 62.4077 24.2L62.3823 24.1891C62.1205 24.0654 61.8295 24 61.5205 24H55.576C55.2669 24 54.9758 24.0654 54.7141 24.1891C54.4452 24.3128 54.2052 24.4981 54.0124 24.7235L54.0052 24.731C53.8597 24.9054 53.6015 24.9417 53.4089 24.8073C53.2269 24.6798 53.0199 24.5746 52.8017 24.5054C52.5943 24.4399 52.3689 24.4037 52.1327 24.4037C51.5146 24.4037 50.951 24.6581 50.5438 25.0725C50.1367 25.4907 49.8857 26.0652 49.8857 26.7051C49.8857 26.8869 49.9039 27.0616 49.9401 27.2214C49.9729 27.3777 50.0274 27.5305 50.0929 27.6758C50.1111 27.7122 50.1255 27.7487 50.1365 27.7885C50.1946 28.025 50.0526 28.2685 49.8128 28.3304C48.9731 28.5449 48.0241 31.0281 47.5295 33.8388C47.2967 35.1622 47.1769 36.5511 47.2242 37.8091C47.2678 39.038 47.475 40.1432 47.8894 40.9359C48.2749 41.6705 48.8603 42.1249 49.6856 42.1249C49.8892 42.1249 50.0856 42.0994 50.2674 42.0485L50.3183 42.034C49.0858 40.3506 48.3587 38.2745 48.3587 36.0312C48.3587 33.6171 49.1984 31.3955 50.6054 29.6504L50.6091 29.6429L50.7289 29.4977L50.7654 29.4575L50.7908 29.4248L50.9181 29.2757L50.9252 29.2721L50.9874 29.2031L51.0056 29.1814L51.0528 29.1302L51.089 29.0903L51.1182 29.0576L51.2525 28.9157L51.2562 28.9122L51.3216 28.8468L51.3434 28.8249L51.3907 28.7778C51.5762 28.5958 51.7689 28.4178 51.9688 28.2506L51.9725 28.247L52.0413 28.1888C52.2669 27.9998 52.5031 27.8215 52.743 27.6544L52.7504 27.6508L52.8195 27.5998C53.2158 27.3308 53.6302 27.0908 54.063 26.88L54.1284 26.8472L54.1501 26.8362C54.2666 26.7818 54.3828 26.7271 54.5028 26.6762L54.5827 26.64L54.5901 26.6363L54.6773 26.6002L54.6955 26.5927L54.7684 26.5635L54.9501 26.4946L55.0409 26.4619L55.0445 26.4583L55.1318 26.4256L55.161 26.4146L55.2229 26.3964L55.2809 26.3746L55.3174 26.3637L55.3972 26.3345H55.4081L55.5027 26.3018L55.5173 26.2983L55.5936 26.2728L55.6372 26.262L55.6882 26.2475L55.7573 26.2255L55.7824 26.2183L55.8772 26.1928H55.8807L55.9717 26.1674L56.0006 26.1601L56.066 26.1456L56.1244 26.1312L56.1606 26.1203L56.2479 26.102L56.2589 26.0985L56.3533 26.0766L56.3714 26.0731L56.3826 26.0694L56.4952 26.0476L56.5497 26.0367L56.6188 26.0223L56.6442 26.0186L56.7422 26.0004H56.7458L56.8406 25.9821L56.8698 25.9786L57.124 25.9384L57.1351 25.935L57.2368 25.9242L57.2512 25.9205C57.4113 25.9023 57.5713 25.8841 57.7347 25.8731L57.7639 25.8697L57.8365 25.8661L57.8948 25.8624L58.0221 25.8551L58.0366 25.8515L58.153 25.848L58.2402 25.8445H58.2838L58.5493 25.8407L58.7981 25.8445Z" stroke="url(#paint0_linear)" stroke-width="1.5" mask="url(#path-2-inside-1)"/>
<defs>
<linearGradient id="paint0_linear" x1="29.9152" y1="31.9409" x2="51.6606" y2="78.2939" gradientUnits="userSpaceOnUse">
<stop stop-color="#FF2D2D"/>
<stop offset="1" stop-color="#0085FA"/>
</linearGradient>
</defs>
</svg>
