<svg width="100" height="100" viewBox="0 0 100 100" fill="none" xmlns="http://www.w3.org/2000/svg">
<circle cx="50" cy="50" r="50" fill="#0F0F0F"/>
<g clip-path="url(#clip0)">
<path d="M72.3929 57.0412L72.3129 56.9118L70.9051 54.6366L70.6445 54.2155L71.0631 53.9509C76.4074 50.5726 79.6468 44.7027 79.6468 38.3758V29.0406C79.6353 28.6961 79.4384 28.3822 79.1357 28.2263L79.1298 28.2232L79.1298 28.2232L66.4881 21.497L66.4876 21.4968C66.2059 21.3465 65.8792 21.3521 65.6249 21.5012L65.6187 21.5048L65.6124 21.5083L53.3736 28.2176C53.3729 28.218 53.3722 28.2183 53.3715 28.2187C53.0776 28.385 52.9081 28.6817 52.9172 29.0196L52.9176 29.0331H52.9174V38.5607V38.5633C52.9036 41.1952 53.4439 43.8121 54.5232 46.2199L54.8391 46.9244H54.067H43.8142C41.7674 46.9244 39.8229 47.8887 38.5654 49.5161C38.5651 49.5165 38.5648 49.5168 38.5645 49.5172L32.9778 56.8383L32.8751 56.9728L32.7118 57.0174L23.3265 59.577L23.3253 59.5773C21.0716 60.1861 19.5136 62.2335 19.5 64.5708V68.1517C19.5136 71.0168 21.8482 73.3423 24.719 73.3694H25.3991H25.7797L25.881 73.7363C26.8596 77.2802 30.5362 79.3569 34.0808 78.3649L34.0824 78.3645C36.3303 77.743 38.0892 75.9841 38.7107 73.7361L38.8121 73.3694H39.1927H60.0963H60.477L60.5783 73.7363C61.5568 77.2802 65.2334 79.3569 68.7781 78.3649L68.7796 78.3645C71.0276 77.743 72.7865 75.9841 73.408 73.7361L73.5094 73.3694H73.8899L75.2812 73.3694C75.2815 73.3694 75.2818 73.3694 75.2821 73.3694C78.1505 73.356 80.4866 71.0325 80.5 68.1515C80.5 68.1512 80.5 68.1509 80.5 68.1506L80.5 64.0447M72.3929 57.0412L80.5 64.0432V64.0447M72.3929 57.0412L72.5315 57.1041M72.3929 57.0412L72.5315 57.1041M80.5 64.0447C80.4864 62.0089 79.2937 60.1804 77.4513 59.3365M80.5 64.0447C80.5 64.0452 80.5 64.0458 80.5 64.0464L77.4513 59.3365M77.4513 59.3365C77.4509 59.3363 77.4505 59.3361 77.4502 59.3359M77.4513 59.3365L77.4502 59.3359M77.4502 59.3359L72.5315 57.1041M77.4502 59.3359L72.5315 57.1041M71.8018 71.9055C71.801 69.2563 69.6588 67.0983 66.9931 67.0983C64.3422 67.0983 62.1844 69.2561 62.1844 71.907C62.1844 74.5568 64.3269 76.7157 66.9931 76.7157L66.9961 76.7157C69.654 76.6999 71.8169 74.5624 71.8018 71.9055ZM71.8018 71.9055C71.8018 71.906 71.8018 71.9065 71.8018 71.907H71.3018L71.8018 71.904C71.8018 71.9045 71.8018 71.905 71.8018 71.9055ZM55.0208 29.4339L54.7615 29.5763V29.8721V38.5464C54.7615 45.1573 58.6603 51.1239 64.6995 53.778C64.7002 53.7784 64.7009 53.7787 64.7016 53.779L65.8072 54.2751L66.007 54.3647L66.2083 54.2787L67.4794 53.7359H67.5063L67.5993 53.6968C73.771 51.1021 77.7881 45.0765 77.8028 38.3769V38.3758V29.8864V29.5864L77.5382 29.4452L66.3469 23.4728L66.1081 23.3453L65.8708 23.4756L55.0208 29.4339ZM32.2959 76.7157L32.2989 76.7157C34.9447 76.6999 37.1046 74.5606 37.1046 71.907C37.1046 69.2572 34.9621 67.0983 32.2959 67.0983C29.646 67.0983 27.4872 69.2408 27.4872 71.907C27.4872 74.5568 29.6297 76.7157 32.2959 76.7157ZM78.6154 68.6386H78.6702V68.1386L78.6702 64.0432L78.6701 64.0368C78.6535 62.7358 77.8867 61.5495 76.6977 61.0135L71.3797 58.6105L71.3769 58.6093C71.2115 58.5357 71.0801 58.4197 70.9934 58.2723L70.9935 58.2722L70.9865 58.261L69.2374 55.4596L68.9965 55.0738L68.5897 55.2772C68.5201 55.312 68.435 55.3487 68.3319 55.3928L68.3315 55.393L66.4144 56.2167C66.414 56.2168 66.4137 56.217 66.4133 56.2171C66.1659 56.3215 65.8974 56.3183 65.6729 56.2195L65.6704 56.2184L63.9669 55.4803C63.9664 55.48 63.966 55.4798 63.9655 55.4796C60.7943 54.0807 58.0662 51.8232 56.0997 48.9705L55.9507 48.7542H55.6881H43.8284C42.3516 48.7542 40.9536 49.4371 40.0479 50.6129L40.0467 50.6145L34.1622 58.3184C34.1618 58.3189 34.1614 58.3194 34.161 58.3199C34.0329 58.4839 33.8576 58.5971 33.6542 58.6558C33.6534 58.656 33.6525 58.6563 33.6516 58.6565L23.8169 61.3426L23.8157 61.3429C22.3637 61.7434 21.3608 63.0469 21.3441 64.5496H21.344V64.5552L21.344 68.1386L21.3441 68.1432C21.3607 69.9942 22.8609 71.4944 24.712 71.5111H24.7165H25.2H25.6399L25.6959 71.0748C26.0794 68.0867 28.4471 65.7189 31.4352 65.3355L31.4362 65.3354C35.087 64.8592 38.4197 67.4246 38.8959 71.0758L38.9527 71.5111H39.3917H59.8973H60.3372L60.3932 71.0748C60.7766 68.0867 63.1444 65.7189 66.1324 65.3355L66.1335 65.3354C69.7842 64.8592 73.117 67.4246 73.5932 71.0758L73.65 71.5111H74.089L75.2835 71.5111L75.288 71.5111C76.9707 71.4959 78.3635 70.2548 78.6154 68.6386Z" stroke="url(#paint0_linear)"/>
<path d="M73.1221 35.2474C72.6244 34.6359 71.7428 34.5364 71.1171 35.0198L71.1029 35.0341L64.4478 40.4519L62.0304 37.6221C61.5185 37.0249 60.6226 36.9396 60.0253 37.4515C59.4281 37.9634 59.3428 38.8593 59.8547 39.4565L59.8689 39.4708L63.1822 43.3529C63.1964 43.3813 63.2107 43.3955 63.2249 43.4097C63.2391 43.424 63.2533 43.4524 63.2818 43.4666C63.296 43.4808 63.3244 43.5093 63.3386 43.5235C63.3529 43.5377 63.3813 43.5519 63.3955 43.5662C63.4097 43.5804 63.4382 43.5946 63.4666 43.6088C63.4951 43.623 63.5093 43.6373 63.5235 43.6515C63.5519 43.6657 63.5662 43.6799 63.5946 43.6941C63.6088 43.7084 63.6373 43.7226 63.6515 43.7226C63.6799 43.7368 63.7084 43.751 63.7368 43.751C63.751 43.7652 63.7795 43.7652 63.7937 43.7795C63.8221 43.7937 63.8506 43.7937 63.879 43.8079C63.8932 43.8079 63.9217 43.8221 63.9359 43.8221C63.9643 43.8221 63.9928 43.8363 64.0212 43.8363C64.0354 43.8363 64.0639 43.8506 64.0781 43.8506C64.1208 43.8506 64.1492 43.8506 64.1919 43.8506C64.2061 43.8506 64.2203 43.8506 64.2345 43.8506C64.2772 43.8506 64.3198 43.8506 64.3625 43.8506C64.3767 43.8506 64.3767 43.8506 64.3909 43.8506C64.4194 43.8506 64.462 43.8363 64.4905 43.8363C64.5047 43.8363 64.5189 43.8364 64.5331 43.8221C64.5616 43.8221 64.59 43.8079 64.6185 43.8079C64.6327 43.8079 64.6469 43.7937 64.6611 43.7937C64.6896 43.7937 64.7038 43.7795 64.7322 43.7652C64.7464 43.7652 64.7607 43.751 64.7891 43.751C64.8033 43.7368 64.8318 43.7368 64.846 43.7226C64.8602 43.7084 64.8886 43.7084 64.9029 43.6941C64.9171 43.6799 64.9455 43.6799 64.9597 43.6657C64.974 43.6515 65.0024 43.6373 65.0166 43.6373C65.0308 43.6373 65.0451 43.6088 65.0735 43.6088C65.0877 43.5946 65.1019 43.5804 65.1304 43.5662C65.1446 43.5519 65.1588 43.5519 65.1731 43.5377L72.8946 37.2524C73.5061 36.7547 73.6056 35.8731 73.1221 35.2474Z" fill="#EC0000"/>
</g>
<defs>
<linearGradient id="paint0_linear" x1="29.2125" y1="29.8916" x2="55.3607" y2="80.5179" gradientUnits="userSpaceOnUse">
<stop stop-color="#FF2D2D"/>
<stop offset="1" stop-color="#0085FA"/>
</linearGradient>
<clipPath id="clip0">
<rect width="62" height="62" fill="white" transform="translate(19 19)"/>
</clipPath>
</defs>
</svg>
