<svg width="112" height="112" viewBox="0 0 112 112" fill="none" xmlns="http://www.w3.org/2000/svg">
<path d="M49.0482 18.5092C47.728 18.7751 46.5984 18.8053 45.6594 18.6C44.7073 18.3973 43.8908 17.8544 43.2097 16.9715C42.5313 16.1016 42.0171 14.7975 41.667 13.059C41.317 11.3206 41.2851 9.91253 41.5713 8.83482C41.8602 7.77018 42.4043 6.96016 43.2037 6.40476C43.9901 5.85199 45.0433 5.44269 46.3635 5.17685L51.2259 4.19774L53.9106 17.5301L49.0482 18.5092ZM46.9244 8.16493C46.2055 8.30969 45.6776 8.5588 45.3408 8.91225C45.0039 9.2657 44.8162 9.71832 44.7777 10.2701C44.7261 10.8245 44.7872 11.5331 44.9609 12.3958C45.1346 13.2585 45.3526 13.9354 45.6147 14.4267C45.8638 14.9206 46.212 15.2653 46.6594 15.4608C47.1068 15.6563 47.6899 15.6817 48.4089 15.537L50.0558 15.2053L48.5713 7.83329L46.9244 8.16493Z" fill="#ACA4A4"/>
<path d="M37.6858 19.0181L34.9918 20.6311L34.2829 19.4471C34.2001 19.9318 33.9686 20.4666 33.5885 21.0516C33.2083 21.6366 32.6293 22.2009 31.8513 22.7444L30.2795 20.1189C30.8949 19.7194 31.4544 19.2911 31.9579 18.8343C32.4614 18.3775 32.8265 17.9879 33.0532 17.6657L29.4267 11.6084L32.2409 9.9235L37.6858 19.0181Z" fill="#ACA4A4"/>
<path d="M30.642 28.5242L28.2395 30.9862L26.2355 29.0306L28.6381 26.5687L30.642 28.5242ZM27.8665 25.9275L25.5757 28.275L17.9894 20.8717L20.2802 18.5243L27.8665 25.9275Z" fill="#ACA4A4"/>
<path d="M22.3352 31.6494L20.7529 34.6588L13.332 33.1296L18.7983 38.3762L17.216 41.3856L9.50917 33.2662L11.2776 29.9028L22.3352 31.6494Z" fill="#ACA4A4"/>
<path d="M4.56727 48.9986C4.72637 47.8092 5.03384 46.8683 5.48966 46.176C5.94548 45.4837 6.60121 45.0064 7.45687 44.7442C8.31252 44.482 9.40773 44.4402 10.7425 44.6187C12.7116 44.8821 14.0502 45.4849 14.7582 46.4271C15.4644 47.3825 15.7079 48.6796 15.4887 50.3183C15.3455 51.3888 15.057 52.238 14.6233 52.8661C14.1877 53.5073 13.558 53.941 12.7341 54.1671C11.9234 54.3949 10.8771 54.4231 9.59517 54.2516C9.07976 54.1827 8.68022 54.1024 8.39655 54.0106L9.24776 47.6473C8.58521 47.5721 8.10276 47.7093 7.80039 48.059C7.49803 48.4087 7.28674 49.0328 7.16653 49.9315C7.09758 50.4469 7.08941 51.0108 7.14201 51.6232C7.19462 52.2356 7.28645 52.8061 7.4175 53.3348L4.72152 52.9742C4.586 52.5794 4.49547 52.0494 4.44994 51.3841C4.40264 50.7321 4.44175 49.9369 4.56727 48.9986ZM10.8784 51.2957C11.541 51.3709 12.0335 51.309 12.3561 51.11C12.6787 50.911 12.8779 50.5274 12.954 49.9591C13.0388 49.3247 12.9536 48.856 12.6982 48.5528C12.4428 48.2495 11.9865 48.0405 11.3292 47.9257L10.8784 51.2957Z" fill="#ACA4A4"/>
<path d="M20.156 76.5944L11.2319 77.1902C10.0745 77.2644 9.05386 77.2512 8.16983 77.1506C7.29103 77.0623 6.42028 76.7892 5.55758 76.3315C4.68787 75.8912 3.8569 75.2024 3.06467 74.265L4.99157 72.158C6.15478 73.2848 7.20639 73.9301 8.14639 74.0938L15.9108 66.6638L17.2551 69.8085L11.9147 74.31L18.7803 73.3762L20.156 76.5944Z" fill="#ACA4A4"/>
<path d="M18.2654 91.509C17.4802 90.6917 16.9351 89.8934 16.6301 89.1141C16.3347 88.3255 16.3277 87.5002 16.609 86.6383C16.9091 85.7767 17.564 84.861 18.5736 83.891C20.0254 82.4962 21.3589 81.8345 22.5739 81.906C23.7982 81.9871 25.0061 82.6478 26.1978 83.8881C27.3894 85.1285 27.9966 86.3571 28.0194 87.574C28.0514 88.8006 27.3415 90.1113 25.8896 91.5061C24.88 92.476 23.9342 93.0889 23.0521 93.3447C22.1888 93.6009 21.3691 93.5656 20.593 93.2389C19.8264 92.9029 19.0506 92.3263 18.2654 91.509ZM20.3422 89.5137C20.6563 89.8406 20.9584 90.0589 21.2485 90.1684C21.5387 90.2779 21.8692 90.2563 22.24 90.1034C22.6204 89.9413 23.0703 89.6108 23.5895 89.112C24.0991 88.6224 24.4377 88.1954 24.6053 87.831C24.7825 87.4573 24.8222 87.1234 24.7244 86.8291C24.6361 86.5255 24.435 86.2103 24.1209 85.8834C23.8068 85.5565 23.4999 85.3429 23.2002 85.2426C22.91 85.1331 22.5748 85.1594 22.1943 85.3215C21.8235 85.4744 21.3833 85.7956 20.8737 86.2852C20.3545 86.784 20.0063 87.2202 19.829 87.5939C19.6614 87.9583 19.6265 88.2876 19.7244 88.5819C19.8222 88.8762 20.0282 89.1868 20.3422 89.5137Z" fill="#ACA4A4"/>
<path d="M32.3893 102.118C31.3367 101.631 30.6623 101.025 30.3662 100.3C30.0701 99.5748 30.1209 98.7828 30.5187 97.9238L33.788 90.8641L36.7644 92.2424L33.9573 98.304C33.7892 98.667 33.7571 98.9901 33.8611 99.2733C33.965 99.5565 34.2771 99.8186 34.7973 100.06C35.1482 100.222 35.4675 100.326 35.7552 100.371C36.0485 100.404 36.347 100.41 36.6506 100.389L39.777 93.6375L42.7533 95.0159L38.299 104.635L35.7582 103.458L35.9089 102.514C34.7482 102.799 33.575 102.667 32.3893 102.118Z" fill="#ACA4A4"/>
<path d="M48.4156 96.3725L51.5388 96.6962L51.3966 98.0689C51.7534 97.7305 52.2592 97.4411 52.9142 97.2007C53.5691 96.9602 54.3708 96.8556 55.3193 96.8869L55.0039 99.9306C54.2717 99.8815 53.5672 99.889 52.8903 99.9529C52.2135 100.017 51.6878 100.11 51.3132 100.232L50.5855 107.254L47.3229 106.916L48.4156 96.3725Z" fill="#ACA4A4"/>
<path d="M74.7088 104.236C73.5066 104.748 72.5356 104.85 71.7957 104.542C71.0558 104.234 70.4481 103.522 69.9726 102.406C69.6643 101.682 69.5527 101.063 69.6379 100.549C69.7178 100.022 69.9814 99.5688 70.4287 99.1899C70.876 98.811 71.5167 98.4438 72.3508 98.0885C72.7311 97.9265 73.1305 97.7926 73.5492 97.6867C73.9678 97.5808 74.3304 97.5133 74.6368 97.4842L74.339 96.785C74.1665 96.3802 73.8939 96.1485 73.5212 96.0899C73.1484 96.0313 72.6246 96.1457 71.95 96.4332C71.3734 96.6787 70.8748 96.9201 70.4541 97.1573C70.0334 97.3945 69.6135 97.6676 69.1944 97.9766L68.1363 95.4926C69.0796 94.8153 70.134 94.2285 71.2993 93.7321C72.7591 93.1102 73.9711 92.8765 74.9354 93.0309C75.9068 93.1679 76.6381 93.8129 77.1293 94.9659L80.0216 101.756L77.6664 102.759L76.9903 102.09C76.6224 103.03 75.8619 103.745 74.7088 104.236ZM74.557 101.583C74.9005 101.437 75.1993 101.288 75.4535 101.136C75.7147 100.967 75.8997 100.823 76.0085 100.704L75.3736 99.2138C74.8359 99.3124 74.2972 99.4767 73.7575 99.7066C73.3404 99.8843 73.0835 100.081 72.9868 100.296C72.89 100.511 72.9095 100.778 73.0454 101.097C73.1969 101.453 73.3838 101.67 73.606 101.749C73.8229 101.816 74.1399 101.761 74.557 101.583Z" fill="#ACA4A4"/>
<path d="M89.0865 80.1653C89.8727 79.3124 90.6332 78.871 91.368 78.8411C92.1027 78.8112 92.828 79.1261 93.5436 79.7858L99.2641 85.0588L97.041 87.4705L92.1294 82.943C91.8352 82.6719 91.5329 82.5474 91.2225 82.5695C90.921 82.5817 90.5715 82.8036 90.1738 83.2349C89.8124 83.6271 89.5158 84.1062 89.284 84.6724L94.8721 89.8234L92.6491 92.2351L87.7374 87.7076C87.4433 87.4365 87.141 87.312 86.8305 87.3341C86.5291 87.3463 86.1795 87.5681 85.7819 87.9995C85.4204 88.3917 85.1238 88.8708 84.8921 89.437L90.4802 94.588L88.2571 96.9997L80.4632 89.8154L82.5914 87.5066L83.3267 88.1844C83.3168 87.0147 83.7728 85.9299 84.6945 84.9299C85.6615 83.8809 86.6066 83.4556 87.53 83.6539C87.5356 83.097 87.6724 82.5158 87.9403 81.9104C88.1983 81.296 88.5804 80.7143 89.0865 80.1653Z" fill="#ACA4A4"/>
<path d="M95.0159 67.6979C95.5015 66.1874 96.2862 65.2492 97.3702 64.8834C98.4583 64.5049 99.8718 64.5951 101.611 65.1542C103.553 65.7785 104.795 66.5769 105.337 67.5493C105.878 68.5218 105.927 69.6998 105.482 71.0834C105.29 71.68 105.022 72.1889 104.676 72.61C104.322 73.0144 103.96 73.3113 103.591 73.5008L104.288 74.1448L103.449 76.7534L89.7401 72.3463L90.7439 69.2237L95.0851 70.6193C94.7207 69.6618 94.6976 68.688 95.0159 67.6979ZM102.503 71.0711C102.666 70.5633 102.716 70.1453 102.654 69.8171C102.591 69.4889 102.401 69.2105 102.082 68.982C101.751 68.7495 101.255 68.5271 100.595 68.3149C99.9347 68.1027 99.4086 67.9966 99.0164 67.9966C98.6243 67.9966 98.3072 68.1117 98.0651 68.342C97.823 68.5723 97.6203 68.9413 97.4571 69.449C97.2327 70.1472 97.1719 70.7719 97.2748 71.3232L101.597 72.7126C101.972 72.3291 102.274 71.7819 102.503 71.0711Z" fill="#ACA4A4"/>
<path d="M93.1232 58.2803L93.163 54.8406L95.9628 54.873L95.923 58.3128L93.1232 58.2803ZM96.9239 58.2443L96.9619 54.9646L107.561 55.0873L107.523 58.3671L96.9239 58.2443Z" fill="#ACA4A4"/>
<path d="M105.9 42.1817C106.185 43.265 106.163 44.1805 105.836 44.9282C105.496 45.6793 104.81 46.1904 103.778 46.4614L99.0775 47.6962L99.5297 49.4178L96.8216 50.1292L96.3694 48.4076L94.1835 48.9818L92.4512 46.087L95.5461 45.2739L94.7484 42.237L97.4565 41.5256L98.2543 44.5625L102.258 43.5107C102.607 43.4192 102.821 43.2662 102.903 43.0518C102.985 42.8374 102.966 42.5045 102.847 42.0532C102.692 41.46 102.44 40.8711 102.094 40.2867L104.841 39.5651C105.235 40.1231 105.589 40.9953 105.9 42.1817Z" fill="#ACA4A4"/>
<path d="M89.1014 38.9199L87.3762 35.9438L89.7986 34.5395L91.5238 37.5156L89.1014 38.9199ZM92.3489 36.9449L90.7038 34.1072L99.8743 28.791L101.519 31.6287L92.3489 36.9449Z" fill="#ACA4A4"/>
<path d="M91.4058 18.1349C92.2382 18.9041 92.8297 19.6686 93.1805 20.4285C93.5222 21.1981 93.5783 22.0215 93.3487 22.8986C93.1003 23.7765 92.501 24.7295 91.5508 25.7577C90.1844 27.2363 88.8926 27.9761 87.6754 27.9769C86.4485 27.9687 85.2034 27.3809 83.9402 26.2135C82.677 25.0462 81.9979 23.8558 81.9029 22.6424C81.798 21.4199 82.4289 20.0694 83.7953 18.5907C84.7455 17.5625 85.6532 16.8946 86.5186 16.5868C87.3651 16.2798 88.1854 16.2663 88.9796 16.5463C89.7648 16.8362 90.5735 17.3657 91.4058 18.1349ZM89.4512 20.25C89.1183 19.9424 88.8037 19.7425 88.5076 19.6503C88.2115 19.5582 87.8829 19.5995 87.5218 19.7741C87.1516 19.9586 86.7222 20.3152 86.2336 20.844C85.754 21.363 85.4413 21.8093 85.2957 22.1831C85.1409 22.5666 85.1212 22.9023 85.2363 23.1903C85.3424 23.488 85.5619 23.7907 85.8949 24.0984C86.2278 24.4061 86.5469 24.6011 86.852 24.6834C87.1482 24.7755 87.4813 24.7293 87.8515 24.5449C88.2125 24.3703 88.6329 24.0234 89.1125 23.5044C89.6012 22.9757 89.9229 22.5195 90.0776 22.136C90.2232 21.7623 90.2385 21.4314 90.1233 21.1435C90.0082 20.8555 89.7841 20.5577 89.4512 20.25Z" fill="#ACA4A4"/>
<path d="M75.8559 19.6645L72.9332 18.5166L73.2988 17.5858C72.8197 17.7844 72.2557 17.8709 71.6068 17.8452C70.9531 17.832 70.2787 17.6889 69.5837 17.4159C68.504 16.9919 67.8172 16.4428 67.5233 15.7687C67.2294 15.0946 67.2604 14.3045 67.6162 13.3986L70.4603 6.15709L73.5133 7.35617L71.0713 13.5738C70.9251 13.9461 70.9184 14.273 71.0514 14.5544C71.172 14.831 71.5053 15.0765 72.0514 15.291C72.3616 15.4128 72.6841 15.5036 73.0187 15.5634C73.3534 15.6233 73.6567 15.635 73.9289 15.5986L76.678 8.59911L79.7309 9.79819L75.8559 19.6645Z" fill="#ACA4A4"/>
</svg>
