<svg width="67" height="66" viewBox="0 0 67 66" fill="none" xmlns="http://www.w3.org/2000/svg">
<g clip-path="url(#clip0)">
<path d="M50.6008 55.8044C58.4249 55.9806 64.9329 49.7594 65.1091 41.9352C65.2791 34.3873 59.4953 28.0632 52.0625 27.4678C51.965 26.0737 52.147 22.2887 55.8947 17.1023C56.1779 16.7111 56.1402 16.174 55.8072 15.8256C54.3556 14.3071 53.4589 13.3512 52.8313 12.6826C52.0099 11.8084 51.635 11.4092 51.0851 10.8869C50.8987 10.7099 50.6605 10.6176 50.4192 10.6121C50.185 10.6069 49.9498 10.6836 49.7577 10.8424C43.3101 16.2024 36.0294 27.4134 36.7319 41.3683C37.1432 49.5612 42.9757 55.6326 50.6008 55.8044ZM50.3562 12.9775C50.6225 13.2521 50.9259 13.5754 51.3733 14.0515C51.917 14.6312 52.663 15.4256 53.7947 16.6135C49.2377 23.3006 49.9607 28.1531 50.3092 28.8545C50.4746 29.1874 50.824 29.417 51.195 29.4254C57.9159 29.5768 63.261 35.1683 63.1096 41.8902C62.9582 48.6112 57.3667 53.9563 50.6458 53.8049C44.0986 53.6574 39.0872 48.385 38.7288 41.2687C37.9395 25.5731 47.4818 15.6087 50.3562 12.9775Z" fill="white"/>
<path d="M1.22429 40.5684L1.22427 40.5694C1.63757 48.7614 7.47101 54.8328 15.0941 55.0046C22.9183 55.1808 29.4273 48.9596 29.6035 41.1354C29.7735 33.5875 23.9887 27.2633 16.5549 26.668C16.4574 25.2748 16.6403 21.4919 20.389 16.3025C20.6722 15.9113 20.6345 15.3742 20.3015 15.0258C18.8557 13.5134 17.9609 12.5594 17.3332 11.8918C16.5081 11.0116 16.1313 10.6105 15.5785 10.0862C15.3921 9.91003 15.1529 9.81772 14.9126 9.81231C14.6783 9.80703 14.4431 9.88375 14.2511 10.0436C7.8035 15.4036 0.522779 26.6145 1.22429 40.5684ZM14.8497 12.1777C15.1179 12.4543 15.424 12.7796 15.8753 13.2606C16.419 13.8395 17.1621 14.6317 18.2891 15.8137C13.732 22.5018 14.454 27.3532 14.8016 28.0546C14.967 28.3865 15.3173 28.6172 15.6883 28.6255C22.4103 28.777 27.7554 34.3685 27.604 41.0904C27.4526 47.8114 21.8611 53.1565 15.1391 53.0051C8.59299 52.8576 3.58056 47.5852 3.22126 40.4679L3.22124 40.4689C2.43288 24.7752 11.9752 14.8089 14.8497 12.1777Z" fill="white"/>
</g>
<defs>
<clipPath id="clip0">
<rect width="64" height="64" fill="white" transform="translate(64.5786 65.5332) rotate(-178.709)"/>
</clipPath>
</defs>
</svg>
