<svg width="67" height="67" viewBox="0 0 67 67" fill="none" xmlns="http://www.w3.org/2000/svg">
<g clip-path="url(#clip0)">
<path d="M15.0268 39.0537L14.9988 38.6244L14.5701 38.5881C7.40254 37.9809 1.85016 31.8533 2.04756 24.5728C2.25219 17.0255 8.55876 11.0519 16.1059 11.2565C23.4379 11.4553 29.0594 17.3147 29.4226 25.279L29.4226 25.2791C30.0526 39.0512 22.8131 50.0858 16.4392 55.3357C16.3418 55.4153 16.2244 55.4527 16.1075 55.4495C15.9866 55.4462 15.8685 55.3999 15.7753 55.3106C15.2399 54.7973 14.8765 54.407 14.0575 53.5273C14.0574 53.5273 14.0573 53.5272 14.0573 53.5272L14.0153 53.482C13.3925 52.8124 12.5068 51.8601 11.0929 50.3674C10.927 50.1922 10.9097 49.9237 11.0519 49.7293L11.0522 49.7289C14.8933 44.4642 15.1255 40.5641 15.0268 39.0537ZM15.8072 53.9307L16.1438 54.281L16.5036 53.9546C19.4297 51.3007 29.1517 41.2464 28.4242 25.3238L28.4242 25.3238C28.0882 17.9806 22.9222 12.4417 16.0788 12.2562C9.08266 12.0665 3.23688 17.6036 3.04719 24.5999C2.85747 31.5971 8.39459 37.4429 15.3908 37.6326C15.5691 37.6374 15.7537 37.7549 15.8388 37.9282C15.8809 38.014 15.9847 38.3694 16.026 39.0092C16.0661 39.628 16.0449 40.4708 15.8734 41.5019C15.5308 43.5617 14.5881 46.3739 12.3341 49.6491L12.105 49.982L12.3824 50.2758C13.5074 51.4676 14.2488 52.2643 14.7893 52.846L14.7897 52.8464L14.8547 52.9162C15.2638 53.3556 15.5521 53.6652 15.8072 53.9307Z" fill="white" stroke="url(#paint0_linear)"/>
<path d="M51.6086 12.219C58.933 12.4176 64.5525 18.2683 64.9253 26.2225L64.9253 26.2234L64.9261 26.2415C65.5552 40.0132 58.3153 51.0479 51.9412 56.2976L51.941 56.2978C51.8441 56.3777 51.7272 56.4151 51.61 56.412C51.4898 56.4087 51.3702 56.3619 51.2768 56.2729C50.7392 55.7583 50.3739 55.366 49.5518 54.481L49.5513 54.4804C49.5033 54.4289 49.4537 54.3757 49.4025 54.3207C48.7864 53.6592 47.9244 52.7337 46.5946 51.3298C46.4286 51.1546 46.4114 50.8861 46.5536 50.6917L46.5539 50.6912C50.3958 45.4237 50.6291 41.5257 50.5304 40.0161L50.5023 39.5868L50.0736 39.5505C42.905 38.9433 37.3517 32.8156 37.5491 25.5352C37.7537 17.988 44.0613 12.0143 51.6086 12.219ZM51.3097 54.8931L51.6463 55.2434L52.0062 54.9171C54.9323 52.2631 64.6543 42.2068 63.9277 26.2863L63.9276 26.2863C63.5903 18.9426 58.4235 13.4041 51.5815 13.2186C44.5842 13.0289 38.7384 18.566 38.5487 25.5623C38.359 32.5595 43.8962 38.4053 50.8934 38.595C51.0714 38.5998 51.257 38.718 51.3423 38.8906C51.3846 38.9773 51.4878 39.3327 51.5289 39.9714C51.5687 40.5901 51.5473 41.4328 51.3756 42.4639C51.0327 44.5236 50.0897 47.3358 47.8356 50.6116L47.6065 50.9446L47.8841 51.2384C48.9454 52.3616 49.6639 53.1338 50.1965 53.7062L50.2834 53.7996C50.7319 54.282 51.0394 54.6118 51.3097 54.8931Z" fill="white" stroke="url(#paint1_linear)"/>
</g>
<defs>
<linearGradient id="paint0_linear" x1="6.43274" y1="17.4834" x2="30.307" y2="46.3972" gradientUnits="userSpaceOnUse">
<stop stop-color="#FF2D2D"/>
<stop offset="1" stop-color="#0085FA"/>
</linearGradient>
<linearGradient id="paint1_linear" x1="41.9346" y1="18.4458" x2="65.8086" y2="47.3611" gradientUnits="userSpaceOnUse">
<stop stop-color="#FF2D2D"/>
<stop offset="1" stop-color="#0085FA"/>
</linearGradient>
<clipPath id="clip0">
<rect width="64" height="64" fill="white" transform="translate(2.18646 0.963867) rotate(1.55311)"/>
</clipPath>
</defs>
</svg>
