<svg width="39" height="48" viewBox="0 0 39 48" fill="none" xmlns="http://www.w3.org/2000/svg">
<path d="M39 35.7851C39 34.5582 38.1372 33.5297 36.9868 33.2726V14.6698C38.1372 14.4127 39 13.3842 39 12.1572C39 10.9303 38.1372 9.90179 36.9868 9.64466V5.05193C38.0662 4.74536 38.8595 3.7514 38.8595 2.57503C38.8595 1.15511 37.7044 0 36.2845 0H2.57503C1.15511 0 0 1.15511 0 2.57503C0 3.7514 0.793297 4.74536 1.87275 5.05193V9.72462C0.865678 10.0745 0.140456 11.0326 0.140456 12.1573C0.140456 13.2821 0.865678 14.2401 1.87275 14.59V26.5728C1.87275 26.9607 2.18718 27.2751 2.57503 27.2751C2.96288 27.2751 3.27731 26.9607 3.27731 26.5728V14.7324H28.1849C28.5727 14.7324 28.8872 14.4179 28.8872 14.0301C28.8872 13.6422 28.5727 13.3278 28.1849 13.3278H2.71549C2.07004 13.3278 1.54502 12.8028 1.54502 12.1573C1.54502 11.5119 2.07004 10.9869 2.71549 10.9869H36.425C37.0704 10.9869 37.5954 11.5119 37.5954 12.1573C37.5954 12.8028 37.0704 13.3278 36.425 13.3278H30.994C30.6061 13.3278 30.2917 13.6422 30.2917 14.0301C30.2917 14.4179 30.6061 14.7324 30.994 14.7324H35.5822V33.2101H3.27731V29.382C3.27731 28.9942 2.96288 28.6797 2.57503 28.6797C2.18718 28.6797 1.87275 28.9942 1.87275 29.382V33.3525C0.865678 33.7025 0.140456 34.6605 0.140456 35.7852C0.140456 36.91 0.865678 37.868 1.87275 38.2179V42.9348C0.865678 43.2848 0.140456 44.2428 0.140456 45.3675C0.140456 46.7875 1.29557 47.9426 2.71549 47.9426H36.425C37.8449 47.9426 39 46.7875 39 45.3675C39 44.1406 38.1372 43.1121 36.9868 42.855V38.2978C38.1372 38.0405 39 37.012 39 35.7851ZM35.5822 5.15006V9.5822H3.27731V5.15006H35.5822ZM1.40456 2.57503C1.40456 1.92959 1.92959 1.40456 2.57503 1.40456H36.2845C36.93 1.40456 37.455 1.92959 37.455 2.57503C37.455 3.22047 36.93 3.7455 36.2845 3.7455H2.57503C1.92959 3.7455 1.40456 3.22047 1.40456 2.57503ZM3.27731 42.7923V38.3602H35.5822V42.7923H3.27731ZM2.71549 34.6147H36.425C37.0704 34.6147 37.5954 35.1397 37.5954 35.7851C37.5954 36.4306 37.0704 36.9556 36.425 36.9556H2.71549C2.07004 36.9556 1.54502 36.4306 1.54502 35.7851C1.54502 35.1397 2.07004 34.6147 2.71549 34.6147ZM37.5954 45.3673C37.5954 46.0128 37.0704 46.5378 36.425 46.5378H2.71549C2.07004 46.5378 1.54502 46.0128 1.54502 45.3673C1.54502 44.7219 2.07004 44.1969 2.71549 44.1969H36.425C37.0704 44.1969 37.5954 44.7219 37.5954 45.3673Z" fill="white"/>
<path d="M19.4721 30.0842C21.9017 30.0613 23.8782 28.0658 23.8782 25.6358C23.8782 22.5188 21.8598 19.7718 20.6568 18.4117C20.3457 18.0601 19.8982 17.8584 19.4289 17.8584C18.9606 17.8584 18.514 18.0594 18.2038 18.4101C17.047 19.7175 15.0906 22.3619 14.9854 25.3828C14.9422 26.6232 15.4097 27.8444 16.268 28.7331C17.1095 29.6045 18.2325 30.0844 19.4302 30.0845L19.4721 30.0842ZM16.3892 25.4317C16.4791 22.8494 18.2238 20.5072 19.2558 19.3409C19.3158 19.2732 19.39 19.263 19.429 19.263C19.4684 19.263 19.5438 19.2733 19.6047 19.3423C20.6761 20.5536 22.4736 22.9818 22.4736 25.6357C22.4736 27.2986 21.1213 28.664 19.4589 28.6796L19.4303 28.6797C18.617 28.6796 17.8527 28.352 17.2783 27.7572C16.6832 27.1412 16.3592 26.2935 16.3892 25.4317Z" fill="white"/>
</svg>
