<svg width="50" height="47" viewBox="0 0 50 47" fill="none" xmlns="http://www.w3.org/2000/svg">
<path d="M20.4554 32.3819C20.7521 32.4265 21.0554 32.4492 21.357 32.4492C21.6585 32.4492 21.9619 32.4265 22.2592 32.3818C24.8148 31.9952 26.7537 29.9882 26.8691 27.6112C26.873 27.5347 26.8748 27.4576 26.8748 27.3801C26.8748 26.9792 26.8236 26.5804 26.7229 26.1955C26.1267 23.9084 23.9201 22.311 21.357 22.311C18.7938 22.311 16.5872 23.9084 15.9911 26.195C15.8903 26.5806 15.8391 26.9793 15.8391 27.3801C15.8391 27.4575 15.8409 27.5346 15.8447 27.6095C15.9603 29.9882 17.8992 31.9951 20.4554 32.3819ZM17.4487 26.5162C17.8828 24.851 19.49 23.688 21.357 23.688C23.2239 23.688 24.8311 24.851 25.2654 26.5168C25.3388 26.7971 25.3759 27.0875 25.3759 27.3801C25.3759 27.4359 25.3747 27.4914 25.3717 27.5481C25.2876 29.2803 23.8761 30.7417 22.0161 31.023C21.5826 31.0883 21.1306 31.0882 20.6983 31.0231C18.8377 30.7417 17.4262 29.2803 17.342 27.5466C17.3392 27.4915 17.3379 27.4359 17.3379 27.3802C17.338 27.0875 17.3752 26.7971 17.4487 26.5162Z" fill="white"/>
<path d="M49.561 10.2877C49.561 8.27503 48.9276 6.32508 47.7293 4.64887C47.502 4.33107 47.0374 4.24267 46.6914 4.45132C46.3455 4.66007 46.2492 5.08692 46.4764 5.40472C47.5138 6.85585 48.0621 8.54436 48.0621 10.2877C48.0621 15.2016 43.7109 19.1993 38.3624 19.1993C33.014 19.1993 28.6627 15.2016 28.6627 10.2877C28.6627 5.37434 33.0139 1.37695 38.3624 1.37695C40.6625 1.37695 42.891 2.12877 44.6377 3.49397C44.9528 3.74036 45.4259 3.70538 45.6941 3.41567C45.9623 3.12605 45.9241 2.69158 45.6089 2.44519C43.5916 0.868398 41.018 0 38.3624 0C32.8367 0 28.2335 3.69593 27.3266 8.53803C25.3959 8.02222 23.392 7.76078 21.3568 7.76078C15.6521 7.76078 10.2889 9.80152 6.25519 13.5072C2.22153 17.2128 0 22.1398 0 27.3804C0 32.6211 2.22143 37.5481 6.25519 41.2537C10.289 44.9593 15.6521 47 21.3568 47C27.0615 47 32.4248 44.9593 36.4584 41.2536C40.4921 37.548 42.7136 32.621 42.7136 27.3803C42.7136 24.9054 42.2203 22.504 41.2493 20.2289C46.0295 19.0562 49.561 15.044 49.561 10.2877ZM33.4609 19.5369C34.1844 20.4763 34.7692 21.484 35.2087 22.5489C30.9738 20.4371 26.2243 19.3278 21.3573 19.3278C18.6951 19.3278 16.0578 19.6582 13.5184 20.3098C13.1198 20.412 12.8869 20.7919 12.9982 21.1581C13.1095 21.5243 13.5227 21.7384 13.9216 21.636C16.3297 21.0181 18.8314 20.7048 21.3573 20.7048C26.4925 20.7048 31.4889 22.0065 35.8285 24.4704C36.0541 25.4198 36.1699 26.3971 36.1699 27.3803C36.1699 27.4052 36.1691 27.4294 36.169 27.4542C32.7576 28.0965 29.6221 29.7504 27.2849 32.1527C24.9275 34.5758 23.489 37.6573 23.1957 40.8846C21.9795 41.0217 20.7338 41.0216 19.5182 40.8846C19.2249 37.6573 17.7865 34.5758 15.4292 32.1527C13.0919 29.7503 9.9563 28.0964 6.54487 27.4542C6.54477 27.4294 6.54397 27.4053 6.54397 27.3803C6.54397 26.3974 6.65948 25.4206 6.88501 24.4713C8.24569 23.6989 9.68081 23.0333 11.1572 22.4938C11.5418 22.3533 11.7296 21.9529 11.5766 21.5996C11.4237 21.2463 10.9878 21.0737 10.6032 21.2143C9.54791 21.6 8.51249 22.0465 7.50795 22.5474C8.44634 20.2871 10.0424 18.2663 12.1187 16.7424C14.766 14.7993 17.9605 13.7724 21.3569 13.7724C23.9697 13.7724 26.531 14.406 28.7775 15.6031C29.8915 17.2925 31.5196 18.6651 33.4609 19.5369ZM36.0797 28.8814C35.7421 31.6787 34.4566 34.3367 32.4048 36.4457C30.3711 38.536 27.6729 40.0025 24.7274 40.6347C25.065 37.8374 26.3506 35.1793 28.4024 33.0704C30.4359 30.9802 33.134 29.5136 36.0797 28.8814ZM17.9865 40.6347C15.0407 40.0025 12.3425 38.536 10.3088 36.4457C8.25738 34.337 6.97185 31.6794 6.6339 28.8813C9.57969 29.5136 12.2779 30.9801 14.3114 33.0704C16.3634 35.1793 17.6489 37.8374 17.9865 40.6347ZM41.2148 27.3803C41.2148 37.4394 32.3065 45.623 21.3568 45.623C10.4072 45.623 1.49897 37.4394 1.49897 27.3803C1.49897 17.3212 10.4072 9.13774 21.3568 9.13774C23.3427 9.13774 25.2956 9.4056 27.1712 9.93288C27.1668 10.0507 27.1638 10.1689 27.1638 10.2877C27.1638 11.4441 27.3727 12.5565 27.7574 13.5949C25.7446 12.8065 23.5671 12.3954 21.3568 12.3954C17.6168 12.3954 14.0988 13.5265 11.1831 15.6666C8.35341 17.7435 6.33303 20.6594 5.49436 23.8767C5.19629 25.0158 5.0451 26.1946 5.0451 27.3803C5.0451 27.6144 5.0508 27.8436 5.06179 28.0597C5.22856 31.4934 6.69516 34.7973 9.19138 37.3632C11.6679 39.9087 15.0406 41.6145 18.6887 42.1663C19.5659 42.2983 20.4636 42.3653 21.3569 42.3653C22.2502 42.3653 23.1479 42.2983 24.0257 42.1663C27.6733 41.6145 31.0459 39.9087 33.5226 37.3632C36.0187 34.7973 37.4853 31.4934 37.652 28.0613C37.6632 27.8429 37.6688 27.6138 37.6688 27.3803C37.6688 26.1948 37.5176 25.016 37.2197 23.8771C36.891 22.6176 36.391 21.4168 35.7289 20.288C36.5739 20.4758 37.4557 20.5762 38.3625 20.5762C38.8333 20.5762 39.2973 20.549 39.753 20.497C40.7228 22.6807 41.2148 24.9936 41.2148 27.3803Z" fill="white"/>
<path d="M40.5144 4.0305C40.1573 3.23333 39.3202 2.71826 38.3798 2.71826C37.4405 2.71909 36.6037 3.23563 36.2469 4.0361L31.954 14.3895C31.5521 15.3589 32.0836 16.448 33.1392 16.8173C33.3735 16.8992 33.6185 16.9407 33.8675 16.9407C34.7118 16.9407 35.4809 16.4536 35.7816 15.7286L36.3439 14.3721H40.3859L40.941 15.7233C41.3396 16.6938 42.5235 17.1854 43.58 16.8192C44.0918 16.6417 44.4977 16.2919 44.723 15.834C44.9484 15.3761 44.9661 14.8649 44.773 14.3948L40.537 4.08319C40.5299 4.06602 40.5226 4.04886 40.5144 4.0305ZM43.3707 14.8811C43.4224 15.0071 43.4176 15.1441 43.3573 15.2669C43.2969 15.3896 43.1881 15.4834 43.0509 15.531C42.7678 15.6291 42.4502 15.4974 42.3434 15.2372L41.6054 13.4406C41.4953 13.1725 41.2161 12.9952 40.9042 12.9952H35.8275C35.5166 12.9952 35.2379 13.1716 35.1272 13.4387L34.3809 15.2386C34.3003 15.4331 34.0939 15.5639 33.8676 15.5639C33.8014 15.5639 33.7356 15.5526 33.6725 15.5305C33.3895 15.4315 33.247 15.1396 33.3547 14.8797L37.6297 4.56824L37.635 4.55594C37.7596 4.27642 38.0525 4.09549 38.3821 4.09521C38.7105 4.09521 39.0034 4.2755 39.1278 4.55328L43.3707 14.8811Z" fill="white"/>
<path d="M38.3786 6.84424C38.3782 6.84424 38.3779 6.84424 38.3775 6.84424C38.0665 6.84424 37.7879 7.02067 37.6771 7.28771L36.1162 11.0528C36.0285 11.2643 36.0597 11.5021 36.1995 11.6885C36.3393 11.875 36.57 11.9863 36.8165 11.9863H39.9241C40.1701 11.9863 40.4005 11.8754 40.5405 11.6895C40.6804 11.5036 40.7121 11.2663 40.6252 11.0548L39.0786 7.28973C38.9687 7.02196 38.69 6.8447 38.3786 6.84424ZM37.9039 10.6093L38.3742 9.47486L38.8403 10.6093H37.9039Z" fill="white"/>
</svg>
