<svg width="53" height="52" viewBox="0 0 53 52" fill="none" xmlns="http://www.w3.org/2000/svg">
<path d="M26 33.3796H14.602C14.1813 33.3796 13.8403 33.7206 13.8403 34.1413C13.8403 34.562 14.1813 34.903 14.602 34.903H26C26.4778 34.903 26.8665 35.2918 26.8665 35.7695V38.2119C26.8665 38.6898 26.4777 39.0784 26 39.0784H25.1334V39.026C25.1334 37.7082 24.0612 36.6361 22.7435 36.6361H12.9738C12.4959 36.6361 12.1072 36.2473 12.1072 35.7695V31.6988C12.1072 31.221 12.496 30.8323 12.9738 30.8323H26C26.4206 30.8323 26.7617 30.4912 26.7617 30.0706C26.7617 27.8549 24.959 26.0524 22.7435 26.0524H10.5313C8.3729 26.0524 6.60724 27.7632 6.51735 29.8999L1.94116 10.5783C1.664 9.40782 1.52333 8.2043 1.52333 7.0013V2.38996C1.52333 1.91211 1.91211 1.52343 2.38986 1.52343H4.07052V7.27481H4.07153C4.07153 7.34184 4.07935 7.40917 4.09733 7.47519L8.53834 23.7588C8.64905 24.1647 9.06799 24.4038 9.47363 24.2932C9.87958 24.1825 10.1189 23.7638 10.0082 23.3579L5.82968 8.03652H6.46068C7.77856 8.03652 8.85065 6.96433 8.85065 5.64656V2.38996C8.85065 1.07209 7.77845 0 6.46068 0H2.38996C1.07209 0 0 1.07209 0 2.38996V7.0012C0 8.32232 0.154374 9.64395 0.458858 10.9293L6.51309 36.4918V37.3979C6.51309 39.6621 8.07877 41.5667 10.1841 42.0882L6.95763 48.5411C6.58449 49.2874 6.62359 50.1566 7.06224 50.8665C7.50089 51.5762 8.26098 52 9.09531 52H21.1152C22.4331 52 23.5052 50.9278 23.5052 49.61V42.1052C24.2111 41.8671 24.7701 41.3081 25.0083 40.6022H26.0001C27.3179 40.6022 28.39 39.5301 28.39 38.2122V35.7698C28.3899 34.4518 27.3177 33.3796 26 33.3796ZM7.32721 2.38996V5.64646C7.32721 6.12431 6.93843 6.51299 6.46068 6.51299H5.59415V1.52343H6.46068C6.93843 1.52343 7.32721 1.91222 7.32721 2.38996ZM8.35807 50.0654C8.19669 49.8043 8.18277 49.497 8.32009 49.2224L11.8162 42.2302H14.1837L10.0606 50.4765H9.09521C8.78819 50.4765 8.51956 50.3267 8.35807 50.0654ZM21.1151 50.4765H11.7638L15.8869 42.2302H21.9816V49.6099C21.9816 50.0877 21.593 50.4765 21.1151 50.4765ZM23.61 39.8403C23.61 40.3181 23.2212 40.7068 22.7435 40.7068H11.3454C9.52086 40.7068 8.03642 39.2225 8.03642 37.3978V30.0706C8.03642 28.6949 9.15564 27.5758 10.5312 27.5758H22.7433C23.8534 27.5758 24.7965 28.3046 25.1192 29.3088H12.9738C11.6559 29.3088 10.5838 30.381 10.5838 31.6988V35.7695C10.5838 37.0874 11.656 38.1595 12.9738 38.1595H22.7435C23.2213 38.1595 23.61 38.5483 23.61 39.026V39.8403Z" fill="white"/>
<path d="M50.0596 33.3796H38.6617C38.241 33.3796 37.9 33.7206 37.9 34.1413C37.9 34.562 38.241 34.903 38.6617 34.903H50.0596C50.5375 34.903 50.9261 35.2918 50.9261 35.7695V38.2119C50.9261 38.6898 50.5374 39.0784 50.0596 39.0784H49.1931V39.026C49.1931 37.7082 48.1209 36.6361 46.8031 36.6361H37.0334C36.5556 36.6361 36.1669 36.2473 36.1669 35.7695V31.6988C36.1669 31.221 36.5557 30.8323 37.0334 30.8323H50.0596C50.4803 30.8323 50.8213 30.4912 50.8213 30.0706C50.8213 27.8549 49.0187 26.0524 46.8031 26.0524H34.591C32.4326 26.0524 30.6669 27.7632 30.577 29.8999L26.0008 10.5783C25.7237 9.40782 25.583 8.2043 25.583 7.0013V2.38996C25.583 1.91211 25.9718 1.52343 26.4495 1.52343H28.1302V7.27481H28.1312C28.1312 7.34184 28.139 7.40917 28.157 7.47519L32.598 23.7588C32.7087 24.1647 33.1277 24.4038 33.5333 24.2932C33.9392 24.1825 34.1785 23.7638 34.0678 23.3579L29.8893 8.03652H30.5203C31.8382 8.03652 32.9103 6.96433 32.9103 5.64656V2.38996C32.9103 1.07209 31.8381 0 30.5203 0H26.4496C25.1318 0 24.0597 1.07209 24.0597 2.38996V7.0012C24.0597 8.32232 24.214 9.64395 24.5185 10.9293L30.5728 36.4918V37.3979C30.5728 39.6621 32.1384 41.5667 34.2437 42.0882L31.0173 48.5411C30.6442 49.2874 30.6833 50.1566 31.1219 50.8665C31.5605 51.5762 32.3206 52 33.155 52H45.1749C46.4927 52 47.5648 50.9278 47.5648 49.61V42.1052C48.2708 41.8671 48.8298 41.3081 49.068 40.6022H50.0597C51.3776 40.6022 52.4497 39.5301 52.4497 38.2122V35.7698C52.4496 34.4518 51.3774 33.3796 50.0596 33.3796ZM31.3869 2.38996V5.64646C31.3869 6.12431 30.9981 6.51299 30.5203 6.51299H29.6538V1.52343H30.5203C30.9981 1.52343 31.3869 1.91222 31.3869 2.38996ZM32.4177 50.0654C32.2564 49.8043 32.2424 49.497 32.3797 49.2224L35.8758 42.2302H38.2433L34.1202 50.4765H33.1549C32.8478 50.4765 32.5792 50.3267 32.4177 50.0654ZM45.1748 50.4765H35.8234L39.9465 42.2302H46.0413V49.6099C46.0413 50.0877 45.6526 50.4765 45.1748 50.4765ZM47.6696 39.8403C47.6696 40.3181 47.2809 40.7068 46.8031 40.7068H35.4051C33.5805 40.7068 32.0961 39.2225 32.0961 37.3978V30.0706C32.0961 28.6949 33.2153 27.5758 34.5909 27.5758H46.8029C47.9131 27.5758 48.8562 28.3046 49.1789 29.3088H37.0334C35.7156 29.3088 34.6435 30.381 34.6435 31.6988V35.7695C34.6435 37.0874 35.7157 38.1595 37.0334 38.1595H46.8031C47.281 38.1595 47.6696 38.5483 47.6696 39.026V39.8403Z" fill="white"/>
</svg>
