<svg width="48" height="49" viewBox="0 0 48 49" fill="none" xmlns="http://www.w3.org/2000/svg">
<path d="M33.2065 30.1035C33.1666 29.9205 33.0558 29.7608 32.8984 29.6593C32.741 29.5578 32.5498 29.5229 32.3667 29.5621L31.077 29.8403C30.9853 29.8588 30.8982 29.8954 30.8207 29.9478C30.7433 30.0003 30.677 30.0677 30.6257 30.1459C30.5745 30.2242 30.5393 30.3119 30.5222 30.4039C30.5052 30.4959 30.5065 30.5904 30.5263 30.6819C30.546 30.7733 30.5837 30.86 30.6372 30.9368C30.6907 31.0135 30.7589 31.0789 30.8378 31.1291C30.9168 31.1793 31.0049 31.2134 31.0972 31.2292C31.1894 31.2451 31.2838 31.2425 31.375 31.2216L32.665 30.9434C32.8482 30.9038 33.0081 30.7931 33.1097 30.6356C33.2112 30.4781 33.246 30.2867 33.2065 30.1035Z" fill="white"/>
<path d="M28.6182 30.3704L25.0429 31.1416C24.9511 31.1601 24.864 31.1967 24.7865 31.2492C24.7091 31.3017 24.6428 31.369 24.5916 31.4473C24.5403 31.5256 24.5051 31.6133 24.4881 31.7053C24.471 31.7973 24.4724 31.8917 24.4921 31.9832C24.5118 32.0747 24.5495 32.1613 24.603 32.2381C24.6565 32.3149 24.7247 32.3803 24.8037 32.4305C24.8826 32.4807 24.9708 32.5147 25.063 32.5306C25.1552 32.5464 25.2496 32.5438 25.3408 32.5229L28.9161 31.7517C29.0972 31.7101 29.2546 31.5989 29.3543 31.4422C29.454 31.2854 29.4879 31.0956 29.4488 30.914C29.4096 30.7324 29.3005 30.5735 29.145 30.4718C28.9895 30.3701 28.8003 30.3337 28.6182 30.3704Z" fill="white"/>
<path d="M17.4372 35.2118C16.5764 35.3972 15.79 35.8338 15.1773 36.4662C14.5646 37.0986 14.1532 37.8986 13.9951 38.7648C13.8371 39.631 13.9395 40.5247 14.2894 41.3328C14.6393 42.1408 15.2209 42.827 15.9608 43.3044C16.7006 43.7819 17.5655 44.0292 18.4459 44.0151C19.3263 44.0011 20.1828 43.7262 20.907 43.2253C21.6312 42.7245 22.1907 42.0201 22.5145 41.2013C22.8384 40.3824 22.9122 39.4859 22.7265 38.6252C22.4765 37.4718 21.7793 36.4647 20.7877 35.8248C19.7961 35.1849 18.5912 34.9644 17.4372 35.2118ZM19.0164 42.5332C18.4289 42.66 17.817 42.6097 17.2581 42.3887C16.6992 42.1678 16.2183 41.786 15.8764 41.2918C15.5344 40.7976 15.3467 40.213 15.337 39.6121C15.3273 39.0112 15.496 38.4208 15.8217 37.9158C16.1475 37.4107 16.6157 37.0136 17.1672 36.7747C17.7186 36.5357 18.3286 36.4657 18.9198 36.5734C19.5111 36.6811 20.0572 36.9617 20.489 37.3797C20.9208 37.7978 21.2189 38.3345 21.3456 38.922C21.5145 39.7096 21.3641 40.5321 20.9275 41.2091C20.4908 41.886 19.8036 42.3622 19.0164 42.5332Z" fill="white"/>
<path d="M47.9842 33.1778L47.3814 30.3822C47.3618 30.2915 47.3246 30.2055 47.2718 30.1291C47.219 30.0528 47.1517 29.9876 47.0737 29.9373C46.9957 29.887 46.9086 29.8525 46.8173 29.8359C46.726 29.8193 46.6323 29.8208 46.5415 29.8404L43.8795 30.4145L39.1188 8.33484C39.0791 8.15181 38.9684 7.99201 38.8111 7.8905C38.6537 7.78899 38.4625 7.75406 38.2794 7.7934L24.1219 10.8458L16.1993 12.5545L13.612 0.557594C13.5779 0.399718 13.4907 0.25829 13.365 0.156841C13.2393 0.0553931 13.0827 4.27027e-05 12.9212 1.15503e-07H0.706582C0.613777 -5.29612e-05 0.521872 0.0181871 0.436122 0.0536774C0.350371 0.0891676 0.272458 0.141212 0.206835 0.206835C0.141212 0.272458 0.0891676 0.350371 0.0536774 0.436122C0.0181871 0.521872 -5.29612e-05 0.613777 1.15503e-07 0.706582V3.56642C1.15503e-07 3.75382 0.0744432 3.93354 0.206953 4.06605C0.339463 4.19856 0.519185 4.273 0.706582 4.273H10.0419L15.9138 31.501C14.3755 31.9697 13.0032 32.8684 11.9587 34.0912C10.9143 35.314 10.2413 36.81 10.019 38.4027C9.79669 39.9954 10.0344 41.6184 10.7041 43.0805C11.3739 44.5426 12.4477 45.7827 13.7989 46.6546C15.1502 47.5265 16.7226 47.9939 18.3307 48.0016C19.9388 48.0094 21.5157 47.5572 22.8753 46.6983C24.2349 45.8395 25.3206 44.6098 26.0044 43.1543C26.6882 41.6987 26.9416 40.0781 26.7346 38.4833L47.4423 34.0173C47.6255 33.9778 47.7854 33.8672 47.8871 33.7098C47.9887 33.5523 48.0236 33.361 47.9842 33.1778ZM20.2527 31.3492L17.7425 19.7152L24.9746 18.1555L26.0361 23.0721C26.0651 23.2074 26.1333 23.3312 26.2322 23.4281C26.3311 23.5249 26.4562 23.5906 26.5921 23.6168C26.6364 23.6254 26.6814 23.6298 26.7266 23.6297C26.8421 23.6297 26.9559 23.6013 27.058 23.5471C27.16 23.4929 27.2473 23.4145 27.312 23.3188L29.2121 20.5086L31.8741 22.311C31.9908 22.39 32.1285 22.4323 32.2695 22.4324C32.4104 22.4325 32.5482 22.3904 32.665 22.3117C32.7819 22.2329 32.8725 22.1209 32.9253 21.9902C32.978 21.8595 32.9905 21.716 32.961 21.5782L31.9008 16.6616L39.1329 15.1019L42.4999 30.7125L25.0869 34.4675C23.8881 32.8965 22.1782 31.7935 20.2527 31.3492ZM29.2731 11.1805L30.3705 16.2679L31.2083 20.1521L29.4188 18.9408C29.2636 18.8358 29.0729 18.7968 28.8889 18.8323C28.7048 18.8678 28.5424 18.975 28.4373 19.1302L27.0694 21.1551L25.1107 12.0781L29.2731 11.1805ZM38.8349 13.7206L31.6028 15.2795L30.6543 10.8826L37.8865 9.32284L38.8349 13.7206ZM23.7294 12.3761L24.6779 16.7734L17.4457 18.334L16.4973 13.9358L23.7294 12.3761ZM10.6121 2.85984H1.41316V1.41316H12.3506L14.9666 13.5434L18.762 31.1441C18.2719 31.1204 17.7806 31.1397 17.2939 31.2018L11.3029 3.41743C11.2688 3.25952 11.1817 3.11805 11.056 3.01659C10.9303 2.91513 10.7736 2.85981 10.6121 2.85984ZM19.8582 46.4293C18.4998 46.723 17.0849 46.6073 15.7923 46.0968C14.4998 45.5862 13.3876 44.7038 12.5967 43.5611C11.8057 42.4184 11.3714 41.0668 11.3487 39.6773C11.326 38.2877 11.716 36.9226 12.4692 35.7547C13.2225 34.5868 14.3052 33.6686 15.5804 33.1161C16.8556 32.5636 18.266 32.4018 19.6332 32.6511C21.0004 32.9003 22.263 33.5494 23.2612 34.5164C24.2595 35.4833 24.9485 36.7246 25.2411 38.0831C25.6313 39.9038 25.2836 41.8049 24.2741 43.3695C23.2646 44.9341 21.6758 46.0345 19.8562 46.4293H19.8582ZM26.4395 37.1024C26.2955 36.6334 26.1105 36.178 25.8867 35.7413L46.1511 31.371L46.4563 32.7842L26.4395 37.1024Z" fill="white"/>
</svg>
