<svg width="68" height="34" viewBox="0 0 68 34" fill="none" xmlns="http://www.w3.org/2000/svg">
<path d="M53.0333 19.8333V20.6333H53.8333H65.1667C66.2888 20.6333 67.2 21.5445 67.2 22.6667C67.2 23.7888 66.2888 24.7 65.1667 24.7H62.3333H61.5333V25.5V28.3333C61.5333 29.4555 60.6222 30.3667 59.5 30.3667C58.3778 30.3667 57.4667 29.4555 57.4667 28.3333V25.5V24.7H56.6667H36.8333H36.0333V25.5C36.0333 29.746 32.5794 33.2 28.3333 33.2C24.0873 33.2 20.6333 29.746 20.6333 25.5V24.7H19.8333H10.8519C8.82353 24.7 6.83388 23.8769 5.40529 22.4471L5.40504 22.4468L3.05315 20.095L3.05291 20.0947C1.62301 18.6661 0.8 16.6778 0.8 14.6481V2.83333C0.8 1.71116 1.71116 0.8 2.83333 0.8H51C52.1222 0.8 53.0333 1.71116 53.0333 2.83333V19.8333ZM31.5786 23.877V23.8637L31.4716 23.6781C31.4661 23.6686 31.4606 23.6591 31.455 23.6497L31.4208 23.5901L31.4168 23.5861C30.754 22.5091 29.6045 21.8667 28.3333 21.8667C27.0335 21.8667 25.861 22.5384 25.2059 23.6595C25.1982 23.6719 25.1891 23.6874 25.1794 23.7058C24.8644 24.2612 24.7 24.8671 24.7 25.5C24.7 27.5044 26.3289 29.1333 28.3333 29.1333C30.3378 29.1333 31.9667 27.5044 31.9667 25.5C31.9667 24.9307 31.8337 24.3851 31.5786 23.877ZM34.0667 20.367L34.3051 20.6333H34.6627H38.25H39.05V19.8333C39.05 16.2663 36.1504 13.3667 32.5833 13.3667H24.0833C20.5163 13.3667 17.6167 16.2663 17.6167 19.8333V20.6333H18.4167H22.004H22.3615L22.6 20.367C24.0423 18.756 26.1275 17.8 28.3333 17.8C30.5392 17.8 32.6243 18.756 34.0667 20.367ZM12.75 20.6333H13.55V19.8333C13.55 14.0261 18.2761 9.3 24.0833 9.3H32.5833C38.3906 9.3 43.1167 14.0261 43.1167 19.8333V20.6333H43.9167H48.1667H48.9667V19.8333V5.66667V4.86667H48.1667H5.66667H4.86667V5.66667V14.6481C4.86667 15.6091 5.25177 16.5415 5.92755 17.2191L5.92829 17.2198L8.28018 19.5717C8.95724 20.2488 9.89312 20.6333 10.8519 20.6333H12.75Z" fill="white" stroke="black" stroke-width="1.6"/>
</svg>
