<svg width="35" height="47" viewBox="0 0 35 47" fill="none" xmlns="http://www.w3.org/2000/svg">
<path d="M11.0938 47C5.42465 47 0.8125 42.3878 0.8125 36.7188C0.8125 34.0246 1.87551 31.439 3.75 29.5242V7.34375C3.75 3.29441 7.04441 0 11.0938 0C15.1431 0 18.4375 3.29441 18.4375 7.34375V29.5242C20.3121 31.4391 21.375 34.0247 21.375 36.7188C21.375 42.3878 16.7628 47 11.0938 47ZM11.0938 2.9375C8.66416 2.9375 6.6875 4.91416 6.6875 7.34375V30.1507C6.6875 30.5685 6.5096 30.9665 6.19832 31.2451C4.64236 32.6377 3.75 34.6329 3.75 36.7188C3.75 40.7681 7.04441 44.0625 11.0938 44.0625C15.1431 44.0625 18.4375 40.7681 18.4375 36.7188C18.4375 34.6329 17.5451 32.6378 15.9892 31.2451C15.6779 30.9665 15.5 30.5685 15.5 30.1507V7.34375C15.5 4.91416 13.5233 2.9375 11.0938 2.9375Z" fill="white"/>
<path d="M12.5625 32.5651V8.07812C12.5625 7.26701 11.9049 6.60938 11.0937 6.60938C10.2826 6.60938 9.625 7.26701 9.625 8.07812V32.5651C7.91547 33.1714 6.6875 34.804 6.6875 36.7188C6.6875 39.1483 8.66416 41.125 11.0937 41.125C13.5233 41.125 15.5 39.1483 15.5 36.7188C15.5 34.8041 14.272 33.1714 12.5625 32.5651ZM11.0937 38.1875C10.2839 38.1875 9.625 37.5286 9.625 36.7188C9.625 35.9089 10.2839 35.25 11.0937 35.25C11.9036 35.25 12.5625 35.9089 12.5625 36.7188C12.5625 37.5286 11.9036 38.1875 11.0937 38.1875Z" fill="white"/>
<path d="M33.125 11.75C32.3138 11.75 31.6562 11.0924 31.6562 10.2812C31.6562 6.23191 28.3618 2.9375 24.3125 2.9375C23.5013 2.9375 22.8438 2.27987 22.8438 1.46875C22.8438 0.657633 23.5013 0 24.3125 0C29.9816 0 34.5938 4.61215 34.5938 10.2812C34.5938 11.0924 33.9362 11.75 33.125 11.75Z" fill="white"/>
<path d="M27.9844 11.75C27.1732 11.75 26.5156 11.0924 26.5156 10.2812C26.5156 9.0665 25.5272 8.07812 24.3125 8.07812C23.5013 8.07812 22.8438 7.42049 22.8438 6.60937C22.8438 5.79826 23.5013 5.14062 24.3125 5.14062C27.1471 5.14062 29.4531 7.44675 29.4531 10.2812C29.4531 11.0924 28.7956 11.75 27.9844 11.75Z" fill="white"/>
<path d="M22.8455 13.2188C22.0344 13.2188 21.3763 12.5611 21.3763 11.75C21.3763 10.9389 22.0335 10.2812 22.8446 10.2812H22.8455C23.6568 10.2812 24.3143 10.9389 24.3143 11.75C24.3143 12.5611 23.6567 13.2188 22.8455 13.2188Z" fill="white"/>
</svg>
