<svg width="49" height="25" viewBox="0 0 49 25" fill="none" xmlns="http://www.w3.org/2000/svg">
<path d="M25.6529 22.5409L27.8152 20.3785C28.0133 20.1805 28.0133 19.8559 27.8152 19.6578L27.6347 19.4774C27.4369 19.2793 27.1123 19.2793 26.9143 19.4774L25.264 21.1272L23.6139 19.4772C23.4159 19.2791 23.0913 19.2791 22.8935 19.4772L22.713 19.6576C22.5147 19.8557 22.5147 20.1803 22.713 20.3783L24.8756 22.5406C24.9818 22.6471 25.1244 22.6945 25.2642 22.6866C25.4038 22.6947 25.5464 22.6473 25.6529 22.5409Z" fill="white"/>
<path d="M24.8751 10.9259L22.7127 13.0883C22.5147 13.2863 22.5147 13.6109 22.7127 13.809L22.8932 13.9894C23.091 14.1875 23.4156 14.1875 23.6137 13.9894L25.264 12.3396L26.914 13.9896C27.1121 14.1877 27.4367 14.1877 27.6345 13.9896L27.8149 13.8092C28.0132 13.6111 28.0132 13.2865 27.8149 13.0885L25.6524 10.9262C25.5461 10.8197 25.4036 10.7723 25.2637 10.7802C25.1241 10.7721 24.9815 10.8195 24.8751 10.9259Z" fill="white"/>
<path d="M47.303 16.7989H44.0972V15.399H46.8571C47.3448 14.2967 47.5967 13.1046 47.5967 11.8992C47.5967 10.6938 47.3448 9.50175 46.8571 8.39943H17.4989C16.0794 8.39943 8.73474 8.95309 6.58798 9.78674L6.217 9.93023C4.89969 10.4398 1.39991 11.7928 1.39991 12.5992V14.699C1.39991 14.8847 1.47366 15.0627 1.60492 15.194C1.73619 15.3252 1.91423 15.399 2.09987 15.399H4.19973V16.7989H2.09987C1.54295 16.7989 1.00884 16.5777 0.615036 16.1839C0.221235 15.7901 0 15.2559 0 14.699V12.5992C0 10.9634 2.47574 9.87563 5.71233 8.62481L6.08051 8.48482C8.56955 7.51539 16.2614 6.99952 17.4989 6.99952H47.303C47.4338 6.99893 47.5621 7.03502 47.6735 7.10369C47.7848 7.17235 47.8747 7.27084 47.9329 7.38799C48.6346 8.7884 49 10.3332 49 11.8996C49 13.4659 48.6346 15.0107 47.9329 16.4111C47.8746 16.5281 47.7847 16.6265 47.6734 16.695C47.562 16.7636 47.4337 16.7995 47.303 16.7989Z" fill="white"/>
<path d="M12.5992 15.3989H16.5819V16.7988H12.5992V15.3989Z" fill="white"/>
<path d="M19.3818 15.3989H35.6977V16.7988H19.3818V15.3989Z" fill="white"/>
<path d="M12.791 8.72214L12.4067 7.37613C14.0166 6.91556 15.1442 5.90622 16.4482 4.731C18.7945 2.62343 21.7133 0 28.6981 0C35.3757 0 38.8475 2.78302 41.3883 4.81499C42.9121 6.03571 44.1153 6.99955 45.4971 6.99955V8.39946C43.624 8.39946 42.1828 7.24524 40.5134 5.90762C38.0075 3.89945 34.8843 1.39991 28.6981 1.39991C22.2494 1.39991 19.6652 3.72306 17.3848 5.77323C16.0107 7.00725 14.7137 8.17338 12.791 8.72214Z" fill="white"/>
<path d="M39.8974 20.9986C38.9284 20.9986 37.9811 20.7112 37.1753 20.1728C36.3696 19.6345 35.7416 18.8692 35.3707 17.9739C34.9999 17.0786 34.9028 16.0935 35.0919 15.143C35.2809 14.1926 35.7476 13.3195 36.4328 12.6343C37.1181 11.9491 37.9911 11.4824 38.9415 11.2934C39.892 11.1043 40.8772 11.2013 41.7725 11.5722C42.6678 11.943 43.433 12.571 43.9714 13.3768C44.5098 14.1825 44.7971 15.1298 44.7971 16.0989C44.7956 17.3979 44.2789 18.6433 43.3604 19.5619C42.4418 20.4804 41.1965 20.9971 39.8974 20.9986ZM39.8974 12.5991C39.2052 12.5991 38.5286 12.8044 37.9531 13.1889C37.3775 13.5735 36.9289 14.1201 36.6641 14.7596C36.3992 15.3991 36.3299 16.1028 36.4649 16.7817C36.5999 17.4606 36.9333 18.0842 37.4227 18.5736C37.9122 19.0631 38.5358 19.3964 39.2147 19.5314C39.8935 19.6665 40.5972 19.5972 41.2367 19.3323C41.8762 19.0674 42.4228 18.6188 42.8074 18.0433C43.1919 17.4677 43.3972 16.7911 43.3972 16.0989C43.3961 15.171 43.027 14.2815 42.3709 13.6254C41.7148 12.9693 40.8253 12.6002 39.8974 12.5991Z" fill="white"/>
<path d="M8.39944 20.9986C7.43038 20.9986 6.48307 20.7112 5.67732 20.1728C4.87158 19.6345 4.24357 18.8692 3.87272 17.9739C3.50188 17.0786 3.40485 16.0935 3.5939 15.143C3.78296 14.1926 4.24961 13.3195 4.93484 12.6343C5.62008 11.9491 6.49312 11.4824 7.44356 11.2934C8.39401 11.1043 9.37917 11.2013 10.2745 11.5722C11.1698 11.943 11.935 12.571 12.4734 13.3768C13.0118 14.1825 13.2991 15.1298 13.2991 16.0989C13.2976 17.3979 12.781 18.6433 11.8624 19.5619C10.9439 20.4804 9.69847 20.9971 8.39944 20.9986ZM8.39944 12.5991C7.70725 12.5991 7.03061 12.8044 6.45507 13.1889C5.87954 13.5735 5.43096 14.1201 5.16607 14.7596C4.90118 15.3991 4.83188 16.1028 4.96692 16.7817C5.10195 17.4606 5.43528 18.0842 5.92473 18.5736C6.41418 19.0631 7.03778 19.3964 7.71667 19.5314C8.39556 19.6665 9.09925 19.5972 9.73875 19.3323C10.3782 19.0674 10.9248 18.6188 11.3094 18.0433C11.694 17.4677 11.8992 16.7911 11.8992 16.0989C11.8981 15.171 11.529 14.2815 10.8729 13.6254C10.2168 12.9693 9.3273 12.6002 8.39944 12.5991Z" fill="white"/>
<path d="M27.2982 0.710449H28.6981V7.6995H27.2982V0.710449Z" fill="white"/>
</svg>
