<svg width="49" height="46" viewBox="0 0 49 46" fill="none" xmlns="http://www.w3.org/2000/svg">
<path d="M47.303 41.7989H44.0972V40.399H46.8571C47.3448 39.2967 47.5967 38.1046 47.5967 36.8992C47.5967 35.6938 47.3448 34.5017 46.8571 33.3994H17.4989C16.0794 33.3994 8.73474 33.9531 6.58798 34.7867L6.217 34.9302C4.89969 35.4398 1.39991 36.7928 1.39991 37.5992V39.699C1.39991 39.8847 1.47366 40.0627 1.60492 40.194C1.73619 40.3252 1.91423 40.399 2.09987 40.399H4.19973V41.7989H2.09987C1.54295 41.7989 1.00884 41.5777 0.615036 41.1839C0.221235 40.7901 0 40.2559 0 39.699V37.5992C0 35.9634 2.47574 34.8756 5.71233 33.6248L6.08051 33.4848C8.56955 32.5154 16.2614 31.9995 17.4989 31.9995H47.303C47.4338 31.9989 47.5621 32.035 47.6735 32.1037C47.7848 32.1723 47.8747 32.2708 47.9329 32.388C48.6346 33.7884 49 35.3332 49 36.8996C49 38.4659 48.6346 40.0107 47.9329 41.4111C47.8746 41.5281 47.7847 41.6265 47.6734 41.695C47.562 41.7636 47.4337 41.7995 47.303 41.7989Z" fill="white"/>
<path d="M12.5992 40.3989H16.5819V41.7988H12.5992V40.3989Z" fill="white"/>
<path d="M19.3818 40.3989H35.6977V41.7988H19.3818V40.3989Z" fill="white"/>
<path d="M12.791 33.7221L12.4067 32.3761C14.0166 31.9156 15.1442 30.9062 16.4482 29.731C18.7945 27.6234 21.7133 25 28.6981 25C35.3757 25 38.8475 27.783 41.3883 29.815C42.9121 31.0357 44.1153 31.9996 45.4971 31.9996V33.3995C43.624 33.3995 42.1828 32.2452 40.5134 30.9076C38.0075 28.8995 34.8843 26.3999 28.6981 26.3999C22.2494 26.3999 19.6652 28.7231 17.3848 30.7732C16.0107 32.0073 14.7137 33.1734 12.791 33.7221Z" fill="white"/>
<path d="M39.8974 45.9986C38.9284 45.9986 37.9811 45.7112 37.1753 45.1728C36.3696 44.6345 35.7416 43.8692 35.3707 42.9739C34.9999 42.0786 34.9028 41.0935 35.0919 40.143C35.2809 39.1926 35.7476 38.3195 36.4328 37.6343C37.1181 36.9491 37.9911 36.4824 38.9415 36.2934C39.892 36.1043 40.8772 36.2013 41.7725 36.5722C42.6678 36.943 43.433 37.571 43.9714 38.3768C44.5098 39.1825 44.7971 40.1298 44.7971 41.0989C44.7956 42.3979 44.2789 43.6433 43.3604 44.5619C42.4418 45.4804 41.1965 45.9971 39.8974 45.9986ZM39.8974 37.5991C39.2052 37.5991 38.5286 37.8044 37.9531 38.1889C37.3775 38.5735 36.9289 39.1201 36.6641 39.7596C36.3992 40.3991 36.3299 41.1028 36.4649 41.7817C36.5999 42.4606 36.9333 43.0842 37.4227 43.5736C37.9122 44.0631 38.5358 44.3964 39.2147 44.5314C39.8935 44.6665 40.5972 44.5972 41.2367 44.3323C41.8762 44.0674 42.4228 43.6188 42.8074 43.0433C43.1919 42.4677 43.3972 41.7911 43.3972 41.0989C43.3961 40.171 43.027 39.2815 42.3709 38.6254C41.7148 37.9693 40.8253 37.6002 39.8974 37.5991Z" fill="white"/>
<path d="M8.39944 45.9986C7.43038 45.9986 6.48307 45.7112 5.67732 45.1728C4.87158 44.6345 4.24357 43.8692 3.87272 42.9739C3.50188 42.0786 3.40485 41.0935 3.5939 40.143C3.78296 39.1926 4.24961 38.3195 4.93484 37.6343C5.62008 36.9491 6.49312 36.4824 7.44356 36.2934C8.39401 36.1043 9.37917 36.2013 10.2745 36.5722C11.1698 36.943 11.935 37.571 12.4734 38.3768C13.0118 39.1825 13.2991 40.1298 13.2991 41.0989C13.2976 42.3979 12.781 43.6433 11.8624 44.5619C10.9439 45.4804 9.69847 45.9971 8.39944 45.9986ZM8.39944 37.5991C7.70725 37.5991 7.03061 37.8044 6.45507 38.1889C5.87954 38.5735 5.43096 39.1201 5.16607 39.7596C4.90118 40.3991 4.83188 41.1028 4.96692 41.7817C5.10195 42.4606 5.43528 43.0842 5.92473 43.5736C6.41418 44.0631 7.03778 44.3964 7.71667 44.5314C8.39556 44.6665 9.09925 44.5972 9.73875 44.3323C10.3782 44.0674 10.9248 43.6188 11.3094 43.0433C11.694 42.4677 11.8992 41.7911 11.8992 41.0989C11.8981 40.171 11.529 39.2815 10.8729 38.6254C10.2168 37.9693 9.3273 37.6002 8.39944 37.5991Z" fill="white"/>
<path d="M27.2982 25.7104H28.6981V32.6995H27.2982V25.7104Z" fill="white"/>
<path d="M36.6627 6.76292C35.4611 1.97588 30.6063 -0.930621 25.8193 0.271038C22.0783 1.21013 19.362 4.44338 19.0821 8.2902C16.4259 8.72824 14.6277 11.2366 15.0657 13.8928C15.4551 16.2543 17.5013 17.9836 19.8945 17.9741H23.9566V16.3493H19.8945C18.0998 16.3493 16.6449 14.8944 16.6449 13.0997C16.6449 11.305 18.0998 9.85003 19.8945 9.85003C20.3432 9.85003 20.7069 9.48632 20.7069 9.03762C20.7029 4.99948 23.9732 1.72261 28.0113 1.7186C31.5069 1.7151 34.5161 4.18635 35.1922 7.6159C35.259 7.95833 35.5369 8.21993 35.8828 8.26583C38.1038 8.58211 39.6479 10.639 39.3316 12.86C39.0476 14.8543 37.3448 16.3393 35.3304 16.3493H32.0807V17.9741H35.3304C38.4711 17.9647 41.0095 15.4108 41 12.2701C40.9921 9.65561 39.2025 7.38335 36.6627 6.76292Z" fill="white"/>
<path d="M27.4418 10.0859L24.1922 13.3355L25.3377 14.481L27.2062 12.6206V20.4116H28.8311V12.6206L30.6915 14.481L31.837 13.3355L28.5873 10.0859C28.2705 9.77086 27.7587 9.77086 27.4418 10.0859Z" fill="white"/>
</svg>
