<svg width="40" height="40" viewBox="0 0 40 40" fill="none" xmlns="http://www.w3.org/2000/svg">
<mask id="path-1-inside-1" fill="white">
<path d="M9.43549 12.2965L11.4283 15.2857L13.4211 12.2965L11.4283 5.32227L9.43549 12.2965ZM11.4283 12.959L10.8405 12.0772L11.4283 10.0192L12.0161 12.0772L11.4283 12.959Z"/>
</mask>
<path d="M9.43549 12.2965L-2.10272 8.99957L-3.6274 14.3355L-0.549118 18.9529L9.43549 12.2965ZM11.4283 15.2857L1.4437 21.9421L11.4283 36.919L21.4129 21.9421L11.4283 15.2857ZM13.4211 12.2965L23.4057 18.9529L26.484 14.3355L24.9593 8.99957L13.4211 12.2965ZM11.4283 5.32227L22.9665 2.02534L11.4283 -38.3547L-0.109905 2.02534L11.4283 5.32227ZM11.4283 12.959L1.4437 19.6154L11.4283 34.5923L21.4129 19.6154L11.4283 12.959ZM10.8405 12.0772L-0.698078 8.78152L-2.22199 14.1169L0.855872 18.7336L10.8405 12.0772ZM11.4283 10.0192L22.9669 6.7235L11.4283 -33.6738L-0.11025 6.7235L11.4283 10.0192ZM12.0161 12.0772L22.0007 18.7336L25.0786 14.1169L23.5547 8.78152L12.0161 12.0772ZM-0.549118 18.9529L1.4437 21.9421L21.4129 8.62932L19.4201 5.6401L-0.549118 18.9529ZM21.4129 21.9421L23.4057 18.9529L3.43652 5.6401L1.4437 8.62932L21.4129 21.9421ZM24.9593 8.99957L22.9665 2.02534L-0.109905 8.61919L1.88291 15.5934L24.9593 8.99957ZM-0.109905 2.02534L-2.10272 8.99957L20.9737 15.5934L22.9665 8.61919L-0.109905 2.02534ZM21.4129 6.30258L20.8251 5.42084L0.855872 18.7336L1.4437 19.6154L21.4129 6.30258ZM22.379 15.373L22.9669 13.3149L-0.11025 6.7235L-0.698078 8.78152L22.379 15.373ZM-0.11025 13.3149L0.477577 15.373L23.5547 8.78152L22.9669 6.7235L-0.11025 13.3149ZM2.03153 5.42084L1.4437 6.30258L21.4129 19.6154L22.0007 18.7336L2.03153 5.42084Z" fill="white" mask="url(#path-1-inside-1)"/>
<mask id="path-3-inside-2" fill="white">
<path d="M40 21.9355V21.2903C40 20.5787 39.4213 20 38.7097 20H36.0594L35.2221 15.5343C34.9361 14.0096 33.6032 12.9032 32.0524 12.9032H21.7619C21.8747 12.2672 21.9355 11.6192 21.9355 10.9677C21.9355 4.91998 17.0155 0 10.9677 0C4.91998 0 0 4.91998 0 10.9677C0 16.7975 4.57535 21.5656 10.3226 21.9027V21.9355C10.3226 23.2756 11.3524 24.3671 12.6607 24.4916L11.5348 25.6174C11.169 25.9825 10.9677 26.4689 10.9677 26.9859V32.213C10.9677 32.8613 11.2897 33.4633 11.8296 33.8231L12.2581 34.1085V38.0645C12.2581 39.1315 13.1266 40 14.1935 40H17.4194C18.4863 40 19.3548 39.1315 19.3548 38.0645V36.129H30.9677V38.0645C30.9677 39.1315 31.8363 40 32.9032 40H36.129C37.196 40 38.0645 39.1315 38.0645 38.0645V34.1085L38.4929 33.8225C39.0329 33.4633 39.3548 32.8613 39.3548 32.213V26.9859C39.3548 26.4689 39.1535 25.9825 38.7878 25.6174L37.6619 24.4916C38.9702 24.3671 40 23.2756 40 21.9355ZM38.0645 29.3457L34.0729 32.1966C33.8666 32.3431 33.5484 32.1787 33.5484 31.9257V30.8408C33.9343 30.7337 34.3025 30.5633 34.6232 30.3226L38.0645 27.7419V29.3457ZM33.8489 29.2903C33.5169 29.5401 33.1045 29.6774 32.6884 29.6774H30.0832C29.6418 29.0354 29.0779 28.4929 28.4303 28.0696C29.1343 27.9376 29.8324 27.7741 30.5182 27.5567L30.1279 26.3272C28.5188 26.8381 26.8485 27.0968 25.1613 27.0968C22.0234 27.0968 18.986 26.1999 16.3464 24.5161H33.9837C33.1697 25.0356 32.311 25.4876 31.4207 25.855L31.9134 27.0483C32.9813 26.6072 34.0115 26.0582 34.9748 25.4161L36.0471 24.7014L37.7278 26.382L33.8489 29.2903ZM20.1162 34.8387L20.5393 32.3019C20.7844 30.831 21.6904 29.6245 22.9224 28.956C21.9071 30.7444 21.3451 32.7715 21.3013 34.8387H20.1162ZM15.8742 34.8387C15.7466 34.8387 15.6225 34.8012 15.516 34.7303L12.545 32.7498C12.3652 32.6298 12.2581 32.4291 12.2581 32.213V30.9309L15.4993 33.2466C15.7762 33.4438 16.1019 33.5484 16.4418 33.5484C17.3368 33.5484 18.0645 32.8207 18.0645 31.9257V30.9677H19.5697C19.4355 31.3259 19.3315 31.6998 19.2663 32.0905L18.8083 34.8387H15.8742ZM8.01285 16.7742L10.2026 20.6064C9.53409 20.5535 8.88451 20.4347 8.26077 20.253L6.273 16.7742H8.01285ZM9.4988 16.7742H11.2387L13.0818 20H11.6129C11.525 20 11.44 20.0091 11.3568 20.0258L9.4988 16.7742ZM14.4645 16.7742L14.7685 17.3066L14.3388 19.5987L12.7246 16.7742H14.4645ZM15.3478 25.4161C17.3425 26.7465 19.564 27.6355 21.8892 28.0724C21.2424 28.4948 20.6795 29.0373 20.2388 29.678H17.6336C17.2174 29.678 16.8051 29.5407 16.4724 29.2909L12.5942 26.3826L14.2748 24.702L15.3478 25.4161ZM25.4902 28.4019C25.7979 28.8095 26.0818 29.2336 26.3291 29.6774H23.9935C24.2408 29.2336 24.5253 28.8095 24.8324 28.4019C24.9414 28.3943 25.0504 28.3871 25.1613 28.3871C25.2722 28.3871 25.3812 28.3943 25.4902 28.4019ZM23.389 30.9677H26.9342C27.1024 31.3896 27.253 31.8186 27.3689 32.2581H22.9543C23.0702 31.8186 23.2201 31.3896 23.389 30.9677ZM15.6987 30.3226C16.02 30.5639 16.3883 30.7337 16.7742 30.8408V31.9257C16.7742 32.1787 16.4554 32.3425 16.2497 32.196L12.2581 29.3457V27.7419L15.6987 30.3226ZM22.6994 33.5484H27.6232C27.684 33.9756 27.7205 34.4059 27.7309 34.8387H22.5923C22.6021 34.4059 22.6386 33.9756 22.6994 33.5484ZM27.4001 28.9567C28.6322 29.6251 29.5382 30.8317 29.7833 32.3025L30.2063 34.8387H29.0212C28.9774 32.7715 28.4154 30.7444 27.4001 28.9567ZM33.9541 15.7721L35.3516 23.2258H34.0949L32.9845 16.5612C32.8793 15.9369 32.3444 15.4839 31.7115 15.4839H30.3226V16.7742H31.7115L32.7864 23.2258H17.5356L18.6104 16.7742H29.0323V15.4839H18.6111C17.9788 15.4839 17.4433 15.9369 17.3381 16.5625L16.2276 23.2258H14.971L16.118 17.1097L16.1363 17.0993L16.124 17.0782L16.3684 15.7731C16.5408 14.8573 17.34 14.1935 18.2702 14.1935H32.0517C32.9826 14.1935 33.7818 14.8573 33.9541 15.7721ZM18.2702 12.9032C16.7367 12.9032 15.4206 13.9866 15.115 15.4839H2.41494C2.37494 15.4089 2.34186 15.3305 2.30374 15.2542L3.46522 14.7729L2.97096 13.5805L1.80633 14.0631C1.54391 13.2857 1.37947 12.4644 1.32308 11.6129H3.87097V10.3226H1.32308C1.3801 9.47108 1.54391 8.64982 1.80759 7.87172L2.97222 8.35433L3.46648 7.16198L2.30532 6.68063C2.67925 5.92773 3.14579 5.23154 3.69424 4.60528L5.49427 6.4053L6.40656 5.49301L4.60654 3.69298C5.2328 3.14453 5.92899 2.67799 6.68189 2.30374L7.16324 3.46522L8.35559 2.97096L7.87298 1.80633C8.64982 1.54391 9.47108 1.37947 10.3226 1.32308V3.87097H11.6129V1.32308C12.4644 1.3801 13.2857 1.54391 14.0638 1.80759L13.5811 2.97222L14.7735 3.46648L15.2549 2.30532C16.0077 2.67925 16.7039 3.14579 17.3302 3.69424L15.5302 5.49427L16.4425 6.40656L18.2425 4.60654C18.791 5.2328 19.2575 5.92899 19.6317 6.68189L18.4703 7.16324L18.9645 8.35559L20.1292 7.87298C20.3928 8.65108 20.5566 9.47234 20.6137 10.3238H18.0645V11.6142H20.6231C20.5948 12.0489 20.5349 12.4802 20.4489 12.9045H18.2702V12.9032ZM3.24376 16.7742H4.78705L6.31552 19.4497C5.11026 18.7853 4.06786 17.867 3.24376 16.7742ZM11.6129 21.9355V21.2903H14.0212L13.658 23.2258H12.9032C12.1916 23.2258 11.6129 22.6471 11.6129 21.9355ZM18.0645 38.0645C18.0645 38.4205 17.7753 38.7097 17.4194 38.7097H14.1935C13.8376 38.7097 13.5484 38.4205 13.5484 38.0645V34.9691L14.8006 35.8039C15.1194 36.0169 15.4911 36.129 15.8742 36.129H18.0645V38.0645ZM36.7742 38.0645C36.7742 38.4205 36.485 38.7097 36.129 38.7097H32.9032C32.5473 38.7097 32.2581 38.4205 32.2581 38.0645V36.129H34.4484C34.8315 36.129 35.2032 36.0169 35.522 35.8039L36.7742 34.9691V38.0645ZM37.7775 32.7498L34.8066 34.7303C34.6995 34.8012 34.576 34.8387 34.4484 34.8387H31.5143L31.0563 32.0905C30.9911 31.6998 30.8871 31.3259 30.7529 30.9677H32.2581V31.9257C32.2581 32.8207 32.9858 33.5484 33.8807 33.5484C34.2206 33.5484 34.5464 33.4438 34.8233 33.2457L38.0645 30.9309V32.213C38.0645 32.4291 37.9574 32.6298 37.7775 32.7498ZM38.7097 21.9355C38.7097 22.6471 38.131 23.2258 37.4194 23.2258H36.6646L36.3013 21.2903H38.7097V21.9355Z"/>
</mask>
<path d="M40 21.9355V21.2903C40 20.5787 39.4213 20 38.7097 20H36.0594L35.2221 15.5343C34.9361 14.0096 33.6032 12.9032 32.0524 12.9032H21.7619C21.8747 12.2672 21.9355 11.6192 21.9355 10.9677C21.9355 4.91998 17.0155 0 10.9677 0C4.91998 0 0 4.91998 0 10.9677C0 16.7975 4.57535 21.5656 10.3226 21.9027V21.9355C10.3226 23.2756 11.3524 24.3671 12.6607 24.4916L11.5348 25.6174C11.169 25.9825 10.9677 26.4689 10.9677 26.9859V32.213C10.9677 32.8613 11.2897 33.4633 11.8296 33.8231L12.2581 34.1085V38.0645C12.2581 39.1315 13.1266 40 14.1935 40H17.4194C18.4863 40 19.3548 39.1315 19.3548 38.0645V36.129H30.9677V38.0645C30.9677 39.1315 31.8363 40 32.9032 40H36.129C37.196 40 38.0645 39.1315 38.0645 38.0645V34.1085L38.4929 33.8225C39.0329 33.4633 39.3548 32.8613 39.3548 32.213V26.9859C39.3548 26.4689 39.1535 25.9825 38.7878 25.6174L37.6619 24.4916C38.9702 24.3671 40 23.2756 40 21.9355ZM38.0645 29.3457L34.0729 32.1966C33.8666 32.3431 33.5484 32.1787 33.5484 31.9257V30.8408C33.9343 30.7337 34.3025 30.5633 34.6232 30.3226L38.0645 27.7419V29.3457ZM33.8489 29.2903C33.5169 29.5401 33.1045 29.6774 32.6884 29.6774H30.0832C29.6418 29.0354 29.0779 28.4929 28.4303 28.0696C29.1343 27.9376 29.8324 27.7741 30.5182 27.5567L30.1279 26.3272C28.5188 26.8381 26.8485 27.0968 25.1613 27.0968C22.0234 27.0968 18.986 26.1999 16.3464 24.5161H33.9837C33.1697 25.0356 32.311 25.4876 31.4207 25.855L31.9134 27.0483C32.9813 26.6072 34.0115 26.0582 34.9748 25.4161L36.0471 24.7014L37.7278 26.382L33.8489 29.2903ZM20.1162 34.8387L20.5393 32.3019C20.7844 30.831 21.6904 29.6245 22.9224 28.956C21.9071 30.7444 21.3451 32.7715 21.3013 34.8387H20.1162ZM15.8742 34.8387C15.7466 34.8387 15.6225 34.8012 15.516 34.7303L12.545 32.7498C12.3652 32.6298 12.2581 32.4291 12.2581 32.213V30.9309L15.4993 33.2466C15.7762 33.4438 16.1019 33.5484 16.4418 33.5484C17.3368 33.5484 18.0645 32.8207 18.0645 31.9257V30.9677H19.5697C19.4355 31.3259 19.3315 31.6998 19.2663 32.0905L18.8083 34.8387H15.8742ZM8.01285 16.7742L10.2026 20.6064C9.53409 20.5535 8.88451 20.4347 8.26077 20.253L6.273 16.7742H8.01285ZM9.4988 16.7742H11.2387L13.0818 20H11.6129C11.525 20 11.44 20.0091 11.3568 20.0258L9.4988 16.7742ZM14.4645 16.7742L14.7685 17.3066L14.3388 19.5987L12.7246 16.7742H14.4645ZM15.3478 25.4161C17.3425 26.7465 19.564 27.6355 21.8892 28.0724C21.2424 28.4948 20.6795 29.0373 20.2388 29.678H17.6336C17.2174 29.678 16.8051 29.5407 16.4724 29.2909L12.5942 26.3826L14.2748 24.702L15.3478 25.4161ZM25.4902 28.4019C25.7979 28.8095 26.0818 29.2336 26.3291 29.6774H23.9935C24.2408 29.2336 24.5253 28.8095 24.8324 28.4019C24.9414 28.3943 25.0504 28.3871 25.1613 28.3871C25.2722 28.3871 25.3812 28.3943 25.4902 28.4019ZM23.389 30.9677H26.9342C27.1024 31.3896 27.253 31.8186 27.3689 32.2581H22.9543C23.0702 31.8186 23.2201 31.3896 23.389 30.9677ZM15.6987 30.3226C16.02 30.5639 16.3883 30.7337 16.7742 30.8408V31.9257C16.7742 32.1787 16.4554 32.3425 16.2497 32.196L12.2581 29.3457V27.7419L15.6987 30.3226ZM22.6994 33.5484H27.6232C27.684 33.9756 27.7205 34.4059 27.7309 34.8387H22.5923C22.6021 34.4059 22.6386 33.9756 22.6994 33.5484ZM27.4001 28.9567C28.6322 29.6251 29.5382 30.8317 29.7833 32.3025L30.2063 34.8387H29.0212C28.9774 32.7715 28.4154 30.7444 27.4001 28.9567ZM33.9541 15.7721L35.3516 23.2258H34.0949L32.9845 16.5612C32.8793 15.9369 32.3444 15.4839 31.7115 15.4839H30.3226V16.7742H31.7115L32.7864 23.2258H17.5356L18.6104 16.7742H29.0323V15.4839H18.6111C17.9788 15.4839 17.4433 15.9369 17.3381 16.5625L16.2276 23.2258H14.971L16.118 17.1097L16.1363 17.0993L16.124 17.0782L16.3684 15.7731C16.5408 14.8573 17.34 14.1935 18.2702 14.1935H32.0517C32.9826 14.1935 33.7818 14.8573 33.9541 15.7721ZM18.2702 12.9032C16.7367 12.9032 15.4206 13.9866 15.115 15.4839H2.41494C2.37494 15.4089 2.34186 15.3305 2.30374 15.2542L3.46522 14.7729L2.97096 13.5805L1.80633 14.0631C1.54391 13.2857 1.37947 12.4644 1.32308 11.6129H3.87097V10.3226H1.32308C1.3801 9.47108 1.54391 8.64982 1.80759 7.87172L2.97222 8.35433L3.46648 7.16198L2.30532 6.68063C2.67925 5.92773 3.14579 5.23154 3.69424 4.60528L5.49427 6.4053L6.40656 5.49301L4.60654 3.69298C5.2328 3.14453 5.92899 2.67799 6.68189 2.30374L7.16324 3.46522L8.35559 2.97096L7.87298 1.80633C8.64982 1.54391 9.47108 1.37947 10.3226 1.32308V3.87097H11.6129V1.32308C12.4644 1.3801 13.2857 1.54391 14.0638 1.80759L13.5811 2.97222L14.7735 3.46648L15.2549 2.30532C16.0077 2.67925 16.7039 3.14579 17.3302 3.69424L15.5302 5.49427L16.4425 6.40656L18.2425 4.60654C18.791 5.2328 19.2575 5.92899 19.6317 6.68189L18.4703 7.16324L18.9645 8.35559L20.1292 7.87298C20.3928 8.65108 20.5566 9.47234 20.6137 10.3238H18.0645V11.6142H20.6231C20.5948 12.0489 20.5349 12.4802 20.4489 12.9045H18.2702V12.9032ZM3.24376 16.7742H4.78705L6.31552 19.4497C5.11026 18.7853 4.06786 17.867 3.24376 16.7742ZM11.6129 21.9355V21.2903H14.0212L13.658 23.2258H12.9032C12.1916 23.2258 11.6129 22.6471 11.6129 21.9355ZM18.0645 38.0645C18.0645 38.4205 17.7753 38.7097 17.4194 38.7097H14.1935C13.8376 38.7097 13.5484 38.4205 13.5484 38.0645V34.9691L14.8006 35.8039C15.1194 36.0169 15.4911 36.129 15.8742 36.129H18.0645V38.0645ZM36.7742 38.0645C36.7742 38.4205 36.485 38.7097 36.129 38.7097H32.9032C32.5473 38.7097 32.2581 38.4205 32.2581 38.0645V36.129H34.4484C34.8315 36.129 35.2032 36.0169 35.522 35.8039L36.7742 34.9691V38.0645ZM37.7775 32.7498L34.8066 34.7303C34.6995 34.8012 34.576 34.8387 34.4484 34.8387H31.5143L31.0563 32.0905C30.9911 31.6998 30.8871 31.3259 30.7529 30.9677H32.2581V31.9257C32.2581 32.8207 32.9858 33.5484 33.8807 33.5484C34.2206 33.5484 34.5464 33.4438 34.8233 33.2457L38.0645 30.9309V32.213C38.0645 32.4291 37.9574 32.6298 37.7775 32.7498ZM38.7097 21.9355C38.7097 22.6471 38.131 23.2258 37.4194 23.2258H36.6646L36.3013 21.2903H38.7097V21.9355Z" stroke="white" stroke-width="24" mask="url(#path-3-inside-2)"/>
</svg>
