<svg width="39" height="51" viewBox="0 0 39 51" fill="none" xmlns="http://www.w3.org/2000/svg">
<path d="M31.0261 35.9737C30.615 35.9737 30.2818 36.3069 30.2818 36.718V45.7085C30.2818 47.7219 28.6437 49.36 26.6303 49.36H5.14004C3.12651 49.36 1.48848 47.7219 1.48848 45.7085V5.14004C1.48848 3.12651 3.12661 1.48849 5.14004 1.48849H26.6302C28.6436 1.48849 30.2817 3.12651 30.2817 5.14004V9.98595C30.2817 10.397 30.6149 10.7302 31.026 10.7302C31.4371 10.7302 31.7702 10.397 31.7702 9.98595V5.14004C31.7703 2.30576 29.4645 0 26.6303 0H5.14004C2.30586 0 0 2.30576 0 5.14004V45.7085C0 48.5427 2.30576 50.8484 5.14004 50.8484H26.6302C29.4645 50.8484 31.7702 48.5427 31.7702 45.7085V36.718C31.7703 36.3069 31.4371 35.9737 31.0261 35.9737Z" fill="white"/>
<path d="M28.0491 10.7046C28.4602 10.7046 28.7934 10.3714 28.7934 9.96034V5.13963C28.7934 3.94686 27.8231 2.97656 26.6303 2.97656H24.1843C23.7427 2.97656 23.3452 3.2557 23.1951 3.67149L23.0748 4.00501C22.9026 4.48271 22.4457 4.80373 21.9379 4.80373H15.1549C14.7438 4.80373 14.4106 5.13695 14.4106 5.54797C14.4106 5.95899 14.7438 6.29221 15.1549 6.29221H21.9379C23.0711 6.29221 24.0907 5.57595 24.4751 4.5098L24.4912 4.46505H26.6303C27.0022 4.46505 27.3049 4.76761 27.3049 5.13963V9.96044C27.3049 10.3715 27.638 10.7046 28.0491 10.7046Z" fill="white"/>
<path d="M29.4378 12.1113C27.4255 12.1113 25.4998 12.7297 23.8692 13.8997C23.5353 14.1393 23.4587 14.6043 23.6984 14.9383C23.9381 15.2724 24.4032 15.3487 24.7369 15.1091C26.1131 14.1218 27.7386 13.5999 29.4378 13.5999C33.8895 13.5999 37.5114 17.2218 37.5114 21.6736C37.5114 24.718 33.3525 29.6964 29.4603 33.3402C29.4472 33.3525 29.4281 33.3524 29.4152 33.3402C25.523 29.6965 21.3641 24.7183 21.3641 21.6736C21.3641 20.0723 21.8321 18.5249 22.7173 17.1983C22.9456 16.8564 22.8533 16.3943 22.5114 16.1662C22.1697 15.9379 21.7074 16.0302 21.4793 16.3721C20.4302 17.944 19.8757 19.7772 19.8757 21.6736C19.8757 23.615 21.0835 26.1222 23.4656 29.1254C25.298 31.4358 27.3424 33.4385 28.398 34.4267C28.6895 34.6997 29.0637 34.8362 29.4379 34.8362C29.812 34.8362 30.1862 34.6997 30.4777 34.4268C31.5333 33.4384 33.5779 31.4355 35.4102 29.1254C37.7922 26.1221 39 23.6149 39 21.6736C38.9999 16.4009 34.7104 12.1113 29.4378 12.1113Z" fill="white"/>
<path d="M34.7833 21.6737C34.7833 18.7262 32.3853 16.3281 29.4378 16.3281C26.4903 16.3281 24.0923 18.7262 24.0923 21.6737C24.0923 24.6212 26.4903 27.0191 29.4378 27.0191C32.3853 27.0191 34.7833 24.6212 34.7833 21.6737ZM25.5808 21.6737C25.5808 19.5469 27.3111 17.8166 29.4378 17.8166C31.5646 17.8166 33.2948 19.5469 33.2948 21.6737C33.2948 23.8004 31.5645 25.5306 29.4378 25.5306C27.311 25.5306 25.5808 23.8004 25.5808 21.6737Z" fill="white"/>
<path d="M21.0171 28.3417C20.7309 28.0467 20.2599 28.0396 19.9648 28.3258L14.694 33.4398C14.5279 33.6009 14.4347 33.8262 14.4386 34.0576C14.4425 34.2891 14.5429 34.511 14.7141 34.6664L27.2223 46.032C27.1076 46.2413 26.8853 46.3836 26.6303 46.3836H23.9202L12.8519 36.3264C12.5239 36.0281 12.0178 36.0363 11.7001 36.345L4.46566 43.3643V39.9077L10.0406 34.4985C10.3356 34.2123 10.3427 33.7411 10.0565 33.4461C9.77022 33.1511 9.29917 33.144 9.00415 33.4303L4.46566 37.8337V5.14051C4.46566 4.76848 4.76822 4.46593 5.14024 4.46593H7.37853L7.3947 4.51078C7.77903 5.57693 8.79864 6.29319 9.93187 6.29319H11.9833C12.3943 6.29319 12.7275 5.95997 12.7275 5.54895C12.7275 5.13793 12.3943 4.8047 11.9833 4.8047H9.93187C9.424 4.8047 8.96714 4.48379 8.79487 4.00598L8.6747 3.67256C8.52496 3.25688 8.12733 2.97754 7.68545 2.97754H5.14024C3.94747 2.97754 2.97717 3.94783 2.97717 5.14061V45.7091C2.97717 46.9018 3.94747 47.8721 5.14024 47.8721H26.6304C27.8232 47.8721 28.7935 46.9018 28.7935 45.7091V36.8055C28.7935 36.3945 28.4603 36.0613 28.0492 36.0613C27.6381 36.0613 27.305 36.3945 27.305 36.8055V44.096L16.2251 34.0282L21.0012 29.3942C21.2963 29.108 21.3034 28.6367 21.0171 28.3417ZM4.46546 45.709V45.4383L12.3003 37.8365L21.7067 46.3836H5.14004C4.76812 46.3835 4.46546 46.0809 4.46546 45.709Z" fill="white"/>
<path d="M17.9407 24.7589L11.2805 31.221C10.9855 31.5072 10.9785 31.9785 11.2647 32.2734C11.4106 32.4238 11.6046 32.4993 11.7988 32.4993C11.9855 32.4993 12.1724 32.4295 12.317 32.2893L18.9772 25.8272C19.2722 25.541 19.2794 25.0697 18.9931 24.7748C18.707 24.4799 18.2358 24.4726 17.9407 24.7589Z" fill="white"/>
<path d="M11.0901 22.9374C11.5011 22.9374 11.8343 22.6042 11.8343 22.1932V18.6095C13.2538 18.2725 14.3132 16.9951 14.3132 15.474C14.3132 13.6968 12.8674 12.251 11.0901 12.251C9.31285 12.251 7.86703 13.6968 7.86703 15.474C7.86703 16.9951 8.92644 18.2725 10.3459 18.6095V22.1932C10.3459 22.6042 10.6791 22.9374 11.0901 22.9374ZM9.35552 15.474C9.35552 14.5175 10.1337 13.7395 11.0901 13.7395C12.0465 13.7395 12.8247 14.5175 12.8247 15.474C12.8247 16.4305 12.0466 17.2086 11.0901 17.2086C10.1336 17.2086 9.35552 16.4305 9.35552 15.474Z" fill="white"/>
</svg>
