<svg width="42" height="42" viewBox="0 0 42 42" fill="none" xmlns="http://www.w3.org/2000/svg">
<path d="M39.2052 25.7166L36.4927 23.0041C35.4287 21.94 33.6945 21.94 32.6304 23.0041C32.3119 23.3243 32.088 23.704 31.9602 24.1066C31.0029 23.7741 29.8952 23.9894 29.1304 24.754C28.7297 25.1548 28.4811 25.6501 28.3814 26.168C27.5449 26.049 26.6751 26.3343 26.0679 26.9415C25.8228 27.1847 25.6356 27.4648 25.5026 27.764L23.9346 26.196C22.902 25.1653 21.1031 25.1653 20.0723 26.196C19.5561 26.7122 19.2708 27.3982 19.2708 28.128C19.2708 28.8577 19.556 29.5438 20.0723 30.06L26.7627 36.7504H25.375C22.9635 36.7504 21 38.7139 21 41.1254C21 41.6084 21.392 42.0004 21.875 42.0004H32.4625C37.7212 42.0004 42 37.7216 42 32.4629C42 29.9166 41.0077 27.5209 39.2052 25.7166ZM32.4624 40.2504H22.8987C23.261 39.2319 24.234 38.5004 25.375 38.5004H28.875C29.2284 38.5004 29.5487 38.2869 29.6835 37.9597C29.82 37.6325 29.7447 37.2562 29.4945 37.0059L21.3114 28.8229C21.126 28.6391 21.0227 28.3907 21.0227 28.1299C21.0227 27.8691 21.126 27.6224 21.3114 27.4369C21.6825 27.0677 22.3299 27.0677 22.6992 27.4369L28.2572 32.9949C28.5984 33.3362 29.1532 33.3362 29.4945 32.9949C29.6642 32.8234 29.75 32.5994 29.75 32.3754C29.75 32.1514 29.6643 31.9274 29.4945 31.7559L27.3069 29.5684C27.1215 29.3846 27.0199 29.1362 27.0199 28.8754C27.0199 28.6146 27.1214 28.3679 27.3069 28.1824C27.678 27.8114 28.3237 27.8114 28.6947 28.1824L30.0072 29.4949C30.3484 29.8361 30.9032 29.8361 31.2444 29.4949C31.4142 29.3234 31.5 29.0994 31.5 28.8754C31.5 28.6514 31.4142 28.4274 31.2444 28.2559L30.3694 27.3809C30.1839 27.1971 30.0824 26.9486 30.0824 26.6879C30.0824 26.4271 30.1839 26.1803 30.3694 25.9949C30.7527 25.6116 31.3739 25.6116 31.7571 25.9949L32.6322 26.8699C32.9734 27.2111 33.5282 27.2111 33.8694 26.8699C34.0392 26.6984 34.125 26.4744 34.125 26.2504C34.125 26.0264 34.0392 25.8024 33.8694 25.6326C33.4862 25.2494 33.4862 24.6281 33.8694 24.2449C34.2527 23.8616 34.8739 23.8616 35.2572 24.2449L37.9697 26.9574C39.4397 28.4274 40.2499 30.3839 40.2499 32.4629C40.25 36.7574 36.7569 40.2504 32.4624 40.2504Z" fill="white"/>
<path d="M25.375 0H4.37497C1.9635 0 0 1.9635 0 4.37497V37.6249C0 40.0365 1.9635 42 4.37497 42H18.375C18.858 42 19.25 41.608 19.25 41.125C19.25 40.642 18.858 40.2499 18.375 40.2499H4.37497C2.9277 40.2499 1.74997 39.0722 1.74997 37.6249V4.37497C1.74997 2.9277 2.9277 1.74997 4.37497 1.74997H25.375C26.8223 1.74997 28 2.9277 28 4.37497V21.8749C28 22.3579 28.392 22.75 28.875 22.75C29.358 22.75 29.75 22.3579 29.75 21.8749V4.37497C29.75 1.9635 27.7865 0 25.375 0Z" fill="white"/>
<path d="M20.125 33.25H0.875027C0.392027 33.25 0 33.642 0 34.125C0 34.608 0.392027 35.0001 0.875027 35.0001H20.1251C20.6081 35.0001 21.0001 34.608 21.0001 34.125C21 33.642 20.608 33.25 20.125 33.25Z" fill="white"/>
<path d="M16.625 36.75H13.125C12.642 36.75 12.2499 37.142 12.2499 37.625C12.2499 38.108 12.642 38.5001 13.125 38.5001H16.625C17.108 38.5001 17.5 38.108 17.5 37.625C17.5 37.142 17.108 36.75 16.625 36.75Z" fill="white"/>
<path d="M4.37497 5.25005C4.85823 5.25005 5.24999 4.85829 5.24999 4.37503C5.24999 3.89176 4.85823 3.5 4.37497 3.5C3.8917 3.5 3.49994 3.89176 3.49994 4.37503C3.49994 4.85829 3.8917 5.25005 4.37497 5.25005Z" fill="white"/>
</svg>
