<svg width="46" height="42" viewBox="0 0 46 42" fill="none" xmlns="http://www.w3.org/2000/svg">
<g clip-path="url(#clip0)">
<path d="M44.3663 5.79378C43.3779 5.71151 42.5038 6.37637 42.4137 7.27871L42.1756 9.66328C38.1364 3.87138 31.1246 0 23.0001 0C14.26 0 6.55762 4.55454 2.73405 11.3904C2.28267 12.1973 2.63324 13.1855 3.51704 13.5977C4.40101 14.0098 5.48318 13.6898 5.93455 12.8828C9.17046 7.09759 15.6686 3.28125 23.0001 3.28125C29.6824 3.28125 35.7129 6.4584 39.1678 11.4358L36.6057 9.76508C35.7981 9.23852 34.6758 9.40931 34.0991 10.1466C33.5224 10.884 33.7095 11.9086 34.517 12.4352L42.2862 17.5015C43.4249 18.2427 44.9955 17.5642 45.12 16.3154L45.9925 7.57665C46.0827 6.67423 45.3546 5.87606 44.3663 5.79378Z" fill="white"/>
<path d="M42.4832 28.4023C41.5993 27.9903 40.5171 28.3103 40.0657 29.1172C36.8298 34.9024 30.3317 38.7187 23.0001 38.7187C16.3178 38.7187 10.2873 35.5416 6.83249 30.5642L9.39457 32.2349C10.2022 32.7614 11.3243 32.5907 11.9011 31.8534C12.4778 31.116 12.2908 30.0914 11.4833 29.5648L3.71402 24.4984C2.58926 23.7647 1.00604 24.4229 0.880255 25.6845L0.00778272 34.4233C-0.0823306 35.3257 0.645853 36.1238 1.63404 36.2061C2.62358 36.2882 3.4966 35.6227 3.58662 34.7212L3.82471 32.3366C7.8639 38.1286 14.8757 42 23.0001 42C31.7402 42 39.4426 37.4454 43.2662 30.6096C43.7176 29.8027 43.367 28.8144 42.4832 28.4023Z" fill="white"/>
</g>
<defs>
<clipPath id="clip0">
<rect width="46" height="42" fill="white"/>
</clipPath>
</defs>
</svg>
