<svg width="39" height="47" viewBox="0 0 39 47" fill="none" xmlns="http://www.w3.org/2000/svg">
<path d="M19.3157 34.7838C19.1882 34.7838 19.0629 34.762 18.9375 34.7164C18.4643 34.5381 18.1769 34.0556 18.2439 33.5556L20.0871 19.567H12.6753C12.2669 19.567 11.8931 19.3344 11.7094 18.967C11.5258 18.5996 11.5647 18.1583 11.811 17.8279L24.7762 0.437304C25.0766 0.0329723 25.6103 -0.1105 26.0663 0.0894921C26.5244 0.28731 26.7902 0.772074 26.708 1.26771L24.7546 13.0455H32.1232C32.5208 13.0455 32.886 13.2651 33.074 13.6172C33.262 13.9694 33.2425 14.3955 33.0264 14.7324L20.2189 34.2968C20.0137 34.6077 19.6701 34.7838 19.3157 34.7838ZM14.8362 17.3932H21.3188C21.6322 17.3932 21.926 17.5301 22.1313 17.7649C22.3366 17.9975 22.4317 18.3127 22.3906 18.6235L21.0055 29.1405L30.1179 15.2193H23.4797C23.1621 15.2193 22.8617 15.0802 22.6542 14.8346C22.449 14.5911 22.3604 14.2672 22.4144 13.9542L23.847 5.30668L14.8362 17.3932Z" fill="white"/>
<path d="M38.7169 31.1457C38.55 30.9147 38.2873 30.7728 38.0032 30.76L28.0115 30.0437C27.4051 29.998 26.8766 30.4545 26.8311 31.063C26.7856 31.6717 27.2403 32.2021 27.8467 32.2477L34.9184 32.7297L21.9177 42.9374L11.9809 35.113C11.5566 34.7758 10.9508 34.7992 10.5535 35.1681L0.342267 44.976C-0.0918213 45.3893 -0.1162 46.0755 0.287415 46.5189C0.483286 46.774 0.790332 46.9178 1.11093 46.9045C1.40054 46.9004 1.67679 46.7816 1.87949 46.5739L11.3771 37.4271L21.2041 45.1963C21.6052 45.5186 22.1754 45.5186 22.5765 45.1963L36.631 34.2195L36.0817 41.0639C36.079 41.6623 36.5314 42.164 37.1249 42.221H37.1797C37.7457 42.2238 38.2211 41.7944 38.2777 41.2292L38.9914 31.9171C39.0316 31.6303 38.9291 31.342 38.7169 31.1457Z" fill="white"/>
</svg>
