<svg width="46" height="45" viewBox="0 0 46 45" fill="none" xmlns="http://www.w3.org/2000/svg">
<path d="M23 0C10.3177 0 0 10.0934 0 22.5C0 34.9066 10.3177 45 23 45C35.6823 45 46 34.9066 46 22.5C46 10.0934 35.6823 0 23 0ZM23 2.63672C26.7797 2.63672 30.3207 3.65344 33.3545 5.42021L15.843 17.8667L11.8671 5.8972C15.0662 3.83739 18.8922 2.63672 23 2.63672ZM23.0026 16.0371L29.2823 20.5004L26.8821 27.7268H19.1181L16.7188 20.5033L23.0026 16.0371ZM2.69531 22.5C2.69531 16.568 5.36807 11.2359 9.59639 7.59313L16.2842 27.7268H3.41011C2.94508 26.0606 2.69531 24.3084 2.69531 22.5ZM22.0286 42.3401C14.1035 41.973 7.35416 37.1406 4.3558 30.3635H26.0064L22.0286 42.3401ZM24.8835 42.2771L31.575 22.13L41.9892 29.5319C39.2936 36.4748 32.7285 41.5678 24.8835 42.2771ZM25.2953 14.4076L35.6989 7.01314C40.3328 10.6567 43.3047 16.2448 43.3047 22.5C43.3047 23.9964 43.1335 25.4544 42.8114 26.8571L25.2953 14.4076Z" fill="white"/>
</svg>
