<svg width="61" height="72" viewBox="0 0 61 72" fill="none" xmlns="http://www.w3.org/2000/svg">
<path d="M53.6893 19.3157L53.7105 19.2499L53.7323 19.1686L53.78 18.991C53.7905 18.9527 53.7996 18.9131 53.8088 18.8726C53.8145 18.8477 53.8203 18.8223 53.8265 18.7968C53.8299 18.7821 53.8334 18.7674 53.837 18.7526C53.8497 18.6992 53.8627 18.6443 53.8731 18.5878L53.88 18.5535H54.6962L54.6585 18.7397C54.6441 18.8173 54.6251 18.8966 54.6128 18.9483C54.61 18.9599 54.6076 18.9701 54.6056 18.9786L54.6037 18.9868L54.6036 18.9868C54.6028 18.9903 54.6008 18.999 54.5979 19.0113C54.5878 19.0554 54.5671 19.1453 54.5521 19.2004L54.511 19.3535H54.42H54.4191H54.098H54.0326H53.8113L53.6893 19.3157ZM53.6893 19.3157L53.6775 19.3535H53.8063L53.6893 19.3157ZM54.818 17.7232L54.8055 17.846L54.804 17.8608L54.802 17.8755L54.7845 18.0008L54.7835 18.008L54.7835 18.008C54.7831 18.0108 54.782 18.0187 54.7805 18.0302C54.7741 18.0794 54.759 18.1955 54.745 18.2719L54.818 17.7232ZM54.818 17.7232L54.8182 17.7208L54.8212 17.6922C54.8305 17.6461 54.8386 17.5848 54.8399 17.5688L54.841 17.5506L54.841 17.5506L54.8414 17.5426L54.8415 17.5405L54.8415 17.5405L54.8417 17.5372L54.8457 17.4564L54.8457 17.4562L54.8618 17.131L54.8618 17.131L54.8658 17.0504L54.8663 17.0405L54.8665 17.0307L54.8678 16.9775L54.8712 16.8716L54.8754 16.7654L54.8779 16.7121L54.879 16.6883L54.8787 16.6645L54.8778 16.6014L54.8779 16.6014L54.8777 16.5949C54.877 16.5631 54.8766 16.5258 54.8762 16.4849C54.8748 16.3602 54.873 16.2014 54.8624 16.059C54.8615 16.0433 54.8604 16.0214 54.8591 15.9964C54.8562 15.9399 54.8525 15.8677 54.8488 15.8163L54.8481 15.8066L54.8472 15.797L54.8261 15.5778C54.8163 15.4485 54.796 15.3037 54.7825 15.2072C54.778 15.1752 54.7743 15.1486 54.7719 15.1295L54.772 15.1295L54.771 15.1222L54.7585 15.0279L54.7575 15.0201L54.7563 15.0123C54.7536 14.9949 54.7509 14.9787 54.7484 14.9648L59.4161 13.8208C59.42 13.8326 59.4242 13.8452 59.4288 13.8588L59.5074 14.098L59.5456 14.2161L59.5815 14.3407C59.5973 14.3965 59.6125 14.4491 59.6271 14.5C59.6685 14.6435 59.7057 14.7724 59.7386 14.9155L59.7385 14.9155L59.7408 14.925L59.8209 15.2552C59.8363 15.3251 59.8499 15.3927 59.8652 15.4688C59.8728 15.5067 59.8808 15.5466 59.8897 15.5901L59.8897 15.5901L59.8916 15.5991C59.9294 15.7735 59.9577 15.9516 59.9905 16.159C59.9978 16.205 60.0053 16.2525 60.0132 16.3016L60.0255 16.3817L60.0359 16.4693L60.0363 16.4726L60.0598 16.6783L60.06 16.6799L60.0825 16.8851L60.0827 16.8867L60.0932 16.9856L60.1 17.061L60.1001 17.0617L60.1293 17.3849L60.1293 17.3856L60.1349 17.4477L60.1352 17.472L60.1354 17.4855L60.136 17.4991L60.1362 17.5029L60.1363 17.5052L60.1373 17.5273L60.1373 17.5274L60.1394 17.5746L60.1395 17.576L60.1476 17.7669L60.1476 17.7682L60.155 17.9486L60.1572 18.1249C60.1574 18.1841 60.158 18.2321 60.1586 18.2745C60.1597 18.3464 60.1604 18.4019 60.1583 18.468L60.1582 18.468L60.1581 18.4762L60.1563 18.5535L54.818 17.7232ZM60.2324 18.842L60.7541 18.8536L60.9498 18.8579L60.7541 18.8477L60.2464 18.8213C60.2416 18.8281 60.2369 18.835 60.2324 18.842ZM60.2324 18.842L60.15 18.8402L60.1502 18.8283L60.1331 19.1586M60.2324 18.842C60.1797 18.9236 60.143 19.0247 60.1338 19.1483L60.1338 19.1483C60.1336 19.1511 60.1334 19.1538 60.1332 19.1563L60.1331 19.1586M60.1331 19.1586L60.1328 19.1632M60.1331 19.1586L60.1329 19.1616L60.1325 19.1693C60.1326 19.1676 60.1327 19.1655 60.1328 19.1632M60.1328 19.1632L60.1327 19.1652M53.9733 18.0312C53.9695 18.0592 53.9654 18.087 53.9605 18.1145C54.1151 18.0938 54.26 18.0445 54.3851 17.9846C54.2558 18.0212 54.1134 18.037 53.9733 18.0312Z" stroke="white" stroke-width="1.6"/>
<path d="M57.9692 10.7872L58.0447 10.9072C58.0651 10.9402 58.0757 10.9567 58.0827 10.9676C58.0906 10.98 58.094 10.9853 58.1019 10.9993L58.1019 10.9994L58.1064 11.0071L58.123 11.0359L54.0192 12.4538C54.016 12.4458 54.013 12.4386 54.0104 12.4325C54.0034 12.4161 53.9968 12.4016 53.9922 12.3914L53.9808 12.3667L53.9766 12.3575L53.9766 12.3575L53.9728 12.3492L53.9317 12.2591L53.9313 12.2581L53.8444 12.0672L53.8383 12.0539L53.8318 12.0408L53.7321 11.8413L53.7306 11.8383L53.6794 11.7347L53.6725 11.7208L53.6651 11.7073L53.6079 11.6019L53.6072 11.6006L53.4879 11.3803L53.4786 11.3631L53.4685 11.3463C53.451 11.3175 53.4287 11.2794 53.4032 11.2358C53.3405 11.1288 53.2585 10.9887 53.1808 10.871L53.1124 10.7636L53.1112 10.7617L53.0756 10.7054L53.0671 10.692L53.0581 10.6789L53.0201 10.6238L53.0189 10.622L52.8627 10.3942L52.8628 10.3941L52.8551 10.3833C52.8207 10.3348 52.773 10.2706 52.7345 10.2186C52.7141 10.191 52.6962 10.1669 52.6842 10.1504L52.6842 10.1503L52.678 10.142C52.6776 10.1415 52.6764 10.1398 52.6743 10.1369C52.6605 10.118 52.6118 10.0511 52.5813 10.0125L52.581 10.0122L52.4953 9.90435L52.4938 9.90241L52.4117 9.7984C52.3812 9.7591 52.3438 9.71197 52.3011 9.66308L52.1314 9.46273C52.1312 9.46251 52.131 9.46228 52.1308 9.46206C52.086 9.40898 52.0182 9.33472 51.976 9.28856C51.9607 9.27183 51.9488 9.2588 51.9426 9.2518L51.9426 9.25178L51.938 9.24663C51.9308 9.23869 51.923 9.23002 51.9147 9.22077C51.8688 9.1698 51.8069 9.10103 51.7431 9.03703L51.5828 8.8713C51.5344 8.82062 51.4547 8.74432 51.4217 8.71282C51.4141 8.70554 51.409 8.70066 51.4074 8.69903L51.4074 8.699L51.4012 8.69296L51.2754 8.57118L53.551 6.20235L53.6624 6.28091L53.6639 6.28196L53.875 6.43157L54.1029 6.60289C54.1439 6.63432 54.1772 6.65927 54.207 6.68159C54.2552 6.71764 54.2941 6.74683 54.3417 6.78537L54.3417 6.78537L54.3436 6.78692L54.6147 7.00516L54.6147 7.00519L54.6208 7.01C54.6913 7.06564 54.7612 7.12569 54.8483 7.20057C54.8568 7.20783 54.8654 7.21523 54.8742 7.22277C54.9161 7.25921 54.9523 7.29012 54.9856 7.3186C55.0426 7.36725 55.0912 7.40878 55.1459 7.45862C55.1461 7.45883 55.1463 7.45903 55.1465 7.45924L55.4356 7.72405L55.4356 7.72407L55.4404 7.72836C55.4776 7.76193 55.5163 7.79898 55.5595 7.84159L55.5595 7.8416L55.5624 7.84439L55.7061 7.98467L55.7072 7.98577L55.8497 8.12538C55.8499 8.12564 55.8502 8.12591 55.8505 8.12617C55.8747 8.15007 55.8925 8.16878 55.9165 8.19391C55.9327 8.21083 55.9516 8.23066 55.9771 8.25696C56.0092 8.29057 56.0394 8.32202 56.0685 8.35225C56.1304 8.41666 56.1871 8.47555 56.2451 8.53817L56.5126 8.83598L56.5141 8.83763L56.573 8.90361L56.63 8.97116L56.631 8.97232L56.7594 9.12506L56.7593 9.1251L56.7658 9.13263C56.8819 9.26742 56.9846 9.39918 57.0982 9.54499C57.1386 9.59691 57.1804 9.65062 57.2248 9.70688L57.4355 9.99466L57.5339 10.1302L57.6252 10.2641L57.6263 10.2657L57.81 10.5364C57.8459 10.5918 57.8786 10.6436 57.9134 10.6989C57.9309 10.7267 57.949 10.7555 57.9684 10.786C57.9687 10.7864 57.9689 10.7868 57.9692 10.7872ZM58.5089 11.7182C58.5089 11.7181 58.5088 11.7181 58.5088 11.718L58.5089 11.7182Z" stroke="white" stroke-width="1.6"/>
<path d="M44.7063 3.09106L43.8711 4.56023L43.9553 3.04838L44.0152 3.0508L44.0165 3.05086L44.295 3.06265L44.2961 3.06269C44.3489 3.06484 44.3938 3.06822 44.4515 3.07255C44.4882 3.07532 44.5302 3.07847 44.5828 3.08195L44.7063 3.09106ZM43.3623 3.0363L43.3624 3.0363L43.3623 3.0363Z" stroke="white" stroke-width="1.6"/>
<path d="M50.8027 4.64594L49.1809 6.77044L49.8562 4.25002L50.1779 4.37682L50.1779 4.37684L50.1822 4.37851C50.2411 4.40134 50.2858 4.42074 50.3414 4.44486C50.3766 4.46015 50.4162 4.47732 50.4665 4.49847L50.7347 4.61406L50.8027 4.64594Z" stroke="white" stroke-width="1.6"/>
<path d="M39.7755 4.95369L39.7755 4.95368L39.7714 4.95417L39.4689 4.99009L39.4571 4.9915L39.4453 4.99326L39.1335 5.03979L39.1335 5.03978L39.1292 5.04045C39.1223 5.04152 39.1108 5.0432 39.0966 5.04529C39.0583 5.05094 38.9998 5.05954 38.9572 5.06685L38.9572 5.06681L38.9489 5.06832L38.7905 5.09724L38.7891 5.09748L38.6321 5.12591L38.6292 5.12643L38.6245 5.12726C38.5762 5.13581 38.5083 5.14783 38.4382 5.16367L38.1195 5.23147L38.1195 5.23146L38.1145 5.23256C38.0384 5.24926 37.9466 5.27197 37.8717 5.29052C37.8357 5.29943 37.8035 5.30738 37.7789 5.31324L37.7789 5.3132L37.7714 5.31508C37.7613 5.31758 37.747 5.32104 37.7304 5.32506C37.692 5.33435 37.6414 5.34662 37.6017 5.35698L37.6017 5.35688L37.5893 5.36034L37.4327 5.40389L37.4319 5.40412L37.2775 5.44685C37.2772 5.44692 37.277 5.44699 37.2767 5.44706C37.2723 5.44826 37.2677 5.44953 37.2628 5.45088C37.2193 5.46276 37.156 5.48007 37.0926 5.50055L36.7981 5.59185C36.7213 5.61526 36.6227 5.64952 36.5545 5.67326C36.5274 5.68267 36.5051 5.69043 36.4908 5.6952L36.4907 5.69516L36.4829 5.69788C36.4682 5.70293 36.4519 5.70848 36.4344 5.71445C36.3617 5.73921 36.2675 5.77129 36.1801 5.80562L35.93 5.90004C35.8596 5.92597 35.7642 5.96585 35.7098 5.98857C35.6923 5.9959 35.679 6.00145 35.6722 6.00415L35.6722 6.00412L35.6649 6.00715L35.4448 6.09787L35.4332 6.10268L35.4217 6.10784L35.2276 6.19511L35.2265 6.19561L35.1983 6.20822L34.5037 5.33L34.6016 5.27222L34.8401 5.14073C34.8886 5.11461 34.9249 5.0944 34.9565 5.07678C35.0038 5.05046 35.0406 5.02994 35.092 5.00417L35.092 5.00419L35.0969 5.00173L35.3973 4.84842L35.3974 4.84847L35.4055 4.84418C35.4724 4.80911 35.5408 4.77686 35.6283 4.73562C35.6493 4.72571 35.6714 4.71529 35.6949 4.70417C35.7484 4.67938 35.792 4.65861 35.8314 4.63986C35.8948 4.60966 35.9472 4.58466 36.0127 4.55646L36.0127 4.55646L36.0145 4.55564L36.3718 4.40052L36.3718 4.40056L36.3794 4.39718C36.419 4.37947 36.4611 4.36274 36.5234 4.33794L36.5331 4.33408L36.5335 4.33395L36.7201 4.2596L36.7207 4.25937L36.9037 4.18672C36.9383 4.17359 36.9695 4.1623 37.0061 4.14908C37.028 4.14117 37.0518 4.13256 37.0794 4.12245C37.1315 4.10377 37.1781 4.08677 37.2218 4.07078C37.3011 4.04182 37.3713 4.01618 37.4491 3.98996L37.841 3.86129L37.841 3.86133L37.8485 3.85879C37.8955 3.84285 37.946 3.8279 38.0143 3.8079L38.0161 3.80738L38.2133 3.74926L38.2139 3.74907L38.4061 3.69269C38.4405 3.68299 38.4695 3.67547 38.5051 3.66623C38.5279 3.66031 38.5534 3.65369 38.5848 3.64534L38.9588 3.54836L39.3239 3.46472C39.3584 3.45703 39.3838 3.45116 39.4052 3.44621C39.4358 3.43911 39.4585 3.43388 39.4884 3.42783C39.4888 3.42775 39.4892 3.42767 39.4896 3.42758L39.6662 3.39267L39.6675 3.39241L40.0024 3.32682L40.3165 3.27463L40.318 3.27437L40.4692 3.24954C40.4694 3.2495 40.4697 3.24946 40.4699 3.24943C40.483 3.2473 40.4945 3.24542 40.5047 3.24375C40.5426 3.23753 40.5632 3.23415 40.5879 3.23117L40.5879 3.23121L40.5956 3.2302L40.8295 3.19955L40.9565 4.86647L40.9089 4.86754C40.8566 4.86805 40.799 4.87168 40.7726 4.87333C40.7682 4.87361 40.7647 4.87384 40.7622 4.87398L40.7611 4.87404L40.6412 4.88108L40.6405 4.88113L40.3842 4.89591L40.3715 4.89664L40.3588 4.89777L40.0855 4.92217L40.0846 4.92225L39.9428 4.93464L39.9398 4.93492C39.8956 4.93893 39.8292 4.94711 39.7952 4.95129C39.7857 4.95246 39.7788 4.95332 39.7755 4.95369ZM34.7588 6.41493C34.759 6.41487 34.7591 6.41482 34.7592 6.41476L34.7588 6.41493ZM34.8738 7.0876L35.0263 6.96702L34.8738 7.0876Z" stroke="white" stroke-width="1.6"/>
<path d="M30.5316 8.64242L30.5316 8.64243L30.5348 8.63851C30.5688 8.59657 30.5976 8.56232 30.6247 8.53218L30.6248 8.53223L30.6314 8.52469L30.8645 8.25934C30.8647 8.25919 30.8648 8.25904 30.8649 8.25889C30.9076 8.21056 30.944 8.17202 30.9883 8.12521C31.016 8.09592 31.0468 8.06339 31.0841 8.0232C31.0931 8.01357 31.1019 8.00424 31.1104 7.99516C31.1798 7.92114 31.2328 7.86465 31.287 7.8119L31.287 7.81194L31.2938 7.80517L31.5174 7.5823L31.5174 7.5823L31.52 7.57971C31.5574 7.54203 31.5859 7.5157 31.6228 7.48155C31.648 7.45827 31.6771 7.43136 31.7157 7.39473L31.9035 7.21981L32.0696 7.07489L32.6584 7.66805L32.5148 7.7732L32.5148 7.77317L32.5087 7.77775C32.5018 7.78285 32.4893 7.79196 32.4731 7.80371C32.4251 7.83863 32.345 7.89683 32.2877 7.94218L32.0793 8.10521C32.0004 8.16536 31.9232 8.23013 31.8619 8.28152C31.8516 8.2902 31.8417 8.2985 31.8323 8.30633L31.8323 8.30631L31.8278 8.31016C31.8152 8.3208 31.7963 8.33645 31.7738 8.35509C31.7187 8.40084 31.6418 8.46454 31.5838 8.5162C31.5838 8.51621 31.5838 8.51622 31.5838 8.51622L31.3567 8.71846C31.3044 8.76402 31.257 8.8087 31.2162 8.84803L31.1036 8.95503L31.1033 8.9553L30.9875 9.06519L30.9868 9.06591C30.9504 9.10044 30.9008 9.15115 30.8745 9.17797C30.8671 9.18553 30.8616 9.1912 30.8587 9.19406L30.8587 9.19403L30.8528 9.20008C30.8331 9.22017 30.8092 9.2443 30.7832 9.27054C30.7311 9.32311 30.6707 9.38414 30.6192 9.43812L30.6192 9.43806L30.611 9.44696L30.3927 9.68325L30.3923 9.68368L30.3381 9.74224L30.3288 9.75231L30.3199 9.76269L30.2682 9.82257L30.2678 9.82301L30.1685 9.93802C30.0579 10.0621 29.9464 10.201 29.8546 10.3154C29.8189 10.3599 29.7861 10.4006 29.7576 10.4354L29.7468 10.4485L29.7366 10.462L29.5596 10.6971L29.5587 10.6983L29.4732 10.812L29.4653 10.8226L29.4577 10.8335L29.3785 10.9465L29.378 10.9473L29.2254 11.1646L29.2177 11.1755L29.2104 11.1867L29.0747 11.3943L29.0747 11.3943L29.0711 11.3998C29.0643 11.4104 29.0541 11.426 29.042 11.4445C29.011 11.4917 28.9676 11.558 28.937 11.6082L28.937 11.6082L28.9351 11.6114L28.8345 11.7785L28.6007 11.7014L28.617 11.664C28.6331 11.6275 28.6471 11.5985 28.6659 11.5597C28.679 11.5324 28.6946 11.5002 28.7149 11.4571L28.8277 11.2227L28.9587 10.9715L28.9591 10.9708L29.0249 10.8452L29.0959 10.7192L29.0971 10.7172L29.2513 10.4459C29.2899 10.3837 29.3252 10.3258 29.3589 10.2707C29.4394 10.1388 29.5103 10.0226 29.5944 9.89967L29.5945 9.89971L29.6006 9.89056L29.6998 9.74119L29.6999 9.74108L29.7427 9.67666L29.7871 9.61421L29.7879 9.61313L29.9955 9.32247C30.0381 9.26476 30.0787 9.21203 30.124 9.15318C30.149 9.12071 30.1754 9.08637 30.2044 9.04832C30.2277 9.01832 30.2431 8.99794 30.2557 8.98138C30.2724 8.95947 30.2839 8.94423 30.3018 8.92224C30.3021 8.92197 30.3023 8.92171 30.3025 8.92144L30.4164 8.78259L30.4169 8.78194L30.5316 8.64242ZM28.5766 12.2265C28.5766 12.2265 28.5766 12.2265 28.5766 12.2265L28.5766 12.2265ZM29.1541 12.3819L29.1543 12.3814L29.1541 12.3819Z" stroke="white" stroke-width="1.6"/>
<path d="M27.6385 16.7024C27.7291 16.6874 27.8314 16.6794 27.9243 16.6805L27.9252 16.6739C27.868 16.6655 27.8132 16.6605 27.7718 16.6611C27.7297 16.6676 27.6747 16.682 27.619 16.6998L27.6385 16.7024ZM27.6385 16.7024L27.9164 16.7396L27.638 16.7025C27.6161 16.7061 27.595 16.7101 27.5748 16.7145C27.5625 16.7188 27.5504 16.7232 27.5385 16.7276L27.5393 16.8475L27.5393 16.8476L27.5393 16.8487L27.5393 16.8493L27.5398 16.918L27.5402 16.9272L27.5408 16.9409L27.5428 16.9851L27.5429 16.9874L27.5444 17.0202L27.5445 17.0208L27.5586 17.3205L27.5587 17.3208L27.5595 17.3383M27.8776 17.0518L27.885 16.9735L27.8776 17.0518ZM27.8776 17.0518L27.8485 17.3652M27.8776 17.0518L27.5595 17.3383M27.8485 17.3652L27.5595 17.3384L27.5626 17.404L27.5627 17.406L27.5632 17.4169L27.5633 17.4175L27.5633 17.4176L27.5636 17.4209L27.5636 17.421L27.5641 17.4275L27.5642 17.4287L27.5647 17.4337L27.5651 17.4386L27.7196 17.4474L27.8397 17.4542C27.8397 17.4537 27.8397 17.4533 27.8397 17.453C27.8397 17.453 27.8397 17.453 27.8397 17.453C27.8397 17.4519 27.8397 17.4522 27.8397 17.453C27.8397 17.4531 27.8397 17.4531 27.8397 17.4531C27.8397 17.4534 27.8397 17.4538 27.8398 17.4542C27.8398 17.4542 27.8398 17.4542 27.8398 17.4542C27.8398 17.4544 27.8398 17.4546 27.8398 17.4548C27.8398 17.4554 27.8398 17.4561 27.8398 17.4567C27.8398 17.4573 27.8398 17.4577 27.8399 17.458C27.8399 17.458 27.8399 17.458 27.8399 17.458C27.8399 17.4583 27.8399 17.4584 27.8399 17.458L27.84 17.4568L27.8402 17.4542L27.8402 17.4542L27.8403 17.4531L27.8485 17.3652ZM27.8485 17.3652L27.5595 17.3383" stroke="white" stroke-width="1.6"/>
<path d="M42.0029 14.789C41.5214 14.789 41.038 14.9443 40.6515 15.2237L45.634 6.45891L44.9385 6.06355L45.634 6.45891L47.6134 2.97706L47.6187 2.96759L46.6166 6.70839L44.0739 16.1997C43.801 15.3267 42.8985 14.789 42.0029 14.789Z" stroke="white" stroke-width="1.6"/>
<path d="M24.9843 64.8115C24.9843 66.2121 23.6205 67.5448 21.6758 67.5448C19.7311 67.5448 18.3673 66.2121 18.3673 64.8115C18.3673 63.4109 19.7311 62.0782 21.6758 62.0782C23.6205 62.0782 24.9843 63.4109 24.9843 64.8115Z" stroke="white" stroke-width="1.6"/>
<path d="M25.028 50.1346C25.028 51.5352 23.6642 52.8679 21.7195 52.8679C19.7747 52.8679 18.411 51.5352 18.411 50.1346C18.411 48.734 19.7747 47.4013 21.7195 47.4013C23.6642 47.4013 25.028 48.734 25.028 50.1346Z" stroke="white" stroke-width="1.6"/>
<path d="M24.9843 29.7223C24.9843 31.1229 23.6205 32.4556 21.6758 32.4556C19.7311 32.4556 18.3673 31.1229 18.3673 29.7223C18.3673 28.3217 19.7311 26.989 21.6758 26.989C23.6205 26.989 24.9843 28.3217 24.9843 29.7223Z" stroke="white" stroke-width="1.6"/>
<rect x="0.8" y="22.8463" width="9.73379" height="14.239" rx="4.86689" stroke="white" stroke-width="1.6"/>
<rect x="0.8" y="56.9611" width="9.73379" height="14.239" rx="4.86689" stroke="white" stroke-width="1.6"/>
<rect x="33.1006" y="22.8463" width="9.73379" height="14.239" rx="4.86689" stroke="white" stroke-width="1.6"/>
<rect x="33.1006" y="56.9611" width="9.73379" height="14.239" rx="4.86689" stroke="white" stroke-width="1.6"/>
<rect x="9.51472" y="63.715" width="25.739" height="1.46206" stroke="white" stroke-width="1.46206"/>
<rect x="9.51472" y="29.1131" width="25.739" height="1.46206" stroke="white" stroke-width="1.46206"/>
<rect x="20.6341" y="29.1821" width="2.36683" height="35.9262" stroke="white" stroke-width="1.6"/>
</svg>
