<svg width="40" height="49" viewBox="0 0 40 49" fill="none" xmlns="http://www.w3.org/2000/svg">
<path d="M38.2207 19.8332L35.5726 16.9043C36.0873 16.0346 36.271 15.021 36.0879 14.017C35.8867 12.913 35.2675 11.9535 34.3446 11.3151L30.5237 8.67258C30.5478 8.0557 30.4344 7.43613 30.1834 6.85226C29.7402 5.82131 28.9222 5.02464 27.8796 4.60894L19.4301 1.24C18.4059 0.831684 17.2901 0.842717 16.2881 1.254C15.5258 0.480552 14.4669 0 13.2976 0H4.2013C1.8847 0 0 1.8847 0 4.2013V40.2506C0 45.0751 3.925 49 8.74942 49C10.945 49 12.954 48.1869 14.4918 46.8464C14.5138 46.8307 14.5354 46.814 14.5561 46.7955L30.9368 32.0536C31.2321 31.7877 31.2561 31.3328 30.9904 31.0374C30.7244 30.7419 30.2692 30.718 29.9742 30.9839L29.2994 31.5912L27.1067 29.1662L30.5492 24.1887L33.6787 27.6499L32.2548 28.9315C31.9595 29.1973 31.9356 29.6522 32.2013 29.9476C32.3434 30.1055 32.5395 30.1858 32.7363 30.1858C32.9079 30.1858 33.08 30.1249 33.2176 30.0012L37.9221 25.7672C38.7545 25.0146 39.2439 23.9828 39.3003 22.8621C39.3567 21.7413 38.9734 20.6656 38.2207 19.8332ZM34.6722 14.2751C34.8045 15.0008 34.6462 15.7348 34.2265 16.3416L32.2727 19.1667L27.8246 16.0906L30.1795 10.1844L33.5259 12.4988C34.1328 12.9184 34.5399 13.5492 34.6722 14.2751ZM27.8331 25.5861L24.8588 23.5291L27.2778 17.4621L31.454 20.3503L27.8331 25.5861ZM23.3935 32.0055L21.8929 30.9677L24.312 24.9006L27.0144 26.7697L23.3935 32.0055ZM24.501 20.5411L22.4157 19.7096C22.0467 19.5626 21.6281 19.7424 21.4808 20.1115C21.3337 20.4807 21.5137 20.8992 21.8827 21.0464L23.9679 21.8778L21.4962 28.0771L17.4989 26.4833V19.2985L19.0219 19.9057C19.1093 19.9406 19.1994 19.9571 19.2881 19.9571C19.5739 19.9571 19.8443 19.7855 19.9567 19.5039C20.1038 19.1347 19.924 18.7162 19.5549 18.5689L17.4989 17.7492V10.5645L26.9727 14.3418L24.501 20.5411ZM16.0599 16.0504H7.90939C7.51202 16.0504 7.18986 16.3725 7.18986 16.7699C7.18986 17.1673 7.51202 17.4894 7.90939 17.4894H16.0599V24.1634H1.43907V17.4894H4.84294C5.24031 17.4894 5.56247 17.1673 5.56247 16.7699C5.56247 16.3725 5.24031 16.0504 4.84294 16.0504H1.43907V9.37647H16.0598V16.0504H16.0599ZM1.43907 25.6024H16.0598V32.2763H1.43907V25.6024ZM17.4989 28.0325L20.9633 29.4138L17.4989 38.1025V28.0325ZM21.9826 36.5755L22.7805 37.4579L19.0511 40.8141L21.9826 36.5755ZM18.8732 38.5416L21.3461 32.3392L22.575 33.189L18.8732 38.5416ZM18.8971 2.57679L27.3467 5.94574C28.032 6.21897 28.5699 6.74279 28.8612 7.42059C29.0616 7.88656 29.1289 8.38707 29.0626 8.87702C29.0615 8.88268 29.0609 8.88844 29.0598 8.8941C29.0291 9.11101 28.9725 9.32582 28.8892 9.53448L27.5055 13.005L17.4989 9.01517V4.2013C17.4989 3.58941 17.3664 3.00813 17.1302 2.48325C17.7075 2.32006 18.3243 2.34836 18.8971 2.57679ZM4.2013 1.43907H13.2976C14.8207 1.43907 16.0599 2.6782 16.0599 4.2013V7.9375H1.43907V4.2013C1.43907 2.6782 2.6782 1.43907 4.2013 1.43907ZM1.43907 40.2506V33.7154H16.0598V40.2506C16.0598 44.2816 12.7803 47.5609 8.74942 47.5609C4.71851 47.5609 1.43907 44.2815 1.43907 40.2506ZM28.2297 32.554L23.8502 36.4952L22.8234 35.3596L26.2658 30.382L28.2297 32.554ZM37.8631 22.7897C37.826 23.5266 37.5043 24.2049 36.9581 24.6987L34.7485 26.6873L31.39 22.9729L34.7397 18.1293L37.1531 20.7983C37.6481 21.3457 37.9002 22.0528 37.8631 22.7897Z" fill="white"/>
<path d="M8.58642 36.8264C6.68378 36.8264 5.13593 38.3742 5.13593 40.2769C5.13593 42.1795 6.68378 43.7273 8.58642 43.7273C10.4891 43.7273 12.0369 42.1795 12.0369 40.2769C12.0369 38.3742 10.4891 36.8264 8.58642 36.8264ZM8.58642 42.2884C7.47728 42.2884 6.57499 41.3861 6.57499 40.2769C6.57499 39.1678 7.47728 38.2655 8.58642 38.2655C9.69555 38.2655 10.5978 39.1678 10.5978 40.2769C10.5978 41.3861 9.69555 42.2884 8.58642 42.2884Z" fill="white"/>
</svg>
