<svg width="50" height="54" viewBox="0 0 50 54" fill="none" xmlns="http://www.w3.org/2000/svg">
<path d="M47.4138 22.6452H43.3526L42.7423 19.2527C42.5516 18.1963 41.9922 17.2913 41.2164 16.6547C41.5569 16.3978 41.8588 16.0848 42.1016 15.7165C42.7974 14.6644 42.9309 13.3354 42.4603 12.1621L39.9414 5.87478C39.6446 4.4837 38.4277 3.48387 37.0121 3.48387C36.4266 3.48387 35.919 3.08411 35.7767 2.50914L35.7232 2.29309C35.3894 0.943265 34.194 0 32.8154 0H17.1846C15.806 0 14.6114 0.943265 14.2776 2.29224L14.2241 2.50999C14.081 3.08411 13.5734 3.48387 12.9879 3.48387C11.5714 3.48387 10.3545 4.4837 10.0586 5.87478L7.53974 12.1621C7.06913 13.3354 7.20257 14.6644 7.89837 15.7165C8.14125 16.0848 8.44306 16.3978 8.78359 16.6556C8.00781 17.2922 7.44839 18.198 7.25771 19.2536L6.64736 22.6452H2.58621C1.16051 22.6452 0 23.8176 0 25.2581V28.7419C0 30.1824 1.16051 31.3548 2.58621 31.3548H5.08023L4.38022 35.2444C4.3335 35.5004 4.31034 35.7628 4.31034 36.024V44.4194C4.31034 46.8451 5.72341 48.9388 7.75862 49.9195V52.2581C7.75862 53.2188 8.53187 54 9.48276 54H14.6552C15.6061 54 16.3793 53.2188 16.3793 52.2581V50.5161H33.6207V52.2581C33.6207 53.2188 34.3939 54 35.3448 54H40.5172C41.4681 54 42.2414 53.2188 42.2414 52.2581V49.9195C44.2766 48.9388 45.6897 46.8451 45.6897 44.4194V36.024C45.6897 35.7628 45.6665 35.5004 45.6198 35.2444L44.9198 31.3548H47.4138C48.8395 31.3548 50 30.1824 50 28.7419V25.2581C50 23.8176 48.8395 22.6452 47.4138 22.6452ZM43.3249 32.2258H41.2715L39.9465 22.1854C39.7192 20.4618 38.2501 19.1613 36.5285 19.1613H34.6958L35.0784 17.4194H38.5018C39.7516 17.4194 40.8216 18.3218 41.0464 19.5645L43.3249 32.2258ZM6.07573 35.5566L6.36113 33.9677H8.76296L9.70333 39.1936H6.03448V36.024C6.03448 35.8675 6.04837 35.7105 6.07573 35.5566ZM10.3554 33.0759L11.7629 22.4142C11.8758 21.553 12.6111 20.9032 13.4715 20.9032H20.6897V22.6452H18.9655V27.871H31.0345V22.6452H29.3103V20.9032H36.5285C37.3889 20.9032 38.1242 21.553 38.2371 22.4142L39.6446 33.0759L39.3277 34.8387H38.6984C38.7544 34.6376 38.7931 34.4292 38.7931 34.2106C38.7931 33.958 38.7535 33.7083 38.6723 33.4608L38.224 32.1038C37.9054 31.1354 37.0113 30.4839 35.9998 30.4839H32.9657C31.9542 30.4839 31.0602 31.1354 30.7407 32.1038L30.2915 33.4651C30.212 33.7083 30.1724 33.9592 30.1724 34.2106C30.1724 34.4292 30.2111 34.6376 30.2663 34.8387H29.2156C29.2716 34.6376 29.3103 34.4292 29.3103 34.2106C29.3103 33.958 29.2708 33.7083 29.1895 33.4608L28.7412 32.1038C28.4226 31.1354 27.5285 30.4839 26.517 30.4839H23.483C22.4715 30.4839 21.5774 31.1354 21.2579 32.1038L20.8088 33.4651C20.7292 33.7083 20.6897 33.9592 20.6897 34.2106C20.6897 34.4292 20.7284 34.6376 20.7835 34.8387H19.7329C19.7889 34.6376 19.8276 34.4292 19.8276 34.2106C19.8276 33.958 19.788 33.7083 19.7068 33.4608L19.2585 32.1038C18.9398 31.1354 18.0458 30.4839 17.0343 30.4839H14.0002C12.9887 30.4839 12.0946 31.1354 11.7752 32.1038L11.326 33.4651C11.2465 33.7083 11.2069 33.9592 11.2069 34.2106C11.2069 34.4292 11.2456 34.6376 11.3008 34.8387H10.6715L10.3554 33.0759ZM12.9912 11.4255L13.4231 10.6094L13.7716 12.1935H13.4484C13.163 12.1935 12.931 11.9592 12.931 11.6709C12.931 11.5854 12.9517 11.5012 12.9912 11.4255ZM14.7183 8.46514C16.4378 7.985 17.8724 6.824 18.6974 5.22581H31.3035C32.1293 6.824 33.5639 7.985 35.2808 8.46514L34.4613 12.1935H15.5387L14.7183 8.46514ZM37.0088 11.4255C37.0483 11.5012 37.069 11.5854 37.069 11.6709C37.069 11.9592 36.837 12.1935 36.5516 12.1935H36.2275L36.5761 10.6094L37.0088 11.4255ZM34.0782 13.9355L33.6956 15.6774H16.3052L15.9226 13.9355H34.0782ZM33.3121 17.4194L32.9295 19.1613H17.0705L16.6879 17.4194H33.3121ZM24.1379 20.9032V22.6452H22.4138V20.9032H24.1379ZM29.3103 24.3871V26.129H20.6897V24.3871H29.3103ZM25.8621 22.6452V20.9032H27.5862V22.6452H25.8621ZM31.8966 34.2106C31.8966 34.1438 31.9079 34.0749 31.9277 34.012L32.376 32.6553C32.4602 32.3985 32.6984 32.2258 32.9657 32.2258H35.9998C36.2679 32.2258 36.5053 32.3985 36.5904 32.6553L37.037 34.0077C37.0576 34.0758 37.069 34.1438 37.069 34.2106C37.069 34.5572 36.7903 34.8387 36.4472 34.8387H32.5174C32.1752 34.8387 31.8966 34.5572 31.8966 34.2106ZM22.4138 34.2106C22.4138 34.1438 22.4252 34.0749 22.4449 34.012L22.8932 32.6553C22.9774 32.3985 23.2157 32.2258 23.483 32.2258H26.517C26.7852 32.2258 27.0226 32.3985 27.1076 32.6553L27.5542 34.0077C27.5748 34.0758 27.5862 34.1438 27.5862 34.2106C27.5862 34.5572 27.3075 34.8387 26.9645 34.8387H23.0347C22.6924 34.8387 22.4138 34.5572 22.4138 34.2106ZM12.931 34.2106C12.931 34.1438 12.9424 34.0749 12.9622 34.012L13.4105 32.6553C13.4947 32.3985 13.7329 32.2258 14.0002 32.2258H17.0343C17.3024 32.2258 17.5398 32.3985 17.6248 32.6553L18.0715 34.0077C18.0921 34.0758 18.1034 34.1438 18.1034 34.2106C18.1034 34.5572 17.8248 34.8387 17.4817 34.8387H13.5519C13.2097 34.8387 12.931 34.5572 12.931 34.2106ZM10.9855 36.5806H39.0145L38.2648 40.7501C38.1533 41.3625 37.6267 41.8064 37.0121 41.8064C35.6336 41.8064 34.439 42.7497 34.1052 44.0987L34.0517 44.3164C33.9086 44.8906 33.401 45.2903 32.8154 45.2903H17.1846C16.599 45.2903 16.0914 44.8906 15.9491 44.3156L15.8957 44.0995C15.5619 42.7497 14.3664 41.8064 12.9879 41.8064C12.3725 41.8064 11.8467 41.3625 11.7352 40.7509L10.9855 36.5806ZM41.2362 33.9677H43.638L43.9243 35.5566C43.9516 35.7105 43.9655 35.8675 43.9655 36.024V39.1936H40.2967L41.2362 33.9677ZM40.862 12.8162C41.1179 13.4549 41.0447 14.1775 40.6663 14.7516C40.2845 15.3317 39.6438 15.6774 38.9543 15.6774H35.4623L35.8449 13.9355H36.5516C37.7879 13.9355 38.7931 12.9199 38.7931 11.6709C38.7931 11.3 38.7018 10.9305 38.5283 10.6039L37.151 7.99819L37.7105 5.45588C37.9887 5.64385 38.2 5.92794 38.2648 6.28134L40.862 12.8162ZM15.8948 2.93356L15.9483 2.71582C16.0914 2.1417 16.599 1.74194 17.1846 1.74194H32.8163C33.4018 1.74194 33.9094 2.1417 34.0517 2.71667L34.1052 2.93271C34.3561 3.94827 35.094 4.73206 36.0309 5.05952L35.6559 6.76659C34.3009 6.3596 33.1981 5.36615 32.65 4.02312L32.4286 3.48387H17.5714L17.3517 4.02312C16.8045 5.36615 15.7016 6.35875 14.3449 6.76574L13.9691 5.05867C14.906 4.73291 15.6448 3.94827 15.8948 2.93356ZM11.0457 15.6774C10.3554 15.6774 9.71469 15.3317 9.33291 14.7507C8.95533 14.1775 8.88209 13.4549 9.13717 12.8153L11.6863 6.45231L11.7352 6.2822C11.7991 5.92879 12.0113 5.6447 12.2895 5.45673L12.849 7.99904L11.4717 10.6047C11.2982 10.9313 11.2069 11.3 11.2069 11.6709C11.2069 12.9199 12.2121 13.9355 13.4484 13.9355H14.1551L14.5377 15.6774H11.0457ZM8.95365 19.5653C9.17758 18.3218 10.2484 17.4194 11.4982 17.4194H14.9216L15.3042 19.1613H13.4715C11.7499 19.1613 10.2808 20.4618 10.0535 22.1846L8.72845 32.2258H6.67514L8.95365 19.5653ZM2.58621 29.6129C2.11055 29.6129 1.72414 29.2216 1.72414 28.7419V25.2581C1.72414 24.7784 2.11055 24.3871 2.58621 24.3871H6.33377L5.39298 29.6129H2.58621ZM14.6552 52.2581H9.48276V50.4464C9.76562 50.4872 10.0519 50.5161 10.3448 50.5161H14.6552V52.2581ZM40.5172 52.2581H35.3448V50.5161H39.6552C39.9481 50.5161 40.2344 50.4872 40.5172 50.4464V52.2581ZM39.6552 48.7742H10.3448C7.96824 48.7742 6.03448 46.8205 6.03448 44.4194V40.9355H10.0173L10.0405 41.0626C10.3002 42.5031 11.5407 43.5484 12.9879 43.5484C13.5734 43.5484 14.081 43.9481 14.2233 44.5231L14.2768 44.7392C14.6106 46.089 15.806 47.0323 17.1846 47.0323H32.8163C34.1948 47.0323 35.3894 46.089 35.7232 44.74L35.7767 44.5223C35.919 43.9481 36.4266 43.5484 37.0121 43.5484C38.4601 43.5484 39.6998 42.5031 39.9603 41.0626L39.9827 40.9355H43.9655V44.4194C43.9655 46.8205 42.0318 48.7742 39.6552 48.7742ZM48.2759 28.7419C48.2759 29.2216 47.8894 29.6129 47.4138 29.6129H44.6062L43.6654 24.3871H47.4138C47.8894 24.3871 48.2759 24.7784 48.2759 25.2581V28.7419Z" fill="white"/>
</svg>
