<svg width="55" height="25" viewBox="0 0 55 25" fill="none" xmlns="http://www.w3.org/2000/svg">
<path d="M44.1625 3.54839H23.9516C23.4106 3.54839 22.8683 3.57308 22.3372 3.61596C21.9929 3.57481 21.6451 3.54839 21.2903 3.54839C19.5356 3.54839 17.9035 4.06644 16.5256 4.9492C9.99586 7.50827 5.15408 13.3641 3.88624 20.2417L3.69305 21.2903H44.1625C45.5304 21.2903 46.8654 20.907 48.0249 20.1823C50.1708 18.8408 51.4516 16.53 51.4516 14.0012V10.8375C51.4516 6.81912 48.1817 3.54839 44.1625 3.54839ZM44.3548 12.4194C44.3548 16.3325 41.1712 19.5161 37.2581 19.5161C33.345 19.5161 30.1613 16.3325 30.1613 12.4194C30.1613 8.50625 33.345 5.32258 37.2581 5.32258C41.1712 5.32258 44.3548 8.50625 44.3548 12.4194ZM31.9584 5.32258C30.8223 6.17416 29.8979 7.28823 29.2742 8.57816C28.6504 7.28823 27.727 6.17416 26.5899 5.32258H31.9584ZM28.3871 12.4194C28.3871 16.3325 25.2034 19.5161 21.2903 19.5161C17.3772 19.5161 14.1935 16.3325 14.1935 12.4194C14.1935 8.50625 17.3772 5.32258 21.2903 5.32258C25.2034 5.32258 28.3871 8.50625 28.3871 12.4194ZM5.85665 19.5161C6.93174 15.1482 9.59476 11.307 13.2345 8.72803C12.7165 9.85379 12.4193 11.1013 12.4193 12.4194C12.4193 15.3228 13.828 17.897 15.9907 19.5161H5.85665ZM26.5899 19.5161C27.7261 18.6645 28.6504 17.5505 29.2742 16.2606C29.8979 17.5505 30.8214 18.6654 31.9584 19.5161H26.5899ZM49.6774 14.0012C49.6774 15.9145 48.708 17.6631 47.0854 18.678C46.207 19.2268 45.1977 19.5161 44.1625 19.5161H42.5577C44.7204 17.897 46.129 15.3228 46.129 12.4194C46.129 9.51593 44.7204 6.9417 42.5577 5.32258H44.1625C47.2032 5.32258 49.6774 7.79675 49.6774 10.8375V14.0012Z" fill="white"/>
<path d="M44.1625 0H23.9516C10.7444 0 0 10.7444 0 23.9516V24.8387H44.1625C46.1957 24.8387 48.1817 24.2682 49.9061 23.1914C53.0963 21.1981 55 17.7623 55 14.0012V10.8375C55 4.86127 50.1387 0 44.1625 0ZM53.2258 14.0012C53.2258 17.1468 51.6335 20.019 48.9662 21.6867C47.5233 22.588 45.8631 23.0645 44.1625 23.0645H1.79195C2.25846 11.2455 12.02 1.77419 23.9516 1.77419H44.1625C49.1602 1.77419 53.2258 5.83977 53.2258 10.8375V14.0012Z" fill="white"/>
<path d="M21.2903 10.6452C22.2688 10.6452 23.0645 11.4409 23.0645 12.4194C23.0645 13.3979 22.2688 14.1936 21.2903 14.1936V15.9677C23.2473 15.9677 24.8387 14.3763 24.8387 12.4194C24.8387 10.4624 23.2473 8.87097 21.2903 8.87097C19.3333 8.87097 17.7419 10.4624 17.7419 12.4194H19.5161C19.5161 11.4409 20.3118 10.6452 21.2903 10.6452Z" fill="white"/>
<path d="M37.2581 10.6452C38.2366 10.6452 39.0323 11.4409 39.0323 12.4194C39.0323 13.3979 38.2366 14.1936 37.2581 14.1936V15.9677C39.2151 15.9677 40.8065 14.3763 40.8065 12.4194C40.8065 10.4624 39.2151 8.87097 37.2581 8.87097C35.3011 8.87097 33.7097 10.4624 33.7097 12.4194H35.4839C35.4839 11.4409 36.2796 10.6452 37.2581 10.6452Z" fill="white"/>
</svg>
