<svg width="46" height="57" viewBox="0 0 46 57" fill="none" xmlns="http://www.w3.org/2000/svg">
<mask id="path-1-inside-1" fill="white">
<path d="M41.6219 39.8218C41.479 39.8217 41.3385 39.7864 41.2139 39.7194C41.0894 39.6523 40.985 39.5558 40.9108 39.439C40.8365 39.3222 40.795 39.1892 40.7902 39.0526C40.7853 38.9161 40.8173 38.7806 40.883 38.6593C41.2604 37.9617 41.5869 37.2961 41.8827 36.6256C41.9711 36.4358 42.1337 36.2866 42.3356 36.2098C42.5376 36.1329 42.7629 36.1346 42.9636 36.2144C43.1643 36.2942 43.3244 36.4458 43.4097 36.6369C43.4951 36.828 43.4989 37.0434 43.4204 37.2371C43.1114 37.949 42.7665 38.6537 42.3667 39.3918C42.296 39.5222 42.1891 39.6313 42.0577 39.7072C41.9263 39.783 41.7755 39.8227 41.6219 39.8218Z"/>
</mask>
<path d="M40.883 38.6593L46.966 41.9561L46.9685 41.9515L40.883 38.6593ZM41.8827 36.6256L35.6113 33.7031L35.581 33.7679L35.5522 33.8334L41.8827 36.6256ZM43.4204 37.2371L49.7671 39.9925L49.8011 39.9141L49.8331 39.8349L43.4204 37.2371ZM42.3667 39.3918L48.4497 42.6885L48.4503 42.6874L42.3667 39.3918ZM41.628 32.9029C42.6152 32.9038 43.6009 33.1466 44.4935 33.6271L37.9344 45.8117C39.0761 46.4263 40.3428 46.7396 41.6159 46.7408L41.628 32.9029ZM44.4935 33.6271C45.3876 34.1084 46.1743 34.8217 46.7501 35.7277L35.0714 43.1503C35.7957 44.2899 36.7912 45.1963 37.9344 45.8117L44.4935 33.6271ZM46.7501 35.7277C47.3274 36.6361 47.6652 37.6969 47.7047 38.8068L33.8756 39.2984C33.9248 40.6814 34.3456 42.0084 35.0714 43.1503L46.7501 35.7277ZM47.7047 38.8068C47.7442 39.9169 47.4825 41.0032 46.966 41.9561L34.8001 35.3625C34.1521 36.558 33.8264 37.9152 33.8756 39.2984L47.7047 38.8068ZM46.9685 41.9515C47.4298 41.0989 47.8388 40.2665 48.2132 39.4178L35.5522 33.8334C35.3351 34.3256 35.091 34.8246 34.7976 35.3671L46.9685 41.9515ZM48.1541 39.5481C47.4552 41.0479 46.2172 42.1358 44.7956 42.6766L39.8756 29.7429C38.0501 30.4373 36.4871 31.8237 35.6113 33.7031L48.1541 39.5481ZM44.7956 42.6766C43.3803 43.2149 41.8157 43.2039 40.4068 42.6436L45.5204 29.7852C43.7102 29.0653 41.6948 29.0509 39.8756 29.7429L44.7956 42.6766ZM40.4068 42.6436C38.9915 42.0807 37.7683 40.972 37.0924 39.4588L49.727 33.815C48.8804 31.9197 47.3371 30.5077 45.5204 29.7852L40.4068 42.6436ZM37.0924 39.4588C36.4111 37.9336 36.3787 36.1921 37.0077 34.6393L49.8331 39.8349C50.6192 37.8947 50.579 35.7224 49.727 33.815L37.0924 39.4588ZM37.0738 34.4818C36.8514 34.9941 36.596 35.5186 36.283 36.0963L48.4503 42.6874C48.9371 41.7888 49.3714 40.9039 49.7671 39.9925L37.0738 34.4818ZM36.2836 36.0952C36.837 35.0742 37.6507 34.2623 38.5981 33.7153L45.5173 45.699C46.7275 45.0003 47.7551 43.9702 48.4497 42.6885L36.2836 36.0952ZM38.5981 33.7153C39.5434 33.1695 40.6026 32.8969 41.6621 32.903L41.5818 46.7406C42.9483 46.7486 44.3092 46.3966 45.5173 45.699L38.5981 33.7153Z" fill="url(#paint0_linear)" mask="url(#path-1-inside-1)"/>
<mask id="path-3-inside-2" fill="white">
<path d="M44.4048 32.3845C44.3489 32.3849 44.293 32.3795 44.2382 32.3686C44.0216 32.3273 43.831 32.2054 43.7084 32.0298C43.5858 31.8542 43.5411 31.6392 43.5843 31.4322C43.7509 30.659 43.8775 29.8691 43.9741 29.0832C43.9849 28.9778 44.0175 28.8755 44.0701 28.7824C44.1228 28.6892 44.1943 28.607 44.2805 28.5405C44.3667 28.4741 44.466 28.4248 44.5724 28.3954C44.6788 28.3661 44.7903 28.3573 44.9003 28.3697C45.0103 28.382 45.1166 28.4152 45.2131 28.4673C45.3095 28.5194 45.3941 28.5893 45.4619 28.673C45.5297 28.7567 45.5794 28.8525 45.608 28.9548C45.6366 29.0571 45.6436 29.1638 45.6285 29.2687C45.5269 30.0968 45.3886 30.9297 45.2179 31.7443C45.1802 31.9242 45.0788 32.0862 44.9306 32.2028C44.7825 32.3195 44.5968 32.3837 44.4048 32.3845Z"/>
</mask>
<path d="M44.2382 32.3686L45.5927 25.5835L45.5638 25.5778L45.5349 25.5723L44.2382 32.3686ZM43.5843 31.4322L36.8206 29.9747L36.8157 29.9977L36.8109 30.0208L43.5843 31.4322ZM43.9741 29.0832L50.8414 29.9275L50.85 29.8569L50.8573 29.7862L43.9741 29.0832ZM45.6285 29.2687L38.7797 28.2864L38.7697 28.356L38.7611 28.4259L45.6285 29.2687ZM45.2179 31.7443L38.4461 30.3247L38.4454 30.3282L45.2179 31.7443ZM44.3616 25.4657C44.774 25.4631 45.1865 25.5024 45.5927 25.5835L42.8837 39.1536C43.3995 39.2566 43.9237 39.3066 44.4481 39.3033L44.3616 25.4657ZM45.5349 25.5723C47.0325 25.858 48.4371 26.7166 49.3811 28.0684L38.0358 35.9912C39.225 37.6942 41.0107 38.7965 42.9415 39.1649L45.5349 25.5723ZM49.3811 28.0684C50.3342 29.4332 50.709 31.1579 50.3577 32.8436L36.8109 30.0208C36.3733 32.1205 36.8374 34.2752 38.0358 35.9912L49.3811 28.0684ZM50.348 32.8896C50.5661 31.8775 50.7244 30.8789 50.8414 29.9275L37.1069 28.2388C37.0307 28.8593 36.9357 29.4405 36.8206 29.9747L50.348 32.8896ZM50.8573 29.7862C50.7701 30.6397 50.5067 31.4551 50.0951 32.184L38.0452 25.3807C37.5284 26.296 37.1997 27.3158 37.091 28.3801L50.8573 29.7862ZM50.0951 32.184C49.6841 32.9121 49.1375 33.5328 48.503 34.0216L40.058 23.0595C39.251 23.6812 38.5614 24.4663 38.0452 25.3807L50.0951 32.184ZM48.503 34.0216C47.869 34.51 47.1564 34.8601 46.4112 35.0656L42.7336 21.7253C41.7755 21.9895 40.8644 22.4382 40.058 23.0595L48.503 34.0216ZM46.4112 35.0656C45.6663 35.2709 44.8919 35.331 44.1292 35.2455L45.6714 21.4939C44.6887 21.3837 43.6913 21.4613 42.7336 21.7253L46.4112 35.0656ZM44.1292 35.2455C43.3664 35.16 42.617 34.9288 41.9248 34.5549L48.5013 22.3797C47.6162 21.9016 46.6542 21.6041 45.6714 21.4939L44.1292 35.2455ZM41.9248 34.5549C41.232 34.1807 40.6028 33.6666 40.0856 33.0281L50.8382 24.318C50.1854 23.5121 49.387 22.8581 48.5013 22.3797L41.9248 34.5549ZM40.0856 33.0281C39.5677 32.3888 39.1745 31.6394 38.9449 30.819L52.271 27.0907C51.9843 26.0656 51.4916 25.1246 50.8382 24.318L40.0856 33.0281ZM38.9449 30.819C38.7152 29.9978 38.658 29.1351 38.7797 28.2864L52.4774 30.251C52.6292 29.1924 52.558 28.1164 52.271 27.0907L38.9449 30.819ZM38.7611 28.4259C38.6833 29.0601 38.577 29.7005 38.4461 30.3247L51.9896 33.1639C52.2003 32.1589 52.3705 31.1336 52.4959 30.1115L38.7611 28.4259ZM38.4454 30.3282C38.7497 28.8727 39.5573 27.6275 40.6502 26.7669L49.211 37.6388C50.6002 36.5449 51.6107 34.9757 51.9903 33.1604L38.4454 30.3282ZM40.6502 26.7669C41.7372 25.911 43.0539 25.4715 44.3744 25.4657L44.4353 39.3034C46.1396 39.2959 47.8278 38.728 49.211 37.6388L40.6502 26.7669Z" fill="url(#paint1_linear)" mask="url(#path-3-inside-2)"/>
<path d="M38.4465 43.8575L38.4465 43.8576L38.4465 43.8575ZM38.4465 43.8575L38.444 43.8379L38.4438 43.8359M38.4465 43.8575L38.4441 43.8379L38.4438 43.8359M38.4438 43.8359L38.4401 43.8066L38.4438 43.8359ZM45.0309 10.0728L45.0307 10.073L45.0309 10.0728Z" stroke="url(#paint2_linear)" stroke-width="6.91892"/>
<mask id="path-6-inside-3" fill="white">
<path d="M23.3124 51.0444C23.1694 51.0444 23.0287 51.0091 22.9042 50.9417C12.0316 45.1002 5.5415 35.8794 5.5415 26.2747V14.642C5.54129 14.4368 5.62389 14.2395 5.77209 14.0912C5.9203 13.9429 6.12267 13.8549 6.33704 13.8457C12.5151 13.5896 18.3841 11.1915 22.8468 7.09966C22.9959 6.96746 23.1904 6.89197 23.3937 6.88743C23.5971 6.88288 23.7951 6.94959 23.9505 7.07497C28.621 10.7328 34.3321 12.9671 40.3453 13.489C40.5485 13.5111 40.7361 13.6038 40.8724 13.7497C41.0087 13.8955 41.084 14.0841 41.0842 14.2797V26.2739C41.0842 35.8786 34.5932 45.1002 23.7206 50.9417C23.5961 51.0091 23.4555 51.0444 23.3124 51.0444ZM7.20755 15.3928V26.2747C7.20755 35.1763 13.2187 43.7673 23.3124 49.3292C33.407 43.7657 39.4181 35.1731 39.4181 26.2715V14.9836C33.5903 14.3517 28.0595 12.1892 23.439 8.736C18.9638 12.6338 13.2464 14.9786 7.20755 15.3928Z"/>
</mask>
<path d="M23.3124 51.0444L23.3144 44.1255L23.3105 44.1255L23.3124 51.0444ZM22.9042 50.9417L26.1972 44.8566L26.188 44.8517L26.1788 44.8467L22.9042 50.9417ZM5.5415 14.642H12.4604L12.4604 14.6346L5.5415 14.642ZM6.33704 13.8457L6.05048 6.9327L6.03941 6.93317L6.33704 13.8457ZM22.8468 7.09966L18.2568 1.92238L18.2135 1.96079L18.1709 1.99992L22.8468 7.09966ZM23.9505 7.07497L19.6061 12.4599L19.645 12.4913L19.6844 12.5221L23.9505 7.07497ZM40.3453 13.489L41.093 6.61056L41.0183 6.60244L40.9435 6.59594L40.3453 13.489ZM41.0842 14.2797H48.0031V14.2753L41.0842 14.2797ZM23.7206 50.9417L20.446 44.8467L20.4368 44.8517L20.4276 44.8566L23.7206 50.9417ZM23.3124 49.3292L19.9733 55.3891L23.3128 57.2292L26.6521 55.3888L23.3124 49.3292ZM39.4181 14.9836H46.337V8.77427L40.1639 8.10496L39.4181 14.9836ZM23.439 8.736L27.5811 3.19388L23.1069 -0.150021L18.8948 3.5186L23.439 8.736ZM23.3105 44.1255C24.3053 44.1252 25.2987 44.3704 26.1972 44.8566L19.6113 57.0267C20.7587 57.6477 22.0334 57.9637 23.3144 57.9633L23.3105 44.1255ZM26.1788 44.8467C16.8025 39.8092 12.4604 32.5822 12.4604 26.2747H-1.37741C-1.37741 39.1765 7.26068 50.3913 19.6296 57.0366L26.1788 44.8467ZM12.4604 26.2747V14.642H-1.37741V26.2747H12.4604ZM12.4604 14.6346C12.4622 16.3113 11.7841 17.863 10.6668 18.9814L0.87742 9.20105C-0.536338 10.6161 -1.37962 12.5624 -1.37741 14.6493L12.4604 14.6346ZM10.6668 18.9814C9.55883 20.0903 8.10729 20.6948 6.63468 20.7582L6.03941 6.93317C4.13805 7.01504 2.28176 7.79541 0.87742 9.20105L10.6668 18.9814ZM6.6236 20.7587C14.3949 20.4365 21.8289 17.4199 27.5227 12.1994L18.1709 1.99992C14.9392 4.96301 10.6352 6.74266 6.05048 6.9327L6.6236 20.7587ZM27.4367 12.2769C26.3327 13.2556 24.9461 13.7734 23.5484 13.8046L23.239 -0.0297647C21.4348 0.0105867 19.659 0.679283 18.2568 1.92238L27.4367 12.2769ZM23.5484 13.8046C22.1511 13.8359 20.7478 13.381 19.6061 12.4599L28.2949 1.69002C26.8424 0.518164 25.043 -0.0701084 23.239 -0.0297647L23.5484 13.8046ZM19.6844 12.5221C25.4308 17.0226 32.4216 19.7463 39.7471 20.382L40.9435 6.59594C36.2425 6.188 31.8112 4.44301 28.2167 1.62782L19.6844 12.5221ZM39.5975 20.3673C38.1972 20.2151 36.8422 19.5706 35.8172 18.4737L45.9276 9.02567C44.6301 7.63711 42.8998 6.80698 41.093 6.61056L39.5975 20.3673ZM35.8172 18.4737C34.7844 17.3685 34.1662 15.8808 34.1653 14.284L48.0031 14.2753C48.0019 12.2875 47.2329 10.4225 45.9276 9.02567L35.8172 18.4737ZM34.1653 14.2797V26.2739H48.0031V14.2797H34.1653ZM34.1653 26.2739C34.1653 32.5813 29.8224 39.8091 20.446 44.8467L26.9952 57.0366C39.364 50.3913 48.0031 39.1758 48.0031 26.2739H34.1653ZM20.4276 44.8566C21.3261 44.3704 22.3195 44.1252 23.3144 44.1255L23.3105 57.9633C24.5914 57.9637 25.8661 57.6477 27.0136 57.0267L20.4276 44.8566ZM0.288635 15.3928V26.2747H14.1265V15.3928H0.288635ZM0.288635 26.2747C0.288635 38.4623 8.43369 49.0304 19.9733 55.3891L26.6516 43.2694C18.0036 38.5041 14.1265 31.8902 14.1265 26.2747H0.288635ZM26.6521 55.3888C38.1924 49.0284 46.337 38.4588 46.337 26.2715H32.4992C32.4992 31.8874 28.6217 38.5029 19.9727 43.2697L26.6521 55.3888ZM46.337 26.2715V14.9836H32.4992V26.2715H46.337ZM40.1639 8.10496C35.5464 7.60431 31.1927 5.89314 27.5811 3.19388L19.297 14.2781C24.9263 18.4853 31.6343 21.0991 38.6723 21.8622L40.1639 8.10496ZM18.8948 3.5186C15.5808 6.40502 11.301 8.1769 6.7341 8.49014L7.681 22.2955C15.1919 21.7804 22.3468 18.8627 27.9833 13.9534L18.8948 3.5186Z" fill="url(#paint3_linear)" mask="url(#path-6-inside-3)"/>
<mask id="path-8-inside-4" fill="white">
<path d="M19.673 35.4839C19.4521 35.4838 19.2402 35.3999 19.084 35.2506L14.3933 30.7668C14.2415 30.6166 14.1576 30.4154 14.1595 30.2067C14.1614 29.9979 14.249 29.7982 14.4034 29.6505C14.5579 29.5029 14.7668 29.4192 14.9852 29.4173C15.2036 29.4155 15.4141 29.4958 15.5712 29.6408L19.673 33.5633L31.0538 22.6822C31.1311 22.6082 31.2229 22.5495 31.324 22.5095C31.4251 22.4694 31.5334 22.4488 31.6428 22.4487C31.7522 22.4487 31.8606 22.4693 31.9617 22.5092C32.0628 22.5492 32.1547 22.6079 32.2321 22.6818C32.3095 22.7557 32.3709 22.8435 32.4128 22.9401C32.4547 23.0367 32.4763 23.1403 32.4763 23.2449C32.4764 23.3495 32.4548 23.453 32.413 23.5497C32.3712 23.6463 32.3098 23.7341 32.2325 23.8081L20.2619 35.2506C20.1057 35.3999 19.8939 35.4838 19.673 35.4839Z"/>
</mask>
<path d="M19.084 35.2506L23.8656 30.2498L23.8649 30.2491L19.084 35.2506ZM14.3933 30.7668L9.52625 35.6844L9.56897 35.7267L9.61242 35.7683L14.3933 30.7668ZM15.5712 29.6408L20.353 24.6403L20.3091 24.5983L20.2645 24.5572L15.5712 29.6408ZM19.673 33.5633L14.8911 38.5638L19.6725 43.1361L24.4544 38.5643L19.673 33.5633ZM31.0538 22.6822L35.8351 27.6832L35.8364 27.682L31.0538 22.6822ZM32.2325 23.8081L37.0133 28.8096L37.0151 28.8079L32.2325 23.8081ZM20.2619 35.2506L15.4811 30.2491L15.4803 30.2498L20.2619 35.2506ZM19.6744 28.565C21.1901 28.5653 22.703 29.1382 23.8656 30.2498L14.3024 40.2514C15.7774 41.6617 17.714 42.4024 19.6716 42.4028L19.6744 28.565ZM23.8649 30.2491L19.1741 25.7653L9.61242 35.7683L14.3032 40.2521L23.8649 30.2491ZM19.2603 25.8491C20.4034 26.9804 21.0936 28.5623 21.0781 30.2696L7.24082 30.1438C7.22151 32.2686 8.07963 34.2527 9.52625 35.6844L19.2603 25.8491ZM21.0781 30.2696C21.0626 31.9765 20.3442 33.5433 19.1843 34.652L9.62257 24.649C8.15374 26.0531 7.26014 28.0193 7.24082 30.1438L21.0781 30.2696ZM19.1843 34.652C18.0345 35.7511 16.5417 36.3236 15.0427 36.336L14.9277 22.4987C12.9919 22.5147 11.0813 23.2547 9.62257 24.649L19.1843 34.652ZM15.0427 36.336C13.5438 36.3485 12.0439 35.8011 10.8778 34.7245L20.2645 24.5572C18.7842 23.1905 16.8635 22.4826 14.9277 22.4987L15.0427 36.336ZM10.7893 34.6414L14.8911 38.5638L24.4548 28.5628L20.353 24.6403L10.7893 34.6414ZM24.4544 38.5643L35.8351 27.6832L26.2724 17.6812L14.8916 28.5623L24.4544 38.5643ZM35.8364 27.682C35.2582 28.235 34.5886 28.6581 33.8733 28.9416L28.7747 16.0773C27.8573 16.4409 27.004 16.9814 26.2711 17.6824L35.8364 27.682ZM33.8733 28.9416C33.1584 29.225 32.4021 29.3674 31.6452 29.3676L31.6405 15.5298C30.6647 15.5301 29.6918 15.7138 28.7747 16.0773L33.8733 28.9416ZM31.6452 29.3676C30.8882 29.3679 30.1319 29.226 29.4168 28.9431L34.5066 16.0754C33.5893 15.7125 32.6162 15.5295 31.6405 15.5298L31.6452 29.3676ZM29.4168 28.9431C28.7013 28.6601 28.0315 28.2375 27.453 27.685L37.0111 17.6786C36.2779 16.9782 35.4243 16.4383 34.5066 16.0754L29.4168 28.9431ZM27.453 27.685C26.8739 27.1318 26.3969 26.458 26.0653 25.6934L38.7603 20.1868C38.3448 19.229 37.7451 18.3797 37.0111 17.6786L27.453 27.685ZM26.0653 25.6934C25.7333 24.928 25.5577 24.0959 25.5574 23.2474L39.3952 23.2423C39.3948 22.1847 39.1761 21.1454 38.7603 20.1868L26.0653 25.6934ZM25.5574 23.2474C25.5571 22.399 25.732 21.5667 26.0635 20.801L38.7625 26.2984C39.1776 25.3394 39.3956 24.3 39.3952 23.2423L25.5574 23.2474ZM26.0635 20.801C26.3946 20.0362 26.8711 19.362 27.4499 18.8083L37.0151 28.8079C37.7486 28.1063 38.3477 27.2565 38.7625 26.2984L26.0635 20.801ZM27.4516 18.8066L15.4811 30.2491L25.0428 40.2521L37.0133 28.8096L27.4516 18.8066ZM15.4803 30.2498C16.6429 29.1382 18.1558 28.5653 19.6716 28.565L19.6744 42.4028C21.632 42.4024 23.5686 41.6617 25.0435 40.2514L15.4803 30.2498Z" fill="url(#paint4_linear)" mask="url(#path-8-inside-4)"/>
<defs>
<linearGradient id="paint0_linear" x1="41.2323" y1="36.7207" x2="43.1724" y2="39.3045" gradientUnits="userSpaceOnUse">
<stop stop-color="#FF2D2D"/>
<stop offset="1" stop-color="#0085FA"/>
</linearGradient>
<linearGradient id="paint1_linear" x1="43.9089" y1="28.986" x2="46.1179" y2="31.0522" gradientUnits="userSpaceOnUse">
<stop stop-color="#FF2D2D"/>
<stop offset="1" stop-color="#0085FA"/>
</linearGradient>
<linearGradient id="paint2_linear" x1="8.22482" y1="9.13784" x2="36.7905" y2="51.071" gradientUnits="userSpaceOnUse">
<stop stop-color="#FF2D2D"/>
<stop offset="1" stop-color="#0085FA"/>
</linearGradient>
<linearGradient id="paint3_linear" x1="11.396" y1="13.7163" x2="34.0508" y2="46.8729" gradientUnits="userSpaceOnUse">
<stop stop-color="#FF2D2D"/>
<stop offset="1" stop-color="#0085FA"/>
</linearGradient>
<linearGradient id="paint4_linear" x1="17.1765" y1="24.4647" x2="22.0493" y2="36.9148" gradientUnits="userSpaceOnUse">
<stop stop-color="#FF2D2D"/>
<stop offset="1" stop-color="#0085FA"/>
</linearGradient>
</defs>
</svg>
