<svg width="47" height="46" viewBox="0 0 47 46" fill="none" xmlns="http://www.w3.org/2000/svg">
<path d="M21.7334 34.5694V35.0694H22.2334H23C23.6987 35.0694 24.2665 34.5017 24.2665 33.8028V31.6423C24.2665 30.9436 23.6989 30.3757 23 30.3757H12.9172C12.8212 30.3757 12.7433 30.2979 12.7433 30.2019C12.7433 30.1059 12.8212 30.0281 12.9172 30.0281H23C23.8895 30.0281 24.6142 30.7526 24.6142 31.6425C24.6142 31.6426 24.6142 31.6426 24.6142 31.6426V33.8031C24.6142 34.6928 23.8897 35.4173 23 35.4173H22.1227H21.7637L21.649 35.7575C21.4882 36.2341 21.1098 36.6124 20.6333 36.7731L20.293 36.8878V37.2469V43.8858C20.293 44.7754 19.5685 45.5 18.6788 45.5H8.04585C7.48109 45.5 6.96962 45.2148 6.67268 44.7344C6.37575 44.2539 6.34946 43.669 6.60204 43.1638L9.45619 37.4555L9.73555 36.8968L9.1292 36.7466C7.48405 36.339 6.26158 34.8499 6.26158 33.0827V32.2812V32.2228L6.24812 32.166L0.892453 9.55301L0.892449 9.55299C0.632046 8.45371 0.5 7.32325 0.5 6.19337V2.1142C0.5 1.22453 1.22453 0.5 2.1142 0.5H5.71522C6.60481 0.5 7.32942 1.22455 7.32942 2.1142V4.99503C7.32942 5.88462 6.60487 6.60923 5.71522 6.60923H5.15702H4.5024L4.67464 7.24079L8.37098 20.7943L8.37099 20.7943C8.39624 20.8869 8.3417 20.9825 8.24897 21.0077C8.15634 21.033 8.06075 20.9783 8.03553 20.8858L7.55315 21.0174L8.03553 20.8858L4.10699 6.48129C4.10698 6.48124 4.10696 6.48118 4.10695 6.48112C4.1041 6.4706 4.10174 6.45577 4.10174 6.43541V5.93541H4.10084V1.34765V0.847654H3.60084H2.11411C1.41538 0.847654 0.847564 1.4153 0.847564 2.1142V6.19346C0.847564 7.29648 0.976519 8.39979 1.23063 9.47296L1.23064 9.47298L5.27881 26.5652L6.26491 26.471C6.33322 24.8471 7.67616 23.5463 9.31615 23.5463H20.1192C21.803 23.5463 23.1738 24.917 23.1738 26.6009C23.1738 26.6969 23.0959 26.7747 23 26.7747H11.4768C10.7781 26.7747 10.2103 27.3424 10.2103 28.0413V31.6423C10.2103 32.341 10.7779 32.9088 11.4768 32.9088H20.1192C21.0088 32.9088 21.7334 33.6334 21.7334 34.523V34.5694ZM4.44867 5.76149V6.26149H4.94867H5.71522C6.41395 6.26149 6.98177 5.69384 6.98177 4.99494V2.1142C6.98177 1.41543 6.41399 0.847654 5.71522 0.847654H4.94867H4.44867V1.34765V5.76149ZM6.96836 44.5515L6.96838 44.5516C7.2023 44.93 7.60081 45.1523 8.04576 45.1523H8.89973H9.20874L9.34694 44.8759L12.9943 37.5811L13.3561 36.8575H12.5471H10.4528H10.1437L10.0055 37.1339L6.91286 43.3193C6.71386 43.7173 6.73453 44.1732 6.96836 44.5515ZM9.95919 44.4287L9.59739 45.1523H10.4064H18.6787C19.3776 45.1523 19.9453 44.5844 19.9453 43.8857V37.3575V36.8575H19.4453H14.0538H13.7448L13.6066 37.1339L9.95919 44.4287ZM22.2208 26.4271H22.9067L22.6969 25.7741C22.3471 24.6854 21.3251 23.894 20.119 23.894H9.31606C7.82309 23.894 6.60914 25.1078 6.60914 26.6009V33.0827C6.60914 34.9729 8.14616 36.5098 10.0363 36.5098H20.1192C20.8179 36.5098 21.3858 35.9422 21.3858 35.2433V34.523C21.3858 33.8243 20.8181 33.2565 20.1192 33.2565H11.4768C10.5872 33.2565 9.8626 32.5319 9.8626 31.6423V28.0413C9.8626 27.1517 10.5871 26.4271 11.4768 26.4271H22.2208Z" stroke="url(#paint0_linear)"/>
<path d="M43.0177 34.5694V35.0694H43.5177H44.2843C44.983 35.0694 45.5508 34.5017 45.5508 33.8028V31.6423C45.5508 30.9436 44.9832 30.3757 44.2843 30.3757H34.2015C34.1055 30.3757 34.0276 30.2979 34.0276 30.2019C34.0276 30.1059 34.1055 30.0281 34.2015 30.0281H44.2843C45.1738 30.0281 45.8985 30.7526 45.8985 31.6425C45.8985 31.6426 45.8985 31.6426 45.8985 31.6426V33.8031C45.8985 34.6928 45.174 35.4173 44.2843 35.4173H43.407H43.048L42.9333 35.7575C42.7725 36.2341 42.3941 36.6124 41.9176 36.7731L41.5773 36.8878V37.2469V43.8858C41.5773 44.7754 40.8528 45.5 39.9631 45.5H29.3302C28.7654 45.5 28.2539 45.2148 27.957 44.7344C27.6601 44.2539 27.6338 43.669 27.8863 43.1638L30.7405 37.4555L31.0199 36.8968L30.4135 36.7466C28.7684 36.339 27.5459 34.8499 27.5459 33.0827V32.2812V32.2228L27.5324 32.166L22.1768 9.55301L22.1768 9.55299C21.9163 8.45371 21.7843 7.32325 21.7843 6.19337V2.1142C21.7843 1.22453 22.5088 0.5 23.3985 0.5H26.9995C27.8891 0.5 28.6137 1.22455 28.6137 2.1142V4.99503C28.6137 5.88462 27.8892 6.60923 26.9995 6.60923H26.4413H25.7867L25.9589 7.24079L29.6553 20.7943L29.6553 20.7943C29.6805 20.8869 29.626 20.9825 29.5333 21.0077C29.4406 21.033 29.3451 20.9783 29.3198 20.8858L28.8375 21.0174L29.3198 20.8858L25.3913 6.48129C25.3913 6.48124 25.3913 6.48118 25.3912 6.48112C25.3884 6.4706 25.386 6.45577 25.386 6.43541V5.93541H25.3851V1.34765V0.847654H24.8851H23.3984C22.6997 0.847654 22.1319 1.4153 22.1319 2.1142V6.19346C22.1319 7.29648 22.2608 8.39979 22.5149 9.47296L22.5149 9.47298L26.5631 26.5652L27.5492 26.471C27.6175 24.8471 28.9605 23.5463 30.6005 23.5463H41.4035C43.0873 23.5463 44.4581 24.917 44.4581 26.6009C44.4581 26.6969 44.3802 26.7747 44.2843 26.7747H32.7611C32.0624 26.7747 31.4946 27.3424 31.4946 28.0413V31.6423C31.4946 32.341 32.0622 32.9088 32.7611 32.9088H41.4035C42.2931 32.9088 43.0177 33.6334 43.0177 34.523V34.5694ZM25.733 5.76149V6.26149H26.233H26.9995C27.6982 6.26149 28.2661 5.69384 28.2661 4.99494V2.1142C28.2661 1.41543 27.6983 0.847654 26.9995 0.847654H26.233H25.733V1.34765V5.76149ZM28.2527 44.5515L28.2527 44.5516C28.4866 44.93 28.8851 45.1523 29.3301 45.1523H30.184H30.493L30.6312 44.8759L34.2786 37.5811L34.6404 36.8575H33.8314H31.7371H31.428L31.2899 37.1339L28.1972 43.3193C27.9982 43.7173 28.0188 44.1732 28.2527 44.5515ZM31.2435 44.4287L30.8817 45.1523H31.6907H39.9631C40.6619 45.1523 41.2296 44.5844 41.2296 43.8857V37.3575V36.8575H40.7296H35.3381H35.0291L34.8909 37.1339L31.2435 44.4287ZM43.5051 26.4271H44.191L43.9812 25.7741C43.6314 24.6854 42.6094 23.894 41.4033 23.894H30.6004C29.1074 23.894 27.8934 25.1078 27.8934 26.6009V33.0827C27.8934 34.9729 29.4305 36.5098 31.3206 36.5098H41.4035C42.1022 36.5098 42.6701 35.9422 42.6701 35.2433V34.523C42.6701 33.8243 42.1024 33.2565 41.4035 33.2565H32.7611C31.8715 33.2565 31.1469 32.5319 31.1469 31.6423V28.0413C31.1469 27.1517 31.8714 26.4271 32.7611 26.4271H43.5051Z" stroke="url(#paint1_linear)"/>
<defs>
<linearGradient id="paint0_linear" x1="4.13677" y1="7.11406" x2="29.4689" y2="32.2616" gradientUnits="userSpaceOnUse">
<stop stop-color="#FF2D2D"/>
<stop offset="1" stop-color="#0085FA"/>
</linearGradient>
<linearGradient id="paint1_linear" x1="25.4211" y1="7.11406" x2="50.7532" y2="32.2616" gradientUnits="userSpaceOnUse">
<stop stop-color="#FF2D2D"/>
<stop offset="1" stop-color="#0085FA"/>
</linearGradient>
</defs>
</svg>
