<svg width="60" height="30" viewBox="0 0 60 30" fill="none" xmlns="http://www.w3.org/2000/svg">
<mask id="path-1-inside-1" fill="white">
<path d="M11.6213 21.3638C10.9971 21.3703 10.389 21.5478 9.87339 21.874C9.35782 22.2002 8.95787 22.6605 8.72387 23.1969C8.48988 23.7333 8.43229 24.3219 8.55837 24.8886C8.68445 25.4553 8.98856 25.9748 9.43242 26.3816C9.87628 26.7885 10.44 27.0645 11.0528 27.175C11.6655 27.2855 12.2998 27.2255 12.8758 27.0025C13.4518 26.7796 13.9438 26.4037 14.2898 25.9221C14.6359 25.4406 14.8205 24.8749 14.8205 24.2962C14.8148 23.5144 14.4747 22.7666 13.875 22.2168C13.2752 21.6671 12.4647 21.3603 11.6213 21.3638ZM11.6213 25.9003C11.2805 25.8938 10.9494 25.7942 10.6695 25.614C10.3896 25.4338 10.1733 25.181 10.0477 24.8874C9.92216 24.5937 9.89293 24.2721 9.96369 23.9631C10.0345 23.6541 10.2021 23.3713 10.4455 23.1502C10.6889 22.9291 10.9974 22.7796 11.3321 22.7203C11.6669 22.6611 12.0131 22.6948 12.3272 22.8172C12.6414 22.9395 12.9096 23.1452 13.0983 23.4083C13.2869 23.6714 13.3875 23.9803 13.3875 24.2962C13.3822 24.7259 13.1932 25.136 12.8621 25.4367C12.531 25.7374 12.0848 25.9041 11.6213 25.9003Z"/>
</mask>
<path d="M11.6213 21.3638L11.613 19.3638L11.6004 19.3639L11.6213 21.3638ZM14.8205 24.2962L16.8205 24.2962V24.2889L16.8205 24.2815L14.8205 24.2962ZM13.3875 24.2962L15.3873 24.321L15.3875 24.3086V24.2962L13.3875 24.2962ZM11.6004 19.3639C10.6138 19.3742 9.64115 19.6543 8.80408 20.1839L10.9427 23.5642C11.1368 23.4414 11.3804 23.3664 11.6421 23.3637L11.6004 19.3639ZM8.80408 20.1839C7.96579 20.7142 7.29161 21.4782 6.89069 22.3972L10.5571 23.9966C10.6241 23.8428 10.7499 23.6862 10.9427 23.5642L8.80408 20.1839ZM6.89069 22.3972C6.48877 23.3186 6.38722 24.3391 6.60611 25.323L10.5106 24.4543C10.4774 24.3047 10.491 24.148 10.5571 23.9966L6.89069 22.3972ZM6.60611 25.323C6.82464 26.3052 7.34698 27.1832 8.08103 27.856L10.7838 24.9073C10.6301 24.7664 10.5443 24.6054 10.5106 24.4543L6.60611 25.323ZM8.08103 27.856C8.8135 28.5274 9.72631 28.968 10.6979 29.1432L11.4077 25.2067C11.1538 25.1609 10.9391 25.0495 10.7838 24.9073L8.08103 27.856ZM10.6979 29.1432C11.6691 29.3184 12.6761 29.2244 13.5977 28.8677L12.1539 25.1373C11.9234 25.2265 11.6619 25.2525 11.4077 25.2067L10.6979 29.1432ZM13.5977 28.8677C14.5199 28.5107 15.3316 27.8997 15.914 27.0892L12.6657 24.755C12.556 24.9077 12.3836 25.0484 12.1539 25.1373L13.5977 28.8677ZM15.914 27.0892C16.4979 26.2766 16.8205 25.3046 16.8205 24.2962L12.8205 24.2963C12.8205 24.4451 12.7739 24.6045 12.6657 24.755L15.914 27.0892ZM16.8205 24.2815C16.8105 22.9192 16.2169 21.6504 15.2264 20.7425L12.5236 23.6912C12.7326 23.8828 12.8191 24.1095 12.8206 24.3109L16.8205 24.2815ZM15.2264 20.7425C14.2409 19.8392 12.9393 19.3583 11.613 19.3638L11.6295 23.3638C11.9901 23.3623 12.3095 23.495 12.5236 23.6912L15.2264 20.7425ZM11.6593 23.9006C11.6802 23.901 11.7123 23.9068 11.7521 23.9323L9.58698 27.2957C10.1865 27.6817 10.8809 27.8866 11.5833 27.8999L11.6593 23.9006ZM11.7521 23.9323C11.793 23.9587 11.8483 24.0114 11.8867 24.1011L8.20875 25.6736C8.49825 26.3507 8.98617 26.909 9.58698 27.2957L11.7521 23.9323ZM11.8867 24.1011C11.926 24.1931 11.9376 24.303 11.9132 24.4095L8.01415 23.5167C7.84823 24.2413 7.91828 24.9942 8.20875 25.6736L11.8867 24.1011ZM11.9132 24.4095C11.8892 24.5144 11.8373 24.588 11.7901 24.6308L9.1009 21.6697C8.56687 22.1547 8.1797 22.7937 8.01415 23.5167L11.9132 24.4095ZM11.7901 24.6308C11.7445 24.6722 11.7042 24.6856 11.6807 24.6897L10.9836 20.7509C10.2906 20.8736 9.63338 21.1861 9.1009 21.6697L11.7901 24.6308ZM11.6807 24.6897C11.6679 24.692 11.6556 24.6924 11.6437 24.6912C11.6318 24.6901 11.6176 24.6871 11.6013 24.6808L13.0532 20.9536C12.3943 20.6969 11.6763 20.6283 10.9836 20.7509L11.6807 24.6897ZM11.6013 24.6808C11.5701 24.6686 11.5197 24.639 11.4728 24.5735L14.7238 22.2431C14.2996 21.6514 13.7128 21.2105 13.0532 20.9536L11.6013 24.6808ZM11.4728 24.5735C11.4243 24.5059 11.3875 24.4093 11.3875 24.2962L15.3875 24.2962C15.3875 23.5514 15.1495 22.8369 14.7238 22.2431L11.4728 24.5735ZM11.3876 24.2715C11.3895 24.1208 11.4566 24.0115 11.5175 23.9562L14.2067 26.9173C14.9299 26.2606 15.3748 25.331 15.3873 24.321L11.3876 24.2715ZM11.5175 23.9562C11.5467 23.9297 11.5731 23.916 11.5915 23.9092C11.6098 23.9023 11.6253 23.9002 11.638 23.9003L11.6046 27.9002C12.5508 27.9081 13.4886 27.5694 14.2067 26.9173L11.5175 23.9562Z" fill="url(#paint0_linear)" mask="url(#path-1-inside-1)"/>
<mask id="path-3-inside-2" fill="white">
<path d="M46.3205 21.4268C45.6965 21.4334 45.0885 21.611 44.5731 21.9372C44.0577 22.2634 43.6579 22.7237 43.424 23.2601C43.1902 23.7964 43.1327 24.3849 43.2589 24.9515C43.3851 25.5181 43.6892 26.0374 44.1331 26.444C44.577 26.8507 45.1407 27.1266 45.7533 27.237C46.3659 27.3473 47.0001 27.2872 47.5759 27.0642C48.1518 26.8412 48.6436 26.4653 48.9895 25.9838C49.3354 25.5023 49.5199 24.9366 49.5198 24.3581C49.5139 23.5764 49.1737 22.8288 48.574 22.2793C47.9742 21.7297 47.1638 21.4232 46.3205 21.4268ZM46.3205 25.9622C45.98 25.9556 45.6491 25.856 45.3693 25.6758C45.0896 25.4956 44.8735 25.2429 44.748 24.9493C44.6226 24.6558 44.5934 24.3344 44.6641 24.0255C44.7349 23.7167 44.9024 23.434 45.1458 23.2131C45.3891 22.9921 45.6974 22.8426 46.0319 22.7834C46.3665 22.7241 46.7125 22.7577 47.0266 22.88C47.3406 23.0023 47.6088 23.2078 47.7974 23.4707C47.9859 23.7337 48.0866 24.0424 48.0867 24.3581C48.0814 24.7878 47.8925 25.1979 47.5614 25.4986C47.2303 25.7993 46.784 25.966 46.3205 25.9622Z"/>
</mask>
<path d="M49.5198 24.3581L51.5198 24.3577L51.5198 24.3504L51.5197 24.343L49.5198 24.3581ZM48.0867 24.3581L50.0866 24.3829L50.0867 24.3701L50.0867 24.3574L48.0867 24.3581ZM46.2993 19.4269C45.3128 19.4374 44.3403 19.7176 43.5035 20.2473L45.6427 23.6272C45.8366 23.5044 46.0801 23.4295 46.3417 23.4267L46.2993 19.4269ZM43.5035 20.2473C42.6654 20.7777 41.9914 21.5417 41.5907 22.4608L45.2574 24.0593C45.3244 23.9057 45.45 23.7491 45.6427 23.6272L43.5035 20.2473ZM41.5907 22.4608C41.189 23.3821 41.0877 24.4025 41.3067 25.3862L45.2111 24.5167C45.1778 24.3673 45.1914 24.2107 45.2574 24.0593L41.5907 22.4608ZM41.3067 25.3862C41.5255 26.3683 42.0479 27.2461 42.782 27.9187L45.4842 24.9694C45.3306 24.8287 45.2447 24.6678 45.2111 24.5167L41.3067 25.3862ZM42.782 27.9187C43.5145 28.5898 44.4273 29.0303 45.3987 29.2053L46.1079 25.2686C45.8541 25.2229 45.6394 25.1116 45.4842 24.9694L42.782 27.9187ZM45.3987 29.2053C46.3699 29.3802 47.3768 29.2861 48.2982 28.9293L46.8537 25.1992C46.6234 25.2884 46.362 25.3144 46.1079 25.2686L45.3987 29.2053ZM48.2982 28.9293C49.2203 28.5722 50.0317 27.9611 50.6139 27.1506L47.3652 24.817C47.2555 24.9696 47.0833 25.1103 46.8537 25.1992L48.2982 28.9293ZM50.6139 27.1506C51.1976 26.338 51.52 25.366 51.5198 24.3577L47.5198 24.3585C47.5198 24.5072 47.4732 24.6665 47.3652 24.817L50.6139 27.1506ZM51.5197 24.343C51.5094 22.9809 50.9157 21.7123 49.9251 20.8047L47.2229 23.7539C47.4318 23.9453 47.5183 24.172 47.5198 24.3732L51.5197 24.343ZM49.9251 20.8047C48.9396 19.9017 47.638 19.4211 46.3119 19.4268L46.3291 23.4268C46.6896 23.4252 47.0089 23.5578 47.2229 23.7539L49.9251 20.8047ZM46.3592 23.9625C46.3802 23.9629 46.4125 23.9687 46.4523 23.9944L44.2864 27.3572C44.8856 27.7432 45.5797 27.9482 46.2819 27.9618L46.3592 23.9625ZM46.4523 23.9944C46.4934 24.0208 46.5487 24.0736 46.5871 24.1634L42.9089 25.7352C43.1982 26.4122 43.6858 26.9704 44.2864 27.3572L46.4523 23.9944ZM46.5871 24.1634C46.6265 24.2556 46.6381 24.3655 46.6136 24.4721L42.7146 23.5789C42.5487 24.3033 42.6186 25.056 42.9089 25.7352L46.5871 24.1634ZM46.6136 24.4721C46.5896 24.5771 46.5376 24.6507 46.4904 24.6936L43.8012 21.7325C43.2673 22.2173 42.8802 22.8562 42.7146 23.5789L46.6136 24.4721ZM46.4904 24.6936C46.4447 24.7351 46.4043 24.7485 46.3807 24.7527L45.6832 20.814C44.9904 20.9367 44.3335 21.2491 43.8012 21.7325L46.4904 24.6936ZM46.3807 24.7527C46.3678 24.755 46.3555 24.7554 46.3435 24.7542C46.3316 24.7531 46.3173 24.7501 46.3009 24.7437L47.7522 21.0163C47.0935 20.7598 46.3757 20.6914 45.6832 20.814L46.3807 24.7527ZM46.3009 24.7437C46.2696 24.7315 46.2191 24.7019 46.1722 24.6364L49.4225 22.3051C48.9984 21.7137 48.4116 21.273 47.7522 21.0163L46.3009 24.7437ZM46.1722 24.6364C46.1236 24.5687 46.0868 24.472 46.0867 24.3589L50.0867 24.3574C50.0865 23.6127 49.8482 22.8986 49.4225 22.3051L46.1722 24.6364ZM46.0869 24.3333C46.0888 24.1827 46.1559 24.0734 46.2168 24.0181L48.906 26.9792C49.6291 26.3225 50.0741 25.3929 50.0866 24.3829L46.0869 24.3333ZM46.2168 24.0181C46.246 23.9916 46.2724 23.9779 46.2907 23.9711C46.3091 23.9642 46.3245 23.9621 46.3372 23.9622L46.3038 27.9621C47.2501 27.97 48.1879 27.6313 48.906 26.9792L46.2168 24.0181Z" fill="url(#paint1_linear)" mask="url(#path-3-inside-2)"/>
<mask id="path-5-inside-3" fill="white">
<path d="M58.1484 7.85016L52.2551 1.95108C51.8316 1.52447 51.3207 1.18033 50.7521 0.938735C50.1836 0.697145 49.5688 0.562949 48.9437 0.543979L32.5438 0C32.5353 0 32.5268 0 32.5182 0C32.2386 0 31.9576 0.00464945 31.6831 0.0137268C29.7746 0.0826017 27.8802 0.347087 26.0345 0.802352C24.6656 1.13915 23.3235 1.56326 22.0177 2.07164C15.872 4.45312 11.6581 8.07643 10.869 8.78458L4.76989 10.5244C3.41676 10.801 2.20616 11.4977 1.33867 12.4993C0.471179 13.5009 -0.00112867 14.7471 2.02544e-06 16.0315V23.6123C0.000222966 23.9203 0.132238 24.2156 0.367087 24.4335C0.601935 24.6515 0.920438 24.7741 1.25272 24.7746H5.55974C5.68849 26.1827 6.38288 27.4947 7.50544 28.4508C8.62801 29.4069 10.0969 29.9375 11.6214 29.9375C13.1459 29.9375 14.6148 29.4069 15.7374 28.4508C16.8599 27.4947 17.5543 26.1827 17.6831 24.7746H40.2546C40.3694 26.2234 41.083 27.5753 42.2467 28.5483C43.4104 29.5213 44.9343 30.0405 46.5008 29.9975C48.0673 29.9546 49.5554 29.3528 50.655 28.3177C51.7546 27.2826 52.3808 25.894 52.403 24.4414H58.159C58.4912 24.4411 58.8096 24.3187 59.0445 24.101C59.2794 23.8832 59.4114 23.588 59.4118 23.2802V10.8375C59.4114 9.72983 58.9603 8.66304 58.1485 7.85016H58.1484ZM44.7432 1.734L48.8926 1.87149C49.3289 1.88474 49.7579 1.9784 50.1547 2.147C50.5515 2.31561 50.9081 2.55578 51.2036 2.85351L57.0975 8.75314C57.1252 8.78082 57.1493 8.81082 57.1759 8.83938H44.7432V1.734ZM32.425 1.32906C32.4519 1.32906 32.4788 1.3284 32.5056 1.3284L43.3102 1.68651V8.83938H32.425V1.32906ZM3.82563 12.2633H4.6974V13.1987C4.69705 13.5002 4.56765 13.7893 4.33759 14.0025C4.10753 14.2156 3.79563 14.3354 3.47036 14.3356H1.80743C2.21143 13.4552 2.92197 12.7256 3.82563 12.2633ZM1.43305 17.6965H4.29436V20.764H1.43305V17.6965ZM11.6208 28.6092C10.3874 28.6078 9.20507 28.1529 8.33307 27.3444C7.46107 26.5358 6.97064 25.4397 6.96938 24.2964C6.96938 24.2437 6.97045 24.1909 6.97248 24.1385C7.01667 23.0233 7.52549 21.9675 8.39201 21.1928C9.25852 20.4181 10.4153 19.985 11.6191 19.9844C12.8229 19.9838 13.9801 20.4159 14.8475 21.1897C15.7149 21.9636 16.2249 23.019 16.2703 24.1341C16.2723 24.1882 16.2733 24.2423 16.2734 24.2964C16.2722 25.4399 15.7816 26.5362 14.9093 27.3447C14.037 28.1533 12.8544 28.6081 11.6208 28.6092ZM46.3208 28.6712C45.0874 28.6698 43.9051 28.2149 43.0331 27.4063C42.161 26.5978 41.6706 25.5017 41.6694 24.3584C41.6694 24.2873 41.6714 24.2163 41.6757 24.1427C41.734 23.0626 42.2281 22.0423 43.0599 21.284C43.8917 20.5258 45.0006 20.0849 46.1666 20.049C47.3326 20.013 48.4706 20.3845 49.355 21.0898C50.2393 21.7952 50.8055 22.7828 50.9412 23.8569V23.8577C51.0166 24.462 50.9534 25.0743 50.7557 25.6544C50.558 26.2345 50.2303 26.7693 49.7941 27.2238C49.3578 27.6783 48.8229 28.0422 48.2243 28.2916C47.6257 28.5411 46.9771 28.6704 46.3208 28.6712ZM57.9786 23.113H54.5453V20.5082C54.5457 20.2316 54.6646 19.9665 54.8757 19.771C55.0868 19.5755 55.373 19.4656 55.6714 19.4654H57.9786V23.113ZM57.9786 14.3356H56.702C56.3768 14.3353 56.0651 14.2154 55.8352 14.0023C55.6052 13.7891 55.4759 13.5002 55.4755 13.1987V12.2633H57.9786V14.3356ZM57.9786 10.9349H54.759C54.569 10.9349 54.3867 11.0049 54.2524 11.1295C54.118 11.254 54.0425 11.423 54.0425 11.5991V13.1987C54.0434 13.8523 54.324 14.4788 54.8225 14.941C55.321 15.4031 55.9969 15.6631 56.702 15.664H57.9786V18.137H55.6714C54.9931 18.1376 54.3427 18.3876 53.8629 18.8321C53.3831 19.2767 53.1132 19.8794 53.1122 20.5082V23.113H52.2553C51.9436 21.8367 51.1629 20.7007 50.0468 19.8994C48.9308 19.0981 47.549 18.6814 46.138 18.7208C44.727 18.7602 43.3746 19.2531 42.3126 20.1152C41.2507 20.9773 40.5451 22.1549 40.3168 23.4462H32.425V20.4795C32.425 20.3033 32.3495 20.1344 32.2152 20.0098C32.0808 19.8852 31.8985 19.8153 31.7085 19.8153C31.5185 19.8153 31.3362 19.8852 31.2018 20.0098C31.0675 20.1344 30.992 20.3033 30.992 20.4795V23.4462H17.6368C17.4175 22.113 16.6901 20.8968 15.5865 20.018C14.4829 19.1392 13.0762 18.656 11.6213 18.656C10.1665 18.656 8.75974 19.1392 7.65616 20.018C6.55258 20.8968 5.82519 22.113 5.60583 23.4462H1.43305V22.0924H4.5332C4.84982 22.092 5.15336 21.9753 5.37724 21.7678C5.60113 21.5602 5.72706 21.2788 5.7274 20.9854V17.4751C5.72706 17.1816 5.60113 16.9002 5.37724 16.6927C5.15336 16.4851 4.84982 16.3684 4.5332 16.3681H1.43305V16.0315C1.43305 15.9086 1.44009 15.786 1.4512 15.664H3.47036C4.17541 15.6631 4.85131 15.4031 5.34986 14.941C5.8484 14.4788 6.1289 13.8523 6.12985 13.1987V11.5991C6.12981 11.5752 6.12837 11.5514 6.12555 11.5276L10.8929 10.1678H16.8084C16.9985 10.1678 17.1807 10.0978 17.3151 9.97323C17.4495 9.84867 17.5249 9.67973 17.5249 9.50358C17.5249 9.32742 17.4495 9.15848 17.3151 9.03392C17.1807 8.90935 16.9985 8.83938 16.8084 8.83938H12.9466C14.6609 7.48087 18.1134 5.02455 22.5712 3.29719C23.8158 2.81248 25.095 2.40812 26.3998 2.08702C27.9031 1.71763 29.4406 1.48042 30.992 1.37854V8.83971H19.5551C19.3651 8.83971 19.1828 8.90969 19.0484 9.03425C18.9141 9.15881 18.8386 9.32775 18.8386 9.50391C18.8386 9.68006 18.9141 9.849 19.0484 9.97357C19.1828 10.0981 19.3651 10.1681 19.5551 10.1681H30.992V18.0441C30.992 18.2202 31.0675 18.3892 31.2018 18.5137C31.3362 18.6383 31.5185 18.7083 31.7085 18.7083C31.8985 18.7083 32.0808 18.6383 32.2152 18.5137C32.3495 18.3892 32.425 18.2202 32.425 18.0441V10.1678H57.8983C57.9516 10.3876 57.9786 10.6122 57.9786 10.8375V10.9349Z"/>
</mask>
<path d="M58.1484 7.85016L52.2551 1.95108C51.8316 1.52447 51.3207 1.18033 50.7521 0.938735C50.1836 0.697145 49.5688 0.562949 48.9437 0.543979L32.5438 0C32.5353 0 32.5268 0 32.5182 0C32.2386 0 31.9576 0.00464945 31.6831 0.0137268C29.7746 0.0826017 27.8802 0.347087 26.0345 0.802352C24.6656 1.13915 23.3235 1.56326 22.0177 2.07164C15.872 4.45312 11.6581 8.07643 10.869 8.78458L4.76989 10.5244C3.41676 10.801 2.20616 11.4977 1.33867 12.4993C0.471179 13.5009 -0.00112867 14.7471 2.02544e-06 16.0315V23.6123C0.000222966 23.9203 0.132238 24.2156 0.367087 24.4335C0.601935 24.6515 0.920438 24.7741 1.25272 24.7746H5.55974C5.68849 26.1827 6.38288 27.4947 7.50544 28.4508C8.62801 29.4069 10.0969 29.9375 11.6214 29.9375C13.1459 29.9375 14.6148 29.4069 15.7374 28.4508C16.8599 27.4947 17.5543 26.1827 17.6831 24.7746H40.2546C40.3694 26.2234 41.083 27.5753 42.2467 28.5483C43.4104 29.5213 44.9343 30.0405 46.5008 29.9975C48.0673 29.9546 49.5554 29.3528 50.655 28.3177C51.7546 27.2826 52.3808 25.894 52.403 24.4414H58.159C58.4912 24.4411 58.8096 24.3187 59.0445 24.101C59.2794 23.8832 59.4114 23.588 59.4118 23.2802V10.8375C59.4114 9.72983 58.9603 8.66304 58.1485 7.85016H58.1484ZM44.7432 1.734L48.8926 1.87149C49.3289 1.88474 49.7579 1.9784 50.1547 2.147C50.5515 2.31561 50.9081 2.55578 51.2036 2.85351L57.0975 8.75314C57.1252 8.78082 57.1493 8.81082 57.1759 8.83938H44.7432V1.734ZM32.425 1.32906C32.4519 1.32906 32.4788 1.3284 32.5056 1.3284L43.3102 1.68651V8.83938H32.425V1.32906ZM3.82563 12.2633H4.6974V13.1987C4.69705 13.5002 4.56765 13.7893 4.33759 14.0025C4.10753 14.2156 3.79563 14.3354 3.47036 14.3356H1.80743C2.21143 13.4552 2.92197 12.7256 3.82563 12.2633ZM1.43305 17.6965H4.29436V20.764H1.43305V17.6965ZM11.6208 28.6092C10.3874 28.6078 9.20507 28.1529 8.33307 27.3444C7.46107 26.5358 6.97064 25.4397 6.96938 24.2964C6.96938 24.2437 6.97045 24.1909 6.97248 24.1385C7.01667 23.0233 7.52549 21.9675 8.39201 21.1928C9.25852 20.4181 10.4153 19.985 11.6191 19.9844C12.8229 19.9838 13.9801 20.4159 14.8475 21.1897C15.7149 21.9636 16.2249 23.019 16.2703 24.1341C16.2723 24.1882 16.2733 24.2423 16.2734 24.2964C16.2722 25.4399 15.7816 26.5362 14.9093 27.3447C14.037 28.1533 12.8544 28.6081 11.6208 28.6092ZM46.3208 28.6712C45.0874 28.6698 43.9051 28.2149 43.0331 27.4063C42.161 26.5978 41.6706 25.5017 41.6694 24.3584C41.6694 24.2873 41.6714 24.2163 41.6757 24.1427C41.734 23.0626 42.2281 22.0423 43.0599 21.284C43.8917 20.5258 45.0006 20.0849 46.1666 20.049C47.3326 20.013 48.4706 20.3845 49.355 21.0898C50.2393 21.7952 50.8055 22.7828 50.9412 23.8569V23.8577C51.0166 24.462 50.9534 25.0743 50.7557 25.6544C50.558 26.2345 50.2303 26.7693 49.7941 27.2238C49.3578 27.6783 48.8229 28.0422 48.2243 28.2916C47.6257 28.5411 46.9771 28.6704 46.3208 28.6712ZM57.9786 23.113H54.5453V20.5082C54.5457 20.2316 54.6646 19.9665 54.8757 19.771C55.0868 19.5755 55.373 19.4656 55.6714 19.4654H57.9786V23.113ZM57.9786 14.3356H56.702C56.3768 14.3353 56.0651 14.2154 55.8352 14.0023C55.6052 13.7891 55.4759 13.5002 55.4755 13.1987V12.2633H57.9786V14.3356ZM57.9786 10.9349H54.759C54.569 10.9349 54.3867 11.0049 54.2524 11.1295C54.118 11.254 54.0425 11.423 54.0425 11.5991V13.1987C54.0434 13.8523 54.324 14.4788 54.8225 14.941C55.321 15.4031 55.9969 15.6631 56.702 15.664H57.9786V18.137H55.6714C54.9931 18.1376 54.3427 18.3876 53.8629 18.8321C53.3831 19.2767 53.1132 19.8794 53.1122 20.5082V23.113H52.2553C51.9436 21.8367 51.1629 20.7007 50.0468 19.8994C48.9308 19.0981 47.549 18.6814 46.138 18.7208C44.727 18.7602 43.3746 19.2531 42.3126 20.1152C41.2507 20.9773 40.5451 22.1549 40.3168 23.4462H32.425V20.4795C32.425 20.3033 32.3495 20.1344 32.2152 20.0098C32.0808 19.8852 31.8985 19.8153 31.7085 19.8153C31.5185 19.8153 31.3362 19.8852 31.2018 20.0098C31.0675 20.1344 30.992 20.3033 30.992 20.4795V23.4462H17.6368C17.4175 22.113 16.6901 20.8968 15.5865 20.018C14.4829 19.1392 13.0762 18.656 11.6213 18.656C10.1665 18.656 8.75974 19.1392 7.65616 20.018C6.55258 20.8968 5.82519 22.113 5.60583 23.4462H1.43305V22.0924H4.5332C4.84982 22.092 5.15336 21.9753 5.37724 21.7678C5.60113 21.5602 5.72706 21.2788 5.7274 20.9854V17.4751C5.72706 17.1816 5.60113 16.9002 5.37724 16.6927C5.15336 16.4851 4.84982 16.3684 4.5332 16.3681H1.43305V16.0315C1.43305 15.9086 1.44009 15.786 1.4512 15.664H3.47036C4.17541 15.6631 4.85131 15.4031 5.34986 14.941C5.8484 14.4788 6.1289 13.8523 6.12985 13.1987V11.5991C6.12981 11.5752 6.12837 11.5514 6.12555 11.5276L10.8929 10.1678H16.8084C16.9985 10.1678 17.1807 10.0978 17.3151 9.97323C17.4495 9.84867 17.5249 9.67973 17.5249 9.50358C17.5249 9.32742 17.4495 9.15848 17.3151 9.03392C17.1807 8.90935 16.9985 8.83938 16.8084 8.83938H12.9466C14.6609 7.48087 18.1134 5.02455 22.5712 3.29719C23.8158 2.81248 25.095 2.40812 26.3998 2.08702C27.9031 1.71763 29.4406 1.48042 30.992 1.37854V8.83971H19.5551C19.3651 8.83971 19.1828 8.90969 19.0484 9.03425C18.9141 9.15881 18.8386 9.32775 18.8386 9.50391C18.8386 9.68006 18.9141 9.849 19.0484 9.97357C19.1828 10.0981 19.3651 10.1681 19.5551 10.1681H30.992V18.0441C30.992 18.2202 31.0675 18.3892 31.2018 18.5137C31.3362 18.6383 31.5185 18.7083 31.7085 18.7083C31.8985 18.7083 32.0808 18.6383 32.2152 18.5137C32.3495 18.3892 32.425 18.2202 32.425 18.0441V10.1678H57.8983C57.9516 10.3876 57.9786 10.6122 57.9786 10.8375V10.9349Z" stroke="url(#paint2_linear)" stroke-width="4" mask="url(#path-5-inside-3)"/>
<mask id="path-6-inside-4" fill="white">
<path d="M24.0097 13.0281H27.326C27.5161 13.0281 27.6983 12.9581 27.8327 12.8336C27.9671 12.709 28.0426 12.5401 28.0426 12.3639C28.0426 12.1877 27.9671 12.0188 27.8327 11.8942C27.6983 11.7697 27.5161 11.6997 27.326 11.6997H24.0097C23.8197 11.6997 23.6375 11.7697 23.5031 11.8942C23.3687 12.0188 23.2932 12.1877 23.2932 12.3639C23.2932 12.5401 23.3687 12.709 23.5031 12.8336C23.6375 12.9581 23.8197 13.0281 24.0097 13.0281Z"/>
</mask>
<path d="M24.0097 15.0281H27.326V11.0281H24.0097V15.0281ZM27.326 15.0281C27.9996 15.0281 28.6733 14.7815 29.1923 14.3003L26.4731 11.3668C26.7234 11.1348 27.0325 11.0281 27.326 11.0281V15.0281ZM29.1923 14.3003C29.7165 13.8144 30.0426 13.1215 30.0426 12.3639H26.0426C26.0426 11.9586 26.2176 11.6036 26.4731 11.3668L29.1923 14.3003ZM30.0426 12.3639C30.0426 11.6063 29.7165 10.9134 29.1923 10.4275L26.4731 13.361C26.2176 13.1242 26.0426 12.7692 26.0426 12.3639H30.0426ZM29.1923 10.4275C28.6733 9.94634 27.9996 9.69971 27.326 9.69971V13.6997C27.0325 13.6997 26.7234 13.593 26.4731 13.361L29.1923 10.4275ZM27.326 9.69971H24.0097V13.6997H27.326V9.69971ZM24.0097 9.69971C23.3362 9.69971 22.6625 9.94634 22.1434 10.4275L24.8627 13.361C24.6124 13.593 24.3033 13.6997 24.0097 13.6997V9.69971ZM22.1434 10.4275C21.6193 10.9134 21.2932 11.6063 21.2932 12.3639H25.2932C25.2932 12.7692 25.1181 13.1242 24.8627 13.361L22.1434 10.4275ZM21.2932 12.3639C21.2932 13.1215 21.6193 13.8144 22.1434 14.3003L24.8627 11.3668C25.1181 11.6036 25.2932 11.9586 25.2932 12.3639H21.2932ZM22.1434 14.3003C22.6625 14.7815 23.3362 15.0281 24.0097 15.0281V11.0281C24.3033 11.0281 24.6124 11.1348 24.8627 11.3668L22.1434 14.3003Z" fill="url(#paint3_linear)" mask="url(#path-6-inside-4)"/>
<path d="M38.3371 12.9775L38.111 12.3889L38.3371 12.9775Z" stroke="url(#paint4_linear)" stroke-width="2"/>
<mask id="path-9-inside-5" fill="white">
<path d="M50.8516 15.811H48.7319C48.5419 15.811 48.3596 15.881 48.2252 16.0056C48.0909 16.1301 48.0154 16.2991 48.0154 16.4752C48.0154 16.6514 48.0909 16.8203 48.2252 16.9449C48.3596 17.0695 48.5419 17.1394 48.7319 17.1394H50.8516C51.0416 17.1394 51.2239 17.0695 51.3583 16.9449C51.4926 16.8203 51.5681 16.6514 51.5681 16.4752C51.5681 16.2991 51.4926 16.1301 51.3583 16.0056C51.2239 15.881 51.0416 15.811 50.8516 15.811Z"/>
</mask>
<path d="M50.8516 13.811H48.7319V17.811H50.8516V13.811ZM48.7319 13.811C48.0583 13.811 47.3846 14.0577 46.8656 14.5388L49.5849 17.4723C49.3346 17.7043 49.0255 17.811 48.7319 17.811V13.811ZM46.8656 14.5388C46.3415 15.0247 46.0154 15.7176 46.0154 16.4752H50.0154C50.0154 16.8806 49.8403 17.2356 49.5849 17.4723L46.8656 14.5388ZM46.0154 16.4752C46.0154 17.2329 46.3415 17.9258 46.8656 18.4116L49.5849 15.4781C49.8403 15.7149 50.0154 16.0699 50.0154 16.4752H46.0154ZM46.8656 18.4116C47.3847 18.8928 48.0583 19.1394 48.7319 19.1394V15.1394C49.0254 15.1394 49.3346 15.2461 49.5849 15.4781L46.8656 18.4116ZM48.7319 19.1394H50.8516V15.1394H48.7319V19.1394ZM50.8516 19.1394C51.5252 19.1394 52.1989 18.8928 52.7179 18.4116L49.9986 15.4781C50.2489 15.2461 50.5581 15.1394 50.8516 15.1394V19.1394ZM52.7179 18.4116C53.2421 17.9258 53.5681 17.2329 53.5681 16.4752H49.5681C49.5681 16.0699 49.7432 15.7149 49.9986 15.4781L52.7179 18.4116ZM53.5681 16.4752C53.5681 15.7176 53.2421 15.0247 52.7179 14.5388L49.9986 17.4723C49.7432 17.2356 49.5681 16.8806 49.5681 16.4752H53.5681ZM52.7179 14.5388C52.1989 14.0577 51.5252 13.811 50.8516 13.811V17.811C50.5581 17.811 50.2489 17.7043 49.9986 17.4723L52.7179 14.5388Z" fill="url(#paint5_linear)" mask="url(#path-9-inside-5)"/>
<mask id="path-11-inside-6" fill="white">
<path d="M44.9511 15.811H36.1928C36.0028 15.811 35.8206 15.881 35.6862 16.0056C35.5518 16.1301 35.4763 16.2991 35.4763 16.4752C35.4763 16.6514 35.5518 16.8203 35.6862 16.9449C35.8206 17.0695 36.0028 17.1394 36.1928 17.1394H44.9511C45.1412 17.1394 45.3234 17.0695 45.4578 16.9449C45.5922 16.8203 45.6677 16.6514 45.6677 16.4752C45.6677 16.2991 45.5922 16.1301 45.4578 16.0056C45.3234 15.881 45.1412 15.811 44.9511 15.811Z"/>
</mask>
<path d="M44.9511 13.811H36.1928V17.811H44.9511V13.811ZM36.1928 13.811C35.5192 13.811 34.8456 14.0577 34.3265 14.5388L37.0458 17.4723C36.7955 17.7043 36.4864 17.811 36.1928 17.811V13.811ZM34.3265 14.5388C33.8024 15.0247 33.4763 15.7176 33.4763 16.4752H37.4763C37.4763 16.8806 37.3012 17.2356 37.0458 17.4723L34.3265 14.5388ZM33.4763 16.4752C33.4763 17.2329 33.8024 17.9258 34.3265 18.4116L37.0458 15.4781C37.3012 15.7149 37.4763 16.0699 37.4763 16.4752H33.4763ZM34.3265 18.4116C34.8456 18.8928 35.5192 19.1394 36.1928 19.1394V15.1394C36.4864 15.1394 36.7955 15.2461 37.0458 15.4781L34.3265 18.4116ZM36.1928 19.1394H44.9511V15.1394H36.1928V19.1394ZM44.9511 19.1394C45.6247 19.1394 46.2984 18.8928 46.8174 18.4116L44.0981 15.4781C44.3484 15.2461 44.6576 15.1394 44.9511 15.1394V19.1394ZM46.8174 18.4116C47.3416 17.9258 47.6677 17.2329 47.6677 16.4752H43.6677C43.6677 16.0699 43.8427 15.7149 44.0981 15.4781L46.8174 18.4116ZM47.6677 16.4752C47.6677 15.7176 47.3416 15.0247 46.8174 14.5388L44.0981 17.4723C43.8428 17.2356 43.6677 16.8806 43.6677 16.4752H47.6677ZM46.8174 14.5388C46.2984 14.0577 45.6248 13.811 44.9511 13.811V17.811C44.6576 17.811 44.3484 17.7043 44.0981 17.4723L46.8174 14.5388Z" fill="url(#paint6_linear)" mask="url(#path-11-inside-6)"/>
<mask id="path-13-inside-7" fill="white">
<path d="M28.2731 15.811H17.4858C17.2958 15.811 17.1135 15.881 16.9792 16.0056C16.8448 16.1301 16.7693 16.2991 16.7693 16.4752C16.7693 16.6514 16.8448 16.8203 16.9792 16.9449C17.1135 17.0695 17.2958 17.1394 17.4858 17.1394H28.2731C28.4631 17.1394 28.6453 17.0695 28.7797 16.9449C28.9141 16.8203 28.9896 16.6514 28.9896 16.4752C28.9896 16.2991 28.9141 16.1301 28.7797 16.0056C28.6453 15.881 28.4631 15.811 28.2731 15.811Z"/>
</mask>
<path d="M28.2731 13.811H17.4858V17.811H28.2731V13.811ZM17.4858 13.811C16.8122 13.811 16.1385 14.0577 15.6195 14.5388L18.3388 17.4723C18.0885 17.7043 17.7794 17.811 17.4858 17.811V13.811ZM15.6195 14.5388C15.0953 15.0247 14.7693 15.7176 14.7693 16.4752H18.7693C18.7693 16.8806 18.5942 17.2356 18.3388 17.4723L15.6195 14.5388ZM14.7693 16.4752C14.7693 17.2329 15.0953 17.9258 15.6195 18.4116L18.3388 15.4781C18.5942 15.7149 18.7693 16.0699 18.7693 16.4752H14.7693ZM15.6195 18.4116C16.1386 18.8928 16.8122 19.1394 17.4858 19.1394V15.1394C17.7793 15.1394 18.0885 15.2461 18.3388 15.4781L15.6195 18.4116ZM17.4858 19.1394H28.2731V15.1394H17.4858V19.1394ZM28.2731 19.1394C28.9466 19.1394 29.6203 18.8928 30.1394 18.4116L27.4201 15.4781C27.6704 15.2461 27.9795 15.1394 28.2731 15.1394V19.1394ZM30.1394 18.4116C30.6635 17.9258 30.9896 17.2329 30.9896 16.4752H26.9896C26.9896 16.0699 27.1646 15.7149 27.4201 15.4781L30.1394 18.4116ZM30.9896 16.4752C30.9896 15.7176 30.6635 15.0247 30.1394 14.5388L27.4201 17.4723C27.1647 17.2356 26.9896 16.8806 26.9896 16.4752H30.9896ZM30.1394 14.5388C29.6203 14.0577 28.9467 13.811 28.2731 13.811V17.811C27.9795 17.811 27.6704 17.7043 27.4201 17.4723L30.1394 14.5388Z" fill="url(#paint7_linear)" mask="url(#path-13-inside-7)"/>
<mask id="path-15-inside-8" fill="white">
<path d="M15.3349 15.811H14.4189C14.2289 15.811 14.0466 15.881 13.9123 16.0056C13.7779 16.1301 13.7024 16.2991 13.7024 16.4752C13.7024 16.6514 13.7779 16.8203 13.9123 16.9449C14.0466 17.0695 14.2289 17.1394 14.4189 17.1394H15.3349C15.5249 17.1394 15.7072 17.0695 15.8415 16.9449C15.9759 16.8203 16.0514 16.6514 16.0514 16.4752C16.0514 16.2991 15.9759 16.1301 15.8415 16.0056C15.7072 15.881 15.5249 15.811 15.3349 15.811Z"/>
</mask>
<path d="M15.3349 13.811H14.4189V17.811H15.3349V13.811ZM14.4189 13.811C13.7453 13.811 13.0716 14.0577 12.5526 14.5388L15.2719 17.4723C15.0216 17.7043 14.7125 17.811 14.4189 17.811V13.811ZM12.5526 14.5388C12.0285 15.0247 11.7024 15.7176 11.7024 16.4752H15.7024C15.7024 16.8806 15.5273 17.2356 15.2719 17.4723L12.5526 14.5388ZM11.7024 16.4752C11.7024 17.2329 12.0285 17.9258 12.5526 18.4116L15.2719 15.4781C15.5273 15.7149 15.7024 16.0699 15.7024 16.4752H11.7024ZM12.5526 18.4116C13.0717 18.8928 13.7453 19.1394 14.4189 19.1394V15.1394C14.7124 15.1394 15.0216 15.2461 15.2719 15.4781L12.5526 18.4116ZM14.4189 19.1394H15.3349V15.1394H14.4189V19.1394ZM15.3349 19.1394C16.0085 19.1394 16.6821 18.8928 17.2012 18.4116L14.4819 15.4781C14.7322 15.2461 15.0414 15.1394 15.3349 15.1394V19.1394ZM17.2012 18.4116C17.7253 17.9258 18.0514 17.2329 18.0514 16.4752H14.0514C14.0514 16.0699 14.2265 15.7149 14.4819 15.4781L17.2012 18.4116ZM18.0514 16.4752C18.0514 15.7176 17.7253 15.0247 17.2012 14.5388L14.4819 17.4723C14.2265 17.2356 14.0514 16.8806 14.0514 16.4752H18.0514ZM17.2012 14.5388C16.6821 14.0577 16.0085 13.811 15.3349 13.811V17.811C15.0413 17.811 14.7322 17.7043 14.4819 17.4723L17.2012 14.5388Z" fill="url(#paint8_linear)" mask="url(#path-15-inside-8)"/>
<defs>
<linearGradient id="paint0_linear" x1="9.5354" y1="22.2708" x2="12.1494" y2="27.3983" gradientUnits="userSpaceOnUse">
<stop stop-color="#FF2D2D"/>
<stop offset="1" stop-color="#0085FA"/>
</linearGradient>
<linearGradient id="paint1_linear" x1="44.2356" y1="22.3337" x2="46.8491" y2="27.4601" gradientUnits="userSpaceOnUse">
<stop stop-color="#FF2D2D"/>
<stop offset="1" stop-color="#0085FA"/>
</linearGradient>
<linearGradient id="paint2_linear" x1="9.7862" y1="4.6396" x2="18.3054" y2="35.3165" gradientUnits="userSpaceOnUse">
<stop stop-color="#FF2D2D"/>
<stop offset="1" stop-color="#0085FA"/>
</linearGradient>
<linearGradient id="paint3_linear" x1="24.0755" y1="11.9051" x2="24.2954" y2="13.3345" gradientUnits="userSpaceOnUse">
<stop stop-color="#FF2D2D"/>
<stop offset="1" stop-color="#0085FA"/>
</linearGradient>
<linearGradient id="paint4_linear" x1="34.8123" y1="11.9051" x2="35.0322" y2="13.3345" gradientUnits="userSpaceOnUse">
<stop stop-color="#FF2D2D"/>
<stop offset="1" stop-color="#0085FA"/>
</linearGradient>
<linearGradient id="paint5_linear" x1="48.6006" y1="16.0165" x2="48.8893" y2="17.4202" gradientUnits="userSpaceOnUse">
<stop stop-color="#FF2D2D"/>
<stop offset="1" stop-color="#0085FA"/>
</linearGradient>
<linearGradient id="paint6_linear" x1="37.155" y1="16.0165" x2="37.2594" y2="17.4721" gradientUnits="userSpaceOnUse">
<stop stop-color="#FF2D2D"/>
<stop offset="1" stop-color="#0085FA"/>
</linearGradient>
<linearGradient id="paint7_linear" x1="18.7822" y1="16.0165" x2="18.8694" y2="17.4744" gradientUnits="userSpaceOnUse">
<stop stop-color="#FF2D2D"/>
<stop offset="1" stop-color="#0085FA"/>
</linearGradient>
<linearGradient id="paint8_linear" x1="14.0893" y1="16.0165" x2="14.5042" y2="17.3506" gradientUnits="userSpaceOnUse">
<stop stop-color="#FF2D2D"/>
<stop offset="1" stop-color="#0085FA"/>
</linearGradient>
</defs>
</svg>
