<svg width="56" height="66" viewBox="0 0 56 66" fill="none" xmlns="http://www.w3.org/2000/svg">
<path d="M32.2912 56.4953C32.2912 58.5426 30.3831 60.3631 27.8184 60.3631C25.2538 60.3631 23.3457 58.5426 23.3457 56.4953C23.3457 54.4481 25.2538 52.6276 27.8184 52.6276C30.3831 52.6276 32.2912 54.4481 32.2912 56.4953Z" stroke="white" stroke-width="1.6"/>
<path d="M32.6821 35.1257C32.6821 37.1729 30.774 38.9934 28.2093 38.9934C25.6446 38.9934 23.7365 37.1729 23.7365 35.1257C23.7365 33.0785 25.6446 31.258 28.2093 31.258C30.774 31.258 32.6821 33.0785 32.6821 35.1257Z" stroke="white" stroke-width="1.6"/>
<path d="M32.2912 10.1404C32.2912 12.1876 30.3831 14.0081 27.8184 14.0081C25.2538 14.0081 23.3457 12.1876 23.3457 10.1404C23.3457 8.09316 25.2538 6.27266 27.8184 6.27266C30.3831 6.27266 32.2912 8.09316 32.2912 10.1404Z" stroke="white" stroke-width="1.6"/>
<rect x="0.8" y="0.8" width="12.9456" height="19.3242" rx="6.47282" stroke="white" stroke-width="1.6"/>
<rect x="0.8" y="45.8674" width="12.9456" height="19.3242" rx="6.47282" stroke="white" stroke-width="1.6"/>
<rect x="42.2551" y="0.8" width="12.9456" height="19.3242" rx="6.47282" stroke="white" stroke-width="1.6"/>
<rect x="42.2551" y="45.8674" width="12.9456" height="19.3242" rx="6.47282" stroke="white" stroke-width="1.6"/>
<rect x="12.0747" y="54.8811" width="33.3095" height="2.26293" stroke="white" stroke-width="1.6"/>
<rect x="12.0747" y="9.16963" width="33.3095" height="2.26293" stroke="white" stroke-width="1.6"/>
<rect x="26.254" y="9.16963" width="3.49097" height="47.9743" stroke="white" stroke-width="1.6"/>
</svg>
