<svg width="55" height="54" viewBox="0 0 55 54" fill="none" xmlns="http://www.w3.org/2000/svg">
<path d="M27.5 0C12.3364 0 0 12.1121 0 27C0 41.8879 12.3364 54 27.5 54C42.6636 54 55 41.8879 55 27C55 12.1121 42.6636 0 27.5 0ZM27.5 3.16406C32.0192 3.16406 36.2531 4.38412 39.8804 6.50426L18.9427 21.44L14.1889 7.07664C18.0139 4.60487 22.5885 3.16406 27.5 3.16406ZM27.5031 19.2445L35.0115 24.6005L32.1417 33.2721H22.8586L19.9898 24.604L27.5031 19.2445ZM3.22266 27C3.22266 19.8816 6.41835 13.4831 11.4739 9.11176L19.4702 33.2721H4.0773C3.52129 31.2727 3.22266 29.1701 3.22266 27ZM26.3386 50.8081C16.8629 50.3677 8.79302 44.5687 5.20803 36.4362H31.0947L26.3386 50.8081ZM29.752 50.7325L37.7528 26.556L50.2045 35.4382C46.9815 43.7697 39.132 49.8813 29.752 50.7325ZM30.2444 17.2891L42.6834 8.41577C48.224 12.7881 51.7773 19.4938 51.7773 27C51.7773 28.7957 51.5727 30.5452 51.1875 32.2285L30.2444 17.2891Z" fill="white"/>
</svg>
