<svg width="66" height="66" viewBox="0 0 66 66" fill="none" xmlns="http://www.w3.org/2000/svg">
<g clip-path="url(#clip0)">
<path d="M18.8392 40.395C15.1802 40.395 12.2032 43.3718 12.2032 47.031C12.2032 50.6901 15.1801 53.6669 18.8392 53.6669C22.4983 53.6669 25.4751 50.6901 25.4751 47.031C25.4751 43.3718 22.4982 40.395 18.8392 40.395ZM18.8392 51.7341C16.2459 51.7341 14.1361 49.6243 14.1361 47.031C14.1361 44.4376 16.2459 42.3278 18.8392 42.3278C21.4325 42.3278 23.5423 44.4376 23.5423 47.031C23.5423 49.6243 21.4325 51.7341 18.8392 51.7341Z" fill="white"/>
<path d="M18.8397 33.9526C17.3832 33.9526 16.1981 35.1375 16.1981 36.5942C16.1981 38.0507 17.383 39.2357 18.8397 39.2357C20.2963 39.2357 21.4812 38.0508 21.4812 36.5942C21.4812 35.1375 20.2963 33.9526 18.8397 33.9526ZM18.8397 37.3028C18.4488 37.3028 18.1309 36.9849 18.1309 36.5941C18.1309 36.2032 18.4488 35.8853 18.8397 35.8853C19.2305 35.8853 19.5484 36.2032 19.5484 36.5941C19.5484 36.9849 19.2305 37.3028 18.8397 37.3028Z" fill="white"/>
<path d="M28.0887 37.783C27.5899 37.2841 26.9265 37.0093 26.2209 37.0093C25.5153 37.0093 24.8519 37.284 24.3532 37.783C23.8542 38.2818 23.5793 38.9452 23.5793 39.6508C23.5793 40.3564 23.8542 41.0198 24.3532 41.5187C24.868 42.0335 25.5443 42.2911 26.2209 42.2911C26.8973 42.2911 27.5738 42.0335 28.0886 41.5187C28.0886 41.5187 28.0886 41.5187 28.0887 41.5185C28.5876 41.0197 28.8624 40.3563 28.8624 39.6508C28.8623 38.9451 28.5876 38.2818 28.0887 37.783ZM26.7219 40.1519C26.4456 40.4281 25.9959 40.4284 25.7197 40.1519C25.5858 40.0181 25.5122 39.8401 25.5122 39.6508C25.512 39.4615 25.5858 39.2834 25.7197 39.1496C25.8536 39.0158 26.0314 38.9422 26.2208 38.9422C26.41 38.9422 26.588 39.016 26.7218 39.1498C26.8558 39.2836 26.9294 39.4615 26.9294 39.6508C26.9295 39.8401 26.8559 40.0179 26.7219 40.1519Z" fill="white"/>
<path d="M29.2769 44.3896C27.8204 44.3896 26.6354 45.5745 26.6354 47.0312C26.6354 48.4878 27.8203 49.6727 29.2769 49.6727C30.7336 49.6727 31.9185 48.4878 31.9185 47.0312C31.9185 45.5745 30.7333 44.3896 29.2769 44.3896ZM29.2769 47.7399C28.8861 47.7399 28.5682 47.422 28.5682 47.0312C28.5682 46.6403 28.8861 46.3225 29.2769 46.3225C29.6678 46.3225 29.9856 46.6403 29.9856 47.0312C29.9856 47.422 29.6675 47.7399 29.2769 47.7399Z" fill="white"/>
<path d="M28.0876 52.5433C27.0577 51.5134 25.382 51.5137 24.3522 52.5433C23.8533 53.0421 23.5784 53.7056 23.5784 54.4111C23.5784 55.1169 23.8532 55.7801 24.3521 56.2788C24.3521 56.2788 24.3522 56.2791 24.3522 56.279C24.8511 56.7778 25.5144 57.0525 26.2199 57.0525C26.9254 57.0525 27.5889 56.7778 28.0878 56.279C28.5866 55.7801 28.8613 55.1167 28.8613 54.4111C28.8613 53.7055 28.5866 53.0424 28.0876 52.5433ZM26.7211 54.9123C26.5872 55.0462 26.4093 55.1198 26.22 55.1198C26.0308 55.1198 25.8528 55.0461 25.719 54.9124C25.719 54.9123 25.719 54.9123 25.7189 54.9123C25.5849 54.7785 25.5113 54.6006 25.5113 54.4112C25.5113 54.222 25.585 54.0439 25.7189 53.9102C25.857 53.772 26.0384 53.703 26.2199 53.703C26.4013 53.703 26.5829 53.7721 26.721 53.9101C26.8549 54.044 26.9285 54.222 26.9285 54.4112C26.9286 54.6006 26.8548 54.7785 26.7211 54.9123Z" fill="white"/>
<path d="M18.8397 54.8267C17.3832 54.8267 16.1981 56.0116 16.1981 57.4682C16.1981 58.9248 17.383 60.1097 18.8397 60.1097C20.2963 60.1097 21.4812 58.9248 21.4812 57.4682C21.4812 56.0116 20.2962 54.8267 18.8397 54.8267ZM18.8397 58.1768C18.4488 58.1768 18.1309 57.8589 18.1309 57.4681C18.1309 57.0772 18.4488 56.7594 18.8397 56.7594C19.2305 56.7594 19.5484 57.0772 19.5484 57.4681C19.5484 57.8589 19.2304 58.1768 18.8397 58.1768Z" fill="white"/>
<path d="M13.3273 52.5433C12.2973 51.5136 10.6218 51.5135 9.59182 52.5433C9.09282 53.0423 8.81799 53.7057 8.81799 54.4112C8.81799 55.1169 9.09269 55.7801 9.59169 56.279C10.0906 56.7779 10.7539 57.0526 11.4595 57.0526C12.1652 57.0526 12.8285 56.7779 13.3273 56.279C13.8263 55.7801 14.1011 55.1168 14.1011 54.4112C14.1011 53.7055 13.8261 53.0423 13.3273 52.5433ZM11.9605 54.9125C11.8265 55.0463 11.6488 55.1199 11.4594 55.1199C11.2702 55.1199 11.0922 55.0461 10.9583 54.9123C10.8244 54.7785 10.7508 54.6007 10.7508 54.4113C10.7508 54.2221 10.8245 54.044 10.9583 53.9102C11.2346 53.6339 11.6842 53.6339 11.9606 53.9102C12.0945 54.044 12.1681 54.2221 12.1681 54.4113C12.1683 54.6007 12.0945 54.7785 11.9605 54.9125Z" fill="white"/>
<path d="M8.40326 44.3896C6.94675 44.3896 5.76172 45.5745 5.76172 47.0312C5.76172 48.4878 6.94662 49.6727 8.40326 49.6727C9.8599 49.6727 11.0448 48.4878 11.0448 47.0312C11.0448 45.5745 9.85977 44.3896 8.40326 44.3896ZM8.40326 47.7399C8.01242 47.7399 7.69454 47.422 7.69454 47.0312C7.69454 46.6403 8.01242 46.3225 8.40326 46.3225C8.7941 46.3225 9.11199 46.6403 9.11199 47.0312C9.11199 47.422 8.79385 47.7399 8.40326 47.7399Z" fill="white"/>
<path d="M13.3284 37.7835C13.3284 37.7836 13.3284 37.7835 13.3282 37.7833C12.8294 37.2845 12.166 37.0098 11.4605 37.0098C10.755 37.0098 10.0915 37.2845 9.59266 37.7833C9.0938 38.2822 8.81897 38.9455 8.81897 39.6512C8.81897 40.3568 9.09367 41.02 9.59279 41.519C10.1075 42.0339 10.7839 42.2914 11.4604 42.2913C12.1369 42.2913 12.8134 42.0339 13.3282 41.519C13.8271 41.0202 14.1021 40.3567 14.1021 39.6512C14.1019 38.9454 13.8271 38.2822 13.3284 37.7835ZM11.9616 40.1522C11.6853 40.4285 11.2356 40.4286 10.9593 40.1524C10.8254 40.0184 10.7518 39.8404 10.7518 39.6512C10.7517 39.4618 10.8254 39.2838 10.9592 39.1501C11.0931 39.0162 11.271 38.9426 11.4603 38.9426C11.6495 38.9426 11.8275 39.0163 11.9613 39.15C11.9613 39.1501 11.9613 39.1501 11.9614 39.1501C12.0954 39.2839 12.169 39.4618 12.169 39.6512C12.1692 39.8404 12.0955 40.0184 11.9616 40.1522Z" fill="white"/>
<path d="M60.5326 9.94346H60.1479L60.4199 9.6716C60.7284 9.36299 60.8982 8.95294 60.8982 8.51686C60.8982 8.08064 60.7284 7.67072 60.4199 7.36212L59.0248 5.96697C58.3881 5.3303 57.3521 5.33043 56.7152 5.96709L56.4433 6.23896V5.8543C56.4433 4.95389 55.7106 4.22119 54.8102 4.22119H52.8373C51.9369 4.22119 51.2042 4.95389 51.2042 5.8543V6.23896L50.9323 5.96697C50.2956 5.3303 49.2595 5.3303 48.6228 5.96697L47.2282 7.36186C46.9197 7.67046 46.7499 8.08051 46.7499 8.5166C46.7499 8.95282 46.9197 9.36274 47.2282 9.67134L47.5003 9.94333H47.1157C46.2152 9.94333 45.4825 10.676 45.4825 11.5764V13.5493C45.4825 14.4498 46.2152 15.1825 47.1157 15.1825H47.5003L47.2283 15.4543C46.9198 15.7629 46.7501 16.173 46.7501 16.6091C46.7501 17.0451 46.9198 17.4552 47.2283 17.7638L48.6232 19.1588C49.2599 19.7955 50.2959 19.7954 50.9328 19.1587L51.2047 18.8868V19.2715C51.2047 20.1719 51.9374 20.9046 52.8378 20.9046H54.8107C55.7111 20.9046 56.4438 20.1719 56.4438 19.2715V18.8868L56.7157 19.1588C57.3525 19.7955 58.3885 19.7955 59.0251 19.1588L60.4202 17.7638C60.7286 17.4552 60.8984 17.0451 60.8984 16.6091C60.8984 16.173 60.7286 15.7629 60.4202 15.4543L60.1482 15.1825H60.5328C61.4332 15.1825 62.1659 14.4498 62.1659 13.5493V11.5766C62.1657 10.6762 61.433 9.94346 60.5326 9.94346ZM60.2329 13.2494H59.7745C59.0993 13.2494 58.502 13.6606 58.2529 14.2974C58.2299 14.3562 58.2058 14.4143 58.1806 14.4718C57.9073 15.0954 58.038 15.8057 58.5137 16.2813L58.8412 16.6088L57.8702 17.5799L57.5426 17.2522C57.0669 16.7768 56.3567 16.6457 55.7334 16.9189C55.6754 16.9443 55.6167 16.9687 55.5587 16.9915C54.9222 17.2404 54.5107 17.8375 54.5107 18.513V18.9716H53.1374V18.513C53.1374 17.8377 52.726 17.2404 52.0904 16.9919C52.0312 16.9687 51.9726 16.9445 51.915 16.9192C51.2914 16.6458 50.5812 16.7766 50.1056 17.2524L49.7781 17.58L48.807 16.6089L49.1346 16.2814C49.6101 15.8057 49.741 15.0956 49.4677 14.4718C49.4425 14.4143 49.4184 14.3562 49.3952 14.2971C49.1462 13.6609 48.549 13.2495 47.8737 13.2495H47.4152V11.8763H47.8737C48.549 11.8763 49.1462 11.4649 49.3954 10.8283C49.4183 10.7695 49.4424 10.7114 49.4677 10.6539C49.741 10.0302 49.6102 9.31994 49.1346 8.84441L48.807 8.51686L49.7781 7.54581L50.1056 7.87349C50.5813 8.34889 51.2914 8.47973 51.9148 8.20671C51.9728 8.18131 52.0315 8.15695 52.0895 8.13413C52.726 7.88522 53.1375 7.28812 53.1375 6.61266V6.15401H54.5109V6.61253C54.5109 7.28787 54.9222 7.88509 55.5578 8.13362C55.617 8.15682 55.6757 8.18106 55.7333 8.20632C56.3568 8.47973 57.0671 8.34889 57.5426 7.8731L57.8702 7.54555L58.8412 8.5166L58.5137 8.84415C58.0381 9.31981 57.9073 10.03 58.1806 10.6537C58.2057 10.7112 58.2298 10.7694 58.253 10.8284C58.5021 11.4647 59.0993 11.876 59.7745 11.876H60.233V13.2494H60.2329Z" fill="white"/>
<path d="M53.824 9.11865C51.9248 9.11865 50.3795 10.6637 50.3795 12.563C50.3795 14.4623 51.9247 16.0074 53.824 16.0074C55.7233 16.0074 57.2684 14.4623 57.2684 12.563C57.2684 10.6637 55.7232 9.11865 53.824 9.11865ZM53.824 14.0744C52.9906 14.0744 52.3123 13.3965 52.3123 12.563C52.3123 11.7295 52.9905 11.0513 53.824 11.0513C54.6575 11.0513 55.3356 11.7295 55.3356 12.5629C55.3356 13.3963 54.6574 14.0744 53.824 14.0744Z" fill="white"/>
<path d="M53.8241 0.38623C50.7949 0.38623 48.0207 1.49843 45.8877 3.3356C45.8723 3.34656 45.8567 3.35687 45.8419 3.36886L14.9711 28.2928C14.8636 28.2219 14.75 28.159 14.629 28.1076C14.101 27.8819 13.5165 27.8753 12.9835 28.0893L10.158 29.2231C9.62499 29.4369 9.20708 29.8455 8.98149 30.3738C8.75591 30.9019 8.74946 31.4861 8.96319 32.0192L9.27127 32.787C7.6343 33.9032 6.2251 35.2819 5.07074 36.8964L4.30929 36.5712C3.78117 36.3456 3.19696 36.339 2.66381 36.5529C2.13091 36.7666 1.713 37.1754 1.48741 37.7034L0.291166 40.5032C0.0655808 41.0312 0.0591355 41.6155 0.272862 42.1485C0.486717 42.6816 0.895349 43.0994 1.42335 43.3249L2.1848 43.6502C1.81612 45.6004 1.79395 47.5715 2.1188 49.5264L1.35103 49.8344C0.818134 50.0482 0.400221 50.4569 0.174635 50.9851C-0.0509502 51.5132 -0.0573955 52.0975 0.156331 52.6305L1.29006 55.4563C1.50391 55.9893 1.91255 56.4071 2.44054 56.6327C2.96854 56.8583 3.553 56.8647 4.0859 56.651L4.85366 56.3429C5.96986 57.9798 7.34838 59.389 8.96306 60.5437L8.6377 61.3051C8.17183 62.3952 8.67985 63.661 9.77001 64.1268L12.5698 65.323C13.6604 65.789 14.9257 65.2809 15.3916 64.191L15.717 63.4294C17.667 63.7983 19.6384 63.8202 21.593 63.4954L21.9011 64.2633C22.1149 64.7963 22.5236 65.2141 23.0516 65.4397C23.3229 65.5557 23.6094 65.6137 23.8959 65.6137C24.1669 65.6137 24.438 65.5619 24.6969 65.458L27.5224 64.3241C28.0555 64.1104 28.4734 63.7018 28.6989 63.1735C28.9245 62.6454 28.931 62.0612 28.7173 61.528L28.4092 60.7603C30.046 59.6442 31.4552 58.2655 32.6097 56.6509L33.3711 56.9761C33.8991 57.2017 34.4835 57.2083 35.0166 56.9944C35.5495 56.7807 35.9674 56.3719 36.193 55.8439L37.3893 53.0441C37.5837 52.5892 37.6143 52.0926 37.4827 51.623L63.0126 20.552C63.0273 20.5339 63.0401 20.5153 63.0532 20.497C64.8892 18.3644 66.0007 15.5911 66.0007 12.5627C66.0007 5.84862 60.5382 0.38623 53.8241 0.38623ZM35.6124 52.2839L34.4162 55.0838C34.3691 55.1938 34.2415 55.2453 34.1312 55.1982L32.8214 54.6386C32.2869 54.4102 31.6653 54.5966 31.3444 55.0816C30.1693 56.8536 28.6638 58.3265 26.8696 59.4588C26.3774 59.7697 26.1772 60.3868 26.3939 60.9259L26.924 62.2472C26.9518 62.3162 26.9384 62.3757 26.9221 62.4133C26.906 62.4511 26.8724 62.5019 26.8033 62.5295L23.9775 63.6635C23.9085 63.6911 23.8489 63.6777 23.8113 63.6615C23.7736 63.6454 23.7228 63.6117 23.6951 63.5427L23.1648 62.2209C22.9787 61.758 22.5313 61.4659 22.0475 61.4659C21.968 61.4659 21.8874 61.4739 21.8069 61.4901C19.7276 61.9119 17.6218 61.8884 15.5481 61.42C14.9804 61.292 14.4028 61.5864 14.1742 62.1209L13.6146 63.4307C13.5676 63.5409 13.4397 63.5922 13.3296 63.5451L10.5298 62.3489C10.4197 62.3018 10.3685 62.1741 10.4153 62.0639L10.975 60.7539C11.2032 60.2196 11.0169 59.5983 10.532 59.2769C8.7599 58.1018 7.28702 56.5963 6.15484 54.8026C5.84418 54.3103 5.22698 54.11 4.68776 54.3264L3.36622 54.8566C3.29712 54.8842 3.23757 54.8708 3.20006 54.8547C3.16229 54.8386 3.1115 54.8048 3.08379 54.7358L1.95006 51.9101C1.92234 51.8411 1.93575 51.7816 1.95199 51.7439C1.9681 51.7062 2.00175 51.6554 2.07084 51.6277L3.392 51.0976C3.9316 50.881 4.23904 50.3097 4.12328 49.7394C3.7015 47.6603 3.72509 45.5544 4.19341 43.4807C4.3218 42.913 4.02699 42.3351 3.49255 42.1068L2.18273 41.5472C2.11441 41.5179 2.0818 41.4664 2.06646 41.4284C2.05112 41.3902 2.03913 41.3304 2.06839 41.2622L3.26464 38.4624C3.31156 38.3523 3.43918 38.301 3.54965 38.3479L4.85947 38.9075C5.39352 39.1358 6.01511 38.9495 6.3366 38.4644C7.51171 36.6925 9.01707 35.2197 10.8112 34.0873C11.3035 33.7764 11.5037 33.1593 11.287 32.6202L10.7568 31.2989C10.7291 31.23 10.7425 31.1704 10.7587 31.1328C10.7748 31.095 10.8085 31.0442 10.8776 31.0166L13.7033 29.8826C13.7723 29.8549 13.8318 29.8683 13.8695 29.8846C13.8856 29.8914 13.9039 29.9024 13.9218 29.9169C13.9526 30.018 14.001 30.115 14.0664 30.2045L14.5161 31.325C14.7326 31.864 15.3034 32.1707 15.8741 32.0559C17.9532 31.6339 20.059 31.6574 22.1329 32.126C22.7007 32.2544 23.2782 31.9596 23.5067 31.4251L24.0663 30.1153C24.1134 30.0051 24.2413 29.9542 24.3513 30.0008L27.1512 31.1971C27.2613 31.2441 27.3126 31.3719 27.2656 31.4821L26.7059 32.792C26.4778 33.3264 26.664 33.9477 27.149 34.269C28.9211 35.4441 30.3939 36.9496 31.5261 38.7434C31.8367 39.2355 32.4537 39.4359 32.9932 39.2195L34.3146 38.6895L34.3147 38.6894C34.3837 38.6616 34.4433 38.6749 34.4809 38.6913C34.5187 38.7074 34.5695 38.7412 34.5972 38.8101L35.7309 41.6359C35.7586 41.7049 35.7452 41.7644 35.729 41.8021C35.7129 41.8398 35.6792 41.8906 35.6101 41.9183L34.289 42.4484C33.7494 42.6649 33.4419 43.2361 33.5577 43.8065C33.9795 45.8857 33.9559 47.9916 33.4875 50.0653C33.3592 50.633 33.6541 51.2109 34.1884 51.4392L35.4982 51.9988C35.5665 52.028 35.5992 52.0796 35.6145 52.1176C35.6297 52.1558 35.6417 52.2156 35.6124 52.2839ZM53.8241 22.8066C51.8309 22.8066 49.8986 22.2333 48.2358 21.1487C47.7888 20.8574 47.19 20.9832 46.8984 21.4303C46.6068 21.8774 46.7329 22.4761 47.1798 22.7677C49.1574 24.0576 51.4549 24.7394 53.8241 24.7394C55.1233 24.7394 56.3751 24.5342 57.5499 24.1556L36.1651 50.1821L35.4963 49.8964C35.865 47.9462 35.8871 45.9751 35.5623 44.0203L36.3301 43.7122C36.863 43.4985 37.2809 43.0897 37.5065 42.5616C37.732 42.0334 37.7385 41.4491 37.5248 40.9161L36.3909 38.0903C36.177 37.5573 35.7684 37.1395 35.2404 36.9139C34.7123 36.6882 34.1281 36.6818 33.5951 36.8956L32.8273 37.2037C31.7111 35.5669 30.3326 34.1577 28.7179 33.0029L29.0433 32.2415C29.5091 31.1515 29.0011 29.8856 27.9109 29.4199L25.1111 28.2236C24.021 27.7576 22.7552 28.2658 22.2894 29.3557L21.964 30.1172C20.0138 29.7483 18.0424 29.7264 16.0879 30.0512L16.0346 29.9181L42.2617 8.74359C41.8636 9.94538 41.6476 11.2293 41.6476 12.5628C41.6476 15.2363 42.4982 17.7742 44.1077 19.902C44.4296 20.3277 45.0358 20.4116 45.4615 20.0896C45.8873 19.7676 45.9712 19.1616 45.6492 18.7359C44.2957 16.9465 43.5804 14.812 43.5804 12.5627C43.5804 6.91416 48.1757 2.31892 53.8241 2.31892C59.4725 2.31892 64.0679 6.91416 64.0679 12.5627C64.0679 18.2112 59.4725 22.8066 53.8241 22.8066Z" fill="white"/>
</g>
<defs>
<clipPath id="clip0">
<rect width="66" height="66" fill="white"/>
</clipPath>
</defs>
</svg>
