<svg width="46" height="54" viewBox="0 0 46 54" fill="none" xmlns="http://www.w3.org/2000/svg">
<mask id="path-1-inside-1" fill="white">
<path d="M43.5704 34.0938L45.9554 27.9895C46.0566 27.7301 45.9819 27.436 45.7688 27.2542L43.2739 25.1272C43.491 23.2262 43.4406 21.305 43.1242 19.4177L45.5244 17.1442C45.7263 16.9529 45.7857 16.658 45.6737 16.405L43.0174 10.4079C42.9046 10.1519 42.6402 9.99413 42.3581 10.0151L39.0342 10.2565C37.8511 8.7375 36.4378 7.40799 34.8445 6.31429L34.9421 3.03403C34.9508 2.75492 34.7798 2.50068 34.5159 2.40036L28.3361 0.0440235C28.0735 -0.0558719 27.7753 0.0178705 27.5913 0.22838L25.438 2.69361C23.5135 2.47881 21.5681 2.52855 19.6575 2.8411L17.3553 0.470616C17.1617 0.271253 16.8631 0.212088 16.607 0.322702L10.5357 2.94657C10.2766 3.05889 10.1173 3.31999 10.1381 3.59824L10.3825 6.8815C8.84513 8.04981 7.49918 9.44577 6.39238 11.0197L3.07112 10.9232C2.78813 10.9133 2.53031 11.0827 2.42961 11.3442L0.044568 17.449C-0.056563 17.7084 0.0180916 18.0025 0.231205 18.1843L2.72649 20.3117C2.50947 22.2122 2.55982 24.1338 2.87624 26.0207L0.476002 28.2943C0.274174 28.4855 0.214711 28.7805 0.326693 29.0334L2.98301 35.0306C3.09586 35.2874 3.36062 35.4452 3.64275 35.4233L6.96661 35.1819C8.1498 36.7009 9.56303 38.0304 11.1564 39.1237L11.0587 42.4044C11.0505 42.6835 11.2211 42.9373 11.485 43.0381L16.2294 44.8469V48.6048C16.2316 50.1062 17.463 51.3225 18.983 51.3243H22.3333V53.3415C22.3333 53.7055 22.6315 54 23 54C23.3681 54 23.6667 53.7055 23.6667 53.3415V51.3247H27.0166C28.5366 51.323 29.7684 50.1062 29.7701 48.6048V44.952L35.4638 42.4914C35.7225 42.3795 35.8823 42.1184 35.8614 41.8402L35.6171 38.5565C37.1544 37.3882 38.5004 35.9922 39.6072 34.4184L42.9284 34.5148C43.2119 34.5251 43.4701 34.3558 43.5704 34.0938ZM28.4368 39.721V41.2575H26.2592V32.5799C26.2601 31.8421 26.8651 31.2444 27.6121 31.2436C29.0952 31.2423 30.2975 30.0547 30.2988 28.5897V28.236C31.4585 27.9359 32.2689 26.9026 32.2737 25.718C32.2784 24.5338 31.4763 23.4942 30.3192 23.185C29.1616 22.8755 27.9385 23.3737 27.3378 24.3988C26.7375 25.4243 26.9098 26.72 27.7584 27.5569C28.0917 27.8861 28.5088 28.1206 28.9654 28.236V28.5901C28.9646 29.328 28.3591 29.9256 27.6121 29.9265C26.129 29.9282 24.9276 31.1154 24.9258 32.5804V41.2575H23.7123V21.9717C25.0079 21.6403 25.8521 20.4094 25.6828 19.0979C25.5135 17.7864 24.3841 16.8037 23.0456 16.8037C21.7074 16.8037 20.5776 17.7864 20.4084 19.0979C20.2395 20.4094 21.0833 21.6403 22.3789 21.9717V41.2575H21.1658V32.5799C21.164 31.1154 19.9622 29.9282 18.4791 29.9265C17.7321 29.9256 17.127 29.3275 17.1262 28.5897V28.236C17.5828 28.1206 17.9994 27.8861 18.3332 27.5573C19.1891 26.7174 19.3658 25.4136 18.7629 24.3812C18.1605 23.3488 16.9295 22.8468 15.765 23.158C14.6005 23.4693 13.794 24.5158 13.8006 25.7077C13.8071 26.8992 14.6248 27.9371 15.7928 28.236V28.5901C15.7941 30.0551 16.9964 31.2427 18.4795 31.244C19.2265 31.2448 19.8315 31.8425 19.8324 32.5804V41.2575H17.5628V39.721C17.5697 36.8917 16.3787 34.1881 14.278 32.2648C10.3621 28.7132 9.05347 23.152 10.9823 18.2584C12.9116 13.3648 17.6826 10.142 22.9991 10.1416C23.0395 10.1416 23.0803 10.1416 23.1202 10.142C28.1056 10.1883 32.6174 13.0682 34.7082 17.539C36.799 22.0099 36.0936 27.2705 32.8969 31.0493C32.5523 31.4562 32.1825 31.8416 31.7897 32.2031C29.6677 34.1431 28.4537 36.8647 28.4368 39.721ZM28.7011 26.6252C28.1872 26.1176 28.1872 25.294 28.7011 24.7864C29.2154 24.2783 30.0488 24.2783 30.5631 24.7864C31.077 25.294 31.077 26.1176 30.5627 26.6252C30.317 26.8713 29.9819 27.0098 29.6321 27.0098C29.2823 27.0102 28.9472 26.8717 28.7011 26.6256V26.6252ZM22.115 20.3614C21.6007 19.8538 21.6007 19.0302 22.115 18.5225C22.6289 18.0145 23.4627 18.0145 23.9766 18.5225C24.4909 19.0302 24.4909 19.8538 23.9766 20.3614C23.4622 20.8686 22.6293 20.8686 22.115 20.3618V20.3614ZM15.5285 26.6256C15.0146 26.118 15.0146 25.2949 15.5285 24.7868C16.0428 24.2792 16.8762 24.2792 17.3901 24.7868C17.9044 25.2949 17.9044 26.118 17.3901 26.6256C17.1444 26.8717 16.8093 27.0102 16.4595 27.0102C16.1096 27.0102 15.7741 26.8717 15.5285 26.6256ZM27.0166 50.0076H18.9834C18.1995 50.0063 17.5641 49.3791 17.5632 48.6048V48.3771H23.4054C23.7735 48.3771 24.0721 48.0822 24.0721 47.7186C24.0721 47.3546 23.7735 47.0601 23.4054 47.0601H17.5632V45.4296H19.295C19.6631 45.4296 19.9617 45.1346 19.9617 44.771C19.9617 44.407 19.6631 44.1125 19.295 44.1125H17.5628V42.5746H28.4368V44.1121H23.0981C22.73 44.1121 22.4314 44.4066 22.4314 44.7706C22.4314 45.1342 22.73 45.4291 23.0981 45.4291H28.4368V47.0596H26.8799C26.5118 47.0596 26.2132 47.3546 26.2132 47.7182C26.2132 48.0817 26.5118 48.3767 26.8799 48.3767H28.4368V48.6044C28.4359 49.3787 27.8009 50.0063 27.0166 50.0076ZM39.2817 33.0914C39.052 33.085 38.835 33.1956 38.7074 33.3847C37.5794 35.0572 36.1657 36.5239 34.5294 37.7179C34.3453 37.8525 34.2442 38.0703 34.2611 38.2958L34.4972 41.4723L29.7706 43.5148V39.7111C29.7888 37.2236 30.8487 34.8544 32.699 33.1664C35.6852 30.42 37.3337 26.5395 37.2256 22.5102C37.055 16.122 32.5436 10.6514 26.2444 9.19453C19.9452 7.73769 13.4438 10.6612 10.4198 16.3107C7.39588 21.9601 8.61075 28.9138 13.3765 33.2355C15.2025 34.9088 16.2368 37.2604 16.2294 39.721V43.4347L12.4056 41.977L12.5002 38.8017C12.5067 38.5745 12.3947 38.3601 12.2033 38.2341C10.5097 37.1202 9.02526 35.7239 7.81646 34.1075C7.68061 33.9253 7.45968 33.825 7.23138 33.8421L4.01559 34.0758L1.73471 28.9267L4.05508 26.7285C4.21655 26.5755 4.28946 26.3525 4.24953 26.1347C3.88147 24.1523 3.82852 22.1256 4.09198 20.1273C4.12106 19.9074 4.03642 19.6883 3.86671 19.5434L1.4578 17.4901L3.50342 12.2536L6.71834 12.347C6.94838 12.3552 7.16584 12.2441 7.29258 12.0542C8.42021 10.3813 9.83387 8.915 11.4702 7.72054C11.6542 7.58634 11.7558 7.36812 11.7389 7.14303L11.5028 3.96653L16.7156 1.71395L18.9409 4.00597C19.0958 4.16589 19.3215 4.23792 19.542 4.19805C21.549 3.83491 23.6011 3.7826 25.6251 4.04284C25.8473 4.07071 26.0691 3.98711 26.2154 3.81947L28.294 1.43999L33.5953 3.46105L33.5007 6.63627C33.4942 6.86307 33.6062 7.07744 33.7976 7.20348C35.4908 8.31734 36.9752 9.71416 38.1844 11.3305C38.3203 11.5127 38.5412 11.6126 38.7695 11.5955L41.9848 11.3622L44.2657 16.5113L41.9449 18.7095C41.783 18.8625 41.7101 19.0859 41.7505 19.3033C42.1181 21.2857 42.171 23.3124 41.9076 25.3111C41.8789 25.5307 41.9636 25.7497 42.1333 25.8947L44.5418 27.9479L42.4957 33.1844L39.2817 33.0914Z"/>
</mask>
<path d="M43.5704 34.0938L45.9554 27.9895C46.0566 27.7301 45.9819 27.436 45.7688 27.2542L43.2739 25.1272C43.491 23.2262 43.4406 21.305 43.1242 19.4177L45.5244 17.1442C45.7263 16.9529 45.7857 16.658 45.6737 16.405L43.0174 10.4079C42.9046 10.1519 42.6402 9.99413 42.3581 10.0151L39.0342 10.2565C37.8511 8.7375 36.4378 7.40799 34.8445 6.31429L34.9421 3.03403C34.9508 2.75492 34.7798 2.50068 34.5159 2.40036L28.3361 0.0440235C28.0735 -0.0558719 27.7753 0.0178705 27.5913 0.22838L25.438 2.69361C23.5135 2.47881 21.5681 2.52855 19.6575 2.8411L17.3553 0.470616C17.1617 0.271253 16.8631 0.212088 16.607 0.322702L10.5357 2.94657C10.2766 3.05889 10.1173 3.31999 10.1381 3.59824L10.3825 6.8815C8.84513 8.04981 7.49918 9.44577 6.39238 11.0197L3.07112 10.9232C2.78813 10.9133 2.53031 11.0827 2.42961 11.3442L0.044568 17.449C-0.056563 17.7084 0.0180916 18.0025 0.231205 18.1843L2.72649 20.3117C2.50947 22.2122 2.55982 24.1338 2.87624 26.0207L0.476002 28.2943C0.274174 28.4855 0.214711 28.7805 0.326693 29.0334L2.98301 35.0306C3.09586 35.2874 3.36062 35.4452 3.64275 35.4233L6.96661 35.1819C8.1498 36.7009 9.56303 38.0304 11.1564 39.1237L11.0587 42.4044C11.0505 42.6835 11.2211 42.9373 11.485 43.0381L16.2294 44.8469V48.6048C16.2316 50.1062 17.463 51.3225 18.983 51.3243H22.3333V53.3415C22.3333 53.7055 22.6315 54 23 54C23.3681 54 23.6667 53.7055 23.6667 53.3415V51.3247H27.0166C28.5366 51.323 29.7684 50.1062 29.7701 48.6048V44.952L35.4638 42.4914C35.7225 42.3795 35.8823 42.1184 35.8614 41.8402L35.6171 38.5565C37.1544 37.3882 38.5004 35.9922 39.6072 34.4184L42.9284 34.5148C43.2119 34.5251 43.4701 34.3558 43.5704 34.0938ZM28.4368 39.721V41.2575H26.2592V32.5799C26.2601 31.8421 26.8651 31.2444 27.6121 31.2436C29.0952 31.2423 30.2975 30.0547 30.2988 28.5897V28.236C31.4585 27.9359 32.2689 26.9026 32.2737 25.718C32.2784 24.5338 31.4763 23.4942 30.3192 23.185C29.1616 22.8755 27.9385 23.3737 27.3378 24.3988C26.7375 25.4243 26.9098 26.72 27.7584 27.5569C28.0917 27.8861 28.5088 28.1206 28.9654 28.236V28.5901C28.9646 29.328 28.3591 29.9256 27.6121 29.9265C26.129 29.9282 24.9276 31.1154 24.9258 32.5804V41.2575H23.7123V21.9717C25.0079 21.6403 25.8521 20.4094 25.6828 19.0979C25.5135 17.7864 24.3841 16.8037 23.0456 16.8037C21.7074 16.8037 20.5776 17.7864 20.4084 19.0979C20.2395 20.4094 21.0833 21.6403 22.3789 21.9717V41.2575H21.1658V32.5799C21.164 31.1154 19.9622 29.9282 18.4791 29.9265C17.7321 29.9256 17.127 29.3275 17.1262 28.5897V28.236C17.5828 28.1206 17.9994 27.8861 18.3332 27.5573C19.1891 26.7174 19.3658 25.4136 18.7629 24.3812C18.1605 23.3488 16.9295 22.8468 15.765 23.158C14.6005 23.4693 13.794 24.5158 13.8006 25.7077C13.8071 26.8992 14.6248 27.9371 15.7928 28.236V28.5901C15.7941 30.0551 16.9964 31.2427 18.4795 31.244C19.2265 31.2448 19.8315 31.8425 19.8324 32.5804V41.2575H17.5628V39.721C17.5697 36.8917 16.3787 34.1881 14.278 32.2648C10.3621 28.7132 9.05347 23.152 10.9823 18.2584C12.9116 13.3648 17.6826 10.142 22.9991 10.1416C23.0395 10.1416 23.0803 10.1416 23.1202 10.142C28.1056 10.1883 32.6174 13.0682 34.7082 17.539C36.799 22.0099 36.0936 27.2705 32.8969 31.0493C32.5523 31.4562 32.1825 31.8416 31.7897 32.2031C29.6677 34.1431 28.4537 36.8647 28.4368 39.721ZM28.7011 26.6252C28.1872 26.1176 28.1872 25.294 28.7011 24.7864C29.2154 24.2783 30.0488 24.2783 30.5631 24.7864C31.077 25.294 31.077 26.1176 30.5627 26.6252C30.317 26.8713 29.9819 27.0098 29.6321 27.0098C29.2823 27.0102 28.9472 26.8717 28.7011 26.6256V26.6252ZM22.115 20.3614C21.6007 19.8538 21.6007 19.0302 22.115 18.5225C22.6289 18.0145 23.4627 18.0145 23.9766 18.5225C24.4909 19.0302 24.4909 19.8538 23.9766 20.3614C23.4622 20.8686 22.6293 20.8686 22.115 20.3618V20.3614ZM15.5285 26.6256C15.0146 26.118 15.0146 25.2949 15.5285 24.7868C16.0428 24.2792 16.8762 24.2792 17.3901 24.7868C17.9044 25.2949 17.9044 26.118 17.3901 26.6256C17.1444 26.8717 16.8093 27.0102 16.4595 27.0102C16.1096 27.0102 15.7741 26.8717 15.5285 26.6256ZM27.0166 50.0076H18.9834C18.1995 50.0063 17.5641 49.3791 17.5632 48.6048V48.3771H23.4054C23.7735 48.3771 24.0721 48.0822 24.0721 47.7186C24.0721 47.3546 23.7735 47.0601 23.4054 47.0601H17.5632V45.4296H19.295C19.6631 45.4296 19.9617 45.1346 19.9617 44.771C19.9617 44.407 19.6631 44.1125 19.295 44.1125H17.5628V42.5746H28.4368V44.1121H23.0981C22.73 44.1121 22.4314 44.4066 22.4314 44.7706C22.4314 45.1342 22.73 45.4291 23.0981 45.4291H28.4368V47.0596H26.8799C26.5118 47.0596 26.2132 47.3546 26.2132 47.7182C26.2132 48.0817 26.5118 48.3767 26.8799 48.3767H28.4368V48.6044C28.4359 49.3787 27.8009 50.0063 27.0166 50.0076ZM39.2817 33.0914C39.052 33.085 38.835 33.1956 38.7074 33.3847C37.5794 35.0572 36.1657 36.5239 34.5294 37.7179C34.3453 37.8525 34.2442 38.0703 34.2611 38.2958L34.4972 41.4723L29.7706 43.5148V39.7111C29.7888 37.2236 30.8487 34.8544 32.699 33.1664C35.6852 30.42 37.3337 26.5395 37.2256 22.5102C37.055 16.122 32.5436 10.6514 26.2444 9.19453C19.9452 7.73769 13.4438 10.6612 10.4198 16.3107C7.39588 21.9601 8.61075 28.9138 13.3765 33.2355C15.2025 34.9088 16.2368 37.2604 16.2294 39.721V43.4347L12.4056 41.977L12.5002 38.8017C12.5067 38.5745 12.3947 38.3601 12.2033 38.2341C10.5097 37.1202 9.02526 35.7239 7.81646 34.1075C7.68061 33.9253 7.45968 33.825 7.23138 33.8421L4.01559 34.0758L1.73471 28.9267L4.05508 26.7285C4.21655 26.5755 4.28946 26.3525 4.24953 26.1347C3.88147 24.1523 3.82852 22.1256 4.09198 20.1273C4.12106 19.9074 4.03642 19.6883 3.86671 19.5434L1.4578 17.4901L3.50342 12.2536L6.71834 12.347C6.94838 12.3552 7.16584 12.2441 7.29258 12.0542C8.42021 10.3813 9.83387 8.915 11.4702 7.72054C11.6542 7.58634 11.7558 7.36812 11.7389 7.14303L11.5028 3.96653L16.7156 1.71395L18.9409 4.00597C19.0958 4.16589 19.3215 4.23792 19.542 4.19805C21.549 3.83491 23.6011 3.7826 25.6251 4.04284C25.8473 4.07071 26.0691 3.98711 26.2154 3.81947L28.294 1.43999L33.5953 3.46105L33.5007 6.63627C33.4942 6.86307 33.6062 7.07744 33.7976 7.20348C35.4908 8.31734 36.9752 9.71416 38.1844 11.3305C38.3203 11.5127 38.5412 11.6126 38.7695 11.5955L41.9848 11.3622L44.2657 16.5113L41.9449 18.7095C41.783 18.8625 41.7101 19.0859 41.7505 19.3033C42.1181 21.2857 42.171 23.3124 41.9076 25.3111C41.8789 25.5307 41.9636 25.7497 42.1333 25.8947L44.5418 27.9479L42.4957 33.1844L39.2817 33.0914Z" stroke="url(#paint0_linear)" stroke-width="1.99999" mask="url(#path-1-inside-1)"/>
<defs>
<linearGradient id="paint0_linear" x1="7.57704" y1="8.35128" x2="34.6795" y2="50.3305" gradientUnits="userSpaceOnUse">
<stop stop-color="#FF2D2D"/>
<stop offset="1" stop-color="#0085FA"/>
</linearGradient>
</defs>
</svg>
