<svg width="74" height="37" viewBox="0 0 74 37" fill="none" xmlns="http://www.w3.org/2000/svg">
<path d="M14.3341 26.3487C13.5643 26.3567 12.8142 26.5756 12.1784 26.9779C11.5425 27.3802 11.0492 27.9479 10.7606 28.6095C10.472 29.2711 10.401 29.997 10.5565 30.696C10.712 31.3949 11.0871 32.0355 11.6345 32.5373C12.1819 33.0391 12.8772 33.3795 13.6329 33.5158C14.3886 33.652 15.1709 33.578 15.8813 33.3031C16.5917 33.0281 17.1985 32.5645 17.6253 31.9706C18.0521 31.3767 18.2798 30.679 18.2798 29.9653C18.2727 29.0011 17.8533 28.0788 17.1136 27.4008C16.3739 26.7227 15.3743 26.3444 14.3341 26.3487ZM14.3341 31.9437C13.9138 31.9357 13.5055 31.8129 13.1602 31.5906C12.815 31.3684 12.5482 31.0566 12.3934 30.6944C12.2385 30.3322 12.2024 29.9356 12.2897 29.5545C12.377 29.1734 12.5837 28.8246 12.884 28.5519C13.1842 28.2792 13.5646 28.0948 13.9775 28.0217C14.3903 27.9487 14.8173 27.9902 15.2048 28.1411C15.5923 28.2921 15.9231 28.5457 16.1557 28.8702C16.3883 29.1948 16.5124 29.5757 16.5124 29.9653C16.5058 30.4952 16.2728 31.0011 15.8645 31.372C15.4561 31.7428 14.9057 31.9484 14.3341 31.9437Z" fill="white"/>
<path d="M57.1282 26.4268C56.3586 26.435 55.6087 26.654 54.9731 27.0563C54.3374 27.4587 53.8443 28.0263 53.5559 28.6878C53.2675 29.3493 53.1967 30.0752 53.3523 30.7739C53.5079 31.4727 53.883 32.1132 54.4304 32.6147C54.9779 33.1163 55.6731 33.4566 56.4287 33.5927C57.1843 33.7288 57.9664 33.6547 58.6766 33.3796C59.3868 33.1046 59.9934 32.641 60.42 32.0471C60.8466 31.4532 61.0742 30.7556 61.074 30.0421C61.0667 29.078 60.6472 28.156 59.9075 27.4782C59.1678 26.8004 58.1683 26.4223 57.1282 26.4268ZM57.1282 32.0204C56.7082 32.0123 56.3001 31.8894 55.9551 31.6672C55.6101 31.445 55.3435 31.1333 55.1888 30.7713C55.0341 30.4092 54.9981 30.0129 55.0854 29.6319C55.1727 29.251 55.3793 28.9024 55.6794 28.6299C55.9795 28.3573 56.3597 28.173 56.7723 28.0999C57.185 28.0268 57.6117 28.0683 57.9991 28.2191C58.3864 28.3699 58.7171 28.6233 58.9497 28.9476C59.1823 29.2719 59.3064 29.6527 59.3066 30.0421C59.3 30.572 59.067 31.0779 58.6586 31.4487C58.2503 31.8196 57.6999 32.0252 57.1282 32.0204Z" fill="white"/>
<path d="M71.7164 9.68187L64.448 2.40634C63.9257 1.88018 63.2955 1.45573 62.5943 1.15777C61.8931 0.859812 61.1349 0.694304 60.3639 0.670907L40.1374 0C40.1268 0 40.1163 0 40.1057 0C39.7609 0 39.4144 0.00573432 39.0758 0.0169298C36.722 0.101875 34.3856 0.428074 32.1092 0.989567C30.4209 1.40495 28.7656 1.92802 27.1551 2.55502C19.5755 5.49218 14.3783 9.96093 13.4052 10.8343L5.88287 12.9802C4.21401 13.3212 2.72093 14.1805 1.65103 15.4158C0.581121 16.6511 -0.00139203 18.1881 2.49804e-06 19.7722V29.1218C0.000274991 29.5017 0.163094 29.866 0.45274 30.1347C0.742387 30.4035 1.13521 30.5547 1.54502 30.5553H6.85701C7.0158 32.292 7.87221 33.9101 9.25671 35.0893C10.6412 36.2685 12.4529 36.9229 14.3331 36.9229C16.2132 36.9229 18.0249 36.2685 19.4094 35.0893C20.7939 33.9101 21.6503 32.292 21.8091 30.5553H49.6473C49.7889 32.3422 50.6691 34.0095 52.1043 35.2096C53.5395 36.4097 55.419 37.0499 57.351 36.997C59.283 36.944 61.1184 36.2018 62.4745 34.9251C63.8307 33.6485 64.603 31.9359 64.6303 30.1444H71.7295C72.1391 30.144 72.5319 29.993 72.8215 29.7245C73.1112 29.456 73.2741 29.0919 73.2745 28.7122V13.3663C73.274 12.0001 72.7177 10.6844 71.7165 9.68187H71.7164ZM55.1833 2.1386L60.3009 2.30817C60.8389 2.32451 61.3681 2.44002 61.8575 2.64797C62.3468 2.85591 62.7866 3.15213 63.1512 3.51933L70.4203 10.7955C70.4544 10.8297 70.4842 10.8667 70.5169 10.9019H55.1833V2.1386ZM39.9909 1.63918C40.024 1.63918 40.0571 1.63836 40.0903 1.63836L53.4159 2.08003V10.9019H39.9909V1.63918ZM4.71828 15.1248H5.79346V16.2784C5.79303 16.6503 5.63343 17.0068 5.34969 17.2697C5.06596 17.5326 4.68128 17.6804 4.28011 17.6806H2.22916C2.72743 16.5947 3.60376 15.6949 4.71828 15.1248ZM1.76742 21.8256H5.29638V25.6089H1.76742V21.8256ZM14.3323 35.2847C12.8112 35.2829 11.3529 34.7219 10.2775 33.7247C9.20198 32.7275 8.59712 31.3756 8.59556 29.9655C8.59556 29.9006 8.59689 29.8354 8.59939 29.7708C8.65389 28.3955 9.28144 27.0932 10.3501 26.1378C11.4188 25.1823 12.8455 24.6481 14.3302 24.6474C15.815 24.6467 17.2422 25.1796 18.3119 26.134C19.3817 27.0884 20.0107 28.39 20.0667 29.7654C20.0692 29.8321 20.0704 29.8988 20.0705 29.9655C20.069 31.3758 19.4639 32.728 18.3881 33.7252C17.3123 34.7224 15.8537 35.2833 14.3323 35.2847ZM57.129 35.3612C55.6078 35.3594 54.1496 34.7983 53.0741 33.8012C51.9986 32.804 51.3938 31.4521 51.3922 30.042C51.3922 29.9543 51.3947 29.8668 51.4 29.776C51.472 28.4439 52.0813 27.1855 53.1072 26.2503C54.1331 25.3151 55.5007 24.7714 56.9388 24.7271C58.3769 24.6827 59.7804 25.1409 60.8711 26.0108C61.9618 26.8807 62.6601 28.0988 62.8274 29.4235V29.4245C62.9205 30.1698 62.8425 30.9249 62.5987 31.6404C62.3549 32.3559 61.9507 33.0155 61.4127 33.576C60.8747 34.1366 60.2149 34.5854 59.4767 34.893C58.7384 35.2007 57.9384 35.3602 57.129 35.3612ZM71.5069 28.506H67.2725V25.2935C67.2731 24.9523 67.4196 24.6253 67.68 24.3842C67.9404 24.1431 68.2933 24.0076 68.6614 24.0074H71.5069V28.506ZM71.5069 17.6806H69.9325C69.5314 17.6802 69.1469 17.5323 68.8633 17.2695C68.5798 17.0066 68.4203 16.6502 68.4198 16.2784V15.1248H71.5069V17.6806ZM71.5069 13.4864H67.5361C67.3018 13.4864 67.077 13.5727 66.9113 13.7263C66.7455 13.88 66.6524 14.0883 66.6524 14.3056V16.2784C66.6536 17.0845 66.9995 17.8572 67.6144 18.4272C68.2293 18.9972 69.0629 19.3179 69.9325 19.319H71.5069V22.369H68.6614C67.8248 22.3697 67.0226 22.6781 66.4309 23.2263C65.8392 23.7745 65.5062 24.518 65.5051 25.2935V28.506H64.4482C64.0637 26.932 63.1009 25.5308 61.7244 24.5425C60.348 23.5543 58.6437 23.0404 56.9035 23.089C55.1632 23.1376 53.4954 23.7455 52.1856 24.8088C50.8758 25.872 50.0056 27.3243 49.7241 28.917H39.9909V25.258C39.9909 25.0407 39.8978 24.8324 39.732 24.6787C39.5663 24.5251 39.3415 24.4388 39.1072 24.4388C38.8728 24.4388 38.648 24.5251 38.4823 24.6787C38.3166 24.8324 38.2234 25.0407 38.2234 25.258V28.917H21.7521C21.4816 27.2727 20.5844 25.7727 19.2234 24.6888C17.8623 23.605 16.1273 23.009 14.333 23.009C12.5386 23.009 10.8037 23.605 9.4426 24.6888C8.08152 25.7727 7.1844 27.2727 6.91386 28.917H1.76742V27.2472H5.59095C5.98144 27.2468 6.35581 27.1029 6.63194 26.8469C6.90806 26.591 7.06337 26.2439 7.0638 25.8819V21.5526C7.06337 21.1906 6.90806 20.8436 6.63194 20.5876C6.35581 20.3316 5.98144 20.1877 5.59095 20.1873H1.76742V19.7722C1.76742 19.6205 1.77611 19.4694 1.78981 19.319H4.28011C5.14967 19.3179 5.98328 18.9972 6.59816 18.4272C7.21303 17.8572 7.55898 17.0845 7.56015 16.2784V14.3056C7.5601 14.2761 7.55833 14.2467 7.55485 14.2174L13.4346 12.5403H20.7304C20.9648 12.5403 21.1895 12.4539 21.3553 12.3003C21.521 12.1467 21.6141 11.9383 21.6141 11.7211C21.6141 11.5038 21.521 11.2955 21.3553 11.1418C21.1895 10.9882 20.9648 10.9019 20.7304 10.9019H15.9675C18.0818 9.22641 22.3399 6.19695 27.8378 4.06654C29.3728 3.46872 30.9505 2.97001 32.5597 2.57399C34.4138 2.11841 36.3101 1.82585 38.2234 1.7002V10.9023H24.1179C23.8836 10.9023 23.6588 10.9886 23.4931 11.1422C23.3273 11.2959 23.2342 11.5042 23.2342 11.7215C23.2342 11.9387 23.3273 12.1471 23.4931 12.3007C23.6588 12.4544 23.8836 12.5407 24.1179 12.5407H38.2234V22.2543C38.2234 22.4716 38.3166 22.68 38.4823 22.8336C38.648 22.9872 38.8728 23.0735 39.1072 23.0735C39.3415 23.0735 39.5663 22.9872 39.732 22.8336C39.8978 22.68 39.9909 22.4716 39.9909 22.2543V12.5403H71.408C71.4737 12.8114 71.5069 13.0884 71.5069 13.3663V13.4864Z" fill="white"/>
<path d="M29.6117 16.068H33.7018C33.9362 16.068 34.161 15.9817 34.3267 15.8281C34.4925 15.6745 34.5856 15.4661 34.5856 15.2489C34.5856 15.0316 34.4925 14.8232 34.3267 14.6696C34.161 14.516 33.9362 14.4297 33.7018 14.4297H29.6117C29.3774 14.4297 29.1526 14.516 28.9869 14.6696C28.8211 14.8232 28.728 15.0316 28.728 15.2489C28.728 15.4661 28.8211 15.6745 28.9869 15.8281C29.1526 15.9817 29.3774 16.068 29.6117 16.068Z" fill="white"/>
<path d="M47.827 15.2489C47.827 15.0316 47.7339 14.8232 47.5682 14.6696C47.4025 14.516 47.1777 14.4297 46.9433 14.4297H42.8532C42.6188 14.4297 42.394 14.516 42.2283 14.6696C42.0626 14.8232 41.9695 15.0316 41.9695 15.2489C41.9695 15.4661 42.0626 15.6745 42.2283 15.8281C42.394 15.9817 42.6188 16.068 42.8532 16.068H46.9433C47.0594 16.068 47.1743 16.0469 47.2815 16.0057C47.3887 15.9645 47.4861 15.9042 47.5682 15.8281C47.6502 15.752 47.7153 15.6617 47.7597 15.5624C47.8042 15.463 47.827 15.3564 47.827 15.2489Z" fill="white"/>
<path d="M62.7173 19.5005H60.1029C59.8686 19.5005 59.6438 19.5868 59.4781 19.7404C59.3123 19.894 59.2192 20.1024 59.2192 20.3197C59.2192 20.5369 59.3123 20.7453 59.4781 20.8989C59.6438 21.0525 59.8686 21.1388 60.1029 21.1388H62.7173C62.9516 21.1388 63.1764 21.0525 63.3421 20.8989C63.5079 20.7453 63.601 20.5369 63.601 20.3197C63.601 20.1024 63.5079 19.894 63.3421 19.7404C63.1764 19.5868 62.9516 19.5005 62.7173 19.5005Z" fill="white"/>
<path d="M55.44 19.5005H44.6381C44.4037 19.5005 44.179 19.5868 44.0132 19.7404C43.8475 19.894 43.7544 20.1024 43.7544 20.3197C43.7544 20.5369 43.8475 20.7453 44.0132 20.8989C44.179 21.0525 44.4037 21.1388 44.6381 21.1388H55.44C55.6744 21.1388 55.8991 21.0525 56.0649 20.8989C56.2306 20.7453 56.3237 20.5369 56.3237 20.3197C56.3237 20.1024 56.2306 19.894 56.0649 19.7404C55.8991 19.5868 55.6744 19.5005 55.44 19.5005Z" fill="white"/>
<path d="M34.8703 19.5005H21.5661C21.3317 19.5005 21.1069 19.5868 20.9412 19.7404C20.7755 19.894 20.6824 20.1024 20.6824 20.3197C20.6824 20.5369 20.7755 20.7453 20.9412 20.8989C21.1069 21.0525 21.3317 21.1388 21.5661 21.1388H34.8703C35.1047 21.1388 35.3295 21.0525 35.4952 20.8989C35.661 20.7453 35.7541 20.5369 35.7541 20.3197C35.7541 20.1024 35.661 19.894 35.4952 19.7404C35.3295 19.5868 35.1047 19.5005 34.8703 19.5005Z" fill="white"/>
<path d="M18.914 19.5005H17.7843C17.55 19.5005 17.3252 19.5868 17.1595 19.7404C16.9937 19.894 16.9006 20.1024 16.9006 20.3197C16.9006 20.5369 16.9937 20.7453 17.1595 20.8989C17.3252 21.0525 17.55 21.1388 17.7843 21.1388H18.914C19.1484 21.1388 19.3732 21.0525 19.5389 20.8989C19.7046 20.7453 19.7977 20.5369 19.7977 20.3197C19.7977 20.1024 19.7046 19.894 19.5389 19.7404C19.3732 19.5868 19.1484 19.5005 18.914 19.5005Z" fill="white"/>
</svg>
