<svg width="79" height="36" viewBox="0 0 79 36" fill="none" xmlns="http://www.w3.org/2000/svg">
<path d="M63.434 5.09668H34.4038C33.6267 5.09668 32.8478 5.13214 32.085 5.19374C31.5904 5.13463 31.0908 5.09668 30.5812 5.09668C28.0609 5.09668 25.7165 5.84079 23.7374 7.10876C14.3583 10.7845 7.40374 19.1956 5.58266 29.0743L5.30518 30.5806H63.434C65.3988 30.5806 67.3163 30.0299 68.9819 28.9891C72.0641 27.0622 73.9038 23.743 73.9038 20.1108V15.5665C73.9038 9.79465 69.2071 5.09668 63.434 5.09668ZM63.7103 17.8386C63.7103 23.4593 59.1374 28.0322 53.5167 28.0322C47.8961 28.0322 43.3232 23.4593 43.3232 17.8386C43.3232 12.218 47.8961 7.64507 53.5167 7.64507C59.1374 7.64507 63.7103 12.218 63.7103 17.8386ZM45.9045 7.64507C44.2726 8.86824 42.9449 10.4685 42.049 12.3213C41.1531 10.4685 39.8266 8.86824 38.1934 7.64507H45.9045ZM40.7748 17.8386C40.7748 23.4593 36.2019 28.0322 30.5812 28.0322C24.9606 28.0322 20.3877 23.4593 20.3877 17.8386C20.3877 12.218 24.9606 7.64507 30.5812 7.64507C36.2019 7.64507 40.7748 12.218 40.7748 17.8386ZM8.41289 28.0322C9.9571 21.7583 13.7822 16.2409 19.0102 12.5365C18.2661 14.1535 17.8393 15.9454 17.8393 17.8386C17.8393 22.009 19.8626 25.7065 22.9691 28.0322H8.41289ZM38.1934 28.0322C39.8254 26.809 41.1531 25.2088 42.049 23.356C42.9449 25.2088 44.2714 26.8102 45.9045 28.0322H38.1934ZM71.3554 20.1108C71.3554 22.8589 69.963 25.3705 67.6324 26.8283C66.3707 27.6166 64.921 28.0322 63.434 28.0322H61.1289C64.2354 25.7065 66.2587 22.009 66.2587 17.8386C66.2587 13.6682 64.2354 9.97072 61.1289 7.64507H63.434C67.8016 7.64507 71.3554 11.1989 71.3554 15.5665V20.1108Z" fill="white"/>
<path d="M63.4334 0H34.4032C15.4328 0 0 15.4328 0 34.4032V35.6774H63.4334C66.3539 35.6774 69.2065 34.858 71.6833 33.3113C76.2656 30.4481 79 25.5131 79 20.1109V15.5666C79 6.98256 72.0174 0 63.4334 0ZM76.4516 20.1109C76.4516 24.629 74.1645 28.7546 70.3333 31.1499C68.2608 32.4446 65.8761 33.129 63.4334 33.129H2.5739C3.24397 16.1526 17.2651 2.54839 34.4032 2.54839H63.4334C70.612 2.54839 76.4516 8.38803 76.4516 15.5666V20.1109Z" fill="white"/>
<path d="M30.5811 15.2901C31.9866 15.2901 33.1295 16.433 33.1295 17.8385C33.1295 19.2439 31.9866 20.3869 30.5811 20.3869V22.9352C33.3921 22.9352 35.6779 20.6494 35.6779 17.8385C35.6779 15.0275 33.3921 12.7417 30.5811 12.7417C27.7702 12.7417 25.4844 15.0275 25.4844 17.8385H28.0328C28.0328 16.433 29.1757 15.2901 30.5811 15.2901Z" fill="white"/>
<path d="M53.5167 15.2901C54.9222 15.2901 56.0651 16.433 56.0651 17.8385C56.0651 19.2439 54.9222 20.3869 53.5167 20.3869V22.9352C56.3276 22.9352 58.6135 20.6494 58.6135 17.8385C58.6135 15.0275 56.3276 12.7417 53.5167 12.7417C50.7058 12.7417 48.4199 15.0275 48.4199 17.8385H50.9683C50.9683 16.433 52.1112 15.2901 53.5167 15.2901Z" fill="white"/>
</svg>
