<svg width="60" height="68" viewBox="0 0 60 68" fill="none" xmlns="http://www.w3.org/2000/svg">
<path d="M41.1662 63.1854H4.78677C3.51771 63.1838 2.30106 62.679 1.40369 61.7817C0.506327 60.8843 0.00152014 59.6677 0 58.3986V4.78677C0.00152014 3.51771 0.506327 2.30106 1.40369 1.40369C2.30106 0.506327 3.51771 0.00152014 4.78677 0H41.1662C42.4353 0.00152014 43.6519 0.506327 44.5493 1.40369C45.4467 2.30106 45.9515 3.51771 45.953 4.78677V58.3986C45.9515 59.6677 45.4467 60.8843 44.5493 61.7817C43.6519 62.679 42.4353 63.1838 41.1662 63.1854ZM4.78677 1.91471C4.02505 1.91471 3.29453 2.2173 2.75592 2.75592C2.2173 3.29453 1.91471 4.02505 1.91471 4.78677V58.3986C1.91471 59.1603 2.2173 59.8908 2.75592 60.4295C3.29453 60.9681 4.02505 61.2707 4.78677 61.2707H41.1662C41.9279 61.2707 42.6585 60.9681 43.1971 60.4295C43.7357 59.8908 44.0383 59.1603 44.0383 58.3986V4.78677C44.0383 4.02505 43.7357 3.29453 43.1971 2.75592C42.6585 2.2173 41.9279 1.91471 41.1662 1.91471H4.78677Z" fill="white"/>
<path d="M39.2523 67.0146H33.5081C33.2542 67.0146 33.0107 66.9138 32.8312 66.7342C32.6516 66.5547 32.5508 66.3112 32.5508 66.0573V62.2279C32.5508 61.974 32.6516 61.7304 32.8312 61.5509C33.0107 61.3714 33.2542 61.2705 33.5081 61.2705H39.2523C39.5062 61.2705 39.7497 61.3714 39.9292 61.5509C40.1088 61.7304 40.2096 61.974 40.2096 62.2279V66.0573C40.2096 66.3112 40.1088 66.5547 39.9292 66.7342C39.7497 66.9138 39.5062 67.0146 39.2523 67.0146ZM34.4655 65.0999H38.2949V63.1852H34.4655V65.0999Z" fill="white"/>
<path d="M22.9763 57.4413C20.1361 57.4413 17.3597 56.5991 14.9981 55.0212C12.6366 53.4433 10.796 51.2005 9.70909 48.5765C8.62219 45.9525 8.33781 43.0651 8.8919 40.2795C9.446 37.4938 10.8137 34.9351 12.822 32.9267C14.8303 30.9184 17.3891 29.5507 20.1747 28.9966C22.9604 28.4425 25.8477 28.7269 28.4717 29.8138C31.0957 30.9007 33.3385 32.7413 34.9164 35.1029C36.4944 37.4644 37.3366 40.2408 37.3366 43.081C37.3323 46.8883 35.8179 50.5384 33.1258 53.2305C30.4337 55.9227 26.7836 57.437 22.9763 57.4413ZM22.9763 30.6354C20.5148 30.6354 18.1085 31.3653 16.0619 32.7329C14.0152 34.1004 12.42 36.0442 11.478 38.3183C10.5361 40.5924 10.2896 43.0948 10.7698 45.509C11.25 47.9233 12.4354 50.1408 14.1759 51.8814C15.9165 53.6219 18.1341 54.8073 20.5483 55.2875C22.9625 55.7677 25.4649 55.5212 27.739 54.5793C30.0131 53.6373 31.9569 52.0421 33.3244 49.9954C34.692 47.9488 35.4219 45.5425 35.4219 43.081C35.4183 39.7813 34.106 36.6178 31.7727 34.2846C29.4395 31.9513 26.276 30.639 22.9763 30.6354Z" fill="white"/>
<path d="M22.9767 50.7395C21.4619 50.7395 19.9812 50.2904 18.7217 49.4488C17.4622 48.6072 16.4805 47.4111 15.9009 46.0116C15.3212 44.6121 15.1695 43.0722 15.465 41.5865C15.7606 40.1009 16.49 38.7362 17.5611 37.6651C18.6322 36.594 19.9969 35.8646 21.4825 35.569C22.9682 35.2735 24.5081 35.4252 25.9076 36.0049C27.3071 36.5846 28.5032 37.5662 29.3448 38.8257C30.1864 40.0852 30.6355 41.5659 30.6355 43.0807C30.6333 45.1113 29.8256 47.058 28.3898 48.4938C26.954 49.9296 25.0073 50.7373 22.9767 50.7395ZM22.9767 37.3366C21.8406 37.3366 20.7301 37.6735 19.7854 38.3046C18.8408 38.9358 18.1046 39.8329 17.6698 40.8825C17.2351 41.9321 17.1213 43.0871 17.343 44.2013C17.5646 45.3156 18.1117 46.3391 18.915 47.1424C19.7183 47.9458 20.7418 48.4928 21.8561 48.7145C22.9703 48.9361 24.1253 48.8223 25.1749 48.3876C26.2245 47.9528 27.1216 47.2166 27.7528 46.272C28.3839 45.3274 28.7208 44.2168 28.7208 43.0807C28.7191 41.5578 28.1133 40.0978 27.0365 39.021C25.9596 37.9441 24.4996 37.3384 22.9767 37.3366Z" fill="white"/>
<path d="M22.9765 25.8486C20.9884 25.8486 19.0449 25.259 17.3918 24.1545C15.7387 23.0499 14.4503 21.48 13.6895 19.6432C12.9287 17.8064 12.7296 15.7852 13.1175 13.8353C13.5053 11.8853 14.4627 10.0942 15.8685 8.68837C17.2744 7.28254 19.0655 6.32516 21.0154 5.9373C22.9654 5.54943 24.9866 5.7485 26.8234 6.50932C28.6602 7.27015 30.2301 8.55857 31.3347 10.2116C32.4392 11.8647 33.0288 13.8082 33.0288 15.7964C33.0257 18.4614 31.9657 21.0165 30.0812 22.901C28.1967 24.7855 25.6416 25.8455 22.9765 25.8486ZM22.9765 7.65885C21.3671 7.65885 19.7938 8.13611 18.4556 9.03027C17.1174 9.92443 16.0744 11.1953 15.4585 12.6823C14.8426 14.1692 14.6814 15.8054 14.9954 17.3839C15.3094 18.9624 16.0844 20.4124 17.2224 21.5505C18.3605 22.6885 19.8105 23.4635 21.389 23.7775C22.9675 24.0915 24.6037 23.9303 26.0906 23.3144C27.5776 22.6985 28.8485 21.6555 29.7426 20.3173C30.6368 18.9791 31.114 17.4058 31.114 15.7964C31.1115 13.6389 30.2534 11.5706 28.7278 10.0451C27.2023 8.51954 25.134 7.66139 22.9765 7.65885Z" fill="white"/>
<path d="M22.9766 21.0617C21.9352 21.0617 20.9172 20.7528 20.0513 20.1743C19.1854 19.5957 18.5105 18.7733 18.112 17.8112C17.7135 16.8491 17.6092 15.7904 17.8124 14.769C18.0155 13.7476 18.517 12.8094 19.2534 12.073C19.9898 11.3366 20.928 10.8351 21.9494 10.6319C22.9708 10.4288 24.0295 10.533 24.9916 10.9316C25.9538 11.3301 26.7761 12.005 27.3547 12.8709C27.9333 13.7368 28.2421 14.7548 28.2421 15.7962C28.2406 17.1922 27.6853 18.5306 26.6982 19.5178C25.7111 20.5049 24.3726 21.0601 22.9766 21.0617ZM22.9766 12.4455C22.3139 12.4455 21.6661 12.642 21.1151 13.0102C20.564 13.3784 20.1346 13.9017 19.881 14.5139C19.6273 15.1262 19.561 15.7999 19.6903 16.4499C19.8196 17.0999 20.1387 17.6969 20.6073 18.1655C21.0759 18.6342 21.673 18.9533 22.3229 19.0826C22.9729 19.2119 23.6466 19.1455 24.2589 18.8919C24.8712 18.6383 25.3945 18.2088 25.7627 17.6578C26.1309 17.1068 26.3274 16.4589 26.3274 15.7962C26.3274 15.3562 26.2407 14.9205 26.0723 14.5139C25.9039 14.1074 25.6571 13.738 25.346 13.4269C25.0348 13.1157 24.6654 12.8689 24.2589 12.7005C23.8524 12.5321 23.4167 12.4455 22.9766 12.4455Z" fill="white"/>
<path d="M54.952 58.2188C54.7627 58.2187 54.5776 58.1625 54.4202 58.0573C54.2629 57.9521 54.1402 57.8026 54.0677 57.6277C53.9953 57.4528 53.9763 57.2604 54.0133 57.0747C54.0502 56.889 54.1413 56.7184 54.2752 56.5845C56.7193 54.1343 58.0919 50.8146 58.0919 47.3537C58.0919 43.8928 56.7193 40.5732 54.2752 38.1229C54.1149 37.9406 54.03 37.7041 54.0375 37.4615C54.045 37.2189 54.1443 36.9882 54.3155 36.816C54.4867 36.6439 54.7168 36.5432 54.9594 36.5343C55.202 36.5255 55.4389 36.6091 55.6222 36.7683C58.4255 39.5775 59.9999 43.3841 59.9999 47.3528C59.9999 51.3215 58.4255 55.1281 55.6222 57.9373C55.4445 58.1156 55.2037 58.2167 54.952 58.2188Z" fill="white"/>
<path d="M49.9943 53.2642C49.8049 53.2642 49.6199 53.208 49.4625 53.1028C49.3051 52.9976 49.1824 52.8481 49.11 52.6732C49.0375 52.4983 49.0186 52.3058 49.0555 52.1201C49.0924 51.9345 49.1836 51.7639 49.3174 51.63C50.4501 50.4948 51.0862 48.9567 51.0862 47.353C51.0862 45.7494 50.4501 44.2112 49.3174 43.0761C49.143 42.8955 49.0465 42.6537 49.0487 42.4026C49.0509 42.1516 49.1516 41.9115 49.3291 41.734C49.5066 41.5565 49.7467 41.4558 49.9977 41.4536C50.2487 41.4515 50.4906 41.548 50.6711 41.7224C52.1623 43.2169 52.9997 45.2418 52.9997 47.353C52.9997 49.4642 52.1623 51.4892 50.6711 52.9837C50.4916 53.1633 50.2481 53.2642 49.9943 53.2642Z" fill="white"/>
</svg>
