<svg width="71" height="38" viewBox="0 0 71 38" fill="none" xmlns="http://www.w3.org/2000/svg">
<mask id="path-1-inside-1" fill="white">
<path d="M1.16694 30.4127H4.76033C5.40077 34.8721 9.53491 37.9679 13.9938 37.3275C17.5777 36.8124 20.3934 33.9966 20.9081 30.4127H49.0969C49.7302 34.873 53.8592 37.9751 58.3194 37.3417C62.1578 36.7967 65.0823 33.6249 65.3144 29.7547L69.6655 25.4041C69.8834 25.1848 70.0055 24.8881 70.005 24.579V14.0784C70.005 13.8135 69.9148 13.5562 69.7496 13.3492L65.549 8.09894L67.5548 4.09916C67.8425 3.52234 67.6084 2.82208 67.0316 2.53438C66.9068 2.47171 66.7719 2.43231 66.6333 2.41806L60.2683 1.74677L48.8681 0.544219C41.387 -0.285172 33.8151 0.668604 26.7736 3.32769C22.7183 4.99739 18.9416 7.27477 15.5728 10.0825L13.3419 11.9421L11.7501 12.8099L4.39288 15.6684C4.34588 15.6864 4.3003 15.7073 4.25615 15.7315C1.63267 17.1629 0 19.9127 0 22.9012V29.2463C0 29.8905 0.522227 30.4127 1.16694 30.4127ZM12.8344 35.08C9.6123 35.08 7.00069 32.4679 7.00069 29.2463C7.00069 26.0241 9.6123 23.4125 12.8344 23.4125C16.0561 23.4125 18.6682 26.0241 18.6682 29.2463C18.6644 32.4665 16.0547 35.0762 12.8344 35.08ZM57.171 35.08C53.9489 35.08 51.3368 32.4679 51.3368 29.2463C51.3368 26.0241 53.9489 23.4125 57.171 23.4125C60.3927 23.4125 63.0048 26.0241 63.0048 29.2463C63.0005 32.4665 60.3913 35.0762 57.171 35.08ZM67.6716 18.7452H63.9158L63.3323 16.4118H67.6716V18.7452ZM60.7573 4.14474L64.7077 4.56109L63.1268 7.72294C62.9236 8.13028 62.9753 8.61832 63.2602 8.97391L67.3435 14.0784H61.8378C61.1931 14.0784 60.6714 14.6011 60.6714 15.2454C60.6714 15.3403 60.6828 15.4353 60.706 15.5274L61.8725 20.1942C62.0021 20.714 62.4688 21.0787 63.0043 21.0787H67.6711V24.0957L64.9645 26.8018C64.9645 26.7899 64.9541 26.7785 64.9508 26.7667C64.8354 26.4139 64.6963 26.0697 64.5339 25.7364C64.4988 25.6643 64.4665 25.5907 64.429 25.5181C64.261 25.1929 64.0715 24.879 63.8622 24.579C63.8199 24.5182 63.7734 24.4622 63.7302 24.4029C63.5275 24.127 63.3072 23.865 63.0708 23.6176C63.0394 23.5839 63.01 23.5464 62.9763 23.5137C62.7156 23.2525 62.4379 23.009 62.1445 22.7844C62.0766 22.7332 62.0102 22.6828 61.9427 22.6339C61.6427 22.4151 61.3284 22.2166 61.0023 22.04C60.9591 22.0168 60.9125 21.9982 60.8679 21.9759C60.5574 21.8183 60.237 21.6806 59.9089 21.5643C59.8434 21.5406 59.7807 21.514 59.7152 21.4917C59.3544 21.3749 58.986 21.2828 58.6124 21.2163C58.5331 21.2026 58.4528 21.1921 58.3793 21.1802C57.9795 21.1162 57.5755 21.082 57.1705 21.0787C56.9009 21.0787 56.6336 21.0938 56.3711 21.1195C56.2837 21.1276 56.1983 21.1442 56.1123 21.156C55.9371 21.1779 55.762 21.2011 55.5929 21.2353C55.4913 21.2553 55.3935 21.2818 55.2929 21.3051C55.1415 21.3417 54.9895 21.3777 54.8405 21.4219C54.7365 21.4523 54.6363 21.4884 54.5347 21.5235C54.3932 21.5724 54.2522 21.6213 54.1146 21.6773C54.0144 21.7181 53.9152 21.7628 53.8159 21.8079C53.683 21.8677 53.5525 21.9247 53.4229 21.9973C53.326 22.0486 53.2301 22.0998 53.1356 22.1544C53.0098 22.2257 52.8873 22.3016 52.7658 22.3799C52.6737 22.4383 52.584 22.4967 52.4952 22.5594C52.3784 22.6434 52.2621 22.7308 52.1453 22.821C52.0613 22.886 51.9772 22.9501 51.8965 23.019C51.7797 23.1158 51.6739 23.2188 51.5652 23.3214C51.4906 23.3902 51.4161 23.4576 51.3449 23.5303C51.2281 23.6466 51.1279 23.7634 51.0216 23.8802C50.9622 23.949 50.9048 24.0145 50.8431 24.0843C50.7191 24.2362 50.6038 24.3934 50.4932 24.551C50.4614 24.598 50.4253 24.6398 50.3939 24.6863C50.2539 24.8942 50.1233 25.1083 50.0027 25.3296C49.9681 25.3922 49.9401 25.4587 49.9073 25.5233C49.8242 25.6842 49.7426 25.8461 49.6737 26.0132C49.6367 26.102 49.6049 26.1927 49.5688 26.2838C49.5119 26.431 49.452 26.5777 49.4055 26.7296C49.3727 26.8298 49.3462 26.9338 49.3182 27.0363C49.2773 27.1825 49.2374 27.3269 49.2014 27.475C49.1767 27.5846 49.1582 27.6943 49.1382 27.8064C49.1221 27.8951 49.0998 27.9815 49.0869 28.0713H36.497L37.0805 25.7379H45.5035V23.4125H37.6639L40.1046 13.6478L54.8955 12.9115C55.2839 12.892 55.6371 12.6803 55.8374 12.347L60.7573 4.14474ZM42.8596 2.6279C43.1326 2.6279 43.4042 2.61034 43.6762 2.61034C45.3288 2.60891 46.98 2.69389 48.6231 2.86576L58.1989 3.8765L54.1573 10.6109L40.6962 11.2784L42.8596 2.6279ZM17.0659 11.8756C20.2524 9.21983 23.8254 7.06493 27.6614 5.48638C31.7443 3.89644 36.0541 2.96545 40.4294 2.72808L38.2612 11.4032L16.3262 12.4975L17.0659 11.8756ZM2.3334 22.9012C2.33103 20.791 3.46996 18.844 5.31105 17.8119L12.4845 15.0246L37.6639 13.7694L35.2579 23.4125H22.1681V25.7459H34.6744L34.091 28.0793H20.9185C20.9057 27.9896 20.8839 27.9032 20.8672 27.8149C20.8478 27.6981 20.8288 27.5932 20.8046 27.4835C20.7718 27.3354 20.7319 27.1906 20.6878 27.0449C20.6598 26.9418 20.6332 26.8383 20.6004 26.7377C20.5515 26.5862 20.4941 26.4391 20.4371 26.2919C20.4006 26.2012 20.3692 26.1101 20.3317 26.0213C20.2596 25.8547 20.1779 25.6923 20.0986 25.5313C20.0659 25.4673 20.0378 25.4008 20.0027 25.3376C19.8831 25.1178 19.753 24.9033 19.612 24.6948C19.5807 24.6483 19.5441 24.6061 19.5128 24.5595C19.396 24.3995 19.2797 24.2419 19.1629 24.0929C19.1054 24.0226 19.0461 23.9575 18.9844 23.8887C18.878 23.7719 18.7731 23.6471 18.6611 23.5383C18.5899 23.4662 18.5153 23.3983 18.4408 23.3299C18.3321 23.2269 18.2238 23.1244 18.1094 23.0275C18.0287 22.9587 17.9447 22.8946 17.8606 22.8291C17.7438 22.7393 17.6271 22.652 17.5107 22.5679C17.422 22.5058 17.3322 22.4512 17.2401 22.388C17.1233 22.3102 16.9961 22.2342 16.8698 22.163C16.7754 22.1084 16.6799 22.0566 16.5831 22.0054C16.4535 21.9389 16.3229 21.8758 16.19 21.8164C16.0908 21.7708 15.9915 21.7267 15.8914 21.6859C15.7537 21.6298 15.6122 21.5809 15.4712 21.5316C15.3696 21.4969 15.2694 21.4604 15.1655 21.4304C15.0159 21.3858 14.8645 21.3497 14.7126 21.3137C14.6124 21.2904 14.5146 21.2633 14.413 21.2434C14.2425 21.2097 14.0688 21.1864 13.8936 21.1641C13.8072 21.1527 13.7222 21.1361 13.6349 21.128C13.3709 21.0943 13.1036 21.0791 12.8344 21.0791C12.5648 21.0791 12.2975 21.0943 12.035 21.12C11.9476 21.128 11.8621 21.1446 11.7762 21.156C11.601 21.1784 11.4258 21.2016 11.2568 21.2353C11.1552 21.2553 11.0574 21.2823 10.9568 21.3056C10.8053 21.3417 10.6534 21.3777 10.5044 21.4224C10.4004 21.4528 10.2997 21.4888 10.1986 21.5235C10.0571 21.5729 9.91614 21.6218 9.77846 21.6778C9.67781 21.7186 9.57906 21.7628 9.47984 21.8083C9.34691 21.8677 9.21635 21.9251 9.08675 21.9973C8.9899 22.0486 8.894 22.0998 8.79952 22.1549C8.67371 22.2261 8.55123 22.3021 8.42969 22.3799C8.33759 22.4383 8.24786 22.4967 8.15908 22.5599C8.04229 22.6439 7.9255 22.7313 7.80919 22.821C7.72516 22.8865 7.64113 22.9506 7.56042 23.0194C7.44363 23.1163 7.33776 23.2188 7.22904 23.3214C7.19534 23.3518 7.1602 23.3812 7.12887 23.4125H2.3334V22.9012ZM2.3334 25.7459H5.46392C5.41977 25.838 5.37419 25.9278 5.33336 26.0213C5.29253 26.1143 5.26452 26.2007 5.22844 26.2919C5.171 26.4391 5.11165 26.5858 5.06513 26.7377C5.03237 26.8379 5.00531 26.9418 4.9773 27.0444C4.93647 27.1901 4.89706 27.3349 4.86051 27.4831C4.8363 27.5927 4.81778 27.7024 4.79784 27.8144C4.78122 27.9032 4.75939 27.9896 4.74657 28.0793H2.3334V25.7459Z"/>
</mask>
<path d="M1.16694 30.4127H4.76033C5.40077 34.8721 9.53491 37.9679 13.9938 37.3275C17.5777 36.8124 20.3934 33.9966 20.9081 30.4127H49.0969C49.7302 34.873 53.8592 37.9751 58.3194 37.3417C62.1578 36.7967 65.0823 33.6249 65.3144 29.7547L69.6655 25.4041C69.8834 25.1848 70.0055 24.8881 70.005 24.579V14.0784C70.005 13.8135 69.9148 13.5562 69.7496 13.3492L65.549 8.09894L67.5548 4.09916C67.8425 3.52234 67.6084 2.82208 67.0316 2.53438C66.9068 2.47171 66.7719 2.43231 66.6333 2.41806L60.2683 1.74677L48.8681 0.544219C41.387 -0.285172 33.8151 0.668604 26.7736 3.32769C22.7183 4.99739 18.9416 7.27477 15.5728 10.0825L13.3419 11.9421L11.7501 12.8099L4.39288 15.6684C4.34588 15.6864 4.3003 15.7073 4.25615 15.7315C1.63267 17.1629 0 19.9127 0 22.9012V29.2463C0 29.8905 0.522227 30.4127 1.16694 30.4127ZM12.8344 35.08C9.6123 35.08 7.00069 32.4679 7.00069 29.2463C7.00069 26.0241 9.6123 23.4125 12.8344 23.4125C16.0561 23.4125 18.6682 26.0241 18.6682 29.2463C18.6644 32.4665 16.0547 35.0762 12.8344 35.08ZM57.171 35.08C53.9489 35.08 51.3368 32.4679 51.3368 29.2463C51.3368 26.0241 53.9489 23.4125 57.171 23.4125C60.3927 23.4125 63.0048 26.0241 63.0048 29.2463C63.0005 32.4665 60.3913 35.0762 57.171 35.08ZM67.6716 18.7452H63.9158L63.3323 16.4118H67.6716V18.7452ZM60.7573 4.14474L64.7077 4.56109L63.1268 7.72294C62.9236 8.13028 62.9753 8.61832 63.2602 8.97391L67.3435 14.0784H61.8378C61.1931 14.0784 60.6714 14.6011 60.6714 15.2454C60.6714 15.3403 60.6828 15.4353 60.706 15.5274L61.8725 20.1942C62.0021 20.714 62.4688 21.0787 63.0043 21.0787H67.6711V24.0957L64.9645 26.8018C64.9645 26.7899 64.9541 26.7785 64.9508 26.7667C64.8354 26.4139 64.6963 26.0697 64.5339 25.7364C64.4988 25.6643 64.4665 25.5907 64.429 25.5181C64.261 25.1929 64.0715 24.879 63.8622 24.579C63.8199 24.5182 63.7734 24.4622 63.7302 24.4029C63.5275 24.127 63.3072 23.865 63.0708 23.6176C63.0394 23.5839 63.01 23.5464 62.9763 23.5137C62.7156 23.2525 62.4379 23.009 62.1445 22.7844C62.0766 22.7332 62.0102 22.6828 61.9427 22.6339C61.6427 22.4151 61.3284 22.2166 61.0023 22.04C60.9591 22.0168 60.9125 21.9982 60.8679 21.9759C60.5574 21.8183 60.237 21.6806 59.9089 21.5643C59.8434 21.5406 59.7807 21.514 59.7152 21.4917C59.3544 21.3749 58.986 21.2828 58.6124 21.2163C58.5331 21.2026 58.4528 21.1921 58.3793 21.1802C57.9795 21.1162 57.5755 21.082 57.1705 21.0787C56.9009 21.0787 56.6336 21.0938 56.3711 21.1195C56.2837 21.1276 56.1983 21.1442 56.1123 21.156C55.9371 21.1779 55.762 21.2011 55.5929 21.2353C55.4913 21.2553 55.3935 21.2818 55.2929 21.3051C55.1415 21.3417 54.9895 21.3777 54.8405 21.4219C54.7365 21.4523 54.6363 21.4884 54.5347 21.5235C54.3932 21.5724 54.2522 21.6213 54.1146 21.6773C54.0144 21.7181 53.9152 21.7628 53.8159 21.8079C53.683 21.8677 53.5525 21.9247 53.4229 21.9973C53.326 22.0486 53.2301 22.0998 53.1356 22.1544C53.0098 22.2257 52.8873 22.3016 52.7658 22.3799C52.6737 22.4383 52.584 22.4967 52.4952 22.5594C52.3784 22.6434 52.2621 22.7308 52.1453 22.821C52.0613 22.886 51.9772 22.9501 51.8965 23.019C51.7797 23.1158 51.6739 23.2188 51.5652 23.3214C51.4906 23.3902 51.4161 23.4576 51.3449 23.5303C51.2281 23.6466 51.1279 23.7634 51.0216 23.8802C50.9622 23.949 50.9048 24.0145 50.8431 24.0843C50.7191 24.2362 50.6038 24.3934 50.4932 24.551C50.4614 24.598 50.4253 24.6398 50.3939 24.6863C50.2539 24.8942 50.1233 25.1083 50.0027 25.3296C49.9681 25.3922 49.9401 25.4587 49.9073 25.5233C49.8242 25.6842 49.7426 25.8461 49.6737 26.0132C49.6367 26.102 49.6049 26.1927 49.5688 26.2838C49.5119 26.431 49.452 26.5777 49.4055 26.7296C49.3727 26.8298 49.3462 26.9338 49.3182 27.0363C49.2773 27.1825 49.2374 27.3269 49.2014 27.475C49.1767 27.5846 49.1582 27.6943 49.1382 27.8064C49.1221 27.8951 49.0998 27.9815 49.0869 28.0713H36.497L37.0805 25.7379H45.5035V23.4125H37.6639L40.1046 13.6478L54.8955 12.9115C55.2839 12.892 55.6371 12.6803 55.8374 12.347L60.7573 4.14474ZM42.8596 2.6279C43.1326 2.6279 43.4042 2.61034 43.6762 2.61034C45.3288 2.60891 46.98 2.69389 48.6231 2.86576L58.1989 3.8765L54.1573 10.6109L40.6962 11.2784L42.8596 2.6279ZM17.0659 11.8756C20.2524 9.21983 23.8254 7.06493 27.6614 5.48638C31.7443 3.89644 36.0541 2.96545 40.4294 2.72808L38.2612 11.4032L16.3262 12.4975L17.0659 11.8756ZM2.3334 22.9012C2.33103 20.791 3.46996 18.844 5.31105 17.8119L12.4845 15.0246L37.6639 13.7694L35.2579 23.4125H22.1681V25.7459H34.6744L34.091 28.0793H20.9185C20.9057 27.9896 20.8839 27.9032 20.8672 27.8149C20.8478 27.6981 20.8288 27.5932 20.8046 27.4835C20.7718 27.3354 20.7319 27.1906 20.6878 27.0449C20.6598 26.9418 20.6332 26.8383 20.6004 26.7377C20.5515 26.5862 20.4941 26.4391 20.4371 26.2919C20.4006 26.2012 20.3692 26.1101 20.3317 26.0213C20.2596 25.8547 20.1779 25.6923 20.0986 25.5313C20.0659 25.4673 20.0378 25.4008 20.0027 25.3376C19.8831 25.1178 19.753 24.9033 19.612 24.6948C19.5807 24.6483 19.5441 24.6061 19.5128 24.5595C19.396 24.3995 19.2797 24.2419 19.1629 24.0929C19.1054 24.0226 19.0461 23.9575 18.9844 23.8887C18.878 23.7719 18.7731 23.6471 18.6611 23.5383C18.5899 23.4662 18.5153 23.3983 18.4408 23.3299C18.3321 23.2269 18.2238 23.1244 18.1094 23.0275C18.0287 22.9587 17.9447 22.8946 17.8606 22.8291C17.7438 22.7393 17.6271 22.652 17.5107 22.5679C17.422 22.5058 17.3322 22.4512 17.2401 22.388C17.1233 22.3102 16.9961 22.2342 16.8698 22.163C16.7754 22.1084 16.6799 22.0566 16.5831 22.0054C16.4535 21.9389 16.3229 21.8758 16.19 21.8164C16.0908 21.7708 15.9915 21.7267 15.8914 21.6859C15.7537 21.6298 15.6122 21.5809 15.4712 21.5316C15.3696 21.4969 15.2694 21.4604 15.1655 21.4304C15.0159 21.3858 14.8645 21.3497 14.7126 21.3137C14.6124 21.2904 14.5146 21.2633 14.413 21.2434C14.2425 21.2097 14.0688 21.1864 13.8936 21.1641C13.8072 21.1527 13.7222 21.1361 13.6349 21.128C13.3709 21.0943 13.1036 21.0791 12.8344 21.0791C12.5648 21.0791 12.2975 21.0943 12.035 21.12C11.9476 21.128 11.8621 21.1446 11.7762 21.156C11.601 21.1784 11.4258 21.2016 11.2568 21.2353C11.1552 21.2553 11.0574 21.2823 10.9568 21.3056C10.8053 21.3417 10.6534 21.3777 10.5044 21.4224C10.4004 21.4528 10.2997 21.4888 10.1986 21.5235C10.0571 21.5729 9.91614 21.6218 9.77846 21.6778C9.67781 21.7186 9.57906 21.7628 9.47984 21.8083C9.34691 21.8677 9.21635 21.9251 9.08675 21.9973C8.9899 22.0486 8.894 22.0998 8.79952 22.1549C8.67371 22.2261 8.55123 22.3021 8.42969 22.3799C8.33759 22.4383 8.24786 22.4967 8.15908 22.5599C8.04229 22.6439 7.9255 22.7313 7.80919 22.821C7.72516 22.8865 7.64113 22.9506 7.56042 23.0194C7.44363 23.1163 7.33776 23.2188 7.22904 23.3214C7.19534 23.3518 7.1602 23.3812 7.12887 23.4125H2.3334V22.9012ZM2.3334 25.7459H5.46392C5.41977 25.838 5.37419 25.9278 5.33336 26.0213C5.29253 26.1143 5.26452 26.2007 5.22844 26.2919C5.171 26.4391 5.11165 26.5858 5.06513 26.7377C5.03237 26.8379 5.00531 26.9418 4.9773 27.0444C4.93647 27.1901 4.89706 27.3349 4.86051 27.4831C4.8363 27.5927 4.81778 27.7024 4.79784 27.8144C4.78122 27.9032 4.75939 27.9896 4.74657 28.0793H2.3334V25.7459Z" stroke="url(#paint0_linear)" stroke-width="1.99667" mask="url(#path-1-inside-1)"/>
<path d="M28.5011 15.7438H33.3365V17.0793H28.5011V15.7438Z" stroke="url(#paint1_linear)" stroke-width="0.998335"/>
<path d="M47.1693 15.7438H53.1717V17.0793H47.1693V15.7438Z" stroke="url(#paint2_linear)" stroke-width="0.998335"/>
<defs>
<linearGradient id="paint0_linear" x1="11.5311" y1="6.00236" x2="22.5467" y2="43.7255" gradientUnits="userSpaceOnUse">
<stop stop-color="#FF2D2D"/>
<stop offset="1" stop-color="#0085FA"/>
</linearGradient>
<linearGradient id="paint1_linear" x1="28.9629" y1="15.6056" x2="29.5024" y2="18.0575" gradientUnits="userSpaceOnUse">
<stop stop-color="#FF2D2D"/>
<stop offset="1" stop-color="#0085FA"/>
</linearGradient>
<linearGradient id="paint2_linear" x1="47.8233" y1="15.6056" x2="48.2793" y2="18.0926" gradientUnits="userSpaceOnUse">
<stop stop-color="#FF2D2D"/>
<stop offset="1" stop-color="#0085FA"/>
</linearGradient>
</defs>
</svg>
