<svg width="46" height="46" viewBox="0 0 46 46" fill="none" xmlns="http://www.w3.org/2000/svg">
<path d="M33.6442 6.08167L34.2763 5.63236L33.6061 5.24205C30.4979 3.43193 26.8704 2.39062 23 2.39062C18.7935 2.39062 14.874 3.62037 11.5964 5.73071L11.2703 5.94067L11.3926 6.30872L15.3685 18.2782L15.5816 18.9198L16.1326 18.5281L33.6442 6.08167ZM23.2923 15.8834L23.0026 15.6775L22.7129 15.8834L16.4291 20.3497L16.1277 20.5639L16.2442 20.9148L18.6436 28.1383L18.7573 28.4807H19.1181H26.8821H27.2429L27.3567 28.1383L29.7568 20.9119L29.8734 20.561L29.572 20.3468L23.2923 15.8834ZM10.0709 7.68942L9.83558 6.981L9.27004 7.46823C4.93824 11.2002 2.19531 16.6677 2.19531 22.7539C2.19531 24.6086 2.4515 26.406 2.92852 28.1151L3.03055 28.4807H3.41011H16.2842H16.9771L16.7587 27.8231L10.0709 7.68942ZM22.0055 43.0934L22.3838 43.111L22.5031 42.7516L26.481 30.775L26.6994 30.1174H26.0064H4.3558H3.58784L3.89856 30.8197C6.97279 37.7683 13.889 42.7176 22.0055 43.0934ZM24.409 42.3734L24.1684 43.0977L24.9285 43.0289C32.9631 42.3025 39.6911 37.0864 42.4553 29.9667L42.5962 29.6038L42.2789 29.3782L31.8647 21.9763L31.3136 21.5847L31.1005 22.2263L24.409 42.3734ZM25.0057 14.2539L24.4323 14.6615L25.0057 15.069L42.5217 27.5185L43.1313 27.9518L43.2987 27.2229C43.6291 25.7841 43.8047 24.2886 43.8047 22.7539C43.8047 16.3359 40.7548 10.6064 36.0079 6.874L35.714 6.64288L35.4092 6.85951L25.0057 14.2539ZM0.5 22.7539C0.5 10.6338 10.5835 0.753906 23 0.753906C35.4165 0.753906 45.5 10.6338 45.5 22.7539C45.5 34.874 35.4165 44.7539 23 44.7539C10.5835 44.7539 0.5 34.874 0.5 22.7539Z" stroke="url(#paint0_linear)"/>
<defs>
<linearGradient id="paint0_linear" x1="7.57704" y1="7.21331" x2="28.2572" y2="45.6513" gradientUnits="userSpaceOnUse">
<stop stop-color="#FF2D2D"/>
<stop offset="1" stop-color="#0085FA"/>
</linearGradient>
</defs>
</svg>
