<svg width="50" height="55" viewBox="0 0 50 55" fill="none" xmlns="http://www.w3.org/2000/svg">
<mask id="path-1-inside-1" fill="white">
<path d="M47.4138 22.8991H43.3526L42.7423 19.5066C42.5516 18.4502 41.9922 17.5453 41.2164 16.9086C41.5569 16.6517 41.8588 16.3387 42.1016 15.9705C42.7974 14.9183 42.9309 13.5893 42.4603 12.416L39.9414 6.12869C39.6446 4.7376 38.4277 3.73778 37.0121 3.73778C36.4266 3.73778 35.919 3.33802 35.7767 2.76304L35.7232 2.547C35.3894 1.19717 34.194 0.253906 32.8154 0.253906H17.1846C15.806 0.253906 14.6114 1.19717 14.2776 2.54615L14.2241 2.76389C14.081 3.33802 13.5734 3.73778 12.9879 3.73778C11.5714 3.73778 10.3545 4.7376 10.0586 6.12869L7.53974 12.416C7.06913 13.5893 7.20257 14.9183 7.89837 15.9705C8.14125 16.3387 8.44306 16.6517 8.78359 16.9095C8.00781 17.5461 7.44839 18.4519 7.25771 19.5075L6.64736 22.8991H2.58621C1.16051 22.8991 0 24.0716 0 25.512V28.9958C0 30.4363 1.16051 31.6087 2.58621 31.6087H5.08023L4.38022 35.4983C4.3335 35.7543 4.31034 36.0167 4.31034 36.2779V44.6733C4.31034 47.099 5.72341 49.1927 7.75862 50.1734V52.512C7.75862 53.4727 8.53187 54.2539 9.48276 54.2539H14.6552C15.6061 54.2539 16.3793 53.4727 16.3793 52.512V50.77H33.6207V52.512C33.6207 53.4727 34.3939 54.2539 35.3448 54.2539H40.5172C41.4681 54.2539 42.2414 53.4727 42.2414 52.512V50.1734C44.2766 49.1927 45.6897 47.099 45.6897 44.6733V36.2779C45.6897 36.0167 45.6665 35.7543 45.6198 35.4983L44.9198 31.6087H47.4138C48.8395 31.6087 50 30.4363 50 28.9958V25.512C50 24.0716 48.8395 22.8991 47.4138 22.8991V22.8991ZM43.3249 32.4797H41.2716L39.9465 22.4393C39.7192 20.7157 38.2501 19.4152 36.5285 19.4152H34.6957L35.0784 17.6733H38.5018C39.7516 17.6733 40.8216 18.5757 41.0464 19.8184L43.3249 32.4797ZM6.07573 35.8105L6.36113 34.2216H8.76296L9.70333 39.4475H6.03448V36.2779C6.03448 36.1214 6.04837 35.9644 6.07573 35.8105V35.8105ZM10.3554 33.3298L11.7629 22.6681C11.8758 21.807 12.6111 21.1571 13.4715 21.1571H20.6897V22.8991H18.9655V28.1249H31.0345V22.8991H29.3103V21.1571H36.5285C37.3889 21.1571 38.1242 21.807 38.2371 22.6681L39.6446 33.3298L39.3277 35.0926H38.6984C38.7544 34.8915 38.7931 34.6831 38.7931 34.4645C38.7931 34.2119 38.7535 33.9622 38.6723 33.7147L38.224 32.3577C37.9054 31.3893 37.0113 30.7378 35.9998 30.7378H32.9657C31.9542 30.7378 31.0602 31.3893 30.7407 32.3577L30.2915 33.719C30.212 33.9622 30.1724 34.2131 30.1724 34.4645C30.1724 34.6831 30.2111 34.8915 30.2663 35.0926H29.2156C29.2716 34.8915 29.3103 34.6831 29.3103 34.4645C29.3103 34.2119 29.2708 33.9622 29.1895 33.7147L28.7412 32.3577C28.4226 31.3893 27.5285 30.7378 26.517 30.7378H23.483C22.4715 30.7378 21.5774 31.3893 21.2579 32.3577L20.8088 33.719C20.7292 33.9622 20.6897 34.2131 20.6897 34.4645C20.6897 34.6831 20.7284 34.8915 20.7835 35.0926H19.7329C19.7889 34.8915 19.8276 34.6831 19.8276 34.4645C19.8276 34.2119 19.788 33.9622 19.7068 33.7147L19.2585 32.3577C18.9398 31.3893 18.0458 30.7378 17.0343 30.7378H14.0002C12.9887 30.7378 12.0946 31.3893 11.7752 32.3577L11.326 33.719C11.2465 33.9622 11.2069 34.2131 11.2069 34.4645C11.2069 34.6831 11.2456 34.8915 11.3008 35.0926H10.6715L10.3554 33.3298ZM12.9912 11.6794L13.4231 10.8633L13.7716 12.4475H13.4484C13.163 12.4475 12.931 12.2131 12.931 11.9248C12.931 11.8393 12.9517 11.7551 12.9912 11.6794ZM14.7183 8.71905C16.4378 8.23891 17.8724 7.0779 18.6974 5.47971H31.3035C32.1293 7.0779 33.5639 8.23891 35.2808 8.71905L34.4613 12.4475H15.5387L14.7183 8.71905ZM37.0088 11.6794C37.0483 11.7551 37.069 11.8393 37.069 11.9248C37.069 12.2131 36.837 12.4475 36.5516 12.4475H36.2275L36.5761 10.8633L37.0088 11.6794ZM34.0782 14.1894L33.6956 15.9313H16.3052L15.9226 14.1894H34.0782ZM33.3121 17.6733L32.9295 19.4152H17.0705L16.6879 17.6733H33.3121ZM24.1379 21.1571V22.8991H22.4138V21.1571H24.1379ZM29.3103 24.641V26.3829H20.6897V24.641H29.3103ZM25.8621 22.8991V21.1571H27.5862V22.8991H25.8621ZM31.8966 34.4645C31.8966 34.3977 31.9079 34.3288 31.9277 34.2659L32.376 32.9092C32.4602 32.6524 32.6984 32.4797 32.9657 32.4797H35.9998C36.2679 32.4797 36.5053 32.6524 36.5904 32.9092L37.037 34.2616C37.0576 34.3297 37.069 34.3977 37.069 34.4645C37.069 34.8111 36.7903 35.0926 36.4472 35.0926H32.5174C32.1752 35.0926 31.8966 34.8111 31.8966 34.4645V34.4645ZM22.4138 34.4645C22.4138 34.3977 22.4252 34.3288 22.4449 34.2659L22.8932 32.9092C22.9774 32.6524 23.2157 32.4797 23.483 32.4797H26.517C26.7852 32.4797 27.0226 32.6524 27.1076 32.9092L27.5542 34.2616C27.5748 34.3297 27.5862 34.3977 27.5862 34.4645C27.5862 34.8111 27.3075 35.0926 26.9645 35.0926H23.0347C22.6924 35.0926 22.4138 34.8111 22.4138 34.4645V34.4645ZM12.931 34.4645C12.931 34.3977 12.9424 34.3288 12.9622 34.2659L13.4105 32.9092C13.4947 32.6524 13.7329 32.4797 14.0002 32.4797H17.0343C17.3024 32.4797 17.5398 32.6524 17.6248 32.9092L18.0715 34.2616C18.0921 34.3297 18.1034 34.3977 18.1034 34.4645C18.1034 34.8111 17.8248 35.0926 17.4817 35.0926H13.5519C13.2097 35.0926 12.931 34.8111 12.931 34.4645V34.4645ZM10.9855 36.8346H39.0145L38.2648 41.004C38.1533 41.6164 37.6267 42.0604 37.0121 42.0604C35.6336 42.0604 34.439 43.0036 34.1052 44.3526L34.0517 44.5703C33.9086 45.1445 33.401 45.5442 32.8154 45.5442H17.1846C16.599 45.5442 16.0914 45.1445 15.9491 44.5695L15.8957 44.3535C15.5619 43.0036 14.3664 42.0604 12.9879 42.0604C12.3725 42.0604 11.8467 41.6164 11.7352 41.0048L10.9855 36.8346ZM41.2362 34.2216H43.638L43.9243 35.8105C43.9516 35.9644 43.9655 36.1214 43.9655 36.2779V39.4475H40.2967L41.2362 34.2216ZM40.862 13.0701C41.1179 13.7088 41.0447 14.4314 40.6663 15.0055C40.2845 15.5856 39.6438 15.9313 38.9543 15.9313H35.4623L35.8449 14.1894H36.5516C37.7879 14.1894 38.7931 13.1738 38.7931 11.9248C38.7931 11.5539 38.7018 11.1844 38.5283 10.8578L37.151 8.25209L37.7105 5.70979C37.9887 5.89776 38.2 6.18185 38.2648 6.53525L40.862 13.0701ZM15.8948 3.18747L15.9483 2.96973C16.0914 2.3956 16.599 1.99584 17.1846 1.99584H32.8163C33.4018 1.99584 33.9094 2.3956 34.0517 2.97058L34.1052 3.18662C34.3561 4.20218 35.094 4.98597 36.0309 5.31343L35.6559 7.02049C34.3009 6.6135 33.1981 5.62005 32.65 4.27703L32.4286 3.73778H17.5714L17.3517 4.27703C16.8045 5.62005 15.7016 6.61265 14.3449 7.01964L13.9691 5.31258C14.906 4.98682 15.6448 4.20218 15.8948 3.18747V3.18747ZM11.0457 15.9313C10.3554 15.9313 9.71469 15.5856 9.33291 15.0046C8.95533 14.4314 8.88209 13.7088 9.13717 13.0692L11.6863 6.70621L11.7352 6.5361C11.7991 6.1827 12.0113 5.89861 12.2895 5.71064L12.849 8.25295L11.4717 10.8586C11.2982 11.1852 11.2069 11.5539 11.2069 11.9248C11.2069 13.1738 12.2121 14.1894 13.4484 14.1894H14.1551L14.5377 15.9313H11.0457ZM8.95365 19.8192C9.17758 18.5757 10.2484 17.6733 11.4982 17.6733H14.9216L15.3042 19.4152H13.4715C11.7499 19.4152 10.2808 20.7157 10.0535 22.4385L8.72845 32.4797H6.67514L8.95365 19.8192ZM2.58621 29.8668C2.11055 29.8668 1.72414 29.4756 1.72414 28.9958V25.512C1.72414 25.0323 2.11055 24.641 2.58621 24.641H6.33377L5.39298 29.8668H2.58621ZM14.6552 52.512H9.48276V50.7003C9.76562 50.7411 10.0519 50.77 10.3448 50.77H14.6552V52.512ZM40.5172 52.512H35.3448V50.77H39.6552C39.9481 50.77 40.2344 50.7411 40.5172 50.7003V52.512ZM39.6552 49.0281H10.3448C7.96824 49.0281 6.03448 47.0744 6.03448 44.6733V41.1894H10.0173L10.0405 41.3165C10.3002 42.757 11.5407 43.8023 12.9879 43.8023C13.5734 43.8023 14.081 44.2021 14.2233 44.777L14.2768 44.9931C14.6106 46.3429 15.806 47.2862 17.1846 47.2862H32.8163C34.1948 47.2862 35.3894 46.3429 35.7232 44.9939L35.7767 44.7762C35.919 44.2021 36.4266 43.8023 37.0121 43.8023C38.4601 43.8023 39.6998 42.757 39.9603 41.3165L39.9827 41.1894H43.9655V44.6733C43.9655 47.0744 42.0318 49.0281 39.6552 49.0281V49.0281ZM48.2759 28.9958C48.2759 29.4756 47.8894 29.8668 47.4138 29.8668H44.6062L43.6654 24.641H47.4138C47.8894 24.641 48.2759 25.0323 48.2759 25.512V28.9958Z"/>
</mask>
<path d="M47.4138 22.8991H43.3526L42.7423 19.5066C42.5516 18.4502 41.9922 17.5453 41.2164 16.9086C41.5569 16.6517 41.8588 16.3387 42.1016 15.9705C42.7974 14.9183 42.9309 13.5893 42.4603 12.416L39.9414 6.12869C39.6446 4.7376 38.4277 3.73778 37.0121 3.73778C36.4266 3.73778 35.919 3.33802 35.7767 2.76304L35.7232 2.547C35.3894 1.19717 34.194 0.253906 32.8154 0.253906H17.1846C15.806 0.253906 14.6114 1.19717 14.2776 2.54615L14.2241 2.76389C14.081 3.33802 13.5734 3.73778 12.9879 3.73778C11.5714 3.73778 10.3545 4.7376 10.0586 6.12869L7.53974 12.416C7.06913 13.5893 7.20257 14.9183 7.89837 15.9705C8.14125 16.3387 8.44306 16.6517 8.78359 16.9095C8.00781 17.5461 7.44839 18.4519 7.25771 19.5075L6.64736 22.8991H2.58621C1.16051 22.8991 0 24.0716 0 25.512V28.9958C0 30.4363 1.16051 31.6087 2.58621 31.6087H5.08023L4.38022 35.4983C4.3335 35.7543 4.31034 36.0167 4.31034 36.2779V44.6733C4.31034 47.099 5.72341 49.1927 7.75862 50.1734V52.512C7.75862 53.4727 8.53187 54.2539 9.48276 54.2539H14.6552C15.6061 54.2539 16.3793 53.4727 16.3793 52.512V50.77H33.6207V52.512C33.6207 53.4727 34.3939 54.2539 35.3448 54.2539H40.5172C41.4681 54.2539 42.2414 53.4727 42.2414 52.512V50.1734C44.2766 49.1927 45.6897 47.099 45.6897 44.6733V36.2779C45.6897 36.0167 45.6665 35.7543 45.6198 35.4983L44.9198 31.6087H47.4138C48.8395 31.6087 50 30.4363 50 28.9958V25.512C50 24.0716 48.8395 22.8991 47.4138 22.8991V22.8991ZM43.3249 32.4797H41.2716L39.9465 22.4393C39.7192 20.7157 38.2501 19.4152 36.5285 19.4152H34.6957L35.0784 17.6733H38.5018C39.7516 17.6733 40.8216 18.5757 41.0464 19.8184L43.3249 32.4797ZM6.07573 35.8105L6.36113 34.2216H8.76296L9.70333 39.4475H6.03448V36.2779C6.03448 36.1214 6.04837 35.9644 6.07573 35.8105V35.8105ZM10.3554 33.3298L11.7629 22.6681C11.8758 21.807 12.6111 21.1571 13.4715 21.1571H20.6897V22.8991H18.9655V28.1249H31.0345V22.8991H29.3103V21.1571H36.5285C37.3889 21.1571 38.1242 21.807 38.2371 22.6681L39.6446 33.3298L39.3277 35.0926H38.6984C38.7544 34.8915 38.7931 34.6831 38.7931 34.4645C38.7931 34.2119 38.7535 33.9622 38.6723 33.7147L38.224 32.3577C37.9054 31.3893 37.0113 30.7378 35.9998 30.7378H32.9657C31.9542 30.7378 31.0602 31.3893 30.7407 32.3577L30.2915 33.719C30.212 33.9622 30.1724 34.2131 30.1724 34.4645C30.1724 34.6831 30.2111 34.8915 30.2663 35.0926H29.2156C29.2716 34.8915 29.3103 34.6831 29.3103 34.4645C29.3103 34.2119 29.2708 33.9622 29.1895 33.7147L28.7412 32.3577C28.4226 31.3893 27.5285 30.7378 26.517 30.7378H23.483C22.4715 30.7378 21.5774 31.3893 21.2579 32.3577L20.8088 33.719C20.7292 33.9622 20.6897 34.2131 20.6897 34.4645C20.6897 34.6831 20.7284 34.8915 20.7835 35.0926H19.7329C19.7889 34.8915 19.8276 34.6831 19.8276 34.4645C19.8276 34.2119 19.788 33.9622 19.7068 33.7147L19.2585 32.3577C18.9398 31.3893 18.0458 30.7378 17.0343 30.7378H14.0002C12.9887 30.7378 12.0946 31.3893 11.7752 32.3577L11.326 33.719C11.2465 33.9622 11.2069 34.2131 11.2069 34.4645C11.2069 34.6831 11.2456 34.8915 11.3008 35.0926H10.6715L10.3554 33.3298ZM12.9912 11.6794L13.4231 10.8633L13.7716 12.4475H13.4484C13.163 12.4475 12.931 12.2131 12.931 11.9248C12.931 11.8393 12.9517 11.7551 12.9912 11.6794ZM14.7183 8.71905C16.4378 8.23891 17.8724 7.0779 18.6974 5.47971H31.3035C32.1293 7.0779 33.5639 8.23891 35.2808 8.71905L34.4613 12.4475H15.5387L14.7183 8.71905ZM37.0088 11.6794C37.0483 11.7551 37.069 11.8393 37.069 11.9248C37.069 12.2131 36.837 12.4475 36.5516 12.4475H36.2275L36.5761 10.8633L37.0088 11.6794ZM34.0782 14.1894L33.6956 15.9313H16.3052L15.9226 14.1894H34.0782ZM33.3121 17.6733L32.9295 19.4152H17.0705L16.6879 17.6733H33.3121ZM24.1379 21.1571V22.8991H22.4138V21.1571H24.1379ZM29.3103 24.641V26.3829H20.6897V24.641H29.3103ZM25.8621 22.8991V21.1571H27.5862V22.8991H25.8621ZM31.8966 34.4645C31.8966 34.3977 31.9079 34.3288 31.9277 34.2659L32.376 32.9092C32.4602 32.6524 32.6984 32.4797 32.9657 32.4797H35.9998C36.2679 32.4797 36.5053 32.6524 36.5904 32.9092L37.037 34.2616C37.0576 34.3297 37.069 34.3977 37.069 34.4645C37.069 34.8111 36.7903 35.0926 36.4472 35.0926H32.5174C32.1752 35.0926 31.8966 34.8111 31.8966 34.4645V34.4645ZM22.4138 34.4645C22.4138 34.3977 22.4252 34.3288 22.4449 34.2659L22.8932 32.9092C22.9774 32.6524 23.2157 32.4797 23.483 32.4797H26.517C26.7852 32.4797 27.0226 32.6524 27.1076 32.9092L27.5542 34.2616C27.5748 34.3297 27.5862 34.3977 27.5862 34.4645C27.5862 34.8111 27.3075 35.0926 26.9645 35.0926H23.0347C22.6924 35.0926 22.4138 34.8111 22.4138 34.4645V34.4645ZM12.931 34.4645C12.931 34.3977 12.9424 34.3288 12.9622 34.2659L13.4105 32.9092C13.4947 32.6524 13.7329 32.4797 14.0002 32.4797H17.0343C17.3024 32.4797 17.5398 32.6524 17.6248 32.9092L18.0715 34.2616C18.0921 34.3297 18.1034 34.3977 18.1034 34.4645C18.1034 34.8111 17.8248 35.0926 17.4817 35.0926H13.5519C13.2097 35.0926 12.931 34.8111 12.931 34.4645V34.4645ZM10.9855 36.8346H39.0145L38.2648 41.004C38.1533 41.6164 37.6267 42.0604 37.0121 42.0604C35.6336 42.0604 34.439 43.0036 34.1052 44.3526L34.0517 44.5703C33.9086 45.1445 33.401 45.5442 32.8154 45.5442H17.1846C16.599 45.5442 16.0914 45.1445 15.9491 44.5695L15.8957 44.3535C15.5619 43.0036 14.3664 42.0604 12.9879 42.0604C12.3725 42.0604 11.8467 41.6164 11.7352 41.0048L10.9855 36.8346ZM41.2362 34.2216H43.638L43.9243 35.8105C43.9516 35.9644 43.9655 36.1214 43.9655 36.2779V39.4475H40.2967L41.2362 34.2216ZM40.862 13.0701C41.1179 13.7088 41.0447 14.4314 40.6663 15.0055C40.2845 15.5856 39.6438 15.9313 38.9543 15.9313H35.4623L35.8449 14.1894H36.5516C37.7879 14.1894 38.7931 13.1738 38.7931 11.9248C38.7931 11.5539 38.7018 11.1844 38.5283 10.8578L37.151 8.25209L37.7105 5.70979C37.9887 5.89776 38.2 6.18185 38.2648 6.53525L40.862 13.0701ZM15.8948 3.18747L15.9483 2.96973C16.0914 2.3956 16.599 1.99584 17.1846 1.99584H32.8163C33.4018 1.99584 33.9094 2.3956 34.0517 2.97058L34.1052 3.18662C34.3561 4.20218 35.094 4.98597 36.0309 5.31343L35.6559 7.02049C34.3009 6.6135 33.1981 5.62005 32.65 4.27703L32.4286 3.73778H17.5714L17.3517 4.27703C16.8045 5.62005 15.7016 6.61265 14.3449 7.01964L13.9691 5.31258C14.906 4.98682 15.6448 4.20218 15.8948 3.18747V3.18747ZM11.0457 15.9313C10.3554 15.9313 9.71469 15.5856 9.33291 15.0046C8.95533 14.4314 8.88209 13.7088 9.13717 13.0692L11.6863 6.70621L11.7352 6.5361C11.7991 6.1827 12.0113 5.89861 12.2895 5.71064L12.849 8.25295L11.4717 10.8586C11.2982 11.1852 11.2069 11.5539 11.2069 11.9248C11.2069 13.1738 12.2121 14.1894 13.4484 14.1894H14.1551L14.5377 15.9313H11.0457ZM8.95365 19.8192C9.17758 18.5757 10.2484 17.6733 11.4982 17.6733H14.9216L15.3042 19.4152H13.4715C11.7499 19.4152 10.2808 20.7157 10.0535 22.4385L8.72845 32.4797H6.67514L8.95365 19.8192ZM2.58621 29.8668C2.11055 29.8668 1.72414 29.4756 1.72414 28.9958V25.512C1.72414 25.0323 2.11055 24.641 2.58621 24.641H6.33377L5.39298 29.8668H2.58621ZM14.6552 52.512H9.48276V50.7003C9.76562 50.7411 10.0519 50.77 10.3448 50.77H14.6552V52.512ZM40.5172 52.512H35.3448V50.77H39.6552C39.9481 50.77 40.2344 50.7411 40.5172 50.7003V52.512ZM39.6552 49.0281H10.3448C7.96824 49.0281 6.03448 47.0744 6.03448 44.6733V41.1894H10.0173L10.0405 41.3165C10.3002 42.757 11.5407 43.8023 12.9879 43.8023C13.5734 43.8023 14.081 44.2021 14.2233 44.777L14.2768 44.9931C14.6106 46.3429 15.806 47.2862 17.1846 47.2862H32.8163C34.1948 47.2862 35.3894 46.3429 35.7232 44.9939L35.7767 44.7762C35.919 44.2021 36.4266 43.8023 37.0121 43.8023C38.4601 43.8023 39.6998 42.757 39.9603 41.3165L39.9827 41.1894H43.9655V44.6733C43.9655 47.0744 42.0318 49.0281 39.6552 49.0281V49.0281ZM48.2759 28.9958C48.2759 29.4756 47.8894 29.8668 47.4138 29.8668H44.6062L43.6654 24.641H47.4138C47.8894 24.641 48.2759 25.0323 48.2759 25.512V28.9958Z" stroke="url(#paint0_linear)" stroke-width="2" mask="url(#path-1-inside-1)"/>
<defs>
<linearGradient id="paint0_linear" x1="8.23591" y1="8.60519" x2="34.3502" y2="52.5711" gradientUnits="userSpaceOnUse">
<stop stop-color="#FF2D2D"/>
<stop offset="1" stop-color="#0085FA"/>
</linearGradient>
</defs>
</svg>
