<svg width="54" height="65" viewBox="0 0 54 65" fill="none" xmlns="http://www.w3.org/2000/svg">
<mask id="path-1-inside-1" fill="white">
<path d="M51.1478 40.6614L53.9477 33.4266C54.0664 33.1192 53.9788 32.7706 53.7286 32.5552L50.7998 30.0343C51.0546 27.7813 50.9955 25.5043 50.6241 23.2675L53.4417 20.5729C53.6787 20.3463 53.7485 19.9967 53.617 19.6969L50.4987 12.5891C50.3662 12.2858 50.0559 12.0988 49.7247 12.1237L45.8228 12.4098C44.4339 10.6095 42.7748 9.03375 40.9044 7.7375L41.019 3.84979C41.0292 3.519 40.8285 3.21768 40.5187 3.09877L33.2641 0.306082C32.9558 0.187688 32.6058 0.275086 32.3897 0.524579L29.862 3.44633C27.6028 3.19176 25.3191 3.2507 23.0762 3.62113L20.3736 0.811673C20.1464 0.575392 19.7958 0.50527 19.4952 0.636368L12.368 3.74613C12.0638 3.87926 11.8768 4.18871 11.9013 4.51849L12.1882 8.40976C10.3834 9.79442 8.80339 11.4489 7.5041 13.3142L3.60523 13.1999C3.27302 13.1882 2.97036 13.3889 2.85215 13.6989L0.052319 20.9342C-0.0664 21.2416 0.0212379 21.5902 0.271414 21.8056L3.20067 24.327C2.9459 26.5795 3.00501 28.857 3.37645 31.0933L0.558785 33.7879C0.321857 34.0145 0.252052 34.3641 0.383509 34.6639L3.50179 41.7716C3.63427 42.076 3.94508 42.263 4.27627 42.2371L8.1782 41.951C9.56716 43.7513 11.2262 45.327 13.0966 46.6228L12.982 50.511C12.9723 50.8418 13.1726 51.1426 13.4823 51.262L19.0519 53.4058V57.8596C19.0545 59.6391 20.5 61.0806 22.2844 61.0827H26.2174V63.4734C26.2174 63.9048 26.5674 64.2539 27 64.2539C27.4321 64.2539 27.7826 63.9048 27.7826 63.4734V61.0832H31.7151C33.4995 61.0811 34.9455 59.6391 34.9475 57.8596V53.5303L41.6315 50.6141C41.9352 50.4815 42.1227 50.1721 42.0982 49.8423L41.8113 45.9505C43.6161 44.5659 45.1961 42.9114 46.4954 41.046L50.3943 41.1604C50.727 41.1725 51.0301 40.9718 51.1478 40.6614V40.6614ZM33.3823 47.3306V49.1517H30.826V38.8672C30.827 37.9927 31.5373 37.2843 32.4142 37.2833C34.1552 37.2818 35.5666 35.8743 35.5681 34.138V33.7188C36.9296 33.3631 37.8809 32.1385 37.8865 30.7345C37.8921 29.3311 36.9505 28.0988 35.5921 27.7325C34.2332 27.3656 32.7974 27.9561 32.0922 29.171C31.3875 30.3864 31.5898 31.922 32.5859 32.9139C32.9772 33.3041 33.4669 33.5821 34.0029 33.7188V34.1385C34.0019 35.013 33.2911 35.7213 32.4142 35.7223C30.6732 35.7244 29.2628 37.1314 29.2608 38.8677V49.1517H27.8361V26.2945C29.3571 25.9017 30.3481 24.4428 30.1494 22.8885C29.9507 21.3341 28.6249 20.1694 27.0535 20.1694C25.4826 20.1694 24.1564 21.3341 23.9576 22.8885C23.7594 24.4428 24.7499 25.9017 26.2709 26.2945V49.1517H24.8468V38.8672C24.8447 37.1314 23.4338 35.7244 21.6928 35.7223C20.8159 35.7213 20.1056 35.0125 20.1046 34.138V33.7188C20.6406 33.5821 21.1298 33.3041 21.5216 32.9144C22.5264 31.919 22.7338 30.3737 22.026 29.1502C21.3188 27.9266 19.8738 27.3316 18.5068 27.7005C17.1397 28.0694 16.193 29.3097 16.2006 30.7223C16.2083 32.1344 17.1682 33.3646 18.5394 33.7188V34.1385C18.5409 35.8748 19.9523 37.2823 21.6933 37.2838C22.5702 37.2848 23.2805 37.9932 23.2815 38.8677V49.1517H20.6172V47.3306C20.6254 43.9774 19.2272 40.7732 16.7611 38.4937C12.1642 34.2843 10.628 27.6933 12.8923 21.8935C15.1571 16.0937 20.7578 12.2741 26.999 12.2736C27.0464 12.2736 27.0943 12.2736 27.1411 12.2741C32.9935 12.329 38.29 15.7421 40.7444 21.0409C43.1988 26.3397 42.3708 32.5745 38.6182 37.0531C38.2136 37.5353 37.7795 37.9922 37.3184 38.4205C34.8273 40.7198 33.4022 43.9454 33.3823 47.3306V47.3306ZM33.6926 31.8097C33.0893 31.2081 33.0893 30.232 33.6926 29.6303C34.2964 29.0282 35.2747 29.0282 35.8784 29.6303C36.4817 30.232 36.4817 31.2081 35.8779 31.8097C35.5895 32.1014 35.1962 32.2655 34.7855 32.2655C34.3748 32.266 33.9815 32.1019 33.6926 31.8102V31.8097ZM25.9611 24.3859C25.3573 23.7843 25.3573 22.8082 25.9611 22.2065C26.5644 21.6044 27.5432 21.6044 28.1464 22.2065C28.7502 22.8082 28.7502 23.7843 28.1464 24.3859C27.5426 24.987 26.5649 24.987 25.9611 24.3864V24.3859ZM18.2291 31.8102C17.6258 31.2086 17.6258 30.233 18.2291 29.6309C18.8328 29.0292 19.8111 29.0292 20.4144 29.6309C21.0182 30.233 21.0182 31.2086 20.4144 31.8102C20.126 32.1019 19.7327 32.266 19.322 32.266C18.9113 32.266 18.5175 32.1019 18.2291 31.8102ZM31.7151 59.5222H22.2849C21.3647 59.5207 20.6187 58.7773 20.6177 57.8596V57.5898H27.4759C27.908 57.5898 28.2585 57.2402 28.2585 56.8093C28.2585 56.3779 27.908 56.0288 27.4759 56.0288H20.6177V54.0964H22.6507C23.0828 54.0964 23.4333 53.7468 23.4333 53.3159C23.4333 52.8845 23.0828 52.5354 22.6507 52.5354H20.6172V50.7127H33.3823V52.5349H27.1152C26.6831 52.5349 26.3325 52.884 26.3325 53.3154C26.3325 53.7463 26.6831 54.0959 27.1152 54.0959H33.3823V56.0283H31.5546C31.1226 56.0283 30.772 56.3779 30.772 56.8088C30.772 57.2397 31.1226 57.5893 31.5546 57.5893H33.3823V57.8591C33.3813 58.7768 32.6358 59.5207 31.7151 59.5222ZM46.1132 39.4734C45.8437 39.4657 45.5889 39.5968 45.4391 39.8209C44.1149 41.8031 42.4554 43.5415 40.5345 44.9566C40.3184 45.1162 40.1997 45.3743 40.2196 45.6416L40.4968 49.4063L34.9481 51.827V47.3189C34.9695 44.3707 36.2137 41.5628 38.3858 39.5623C41.8913 36.3072 43.8265 31.7081 43.6996 26.9327C43.4994 19.3615 38.2034 12.8778 30.8087 11.1511C23.414 9.4245 15.7818 12.8894 12.232 19.5851C8.68212 26.2807 10.1083 34.5221 15.7028 39.6441C17.8464 41.6273 19.0606 44.4144 19.0519 47.3306V51.732L14.563 50.0044L14.6741 46.2412C14.6818 45.9718 14.5503 45.7178 14.3256 45.5684C12.3374 44.2483 10.5949 42.5933 9.17585 40.6776C9.01637 40.4617 8.75702 40.3428 8.48901 40.3631L4.71395 40.64L2.0364 34.5374L4.76032 31.9322C4.94986 31.7508 5.03546 31.4866 4.98858 31.2284C4.55651 28.8788 4.49435 26.4769 4.80363 24.1085C4.83776 23.8478 4.73841 23.5882 4.53918 23.4164L1.71133 20.983L4.11271 14.7766L7.88675 14.8874C8.1568 14.8971 8.41207 14.7655 8.56085 14.5404C9.88459 12.5576 11.5441 10.8198 13.465 9.40417C13.6811 9.24513 13.8003 8.98649 13.7804 8.71972L13.5032 4.95498L19.6226 2.28525L22.2349 5.00172C22.4168 5.19126 22.6818 5.27662 22.9406 5.22937C25.2967 4.79898 27.7057 4.73699 30.0816 5.04542C30.3425 5.07845 30.6028 4.97937 30.7746 4.78069L33.2147 1.96056L39.438 4.35589L39.3269 8.11911C39.3193 8.38791 39.4507 8.64198 39.6754 8.79137C41.6631 10.1115 43.4056 11.767 44.8252 13.6826C44.9847 13.8986 45.244 14.017 45.512 13.9967L49.2866 13.7202L51.9641 19.8229L49.2397 22.4281C49.0496 22.6095 48.964 22.8742 49.0114 23.1319C49.443 25.4815 49.5051 27.8834 49.1959 30.2523C49.1622 30.5125 49.2616 30.7721 49.4608 30.9439L52.2882 33.3773L49.8863 39.5836L46.1132 39.4734Z"/>
</mask>
<path d="M51.1478 40.6614L53.9477 33.4266C54.0664 33.1192 53.9788 32.7706 53.7286 32.5552L50.7998 30.0343C51.0546 27.7813 50.9955 25.5043 50.6241 23.2675L53.4417 20.5729C53.6787 20.3463 53.7485 19.9967 53.617 19.6969L50.4987 12.5891C50.3662 12.2858 50.0559 12.0988 49.7247 12.1237L45.8228 12.4098C44.4339 10.6095 42.7748 9.03375 40.9044 7.7375L41.019 3.84979C41.0292 3.519 40.8285 3.21768 40.5187 3.09877L33.2641 0.306082C32.9558 0.187688 32.6058 0.275086 32.3897 0.524579L29.862 3.44633C27.6028 3.19176 25.3191 3.2507 23.0762 3.62113L20.3736 0.811673C20.1464 0.575392 19.7958 0.50527 19.4952 0.636368L12.368 3.74613C12.0638 3.87926 11.8768 4.18871 11.9013 4.51849L12.1882 8.40976C10.3834 9.79442 8.80339 11.4489 7.5041 13.3142L3.60523 13.1999C3.27302 13.1882 2.97036 13.3889 2.85215 13.6989L0.052319 20.9342C-0.0664 21.2416 0.0212379 21.5902 0.271414 21.8056L3.20067 24.327C2.9459 26.5795 3.00501 28.857 3.37645 31.0933L0.558785 33.7879C0.321857 34.0145 0.252052 34.3641 0.383509 34.6639L3.50179 41.7716C3.63427 42.076 3.94508 42.263 4.27627 42.2371L8.1782 41.951C9.56716 43.7513 11.2262 45.327 13.0966 46.6228L12.982 50.511C12.9723 50.8418 13.1726 51.1426 13.4823 51.262L19.0519 53.4058V57.8596C19.0545 59.6391 20.5 61.0806 22.2844 61.0827H26.2174V63.4734C26.2174 63.9048 26.5674 64.2539 27 64.2539C27.4321 64.2539 27.7826 63.9048 27.7826 63.4734V61.0832H31.7151C33.4995 61.0811 34.9455 59.6391 34.9475 57.8596V53.5303L41.6315 50.6141C41.9352 50.4815 42.1227 50.1721 42.0982 49.8423L41.8113 45.9505C43.6161 44.5659 45.1961 42.9114 46.4954 41.046L50.3943 41.1604C50.727 41.1725 51.0301 40.9718 51.1478 40.6614V40.6614ZM33.3823 47.3306V49.1517H30.826V38.8672C30.827 37.9927 31.5373 37.2843 32.4142 37.2833C34.1552 37.2818 35.5666 35.8743 35.5681 34.138V33.7188C36.9296 33.3631 37.8809 32.1385 37.8865 30.7345C37.8921 29.3311 36.9505 28.0988 35.5921 27.7325C34.2332 27.3656 32.7974 27.9561 32.0922 29.171C31.3875 30.3864 31.5898 31.922 32.5859 32.9139C32.9772 33.3041 33.4669 33.5821 34.0029 33.7188V34.1385C34.0019 35.013 33.2911 35.7213 32.4142 35.7223C30.6732 35.7244 29.2628 37.1314 29.2608 38.8677V49.1517H27.8361V26.2945C29.3571 25.9017 30.3481 24.4428 30.1494 22.8885C29.9507 21.3341 28.6249 20.1694 27.0535 20.1694C25.4826 20.1694 24.1564 21.3341 23.9576 22.8885C23.7594 24.4428 24.7499 25.9017 26.2709 26.2945V49.1517H24.8468V38.8672C24.8447 37.1314 23.4338 35.7244 21.6928 35.7223C20.8159 35.7213 20.1056 35.0125 20.1046 34.138V33.7188C20.6406 33.5821 21.1298 33.3041 21.5216 32.9144C22.5264 31.919 22.7338 30.3737 22.026 29.1502C21.3188 27.9266 19.8738 27.3316 18.5068 27.7005C17.1397 28.0694 16.193 29.3097 16.2006 30.7223C16.2083 32.1344 17.1682 33.3646 18.5394 33.7188V34.1385C18.5409 35.8748 19.9523 37.2823 21.6933 37.2838C22.5702 37.2848 23.2805 37.9932 23.2815 38.8677V49.1517H20.6172V47.3306C20.6254 43.9774 19.2272 40.7732 16.7611 38.4937C12.1642 34.2843 10.628 27.6933 12.8923 21.8935C15.1571 16.0937 20.7578 12.2741 26.999 12.2736C27.0464 12.2736 27.0943 12.2736 27.1411 12.2741C32.9935 12.329 38.29 15.7421 40.7444 21.0409C43.1988 26.3397 42.3708 32.5745 38.6182 37.0531C38.2136 37.5353 37.7795 37.9922 37.3184 38.4205C34.8273 40.7198 33.4022 43.9454 33.3823 47.3306V47.3306ZM33.6926 31.8097C33.0893 31.2081 33.0893 30.232 33.6926 29.6303C34.2964 29.0282 35.2747 29.0282 35.8784 29.6303C36.4817 30.232 36.4817 31.2081 35.8779 31.8097C35.5895 32.1014 35.1962 32.2655 34.7855 32.2655C34.3748 32.266 33.9815 32.1019 33.6926 31.8102V31.8097ZM25.9611 24.3859C25.3573 23.7843 25.3573 22.8082 25.9611 22.2065C26.5644 21.6044 27.5432 21.6044 28.1464 22.2065C28.7502 22.8082 28.7502 23.7843 28.1464 24.3859C27.5426 24.987 26.5649 24.987 25.9611 24.3864V24.3859ZM18.2291 31.8102C17.6258 31.2086 17.6258 30.233 18.2291 29.6309C18.8328 29.0292 19.8111 29.0292 20.4144 29.6309C21.0182 30.233 21.0182 31.2086 20.4144 31.8102C20.126 32.1019 19.7327 32.266 19.322 32.266C18.9113 32.266 18.5175 32.1019 18.2291 31.8102ZM31.7151 59.5222H22.2849C21.3647 59.5207 20.6187 58.7773 20.6177 57.8596V57.5898H27.4759C27.908 57.5898 28.2585 57.2402 28.2585 56.8093C28.2585 56.3779 27.908 56.0288 27.4759 56.0288H20.6177V54.0964H22.6507C23.0828 54.0964 23.4333 53.7468 23.4333 53.3159C23.4333 52.8845 23.0828 52.5354 22.6507 52.5354H20.6172V50.7127H33.3823V52.5349H27.1152C26.6831 52.5349 26.3325 52.884 26.3325 53.3154C26.3325 53.7463 26.6831 54.0959 27.1152 54.0959H33.3823V56.0283H31.5546C31.1226 56.0283 30.772 56.3779 30.772 56.8088C30.772 57.2397 31.1226 57.5893 31.5546 57.5893H33.3823V57.8591C33.3813 58.7768 32.6358 59.5207 31.7151 59.5222ZM46.1132 39.4734C45.8437 39.4657 45.5889 39.5968 45.4391 39.8209C44.1149 41.8031 42.4554 43.5415 40.5345 44.9566C40.3184 45.1162 40.1997 45.3743 40.2196 45.6416L40.4968 49.4063L34.9481 51.827V47.3189C34.9695 44.3707 36.2137 41.5628 38.3858 39.5623C41.8913 36.3072 43.8265 31.7081 43.6996 26.9327C43.4994 19.3615 38.2034 12.8778 30.8087 11.1511C23.414 9.4245 15.7818 12.8894 12.232 19.5851C8.68212 26.2807 10.1083 34.5221 15.7028 39.6441C17.8464 41.6273 19.0606 44.4144 19.0519 47.3306V51.732L14.563 50.0044L14.6741 46.2412C14.6818 45.9718 14.5503 45.7178 14.3256 45.5684C12.3374 44.2483 10.5949 42.5933 9.17585 40.6776C9.01637 40.4617 8.75702 40.3428 8.48901 40.3631L4.71395 40.64L2.0364 34.5374L4.76032 31.9322C4.94986 31.7508 5.03546 31.4866 4.98858 31.2284C4.55651 28.8788 4.49435 26.4769 4.80363 24.1085C4.83776 23.8478 4.73841 23.5882 4.53918 23.4164L1.71133 20.983L4.11271 14.7766L7.88675 14.8874C8.1568 14.8971 8.41207 14.7655 8.56085 14.5404C9.88459 12.5576 11.5441 10.8198 13.465 9.40417C13.6811 9.24513 13.8003 8.98649 13.7804 8.71972L13.5032 4.95498L19.6226 2.28525L22.2349 5.00172C22.4168 5.19126 22.6818 5.27662 22.9406 5.22937C25.2967 4.79898 27.7057 4.73699 30.0816 5.04542C30.3425 5.07845 30.6028 4.97937 30.7746 4.78069L33.2147 1.96056L39.438 4.35589L39.3269 8.11911C39.3193 8.38791 39.4507 8.64198 39.6754 8.79137C41.6631 10.1115 43.4056 11.767 44.8252 13.6826C44.9847 13.8986 45.244 14.017 45.512 13.9967L49.2866 13.7202L51.9641 19.8229L49.2397 22.4281C49.0496 22.6095 48.964 22.8742 49.0114 23.1319C49.443 25.4815 49.5051 27.8834 49.1959 30.2523C49.1622 30.5125 49.2616 30.7721 49.4608 30.9439L52.2882 33.3773L49.8863 39.5836L46.1132 39.4734Z" stroke="url(#paint0_linear)" stroke-width="1.99999" mask="url(#path-1-inside-1)"/>
<defs>
<linearGradient id="paint0_linear" x1="8.89478" y1="10.1517" x2="41.1416" y2="59.624" gradientUnits="userSpaceOnUse">
<stop stop-color="#FF2D2D"/>
<stop offset="1" stop-color="#0085FA"/>
</linearGradient>
</defs>
</svg>
