<svg width="62" height="65" viewBox="0 0 62 65" fill="none" xmlns="http://www.w3.org/2000/svg">
<path d="M29.9522 63.9055C30.1958 63.9669 30.4459 63.9985 30.6971 63.9998C30.9751 64.0033 31.2521 63.9665 31.5195 63.8904C32.4619 63.6518 39.574 61.7408 46.4936 57.343C53.4438 52.9258 60.4118 45.854 60.4118 35.2789V11.9142C60.4118 11.2363 60.1934 10.576 59.7884 10.0324C59.3833 9.48865 58.8131 9.09072 58.1625 8.89969L57.8808 9.85919L58.1614 8.89936L31.588 1.13077C31.5869 1.13043 31.5857 1.13009 31.5846 1.12975C31.0041 0.956726 30.3861 0.956751 29.8057 1.12982C29.8046 1.13014 29.8035 1.13045 29.8025 1.13077L3.22876 8.91017L3.22874 8.91011L3.21794 8.9134C2.57578 9.10929 2.01433 9.50724 1.61551 10.0473C1.21676 10.5872 1.00135 11.2409 1 11.9122V11.9142V35.2789C1 45.9557 8.11033 53.0621 15.1313 57.4716C22.1614 61.8868 29.3233 63.7486 29.9522 63.9055ZM29.9522 63.9055C29.9518 63.9054 29.9513 63.9053 29.9509 63.9052L30.1954 62.9361L29.9536 63.9059C29.9532 63.9058 29.9527 63.9056 29.9522 63.9055ZM54.159 35.2789C54.159 42.5922 49.2798 47.9217 43.7188 51.6149C38.433 55.1254 32.7308 57.0161 30.7058 57.604C28.6798 57.0165 22.9779 55.1331 17.6925 51.6267C12.1325 47.938 7.25272 42.6086 7.25272 35.2789V14.2792L30.7059 7.4014L54.159 14.2792V35.2789Z" stroke="url(#paint0_linear)" stroke-width="2"/>
<path d="M35.5972 41.4446L34.2956 39.9261L34.2896 39.9313L34.2836 39.9365L35.5972 41.4446ZM23.0272 42.4346H21.0272V44.1289L22.6984 44.4074L23.0272 42.4346ZM23.0272 37.8446L23.3958 35.8789L21.0272 35.4348V37.8446H23.0272ZM26.4472 38.3846L26.2089 40.3704L26.2135 40.3709L26.4472 38.3846ZM31.8472 38.0846L33.0593 39.6755L33.0701 39.6672L31.8472 38.0846ZM31.8472 34.6646L30.5888 36.2191L30.629 36.2517L30.6709 36.2821L31.8472 34.6646ZM23.3872 34.4246H21.3872V36.5844L23.5406 36.4188L23.3872 34.4246ZM23.3872 22.3646V20.3646H21.3872V22.3646H23.3872ZM36.4672 22.3646H38.4672V20.3646H36.4672V22.3646ZM36.4672 26.8046V28.8046H38.4672V26.8046H36.4672ZM28.3072 26.8046V24.8046H26.3072V26.8046H28.3072ZM28.3072 30.0746H26.3072V32.2482L28.4733 32.0677L28.3072 30.0746ZM31.2472 31.9846C33.0067 31.9846 33.9618 32.4321 34.4963 32.9795C35.0394 33.5356 35.4872 34.5412 35.4872 36.3746H39.4872C39.4872 33.9481 38.895 31.7587 37.3581 30.1848C35.8126 28.6022 33.6477 27.9846 31.2472 27.9846V31.9846ZM35.4872 36.3746C35.4872 38.3262 34.9603 39.3564 34.2956 39.9261L36.8988 42.9632C38.7541 41.3729 39.4872 39.0231 39.4872 36.3746H35.4872ZM34.2836 39.9365C33.5927 40.5383 32.1548 41.0646 29.4772 41.0646V45.0646C32.4796 45.0646 35.1217 44.511 36.9108 42.9528L34.2836 39.9365ZM29.4772 41.0646C27.8434 41.0646 25.8099 40.8708 23.356 40.4619L22.6984 44.4074C25.2845 44.8385 27.551 45.0646 29.4772 45.0646V41.0646ZM25.0272 42.4346V37.8446H21.0272V42.4346H25.0272ZM22.6586 39.8104C23.9701 40.0563 25.1548 40.2439 26.2089 40.3704L26.6855 36.3989C25.7396 36.2854 24.6443 36.113 23.3958 35.8789L22.6586 39.8104ZM26.2135 40.3709C27.3105 40.5 28.4086 40.5646 29.5072 40.5646V36.5646C28.5658 36.5646 27.6239 36.5093 26.6809 36.3983L26.2135 40.3709ZM29.5072 40.5646C30.1596 40.5646 30.7837 40.5198 31.3491 40.4039C31.8971 40.2914 32.52 40.0864 33.0593 39.6755L30.6351 36.4938C30.7544 36.4029 30.7773 36.4379 30.5453 36.4854C30.3307 36.5295 29.9948 36.5646 29.5072 36.5646V40.5646ZM33.0701 39.6672C34.1769 38.812 34.5072 37.54 34.5072 36.4046H30.5072C30.5072 36.5067 30.4999 36.5784 30.4924 36.6244C30.4849 36.67 30.478 36.6853 30.4807 36.6783C30.4839 36.6702 30.496 36.6427 30.5231 36.6057C30.5509 36.5679 30.5857 36.5319 30.6243 36.5021L33.0701 39.6672ZM34.5072 36.4046C34.5072 35.2832 34.2151 33.9137 33.0236 33.0472L30.6709 36.2821C30.6095 36.2375 30.5596 36.1859 30.5231 36.1361C30.4878 36.088 30.4742 36.0541 30.4722 36.049C30.4708 36.0451 30.4801 36.0687 30.4895 36.1296C30.499 36.1905 30.5072 36.2805 30.5072 36.4046H34.5072ZM33.1056 33.1102C32.1067 32.3016 30.708 32.1546 29.5372 32.1546V36.1546C30.0074 36.1546 30.3254 36.1914 30.5235 36.2351C30.7343 36.2817 30.7049 36.3131 30.5888 36.2191L33.1056 33.1102ZM29.5372 32.1546C27.7124 32.1546 25.6092 32.2478 23.2338 32.4305L23.5406 36.4188C25.8452 36.2415 27.842 36.1546 29.5372 36.1546V32.1546ZM25.3872 34.4246V22.3646H21.3872V34.4246H25.3872ZM23.3872 24.3646H36.4672V20.3646H23.3872V24.3646ZM34.4672 22.3646V26.8046H38.4672V22.3646H34.4672ZM36.4672 24.8046H28.3072V28.8046H36.4672V24.8046ZM26.3072 26.8046V30.0746H30.3072V26.8046H26.3072ZM28.4733 32.0677C29.1127 32.0145 30.0295 31.9846 31.2472 31.9846V27.9846C29.9849 27.9846 28.9417 28.0148 28.1411 28.0816L28.4733 32.0677Z" fill="black"/>
<path d="M35.5972 41.4446L34.2956 39.9261L34.2896 39.9313L34.2836 39.9365L35.5972 41.4446ZM23.0272 42.4346H21.0272V44.1289L22.6984 44.4074L23.0272 42.4346ZM23.0272 37.8446L23.3958 35.8789L21.0272 35.4348V37.8446H23.0272ZM26.4472 38.3846L26.2089 40.3704L26.2135 40.3709L26.4472 38.3846ZM31.8472 38.0846L33.0593 39.6755L33.0701 39.6672L31.8472 38.0846ZM31.8472 34.6646L30.5888 36.2191L30.629 36.2517L30.6709 36.2821L31.8472 34.6646ZM23.3872 34.4246H21.3872V36.5844L23.5406 36.4188L23.3872 34.4246ZM23.3872 22.3646V20.3646H21.3872V22.3646H23.3872ZM36.4672 22.3646H38.4672V20.3646H36.4672V22.3646ZM36.4672 26.8046V28.8046H38.4672V26.8046H36.4672ZM28.3072 26.8046V24.8046H26.3072V26.8046H28.3072ZM28.3072 30.0746H26.3072V32.2482L28.4733 32.0677L28.3072 30.0746ZM31.2472 31.9846C33.0067 31.9846 33.9618 32.4321 34.4963 32.9795C35.0394 33.5356 35.4872 34.5412 35.4872 36.3746H39.4872C39.4872 33.9481 38.895 31.7587 37.3581 30.1848C35.8126 28.6022 33.6477 27.9846 31.2472 27.9846V31.9846ZM35.4872 36.3746C35.4872 38.3262 34.9603 39.3564 34.2956 39.9261L36.8988 42.9632C38.7541 41.3729 39.4872 39.0231 39.4872 36.3746H35.4872ZM34.2836 39.9365C33.5927 40.5383 32.1548 41.0646 29.4772 41.0646V45.0646C32.4796 45.0646 35.1217 44.511 36.9108 42.9528L34.2836 39.9365ZM29.4772 41.0646C27.8434 41.0646 25.8099 40.8708 23.356 40.4619L22.6984 44.4074C25.2845 44.8385 27.551 45.0646 29.4772 45.0646V41.0646ZM25.0272 42.4346V37.8446H21.0272V42.4346H25.0272ZM22.6586 39.8104C23.9701 40.0563 25.1548 40.2439 26.2089 40.3704L26.6855 36.3989C25.7396 36.2854 24.6443 36.113 23.3958 35.8789L22.6586 39.8104ZM26.2135 40.3709C27.3105 40.5 28.4086 40.5646 29.5072 40.5646V36.5646C28.5658 36.5646 27.6239 36.5093 26.6809 36.3983L26.2135 40.3709ZM29.5072 40.5646C30.1596 40.5646 30.7837 40.5198 31.3491 40.4039C31.8971 40.2914 32.52 40.0864 33.0593 39.6755L30.6351 36.4938C30.7544 36.4029 30.7773 36.4379 30.5453 36.4854C30.3307 36.5295 29.9948 36.5646 29.5072 36.5646V40.5646ZM33.0701 39.6672C34.1769 38.812 34.5072 37.54 34.5072 36.4046H30.5072C30.5072 36.5067 30.4999 36.5784 30.4924 36.6244C30.4849 36.67 30.478 36.6853 30.4807 36.6783C30.4839 36.6702 30.496 36.6427 30.5231 36.6057C30.5509 36.5679 30.5857 36.5319 30.6243 36.5021L33.0701 39.6672ZM34.5072 36.4046C34.5072 35.2832 34.2151 33.9137 33.0236 33.0472L30.6709 36.2821C30.6095 36.2375 30.5596 36.1859 30.5231 36.1361C30.4878 36.088 30.4742 36.0541 30.4722 36.049C30.4708 36.0451 30.4801 36.0687 30.4895 36.1296C30.499 36.1905 30.5072 36.2805 30.5072 36.4046H34.5072ZM33.1056 33.1102C32.1067 32.3016 30.708 32.1546 29.5372 32.1546V36.1546C30.0074 36.1546 30.3254 36.1914 30.5235 36.2351C30.7343 36.2817 30.7049 36.3131 30.5888 36.2191L33.1056 33.1102ZM29.5372 32.1546C27.7124 32.1546 25.6092 32.2478 23.2338 32.4305L23.5406 36.4188C25.8452 36.2415 27.842 36.1546 29.5372 36.1546V32.1546ZM25.3872 34.4246V22.3646H21.3872V34.4246H25.3872ZM23.3872 24.3646H36.4672V20.3646H23.3872V24.3646ZM34.4672 22.3646V26.8046H38.4672V22.3646H34.4672ZM36.4672 24.8046H28.3072V28.8046H36.4672V24.8046ZM26.3072 26.8046V30.0746H30.3072V26.8046H26.3072ZM28.4733 32.0677C29.1127 32.0145 30.0295 31.9846 31.2472 31.9846V27.9846C29.9849 27.9846 28.9417 28.0148 28.1411 28.0816L28.4733 32.0677Z" fill="url(#paint1_linear)"/>
<defs>
<linearGradient id="paint0_linear" x1="11.4568" y1="11.4339" x2="40.7236" y2="61.5189" gradientUnits="userSpaceOnUse">
<stop stop-color="white"/>
<stop offset="1" stop-color="white"/>
</linearGradient>
<linearGradient id="paint1_linear" x1="24.0924" y1="18.314" x2="43.764" y2="36.1982" gradientUnits="userSpaceOnUse">
<stop stop-color="white"/>
<stop offset="1" stop-color="white"/>
</linearGradient>
</defs>
</svg>
