<svg width="87" height="37" viewBox="0 0 87 37" fill="none" xmlns="http://www.w3.org/2000/svg">
<path d="M83.3488 29.6002H77.7001V27.1335H82.5631C83.4225 25.1912 83.8664 23.0908 83.8664 20.9669C83.8664 18.8429 83.4225 16.7425 82.5631 14.8002H30.8334C28.3322 14.8002 15.3908 15.7757 11.6081 17.2446L10.9545 17.4975C8.63334 18.3953 2.46667 20.7794 2.46667 22.2002V25.9002C2.46667 26.2273 2.59661 26.541 2.82791 26.7723C3.0592 27.0036 3.3729 27.1335 3.7 27.1335H7.40001V29.6002H3.7C2.7187 29.6002 1.77759 29.2104 1.08371 28.5165C0.389821 27.8226 0 26.8815 0 25.9002V22.2002C0 19.3179 4.36231 17.4013 10.0652 15.1973L10.714 14.9506C15.0997 13.2425 28.6528 12.3335 30.8334 12.3335H83.3488C83.5793 12.3325 83.8054 12.3961 84.0016 12.5171C84.1978 12.638 84.3562 12.8116 84.4588 13.018C85.6952 15.4856 86.339 18.2075 86.339 20.9675C86.339 23.7274 85.6952 26.4494 84.4588 28.9169C84.356 29.1231 84.1976 29.2964 84.0014 29.4172C83.8052 29.5379 83.5791 29.6013 83.3488 29.6002Z" fill="white"/>
<path d="M22.2007 27.1333H29.2184V29.6H22.2007V27.1333Z" fill="white"/>
<path d="M34.1511 27.1333H62.9002V29.6H34.1511V27.1333Z" fill="white"/>
<path d="M22.5372 15.3686L21.8601 12.9969C24.6968 12.1853 26.6837 10.4069 28.9814 8.33611C33.1155 4.62254 38.2585 0 50.566 0C62.332 0 68.4493 4.90374 72.9263 8.48411C75.6113 10.635 77.7314 12.3333 80.166 12.3333V14.8C76.8656 14.8 74.3262 12.7663 71.3847 10.4093C66.9693 6.87091 61.4662 2.46667 50.566 2.46667C39.2033 2.46667 34.6498 6.56011 30.6316 10.1725C28.2105 12.3469 25.9252 14.4016 22.5372 15.3686Z" fill="white"/>
<path d="M70.3006 37.0001C68.5931 37.0001 66.9239 36.4938 65.5042 35.5451C64.0844 34.5965 62.9779 33.2481 62.3244 31.6706C61.671 30.093 61.5 28.3572 61.8331 26.6825C62.1662 25.0078 62.9885 23.4694 64.1959 22.262C65.4033 21.0547 66.9416 20.2324 68.6163 19.8993C70.291 19.5662 72.0269 19.7371 73.6044 20.3906C75.182 21.044 76.5303 22.1506 77.4789 23.5703C78.4276 24.9901 78.9339 26.6592 78.9339 28.3667C78.9313 30.6556 78.0209 32.8501 76.4024 34.4686C74.7839 36.0871 72.5895 36.9975 70.3006 37.0001V37.0001ZM70.3006 22.2001C69.0809 22.2001 67.8887 22.5617 66.8746 23.2393C65.8605 23.9169 65.0701 24.88 64.6033 26.0069C64.1366 27.1337 64.0145 28.3736 64.2524 29.5698C64.4903 30.766 65.0777 31.8648 65.9401 32.7272C66.8025 33.5897 67.9013 34.177 69.0975 34.4149C70.2937 34.6529 71.5337 34.5307 72.6605 34.064C73.7873 33.5973 74.7504 32.8069 75.428 31.7928C76.1056 30.7787 76.4673 29.5864 76.4673 28.3667C76.4653 26.7318 75.815 25.1645 74.6589 24.0084C73.5029 22.8524 71.9355 22.202 70.3006 22.2001V22.2001Z" fill="white"/>
<path d="M14.8003 37.0001C13.0928 37.0001 11.4237 36.4938 10.0039 35.5451C8.58417 34.5965 7.47761 33.2481 6.82417 31.6706C6.17073 30.093 5.99976 28.3572 6.33288 26.6825C6.666 25.0078 7.48825 23.4694 8.69564 22.262C9.90304 21.0547 11.4414 20.2324 13.1161 19.8993C14.7908 19.5662 16.5266 19.7371 18.1042 20.3906C19.6817 21.044 21.0301 22.1506 21.9787 23.5703C22.9273 24.9901 23.4337 26.6592 23.4337 28.3667C23.4311 30.6556 22.5207 32.8501 20.9022 34.4686C19.2837 36.0871 17.0892 36.9975 14.8003 37.0001V37.0001ZM14.8003 22.2001C13.5807 22.2001 12.3884 22.5617 11.3743 23.2393C10.3602 23.9169 9.56982 24.88 9.10308 26.0069C8.63633 27.1337 8.51421 28.3736 8.75216 29.5698C8.9901 30.766 9.57742 31.8648 10.4398 32.7272C11.3023 33.5897 12.4011 34.177 13.5973 34.4149C14.7935 34.6529 16.0334 34.5307 17.1602 34.064C18.287 33.5973 19.2501 32.8069 19.9277 31.7928C20.6053 30.7787 20.967 29.5864 20.967 28.3667C20.9651 26.7318 20.3147 25.1645 19.1587 24.0084C18.0026 22.8524 16.4352 22.202 14.8003 22.2001V22.2001Z" fill="white"/>
<path d="M48.0994 1.25195H50.566V13.5668H48.0994V1.25195Z" fill="white"/>
</svg>
