<svg width="47" height="58" viewBox="0 0 47 58" fill="none" xmlns="http://www.w3.org/2000/svg">
<path d="M47 43.1257C47 41.6471 45.9602 40.4076 44.5738 40.0977V17.679C45.9602 17.3691 47 16.1296 47 14.651C47 13.1724 45.9602 11.9329 44.5738 11.623V6.08822C45.8747 5.71877 46.8307 4.52091 46.8307 3.10324C46.8307 1.39206 45.4387 0 43.7275 0H3.10324C1.39206 0 0 1.39206 0 3.10324C0 4.52091 0.956024 5.71877 2.2569 6.08822V11.7194C1.04325 12.1411 0.169268 13.2956 0.169268 14.6511C0.169268 16.0066 1.04325 17.1611 2.2569 17.5829V32.0236C2.2569 32.491 2.63584 32.87 3.10324 32.87C3.57065 32.87 3.94958 32.491 3.94958 32.0236V17.7544H33.9664C34.4338 17.7544 34.8127 17.3754 34.8127 16.908C34.8127 16.4406 34.4338 16.0617 33.9664 16.0617H3.27251C2.49467 16.0617 1.86194 15.429 1.86194 14.6511C1.86194 13.8733 2.49467 13.2406 3.27251 13.2406H43.8968C44.6746 13.2406 45.3073 13.8733 45.3073 14.6511C45.3073 15.429 44.6746 16.0617 43.8968 16.0617H37.3517C36.8843 16.0617 36.5054 16.4406 36.5054 16.908C36.5054 17.3754 36.8843 17.7544 37.3517 17.7544H42.8812V40.0224H3.94958V35.4091C3.94958 34.9417 3.57065 34.5628 3.10324 34.5628C2.63584 34.5628 2.2569 34.9417 2.2569 35.4091V40.1941C1.04325 40.6158 0.169268 41.7703 0.169268 43.1258C0.169268 44.4813 1.04325 45.6358 2.2569 46.0575V51.742C1.04325 52.1637 0.169268 53.3182 0.169268 54.6737C0.169268 56.3849 1.56133 57.7769 3.27251 57.7769H43.8968C45.6079 57.7769 47 56.3849 47 54.6737C47 53.1951 45.9602 51.9556 44.5738 51.6457V46.1538C45.9602 45.8437 47 44.6042 47 43.1257ZM42.8812 6.20648V11.5478H3.94958V6.20648H42.8812ZM1.69268 3.10324C1.69268 2.3254 2.3254 1.69268 3.10324 1.69268H43.7275C44.5053 1.69268 45.1381 2.3254 45.1381 3.10324C45.1381 3.88108 44.5053 4.51381 43.7275 4.51381H3.10324C2.3254 4.51381 1.69268 3.88108 1.69268 3.10324ZM3.94958 51.5702V46.2289H42.8812V51.5702H3.94958ZM3.27251 41.7151H43.8968C44.6746 41.7151 45.3073 42.3478 45.3073 43.1257C45.3073 43.9035 44.6746 44.5363 43.8968 44.5363H3.27251C2.49467 44.5363 1.86194 43.9035 1.86194 43.1257C1.86194 42.3478 2.49467 41.7151 3.27251 41.7151ZM45.3073 54.6735C45.3073 55.4513 44.6746 56.084 43.8968 56.084H3.27251C2.49467 56.084 1.86194 55.4513 1.86194 54.6735C1.86194 53.8956 2.49467 53.2629 3.27251 53.2629H43.8968C44.6746 53.2629 45.3073 53.8956 45.3073 54.6735Z" fill="white"/>
<path d="M23.467 36.2551C26.3949 36.2276 28.7769 33.8227 28.7769 30.8943C28.7769 27.1379 26.3445 23.8274 24.8946 22.1883C24.5198 21.7646 23.9805 21.5215 23.4149 21.5215C22.8506 21.5215 22.3123 21.7638 21.9386 22.1864C20.5445 23.7619 18.1867 26.9488 18.06 30.5894C18.0079 32.0842 18.5713 33.5559 19.6056 34.6269C20.6197 35.677 21.9731 36.2553 23.4165 36.2554L23.467 36.2551ZM19.7517 30.6483C19.8601 27.5362 21.9626 24.7136 23.2064 23.308C23.2786 23.2265 23.3681 23.2142 23.415 23.2142C23.4625 23.2142 23.5534 23.2266 23.6268 23.3097C24.918 24.7695 27.0842 27.6958 27.0842 30.8942C27.0842 32.8981 25.4545 34.5436 23.4511 34.5624L23.4166 34.5625C22.4364 34.5624 21.5154 34.1676 20.8232 33.4508C20.1061 32.7085 19.7155 31.6869 19.7517 30.6483V30.6483Z" fill="white"/>
</svg>
