<svg width="45" height="56" viewBox="0 0 45 56" fill="none" xmlns="http://www.w3.org/2000/svg">
<path d="M40.8096 39.3043C40.6666 39.3041 40.5261 39.2688 40.4016 39.2018C40.277 39.1348 40.1726 39.0382 40.0984 38.9214C40.0242 38.8047 39.9826 38.6716 39.9778 38.535C39.9729 38.3985 40.0049 38.263 40.0707 38.1417C40.448 37.4442 40.7746 36.7785 41.0703 36.108C41.1587 35.9182 41.3213 35.769 41.5232 35.6922C41.7252 35.6154 41.9505 35.617 42.1512 35.6968C42.3519 35.7766 42.512 35.9283 42.5973 36.1193C42.6827 36.3104 42.6865 36.5258 42.6081 36.7196C42.299 37.4314 41.9541 38.1361 41.5543 38.8743C41.4837 39.0046 41.3767 39.1137 41.2453 39.1896C41.1139 39.2655 40.9631 39.3051 40.8096 39.3043V39.3043Z" fill="white"/>
<path d="M43.5924 31.8669C43.5365 31.8673 43.4806 31.8619 43.4258 31.851C43.2092 31.8097 43.0187 31.6878 42.896 31.5122C42.7734 31.3366 42.7288 31.1217 42.7719 30.9146C42.9385 30.1414 43.0651 29.3515 43.1618 28.5656C43.1725 28.4602 43.2052 28.3579 43.2578 28.2648C43.3104 28.1716 43.3819 28.0894 43.4681 28.023C43.5544 27.9565 43.6536 27.9072 43.76 27.8779C43.8664 27.8485 43.9779 27.8398 44.0879 27.8521C44.1979 27.8644 44.3042 27.8976 44.4007 27.9497C44.4971 28.0018 44.5817 28.0717 44.6495 28.1555C44.7173 28.2392 44.767 28.335 44.7956 28.4372C44.8242 28.5395 44.8312 28.6462 44.8162 28.7511C44.7145 29.5792 44.5762 30.4121 44.4055 31.2267C44.3679 31.4066 44.2664 31.5686 44.1183 31.6853C43.9701 31.8019 43.7844 31.8661 43.5924 31.8669V31.8669Z" fill="white"/>
<path d="M22.5 55.7393C22.3696 55.7391 22.2409 55.7099 22.1243 55.6541C8.2711 48.9709 0 37.7602 0 25.664V9.55539C4.20835e-05 9.44401 0.0245304 9.33387 0.071882 9.2321C0.119234 9.13033 0.188395 9.03918 0.274898 8.96455C0.361661 8.89025 0.463621 8.83397 0.574321 8.79929C0.685022 8.76462 0.80205 8.75229 0.917993 8.7631C9.15578 9.5737 16.2032 6.71986 21.8619 0.28358C21.9393 0.195711 22.0356 0.124881 22.1443 0.0759507C22.253 0.0270203 22.3715 0.00114724 22.4917 0.000106672C22.612 -0.00178972 22.7313 0.02162 22.8412 0.0686792C22.951 0.115738 23.0487 0.185297 23.1273 0.272432C28.0979 5.707 35.1828 8.56164 44.1861 8.75912C44.4037 8.7639 44.6107 8.8499 44.7628 8.99872C44.9149 9.14753 45.0001 9.34734 45 9.55539V22.67C45 22.8812 44.9122 23.0837 44.756 23.2331C44.5998 23.3824 44.3879 23.4663 44.167 23.4663C43.946 23.4663 43.7342 23.3824 43.5779 23.2331C43.4217 23.0837 43.3339 22.8812 43.3339 22.67V10.3278C34.6013 9.9814 27.6056 7.18249 22.515 1.99796C16.8004 8.14519 9.79387 10.9736 1.66605 10.4241V25.664C1.66605 37.038 9.44567 47.6244 22.5 54.0488C28.1299 51.3577 33.0714 47.5153 36.9738 42.7942C37.0403 42.7112 37.1232 42.6414 37.2178 42.589C37.3125 42.5365 37.417 42.5024 37.5255 42.4886C37.6339 42.4747 37.7442 42.4815 37.8499 42.5084C37.9556 42.5353 38.0548 42.5818 38.1417 42.6453C38.2286 42.7089 38.3016 42.7881 38.3565 42.8786C38.4113 42.9691 38.447 43.069 38.4615 43.1727C38.4759 43.2763 38.4689 43.3817 38.4408 43.4828C38.4126 43.5839 38.3639 43.6786 38.2975 43.7617C34.1515 48.7779 28.8817 52.8417 22.8757 55.6541C22.7591 55.7099 22.6304 55.7391 22.5 55.7393V55.7393Z" fill="white"/>
<path d="M22.4999 50.5268C22.3569 50.5269 22.2162 50.4915 22.0917 50.4241C11.2191 44.5826 4.729 35.3618 4.729 25.7571V14.1244C4.72879 13.9193 4.81139 13.722 4.95959 13.5736C5.1078 13.4253 5.31017 13.3373 5.52454 13.3281C11.7026 13.072 17.5716 10.6739 22.0343 6.58208C22.1834 6.44988 22.3779 6.37439 22.5812 6.36985C22.7846 6.3653 22.9826 6.43201 23.138 6.55739C27.8085 10.2152 33.5196 12.4496 39.5328 12.9714C39.736 12.9935 39.9236 13.0863 40.0599 13.2321C40.1962 13.3779 40.2715 13.5666 40.2717 13.7621V25.7563C40.2717 35.361 33.7807 44.5826 22.9081 50.4241C22.7836 50.4915 22.643 50.5269 22.4999 50.5268ZM6.39505 14.8753V25.7571C6.39505 34.6587 12.4062 43.2497 22.4999 48.8117C32.5945 43.2481 38.6056 34.6555 38.6056 25.754V14.466C32.7778 13.8341 27.247 11.6717 22.6265 8.21842C18.1513 12.1163 12.4339 14.4611 6.39505 14.8753V14.8753Z" fill="white"/>
<path d="M18.8605 34.9663C18.6396 34.9663 18.4277 34.8823 18.2715 34.733L13.5808 30.2492C13.429 30.099 13.3451 29.8979 13.347 29.6891C13.3489 29.4803 13.4365 29.2806 13.5909 29.133C13.7454 28.9853 13.9543 28.9016 14.1727 28.8998C14.3911 28.898 14.6016 28.9782 14.7587 29.1233L18.8605 33.0457L30.2413 22.1646C30.3186 22.0906 30.4104 22.0319 30.5115 21.9919C30.6126 21.9518 30.7209 21.9312 30.8303 21.9312C30.9397 21.9311 31.0481 21.9517 31.1492 21.9917C31.2503 22.0317 31.3422 22.0903 31.4196 22.1642C31.497 22.2382 31.5584 22.3259 31.6003 22.4225C31.6422 22.5192 31.6638 22.6227 31.6638 22.7273C31.6639 22.8319 31.6423 22.9355 31.6005 23.0321C31.5587 23.1288 31.4973 23.2166 31.42 23.2906L19.4494 34.733C19.2932 34.8823 19.0814 34.9663 18.8605 34.9663V34.9663Z" fill="white"/>
</svg>
