<svg width="71" height="35" viewBox="0 0 71 35" fill="none" xmlns="http://www.w3.org/2000/svg">
<path d="M36.5902 32.4933L39.7073 29.3763C39.9928 29.0908 39.9928 28.6229 39.7073 28.3374L39.4471 28.0772C39.162 27.7917 38.694 27.7917 38.4085 28.0772L36.0296 30.4555L33.651 28.0769C33.3655 27.7914 32.8976 27.7914 32.6124 28.0769L32.3523 28.337C32.0665 28.6225 32.0665 29.0905 32.3523 29.376L35.4697 32.493C35.6228 32.6465 35.8283 32.7148 36.0299 32.7034C36.2312 32.7151 36.4367 32.6468 36.5902 32.4933Z" fill="white"/>
<path d="M35.3383 14.1693L32.2212 17.2863C31.9357 17.5718 31.9357 18.0397 32.2212 18.3252L32.4813 18.5854C32.7665 18.8709 33.2344 18.8709 33.5199 18.5854L35.8988 16.2071L38.2774 18.5857C38.5629 18.8712 39.0309 18.8712 39.316 18.5857L39.5762 18.3255C39.862 18.0401 39.862 17.5721 39.5762 17.2866L36.4588 14.1696C36.3056 14.0161 36.1001 13.9478 35.8985 13.9592C35.6972 13.9475 35.4917 14.0158 35.3383 14.1693Z" fill="white"/>
<path d="M68.1885 24.2159H63.5672V22.1979H67.5457C68.2488 20.6089 68.6119 18.8905 68.6119 17.1529C68.6119 15.4153 68.2488 13.6969 67.5457 12.1079H25.2251C23.1788 12.1079 12.5914 12.906 9.49674 14.1077L8.96197 14.3146C7.06303 15.0491 2.01801 16.9995 2.01801 18.1619V21.1889C2.01801 21.4565 2.12431 21.7131 2.31354 21.9024C2.50276 22.0916 2.75941 22.1979 3.02701 22.1979H6.05402V24.2159H3.02701C2.2242 24.2159 1.45427 23.897 0.886591 23.3293C0.318916 22.7616 0 21.9917 0 21.1889V18.1619C0 15.8038 3.56885 14.2358 8.23448 12.4328L8.76522 12.231C12.3532 10.8335 23.4412 10.0899 25.2251 10.0899H68.1885C68.3771 10.089 68.5621 10.141 68.7226 10.24C68.8831 10.339 69.0127 10.481 69.0966 10.6499C70.1081 12.6686 70.6348 14.8954 70.6348 17.1534C70.6348 19.4114 70.1081 21.6382 69.0966 23.6569C69.0125 23.8256 68.8829 23.9674 68.7224 24.0662C68.5619 24.165 68.377 24.2168 68.1885 24.2159Z" fill="white"/>
<path d="M18.1633 22.1982H23.9046V24.2162H18.1633V22.1982Z" fill="white"/>
<path d="M27.9397 22.1982H51.4596V24.2162H27.9397V22.1982Z" fill="white"/>
<path d="M18.4385 12.5732L17.8845 10.6329C20.2052 9.96896 21.8307 8.51398 23.7105 6.81986C27.0927 3.78175 31.3002 0 41.3691 0C50.995 0 55.9996 4.0118 59.6623 6.94094C61.8589 8.70064 63.5934 10.09 65.5852 10.09V12.108C62.8851 12.108 60.8075 10.4442 58.4011 8.51599C54.7888 5.62116 50.2867 2.01801 41.3691 2.01801C32.0731 2.01801 28.3479 5.36689 25.0606 8.32226C23.0799 10.1011 21.2102 11.7821 18.4385 12.5732Z" fill="white"/>
<path d="M57.5132 30.2701C56.1163 30.2701 54.7507 29.8559 53.5892 29.0798C52.4277 28.3037 51.5224 27.2006 50.9878 25.91C50.4533 24.6194 50.3134 23.1992 50.5859 21.8291C50.8584 20.4591 51.5311 19.2005 52.5189 18.2128C53.5067 17.225 54.7652 16.5523 56.1353 16.2798C57.5054 16.0072 58.9255 16.1471 60.2161 16.6817C61.5067 17.2163 62.6098 18.1216 63.3859 19.2831C64.162 20.4446 64.5763 21.8101 64.5763 23.2071C64.5741 25.0796 63.8293 26.8749 62.5052 28.199C61.1811 29.5231 59.3858 30.268 57.5132 30.2701V30.2701ZM57.5132 18.1621C56.5154 18.1621 55.54 18.4579 54.7104 19.0123C53.8807 19.5666 53.2341 20.3546 52.8522 21.2764C52.4704 22.1983 52.3705 23.2127 52.5651 24.1913C52.7598 25.1699 53.2403 26.0689 53.9459 26.7744C54.6514 27.48 55.5504 27.9605 56.529 28.1552C57.5076 28.3498 58.522 28.2499 59.4439 27.8681C60.3657 27.4862 61.1537 26.8396 61.708 26.0099C62.2624 25.1803 62.5582 24.2049 62.5582 23.2071C62.5566 21.8695 62.0246 20.5873 61.0788 19.6415C60.133 18.6957 58.8508 18.1637 57.5132 18.1621V18.1621Z" fill="white"/>
<path d="M12.1077 30.2701C10.7108 30.2701 9.34521 29.8559 8.1837 29.0798C7.02219 28.3037 6.11691 27.2006 5.58232 25.91C5.04774 24.6194 4.90787 23.1992 5.18039 21.8291C5.45292 20.4591 6.12561 19.2005 7.11339 18.2128C8.10118 17.225 9.35969 16.5523 10.7298 16.2798C12.0999 16.0072 13.52 16.1471 14.8106 16.6817C16.1012 17.2163 17.2043 18.1216 17.9804 19.2831C18.7565 20.4446 19.1707 21.8101 19.1707 23.2071C19.1686 25.0796 18.4238 26.8749 17.0997 28.199C15.7755 29.5231 13.9803 30.268 12.1077 30.2701V30.2701ZM12.1077 18.1621C11.1099 18.1621 10.1345 18.4579 9.30485 19.0123C8.4752 19.5666 7.82856 20.3546 7.44672 21.2764C7.06487 22.1983 6.96496 23.2127 7.15963 24.1913C7.35429 25.1699 7.83478 26.0689 8.54034 26.7744C9.2459 27.48 10.1448 27.9605 11.1235 28.1552C12.1021 28.3498 13.1165 28.2499 14.0384 27.8681C14.9602 27.4862 15.7481 26.8396 16.3025 26.0099C16.8568 25.1803 17.1527 24.2049 17.1527 23.2071C17.1511 21.8695 16.6191 20.5873 15.6733 19.6415C14.7275 18.6957 13.4452 18.1637 12.1077 18.1621V18.1621Z" fill="white"/>
<path d="M39.3503 1.02393H41.3683V11.0988H39.3503V1.02393Z" fill="white"/>
</svg>
